M48
;Layer_Color=9474304
;FILE_FORMAT=2:5
INCH,LZ
;TYPE=PLATED
T1F00S00C0.00800
T2F00S00C0.01000
T3F00S00C0.01200
T4F00S00C0.01299
T5F00S00C0.01500
T6F00S00C0.02559
T7F00S00C0.03500
T8F00S00C0.03543
T9F00S00C0.04016
T10F00S00C0.05906
T11F00S00C0.08268
;TYPE=NON_PLATED
T12F00S00C0.03543
T13F00S00C0.04724
T14F00S00C0.05000
T15F00S00C0.05118
T16F00S00C0.06693
T17F00S00C0.08268
%
T01
X00427Y01162
X00468
Y01262
X00427
X00826Y0121
Y01186
X00716Y015
X01122Y00868
X0118209Y0093996
X01142Y00752
X0141
X0143701Y0085335
X0145669Y00875
X0147539Y0085827
X0153543Y0092224
X0155515Y00904
X01575Y00949
X01628Y00941
X01615Y00914
X0169291Y0091732
X0171263Y0093602
X0167323Y0095669
X0173228Y0099803
X0175283Y0101587
X0191093Y0101722
X0190783Y0099248
X0191205Y0104394
X0202461Y0105512
X0206201Y0102067
X0209547Y0102165
X0209449Y0097441
X0210728Y0095374
X0213287Y00964
X0215846Y0096358
X0215748Y0093012
X02163Y01003
X0219587Y010565
X0222395Y010763
X0218799Y010998
X0213798Y011065
X0207893Y0110294
X02067Y01154
X02092Y0116
X0207893Y0123249
X0213798Y0121674
X0215767Y0123544
X0221672Y0121871
Y0115867
X0230466Y0110583
X0232776Y0110571
X0235092Y0109894
X0236704Y010811
X023376Y010752
X0240846Y010939
X0245866Y0110866
X0246541Y0118656
X0249325Y012144
X0252109Y0124224
X0254893Y0127008
X0257141Y0129482
X0256594Y0131831
X0251926Y0132758
X0249142Y0129975
X0246358Y0127191
X0243574Y0124407
X0239202Y0128779
X0236704Y0122078
X0230798Y0121979
X022883Y0125031
X0224213Y0140059
X0217618Y0138228
Y0135866
X021624Y0133209
X0214796Y0147007
X0217996Y0147057
X0217717Y0150039
X0221017Y0150078
X0221296Y0147207
X0227087Y014689
X0230214
X0233414
X0236614
Y0149939
Y0153139
X0233465Y0153189
Y0156339
X0236614
Y0159438
X0233465Y0159488
X0230315
Y0156339
X022717
X0227127Y0153339
X0230315Y0153189
X0230354Y0150039
X0233465
X0227054
X02208Y01532
X0220866Y0156339
X0218017Y0156527
X0217717Y0159488
X0214567
X0214717Y0156377
X0214567Y0153189
X0211422Y0153306
X0211417Y0156339
X0208457Y0156639
X0208607Y0159939
X0208268Y0165787
X0208457Y0168636
X0211417Y0165787
X0214605Y0165637
X0217717Y0162638
X0220866Y0159488
X0224166Y0159527
X0223977Y0162788
X02209Y01659
X0230315Y0162638
X0233465
X0236614
X0255512Y0160264
X0256988Y0158307
X0257Y015239
Y0148453
X0254429Y0148465
X025748Y014502
X0262303Y0146496
X0268406Y0144626
X0268492Y0156327
X0262923Y013539
X0257283Y0138327
X0268307Y0127106
X0266831Y009561
X0260209Y0095062
X0248531Y0095882
X0251809Y0099843
X025315Y010811
X0256201Y0106043
X0249352Y0084205
X0243923Y0078776
X0234055Y0081406
X0231693Y0084153
X0229429Y0086614
X0207185Y0085925
X0204724Y008809
X0206541Y0095132
X0208366Y007441
X0216831Y007461
X0189075Y0075295
X0179137Y0075299
X0163389Y007539
X0151578Y00945
X014961Y00965
X014345Y0098039
X0137008Y0098327
X0133268Y0053248
X0132972Y0049016
X0151673Y0029528
X0240528Y0034339
X0227756Y0051181
X0228051Y0055118
X0267769Y0054909
X0267103Y0051977
X0185728Y0115847
X0180118Y0121555
X0179921Y0125394
X0175492Y0129232
X0175295Y013248
X0173721Y0136811
X0191437Y0162402
X0208306Y0153339
X0208268Y0150039
X0208156Y014689
X0211456Y0146858
X0211526Y0150106
X0271063Y0153583
X0271358Y0166378
X0269488Y0141181
X0268898Y0137358
X027185Y0137638
X0274508Y0130256
X0278543Y0126713
X0284252Y0118067
X0291483Y0121693
X0287992Y0136041
X0282976Y0136748
X029196Y0139311
X0294685Y0103287
X0305892Y0110903
X0317656Y0106377
X0321389Y0106263
X031777Y0102644
X0325984Y0098372
X0329528Y0101743
X0310531Y0095406
X0306912Y0091787
X030318Y00919
X0303293Y0088168
X0299114Y0088728
X0299674Y0084549
X0305408Y0078386
X0302385Y00746
X0310067Y0075363
X0296956Y0069172
X0291649Y0063622
X0286099Y0058315
X028067Y0052886
X0275242Y0047458
X0271623Y0043839
X0272532Y0057406
X0268799Y0057519
X0271654Y006126
X0274228Y0062948
X0281579Y0066454
X0287008Y0071882
X0292436Y0077311
X0274803Y0091083
X0277559Y0110079
X0277953Y0174153
X0286122Y0182126
X0285433Y0184587
X0289567Y0188819
X029252Y0186949
X0295768Y0183209
X02984Y0182
X0285335Y0193051
X0278051Y019935
Y0201708
X02742Y02047
X0269Y0208
X02825Y02103
X02665Y0207
X02632Y02069
X0259547Y0203287
X0259449Y0199941
X0253346Y0200925
X0254429Y0204764
X0245768Y0209784
X0243406
X0247244Y0192756
X0246161Y0188425
X0243209Y0184783
X0239764Y0178386
Y0175236
X02366Y01753
X0236614Y0178386
X0233465Y0175236
Y0172087
X0236614
X0236576Y0168787
X0233465Y0168937
X0230315
X0227209Y0168893
X0227165Y0172087
X0230315
X0230165Y0175198
X0227165Y0175236
X02208Y01752
X0218017Y0175047
X0214717Y0175198
Y0172048
X0211417Y0172087
Y0175124
X0208268Y0175236
X0208306Y0171936
X0211456Y0168787
X0214644Y0168748
X02208Y01691
Y01721
X0217717Y0178386
X0211417Y0178424
X0215158Y0184783
X02191Y01883
X0219193Y0191969
X02218Y01916
X02224Y01891
X0222441Y0186653
X02269Y01891
X0226181Y0191476
X02326Y01918
X023376Y0193937
Y0188917
X0222546Y0197178
X0218701Y0197382
X02139Y02015
X02068Y02019
X02217Y0204
X0224Y02039
X0226181Y020378
X0220866Y0209193
X0249803Y0177697
X0248622Y0175433
X024941Y0173169
X0245866Y0173366
X0248721Y0168839
X02611Y01688
X0268406Y0178583
X01815Y01775
X01752Y01721
T02
X0253038Y0011138
X00894Y00116
X00864Y00265
X00923Y00332
Y0036
X00958
Y0033154
X00944Y00397
X00931Y00446
X0098638Y00444
X00964Y00532
X0103362Y0051538
X0109957Y00536
X01082Y00467
X01063Y00369
X01102
X01077Y003
X01003Y00257
X0083038Y0036262
X00799Y00338
X00748Y0035502
X00722Y00333
X00712Y0044
X00721Y00523
X00751
X00669Y00512
X00626Y0054
X00596Y00585
X00546
X00507Y00579
X00324
X003Y00562
X00274Y00563
X00218Y0063259
X00146Y00638
X0014618Y00746
X00158Y00773
X00132
X0019736Y0075964
X00241Y00776
X00207Y00817
X00196Y00974
X00184Y01047
X00199Y01095
X0034Y01075
X00397Y00887
X00372Y00778
X00533
X0067771Y0083071
X0067371Y0093071
X00673Y00987
X00702Y01012
X00743
X00784Y01011
X00829Y0098238
X0096Y0096
X00998Y00921
X00987Y0084
X00968Y00766
X00985Y00722
X00835Y00699
X0085Y00674
X00819
X0083382Y00652
X00834Y00544
X00864Y00523
X0086702Y00471
X0069Y00567
X006905Y006315
X00724Y00769
X00801Y00792
X0107005Y0100295
X00953Y01234
X009055Y01345
X00837
X00824Y01281
X00779Y01395
X0074633Y0139467
X00713Y01396
X00669Y01379
X00623Y01274
X00666Y01182
X00488Y00977
X00453Y01378
X00265Y01282
X0011536Y0123764
X00097Y01256
X00127Y01352
X00123Y01405
X0012264Y0144236
X0018Y01538
X00735Y01547
X01044Y01537
X01055Y01457
X01086Y01467
X0107677Y0142623
X00979Y01372
X01067Y01652
X01049Y01678
X00299Y00678
X00164Y00521
X00072Y00549
X0004Y00819
X00195Y00369
X00471Y0035502
X00496Y00336
X00484Y00391
X0040098Y00285
X0046Y00201
X00591Y00191
X0062638Y0018462
X00688Y00184
X0073238Y0014038
X00748Y0021498
X01129Y00329
X01136Y00369
X01129Y00407
Y00454
X01219Y00433
X01233Y00397
X0131Y0043
X0132893Y0041307
X01356Y00406
X01314Y00305
X01288Y00281
X01261Y00305
X01216Y00302
X01237Y00278
X0122Y00578
X01214Y00615
X01302Y00623
X01381Y00709
X01336Y00916
X01323Y0094
X01271Y01004
X0123595Y0100295
X012428Y010502
X012595Y012015
X0130512Y0118588
X01338Y01208
X01332Y01297
X0127Y012685
X012055Y01254
X01208Y01293
X01169Y01315
X01179Y01347
X01192Y01377
X01145Y01374
X0113728Y0132972
X0114033Y0127067
X01153Y01211
X0116732Y0117568
X012055Y01194
X01238Y01367
X012735Y0137
X01307Y013835
X014Y01411
X01428Y01422
X0138696Y0143996
X01385Y01472
X0144787Y0150787
X014285Y016005
X01469
X01484Y01667
X01594Y01596
X01576Y0153873
X01567Y01498
X01602Y01483
X01607Y01454
X01581Y01405
X01549Y01429
X01547Y01375
X0151378Y01272
X01511Y01157
X01572Y0115
X01594Y01125
X01608Y01162
X0166437Y01163
X01695Y01169
X01519Y01088
X01466Y01079
X01488Y01055
X014Y01002
X0139567Y0113333
X01326Y015175
X01277Y01601
X0129Y01623
X01249Y01666
X01691Y01648
X01748Y01622
X01739Y01582
X0179Y01608
X0173Y0147
X01731Y01405
X02061Y01379
X0203789Y0135511
X02135Y00992
X02335Y0116
X0267Y00385
X0265938Y00217
X02602Y0021
X02663Y00141
X0118Y00547
X01129Y00665
X02729Y00385
X02796Y00236
X02999Y00652
X02857Y00962
X0271853Y0132247
X02787Y01643
X02821Y0164
X02977Y01627
X02971Y01546
X02956Y01515
X03074Y01535
X03076Y01582
X0306962Y0165362
X03212Y01576
X03227Y0109941
X03189Y01803
X03161Y01775
X0309005Y0177205
X030491Y017881
X03041Y01831
X03038Y0187
X02959Y01795
X02923Y01729
X02864
X02886Y02071
X02857Y02114
X02826Y02138
X02772Y02141
X02688Y02221
X0305Y02143
X03071Y02039
X03183Y0203061
X03193Y02078
X03224Y02129
X03272Y0203061
X03282Y01989
X03272Y01941
X0325761Y0185739
X03191Y01901
X02601Y02092
X02567Y02136
X02576Y0216
X02661Y0222973
X02659Y02289
X02175Y02198
X02168Y02172
X02192Y0218
X02187Y02153
X0213102Y0203936
X0209581Y02044
X02099Y02019
X0212Y01896
X0220749Y0195334
X02001Y01853
X01898Y0186
X01908Y01743
X0198212Y0171512
X016258Y018738
X01507Y01883
X0150816Y0191384
X0148Y01912
X01476Y01888
X01479Y01988
X015522Y02044
X01648Y02147
X01692Y02141
X01782Y02123
X01809Y02096
X01876Y02146
X01867Y02188
X01917Y02185
X0204Y02257
X01781Y02273
X0170138Y0226362
X01476Y022
X01444Y02164
X0140762Y0219262
X0138Y02201
X01195Y02127
X01158
X01149Y02058
X01141Y018015
X01126Y01776
X01231Y0173
X0127Y01713
X01249Y01691
X01348Y01689
X01378Y01691
X01371Y01885
X01272Y01887
X01089Y01956
X011025Y017965
X01098Y01763
X01067Y01762
X010475Y01737
X01047Y01709
X01009Y01823
X00783Y01787
X00799Y01765
X00786Y01739
X00799Y01714
X00768Y01704
X00736
X00703Y01693
X00675
X00647
X00621
Y01777
X00647
X00675
X00703
X00736Y01788
X00759Y01772
X00753Y01847
X00727Y01855
X0073Y01831
X00699Y01842
X00673Y01827
X00667Y01857
X00574Y01889
X00552Y01871
X00558Y01917
X00547Y01944
X00572Y01949
X00573Y02013
X00576Y02182
X00529
X00478Y02185
Y02155
X00418Y02187
X00389Y02196
X00347Y02178
X00335Y01875
X00375
X00415
X00476Y0187
X00405Y01776
X00377
X00373Y01689
X00403
X00225Y01693
Y01724
Y01752
X00226Y01778
X00199Y01762
Y01737
X002Y01708
X00166Y0185075
X00215Y01875
X00255
X00295
X0081477Y0193323
X00808Y02016
X00769Y02058
X0089Y02057
X00934Y02098
X00915Y02122
X0082809Y02148
X00684Y02168
X00636Y02215
X01029Y02166
T03
X01979Y01768
X01956Y01855
X0205512Y018252
X0243209Y0181831
X0255217Y0177303
X026051Y0177226
X01921Y02088
X01922Y0212
T04
X0013043Y0066701
X0016193
X0014618Y0069161
X0016193Y0071622
X0013043
X0081807Y0062299
X0084957
X0083382Y0059839
X0084957Y0057378
X0081807
X0063462Y0037462
Y0032738
X0058738
Y0037462
T05
X0272Y0005
X0282
X0291
X03
X0308
X0318
X03246
X0331
X0336Y0009
X0261Y0005
X025
X0237
X0225
X0213
X0201
X0188
X0177
X0169
X016
X0151
X0142
X0133
X0124
X0114
X0104
X0094
X008
X0065
X0055
X0045
X0035
X0025
X001
X0005Y00115
Y0031
X-001Y00724
Y00784
Y00844
X-0009961Y0090581
Y0096181
Y0105781
Y0112781
Y0120781
Y0135781
Y0143781
X-001Y0152
Y0161
X013935Y015805
X01474Y01342
X01729Y01687
X01785Y01645
X0336Y0168
Y016
Y0152
Y0144
Y0136
Y0129
Y0121
Y0113
Y0105
Y0098
Y0091
Y0079
Y0072
Y0064
Y0056
Y0043
Y0035
Y0027
Y0018
Y0176
Y0184
Y0192
Y02
Y0208
Y0216
Y0224
X03095
X03045
X029685Y0223622
X0278346Y0233071
X0267Y02261
X02562Y02304
X02408Y02317
X02295Y02318
X02199Y02317
X02092Y02318
X02027
X01946Y02319
X018Y0232
X0172
X0164
X0156
X0148
X014
X0132
X0124
X0116
X01435Y02194
X01411Y02156
X01479Y0202
X01515Y01998
X01594Y0179
X0108Y0232
X01
X0092
X0084
X00618Y02329
X0055Y0233
X0047
X0029Y02329
X00194Y0233
X0005Y0225
Y0217
X00049Y01979
X-001Y018
Y0171
T06
X01172Y0219267
X01222
X01272
X01322
T07
X00385Y00135
T08
X0011024Y0092126
Y0101969
Y0166535
X0302854Y0149606
X0309925Y0142535
X0316997Y0135464
X0324067Y0128393
X03195Y00287
Y0018857
X02925Y0019
Y0028842
Y0038685
X0293071Y0230709
X0303071
X0313071
X0323071
X0333071
X0234252Y0226772
X022441
X0214567
X0011024Y0176378
T09
X0308188Y00187
Y00287
Y00387
T10
X-0007953Y0190748
T11
X-0007953Y0060827
X02535Y00401
X0349134Y0047441
Y0190748
T12
X0269882Y0229343
X0286614
T13
X0088189Y0109976
Y0129661
X0161158Y0202854
X0180842
T14
X0164252Y0066929
X0204252
T15
X0024409Y0229134
T16
X0088Y0198441
Y0226
T17
X0040512Y0049071
Y0197071
M30
