%FSLAX25Y25*%
%MOIN*%
G70*
G01*
G75*
%ADD10C,0.00500*%
%ADD11C,0.03000*%
%ADD12C,0.02000*%
%ADD13C,0.01000*%
%ADD14C,0.00800*%
%ADD15C,0.01500*%
%ADD16C,0.00700*%
%ADD17C,0.01200*%
%ADD18C,0.05000*%
%ADD19C,0.02200*%
%ADD20C,0.00600*%
%ADD21C,0.01400*%
%ADD22C,0.01800*%
%ADD23C,0.04000*%
%ADD24C,0.02500*%
%ADD25R,0.02362X0.03150*%
%ADD26R,0.09055X0.09055*%
%ADD27R,0.06299X0.03347*%
%ADD28P,0.05568X4X180.0*%
%ADD29R,0.03937X0.04331*%
%ADD30R,0.03150X0.02362*%
%ADD31R,0.03150X0.02756*%
%ADD32R,0.05118X0.07087*%
%ADD33O,0.06693X0.01378*%
%ADD34R,0.02756X0.03150*%
%ADD35R,0.03937X0.03937*%
%ADD36R,0.10236X0.10236*%
%ADD37O,0.00984X0.03150*%
%ADD38O,0.03150X0.00984*%
%ADD39R,0.09449X0.07874*%
G04:AMPARAMS|DCode=40|XSize=23.62mil|YSize=31.5mil|CornerRadius=0mil|HoleSize=0mil|Usage=FLASHONLY|Rotation=135.000|XOffset=0mil|YOffset=0mil|HoleType=Round|Shape=Rectangle|*
%AMROTATEDRECTD40*
4,1,4,0.01949,0.00278,-0.00278,-0.01949,-0.01949,-0.00278,0.00278,0.01949,0.01949,0.00278,0.0*
%
%ADD40ROTATEDRECTD40*%

G04:AMPARAMS|DCode=41|XSize=23.62mil|YSize=31.5mil|CornerRadius=0mil|HoleSize=0mil|Usage=FLASHONLY|Rotation=225.000|XOffset=0mil|YOffset=0mil|HoleType=Round|Shape=Rectangle|*
%AMROTATEDRECTD41*
4,1,4,-0.00278,0.01949,0.01949,-0.00278,0.00278,-0.01949,-0.01949,0.00278,-0.00278,0.01949,0.0*
%
%ADD41ROTATEDRECTD41*%

%ADD42R,0.05512X0.07284*%
%ADD43R,0.02756X0.01496*%
G04:AMPARAMS|DCode=44|XSize=27.56mil|YSize=31.5mil|CornerRadius=0mil|HoleSize=0mil|Usage=FLASHONLY|Rotation=135.000|XOffset=0mil|YOffset=0mil|HoleType=Round|Shape=Rectangle|*
%AMROTATEDRECTD44*
4,1,4,0.02088,0.00139,-0.00139,-0.02088,-0.02088,-0.00139,0.00139,0.02088,0.02088,0.00139,0.0*
%
%ADD44ROTATEDRECTD44*%

%ADD45C,0.03800*%
G04:AMPARAMS|DCode=46|XSize=15.75mil|YSize=45.28mil|CornerRadius=0mil|HoleSize=0mil|Usage=FLASHONLY|Rotation=225.000|XOffset=0mil|YOffset=0mil|HoleType=Round|Shape=Round|*
%AMOVALD46*
21,1,0.02953,0.01575,0.00000,0.00000,315.0*
1,1,0.01575,-0.01044,0.01044*
1,1,0.01575,0.01044,-0.01044*
%
%ADD46OVALD46*%

G04:AMPARAMS|DCode=47|XSize=27.56mil|YSize=31.5mil|CornerRadius=0mil|HoleSize=0mil|Usage=FLASHONLY|Rotation=225.000|XOffset=0mil|YOffset=0mil|HoleType=Round|Shape=Rectangle|*
%AMROTATEDRECTD47*
4,1,4,-0.00139,0.02088,0.02088,-0.00139,0.00139,-0.02088,-0.02088,0.00139,-0.00139,0.02088,0.0*
%
%ADD47ROTATEDRECTD47*%

%ADD48R,0.01969X0.00984*%
G04:AMPARAMS|DCode=49|XSize=9.84mil|YSize=19.69mil|CornerRadius=0mil|HoleSize=0mil|Usage=FLASHONLY|Rotation=225.000|XOffset=0mil|YOffset=0mil|HoleType=Round|Shape=Rectangle|*
%AMROTATEDRECTD49*
4,1,4,-0.00348,0.01044,0.01044,-0.00348,0.00348,-0.01044,-0.01044,0.00348,-0.00348,0.01044,0.0*
%
%ADD49ROTATEDRECTD49*%

%ADD50R,0.00984X0.01969*%
G04:AMPARAMS|DCode=51|XSize=59.06mil|YSize=51.18mil|CornerRadius=0mil|HoleSize=0mil|Usage=FLASHONLY|Rotation=45.000|XOffset=0mil|YOffset=0mil|HoleType=Round|Shape=Rectangle|*
%AMROTATEDRECTD51*
4,1,4,-0.00278,-0.03897,-0.03897,-0.00278,0.00278,0.03897,0.03897,0.00278,-0.00278,-0.03897,0.0*
%
%ADD51ROTATEDRECTD51*%

%ADD52R,0.03543X0.03937*%
%ADD53R,0.03937X0.03937*%
%ADD54R,0.07087X0.05118*%
%ADD55R,0.05118X0.05906*%
%ADD56R,0.01378X0.02756*%
%ADD57R,0.05118X0.03543*%
%ADD58O,0.02953X0.07087*%
%ADD59R,0.02362X0.07087*%
G04:AMPARAMS|DCode=60|XSize=55.12mil|YSize=59.06mil|CornerRadius=0mil|HoleSize=0mil|Usage=FLASHONLY|Rotation=135.000|XOffset=0mil|YOffset=0mil|HoleType=Round|Shape=Rectangle|*
%AMROTATEDRECTD60*
4,1,4,0.04037,0.00139,-0.00139,-0.04037,-0.04037,-0.00139,0.00139,0.04037,0.04037,0.00139,0.0*
%
%ADD60ROTATEDRECTD60*%

%ADD61R,0.05512X0.04724*%
%ADD62C,0.01496*%
%ADD63R,0.01575X0.01378*%
%ADD64R,0.01378X0.01575*%
%ADD65R,0.04331X0.03937*%
%ADD66R,0.05906X0.05512*%
%ADD67O,0.01181X0.07087*%
%ADD68O,0.07087X0.01181*%
%ADD69R,0.04724X0.07874*%
%ADD70R,0.06299X0.01181*%
%ADD71R,0.03150X0.06299*%
%ADD72R,0.10630X0.05118*%
%ADD73R,0.06299X0.13386*%
%ADD74R,0.04331X0.02559*%
%ADD75R,0.05906X0.05118*%
%ADD76R,0.04724X0.05512*%
%ADD77R,0.05906X0.02362*%
%ADD78R,0.10000X0.05000*%
%ADD79R,0.03347X0.06299*%
%ADD80R,0.11024X0.08661*%
%ADD81R,0.11024X0.11024*%
%ADD82R,0.11024X0.11024*%
%ADD83R,0.10236X0.07874*%
%ADD84R,0.02362X0.03543*%
%ADD85R,0.03543X0.02362*%
%ADD86R,0.04400X0.11300*%
%ADD87R,0.07087X0.18110*%
%ADD88R,0.02165X0.05709*%
%ADD89R,0.10400X0.10600*%
%ADD90R,0.08500X0.10400*%
%ADD91R,0.08800X0.10500*%
%ADD92C,0.03937*%
%ADD93R,0.05906X0.05906*%
%ADD94C,0.05906*%
%ADD95C,0.06000*%
%ADD96C,0.07000*%
%ADD97C,0.07874*%
%ADD98C,0.08661*%
%ADD99C,0.07087*%
%ADD100R,0.05906X0.05906*%
%ADD101C,0.15748*%
%ADD102P,0.08352X4X360.0*%
%ADD103C,0.03150*%
%ADD104C,0.05000*%
%ADD105C,0.06693*%
%ADD106C,0.04724*%
%ADD107C,0.02000*%
%ADD108C,0.03000*%
%ADD109C,0.01800*%
%ADD110C,0.02500*%
%ADD111C,0.02598*%
%ADD112C,0.02300*%
%ADD113C,0.00787*%
%ADD114C,0.04400*%
%ADD115R,0.11600X0.03000*%
%ADD116R,0.02600X0.03000*%
%ADD117C,0.04359*%
%ADD118C,0.05816*%
%ADD119C,0.05343*%
%ADD120C,0.05300*%
%ADD121C,0.10068*%
%ADD122C,0.07706*%
%ADD123C,0.05343*%
%ADD124C,0.06524*%
%ADD125C,0.06800*%
%ADD126C,0.08493*%
%ADD127C,0.06918*%
%ADD128C,0.02800*%
%ADD129C,0.03300*%
%ADD130C,0.02600*%
%ADD131C,0.00400*%
%ADD132R,0.02700X0.03000*%
%ADD133R,0.11500X0.03000*%
%ADD134C,0.03099*%
%ADD135C,0.03099*%
%ADD136C,0.02400*%
%ADD137R,0.06693X0.08661*%
%ADD138R,0.18701X0.05000*%
%ADD139O,0.18701X0.05000*%
G04:AMPARAMS|DCode=140|XSize=59.06mil|YSize=51.18mil|CornerRadius=0mil|HoleSize=0mil|Usage=FLASHONLY|Rotation=315.000|XOffset=0mil|YOffset=0mil|HoleType=Round|Shape=Rectangle|*
%AMROTATEDRECTD140*
4,1,4,-0.03897,0.00278,-0.00278,0.03897,0.03897,-0.00278,0.00278,-0.03897,-0.03897,0.00278,0.0*
%
%ADD140ROTATEDRECTD140*%

%ADD141R,0.07874X0.05709*%
%ADD142R,0.05906X0.03150*%
%ADD143R,0.01654X0.01654*%
%ADD144R,0.03937X0.03150*%
%ADD145R,0.05118X0.07480*%
%ADD146R,0.18110X0.07087*%
%ADD147R,0.11300X0.04400*%
%ADD148O,0.01378X0.06693*%
%ADD149R,0.01575X0.01969*%
%ADD150R,0.03347X0.01575*%
%ADD151R,0.06299X0.03150*%
%ADD152R,0.01181X0.05118*%
%ADD153R,0.07087X0.08661*%
%ADD154R,0.07087X0.07874*%
%ADD155R,0.06299X0.11811*%
%ADD156R,0.11811X0.06299*%
%ADD157R,0.01969X0.09843*%
%ADD158R,0.06693X0.07874*%
%ADD159R,0.23700X0.08500*%
%ADD160R,0.52500X0.10600*%
%ADD161O,0.03937X0.09843*%
%ADD162R,0.03937X0.09843*%
%ADD163C,0.00984*%
%ADD164C,0.02362*%
%ADD165C,0.00394*%
%ADD166R,0.07874X0.04724*%
G36*
X200787Y180490D02*
Y182717D01*
X203014D01*
X200787Y180490D01*
D02*
G37*
D10*
X287681Y198123D02*
X287265Y197706D01*
Y196873D01*
X287681Y196457D01*
X289347D01*
X289764Y196873D01*
Y197706D01*
X289347Y198123D01*
X289764Y198956D02*
Y199789D01*
Y199372D01*
X287265D01*
X287681Y198956D01*
Y201039D02*
X287265Y201455D01*
Y202288D01*
X287681Y202705D01*
X288098D01*
X288514Y202288D01*
Y201872D01*
Y202288D01*
X288931Y202705D01*
X289347D01*
X289764Y202288D01*
Y201455D01*
X289347Y201039D01*
X289764Y205204D02*
Y203538D01*
X288098Y205204D01*
X287681D01*
X287265Y204787D01*
Y203954D01*
X287681Y203538D01*
X257200Y228799D02*
Y226300D01*
X258450D01*
X258866Y226716D01*
Y228383D01*
X258450Y228799D01*
X257200D01*
X259699Y226300D02*
X260532D01*
X260116D01*
Y228799D01*
X259699Y228383D01*
X261782D02*
X262198Y228799D01*
X263031D01*
X263448Y228383D01*
Y226716D01*
X263031Y226300D01*
X262198D01*
X261782Y226716D01*
Y228383D01*
X264281D02*
X264698Y228799D01*
X265531D01*
X265947Y228383D01*
Y226716D01*
X265531Y226300D01*
X264698D01*
X264281Y226716D01*
Y228383D01*
X81700Y20500D02*
X84199D01*
Y19250D01*
X83783Y18834D01*
X82950D01*
X82533Y19250D01*
Y20500D01*
Y19667D02*
X81700Y18834D01*
X82117Y18001D02*
X81700Y17584D01*
Y16751D01*
X82117Y16335D01*
X83783D01*
X84199Y16751D01*
Y17584D01*
X83783Y18001D01*
X83366D01*
X82950Y17584D01*
Y16335D01*
X81700Y15502D02*
Y14669D01*
Y15085D01*
X84199D01*
X83783Y15502D01*
X84199Y11753D02*
X83783Y12586D01*
X82950Y13419D01*
X82117D01*
X81700Y13002D01*
Y12169D01*
X82117Y11753D01*
X82533D01*
X82950Y12169D01*
Y13419D01*
X142200Y177200D02*
Y179699D01*
X143450D01*
X143866Y179283D01*
Y178450D01*
X143450Y178033D01*
X142200D01*
X143033D02*
X143866Y177200D01*
X146365Y179699D02*
X144699D01*
Y178450D01*
X145532Y178866D01*
X145949D01*
X146365Y178450D01*
Y177617D01*
X145949Y177200D01*
X145116D01*
X144699Y177617D01*
X147198Y179283D02*
X147615Y179699D01*
X148448D01*
X148864Y179283D01*
Y177617D01*
X148448Y177200D01*
X147615D01*
X147198Y177617D01*
Y179283D01*
X151364Y179699D02*
X149698D01*
Y178450D01*
X150531Y178866D01*
X150947D01*
X151364Y178450D01*
Y177617D01*
X150947Y177200D01*
X150114D01*
X149698Y177617D01*
X141800Y164900D02*
Y167399D01*
X143050D01*
X143466Y166983D01*
Y166150D01*
X143050Y165733D01*
X141800D01*
X142633D02*
X143466Y164900D01*
X145965Y167399D02*
X144299D01*
Y166150D01*
X145132Y166566D01*
X145549D01*
X145965Y166150D01*
Y165316D01*
X145549Y164900D01*
X144716D01*
X144299Y165316D01*
X146798Y166983D02*
X147215Y167399D01*
X148048D01*
X148465Y166983D01*
Y165316D01*
X148048Y164900D01*
X147215D01*
X146798Y165316D01*
Y166983D01*
X149298D02*
X149714Y167399D01*
X150547D01*
X150964Y166983D01*
Y166566D01*
X150547Y166150D01*
X150131D01*
X150547D01*
X150964Y165733D01*
Y165316D01*
X150547Y164900D01*
X149714D01*
X149298Y165316D01*
X137799Y195500D02*
X135300D01*
Y193834D01*
X137799Y191335D02*
Y193001D01*
X136550D01*
X136966Y192168D01*
Y191751D01*
X136550Y191335D01*
X135716D01*
X135300Y191751D01*
Y192584D01*
X135716Y193001D01*
X137383Y190502D02*
X137799Y190085D01*
Y189252D01*
X137383Y188836D01*
X135716D01*
X135300Y189252D01*
Y190085D01*
X135716Y190502D01*
X137383D01*
X135300Y186336D02*
Y188002D01*
X136966Y186336D01*
X137383D01*
X137799Y186753D01*
Y187586D01*
X137383Y188002D01*
X20300Y165799D02*
Y163300D01*
X21966D01*
X22799Y165383D02*
X23216Y165799D01*
X24049D01*
X24465Y165383D01*
Y164966D01*
X24049Y164550D01*
X23632D01*
X24049D01*
X24465Y164133D01*
Y163716D01*
X24049Y163300D01*
X23216D01*
X22799Y163716D01*
X25298Y165383D02*
X25715Y165799D01*
X26548D01*
X26965Y165383D01*
Y163716D01*
X26548Y163300D01*
X25715D01*
X25298Y163716D01*
Y165383D01*
X29047Y163300D02*
Y165799D01*
X27798Y164550D01*
X29464D01*
X163666Y169783D02*
X163250Y170199D01*
X162417D01*
X162000Y169783D01*
Y168116D01*
X162417Y167700D01*
X163250D01*
X163666Y168116D01*
X166165Y170199D02*
X164499D01*
Y168950D01*
X165332Y169366D01*
X165749D01*
X166165Y168950D01*
Y168116D01*
X165749Y167700D01*
X164916D01*
X164499Y168116D01*
X168665Y167700D02*
X166998D01*
X168665Y169366D01*
Y169783D01*
X168248Y170199D01*
X167415D01*
X166998Y169783D01*
X169498D02*
X169914Y170199D01*
X170747D01*
X171164Y169783D01*
Y169366D01*
X170747Y168950D01*
X170331D01*
X170747D01*
X171164Y168533D01*
Y168116D01*
X170747Y167700D01*
X169914D01*
X169498Y168116D01*
X163366Y176583D02*
X162950Y176999D01*
X162117D01*
X161700Y176583D01*
Y174917D01*
X162117Y174500D01*
X162950D01*
X163366Y174917D01*
X165865Y176999D02*
X164199D01*
Y175750D01*
X165032Y176166D01*
X165449D01*
X165865Y175750D01*
Y174917D01*
X165449Y174500D01*
X164616D01*
X164199Y174917D01*
X168365Y174500D02*
X166698D01*
X168365Y176166D01*
Y176583D01*
X167948Y176999D01*
X167115D01*
X166698Y176583D01*
X170864Y174500D02*
X169198D01*
X170864Y176166D01*
Y176583D01*
X170447Y176999D01*
X169614D01*
X169198Y176583D01*
X124305Y203451D02*
X123716D01*
X123127Y202862D01*
Y202273D01*
X124305Y201095D01*
X124894D01*
X125484Y201684D01*
Y202273D01*
X125778Y205512D02*
X124600Y204334D01*
X125484Y203451D01*
X125778Y204334D01*
X126073Y204629D01*
X126662D01*
X127251Y204040D01*
Y203451D01*
X126662Y202862D01*
X126073D01*
X129313Y205512D02*
X128134Y204334D01*
Y206691D01*
X127840Y206985D01*
X127251D01*
X126662Y206396D01*
Y205807D01*
X129902Y206102D02*
X130491Y206691D01*
X130196Y206396D01*
X128429Y208163D01*
Y207574D01*
X118066Y196383D02*
X117650Y196799D01*
X116816D01*
X116400Y196383D01*
Y194717D01*
X116816Y194300D01*
X117650D01*
X118066Y194717D01*
X120565Y196799D02*
X118899D01*
Y195550D01*
X119732Y195966D01*
X120149D01*
X120565Y195550D01*
Y194717D01*
X120149Y194300D01*
X119316D01*
X118899Y194717D01*
X121398Y196383D02*
X121815Y196799D01*
X122648D01*
X123064Y196383D01*
Y194717D01*
X122648Y194300D01*
X121815D01*
X121398Y194717D01*
Y196383D01*
X125564Y196799D02*
X123898D01*
Y195550D01*
X124731Y195966D01*
X125147D01*
X125564Y195550D01*
Y194717D01*
X125147Y194300D01*
X124314D01*
X123898Y194717D01*
X108966Y189483D02*
X108550Y189899D01*
X107717D01*
X107300Y189483D01*
Y187817D01*
X107717Y187400D01*
X108550D01*
X108966Y187817D01*
X111465Y189899D02*
X109799D01*
Y188650D01*
X110632Y189066D01*
X111049D01*
X111465Y188650D01*
Y187817D01*
X111049Y187400D01*
X110216D01*
X109799Y187817D01*
X112298Y189483D02*
X112715Y189899D01*
X113548D01*
X113964Y189483D01*
Y187817D01*
X113548Y187400D01*
X112715D01*
X112298Y187817D01*
Y189483D01*
X116047Y187400D02*
Y189899D01*
X114798Y188650D01*
X116464D01*
X22117Y170066D02*
X21701Y169650D01*
Y168816D01*
X22117Y168400D01*
X23784D01*
X24200Y168816D01*
Y169650D01*
X23784Y170066D01*
X22117Y170899D02*
X21701Y171316D01*
Y172149D01*
X22117Y172565D01*
X22534D01*
X22950Y172149D01*
Y171732D01*
Y172149D01*
X23367Y172565D01*
X23784D01*
X24200Y172149D01*
Y171316D01*
X23784Y170899D01*
X24200Y173398D02*
Y174231D01*
Y173815D01*
X21701D01*
X22117Y173398D01*
Y175481D02*
X21701Y175898D01*
Y176731D01*
X22117Y177147D01*
X22534D01*
X22950Y176731D01*
Y176314D01*
Y176731D01*
X23367Y177147D01*
X23784D01*
X24200Y176731D01*
Y175898D01*
X23784Y175481D01*
X131066Y174283D02*
X130650Y174699D01*
X129816D01*
X129400Y174283D01*
Y172617D01*
X129816Y172200D01*
X130650D01*
X131066Y172617D01*
X131899Y172200D02*
X132732D01*
X132316D01*
Y174699D01*
X131899Y174283D01*
X135231Y172200D02*
Y174699D01*
X133982Y173450D01*
X135648D01*
X136481Y174283D02*
X136898Y174699D01*
X137731D01*
X138147Y174283D01*
Y173866D01*
X137731Y173450D01*
X138147Y173033D01*
Y172617D01*
X137731Y172200D01*
X136898D01*
X136481Y172617D01*
Y173033D01*
X136898Y173450D01*
X136481Y173866D01*
Y174283D01*
X136898Y173450D02*
X137731D01*
X267400Y28400D02*
Y30899D01*
X268650D01*
X269066Y30483D01*
Y29650D01*
X268650Y29233D01*
X267400D01*
X268233D02*
X269066Y28400D01*
X269899D02*
X270732D01*
X270316D01*
Y30899D01*
X269899Y30483D01*
X273648Y28400D02*
X271982D01*
X273648Y30066D01*
Y30483D01*
X273231Y30899D01*
X272398D01*
X271982Y30483D01*
X274481D02*
X274898Y30899D01*
X275731D01*
X276147Y30483D01*
Y30066D01*
X275731Y29650D01*
X275314D01*
X275731D01*
X276147Y29233D01*
Y28817D01*
X275731Y28400D01*
X274898D01*
X274481Y28817D01*
X267700Y35900D02*
Y38399D01*
X268950D01*
X269366Y37983D01*
Y37150D01*
X268950Y36733D01*
X267700D01*
X268533D02*
X269366Y35900D01*
X270199D02*
X271032D01*
X270616D01*
Y38399D01*
X270199Y37983D01*
X273948Y35900D02*
X272282D01*
X273948Y37566D01*
Y37983D01*
X273531Y38399D01*
X272698D01*
X272282Y37983D01*
X276447Y35900D02*
X274781D01*
X276447Y37566D01*
Y37983D01*
X276031Y38399D01*
X275198D01*
X274781Y37983D01*
X267900Y20800D02*
Y23299D01*
X269150D01*
X269566Y22883D01*
Y22050D01*
X269150Y21633D01*
X267900D01*
X268733D02*
X269566Y20800D01*
X270399D02*
X271232D01*
X270816D01*
Y23299D01*
X270399Y22883D01*
X274148Y20800D02*
X272482D01*
X274148Y22466D01*
Y22883D01*
X273731Y23299D01*
X272898D01*
X272482Y22883D01*
X274981Y20800D02*
X275814D01*
X275398D01*
Y23299D01*
X274981Y22883D01*
X268000Y13300D02*
Y15799D01*
X269250D01*
X269666Y15383D01*
Y14550D01*
X269250Y14133D01*
X268000D01*
X268833D02*
X269666Y13300D01*
X270499D02*
X271332D01*
X270916D01*
Y15799D01*
X270499Y15383D01*
X274248Y13300D02*
X272582D01*
X274248Y14966D01*
Y15383D01*
X273831Y15799D01*
X272998D01*
X272582Y15383D01*
X275081D02*
X275498Y15799D01*
X276331D01*
X276747Y15383D01*
Y13716D01*
X276331Y13300D01*
X275498D01*
X275081Y13716D01*
Y15383D01*
X324100Y170300D02*
X326599D01*
Y169050D01*
X326183Y168634D01*
X325350D01*
X324933Y169050D01*
Y170300D01*
Y169467D02*
X324100Y168634D01*
Y167801D02*
Y166968D01*
Y167384D01*
X326599D01*
X326183Y167801D01*
X324100Y165718D02*
Y164885D01*
Y165302D01*
X326599D01*
X326183Y165718D01*
X324517Y163636D02*
X324100Y163219D01*
Y162386D01*
X324517Y161969D01*
X326183D01*
X326599Y162386D01*
Y163219D01*
X326183Y163636D01*
X325766D01*
X325350Y163219D01*
Y161969D01*
X316200Y170300D02*
X318699D01*
Y169050D01*
X318283Y168634D01*
X317450D01*
X317033Y169050D01*
Y170300D01*
Y169467D02*
X316200Y168634D01*
Y167801D02*
Y166968D01*
Y167384D01*
X318699D01*
X318283Y167801D01*
X316200Y165718D02*
Y164885D01*
Y165302D01*
X318699D01*
X318283Y165718D01*
Y163636D02*
X318699Y163219D01*
Y162386D01*
X318283Y161969D01*
X317866D01*
X317450Y162386D01*
X317033Y161969D01*
X316617D01*
X316200Y162386D01*
Y163219D01*
X316617Y163636D01*
X317033D01*
X317450Y163219D01*
X317866Y163636D01*
X318283D01*
X317450Y163219D02*
Y162386D01*
X316600Y43200D02*
X319099D01*
Y41950D01*
X318683Y41534D01*
X317850D01*
X317433Y41950D01*
Y43200D01*
X316600Y40701D02*
Y39868D01*
Y40284D01*
X319099D01*
X318683Y40701D01*
Y38618D02*
X319099Y38202D01*
Y37369D01*
X318683Y36952D01*
X317017D01*
X316600Y37369D01*
Y38202D01*
X317017Y38618D01*
X318683D01*
X316600Y34869D02*
X319099D01*
X317850Y36119D01*
Y34453D01*
X260217Y25766D02*
X259801Y25350D01*
Y24517D01*
X260217Y24100D01*
X261883D01*
X262300Y24517D01*
Y25350D01*
X261883Y25766D01*
X262300Y26599D02*
Y27432D01*
Y27016D01*
X259801D01*
X260217Y26599D01*
X262300Y29932D02*
X259801D01*
X261050Y28682D01*
Y30348D01*
X259801Y31181D02*
Y32847D01*
X260217D01*
X261883Y31181D01*
X262300D01*
X257017Y10966D02*
X256601Y10550D01*
Y9717D01*
X257017Y9300D01*
X258683D01*
X259100Y9717D01*
Y10550D01*
X258683Y10966D01*
X259100Y11799D02*
Y12632D01*
Y12216D01*
X256601D01*
X257017Y11799D01*
X259100Y15132D02*
X256601D01*
X257850Y13882D01*
Y15548D01*
X256601Y18047D02*
X257017Y17214D01*
X257850Y16381D01*
X258683D01*
X259100Y16798D01*
Y17631D01*
X258683Y18047D01*
X258267D01*
X257850Y17631D01*
Y16381D01*
X88999Y40000D02*
X88583D01*
X87750Y39167D01*
X88583Y38334D01*
X88999D01*
X87750Y39167D02*
X86500D01*
X86917Y37501D02*
X86500Y37084D01*
Y36251D01*
X86917Y35835D01*
X88583D01*
X88999Y36251D01*
Y37084D01*
X88583Y37501D01*
X88166D01*
X87750Y37084D01*
Y35835D01*
X88583Y35002D02*
X88999Y34585D01*
Y33752D01*
X88583Y33336D01*
X86917D01*
X86500Y33752D01*
Y34585D01*
X86917Y35002D01*
X88583D01*
Y32502D02*
X88999Y32086D01*
Y31253D01*
X88583Y30836D01*
X86917D01*
X86500Y31253D01*
Y32086D01*
X86917Y32502D01*
X88583D01*
X48001Y26000D02*
X50084D01*
X50500Y26417D01*
Y27250D01*
X50084Y27666D01*
X48001D01*
X50084Y28499D02*
X50500Y28916D01*
Y29749D01*
X50084Y30165D01*
X48417D01*
X48001Y29749D01*
Y28916D01*
X48417Y28499D01*
X48834D01*
X49250Y28916D01*
Y30165D01*
X48417Y30998D02*
X48001Y31415D01*
Y32248D01*
X48417Y32664D01*
X50084D01*
X50500Y32248D01*
Y31415D01*
X50084Y30998D01*
X48417D01*
X50500Y35164D02*
Y33498D01*
X48834Y35164D01*
X48417D01*
X48001Y34747D01*
Y33914D01*
X48417Y33498D01*
X98001Y86500D02*
X100083D01*
X100500Y86917D01*
Y87750D01*
X100083Y88166D01*
X98001D01*
Y90665D02*
X98417Y89832D01*
X99250Y88999D01*
X100083D01*
X100500Y89416D01*
Y90249D01*
X100083Y90665D01*
X99667D01*
X99250Y90249D01*
Y88999D01*
X98417Y91498D02*
X98001Y91915D01*
Y92748D01*
X98417Y93164D01*
X100083D01*
X100500Y92748D01*
Y91915D01*
X100083Y91498D01*
X98417D01*
X100500Y95247D02*
X98001D01*
X99250Y93998D01*
Y95664D01*
X40000Y72000D02*
X37501D01*
Y73250D01*
X37917Y73666D01*
X38750D01*
X39167Y73250D01*
Y72000D01*
Y72833D02*
X40000Y73666D01*
X39584Y74499D02*
X40000Y74916D01*
Y75749D01*
X39584Y76165D01*
X37917D01*
X37501Y75749D01*
Y74916D01*
X37917Y74499D01*
X38334D01*
X38750Y74916D01*
Y76165D01*
X40000Y76998D02*
Y77831D01*
Y77415D01*
X37501D01*
X37917Y76998D01*
X40000Y80747D02*
Y79081D01*
X38334Y80747D01*
X37917D01*
X37501Y80331D01*
Y79498D01*
X37917Y79081D01*
X52000Y81000D02*
X54499D01*
Y79750D01*
X54083Y79334D01*
X53250D01*
X52833Y79750D01*
Y81000D01*
Y80167D02*
X52000Y79334D01*
X52416Y78501D02*
X52000Y78084D01*
Y77251D01*
X52416Y76835D01*
X54083D01*
X54499Y77251D01*
Y78084D01*
X54083Y78501D01*
X53666D01*
X53250Y78084D01*
Y76835D01*
X52000Y76002D02*
Y75169D01*
Y75585D01*
X54499D01*
X54083Y76002D01*
X52000Y73919D02*
Y73086D01*
Y73502D01*
X54499D01*
X54083Y73919D01*
X60700Y50500D02*
Y52999D01*
X61950D01*
X62366Y52583D01*
Y51750D01*
X61950Y51333D01*
X60700D01*
X61533D02*
X62366Y50500D01*
X63199Y50916D02*
X63616Y50500D01*
X64449D01*
X64865Y50916D01*
Y52583D01*
X64449Y52999D01*
X63616D01*
X63199Y52583D01*
Y52166D01*
X63616Y51750D01*
X64865D01*
X65698Y50500D02*
X66531D01*
X66115D01*
Y52999D01*
X65698Y52583D01*
X67781D02*
X68198Y52999D01*
X69031D01*
X69447Y52583D01*
Y50916D01*
X69031Y50500D01*
X68198D01*
X67781Y50916D01*
Y52583D01*
X285900Y50000D02*
Y52499D01*
X287150D01*
X287566Y52083D01*
Y51250D01*
X287150Y50833D01*
X285900D01*
X288399Y50000D02*
X289232D01*
X288816D01*
Y52499D01*
X288399Y52083D01*
X290482D02*
X290898Y52499D01*
X291731D01*
X292148Y52083D01*
Y50416D01*
X291731Y50000D01*
X290898D01*
X290482Y50416D01*
Y52083D01*
X292981D02*
X293398Y52499D01*
X294231D01*
X294647Y52083D01*
Y51666D01*
X294231Y51250D01*
X293814D01*
X294231D01*
X294647Y50833D01*
Y50416D01*
X294231Y50000D01*
X293398D01*
X292981Y50416D01*
X26266Y14599D02*
X25433D01*
X25850D01*
Y12517D01*
X25433Y12100D01*
X25016D01*
X24600Y12517D01*
X27099D02*
X27516Y12100D01*
X28349D01*
X28765Y12517D01*
Y14183D01*
X28349Y14599D01*
X27516D01*
X27099Y14183D01*
Y13766D01*
X27516Y13350D01*
X28765D01*
X29598Y14183D02*
X30015Y14599D01*
X30848D01*
X31264Y14183D01*
Y12517D01*
X30848Y12100D01*
X30015D01*
X29598Y12517D01*
Y14183D01*
X32098D02*
X32514Y14599D01*
X33347D01*
X33764Y14183D01*
Y12517D01*
X33347Y12100D01*
X32514D01*
X32098Y12517D01*
Y14183D01*
X63166Y19083D02*
X62750Y19499D01*
X61917D01*
X61500Y19083D01*
Y17416D01*
X61917Y17000D01*
X62750D01*
X63166Y17416D01*
X63999D02*
X64416Y17000D01*
X65249D01*
X65665Y17416D01*
Y19083D01*
X65249Y19499D01*
X64416D01*
X63999Y19083D01*
Y18666D01*
X64416Y18250D01*
X65665D01*
X66498Y17000D02*
X67331D01*
X66915D01*
Y19499D01*
X66498Y19083D01*
X70247Y19499D02*
X68581D01*
Y18250D01*
X69414Y18666D01*
X69831D01*
X70247Y18250D01*
Y17416D01*
X69831Y17000D01*
X68998D01*
X68581Y17416D01*
X50666Y19083D02*
X50250Y19499D01*
X49417D01*
X49000Y19083D01*
Y17416D01*
X49417Y17000D01*
X50250D01*
X50666Y17416D01*
X51499D02*
X51916Y17000D01*
X52749D01*
X53165Y17416D01*
Y19083D01*
X52749Y19499D01*
X51916D01*
X51499Y19083D01*
Y18666D01*
X51916Y18250D01*
X53165D01*
X53998Y17000D02*
X54831D01*
X54415D01*
Y19499D01*
X53998Y19083D01*
X57331Y17000D02*
Y19499D01*
X56081Y18250D01*
X57747D01*
X37417Y62666D02*
X37001Y62250D01*
Y61417D01*
X37417Y61000D01*
X39083D01*
X39500Y61417D01*
Y62250D01*
X39083Y62666D01*
Y63499D02*
X39500Y63916D01*
Y64749D01*
X39083Y65165D01*
X37417D01*
X37001Y64749D01*
Y63916D01*
X37417Y63499D01*
X37834D01*
X38250Y63916D01*
Y65165D01*
X39500Y65998D02*
Y66831D01*
Y66415D01*
X37001D01*
X37417Y65998D01*
Y68081D02*
X37001Y68498D01*
Y69331D01*
X37417Y69747D01*
X37834D01*
X38250Y69331D01*
Y68914D01*
Y69331D01*
X38667Y69747D01*
X39083D01*
X39500Y69331D01*
Y68498D01*
X39083Y68081D01*
X54083Y68834D02*
X54499Y69250D01*
Y70083D01*
X54083Y70500D01*
X52416D01*
X52000Y70083D01*
Y69250D01*
X52416Y68834D01*
Y68001D02*
X52000Y67584D01*
Y66751D01*
X52416Y66335D01*
X54083D01*
X54499Y66751D01*
Y67584D01*
X54083Y68001D01*
X53666D01*
X53250Y67584D01*
Y66335D01*
X52000Y65502D02*
Y64669D01*
Y65085D01*
X54499D01*
X54083Y65502D01*
X52000Y61753D02*
Y63419D01*
X53666Y61753D01*
X54083D01*
X54499Y62169D01*
Y63002D01*
X54083Y63419D01*
X50317Y48966D02*
X49901Y48550D01*
Y47717D01*
X50317Y47300D01*
X51983D01*
X52400Y47717D01*
Y48550D01*
X51983Y48966D01*
Y49799D02*
X52400Y50216D01*
Y51049D01*
X51983Y51465D01*
X50317D01*
X49901Y51049D01*
Y50216D01*
X50317Y49799D01*
X50734D01*
X51150Y50216D01*
Y51465D01*
X52400Y52298D02*
Y53131D01*
Y52715D01*
X49901D01*
X50317Y52298D01*
X52400Y54381D02*
Y55214D01*
Y54798D01*
X49901D01*
X50317Y54381D01*
X58017Y58866D02*
X57601Y58450D01*
Y57617D01*
X58017Y57200D01*
X59684D01*
X60100Y57617D01*
Y58450D01*
X59684Y58866D01*
Y59699D02*
X60100Y60116D01*
Y60949D01*
X59684Y61365D01*
X58017D01*
X57601Y60949D01*
Y60116D01*
X58017Y59699D01*
X58434D01*
X58850Y60116D01*
Y61365D01*
X60100Y62198D02*
Y63031D01*
Y62615D01*
X57601D01*
X58017Y62198D01*
Y64281D02*
X57601Y64698D01*
Y65531D01*
X58017Y65947D01*
X59684D01*
X60100Y65531D01*
Y64698D01*
X59684Y64281D01*
X58017D01*
X331938Y111891D02*
Y111302D01*
X332527Y110713D01*
X333116D01*
X334294Y111891D01*
Y112480D01*
X333705Y113069D01*
X333116D01*
X331644Y115131D02*
X332822Y113953D01*
X330466D01*
X330171Y113658D01*
Y113069D01*
X330760Y112480D01*
X331349D01*
X329582Y114248D02*
X328993D01*
X328404Y114837D01*
Y115426D01*
X329582Y116604D01*
X330171D01*
X330760Y116015D01*
Y115426D01*
X329582Y114248D01*
X328404Y118371D02*
X326637Y116604D01*
X328404Y116604D01*
X327226Y117782D01*
X310295Y70849D02*
X310884D01*
X311473Y71438D01*
Y72027D01*
X310295Y73206D01*
X309705D01*
X309116Y72616D01*
Y72027D01*
X307055Y70555D02*
X308233Y71733D01*
Y69376D01*
X308527Y69082D01*
X309116D01*
X309705Y69671D01*
Y70260D01*
X307938Y68493D02*
Y67904D01*
X307349Y67315D01*
X306760D01*
X305582Y68493D01*
Y69082D01*
X306171Y69671D01*
X306760D01*
X307938Y68493D01*
X305288Y65253D02*
X306466Y66431D01*
X305582Y67315D01*
X305288Y66431D01*
X304993Y66137D01*
X304404D01*
X303815Y66726D01*
Y67315D01*
X304404Y67904D01*
X304993D01*
X176499Y161500D02*
X174416D01*
X174000Y161083D01*
Y160250D01*
X174416Y159834D01*
X176499D01*
Y157335D02*
X176083Y158168D01*
X175250Y159001D01*
X174416D01*
X174000Y158584D01*
Y157751D01*
X174416Y157335D01*
X174833D01*
X175250Y157751D01*
Y159001D01*
X176083Y156502D02*
X176499Y156085D01*
Y155252D01*
X176083Y154835D01*
X174416D01*
X174000Y155252D01*
Y156085D01*
X174416Y156502D01*
X176083D01*
X174000Y152336D02*
Y154002D01*
X175666Y152336D01*
X176083D01*
X176499Y152753D01*
Y153586D01*
X176083Y154002D01*
X293434Y174617D02*
X293850Y174201D01*
X294684D01*
X295100Y174617D01*
Y176284D01*
X294684Y176700D01*
X293850D01*
X293434Y176284D01*
X292601Y176700D02*
X291768D01*
X292184D01*
Y174201D01*
X292601Y174617D01*
X290518D02*
X290102Y174201D01*
X289269D01*
X288852Y174617D01*
Y176284D01*
X289269Y176700D01*
X290102D01*
X290518Y176284D01*
Y174617D01*
X288019D02*
X287602Y174201D01*
X286769D01*
X286353Y174617D01*
Y176284D01*
X286769Y176700D01*
X287602D01*
X288019Y176284D01*
Y174617D01*
X249583Y172834D02*
X249999Y173250D01*
Y174083D01*
X249583Y174500D01*
X247917D01*
X247500Y174083D01*
Y173250D01*
X247917Y172834D01*
X247500Y172001D02*
Y171168D01*
Y171584D01*
X249999D01*
X249583Y172001D01*
Y169918D02*
X249999Y169502D01*
Y168669D01*
X249583Y168252D01*
X247917D01*
X247500Y168669D01*
Y169502D01*
X247917Y169918D01*
X249583D01*
X247500Y167419D02*
Y166586D01*
Y167002D01*
X249999D01*
X249583Y167419D01*
X256583Y165834D02*
X256999Y166250D01*
Y167084D01*
X256583Y167500D01*
X254917D01*
X254500Y167084D01*
Y166250D01*
X254917Y165834D01*
X254500Y165001D02*
Y164168D01*
Y164584D01*
X256999D01*
X256583Y165001D01*
Y162918D02*
X256999Y162502D01*
Y161669D01*
X256583Y161252D01*
X254917D01*
X254500Y161669D01*
Y162502D01*
X254917Y162918D01*
X256583D01*
X254500Y158753D02*
Y160419D01*
X256166Y158753D01*
X256583D01*
X256999Y159169D01*
Y160002D01*
X256583Y160419D01*
X263666Y170583D02*
X263250Y170999D01*
X262417D01*
X262000Y170583D01*
Y168916D01*
X262417Y168500D01*
X263250D01*
X263666Y168916D01*
X264499Y168500D02*
X265332D01*
X264916D01*
Y170999D01*
X264499Y170583D01*
X266582D02*
X266998Y170999D01*
X267831D01*
X268248Y170583D01*
Y168916D01*
X267831Y168500D01*
X266998D01*
X266582Y168916D01*
Y170583D01*
X269081D02*
X269498Y170999D01*
X270331D01*
X270747Y170583D01*
Y170166D01*
X270331Y169750D01*
X269914D01*
X270331D01*
X270747Y169333D01*
Y168916D01*
X270331Y168500D01*
X269498D01*
X269081Y168916D01*
X277666Y198083D02*
X277250Y198499D01*
X276416D01*
X276000Y198083D01*
Y196416D01*
X276416Y196000D01*
X277250D01*
X277666Y196416D01*
X278499Y196000D02*
X279332D01*
X278916D01*
Y198499D01*
X278499Y198083D01*
X280582D02*
X280998Y198499D01*
X281831D01*
X282248Y198083D01*
Y196416D01*
X281831Y196000D01*
X280998D01*
X280582Y196416D01*
Y198083D01*
X283081D02*
X283498Y198499D01*
X284331D01*
X284747Y198083D01*
Y197666D01*
X284331Y197250D01*
X284747Y196833D01*
Y196416D01*
X284331Y196000D01*
X283498D01*
X283081Y196416D01*
Y196833D01*
X283498Y197250D01*
X283081Y197666D01*
Y198083D01*
X283498Y197250D02*
X284331D01*
X249583Y184334D02*
X249999Y184750D01*
Y185583D01*
X249583Y186000D01*
X247917D01*
X247500Y185583D01*
Y184750D01*
X247917Y184334D01*
X247500Y183501D02*
Y182668D01*
Y183084D01*
X249999D01*
X249583Y183501D01*
Y181418D02*
X249999Y181002D01*
Y180169D01*
X249583Y179752D01*
X247917D01*
X247500Y180169D01*
Y181002D01*
X247917Y181418D01*
X249583D01*
X247917Y178919D02*
X247500Y178502D01*
Y177669D01*
X247917Y177253D01*
X249583D01*
X249999Y177669D01*
Y178502D01*
X249583Y178919D01*
X249166D01*
X248750Y178502D01*
Y177253D01*
X260583Y193834D02*
X260999Y194250D01*
Y195083D01*
X260583Y195500D01*
X258916D01*
X258500Y195083D01*
Y194250D01*
X258916Y193834D01*
X258500Y193001D02*
Y192168D01*
Y192584D01*
X260999D01*
X260583Y193001D01*
X258500Y190918D02*
Y190085D01*
Y190502D01*
X260999D01*
X260583Y190918D01*
Y188836D02*
X260999Y188419D01*
Y187586D01*
X260583Y187169D01*
X258916D01*
X258500Y187586D01*
Y188419D01*
X258916Y188836D01*
X260583D01*
X265083Y195334D02*
X265499Y195750D01*
Y196583D01*
X265083Y197000D01*
X263417D01*
X263000Y196583D01*
Y195750D01*
X263417Y195334D01*
X263000Y194501D02*
Y193668D01*
Y194084D01*
X265499D01*
X265083Y194501D01*
X263000Y192418D02*
Y191585D01*
Y192002D01*
X265499D01*
X265083Y192418D01*
X263000Y190336D02*
Y189502D01*
Y189919D01*
X265499D01*
X265083Y190336D01*
X223866Y205483D02*
X223450Y205899D01*
X222617D01*
X222200Y205483D01*
Y203817D01*
X222617Y203400D01*
X223450D01*
X223866Y203817D01*
X224699Y203400D02*
X225532D01*
X225116D01*
Y205899D01*
X224699Y205483D01*
X226782Y203400D02*
X227615D01*
X227198D01*
Y205899D01*
X226782Y205483D01*
X230531Y203400D02*
X228865D01*
X230531Y205066D01*
Y205483D01*
X230114Y205899D01*
X229281D01*
X228865Y205483D01*
X223166Y191083D02*
X222750Y191499D01*
X221917D01*
X221500Y191083D01*
Y189417D01*
X221917Y189000D01*
X222750D01*
X223166Y189417D01*
X223999Y189000D02*
X224832D01*
X224416D01*
Y191499D01*
X223999Y191083D01*
X226082Y189000D02*
X226915D01*
X226498D01*
Y191499D01*
X226082Y191083D01*
X228165D02*
X228581Y191499D01*
X229414D01*
X229831Y191083D01*
Y190666D01*
X229414Y190250D01*
X228998D01*
X229414D01*
X229831Y189833D01*
Y189417D01*
X229414Y189000D01*
X228581D01*
X228165Y189417D01*
X223666Y210383D02*
X223250Y210799D01*
X222416D01*
X222000Y210383D01*
Y208717D01*
X222416Y208300D01*
X223250D01*
X223666Y208717D01*
X224499Y208300D02*
X225332D01*
X224916D01*
Y210799D01*
X224499Y210383D01*
X226582Y208300D02*
X227415D01*
X226998D01*
Y210799D01*
X226582Y210383D01*
X228664Y210799D02*
X230331D01*
Y210383D01*
X228664Y208717D01*
Y208300D01*
X266166Y167583D02*
X265750Y167999D01*
X264916D01*
X264500Y167583D01*
Y165917D01*
X264916Y165500D01*
X265750D01*
X266166Y165917D01*
X266999Y165500D02*
X267832D01*
X267416D01*
Y167999D01*
X266999Y167583D01*
X270748Y165500D02*
X269082D01*
X270748Y167166D01*
Y167583D01*
X270331Y167999D01*
X269498D01*
X269082Y167583D01*
X271581Y167999D02*
X273247D01*
Y167583D01*
X271581Y165917D01*
Y165500D01*
X293651Y169295D02*
Y169884D01*
X293062Y170473D01*
X292473D01*
X291295Y169295D01*
Y168705D01*
X291884Y168116D01*
X292473D01*
X292767Y167233D02*
X293356Y166644D01*
X293062Y166938D01*
X294829Y168705D01*
X294240D01*
X295418Y164582D02*
X294240Y165760D01*
X296596D01*
X296891Y166055D01*
Y166644D01*
X296302Y167233D01*
X295712D01*
X297480Y165466D02*
X298069D01*
X298658Y164876D01*
Y164287D01*
X298363Y163993D01*
X297774D01*
Y163404D01*
X297480Y163109D01*
X296891D01*
X296302Y163698D01*
Y164287D01*
X296596Y164582D01*
X297185Y164582D01*
Y165171D01*
X297480Y165466D01*
X297185Y164582D02*
X297774Y163993D01*
X190066Y183083D02*
X189650Y183499D01*
X188816D01*
X188400Y183083D01*
Y181416D01*
X188816Y181000D01*
X189650D01*
X190066Y181416D01*
X190899Y181000D02*
X191732D01*
X191316D01*
Y183499D01*
X190899Y183083D01*
X194648Y181000D02*
X192982D01*
X194648Y182666D01*
Y183083D01*
X194231Y183499D01*
X193398D01*
X192982Y183083D01*
X195481Y181416D02*
X195898Y181000D01*
X196731D01*
X197147Y181416D01*
Y183083D01*
X196731Y183499D01*
X195898D01*
X195481Y183083D01*
Y182666D01*
X195898Y182250D01*
X197147D01*
X231917Y187666D02*
X231501Y187250D01*
Y186416D01*
X231917Y186000D01*
X233583D01*
X234000Y186416D01*
Y187250D01*
X233583Y187666D01*
X234000Y188499D02*
Y189332D01*
Y188916D01*
X231501D01*
X231917Y188499D01*
Y190582D02*
X231501Y190998D01*
Y191831D01*
X231917Y192248D01*
X232334D01*
X232750Y191831D01*
Y191415D01*
Y191831D01*
X233167Y192248D01*
X233583D01*
X234000Y191831D01*
Y190998D01*
X233583Y190582D01*
X231501Y194747D02*
X231917Y193914D01*
X232750Y193081D01*
X233583D01*
X234000Y193498D01*
Y194331D01*
X233583Y194747D01*
X233167D01*
X232750Y194331D01*
Y193081D01*
X179483Y167709D02*
X179066Y168125D01*
X178233D01*
X177816Y167709D01*
Y166042D01*
X178233Y165626D01*
X179066D01*
X179483Y166042D01*
X180316Y165626D02*
X181149D01*
X180732D01*
Y168125D01*
X180316Y167709D01*
X182398D02*
X182815Y168125D01*
X183648D01*
X184064Y167709D01*
Y167292D01*
X183648Y166876D01*
X183231D01*
X183648D01*
X184064Y166459D01*
Y166042D01*
X183648Y165626D01*
X182815D01*
X182398Y166042D01*
X184898Y167709D02*
X185314Y168125D01*
X186147D01*
X186564Y167709D01*
Y167292D01*
X186147Y166876D01*
X186564Y166459D01*
Y166042D01*
X186147Y165626D01*
X185314D01*
X184898Y166042D01*
Y166459D01*
X185314Y166876D01*
X184898Y167292D01*
Y167709D01*
X185314Y166876D02*
X186147D01*
X209066Y222183D02*
X208650Y222599D01*
X207817D01*
X207400Y222183D01*
Y220516D01*
X207817Y220100D01*
X208650D01*
X209066Y220516D01*
X209899Y220100D02*
X210732D01*
X210316D01*
Y222599D01*
X209899Y222183D01*
X213231Y220100D02*
Y222599D01*
X211982Y221350D01*
X213648D01*
X214481Y220100D02*
X215314D01*
X214898D01*
Y222599D01*
X214481Y222183D01*
X329083Y202034D02*
X329499Y202450D01*
Y203284D01*
X329083Y203700D01*
X327416D01*
X327000Y203284D01*
Y202450D01*
X327416Y202034D01*
X327000Y199535D02*
Y201201D01*
X328666Y199535D01*
X329083D01*
X329499Y199951D01*
Y200784D01*
X329083Y201201D01*
Y198702D02*
X329499Y198285D01*
Y197452D01*
X329083Y197036D01*
X327416D01*
X327000Y197452D01*
Y198285D01*
X327416Y198702D01*
X329083D01*
X329499Y196202D02*
Y194536D01*
X329083D01*
X327416Y196202D01*
X327000D01*
X251166Y106583D02*
X250750Y106999D01*
X249917D01*
X249500Y106583D01*
Y104917D01*
X249917Y104500D01*
X250750D01*
X251166Y104917D01*
X253665Y104500D02*
X251999D01*
X253665Y106166D01*
Y106583D01*
X253249Y106999D01*
X252416D01*
X251999Y106583D01*
X254498D02*
X254915Y106999D01*
X255748D01*
X256165Y106583D01*
Y104917D01*
X255748Y104500D01*
X254915D01*
X254498Y104917D01*
Y106583D01*
X256998D02*
X257414Y106999D01*
X258247D01*
X258664Y106583D01*
Y106166D01*
X258247Y105750D01*
X258664Y105333D01*
Y104917D01*
X258247Y104500D01*
X257414D01*
X256998Y104917D01*
Y105333D01*
X257414Y105750D01*
X256998Y106166D01*
Y106583D01*
X257414Y105750D02*
X258247D01*
X265583Y116834D02*
X265999Y117250D01*
Y118084D01*
X265583Y118500D01*
X263916D01*
X263500Y118084D01*
Y117250D01*
X263916Y116834D01*
X263500Y114335D02*
Y116001D01*
X265166Y114335D01*
X265583D01*
X265999Y114751D01*
Y115584D01*
X265583Y116001D01*
X263500Y113502D02*
Y112669D01*
Y113085D01*
X265999D01*
X265583Y113502D01*
X263500Y111419D02*
Y110586D01*
Y111002D01*
X265999D01*
X265583Y111419D01*
X139417Y48666D02*
X139001Y48250D01*
Y47416D01*
X139417Y47000D01*
X141084D01*
X141500Y47416D01*
Y48250D01*
X141084Y48666D01*
X141500Y51165D02*
Y49499D01*
X139834Y51165D01*
X139417D01*
X139001Y50749D01*
Y49916D01*
X139417Y49499D01*
X141500Y51998D02*
Y52831D01*
Y52415D01*
X139001D01*
X139417Y51998D01*
X141500Y55331D02*
X139001D01*
X140250Y54081D01*
Y55747D01*
X231666Y53583D02*
X231250Y53999D01*
X230416D01*
X230000Y53583D01*
Y51916D01*
X230416Y51500D01*
X231250D01*
X231666Y51916D01*
X234165Y51500D02*
X232499D01*
X234165Y53166D01*
Y53583D01*
X233749Y53999D01*
X232916D01*
X232499Y53583D01*
X234998Y51500D02*
X235831D01*
X235415D01*
Y53999D01*
X234998Y53583D01*
X238747Y53999D02*
X237081D01*
Y52750D01*
X237914Y53166D01*
X238331D01*
X238747Y52750D01*
Y51916D01*
X238331Y51500D01*
X237498D01*
X237081Y51916D01*
X56666Y158083D02*
X56250Y158499D01*
X55417D01*
X55000Y158083D01*
Y156416D01*
X55417Y156000D01*
X56250D01*
X56666Y156416D01*
X57499Y158083D02*
X57916Y158499D01*
X58749D01*
X59165Y158083D01*
Y157666D01*
X58749Y157250D01*
X58332D01*
X58749D01*
X59165Y156833D01*
Y156416D01*
X58749Y156000D01*
X57916D01*
X57499Y156416D01*
X59998Y158083D02*
X60415Y158499D01*
X61248D01*
X61664Y158083D01*
Y156416D01*
X61248Y156000D01*
X60415D01*
X59998Y156416D01*
Y158083D01*
X62498D02*
X62914Y158499D01*
X63747D01*
X64164Y158083D01*
Y156416D01*
X63747Y156000D01*
X62914D01*
X62498Y156416D01*
Y158083D01*
X44166Y181583D02*
X43750Y181999D01*
X42917D01*
X42500Y181583D01*
Y179917D01*
X42917Y179500D01*
X43750D01*
X44166Y179917D01*
X44999Y181583D02*
X45416Y181999D01*
X46249D01*
X46665Y181583D01*
Y181166D01*
X46249Y180750D01*
X45832D01*
X46249D01*
X46665Y180333D01*
Y179917D01*
X46249Y179500D01*
X45416D01*
X44999Y179917D01*
X47498Y181583D02*
X47915Y181999D01*
X48748D01*
X49165Y181583D01*
Y179917D01*
X48748Y179500D01*
X47915D01*
X47498Y179917D01*
Y181583D01*
X49998Y179500D02*
X50831D01*
X50414D01*
Y181999D01*
X49998Y181583D01*
X42166Y165083D02*
X41750Y165499D01*
X40916D01*
X40500Y165083D01*
Y163417D01*
X40916Y163000D01*
X41750D01*
X42166Y163417D01*
X42999Y165083D02*
X43416Y165499D01*
X44249D01*
X44665Y165083D01*
Y164666D01*
X44249Y164250D01*
X43832D01*
X44249D01*
X44665Y163833D01*
Y163417D01*
X44249Y163000D01*
X43416D01*
X42999Y163417D01*
X45498Y165083D02*
X45915Y165499D01*
X46748D01*
X47164Y165083D01*
Y163417D01*
X46748Y163000D01*
X45915D01*
X45498Y163417D01*
Y165083D01*
X49664Y163000D02*
X47998D01*
X49664Y164666D01*
Y165083D01*
X49247Y165499D01*
X48414D01*
X47998Y165083D01*
X136583Y31834D02*
X136999Y32250D01*
Y33084D01*
X136583Y33500D01*
X134916D01*
X134500Y33084D01*
Y32250D01*
X134916Y31834D01*
X134500Y29751D02*
X136999D01*
X135750Y31001D01*
Y29335D01*
X136583Y28502D02*
X136999Y28085D01*
Y27252D01*
X136583Y26836D01*
X134916D01*
X134500Y27252D01*
Y28085D01*
X134916Y28502D01*
X136583D01*
Y26002D02*
X136999Y25586D01*
Y24753D01*
X136583Y24336D01*
X134916D01*
X134500Y24753D01*
Y25586D01*
X134916Y26002D01*
X136583D01*
X93917Y34166D02*
X93501Y33750D01*
Y32917D01*
X93917Y32500D01*
X95583D01*
X96000Y32917D01*
Y33750D01*
X95583Y34166D01*
X96000Y36249D02*
X93501D01*
X94750Y34999D01*
Y36665D01*
X93917Y37498D02*
X93501Y37915D01*
Y38748D01*
X93917Y39165D01*
X95583D01*
X96000Y38748D01*
Y37915D01*
X95583Y37498D01*
X93917D01*
X96000Y39998D02*
Y40831D01*
Y40414D01*
X93501D01*
X93917Y39998D01*
X152134Y132917D02*
X152550Y132501D01*
X153384D01*
X153800Y132917D01*
Y134583D01*
X153384Y135000D01*
X152550D01*
X152134Y134583D01*
X149635Y132501D02*
X151301D01*
Y133750D01*
X150468Y133334D01*
X150051D01*
X149635Y133750D01*
Y134583D01*
X150051Y135000D01*
X150884D01*
X151301Y134583D01*
X148802Y132917D02*
X148385Y132501D01*
X147552D01*
X147135Y132917D01*
Y134583D01*
X147552Y135000D01*
X148385D01*
X148802Y134583D01*
Y132917D01*
X146302D02*
X145886Y132501D01*
X145053D01*
X144636Y132917D01*
Y134583D01*
X145053Y135000D01*
X145886D01*
X146302Y134583D01*
Y132917D01*
X156383Y141934D02*
X156799Y142350D01*
Y143184D01*
X156383Y143600D01*
X154717D01*
X154300Y143184D01*
Y142350D01*
X154717Y141934D01*
X156799Y139435D02*
Y141101D01*
X155550D01*
X155966Y140268D01*
Y139851D01*
X155550Y139435D01*
X154717D01*
X154300Y139851D01*
Y140684D01*
X154717Y141101D01*
X156383Y138602D02*
X156799Y138185D01*
Y137352D01*
X156383Y136935D01*
X154717D01*
X154300Y137352D01*
Y138185D01*
X154717Y138602D01*
X156383D01*
X154300Y136102D02*
Y135269D01*
Y135686D01*
X156799D01*
X156383Y136102D01*
X146666Y151583D02*
X146250Y151999D01*
X145416D01*
X145000Y151583D01*
Y149917D01*
X145416Y149500D01*
X146250D01*
X146666Y149917D01*
X149165Y151999D02*
X147499D01*
Y150750D01*
X148332Y151166D01*
X148749D01*
X149165Y150750D01*
Y149917D01*
X148749Y149500D01*
X147916D01*
X147499Y149917D01*
X149998Y151583D02*
X150415Y151999D01*
X151248D01*
X151664Y151583D01*
Y149917D01*
X151248Y149500D01*
X150415D01*
X149998Y149917D01*
Y151583D01*
X154164Y149500D02*
X152498D01*
X154164Y151166D01*
Y151583D01*
X153747Y151999D01*
X152914D01*
X152498Y151583D01*
X118334Y95917D02*
X118750Y95501D01*
X119583D01*
X120000Y95917D01*
Y97584D01*
X119583Y98000D01*
X118750D01*
X118334Y97584D01*
X115835Y95501D02*
X117501D01*
Y96750D01*
X116668Y96334D01*
X116251D01*
X115835Y96750D01*
Y97584D01*
X116251Y98000D01*
X117084D01*
X117501Y97584D01*
X115002Y95917D02*
X114585Y95501D01*
X113752D01*
X113336Y95917D01*
Y97584D01*
X113752Y98000D01*
X114585D01*
X115002Y97584D01*
Y95917D01*
X112502D02*
X112086Y95501D01*
X111253D01*
X110836Y95917D01*
Y96334D01*
X111253Y96750D01*
X111669D01*
X111253D01*
X110836Y97167D01*
Y97584D01*
X111253Y98000D01*
X112086D01*
X112502Y97584D01*
X76417Y153166D02*
X76001Y152750D01*
Y151917D01*
X76417Y151500D01*
X78083D01*
X78500Y151917D01*
Y152750D01*
X78083Y153166D01*
X76001Y155665D02*
Y153999D01*
X77250D01*
X76834Y154832D01*
Y155249D01*
X77250Y155665D01*
X78083D01*
X78500Y155249D01*
Y154416D01*
X78083Y153999D01*
X76417Y156498D02*
X76001Y156915D01*
Y157748D01*
X76417Y158165D01*
X78083D01*
X78500Y157748D01*
Y156915D01*
X78083Y156498D01*
X76417D01*
X76001Y160664D02*
X76417Y159831D01*
X77250Y158998D01*
X78083D01*
X78500Y159414D01*
Y160247D01*
X78083Y160664D01*
X77667D01*
X77250Y160247D01*
Y158998D01*
X76417Y142166D02*
X76001Y141750D01*
Y140917D01*
X76417Y140500D01*
X78083D01*
X78500Y140917D01*
Y141750D01*
X78083Y142166D01*
X76001Y144665D02*
Y142999D01*
X77250D01*
X76834Y143832D01*
Y144249D01*
X77250Y144665D01*
X78083D01*
X78500Y144249D01*
Y143416D01*
X78083Y142999D01*
X76417Y145498D02*
X76001Y145915D01*
Y146748D01*
X76417Y147164D01*
X78083D01*
X78500Y146748D01*
Y145915D01*
X78083Y145498D01*
X76417D01*
X76001Y147998D02*
Y149664D01*
X76417D01*
X78083Y147998D01*
X78500D01*
X107583Y152334D02*
X107999Y152750D01*
Y153584D01*
X107583Y154000D01*
X105917D01*
X105500Y153584D01*
Y152750D01*
X105917Y152334D01*
X107999Y149835D02*
Y151501D01*
X106750D01*
X107166Y150668D01*
Y150251D01*
X106750Y149835D01*
X105917D01*
X105500Y150251D01*
Y151084D01*
X105917Y151501D01*
X105500Y149002D02*
Y148169D01*
Y148585D01*
X107999D01*
X107583Y149002D01*
Y146919D02*
X107999Y146502D01*
Y145669D01*
X107583Y145253D01*
X105917D01*
X105500Y145669D01*
Y146502D01*
X105917Y146919D01*
X107583D01*
X97666Y138083D02*
X97250Y138499D01*
X96416D01*
X96000Y138083D01*
Y136416D01*
X96416Y136000D01*
X97250D01*
X97666Y136416D01*
X100165Y138499D02*
X98499D01*
Y137250D01*
X99332Y137666D01*
X99749D01*
X100165Y137250D01*
Y136416D01*
X99749Y136000D01*
X98916D01*
X98499Y136416D01*
X100998Y136000D02*
X101831D01*
X101415D01*
Y138499D01*
X100998Y138083D01*
X103081Y136000D02*
X103914D01*
X103498D01*
Y138499D01*
X103081Y138083D01*
X136666Y148083D02*
X136250Y148499D01*
X135416D01*
X135000Y148083D01*
Y146416D01*
X135416Y146000D01*
X136250D01*
X136666Y146416D01*
X139165Y148499D02*
X137499D01*
Y147250D01*
X138332Y147666D01*
X138749D01*
X139165Y147250D01*
Y146416D01*
X138749Y146000D01*
X137916D01*
X137499Y146416D01*
X139998Y146000D02*
X140831D01*
X140415D01*
Y148499D01*
X139998Y148083D01*
X143747Y146000D02*
X142081D01*
X143747Y147666D01*
Y148083D01*
X143331Y148499D01*
X142498D01*
X142081Y148083D01*
X127483Y156834D02*
X127899Y157250D01*
Y158083D01*
X127483Y158500D01*
X125817D01*
X125400Y158083D01*
Y157250D01*
X125817Y156834D01*
X127899Y154335D02*
Y156001D01*
X126650D01*
X127066Y155168D01*
Y154751D01*
X126650Y154335D01*
X125817D01*
X125400Y154751D01*
Y155584D01*
X125817Y156001D01*
X125400Y153502D02*
Y152669D01*
Y153085D01*
X127899D01*
X127483Y153502D01*
Y151419D02*
X127899Y151002D01*
Y150169D01*
X127483Y149753D01*
X127066D01*
X126650Y150169D01*
Y150586D01*
Y150169D01*
X126233Y149753D01*
X125817D01*
X125400Y150169D01*
Y151002D01*
X125817Y151419D01*
X94666Y131083D02*
X94250Y131499D01*
X93417D01*
X93000Y131083D01*
Y129417D01*
X93417Y129000D01*
X94250D01*
X94666Y129417D01*
X97165Y131499D02*
X95499D01*
Y130250D01*
X96332Y130666D01*
X96749D01*
X97165Y130250D01*
Y129417D01*
X96749Y129000D01*
X95916D01*
X95499Y129417D01*
X97998Y129000D02*
X98831D01*
X98415D01*
Y131499D01*
X97998Y131083D01*
X101331Y129000D02*
Y131499D01*
X100081Y130250D01*
X101747D01*
X152134Y126917D02*
X152550Y126501D01*
X153384D01*
X153800Y126917D01*
Y128584D01*
X153384Y129000D01*
X152550D01*
X152134Y128584D01*
X149635Y126501D02*
X151301D01*
Y127750D01*
X150468Y127334D01*
X150051D01*
X149635Y127750D01*
Y128584D01*
X150051Y129000D01*
X150884D01*
X151301Y128584D01*
X148802Y129000D02*
X147969D01*
X148385D01*
Y126501D01*
X148802Y126917D01*
X145053Y126501D02*
X146719D01*
Y127750D01*
X145886Y127334D01*
X145469D01*
X145053Y127750D01*
Y128584D01*
X145469Y129000D01*
X146302D01*
X146719Y128584D01*
X134583Y105834D02*
X134999Y106250D01*
Y107083D01*
X134583Y107500D01*
X132916D01*
X132500Y107083D01*
Y106250D01*
X132916Y105834D01*
X134999Y103335D02*
Y105001D01*
X133750D01*
X134166Y104168D01*
Y103751D01*
X133750Y103335D01*
X132916D01*
X132500Y103751D01*
Y104584D01*
X132916Y105001D01*
X132500Y102502D02*
Y101669D01*
Y102085D01*
X134999D01*
X134583Y102502D01*
X134999Y98753D02*
X134583Y99586D01*
X133750Y100419D01*
X132916D01*
X132500Y100002D01*
Y99169D01*
X132916Y98753D01*
X133333D01*
X133750Y99169D01*
Y100419D01*
X151034Y114117D02*
X151450Y113701D01*
X152284D01*
X152700Y114117D01*
Y115784D01*
X152284Y116200D01*
X151450D01*
X151034Y115784D01*
X148535Y113701D02*
X150201D01*
Y114950D01*
X149368Y114534D01*
X148951D01*
X148535Y114950D01*
Y115784D01*
X148951Y116200D01*
X149784D01*
X150201Y115784D01*
X147702Y116200D02*
X146869D01*
X147285D01*
Y113701D01*
X147702Y114117D01*
X145619Y113701D02*
X143953D01*
Y114117D01*
X145619Y115784D01*
Y116200D01*
X105917Y100166D02*
X105501Y99750D01*
Y98917D01*
X105917Y98500D01*
X107583D01*
X108000Y98917D01*
Y99750D01*
X107583Y100166D01*
X105501Y102665D02*
Y100999D01*
X106750D01*
X106334Y101832D01*
Y102249D01*
X106750Y102665D01*
X107583D01*
X108000Y102249D01*
Y101416D01*
X107583Y100999D01*
X108000Y103498D02*
Y104331D01*
Y103915D01*
X105501D01*
X105917Y103498D01*
Y105581D02*
X105501Y105998D01*
Y106831D01*
X105917Y107247D01*
X106334D01*
X106750Y106831D01*
X107167Y107247D01*
X107583D01*
X108000Y106831D01*
Y105998D01*
X107583Y105581D01*
X107167D01*
X106750Y105998D01*
X106334Y105581D01*
X105917D01*
X106750Y105998D02*
Y106831D01*
X61917Y118166D02*
X61501Y117750D01*
Y116917D01*
X61917Y116500D01*
X63583D01*
X64000Y116917D01*
Y117750D01*
X63583Y118166D01*
X61501Y120665D02*
Y118999D01*
X62750D01*
X62334Y119832D01*
Y120249D01*
X62750Y120665D01*
X63583D01*
X64000Y120249D01*
Y119416D01*
X63583Y118999D01*
X64000Y121498D02*
Y122331D01*
Y121915D01*
X61501D01*
X61917Y121498D01*
X63583Y123581D02*
X64000Y123998D01*
Y124831D01*
X63583Y125247D01*
X61917D01*
X61501Y124831D01*
Y123998D01*
X61917Y123581D01*
X62334D01*
X62750Y123998D01*
Y125247D01*
X67166Y140583D02*
X66750Y140999D01*
X65917D01*
X65500Y140583D01*
Y138917D01*
X65917Y138500D01*
X66750D01*
X67166Y138917D01*
X69665Y140999D02*
X67999D01*
Y139750D01*
X68832Y140166D01*
X69249D01*
X69665Y139750D01*
Y138917D01*
X69249Y138500D01*
X68416D01*
X67999Y138917D01*
X72164Y138500D02*
X70498D01*
X72164Y140166D01*
Y140583D01*
X71748Y140999D01*
X70915D01*
X70498Y140583D01*
X72998D02*
X73414Y140999D01*
X74247D01*
X74664Y140583D01*
Y138917D01*
X74247Y138500D01*
X73414D01*
X72998Y138917D01*
Y140583D01*
X174666Y141583D02*
X174250Y141999D01*
X173416D01*
X173000Y141583D01*
Y139917D01*
X173416Y139500D01*
X174250D01*
X174666Y139917D01*
X177165Y141999D02*
X176332Y141583D01*
X175499Y140750D01*
Y139917D01*
X175916Y139500D01*
X176749D01*
X177165Y139917D01*
Y140333D01*
X176749Y140750D01*
X175499D01*
X177998Y141583D02*
X178415Y141999D01*
X179248D01*
X179665Y141583D01*
Y139917D01*
X179248Y139500D01*
X178415D01*
X177998Y139917D01*
Y141583D01*
X180498D02*
X180914Y141999D01*
X181747D01*
X182164Y141583D01*
Y139917D01*
X181747Y139500D01*
X180914D01*
X180498Y139917D01*
Y141583D01*
X175766Y114483D02*
X175350Y114899D01*
X174516D01*
X174100Y114483D01*
Y112817D01*
X174516Y112400D01*
X175350D01*
X175766Y112817D01*
X178265Y114899D02*
X177432Y114483D01*
X176599Y113650D01*
Y112817D01*
X177016Y112400D01*
X177849D01*
X178265Y112817D01*
Y113233D01*
X177849Y113650D01*
X176599D01*
X179098Y114483D02*
X179515Y114899D01*
X180348D01*
X180764Y114483D01*
Y112817D01*
X180348Y112400D01*
X179515D01*
X179098Y112817D01*
Y114483D01*
X181598Y112400D02*
X182431D01*
X182014D01*
Y114899D01*
X181598Y114483D01*
X258666Y208383D02*
X258250Y208799D01*
X257417D01*
X257000Y208383D01*
Y206716D01*
X257417Y206300D01*
X258250D01*
X258666Y206716D01*
X261165Y208799D02*
X260332Y208383D01*
X259499Y207550D01*
Y206716D01*
X259916Y206300D01*
X260749D01*
X261165Y206716D01*
Y207133D01*
X260749Y207550D01*
X259499D01*
X261998Y208383D02*
X262415Y208799D01*
X263248D01*
X263665Y208383D01*
Y206716D01*
X263248Y206300D01*
X262415D01*
X261998Y206716D01*
Y208383D01*
X266164Y206300D02*
X264498D01*
X266164Y207966D01*
Y208383D01*
X265747Y208799D01*
X264914D01*
X264498Y208383D01*
X155666Y102583D02*
X155250Y102999D01*
X154417D01*
X154000Y102583D01*
Y100917D01*
X154417Y100500D01*
X155250D01*
X155666Y100917D01*
X158165Y102999D02*
X157332Y102583D01*
X156499Y101750D01*
Y100917D01*
X156916Y100500D01*
X157749D01*
X158165Y100917D01*
Y101333D01*
X157749Y101750D01*
X156499D01*
X158998Y102583D02*
X159415Y102999D01*
X160248D01*
X160664Y102583D01*
Y100917D01*
X160248Y100500D01*
X159415D01*
X158998Y100917D01*
Y102583D01*
X161498D02*
X161914Y102999D01*
X162747D01*
X163164Y102583D01*
Y102166D01*
X162747Y101750D01*
X162331D01*
X162747D01*
X163164Y101333D01*
Y100917D01*
X162747Y100500D01*
X161914D01*
X161498Y100917D01*
X173666Y134083D02*
X173250Y134499D01*
X172416D01*
X172000Y134083D01*
Y132416D01*
X172416Y132000D01*
X173250D01*
X173666Y132416D01*
X176165Y134499D02*
X175332Y134083D01*
X174499Y133250D01*
Y132416D01*
X174916Y132000D01*
X175749D01*
X176165Y132416D01*
Y132833D01*
X175749Y133250D01*
X174499D01*
X176998Y134083D02*
X177415Y134499D01*
X178248D01*
X178665Y134083D01*
Y132416D01*
X178248Y132000D01*
X177415D01*
X176998Y132416D01*
Y134083D01*
X180747Y132000D02*
Y134499D01*
X179498Y133250D01*
X181164D01*
X141683Y82034D02*
X142099Y82450D01*
Y83284D01*
X141683Y83700D01*
X140016D01*
X139600Y83284D01*
Y82450D01*
X140016Y82034D01*
X142099Y79535D02*
X141683Y80368D01*
X140850Y81201D01*
X140016D01*
X139600Y80784D01*
Y79951D01*
X140016Y79535D01*
X140433D01*
X140850Y79951D01*
Y81201D01*
X141683Y78702D02*
X142099Y78285D01*
Y77452D01*
X141683Y77035D01*
X140016D01*
X139600Y77452D01*
Y78285D01*
X140016Y78702D01*
X141683D01*
X142099Y76202D02*
Y74536D01*
X141683D01*
X140016Y76202D01*
X139600D01*
X30917Y102666D02*
X30501Y102250D01*
Y101417D01*
X30917Y101000D01*
X32583D01*
X33000Y101417D01*
Y102250D01*
X32583Y102666D01*
X30501Y105165D02*
X30917Y104332D01*
X31750Y103499D01*
X32583D01*
X33000Y103916D01*
Y104749D01*
X32583Y105165D01*
X32167D01*
X31750Y104749D01*
Y103499D01*
X30917Y105998D02*
X30501Y106415D01*
Y107248D01*
X30917Y107665D01*
X32583D01*
X33000Y107248D01*
Y106415D01*
X32583Y105998D01*
X30917D01*
Y108498D02*
X30501Y108914D01*
Y109747D01*
X30917Y110164D01*
X31334D01*
X31750Y109747D01*
X32167Y110164D01*
X32583D01*
X33000Y109747D01*
Y108914D01*
X32583Y108498D01*
X32167D01*
X31750Y108914D01*
X31334Y108498D01*
X30917D01*
X31750Y108914D02*
Y109747D01*
X173166Y149083D02*
X172750Y149499D01*
X171916D01*
X171500Y149083D01*
Y147416D01*
X171916Y147000D01*
X172750D01*
X173166Y147416D01*
X175665Y149499D02*
X174832Y149083D01*
X173999Y148250D01*
Y147416D01*
X174416Y147000D01*
X175249D01*
X175665Y147416D01*
Y147833D01*
X175249Y148250D01*
X173999D01*
X176498Y149083D02*
X176915Y149499D01*
X177748D01*
X178165Y149083D01*
Y147416D01*
X177748Y147000D01*
X176915D01*
X176498Y147416D01*
Y149083D01*
X178998Y147416D02*
X179414Y147000D01*
X180247D01*
X180664Y147416D01*
Y149083D01*
X180247Y149499D01*
X179414D01*
X178998Y149083D01*
Y148666D01*
X179414Y148250D01*
X180664D01*
X17314Y42209D02*
X16898Y41793D01*
Y40960D01*
X17314Y40543D01*
X18980D01*
X19397Y40960D01*
Y41793D01*
X18980Y42209D01*
X16898Y43042D02*
Y44709D01*
X17314D01*
X18980Y43042D01*
X19397D01*
X17314Y45542D02*
X16898Y45958D01*
Y46791D01*
X17314Y47208D01*
X18980D01*
X19397Y46791D01*
Y45958D01*
X18980Y45542D01*
X17314D01*
Y48041D02*
X16898Y48457D01*
Y49290D01*
X17314Y49707D01*
X18980D01*
X19397Y49290D01*
Y48457D01*
X18980Y48041D01*
X17314D01*
X24466Y57283D02*
X24050Y57699D01*
X23216D01*
X22800Y57283D01*
Y55616D01*
X23216Y55200D01*
X24050D01*
X24466Y55616D01*
X25299Y57699D02*
X26965D01*
Y57283D01*
X25299Y55616D01*
Y55200D01*
X27798Y57283D02*
X28215Y57699D01*
X29048D01*
X29465Y57283D01*
Y55616D01*
X29048Y55200D01*
X28215D01*
X27798Y55616D01*
Y57283D01*
X30298Y55200D02*
X31131D01*
X30714D01*
Y57699D01*
X30298Y57283D01*
X23666Y34083D02*
X23250Y34499D01*
X22416D01*
X22000Y34083D01*
Y32416D01*
X22416Y32000D01*
X23250D01*
X23666Y32416D01*
X24499Y34499D02*
X26165D01*
Y34083D01*
X24499Y32416D01*
Y32000D01*
X26998Y34083D02*
X27415Y34499D01*
X28248D01*
X28664Y34083D01*
Y32416D01*
X28248Y32000D01*
X27415D01*
X26998Y32416D01*
Y34083D01*
X31164Y32000D02*
X29498D01*
X31164Y33666D01*
Y34083D01*
X30747Y34499D01*
X29914D01*
X29498Y34083D01*
X71417Y203666D02*
X71001Y203250D01*
Y202416D01*
X71417Y202000D01*
X73084D01*
X73500Y202416D01*
Y203250D01*
X73084Y203666D01*
X71001Y204499D02*
Y206165D01*
X71417D01*
X73084Y204499D01*
X73500D01*
X71417Y206998D02*
X71001Y207415D01*
Y208248D01*
X71417Y208664D01*
X73084D01*
X73500Y208248D01*
Y207415D01*
X73084Y206998D01*
X71417D01*
Y209498D02*
X71001Y209914D01*
Y210747D01*
X71417Y211164D01*
X71834D01*
X72250Y210747D01*
Y210331D01*
Y210747D01*
X72667Y211164D01*
X73084D01*
X73500Y210747D01*
Y209914D01*
X73084Y209498D01*
X106566Y195983D02*
X106150Y196399D01*
X105316D01*
X104900Y195983D01*
Y194316D01*
X105316Y193900D01*
X106150D01*
X106566Y194316D01*
X107399Y196399D02*
X109065D01*
Y195983D01*
X107399Y194316D01*
Y193900D01*
X109898Y195983D02*
X110315Y196399D01*
X111148D01*
X111565Y195983D01*
Y194316D01*
X111148Y193900D01*
X110315D01*
X109898Y194316D01*
Y195983D01*
X113647Y193900D02*
Y196399D01*
X112398Y195150D01*
X114064D01*
X35083Y81834D02*
X35499Y82250D01*
Y83083D01*
X35083Y83500D01*
X33417D01*
X33000Y83083D01*
Y82250D01*
X33417Y81834D01*
Y81001D02*
X33000Y80584D01*
Y79751D01*
X33417Y79335D01*
X35083D01*
X35499Y79751D01*
Y80584D01*
X35083Y81001D01*
X34666D01*
X34250Y80584D01*
Y79335D01*
X35083Y78502D02*
X35499Y78085D01*
Y77252D01*
X35083Y76836D01*
X33417D01*
X33000Y77252D01*
Y78085D01*
X33417Y78502D01*
X35083D01*
X35499Y74336D02*
X35083Y75169D01*
X34250Y76002D01*
X33417D01*
X33000Y75586D01*
Y74753D01*
X33417Y74336D01*
X33833D01*
X34250Y74753D01*
Y76002D01*
X24166Y78083D02*
X23750Y78499D01*
X22917D01*
X22500Y78083D01*
Y76416D01*
X22917Y76000D01*
X23750D01*
X24166Y76416D01*
X24999D02*
X25416Y76000D01*
X26249D01*
X26665Y76416D01*
Y78083D01*
X26249Y78499D01*
X25416D01*
X24999Y78083D01*
Y77666D01*
X25416Y77250D01*
X26665D01*
X27498Y78083D02*
X27915Y78499D01*
X28748D01*
X29164Y78083D01*
Y76416D01*
X28748Y76000D01*
X27915D01*
X27498Y76416D01*
Y78083D01*
X29998Y78499D02*
X31664D01*
Y78083D01*
X29998Y76416D01*
Y76000D01*
X-583Y74166D02*
X-999Y73750D01*
Y72917D01*
X-583Y72500D01*
X1084D01*
X1500Y72917D01*
Y73750D01*
X1084Y74166D01*
Y74999D02*
X1500Y75416D01*
Y76249D01*
X1084Y76665D01*
X-583D01*
X-999Y76249D01*
Y75416D01*
X-583Y74999D01*
X-166D01*
X250Y75416D01*
Y76665D01*
X-583Y77498D02*
X-999Y77915D01*
Y78748D01*
X-583Y79164D01*
X1084D01*
X1500Y78748D01*
Y77915D01*
X1084Y77498D01*
X-583D01*
Y79998D02*
X-999Y80414D01*
Y81247D01*
X-583Y81664D01*
X-166D01*
X250Y81247D01*
X667Y81664D01*
X1084D01*
X1500Y81247D01*
Y80414D01*
X1084Y79998D01*
X667D01*
X250Y80414D01*
X-166Y79998D01*
X-583D01*
X250Y80414D02*
Y81247D01*
X3166Y56583D02*
X2750Y56999D01*
X1916D01*
X1500Y56583D01*
Y54917D01*
X1916Y54500D01*
X2750D01*
X3166Y54917D01*
X3999D02*
X4416Y54500D01*
X5249D01*
X5665Y54917D01*
Y56583D01*
X5249Y56999D01*
X4416D01*
X3999Y56583D01*
Y56166D01*
X4416Y55750D01*
X5665D01*
X6498Y56583D02*
X6915Y56999D01*
X7748D01*
X8164Y56583D01*
Y54917D01*
X7748Y54500D01*
X6915D01*
X6498Y54917D01*
Y56583D01*
X8998Y54917D02*
X9414Y54500D01*
X10247D01*
X10664Y54917D01*
Y56583D01*
X10247Y56999D01*
X9414D01*
X8998Y56583D01*
Y56166D01*
X9414Y55750D01*
X10664D01*
X16300Y190999D02*
Y188500D01*
X17550D01*
X17966Y188917D01*
Y190583D01*
X17550Y190999D01*
X16300D01*
X18799Y190583D02*
X19216Y190999D01*
X20049D01*
X20465Y190583D01*
Y190166D01*
X20049Y189750D01*
X19632D01*
X20049D01*
X20465Y189333D01*
Y188917D01*
X20049Y188500D01*
X19216D01*
X18799Y188917D01*
X21298Y190583D02*
X21715Y190999D01*
X22548D01*
X22964Y190583D01*
Y188917D01*
X22548Y188500D01*
X21715D01*
X21298Y188917D01*
Y190583D01*
X23798D02*
X24214Y190999D01*
X25047D01*
X25464Y190583D01*
Y188917D01*
X25047Y188500D01*
X24214D01*
X23798Y188917D01*
Y190583D01*
X14500Y145899D02*
Y143400D01*
X15750D01*
X16166Y143816D01*
Y145483D01*
X15750Y145899D01*
X14500D01*
X16999Y145483D02*
X17416Y145899D01*
X18249D01*
X18665Y145483D01*
Y145066D01*
X18249Y144650D01*
X17832D01*
X18249D01*
X18665Y144233D01*
Y143816D01*
X18249Y143400D01*
X17416D01*
X16999Y143816D01*
X19498Y145483D02*
X19915Y145899D01*
X20748D01*
X21165Y145483D01*
Y143816D01*
X20748Y143400D01*
X19915D01*
X19498Y143816D01*
Y145483D01*
X21998Y143400D02*
X22831D01*
X22414D01*
Y145899D01*
X21998Y145483D01*
X120500Y17699D02*
Y15200D01*
X121750D01*
X122166Y15617D01*
Y17283D01*
X121750Y17699D01*
X120500D01*
X124249Y15200D02*
Y17699D01*
X122999Y16450D01*
X124665D01*
X125498Y17283D02*
X125915Y17699D01*
X126748D01*
X127164Y17283D01*
Y15617D01*
X126748Y15200D01*
X125915D01*
X125498Y15617D01*
Y17283D01*
X127998D02*
X128414Y17699D01*
X129247D01*
X129664Y17283D01*
Y15617D01*
X129247Y15200D01*
X128414D01*
X127998Y15617D01*
Y17283D01*
X134499Y55000D02*
X132000D01*
Y53750D01*
X132416Y53334D01*
X134083D01*
X134499Y53750D01*
Y55000D01*
X132000Y51251D02*
X134499D01*
X133250Y52501D01*
Y50835D01*
X134083Y50002D02*
X134499Y49585D01*
Y48752D01*
X134083Y48335D01*
X132416D01*
X132000Y48752D01*
Y49585D01*
X132416Y50002D01*
X134083D01*
X132000Y47502D02*
Y46669D01*
Y47086D01*
X134499D01*
X134083Y47502D01*
X261600Y224999D02*
Y222500D01*
X262850D01*
X263266Y222917D01*
Y224583D01*
X262850Y224999D01*
X261600D01*
X265765D02*
X264932Y224583D01*
X264099Y223750D01*
Y222917D01*
X264516Y222500D01*
X265349D01*
X265765Y222917D01*
Y223333D01*
X265349Y223750D01*
X264099D01*
X266598Y224583D02*
X267015Y224999D01*
X267848D01*
X268265Y224583D01*
Y222917D01*
X267848Y222500D01*
X267015D01*
X266598Y222917D01*
Y224583D01*
X269098D02*
X269514Y224999D01*
X270347D01*
X270764Y224583D01*
Y222917D01*
X270347Y222500D01*
X269514D01*
X269098Y222917D01*
Y224583D01*
X20500Y84499D02*
Y82000D01*
X21750D01*
X22166Y82416D01*
Y84083D01*
X21750Y84499D01*
X20500D01*
X24665D02*
X23832Y84083D01*
X22999Y83250D01*
Y82416D01*
X23416Y82000D01*
X24249D01*
X24665Y82416D01*
Y82833D01*
X24249Y83250D01*
X22999D01*
X25498Y84083D02*
X25915Y84499D01*
X26748D01*
X27165Y84083D01*
Y82416D01*
X26748Y82000D01*
X25915D01*
X25498Y82416D01*
Y84083D01*
X27998Y82000D02*
X28831D01*
X28414D01*
Y84499D01*
X27998Y84083D01*
X23501Y151166D02*
Y149500D01*
X24750D01*
Y150333D01*
Y149500D01*
X26000D01*
X23917Y151999D02*
X23501Y152416D01*
Y153249D01*
X23917Y153665D01*
X24334D01*
X24750Y153249D01*
Y152832D01*
Y153249D01*
X25167Y153665D01*
X25583D01*
X26000Y153249D01*
Y152416D01*
X25583Y151999D01*
X23917Y154498D02*
X23501Y154915D01*
Y155748D01*
X23917Y156165D01*
X25583D01*
X26000Y155748D01*
Y154915D01*
X25583Y154498D01*
X23917D01*
Y156998D02*
X23501Y157414D01*
Y158247D01*
X23917Y158664D01*
X25583D01*
X26000Y158247D01*
Y157414D01*
X25583Y156998D01*
X23917D01*
X194166Y132999D02*
X193333D01*
X193750D01*
Y130917D01*
X193333Y130500D01*
X192917D01*
X192500Y130917D01*
X194999Y130500D02*
X195832D01*
X195416D01*
Y132999D01*
X194999Y132583D01*
X197082Y130500D02*
X197915D01*
X197498D01*
Y132999D01*
X197082Y132583D01*
X199164D02*
X199581Y132999D01*
X200414D01*
X200831Y132583D01*
Y130917D01*
X200414Y130500D01*
X199581D01*
X199164Y130917D01*
Y132583D01*
X214666Y132999D02*
X213833D01*
X214250D01*
Y130917D01*
X213833Y130500D01*
X213417D01*
X213000Y130917D01*
X215499Y130500D02*
X216332D01*
X215916D01*
Y132999D01*
X215499Y132583D01*
X217582Y130500D02*
X218415D01*
X217998D01*
Y132999D01*
X217582Y132583D01*
X219665Y130500D02*
X220498D01*
X220081D01*
Y132999D01*
X219665Y132583D01*
X315411Y88945D02*
X314822Y88356D01*
X315116Y88651D01*
X316589Y87178D01*
X316589Y86589D01*
X316295Y86295D01*
X315705D01*
X318945Y88945D02*
X317767Y87767D01*
Y90123D01*
X317473Y90418D01*
X316884D01*
X316295Y89829D01*
Y89240D01*
X318062Y91007D02*
Y91596D01*
X318651Y92185D01*
X319240D01*
X320418Y91007D01*
Y90418D01*
X319829Y89829D01*
X319240D01*
X318062Y91007D01*
X319829Y92774D02*
Y93363D01*
X320418Y93952D01*
X321007D01*
X321302Y93658D01*
Y93069D01*
X321891D01*
X322185Y92774D01*
Y92185D01*
X321596Y91596D01*
X321007D01*
X320712Y91891D01*
X320712Y92480D01*
X320124D01*
X319829Y92774D01*
X320712Y92480D02*
X321302Y93069D01*
X250266Y30799D02*
X249433D01*
X249850D01*
Y28716D01*
X249433Y28300D01*
X249016D01*
X248600Y28716D01*
X251099Y30383D02*
X251516Y30799D01*
X252349D01*
X252765Y30383D01*
Y29966D01*
X252349Y29550D01*
X251932D01*
X252349D01*
X252765Y29133D01*
Y28716D01*
X252349Y28300D01*
X251516D01*
X251099Y28716D01*
X253598Y30383D02*
X254015Y30799D01*
X254848D01*
X255264Y30383D01*
Y28716D01*
X254848Y28300D01*
X254015D01*
X253598Y28716D01*
Y30383D01*
X257764Y30799D02*
X256098D01*
Y29550D01*
X256931Y29966D01*
X257347D01*
X257764Y29550D01*
Y28716D01*
X257347Y28300D01*
X256514D01*
X256098Y28716D01*
X75166Y180499D02*
X74333D01*
X74750D01*
Y178417D01*
X74333Y178000D01*
X73917D01*
X73500Y178417D01*
X75999Y180499D02*
X77665D01*
Y180083D01*
X75999Y178417D01*
Y178000D01*
X78498Y180083D02*
X78915Y180499D01*
X79748D01*
X80164Y180083D01*
Y178417D01*
X79748Y178000D01*
X78915D01*
X78498Y178417D01*
Y180083D01*
X80998D02*
X81414Y180499D01*
X82247D01*
X82664Y180083D01*
Y178417D01*
X82247Y178000D01*
X81414D01*
X80998Y178417D01*
Y180083D01*
X5666Y32999D02*
X4833D01*
X5250D01*
Y30917D01*
X4833Y30500D01*
X4417D01*
X4000Y30917D01*
X6499Y32999D02*
X8165D01*
Y32583D01*
X6499Y30917D01*
Y30500D01*
X8998Y32583D02*
X9415Y32999D01*
X10248D01*
X10665Y32583D01*
Y30917D01*
X10248Y30500D01*
X9415D01*
X8998Y30917D01*
Y32583D01*
X11498Y30500D02*
X12331D01*
X11914D01*
Y32999D01*
X11498Y32583D01*
X5166Y53499D02*
X4333D01*
X4750D01*
Y51416D01*
X4333Y51000D01*
X3917D01*
X3500Y51416D01*
X5999Y53499D02*
X7665D01*
Y53083D01*
X5999Y51416D01*
Y51000D01*
X8498Y53083D02*
X8915Y53499D01*
X9748D01*
X10165Y53083D01*
Y51416D01*
X9748Y51000D01*
X8915D01*
X8498Y51416D01*
Y53083D01*
X12664Y51000D02*
X10998D01*
X12664Y52666D01*
Y53083D01*
X12247Y53499D01*
X11414D01*
X10998Y53083D01*
X17166Y221968D02*
X16333D01*
X16750D01*
Y219885D01*
X16333Y219468D01*
X15916D01*
X15500Y219885D01*
X17999Y219468D02*
Y221968D01*
X19249D01*
X19665Y221551D01*
Y220718D01*
X19249Y220302D01*
X17999D01*
X20498Y221551D02*
X20915Y221968D01*
X21748D01*
X22164Y221551D01*
Y221135D01*
X21748Y220718D01*
X21331D01*
X21748D01*
X22164Y220302D01*
Y219885D01*
X21748Y219468D01*
X20915D01*
X20498Y219885D01*
X22998Y221551D02*
X23414Y221968D01*
X24247D01*
X24664Y221551D01*
Y219885D01*
X24247Y219468D01*
X23414D01*
X22998Y219885D01*
Y221551D01*
X25497D02*
X25913Y221968D01*
X26746D01*
X27163Y221551D01*
Y219885D01*
X26746Y219468D01*
X25913D01*
X25497Y219885D01*
Y221551D01*
X238500Y188499D02*
Y186000D01*
X240166D01*
X240999D02*
X241832D01*
X241416D01*
Y188499D01*
X240999Y188083D01*
X243082D02*
X243498Y188499D01*
X244331D01*
X244748Y188083D01*
Y186416D01*
X244331Y186000D01*
X243498D01*
X243082Y186416D01*
Y188083D01*
X245581D02*
X245998Y188499D01*
X246831D01*
X247247Y188083D01*
Y186416D01*
X246831Y186000D01*
X245998D01*
X245581Y186416D01*
Y188083D01*
X26701Y176000D02*
X29200D01*
Y177666D01*
X27117Y178499D02*
X26701Y178916D01*
Y179749D01*
X27117Y180165D01*
X27534D01*
X27950Y179749D01*
Y179332D01*
Y179749D01*
X28367Y180165D01*
X28784D01*
X29200Y179749D01*
Y178916D01*
X28784Y178499D01*
X27117Y180998D02*
X26701Y181415D01*
Y182248D01*
X27117Y182665D01*
X28784D01*
X29200Y182248D01*
Y181415D01*
X28784Y180998D01*
X27117D01*
Y183498D02*
X26701Y183914D01*
Y184747D01*
X27117Y185164D01*
X28784D01*
X29200Y184747D01*
Y183914D01*
X28784Y183498D01*
X27117D01*
X69000Y170499D02*
Y168000D01*
X70666D01*
X71499Y170083D02*
X71916Y170499D01*
X72749D01*
X73165Y170083D01*
Y169666D01*
X72749Y169250D01*
X72332D01*
X72749D01*
X73165Y168833D01*
Y168417D01*
X72749Y168000D01*
X71916D01*
X71499Y168417D01*
X73998Y170083D02*
X74415Y170499D01*
X75248D01*
X75665Y170083D01*
Y168417D01*
X75248Y168000D01*
X74415D01*
X73998Y168417D01*
Y170083D01*
X76498Y168000D02*
X77331D01*
X76914D01*
Y170499D01*
X76498Y170083D01*
X95000Y13499D02*
Y11000D01*
X96666D01*
X98749D02*
Y13499D01*
X97499Y12250D01*
X99165D01*
X99998Y13083D02*
X100415Y13499D01*
X101248D01*
X101664Y13083D01*
Y11417D01*
X101248Y11000D01*
X100415D01*
X99998Y11417D01*
Y13083D01*
X102498D02*
X102914Y13499D01*
X103747D01*
X104164Y13083D01*
Y11417D01*
X103747Y11000D01*
X102914D01*
X102498Y11417D01*
Y13083D01*
X142618Y161094D02*
Y158595D01*
X144284D01*
X146783Y161094D02*
X145117D01*
Y159844D01*
X145950Y160261D01*
X146367D01*
X146783Y159844D01*
Y159011D01*
X146367Y158595D01*
X145534D01*
X145117Y159011D01*
X147617Y160677D02*
X148033Y161094D01*
X148866D01*
X149283Y160677D01*
Y159011D01*
X148866Y158595D01*
X148033D01*
X147617Y159011D01*
Y160677D01*
X150116Y158595D02*
X150949D01*
X150532D01*
Y161094D01*
X150116Y160677D01*
X102501Y204000D02*
X105000D01*
Y205666D01*
X102501Y206499D02*
Y208165D01*
X102917D01*
X104584Y206499D01*
X105000D01*
X102917Y208998D02*
X102501Y209415D01*
Y210248D01*
X102917Y210665D01*
X104584D01*
X105000Y210248D01*
Y209415D01*
X104584Y208998D01*
X102917D01*
Y211498D02*
X102501Y211914D01*
Y212747D01*
X102917Y213164D01*
X104584D01*
X105000Y212747D01*
Y211914D01*
X104584Y211498D01*
X102917D01*
X58500Y184499D02*
Y182000D01*
X60166D01*
X60999Y184499D02*
X62665D01*
Y184083D01*
X60999Y182416D01*
Y182000D01*
X63498Y184083D02*
X63915Y184499D01*
X64748D01*
X65165Y184083D01*
Y182416D01*
X64748Y182000D01*
X63915D01*
X63498Y182416D01*
Y184083D01*
X65998Y182000D02*
X66831D01*
X66414D01*
Y184499D01*
X65998Y184083D01*
X62501Y215000D02*
X65000D01*
Y216666D01*
X62501Y217499D02*
Y219165D01*
X62917D01*
X64583Y217499D01*
X65000D01*
X62917Y219998D02*
X62501Y220415D01*
Y221248D01*
X62917Y221665D01*
X64583D01*
X65000Y221248D01*
Y220415D01*
X64583Y219998D01*
X62917D01*
X65000Y224164D02*
Y222498D01*
X63334Y224164D01*
X62917D01*
X62501Y223747D01*
Y222914D01*
X62917Y222498D01*
X2000Y187500D02*
Y189999D01*
X3250D01*
X3666Y189583D01*
Y188750D01*
X3250Y188333D01*
X2000D01*
X4499Y187500D02*
X5332D01*
X4916D01*
Y189999D01*
X4499Y189583D01*
X6582D02*
X6998Y189999D01*
X7831D01*
X8248Y189583D01*
Y187917D01*
X7831Y187500D01*
X6998D01*
X6582Y187917D01*
Y189583D01*
X9081Y187500D02*
X9914D01*
X9498D01*
Y189999D01*
X9081Y189583D01*
X293500Y146000D02*
X295267Y147767D01*
X296151Y146884D01*
Y146294D01*
X295562Y145705D01*
X294973Y145705D01*
X294089Y146589D01*
X295267Y144233D02*
X295856Y143644D01*
X295562Y143938D01*
X297329Y145705D01*
X296740D01*
X298213Y144233D02*
X298802D01*
X299391Y143644D01*
Y143055D01*
X298213Y141876D01*
X297623D01*
X297034Y142466D01*
Y143055D01*
X298213Y144233D01*
X299685Y139815D02*
X298507Y140993D01*
X300863D01*
X301158Y141288D01*
Y141876D01*
X300569Y142466D01*
X299980D01*
X69083Y81166D02*
X67417D01*
X67001Y80750D01*
Y79917D01*
X67417Y79500D01*
X69083D01*
X69500Y79917D01*
Y80750D01*
X68667Y80333D02*
X69500Y81166D01*
Y80750D02*
X69083Y81166D01*
Y81999D02*
X69500Y82416D01*
Y83249D01*
X69083Y83665D01*
X67417D01*
X67001Y83249D01*
Y82416D01*
X67417Y81999D01*
X67834D01*
X68250Y82416D01*
Y83665D01*
X67417Y84498D02*
X67001Y84915D01*
Y85748D01*
X67417Y86164D01*
X69083D01*
X69500Y85748D01*
Y84915D01*
X69083Y84498D01*
X67417D01*
Y86998D02*
X67001Y87414D01*
Y88247D01*
X67417Y88664D01*
X69083D01*
X69500Y88247D01*
Y87414D01*
X69083Y86998D01*
X67417D01*
X279000Y192500D02*
Y194999D01*
X280250D01*
X280666Y194583D01*
Y193750D01*
X280250Y193333D01*
X279000D01*
X279833D02*
X280666Y192500D01*
X281499D02*
X282332D01*
X281916D01*
Y194999D01*
X281499Y194583D01*
X283582D02*
X283998Y194999D01*
X284831D01*
X285248Y194583D01*
Y192917D01*
X284831Y192500D01*
X283998D01*
X283582Y192917D01*
Y194583D01*
X286081D02*
X286498Y194999D01*
X287331D01*
X287747Y194583D01*
Y192917D01*
X287331Y192500D01*
X286498D01*
X286081Y192917D01*
Y194583D01*
X233600Y220900D02*
Y223399D01*
X234850D01*
X235266Y222983D01*
Y222150D01*
X234850Y221733D01*
X233600D01*
X234433D02*
X235266Y220900D01*
X236099D02*
X236932D01*
X236516D01*
Y223399D01*
X236099Y222983D01*
X238182D02*
X238598Y223399D01*
X239431D01*
X239848Y222983D01*
Y221317D01*
X239431Y220900D01*
X238598D01*
X238182Y221317D01*
Y222983D01*
X240681Y220900D02*
X241514D01*
X241098D01*
Y223399D01*
X240681Y222983D01*
X250300Y219500D02*
Y221999D01*
X251550D01*
X251966Y221583D01*
Y220750D01*
X251550Y220333D01*
X250300D01*
X251133D02*
X251966Y219500D01*
X252799D02*
X253632D01*
X253216D01*
Y221999D01*
X252799Y221583D01*
X254882D02*
X255298Y221999D01*
X256131D01*
X256548Y221583D01*
Y219917D01*
X256131Y219500D01*
X255298D01*
X254882Y219917D01*
Y221583D01*
X257381D02*
X257798Y221999D01*
X258631D01*
X259047Y221583D01*
Y221166D01*
X258631Y220750D01*
X258214D01*
X258631D01*
X259047Y220333D01*
Y219917D01*
X258631Y219500D01*
X257798D01*
X257381Y219917D01*
X263500Y198000D02*
X261001D01*
Y199250D01*
X261417Y199666D01*
X262250D01*
X262667Y199250D01*
Y198000D01*
Y198833D02*
X263500Y199666D01*
Y200499D02*
Y201332D01*
Y200916D01*
X261001D01*
X261417Y200499D01*
Y202582D02*
X261001Y202998D01*
Y203831D01*
X261417Y204248D01*
X263084D01*
X263500Y203831D01*
Y202998D01*
X263084Y202582D01*
X261417D01*
X263500Y206331D02*
X261001D01*
X262250Y205081D01*
Y206747D01*
X278000Y171500D02*
Y173999D01*
X279250D01*
X279666Y173583D01*
Y172750D01*
X279250Y172333D01*
X278000D01*
X278833D02*
X279666Y171500D01*
X280499D02*
X281332D01*
X280916D01*
Y173999D01*
X280499Y173583D01*
X282582D02*
X282998Y173999D01*
X283831D01*
X284248Y173583D01*
Y171916D01*
X283831Y171500D01*
X282998D01*
X282582Y171916D01*
Y173583D01*
X285081Y173999D02*
X286747D01*
Y173583D01*
X285081Y171916D01*
Y171500D01*
X247500Y212000D02*
Y214499D01*
X248750D01*
X249166Y214083D01*
Y213250D01*
X248750Y212833D01*
X247500D01*
X248333D02*
X249166Y212000D01*
X249999D02*
X250832D01*
X250416D01*
Y214499D01*
X249999Y214083D01*
X252082D02*
X252498Y214499D01*
X253331D01*
X253748Y214083D01*
Y212417D01*
X253331Y212000D01*
X252498D01*
X252082Y212417D01*
Y214083D01*
X254581Y212417D02*
X254998Y212000D01*
X255831D01*
X256247Y212417D01*
Y214083D01*
X255831Y214499D01*
X254998D01*
X254581Y214083D01*
Y213666D01*
X254998Y213250D01*
X256247D01*
X189500Y136000D02*
X187001D01*
Y137250D01*
X187417Y137666D01*
X188250D01*
X188667Y137250D01*
Y136000D01*
Y136833D02*
X189500Y137666D01*
Y138499D02*
Y139332D01*
Y138916D01*
X187001D01*
X187417Y138499D01*
X189500Y140582D02*
Y141415D01*
Y140998D01*
X187001D01*
X187417Y140582D01*
Y142665D02*
X187001Y143081D01*
Y143914D01*
X187417Y144331D01*
X189084D01*
X189500Y143914D01*
Y143081D01*
X189084Y142665D01*
X187417D01*
X316500Y153000D02*
X318267Y154767D01*
X319151Y153884D01*
Y153295D01*
X318562Y152706D01*
X317973Y152706D01*
X317089Y153589D01*
X317678Y153000D02*
X317678Y151822D01*
X318267Y151233D02*
X318856Y150644D01*
X318562Y150938D01*
X320329Y152706D01*
X319740D01*
Y149760D02*
X320329Y149171D01*
X320034Y149466D01*
X321802Y151233D01*
X321213D01*
X322391Y147109D02*
X321213Y148287D01*
X323569D01*
X323863Y148582D01*
Y149171D01*
X323274Y149760D01*
X322685D01*
X305400Y168300D02*
X307899D01*
Y167050D01*
X307483Y166634D01*
X306650D01*
X306233Y167050D01*
Y168300D01*
Y167467D02*
X305400Y166634D01*
Y165801D02*
Y164968D01*
Y165384D01*
X307899D01*
X307483Y165801D01*
X305400Y163718D02*
Y162885D01*
Y163302D01*
X307899D01*
X307483Y163718D01*
Y161635D02*
X307899Y161219D01*
Y160386D01*
X307483Y159969D01*
X307066D01*
X306650Y160386D01*
Y160802D01*
Y160386D01*
X306233Y159969D01*
X305817D01*
X305400Y160386D01*
Y161219D01*
X305817Y161635D01*
X311700Y187800D02*
X314199D01*
Y186550D01*
X313783Y186134D01*
X312950D01*
X312533Y186550D01*
Y187800D01*
Y186967D02*
X311700Y186134D01*
Y185301D02*
Y184468D01*
Y184884D01*
X314199D01*
X313783Y185301D01*
X311700Y183218D02*
Y182385D01*
Y182802D01*
X314199D01*
X313783Y183218D01*
X311700Y179886D02*
X314199D01*
X312950Y181135D01*
Y179469D01*
X319500Y81000D02*
X321267Y79233D01*
X320384Y78349D01*
X319795D01*
X319205Y78938D01*
X319205Y79527D01*
X320089Y80411D01*
X319500Y79822D02*
X318322Y79822D01*
X316555Y78055D02*
X317733Y79233D01*
Y76876D01*
X318027Y76582D01*
X318616D01*
X319205Y77171D01*
Y77760D01*
X317438Y75993D02*
Y75404D01*
X316849Y74815D01*
X316260D01*
X315082Y75993D01*
Y76582D01*
X315671Y77171D01*
X316260D01*
X317438Y75993D01*
X314198Y75698D02*
X313609Y75109D01*
X313904Y75404D01*
X315671Y73637D01*
Y74226D01*
X265000Y119500D02*
X263233Y121267D01*
X264116Y122151D01*
X264705D01*
X265295Y121562D01*
X265295Y120973D01*
X264411Y120089D01*
X265000Y120678D02*
X266178Y120678D01*
X267945Y122445D02*
X266767Y121267D01*
Y123624D01*
X266473Y123918D01*
X265884D01*
X265295Y123329D01*
Y122740D01*
X267062Y124507D02*
Y125096D01*
X267651Y125685D01*
X268240D01*
X269418Y124507D01*
Y123918D01*
X268829Y123329D01*
X268240D01*
X267062Y124507D01*
X271480Y125980D02*
X270302Y124802D01*
Y127158D01*
X270007Y127452D01*
X269418D01*
X268829Y126863D01*
Y126274D01*
X272000Y133000D02*
X273767Y134767D01*
X274651Y133884D01*
Y133294D01*
X274062Y132705D01*
X273473Y132705D01*
X272589Y133589D01*
X273178Y133000D02*
X273178Y131822D01*
X274945Y130055D02*
X273767Y131233D01*
X276123D01*
X276418Y131527D01*
Y132116D01*
X275829Y132705D01*
X275240D01*
X277007Y130938D02*
X277596D01*
X278185Y130349D01*
Y129760D01*
X277007Y128582D01*
X276418D01*
X275829Y129171D01*
Y129760D01*
X277007Y130938D01*
X278185Y126815D02*
X279952Y128582D01*
X278185Y128582D01*
X279363Y127404D01*
X228264Y36661D02*
Y39161D01*
X229513D01*
X229930Y38744D01*
Y37911D01*
X229513Y37495D01*
X228264D01*
X229097D02*
X229930Y36661D01*
X232429D02*
X230763D01*
X232429Y38328D01*
Y38744D01*
X232013Y39161D01*
X231179D01*
X230763Y38744D01*
X233262D02*
X233679Y39161D01*
X234512D01*
X234928Y38744D01*
Y37078D01*
X234512Y36661D01*
X233679D01*
X233262Y37078D01*
Y38744D01*
X237427Y39161D02*
X235761D01*
Y37911D01*
X236594Y38328D01*
X237011D01*
X237427Y37911D01*
Y37078D01*
X237011Y36661D01*
X236178D01*
X235761Y37078D01*
X227000Y70500D02*
Y72999D01*
X228250D01*
X228666Y72583D01*
Y71750D01*
X228250Y71333D01*
X227000D01*
X227833D02*
X228666Y70500D01*
X231165D02*
X229499D01*
X231165Y72166D01*
Y72583D01*
X230749Y72999D01*
X229916D01*
X229499Y72583D01*
X231998D02*
X232415Y72999D01*
X233248D01*
X233664Y72583D01*
Y70916D01*
X233248Y70500D01*
X232415D01*
X231998Y70916D01*
Y72583D01*
X236164Y72999D02*
X235331Y72583D01*
X234498Y71750D01*
Y70916D01*
X234914Y70500D01*
X235747D01*
X236164Y70916D01*
Y71333D01*
X235747Y71750D01*
X234498D01*
X247500Y107000D02*
X245001D01*
Y108250D01*
X245417Y108666D01*
X246250D01*
X246667Y108250D01*
Y107000D01*
Y107833D02*
X247500Y108666D01*
Y111165D02*
Y109499D01*
X245834Y111165D01*
X245417D01*
X245001Y110749D01*
Y109916D01*
X245417Y109499D01*
Y111998D02*
X245001Y112415D01*
Y113248D01*
X245417Y113664D01*
X247083D01*
X247500Y113248D01*
Y112415D01*
X247083Y111998D01*
X245417D01*
X245001Y114498D02*
Y116164D01*
X245417D01*
X247083Y114498D01*
X247500D01*
X252500Y121500D02*
Y123999D01*
X253750D01*
X254166Y123583D01*
Y122750D01*
X253750Y122333D01*
X252500D01*
X253333D02*
X254166Y121500D01*
X256665D02*
X254999D01*
X256665Y123166D01*
Y123583D01*
X256249Y123999D01*
X255416D01*
X254999Y123583D01*
X257498D02*
X257915Y123999D01*
X258748D01*
X259165Y123583D01*
Y121916D01*
X258748Y121500D01*
X257915D01*
X257498Y121916D01*
Y123583D01*
X259998D02*
X260414Y123999D01*
X261247D01*
X261664Y123583D01*
Y123166D01*
X261247Y122750D01*
X261664Y122333D01*
Y121916D01*
X261247Y121500D01*
X260414D01*
X259998Y121916D01*
Y122333D01*
X260414Y122750D01*
X259998Y123166D01*
Y123583D01*
X260414Y122750D02*
X261247D01*
X275000Y151500D02*
X276767Y153267D01*
X277651Y152384D01*
Y151795D01*
X277062Y151206D01*
X276473Y151206D01*
X275589Y152089D01*
X276178Y151500D02*
X276178Y150322D01*
X277945Y148555D02*
X276767Y149733D01*
X279123D01*
X279418Y150027D01*
Y150616D01*
X278829Y151206D01*
X278240D01*
X280007Y149438D02*
X280596D01*
X281185Y148849D01*
Y148260D01*
X280007Y147082D01*
X279418D01*
X278829Y147671D01*
Y148260D01*
X280007Y149438D01*
X280596Y146493D02*
Y145904D01*
X281185Y145315D01*
X281774D01*
X282952Y146493D01*
Y147082D01*
X282363Y147671D01*
X281774D01*
X281480Y147377D01*
Y146788D01*
X282363Y145904D01*
X269000Y161500D02*
X270767Y163267D01*
X271651Y162384D01*
Y161794D01*
X271062Y161205D01*
X270473Y161205D01*
X269589Y162089D01*
X270178Y161500D02*
X270178Y160322D01*
X271945Y158555D02*
X270767Y159733D01*
X273124D01*
X273418Y160027D01*
Y160616D01*
X272829Y161205D01*
X272240D01*
X272534Y157966D02*
X273124Y157377D01*
X272829Y157671D01*
X274596Y159438D01*
X274007D01*
X275480Y157966D02*
X276069D01*
X276658Y157377D01*
Y156788D01*
X275480Y155609D01*
X274891D01*
X274302Y156198D01*
Y156788D01*
X275480Y157966D01*
X95500Y50000D02*
Y52499D01*
X96750D01*
X97166Y52083D01*
Y51250D01*
X96750Y50833D01*
X95500D01*
X96333D02*
X97166Y50000D01*
X99249D02*
Y52499D01*
X97999Y51250D01*
X99665D01*
X100498Y52083D02*
X100915Y52499D01*
X101748D01*
X102164Y52083D01*
Y50416D01*
X101748Y50000D01*
X100915D01*
X100498Y50416D01*
Y52083D01*
X102998D02*
X103414Y52499D01*
X104247D01*
X104664Y52083D01*
Y51666D01*
X104247Y51250D01*
X103831D01*
X104247D01*
X104664Y50833D01*
Y50416D01*
X104247Y50000D01*
X103414D01*
X102998Y50416D01*
X120500Y53500D02*
X122999D01*
Y52250D01*
X122583Y51834D01*
X121750D01*
X121333Y52250D01*
Y53500D01*
Y52667D02*
X120500Y51834D01*
Y49751D02*
X122999D01*
X121750Y51001D01*
Y49335D01*
X122583Y48502D02*
X122999Y48085D01*
Y47252D01*
X122583Y46836D01*
X120916D01*
X120500Y47252D01*
Y48085D01*
X120916Y48502D01*
X122583D01*
X120500Y44753D02*
X122999D01*
X121750Y46002D01*
Y44336D01*
X107000Y53000D02*
X104501D01*
Y54250D01*
X104917Y54666D01*
X105750D01*
X106167Y54250D01*
Y53000D01*
Y53833D02*
X107000Y54666D01*
Y56749D02*
X104501D01*
X105750Y55499D01*
Y57165D01*
X104917Y57998D02*
X104501Y58415D01*
Y59248D01*
X104917Y59664D01*
X106583D01*
X107000Y59248D01*
Y58415D01*
X106583Y57998D01*
X104917D01*
X104501Y62164D02*
Y60498D01*
X105750D01*
X105334Y61331D01*
Y61747D01*
X105750Y62164D01*
X106583D01*
X107000Y61747D01*
Y60914D01*
X106583Y60498D01*
X144500Y119193D02*
X142001D01*
Y120442D01*
X142417Y120859D01*
X143250D01*
X143667Y120442D01*
Y119193D01*
Y120026D02*
X144500Y120859D01*
X142001Y123358D02*
Y121692D01*
X143250D01*
X142834Y122525D01*
Y122942D01*
X143250Y123358D01*
X144083D01*
X144500Y122942D01*
Y122109D01*
X144083Y121692D01*
X142417Y124191D02*
X142001Y124608D01*
Y125441D01*
X142417Y125857D01*
X144083D01*
X144500Y125441D01*
Y124608D01*
X144083Y124191D01*
X142417D01*
Y126690D02*
X142001Y127107D01*
Y127940D01*
X142417Y128357D01*
X144083D01*
X144500Y127940D01*
Y127107D01*
X144083Y126690D01*
X142417D01*
X123000Y107000D02*
X125499D01*
Y105750D01*
X125083Y105334D01*
X124250D01*
X123833Y105750D01*
Y107000D01*
Y106167D02*
X123000Y105334D01*
X125499Y102835D02*
Y104501D01*
X124250D01*
X124666Y103668D01*
Y103251D01*
X124250Y102835D01*
X123416D01*
X123000Y103251D01*
Y104084D01*
X123416Y104501D01*
X125083Y102002D02*
X125499Y101585D01*
Y100752D01*
X125083Y100336D01*
X123416D01*
X123000Y100752D01*
Y101585D01*
X123416Y102002D01*
X125083D01*
X123000Y98253D02*
X125499D01*
X124250Y99502D01*
Y97836D01*
X116600Y157600D02*
X119099D01*
Y156350D01*
X118683Y155934D01*
X117850D01*
X117433Y156350D01*
Y157600D01*
Y156767D02*
X116600Y155934D01*
X119099Y153435D02*
Y155101D01*
X117850D01*
X118266Y154268D01*
Y153851D01*
X117850Y153435D01*
X117016D01*
X116600Y153851D01*
Y154684D01*
X117016Y155101D01*
X118683Y152602D02*
X119099Y152185D01*
Y151352D01*
X118683Y150935D01*
X117016D01*
X116600Y151352D01*
Y152185D01*
X117016Y152602D01*
X118683D01*
X119099Y150102D02*
Y148436D01*
X118683D01*
X117016Y150102D01*
X116600D01*
X100500Y154000D02*
X98001D01*
Y155250D01*
X98417Y155666D01*
X99250D01*
X99667Y155250D01*
Y154000D01*
Y154833D02*
X100500Y155666D01*
X98001Y158165D02*
Y156499D01*
X99250D01*
X98834Y157332D01*
Y157749D01*
X99250Y158165D01*
X100083D01*
X100500Y157749D01*
Y156916D01*
X100083Y156499D01*
X100500Y158998D02*
Y159831D01*
Y159415D01*
X98001D01*
X98417Y158998D01*
Y161081D02*
X98001Y161498D01*
Y162331D01*
X98417Y162747D01*
X100083D01*
X100500Y162331D01*
Y161498D01*
X100083Y161081D01*
X98417D01*
X282500Y210000D02*
Y212499D01*
X283750D01*
X284166Y212083D01*
Y211250D01*
X283750Y210833D01*
X282500D01*
X283333D02*
X284166Y210000D01*
X286665Y212499D02*
X285832Y212083D01*
X284999Y211250D01*
Y210417D01*
X285416Y210000D01*
X286249D01*
X286665Y210417D01*
Y210833D01*
X286249Y211250D01*
X284999D01*
X287498Y212083D02*
X287915Y212499D01*
X288748D01*
X289164Y212083D01*
Y210417D01*
X288748Y210000D01*
X287915D01*
X287498Y210417D01*
Y212083D01*
X289998D02*
X290414Y212499D01*
X291247D01*
X291664Y212083D01*
Y210417D01*
X291247Y210000D01*
X290414D01*
X289998Y210417D01*
Y212083D01*
X293000Y221500D02*
X295499D01*
Y220250D01*
X295083Y219834D01*
X294250D01*
X293833Y220250D01*
Y221500D01*
Y220667D02*
X293000Y219834D01*
X295499Y217335D02*
X295083Y218168D01*
X294250Y219001D01*
X293417D01*
X293000Y218584D01*
Y217751D01*
X293417Y217335D01*
X293833D01*
X294250Y217751D01*
Y219001D01*
X295083Y216502D02*
X295499Y216085D01*
Y215252D01*
X295083Y214836D01*
X293417D01*
X293000Y215252D01*
Y216085D01*
X293417Y216502D01*
X295083D01*
X293000Y214002D02*
Y213169D01*
Y213586D01*
X295499D01*
X295083Y214002D01*
X268000Y206100D02*
Y208599D01*
X269250D01*
X269666Y208183D01*
Y207350D01*
X269250Y206933D01*
X268000D01*
X268833D02*
X269666Y206100D01*
X272165Y208599D02*
X271332Y208183D01*
X270499Y207350D01*
Y206517D01*
X270916Y206100D01*
X271749D01*
X272165Y206517D01*
Y206933D01*
X271749Y207350D01*
X270499D01*
X272998Y208183D02*
X273415Y208599D01*
X274248D01*
X274664Y208183D01*
Y206517D01*
X274248Y206100D01*
X273415D01*
X272998Y206517D01*
Y208183D01*
X277164Y206100D02*
X275498D01*
X277164Y207766D01*
Y208183D01*
X276747Y208599D01*
X275914D01*
X275498Y208183D01*
X277165Y201181D02*
Y203680D01*
X278415D01*
X278832Y203264D01*
Y202431D01*
X278415Y202014D01*
X277165D01*
X277998D02*
X278832Y201181D01*
X281331Y203680D02*
X280498Y203264D01*
X279664Y202431D01*
Y201598D01*
X280081Y201181D01*
X280914D01*
X281331Y201598D01*
Y202014D01*
X280914Y202431D01*
X279664D01*
X282164Y203264D02*
X282580Y203680D01*
X283413D01*
X283830Y203264D01*
Y201598D01*
X283413Y201181D01*
X282580D01*
X282164Y201598D01*
Y203264D01*
X284663D02*
X285079Y203680D01*
X285912D01*
X286329Y203264D01*
Y202847D01*
X285912Y202431D01*
X285496D01*
X285912D01*
X286329Y202014D01*
Y201598D01*
X285912Y201181D01*
X285079D01*
X284663Y201598D01*
X126600Y61700D02*
Y64199D01*
X127850D01*
X128266Y63783D01*
Y62950D01*
X127850Y62533D01*
X126600D01*
X127433D02*
X128266Y61700D01*
X130765Y64199D02*
X129932Y63783D01*
X129099Y62950D01*
Y62116D01*
X129516Y61700D01*
X130349D01*
X130765Y62116D01*
Y62533D01*
X130349Y62950D01*
X129099D01*
X131598Y63783D02*
X132015Y64199D01*
X132848D01*
X133265Y63783D01*
Y62116D01*
X132848Y61700D01*
X132015D01*
X131598Y62116D01*
Y63783D01*
X135764Y64199D02*
X134098D01*
Y62950D01*
X134931Y63366D01*
X135347D01*
X135764Y62950D01*
Y62116D01*
X135347Y61700D01*
X134514D01*
X134098Y62116D01*
X115100Y61700D02*
Y64199D01*
X116350D01*
X116766Y63783D01*
Y62950D01*
X116350Y62533D01*
X115100D01*
X115933D02*
X116766Y61700D01*
X119265Y64199D02*
X118432Y63783D01*
X117599Y62950D01*
Y62116D01*
X118016Y61700D01*
X118849D01*
X119265Y62116D01*
Y62533D01*
X118849Y62950D01*
X117599D01*
X120098Y63783D02*
X120515Y64199D01*
X121348D01*
X121765Y63783D01*
Y62116D01*
X121348Y61700D01*
X120515D01*
X120098Y62116D01*
Y63783D01*
X124264Y64199D02*
X123431Y63783D01*
X122598Y62950D01*
Y62116D01*
X123014Y61700D01*
X123847D01*
X124264Y62116D01*
Y62533D01*
X123847Y62950D01*
X122598D01*
X34500Y92500D02*
Y94999D01*
X35750D01*
X36166Y94583D01*
Y93750D01*
X35750Y93333D01*
X34500D01*
X35333D02*
X36166Y92500D01*
X38665Y94999D02*
X37832Y94583D01*
X36999Y93750D01*
Y92917D01*
X37416Y92500D01*
X38249D01*
X38665Y92917D01*
Y93333D01*
X38249Y93750D01*
X36999D01*
X39498Y94583D02*
X39915Y94999D01*
X40748D01*
X41164Y94583D01*
Y92917D01*
X40748Y92500D01*
X39915D01*
X39498Y92917D01*
Y94583D01*
X41998Y92917D02*
X42414Y92500D01*
X43247D01*
X43664Y92917D01*
Y94583D01*
X43247Y94999D01*
X42414D01*
X41998Y94583D01*
Y94166D01*
X42414Y93750D01*
X43664D01*
X30397Y40268D02*
Y42767D01*
X31646D01*
X32063Y42350D01*
Y41517D01*
X31646Y41101D01*
X30397D01*
X31230D02*
X32063Y40268D01*
X32896Y42767D02*
X34562D01*
Y42350D01*
X32896Y40684D01*
Y40268D01*
X35395Y42350D02*
X35812Y42767D01*
X36645D01*
X37061Y42350D01*
Y40684D01*
X36645Y40268D01*
X35812D01*
X35395Y40684D01*
Y42350D01*
X37894D02*
X38311Y42767D01*
X39144D01*
X39561Y42350D01*
Y40684D01*
X39144Y40268D01*
X38311D01*
X37894Y40684D01*
Y42350D01*
X55500Y135000D02*
X53001D01*
Y136250D01*
X53417Y136666D01*
X54250D01*
X54667Y136250D01*
Y135000D01*
Y135833D02*
X55500Y136666D01*
X55084Y137499D02*
X55500Y137916D01*
Y138749D01*
X55084Y139165D01*
X53417D01*
X53001Y138749D01*
Y137916D01*
X53417Y137499D01*
X53834D01*
X54250Y137916D01*
Y139165D01*
X53417Y139998D02*
X53001Y140415D01*
Y141248D01*
X53417Y141665D01*
X55084D01*
X55500Y141248D01*
Y140415D01*
X55084Y139998D01*
X53417D01*
X55500Y144164D02*
Y142498D01*
X53834Y144164D01*
X53417D01*
X53001Y143747D01*
Y142914D01*
X53417Y142498D01*
X87000Y86500D02*
Y88999D01*
X88250D01*
X88666Y88583D01*
Y87750D01*
X88250Y87333D01*
X87000D01*
X87833D02*
X88666Y86500D01*
X89499Y86917D02*
X89916Y86500D01*
X90749D01*
X91165Y86917D01*
Y88583D01*
X90749Y88999D01*
X89916D01*
X89499Y88583D01*
Y88166D01*
X89916Y87750D01*
X91165D01*
X91998Y88583D02*
X92415Y88999D01*
X93248D01*
X93664Y88583D01*
Y86917D01*
X93248Y86500D01*
X92415D01*
X91998Y86917D01*
Y88583D01*
X95747Y86500D02*
Y88999D01*
X94498Y87750D01*
X96164D01*
X12000Y55000D02*
Y57499D01*
X13250D01*
X13666Y57083D01*
Y56250D01*
X13250Y55833D01*
X12000D01*
X12833D02*
X13666Y55000D01*
X14499Y55417D02*
X14916Y55000D01*
X15749D01*
X16165Y55417D01*
Y57083D01*
X15749Y57499D01*
X14916D01*
X14499Y57083D01*
Y56666D01*
X14916Y56250D01*
X16165D01*
X16998Y57083D02*
X17415Y57499D01*
X18248D01*
X18665Y57083D01*
Y55417D01*
X18248Y55000D01*
X17415D01*
X16998Y55417D01*
Y57083D01*
X19498Y57499D02*
X21164D01*
Y57083D01*
X19498Y55417D01*
Y55000D01*
X1500Y61000D02*
X-999D01*
Y62250D01*
X-583Y62666D01*
X250D01*
X667Y62250D01*
Y61000D01*
Y61833D02*
X1500Y62666D01*
X1084Y63499D02*
X1500Y63916D01*
Y64749D01*
X1084Y65165D01*
X-583D01*
X-999Y64749D01*
Y63916D01*
X-583Y63499D01*
X-166D01*
X250Y63916D01*
Y65165D01*
X-583Y65998D02*
X-999Y66415D01*
Y67248D01*
X-583Y67664D01*
X1084D01*
X1500Y67248D01*
Y66415D01*
X1084Y65998D01*
X-583D01*
Y68498D02*
X-999Y68914D01*
Y69747D01*
X-583Y70164D01*
X-166D01*
X250Y69747D01*
X667Y70164D01*
X1084D01*
X1500Y69747D01*
Y68914D01*
X1084Y68498D01*
X667D01*
X250Y68914D01*
X-166Y68498D01*
X-583D01*
X250Y68914D02*
Y69747D01*
X268500Y158000D02*
X270999D01*
Y156750D01*
X270583Y156334D01*
X269750D01*
X269333Y156750D01*
Y158000D01*
Y157167D02*
X268500Y156334D01*
Y155501D02*
X270999D01*
Y154251D01*
X270583Y153835D01*
X269750D01*
X269333Y154251D01*
Y155501D01*
X268500Y151336D02*
Y153002D01*
X270166Y151336D01*
X270583D01*
X270999Y151752D01*
Y152585D01*
X270583Y153002D01*
Y150502D02*
X270999Y150086D01*
Y149253D01*
X270583Y148836D01*
X268917D01*
X268500Y149253D01*
Y150086D01*
X268917Y150502D01*
X270583D01*
Y148003D02*
X270999Y147587D01*
Y146754D01*
X270583Y146337D01*
X268917D01*
X268500Y146754D01*
Y147587D01*
X268917Y148003D01*
X270583D01*
X268500Y143000D02*
X270999D01*
Y141750D01*
X270583Y141334D01*
X269750D01*
X269333Y141750D01*
Y143000D01*
Y142167D02*
X268500Y141334D01*
Y140501D02*
X270999D01*
Y139251D01*
X270583Y138835D01*
X269750D01*
X269333Y139251D01*
Y140501D01*
X268500Y136336D02*
Y138002D01*
X270166Y136336D01*
X270583D01*
X270999Y136752D01*
Y137585D01*
X270583Y138002D01*
Y135502D02*
X270999Y135086D01*
Y134253D01*
X270583Y133836D01*
X268917D01*
X268500Y134253D01*
Y135086D01*
X268917Y135502D01*
X270583D01*
X268500Y133003D02*
Y132170D01*
Y132587D01*
X270999D01*
X270583Y133003D01*
X238500Y127500D02*
X236733Y129267D01*
X237616Y130151D01*
X238206D01*
X238794Y129562D01*
X238794Y128973D01*
X237911Y128089D01*
X238500Y128678D02*
X239678Y128678D01*
X240267Y129267D02*
X238500Y131034D01*
X239384Y131918D01*
X239973D01*
X240562Y131329D01*
Y130740D01*
X239678Y129856D01*
X243213Y132212D02*
X242034Y131034D01*
Y133391D01*
X241740Y133685D01*
X241151D01*
X240562Y133096D01*
Y132507D01*
X242329Y134274D02*
Y134863D01*
X242918Y135452D01*
X243507D01*
X244685Y134274D01*
Y133685D01*
X244096Y133096D01*
X243507D01*
X242329Y134274D01*
X246747Y135747D02*
X245569Y134569D01*
Y136925D01*
X245274Y137220D01*
X244685D01*
X244096Y136630D01*
Y136041D01*
X224500Y122000D02*
Y124499D01*
X225750D01*
X226166Y124083D01*
Y123250D01*
X225750Y122833D01*
X224500D01*
X225333D02*
X226166Y122000D01*
X226999D02*
Y124499D01*
X228249D01*
X228665Y124083D01*
Y123250D01*
X228249Y122833D01*
X226999D01*
X231165Y122000D02*
X229498D01*
X231165Y123666D01*
Y124083D01*
X230748Y124499D01*
X229915D01*
X229498Y124083D01*
X231998D02*
X232414Y124499D01*
X233247D01*
X233664Y124083D01*
Y122416D01*
X233247Y122000D01*
X232414D01*
X231998Y122416D01*
Y124083D01*
X234497D02*
X234913Y124499D01*
X235746D01*
X236163Y124083D01*
Y123666D01*
X235746Y123250D01*
X235330D01*
X235746D01*
X236163Y122833D01*
Y122416D01*
X235746Y122000D01*
X234913D01*
X234497Y122416D01*
X207500Y122000D02*
Y124499D01*
X208750D01*
X209166Y124083D01*
Y123250D01*
X208750Y122833D01*
X207500D01*
X208333D02*
X209166Y122000D01*
X209999D02*
Y124499D01*
X211249D01*
X211665Y124083D01*
Y123250D01*
X211249Y122833D01*
X209999D01*
X214164Y122000D02*
X212498D01*
X214164Y123666D01*
Y124083D01*
X213748Y124499D01*
X212915D01*
X212498Y124083D01*
X214998D02*
X215414Y124499D01*
X216247D01*
X216664Y124083D01*
Y122416D01*
X216247Y122000D01*
X215414D01*
X214998Y122416D01*
Y124083D01*
X218746Y122000D02*
Y124499D01*
X217497Y123250D01*
X219163D01*
X289166Y225583D02*
X288750Y225999D01*
X287916D01*
X287500Y225583D01*
Y225166D01*
X287916Y224750D01*
X288750D01*
X289166Y224333D01*
Y223917D01*
X288750Y223500D01*
X287916D01*
X287500Y223917D01*
X291665Y225999D02*
X290832Y225583D01*
X289999Y224750D01*
Y223917D01*
X290416Y223500D01*
X291249D01*
X291665Y223917D01*
Y224333D01*
X291249Y224750D01*
X289999D01*
X292498Y225583D02*
X292915Y225999D01*
X293748D01*
X294164Y225583D01*
Y223917D01*
X293748Y223500D01*
X292915D01*
X292498Y223917D01*
Y225583D01*
X294998D02*
X295414Y225999D01*
X296247D01*
X296664Y225583D01*
Y223917D01*
X296247Y223500D01*
X295414D01*
X294998Y223917D01*
Y225583D01*
X201500Y186999D02*
Y184916D01*
X201917Y184500D01*
X202750D01*
X203166Y184916D01*
Y186999D01*
X203999Y184500D02*
X204832D01*
X204416D01*
Y186999D01*
X203999Y186583D01*
X206082D02*
X206498Y186999D01*
X207331D01*
X207748Y186583D01*
Y184916D01*
X207331Y184500D01*
X206498D01*
X206082Y184916D01*
Y186583D01*
X208581D02*
X208998Y186999D01*
X209831D01*
X210247Y186583D01*
Y184916D01*
X209831Y184500D01*
X208998D01*
X208581Y184916D01*
Y186583D01*
X308767Y133267D02*
X307295Y131795D01*
Y131205D01*
X307884Y130616D01*
X308473D01*
X309945Y132089D01*
Y128555D02*
X308767Y129733D01*
X311123D01*
X311418Y130027D01*
Y130616D01*
X310829Y131205D01*
X310240D01*
X312007Y129438D02*
X312596D01*
X313185Y128849D01*
Y128260D01*
X312007Y127082D01*
X311418D01*
X310829Y127671D01*
Y128260D01*
X312007Y129438D01*
X313774Y127671D02*
X314363D01*
X314952Y127082D01*
Y126493D01*
X313774Y125315D01*
X313185D01*
X312596Y125904D01*
Y126493D01*
X313774Y127671D01*
X153000Y81999D02*
Y79917D01*
X153417Y79500D01*
X154250D01*
X154666Y79917D01*
Y81999D01*
X157165Y79500D02*
X155499D01*
X157165Y81166D01*
Y81583D01*
X156749Y81999D01*
X155916D01*
X155499Y81583D01*
X157998D02*
X158415Y81999D01*
X159248D01*
X159664Y81583D01*
Y79917D01*
X159248Y79500D01*
X158415D01*
X157998Y79917D01*
Y81583D01*
X160498Y79500D02*
X161331D01*
X160914D01*
Y81999D01*
X160498Y81583D01*
X106000Y46999D02*
Y44916D01*
X106416Y44500D01*
X107250D01*
X107666Y44916D01*
Y46999D01*
X109749Y44500D02*
Y46999D01*
X108499Y45750D01*
X110165D01*
X110998Y46583D02*
X111415Y46999D01*
X112248D01*
X112664Y46583D01*
Y44916D01*
X112248Y44500D01*
X111415D01*
X110998Y44916D01*
Y46583D01*
X113498D02*
X113914Y46999D01*
X114747D01*
X115164Y46583D01*
Y44916D01*
X114747Y44500D01*
X113914D01*
X113498Y44916D01*
Y46583D01*
X100001Y113000D02*
X102084D01*
X102500Y113417D01*
Y114250D01*
X102084Y114666D01*
X100001D01*
Y117165D02*
Y115499D01*
X101250D01*
X100834Y116332D01*
Y116749D01*
X101250Y117165D01*
X102084D01*
X102500Y116749D01*
Y115916D01*
X102084Y115499D01*
X100417Y117998D02*
X100001Y118415D01*
Y119248D01*
X100417Y119665D01*
X102084D01*
X102500Y119248D01*
Y118415D01*
X102084Y117998D01*
X100417D01*
Y120498D02*
X100001Y120914D01*
Y121747D01*
X100417Y122164D01*
X102084D01*
X102500Y121747D01*
Y120914D01*
X102084Y120498D01*
X100417D01*
X103100Y67699D02*
Y65617D01*
X103516Y65200D01*
X104350D01*
X104766Y65617D01*
Y67699D01*
X107265D02*
X106432Y67283D01*
X105599Y66450D01*
Y65617D01*
X106016Y65200D01*
X106849D01*
X107265Y65617D01*
Y66033D01*
X106849Y66450D01*
X105599D01*
X108098Y67283D02*
X108515Y67699D01*
X109348D01*
X109765Y67283D01*
Y65617D01*
X109348Y65200D01*
X108515D01*
X108098Y65617D01*
Y67283D01*
X110598Y65200D02*
X111431D01*
X111014D01*
Y67699D01*
X110598Y67283D01*
X11500Y77999D02*
Y75916D01*
X11917Y75500D01*
X12750D01*
X13166Y75916D01*
Y77999D01*
X13999Y75916D02*
X14416Y75500D01*
X15249D01*
X15665Y75916D01*
Y77583D01*
X15249Y77999D01*
X14416D01*
X13999Y77583D01*
Y77166D01*
X14416Y76750D01*
X15665D01*
X16498Y77583D02*
X16915Y77999D01*
X17748D01*
X18165Y77583D01*
Y75916D01*
X17748Y75500D01*
X16915D01*
X16498Y75916D01*
Y77583D01*
X18998Y75500D02*
X19831D01*
X19414D01*
Y77999D01*
X18998Y77583D01*
X220799Y214100D02*
X220383D01*
X219550Y213267D01*
X220383Y212434D01*
X220799D01*
X219550Y213267D02*
X218300D01*
Y211601D02*
Y210768D01*
Y211184D01*
X220799D01*
X220383Y211601D01*
Y209518D02*
X220799Y209102D01*
Y208269D01*
X220383Y207852D01*
X218717D01*
X218300Y208269D01*
Y209102D01*
X218717Y209518D01*
X220383D01*
Y207019D02*
X220799Y206602D01*
Y205769D01*
X220383Y205353D01*
X218717D01*
X218300Y205769D01*
Y206602D01*
X218717Y207019D01*
X220383D01*
X86000Y164499D02*
Y164083D01*
X86833Y163250D01*
X87666Y164083D01*
Y164499D01*
X86833Y163250D02*
Y162000D01*
X90165Y164499D02*
X88499D01*
Y163250D01*
X89332Y163666D01*
X89749D01*
X90165Y163250D01*
Y162417D01*
X89749Y162000D01*
X88916D01*
X88499Y162417D01*
X90998Y164083D02*
X91415Y164499D01*
X92248D01*
X92664Y164083D01*
Y162417D01*
X92248Y162000D01*
X91415D01*
X90998Y162417D01*
Y164083D01*
X93498D02*
X93914Y164499D01*
X94747D01*
X95164Y164083D01*
Y162417D01*
X94747Y162000D01*
X93914D01*
X93498Y162417D01*
Y164083D01*
X297666Y187183D02*
X297250Y187599D01*
X296416D01*
X296000Y187183D01*
Y185517D01*
X296416Y185100D01*
X297250D01*
X297666Y185517D01*
X300165Y187599D02*
X299332Y187183D01*
X298499Y186350D01*
Y185517D01*
X298916Y185100D01*
X299749D01*
X300165Y185517D01*
Y185933D01*
X299749Y186350D01*
X298499D01*
X300998Y185100D02*
X301831D01*
X301415D01*
Y187599D01*
X300998Y187183D01*
X303081D02*
X303498Y187599D01*
X304331D01*
X304747Y187183D01*
Y185517D01*
X304331Y185100D01*
X303498D01*
X303081Y185517D01*
Y187183D01*
X311166Y220583D02*
X310750Y220999D01*
X309916D01*
X309500Y220583D01*
Y218917D01*
X309916Y218500D01*
X310750D01*
X311166Y218917D01*
X313665Y220999D02*
X312832Y220583D01*
X311999Y219750D01*
Y218917D01*
X312416Y218500D01*
X313249D01*
X313665Y218917D01*
Y219333D01*
X313249Y219750D01*
X311999D01*
X314498Y218500D02*
X315331D01*
X314915D01*
Y220999D01*
X314498Y220583D01*
X316581Y218500D02*
X317414D01*
X316998D01*
Y220999D01*
X316581Y220583D01*
X322583Y190334D02*
X322999Y190750D01*
Y191584D01*
X322583Y192000D01*
X320917D01*
X320500Y191584D01*
Y190750D01*
X320917Y190334D01*
X322999Y187835D02*
X322583Y188668D01*
X321750Y189501D01*
X320917D01*
X320500Y189084D01*
Y188251D01*
X320917Y187835D01*
X321333D01*
X321750Y188251D01*
Y189501D01*
X320500Y187002D02*
Y186169D01*
Y186585D01*
X322999D01*
X322583Y187002D01*
X320500Y183253D02*
Y184919D01*
X322166Y183253D01*
X322583D01*
X322999Y183669D01*
Y184502D01*
X322583Y184919D01*
X237900Y211200D02*
X240399D01*
Y209950D01*
X239983Y209534D01*
X239150D01*
X238733Y209950D01*
Y211200D01*
Y210367D02*
X237900Y209534D01*
Y208701D02*
Y207868D01*
Y208284D01*
X240399D01*
X239983Y208701D01*
X237900Y206618D02*
Y205785D01*
Y206202D01*
X240399D01*
X239983Y206618D01*
X240399Y202869D02*
X239983Y203702D01*
X239150Y204536D01*
X238316D01*
X237900Y204119D01*
Y203286D01*
X238316Y202869D01*
X238733D01*
X239150Y203286D01*
Y204536D01*
X229500Y57500D02*
X227001D01*
Y58750D01*
X227417Y59166D01*
X228250D01*
X228667Y58750D01*
Y57500D01*
Y58333D02*
X229500Y59166D01*
Y61665D02*
Y59999D01*
X227834Y61665D01*
X227417D01*
X227001Y61249D01*
Y60416D01*
X227417Y59999D01*
Y62498D02*
X227001Y62915D01*
Y63748D01*
X227417Y64165D01*
X229083D01*
X229500Y63748D01*
Y62915D01*
X229083Y62498D01*
X227417D01*
Y64998D02*
X227001Y65414D01*
Y66247D01*
X227417Y66664D01*
X229083D01*
X229500Y66247D01*
Y65414D01*
X229083Y64998D01*
X227417D01*
X296700Y193300D02*
X294201D01*
Y194550D01*
X294617Y194966D01*
X295450D01*
X295867Y194550D01*
Y193300D01*
Y194133D02*
X296700Y194966D01*
X294201Y197465D02*
X294617Y196632D01*
X295450Y195799D01*
X296284D01*
X296700Y196216D01*
Y197049D01*
X296284Y197465D01*
X295867D01*
X295450Y197049D01*
Y195799D01*
X296700Y198298D02*
Y199131D01*
Y198715D01*
X294201D01*
X294617Y198298D01*
Y200381D02*
X294201Y200798D01*
Y201631D01*
X294617Y202047D01*
X296284D01*
X296700Y201631D01*
Y200798D01*
X296284Y200381D01*
X294617D01*
X298000Y220500D02*
X300499D01*
Y219250D01*
X300083Y218834D01*
X299250D01*
X298833Y219250D01*
Y220500D01*
Y219667D02*
X298000Y218834D01*
X300499Y216335D02*
X300083Y217168D01*
X299250Y218001D01*
X298416D01*
X298000Y217584D01*
Y216751D01*
X298416Y216335D01*
X298833D01*
X299250Y216751D01*
Y218001D01*
X298000Y215502D02*
Y214669D01*
Y215085D01*
X300499D01*
X300083Y215502D01*
X298000Y213419D02*
Y212586D01*
Y213002D01*
X300499D01*
X300083Y213419D01*
X302500Y220500D02*
X304999D01*
Y219250D01*
X304583Y218834D01*
X303750D01*
X303333Y219250D01*
Y220500D01*
Y219667D02*
X302500Y218834D01*
X304999Y216335D02*
X304583Y217168D01*
X303750Y218001D01*
X302917D01*
X302500Y217584D01*
Y216751D01*
X302917Y216335D01*
X303333D01*
X303750Y216751D01*
Y218001D01*
X302500Y215502D02*
Y214669D01*
Y215085D01*
X304999D01*
X304583Y215502D01*
X302500Y211753D02*
Y213419D01*
X304166Y211753D01*
X304583D01*
X304999Y212169D01*
Y213002D01*
X304583Y213419D01*
X306000Y194738D02*
X308499D01*
Y193488D01*
X308083Y193072D01*
X307250D01*
X306833Y193488D01*
Y194738D01*
Y193905D02*
X306000Y193072D01*
X308499Y190573D02*
X308083Y191405D01*
X307250Y192239D01*
X306417D01*
X306000Y191822D01*
Y190989D01*
X306417Y190573D01*
X306833D01*
X307250Y190989D01*
Y192239D01*
X306000Y189739D02*
Y188906D01*
Y189323D01*
X308499D01*
X308083Y189739D01*
Y187657D02*
X308499Y187240D01*
Y186407D01*
X308083Y185991D01*
X307666D01*
X307250Y186407D01*
Y186824D01*
Y186407D01*
X306833Y185991D01*
X306417D01*
X306000Y186407D01*
Y187240D01*
X306417Y187657D01*
X316500Y206500D02*
Y208999D01*
X317750D01*
X318166Y208583D01*
Y207750D01*
X317750Y207333D01*
X316500D01*
X317333D02*
X318166Y206500D01*
X320665Y208999D02*
X319832Y208583D01*
X318999Y207750D01*
Y206916D01*
X319416Y206500D01*
X320249D01*
X320665Y206916D01*
Y207333D01*
X320249Y207750D01*
X318999D01*
X321498Y206500D02*
X322331D01*
X321915D01*
Y208999D01*
X321498Y208583D01*
X324831Y206500D02*
Y208999D01*
X323581Y207750D01*
X325247D01*
X72000Y97500D02*
Y99999D01*
X73250D01*
X73666Y99583D01*
Y98750D01*
X73250Y98333D01*
X72000D01*
X72833D02*
X73666Y97500D01*
X74499Y97917D02*
X74916Y97500D01*
X75749D01*
X76165Y97917D01*
Y99583D01*
X75749Y99999D01*
X74916D01*
X74499Y99583D01*
Y99166D01*
X74916Y98750D01*
X76165D01*
X76998Y99583D02*
X77415Y99999D01*
X78248D01*
X78664Y99583D01*
Y97917D01*
X78248Y97500D01*
X77415D01*
X76998Y97917D01*
Y99583D01*
X79498Y97917D02*
X79914Y97500D01*
X80747D01*
X81164Y97917D01*
Y99583D01*
X80747Y99999D01*
X79914D01*
X79498Y99583D01*
Y99166D01*
X79914Y98750D01*
X81164D01*
X309800Y192499D02*
Y190417D01*
X310216Y190000D01*
X311050D01*
X311466Y190417D01*
Y192499D01*
X313965D02*
X313132Y192083D01*
X312299Y191250D01*
Y190417D01*
X312716Y190000D01*
X313549D01*
X313965Y190417D01*
Y190833D01*
X313549Y191250D01*
X312299D01*
X314798Y192083D02*
X315215Y192499D01*
X316048D01*
X316464Y192083D01*
Y190417D01*
X316048Y190000D01*
X315215D01*
X314798Y190417D01*
Y192083D01*
X317298D02*
X317714Y192499D01*
X318547D01*
X318964Y192083D01*
Y191666D01*
X318547Y191250D01*
X318131D01*
X318547D01*
X318964Y190833D01*
Y190417D01*
X318547Y190000D01*
X317714D01*
X317298Y190417D01*
X2000Y113500D02*
Y115999D01*
X3250D01*
X3666Y115583D01*
Y114750D01*
X3250Y114333D01*
X2000D01*
X6165Y115999D02*
X5332Y115583D01*
X4499Y114750D01*
Y113917D01*
X4916Y113500D01*
X5749D01*
X6165Y113917D01*
Y114333D01*
X5749Y114750D01*
X4499D01*
X6998Y115583D02*
X7415Y115999D01*
X8248D01*
X8664Y115583D01*
Y113917D01*
X8248Y113500D01*
X7415D01*
X6998Y113917D01*
Y115583D01*
X9498D02*
X9914Y115999D01*
X10747D01*
X11164Y115583D01*
Y113917D01*
X10747Y113500D01*
X9914D01*
X9498Y113917D01*
Y115583D01*
X67666Y75083D02*
X67250Y75499D01*
X66417D01*
X66000Y75083D01*
Y73417D01*
X66417Y73000D01*
X67250D01*
X67666Y73417D01*
X68499D02*
X68916Y73000D01*
X69749D01*
X70165Y73417D01*
Y75083D01*
X69749Y75499D01*
X68916D01*
X68499Y75083D01*
Y74666D01*
X68916Y74250D01*
X70165D01*
X70998Y75083D02*
X71415Y75499D01*
X72248D01*
X72664Y75083D01*
Y73417D01*
X72248Y73000D01*
X71415D01*
X70998Y73417D01*
Y75083D01*
X73498D02*
X73914Y75499D01*
X74747D01*
X75164Y75083D01*
Y73417D01*
X74747Y73000D01*
X73914D01*
X73498Y73417D01*
Y75083D01*
X67917Y58366D02*
X67501Y57950D01*
Y57117D01*
X67917Y56700D01*
X69583D01*
X70000Y57117D01*
Y57950D01*
X69583Y58366D01*
Y59199D02*
X70000Y59616D01*
Y60449D01*
X69583Y60865D01*
X67917D01*
X67501Y60449D01*
Y59616D01*
X67917Y59199D01*
X68334D01*
X68750Y59616D01*
Y60865D01*
X67917Y61698D02*
X67501Y62115D01*
Y62948D01*
X67917Y63364D01*
X69583D01*
X70000Y62948D01*
Y62115D01*
X69583Y61698D01*
X67917D01*
X70000Y64198D02*
Y65031D01*
Y64614D01*
X67501D01*
X67917Y64198D01*
X92083Y48834D02*
X92499Y49250D01*
Y50084D01*
X92083Y50500D01*
X90417D01*
X90000Y50084D01*
Y49250D01*
X90417Y48834D01*
Y48001D02*
X90000Y47584D01*
Y46751D01*
X90417Y46335D01*
X92083D01*
X92499Y46751D01*
Y47584D01*
X92083Y48001D01*
X91666D01*
X91250Y47584D01*
Y46335D01*
X92083Y45502D02*
X92499Y45085D01*
Y44252D01*
X92083Y43835D01*
X90417D01*
X90000Y44252D01*
Y45085D01*
X90417Y45502D01*
X92083D01*
X90000Y41336D02*
Y43002D01*
X91666Y41336D01*
X92083D01*
X92499Y41753D01*
Y42586D01*
X92083Y43002D01*
X98083Y79334D02*
X98499Y79750D01*
Y80584D01*
X98083Y81000D01*
X96416D01*
X96000Y80584D01*
Y79750D01*
X96416Y79334D01*
Y78501D02*
X96000Y78084D01*
Y77251D01*
X96416Y76835D01*
X98083D01*
X98499Y77251D01*
Y78084D01*
X98083Y78501D01*
X97666D01*
X97250Y78084D01*
Y76835D01*
X98083Y76002D02*
X98499Y75585D01*
Y74752D01*
X98083Y74335D01*
X96416D01*
X96000Y74752D01*
Y75585D01*
X96416Y76002D01*
X98083D01*
X96000Y72253D02*
X98499D01*
X97250Y73502D01*
Y71836D01*
X82000Y77000D02*
Y79499D01*
X83250D01*
X83666Y79083D01*
Y78250D01*
X83250Y77833D01*
X82000D01*
X82833D02*
X83666Y77000D01*
X84499Y77416D02*
X84916Y77000D01*
X85749D01*
X86165Y77416D01*
Y79083D01*
X85749Y79499D01*
X84916D01*
X84499Y79083D01*
Y78666D01*
X84916Y78250D01*
X86165D01*
X86998Y79083D02*
X87415Y79499D01*
X88248D01*
X88665Y79083D01*
Y77416D01*
X88248Y77000D01*
X87415D01*
X86998Y77416D01*
Y79083D01*
X91164Y79499D02*
X89498D01*
Y78250D01*
X90331Y78666D01*
X90747D01*
X91164Y78250D01*
Y77416D01*
X90747Y77000D01*
X89914D01*
X89498Y77416D01*
X96000Y69000D02*
X98499D01*
Y67750D01*
X98083Y67334D01*
X97250D01*
X96833Y67750D01*
Y69000D01*
Y68167D02*
X96000Y67334D01*
X96416Y66501D02*
X96000Y66084D01*
Y65251D01*
X96416Y64835D01*
X98083D01*
X98499Y65251D01*
Y66084D01*
X98083Y66501D01*
X97666D01*
X97250Y66084D01*
Y64835D01*
X98083Y64002D02*
X98499Y63585D01*
Y62752D01*
X98083Y62335D01*
X96416D01*
X96000Y62752D01*
Y63585D01*
X96416Y64002D01*
X98083D01*
X98499Y59836D02*
X98083Y60669D01*
X97250Y61502D01*
X96416D01*
X96000Y61086D01*
Y60253D01*
X96416Y59836D01*
X96833D01*
X97250Y60253D01*
Y61502D01*
X77500Y52999D02*
Y50916D01*
X77917Y50500D01*
X78750D01*
X79166Y50916D01*
Y52999D01*
X79999Y50916D02*
X80416Y50500D01*
X81249D01*
X81665Y50916D01*
Y52583D01*
X81249Y52999D01*
X80416D01*
X79999Y52583D01*
Y52166D01*
X80416Y51750D01*
X81665D01*
X82498Y52583D02*
X82915Y52999D01*
X83748D01*
X84165Y52583D01*
Y50916D01*
X83748Y50500D01*
X82915D01*
X82498Y50916D01*
Y52583D01*
X84998D02*
X85414Y52999D01*
X86247D01*
X86664Y52583D01*
Y50916D01*
X86247Y50500D01*
X85414D01*
X84998Y50916D01*
Y52583D01*
X301284Y179116D02*
X303783D01*
Y177867D01*
X303366Y177450D01*
X302533D01*
X302117Y177867D01*
Y179116D01*
Y178283D02*
X301284Y177450D01*
Y176617D02*
Y175784D01*
Y176201D01*
X303783D01*
X303366Y176617D01*
Y174535D02*
X303783Y174118D01*
Y173285D01*
X303366Y172869D01*
X301700D01*
X301284Y173285D01*
Y174118D01*
X301700Y174535D01*
X303366D01*
X303783Y170369D02*
X303366Y171202D01*
X302533Y172035D01*
X301700D01*
X301284Y171619D01*
Y170786D01*
X301700Y170369D01*
X302117D01*
X302533Y170786D01*
Y172035D01*
X200017Y221866D02*
X199601Y221450D01*
Y220617D01*
X200017Y220200D01*
X201683D01*
X202100Y220617D01*
Y221450D01*
X201683Y221866D01*
X199601Y224365D02*
Y222699D01*
X200850D01*
X200434Y223532D01*
Y223949D01*
X200850Y224365D01*
X201683D01*
X202100Y223949D01*
Y223116D01*
X201683Y222699D01*
X200017Y225198D02*
X199601Y225615D01*
Y226448D01*
X200017Y226865D01*
X201683D01*
X202100Y226448D01*
Y225615D01*
X201683Y225198D01*
X200017D01*
X201683Y227698D02*
X202100Y228114D01*
Y228947D01*
X201683Y229364D01*
X200017D01*
X199601Y228947D01*
Y228114D01*
X200017Y227698D01*
X200434D01*
X200850Y228114D01*
Y229364D01*
X178699Y127000D02*
X176617D01*
X176200Y126584D01*
Y125750D01*
X176617Y125334D01*
X178699D01*
Y122835D02*
X178283Y123668D01*
X177450Y124501D01*
X176617D01*
X176200Y124084D01*
Y123251D01*
X176617Y122835D01*
X177033D01*
X177450Y123251D01*
Y124501D01*
X178283Y122002D02*
X178699Y121585D01*
Y120752D01*
X178283Y120335D01*
X176617D01*
X176200Y120752D01*
Y121585D01*
X176617Y122002D01*
X178283D01*
X178699Y117836D02*
Y119502D01*
X177450D01*
X177866Y118669D01*
Y118253D01*
X177450Y117836D01*
X176617D01*
X176200Y118253D01*
Y119086D01*
X176617Y119502D01*
X144988Y182595D02*
Y185094D01*
X146238D01*
X146654Y184677D01*
Y183844D01*
X146238Y183428D01*
X144988D01*
X149153Y185094D02*
X147487D01*
Y183844D01*
X148320Y184261D01*
X148737D01*
X149153Y183844D01*
Y183011D01*
X148737Y182595D01*
X147904D01*
X147487Y183011D01*
X149987Y184677D02*
X150403Y185094D01*
X151236D01*
X151653Y184677D01*
Y183011D01*
X151236Y182595D01*
X150403D01*
X149987Y183011D01*
Y184677D01*
X152486Y182595D02*
X153319D01*
X152902D01*
Y185094D01*
X152486Y184677D01*
X115600Y225083D02*
Y227583D01*
X116850D01*
X117266Y227166D01*
Y226333D01*
X116850Y225917D01*
X115600D01*
X119765Y227583D02*
X118099D01*
Y226333D01*
X118932Y226750D01*
X119349D01*
X119765Y226333D01*
Y225500D01*
X119349Y225083D01*
X118516D01*
X118099Y225500D01*
X120598Y227166D02*
X121015Y227583D01*
X121848D01*
X122265Y227166D01*
Y225500D01*
X121848Y225083D01*
X121015D01*
X120598Y225500D01*
Y227166D01*
X123098D02*
X123514Y227583D01*
X124347D01*
X124764Y227166D01*
Y226750D01*
X124347Y226333D01*
X123931D01*
X124347D01*
X124764Y225917D01*
Y225500D01*
X124347Y225083D01*
X123514D01*
X123098Y225500D01*
X108700Y159700D02*
X106201D01*
Y160950D01*
X106617Y161366D01*
X107450D01*
X107867Y160950D01*
Y159700D01*
Y160533D02*
X108700Y161366D01*
X108283Y162199D02*
X108700Y162616D01*
Y163449D01*
X108283Y163865D01*
X106617D01*
X106201Y163449D01*
Y162616D01*
X106617Y162199D01*
X107034D01*
X107450Y162616D01*
Y163865D01*
X108700Y164698D02*
Y165531D01*
Y165115D01*
X106201D01*
X106617Y164698D01*
Y166781D02*
X106201Y167198D01*
Y168031D01*
X106617Y168447D01*
X107034D01*
X107450Y168031D01*
Y167614D01*
Y168031D01*
X107867Y168447D01*
X108283D01*
X108700Y168031D01*
Y167198D01*
X108283Y166781D01*
X126700Y162400D02*
X124201D01*
Y163650D01*
X124617Y164066D01*
X125450D01*
X125867Y163650D01*
Y162400D01*
Y163233D02*
X126700Y164066D01*
X126284Y164899D02*
X126700Y165316D01*
Y166149D01*
X126284Y166565D01*
X124617D01*
X124201Y166149D01*
Y165316D01*
X124617Y164899D01*
X125034D01*
X125450Y165316D01*
Y166565D01*
X126700Y167398D02*
Y168231D01*
Y167815D01*
X124201D01*
X124617Y167398D01*
X126700Y170731D02*
X124201D01*
X125450Y169481D01*
Y171147D01*
X112500Y172600D02*
X110001D01*
Y173850D01*
X110417Y174266D01*
X111250D01*
X111667Y173850D01*
Y172600D01*
Y173433D02*
X112500Y174266D01*
X110001Y176765D02*
Y175099D01*
X111250D01*
X110834Y175932D01*
Y176349D01*
X111250Y176765D01*
X112083D01*
X112500Y176349D01*
Y175516D01*
X112083Y175099D01*
X110417Y177598D02*
X110001Y178015D01*
Y178848D01*
X110417Y179264D01*
X112083D01*
X112500Y178848D01*
Y178015D01*
X112083Y177598D01*
X110417D01*
X112500Y181764D02*
Y180098D01*
X110834Y181764D01*
X110417D01*
X110001Y181347D01*
Y180514D01*
X110417Y180098D01*
X121900Y179400D02*
X119401D01*
Y180650D01*
X119817Y181066D01*
X120650D01*
X121067Y180650D01*
Y179400D01*
Y180233D02*
X121900Y181066D01*
X119401Y183565D02*
Y181899D01*
X120650D01*
X120234Y182732D01*
Y183149D01*
X120650Y183565D01*
X121484D01*
X121900Y183149D01*
Y182316D01*
X121484Y181899D01*
X119817Y184398D02*
X119401Y184815D01*
Y185648D01*
X119817Y186065D01*
X121484D01*
X121900Y185648D01*
Y184815D01*
X121484Y184398D01*
X119817D01*
X121900Y186898D02*
Y187731D01*
Y187314D01*
X119401D01*
X119817Y186898D01*
X328500Y225999D02*
X330499D01*
X329500D01*
Y223000D01*
X331499Y224999D02*
X333498Y223000D01*
X332499Y224000D01*
X333498Y224999D01*
X331499Y223000D01*
X320000D02*
Y225999D01*
X321499D01*
X321999Y225499D01*
Y224500D01*
X321499Y224000D01*
X320000D01*
X321000D02*
X321999Y223000D01*
X322999Y224999D02*
X324998Y223000D01*
X323999Y224000D01*
X324998Y224999D01*
X322999Y223000D01*
X300999Y225999D02*
X300500Y226499D01*
X299500D01*
X299000Y225999D01*
Y224000D01*
X299500Y223500D01*
X300500D01*
X300999Y224000D01*
Y224999D01*
X300000D01*
X301999Y223500D02*
Y226499D01*
X303998Y223500D01*
Y226499D01*
X304998D02*
Y223500D01*
X306498D01*
X306997Y224000D01*
Y225999D01*
X306498Y226499D01*
X304998D01*
X310500Y224999D02*
X312499D01*
X311500Y225999D02*
Y224000D01*
X313499Y225999D02*
X313999Y226499D01*
X314999D01*
X315498Y225999D01*
Y225499D01*
X314999Y224999D01*
X314499D01*
X314999D01*
X315498Y224500D01*
Y224000D01*
X314999Y223500D01*
X313999D01*
X313499Y224000D01*
D13*
X202415Y108000D02*
G03*
X202415Y108000I-2915J0D01*
G01*
X260500Y40100D02*
G03*
X260500Y40100I-7000J0D01*
G01*
X246994Y205331D02*
X255903D01*
X257016Y204218D01*
Y195309D02*
Y204218D01*
X240870Y191412D02*
X243097Y189185D01*
X240870Y191412D02*
Y199207D01*
X243097Y189185D02*
X250892D01*
X98236Y240173D02*
Y249622D01*
X77764D02*
X98236D01*
X77764Y239779D02*
Y249622D01*
X75402Y239779D02*
X80126D01*
X75402Y236236D02*
Y239779D01*
Y200409D02*
Y224425D01*
Y182693D02*
Y186630D01*
Y182693D02*
X100598D01*
Y216945D01*
Y227969D02*
Y239779D01*
X89181D02*
X100598D01*
X80126D02*
X89181D01*
X196850Y187248D02*
Y244248D01*
X144850Y187248D02*
Y244248D01*
X188850Y187248D02*
X196850D01*
X144850D02*
X153850D01*
X182850Y181248D02*
X186850D01*
X144850Y244248D02*
X196850D01*
X143350Y243248D02*
X144850D01*
X196850D02*
X198850D01*
D14*
X301161Y38685D02*
Y48528D01*
X286201D02*
X301161D01*
X286201Y9157D02*
Y48528D01*
X292500Y9157D02*
X301161D01*
Y38685D01*
X286201Y9157D02*
Y38685D01*
Y9157D02*
X292500D01*
X287776Y46165D02*
X301161D01*
X287776Y11520D02*
Y46165D01*
Y11520D02*
X300768D01*
X301161Y38685D02*
Y46165D01*
X73101Y25284D02*
X73101Y44969D01*
X85699D02*
X85699Y25284D01*
X205201Y193184D02*
X205201Y212868D01*
X217799D02*
X217799Y193184D01*
X158465Y151016D02*
X160433Y149047D01*
Y149047D02*
Y149047D01*
X160236Y151705D02*
X161122Y150819D01*
X160236Y151705D02*
Y155347D01*
Y163024D02*
X161024D01*
X160236Y158496D02*
Y163024D01*
X171653D02*
X172441D01*
Y158496D02*
Y163024D01*
Y150819D02*
Y155347D01*
X171653Y150819D02*
X172441D01*
X84547Y138976D02*
Y158661D01*
X97146Y138976D02*
Y158661D01*
X2362Y111811D02*
X11024D01*
X2362Y84252D02*
Y111811D01*
Y82284D02*
X17323D01*
Y111811D01*
X11024D02*
X17323D01*
X2362Y84646D02*
X15748D01*
Y109449D01*
X2756D02*
X15748D01*
X2362Y82284D02*
Y84646D01*
Y186221D02*
X11024D01*
X2362Y158661D02*
Y186221D01*
Y156693D02*
X17323D01*
Y186221D01*
X11024D02*
X17323D01*
X2362Y159055D02*
X15748D01*
Y183858D01*
X2756D02*
X15748D01*
X2362Y156693D02*
Y159055D01*
X171467Y109441D02*
X170967Y109941D01*
X169967D01*
X169467Y109441D01*
Y107441D01*
X169967Y106942D01*
X170967D01*
X171467Y107441D01*
X172966Y106942D02*
X173966D01*
X174466Y107441D01*
Y108441D01*
X173966Y108941D01*
X172966D01*
X172466Y108441D01*
Y107441D01*
X172966Y106942D01*
X175465Y105942D02*
Y108941D01*
X176965D01*
X177465Y108441D01*
Y107441D01*
X176965Y106942D01*
X175465D01*
X178464Y108941D02*
Y107441D01*
X178964Y106942D01*
X180464D01*
Y106442D01*
X179964Y105942D01*
X179464D01*
X180464Y106942D02*
Y108941D01*
X181463D02*
Y106942D01*
Y107941D01*
X181963Y108441D01*
X182463Y108941D01*
X182963D01*
X184462Y106942D02*
X185462D01*
X184962D01*
Y108941D01*
X184462D01*
X187961Y105942D02*
X188461D01*
X188961Y106442D01*
Y108941D01*
X187461D01*
X186962Y108441D01*
Y107441D01*
X187461Y106942D01*
X188961D01*
X189961Y109941D02*
Y106942D01*
Y108441D01*
X190460Y108941D01*
X191460D01*
X191960Y108441D01*
Y106942D01*
X193459Y109441D02*
Y108941D01*
X192960D01*
X193959D01*
X193459D01*
Y107441D01*
X193959Y106942D01*
X200457Y108941D02*
X198958D01*
X198458Y108441D01*
Y107441D01*
X198958Y106942D01*
X200457D01*
X206455D02*
X204456D01*
X206455Y108941D01*
Y109441D01*
X205955Y109941D01*
X204956D01*
X204456Y109441D01*
X207455D02*
X207955Y109941D01*
X208954D01*
X209454Y109441D01*
Y107441D01*
X208954Y106942D01*
X207955D01*
X207455Y107441D01*
Y109441D01*
X210454D02*
X210954Y109941D01*
X211953D01*
X212453Y109441D01*
Y107441D01*
X211953Y106942D01*
X210954D01*
X210454Y107441D01*
Y109441D01*
X213453Y107441D02*
X213953Y106942D01*
X214952D01*
X215452Y107441D01*
Y109441D01*
X214952Y109941D01*
X213953D01*
X213453Y109441D01*
Y108941D01*
X213953Y108441D01*
X215452D01*
X232300Y27900D02*
X233800D01*
X233050D01*
Y32399D01*
X232300Y31649D01*
X500Y122199D02*
Y117700D01*
X2749D01*
X3499Y118450D01*
Y119200D01*
X2749Y119949D01*
X500D01*
X2749D01*
X3499Y120699D01*
Y121449D01*
X2749Y122199D01*
X500D01*
X7248Y117700D02*
X5748D01*
X4999Y118450D01*
Y119949D01*
X5748Y120699D01*
X7248D01*
X7998Y119949D01*
Y119200D01*
X4999D01*
X9497Y117700D02*
Y120699D01*
X11746D01*
X12496Y119949D01*
Y117700D01*
X16995Y122199D02*
Y117700D01*
X14745D01*
X13996Y118450D01*
Y119949D01*
X14745Y120699D01*
X16995D01*
X2999Y153449D02*
X2249Y154199D01*
X750D01*
X0Y153449D01*
Y152699D01*
X750Y151949D01*
X2249D01*
X2999Y151199D01*
Y150450D01*
X2249Y149700D01*
X750D01*
X0Y150450D01*
X4499Y148201D02*
Y152699D01*
X6748D01*
X7498Y151949D01*
Y150450D01*
X6748Y149700D01*
X4499D01*
X8997D02*
Y154199D01*
Y151199D02*
X11246Y152699D01*
X8997Y151199D02*
X11246Y149700D01*
X13496Y152699D02*
Y149700D01*
Y151199D01*
X14245Y151949D01*
X14995Y152699D01*
X15745D01*
X-751Y93000D02*
Y90001D01*
Y178000D02*
Y175001D01*
Y168000D02*
Y165001D01*
X749Y166500D02*
X-2250D01*
X-751Y103000D02*
Y100001D01*
X749Y101500D02*
X-2250D01*
X69001Y215500D02*
X73500D01*
X71251D01*
Y218499D01*
X69001D01*
X73500D01*
Y219999D02*
X69001D01*
Y222248D01*
X69751Y222998D01*
X71251D01*
X72000Y222248D01*
Y219999D01*
X46549Y228800D02*
Y225801D01*
X48049Y227301D02*
X45050D01*
X48799Y221302D02*
Y224302D01*
X46549D01*
X47299Y222802D01*
Y222052D01*
X46549Y221302D01*
X45050D01*
X44300Y222052D01*
Y223552D01*
X45050Y224302D01*
X48799Y219803D02*
X45799D01*
X44300Y218303D01*
X45799Y216804D01*
X48799D01*
X44300Y210806D02*
Y209306D01*
Y210056D01*
X47299D01*
Y210806D01*
X44300Y207057D02*
X47299D01*
Y204808D01*
X46549Y204058D01*
X44300D01*
X8500Y28400D02*
X12999D01*
X11499Y26901D01*
X12999Y25401D01*
X8500D01*
Y23901D02*
Y22402D01*
Y23152D01*
X11499D01*
Y23901D01*
Y17154D02*
Y19403D01*
X10749Y20153D01*
X9250D01*
X8500Y19403D01*
Y17154D01*
X15749Y49000D02*
Y46001D01*
X284300Y33500D02*
X279302D01*
Y35999D01*
X280135Y36832D01*
X281801D01*
X282634Y35999D01*
Y33500D01*
X284300Y39331D02*
Y40998D01*
X283467Y41831D01*
X281801D01*
X280968Y40998D01*
Y39331D01*
X281801Y38498D01*
X283467D01*
X284300Y39331D01*
X280135Y44330D02*
X280968D01*
Y43497D01*
Y45163D01*
Y44330D01*
X283467D01*
X284300Y45163D01*
X306732Y46933D02*
Y50265D01*
X305899Y51098D01*
X304233D01*
X303400Y50265D01*
Y46933D01*
X304233Y46100D01*
X305899D01*
X305066Y47766D02*
X306732Y46100D01*
X305899D02*
X306732Y46933D01*
X308398Y49432D02*
Y46933D01*
X309231Y46100D01*
X311731D01*
Y49432D01*
X314230D02*
X315896D01*
X316729Y48599D01*
Y46100D01*
X314230D01*
X313397Y46933D01*
X314230Y47766D01*
X316729D01*
X321727Y51098D02*
Y46100D01*
X319228D01*
X318395Y46933D01*
Y48599D01*
X319228Y49432D01*
X321727D01*
X22406Y22734D02*
X19740D01*
Y20734D01*
X21073D01*
X19740D01*
Y18735D01*
X23739D02*
Y22734D01*
X25072Y21401D01*
X26405Y22734D01*
Y18735D01*
X31736D02*
Y21401D01*
X33069Y22734D01*
X34402Y21401D01*
Y18735D01*
Y20734D01*
X31736D01*
X35735Y18735D02*
Y21401D01*
X37734D01*
X38401Y20734D01*
Y18735D01*
X40400Y22067D02*
Y21401D01*
X39733D01*
X41066D01*
X40400D01*
Y19401D01*
X41066Y18735D01*
D20*
X137500Y93999D02*
Y91000D01*
Y92500D01*
X138000Y92999D01*
X138999D01*
X139499Y92500D01*
Y91000D01*
X140999Y93499D02*
Y92999D01*
X140499D01*
X141499D01*
X140999D01*
Y91500D01*
X141499Y91000D01*
X143498Y93499D02*
Y92999D01*
X142998D01*
X143998D01*
X143498D01*
Y91500D01*
X143998Y91000D01*
X145497Y90000D02*
Y92999D01*
X146997D01*
X147497Y92500D01*
Y91500D01*
X146997Y91000D01*
X145497D01*
X148496Y92999D02*
X148996D01*
Y92500D01*
X148496D01*
Y92999D01*
Y91500D02*
X148996D01*
Y91000D01*
X148496D01*
Y91500D01*
X150996Y91000D02*
X152995Y92999D01*
X153995Y91000D02*
X155994Y92999D01*
X156994D02*
Y91500D01*
X157493Y91000D01*
X157993Y91500D01*
X158493Y91000D01*
X158993Y91500D01*
Y92999D01*
X159993D02*
Y91500D01*
X160493Y91000D01*
X160992Y91500D01*
X161492Y91000D01*
X161992Y91500D01*
Y92999D01*
X162992D02*
Y91500D01*
X163492Y91000D01*
X163991Y91500D01*
X164491Y91000D01*
X164991Y91500D01*
Y92999D01*
X165991Y91000D02*
Y91500D01*
X166491D01*
Y91000D01*
X165991D01*
X170489Y92999D02*
X168990D01*
X168490Y92500D01*
Y91500D01*
X168990Y91000D01*
X170489D01*
X171489Y93999D02*
Y91000D01*
Y92500D01*
X171989Y92999D01*
X172988D01*
X173488Y92500D01*
Y91000D01*
X174488Y92999D02*
Y91500D01*
X174988Y91000D01*
X176487D01*
Y92999D01*
X177487Y91000D02*
Y92999D01*
X177987D01*
X178487Y92500D01*
Y91000D01*
Y92500D01*
X178987Y92999D01*
X179486Y92500D01*
Y91000D01*
X180486Y93999D02*
Y91000D01*
X181986D01*
X182485Y91500D01*
Y92000D01*
Y92500D01*
X181986Y92999D01*
X180486D01*
X183485D02*
Y91500D01*
X183985Y91000D01*
X185485D01*
Y90500D01*
X184985Y90000D01*
X184485D01*
X185485Y91000D02*
Y92999D01*
X186484Y91000D02*
Y91500D01*
X186984D01*
Y91000D01*
X186484D01*
X190983Y92999D02*
X189483D01*
X188983Y92500D01*
Y91500D01*
X189483Y91000D01*
X190983D01*
X192482D02*
X193482D01*
X193982Y91500D01*
Y92500D01*
X193482Y92999D01*
X192482D01*
X191982Y92500D01*
Y91500D01*
X192482Y91000D01*
X194981D02*
Y92999D01*
X195481D01*
X195981Y92500D01*
Y91000D01*
Y92500D01*
X196481Y92999D01*
X196981Y92500D01*
Y91000D01*
X197980D02*
X199980Y92999D01*
X200979Y91000D02*
X201979D01*
X201479D01*
Y93999D01*
X200979D01*
X204978Y91000D02*
X203978D01*
X203479Y91500D01*
Y92500D01*
X203978Y92999D01*
X204978D01*
X205478Y92500D01*
Y92000D01*
X203479D01*
X207477Y90000D02*
X207977D01*
X208477Y90500D01*
Y92999D01*
X206978D01*
X206478Y92500D01*
Y91500D01*
X206978Y91000D01*
X208477D01*
X209977Y92999D02*
X210976D01*
X211476Y92500D01*
Y91000D01*
X209977D01*
X209477Y91500D01*
X209977Y92000D01*
X211476D01*
X212476Y91000D02*
X213475D01*
X212976D01*
Y93999D01*
X212476D01*
X214975Y91000D02*
X216974Y92999D01*
X219973Y93999D02*
Y91000D01*
X218474D01*
X217974Y91500D01*
Y92500D01*
X218474Y92999D01*
X219973D01*
X222473Y91000D02*
X221473D01*
X220973Y91500D01*
Y92500D01*
X221473Y92999D01*
X222473D01*
X222972Y92500D01*
Y92000D01*
X220973D01*
X223972Y92999D02*
X224972Y91000D01*
X225971Y92999D01*
X228471Y91000D02*
X227471D01*
X226971Y91500D01*
Y92500D01*
X227471Y92999D01*
X228471D01*
X228970Y92500D01*
Y92000D01*
X226971D01*
X229970Y91000D02*
X230970D01*
X230470D01*
Y93999D01*
X229970D01*
X232969Y91000D02*
X233969D01*
X234469Y91500D01*
Y92500D01*
X233969Y92999D01*
X232969D01*
X232469Y92500D01*
Y91500D01*
X232969Y91000D01*
X235468Y90000D02*
Y92999D01*
X236968D01*
X237468Y92500D01*
Y91500D01*
X236968Y91000D01*
X235468D01*
X239967D02*
X238967D01*
X238467Y91500D01*
Y92500D01*
X238967Y92999D01*
X239967D01*
X240467Y92500D01*
Y92000D01*
X238467D01*
X241466Y92999D02*
Y91000D01*
Y92000D01*
X241966Y92500D01*
X242466Y92999D01*
X242966D01*
X171499Y98499D02*
X171000Y98999D01*
X170000D01*
X169500Y98499D01*
Y97999D01*
X170000Y97500D01*
X171000D01*
X171499Y97000D01*
Y96500D01*
X171000Y96000D01*
X170000D01*
X169500Y96500D01*
X172999Y96000D02*
X173999D01*
X174498Y96500D01*
Y97500D01*
X173999Y97999D01*
X172999D01*
X172499Y97500D01*
Y96500D01*
X172999Y96000D01*
X175498D02*
Y97999D01*
X175998D01*
X176498Y97500D01*
Y96000D01*
Y97500D01*
X176998Y97999D01*
X177497Y97500D01*
Y96000D01*
X179997D02*
X178997D01*
X178497Y96500D01*
Y97500D01*
X178997Y97999D01*
X179997D01*
X180496Y97500D01*
Y97000D01*
X178497D01*
X184495Y96000D02*
Y98999D01*
X185995D01*
X186495Y98499D01*
Y97500D01*
X185995Y97000D01*
X184495D01*
X185495D02*
X186495Y96000D01*
X187494D02*
X188494D01*
X187994D01*
Y97999D01*
X187494D01*
X190993Y95000D02*
X191493D01*
X191993Y95500D01*
Y97999D01*
X190493D01*
X189993Y97500D01*
Y96500D01*
X190493Y96000D01*
X191993D01*
X192992Y98999D02*
Y96000D01*
Y97500D01*
X193492Y97999D01*
X194492D01*
X194992Y97500D01*
Y96000D01*
X196491Y98499D02*
Y97999D01*
X195991D01*
X196991D01*
X196491D01*
Y96500D01*
X196991Y96000D01*
X198491D02*
X199990D01*
X200490Y96500D01*
X199990Y97000D01*
X198990D01*
X198491Y97500D01*
X198990Y97999D01*
X200490D01*
X204489Y96000D02*
Y98999D01*
X205988D01*
X206488Y98499D01*
Y97500D01*
X205988Y97000D01*
X204489D01*
X205488D02*
X206488Y96000D01*
X208987D02*
X207988D01*
X207488Y96500D01*
Y97500D01*
X207988Y97999D01*
X208987D01*
X209487Y97500D01*
Y97000D01*
X207488D01*
X210487Y96000D02*
X211986D01*
X212486Y96500D01*
X211986Y97000D01*
X210987D01*
X210487Y97500D01*
X210987Y97999D01*
X212486D01*
X214985Y96000D02*
X213986D01*
X213486Y96500D01*
Y97500D01*
X213986Y97999D01*
X214985D01*
X215485Y97500D01*
Y97000D01*
X213486D01*
X216485Y97999D02*
Y96000D01*
Y97000D01*
X216985Y97500D01*
X217484Y97999D01*
X217984D01*
X219484D02*
X220483Y96000D01*
X221483Y97999D01*
X223982Y96000D02*
X222983D01*
X222483Y96500D01*
Y97500D01*
X222983Y97999D01*
X223982D01*
X224482Y97500D01*
Y97000D01*
X222483D01*
X227481Y98999D02*
Y96000D01*
X225982D01*
X225482Y96500D01*
Y97500D01*
X225982Y97999D01*
X227481D01*
X228981Y95500D02*
X229481Y96000D01*
Y96500D01*
X228981D01*
Y96000D01*
X229481D01*
X228981Y95500D01*
X228481Y95000D01*
X234479Y96000D02*
X235979D01*
X236478Y96500D01*
X235979Y97000D01*
X234979D01*
X234479Y97500D01*
X234979Y97999D01*
X236478D01*
X238978Y96000D02*
X237978D01*
X237478Y96500D01*
Y97500D01*
X237978Y97999D01*
X238978D01*
X239477Y97500D01*
Y97000D01*
X237478D01*
X241977Y96000D02*
X240977D01*
X240477Y96500D01*
Y97500D01*
X240977Y97999D01*
X241977D01*
X242476Y97500D01*
Y97000D01*
X240477D01*
X171499Y103499D02*
X171000Y103999D01*
X170000D01*
X169500Y103499D01*
Y101500D01*
X170000Y101000D01*
X171000D01*
X171499Y101500D01*
X172499Y103999D02*
Y101000D01*
Y102499D01*
X172999Y102999D01*
X173998D01*
X174498Y102499D01*
Y101000D01*
X175498Y102999D02*
Y101500D01*
X175998Y101000D01*
X177497D01*
Y102999D01*
X178497Y101000D02*
Y102999D01*
X178997D01*
X179497Y102499D01*
Y101000D01*
Y102499D01*
X179997Y102999D01*
X180496Y102499D01*
Y101000D01*
X181496Y103999D02*
Y101000D01*
X182996D01*
X183495Y101500D01*
Y102000D01*
Y102499D01*
X182996Y102999D01*
X181496D01*
X184495D02*
Y101500D01*
X184995Y101000D01*
X186495D01*
Y100500D01*
X185995Y100000D01*
X185495D01*
X186495Y101000D02*
Y102999D01*
X190493Y103999D02*
X191493D01*
X190993D01*
Y101000D01*
X190493D01*
X191493D01*
X192992D02*
Y102999D01*
X194492D01*
X194992Y102499D01*
Y101000D01*
X197991Y103999D02*
Y101000D01*
X196491D01*
X195991Y101500D01*
Y102499D01*
X196491Y102999D01*
X197991D01*
X198990D02*
Y101500D01*
X199490Y101000D01*
X200990D01*
Y102999D01*
X201990Y101000D02*
X203489D01*
X203989Y101500D01*
X203489Y102000D01*
X202489D01*
X201990Y102499D01*
X202489Y102999D01*
X203989D01*
X205488Y103499D02*
Y102999D01*
X204989D01*
X205988D01*
X205488D01*
Y101500D01*
X205988Y101000D01*
X207488Y102999D02*
Y101000D01*
Y102000D01*
X207987Y102499D01*
X208487Y102999D01*
X208987D01*
X210487Y101000D02*
X211486D01*
X210987D01*
Y102999D01*
X210487D01*
X214485Y101000D02*
X213486D01*
X212986Y101500D01*
Y102499D01*
X213486Y102999D01*
X214485D01*
X214985Y102499D01*
Y102000D01*
X212986D01*
X215985Y101000D02*
X217484D01*
X217984Y101500D01*
X217484Y102000D01*
X216485D01*
X215985Y102499D01*
X216485Y102999D01*
X217984D01*
D22*
X16700Y37200D02*
G03*
X16700Y37200I-922J0D01*
G01*
D113*
X186752Y28346D02*
G03*
X181752Y28346I-2500J0D01*
G01*
X132200Y222810D02*
X134700D01*
Y215724D02*
Y222810D01*
X132200Y215724D02*
X134700D01*
X114700D02*
X117200D01*
X114700Y222810D02*
X117200D01*
X114700Y215724D02*
Y222810D01*
X117200Y215724D02*
X132200D01*
X117200Y222810D02*
X132200D01*
X13539Y130398D02*
Y142602D01*
X42870Y130398D02*
X44642Y132169D01*
X42870Y142602D02*
X44642Y140831D01*
Y132169D02*
Y140831D01*
X13539Y130398D02*
X23776D01*
X13539Y142602D02*
X23776D01*
X33224D02*
X42870D01*
X33224Y130398D02*
X42870D01*
X250291Y228957D02*
X261709D01*
X250291Y236043D02*
X261709D01*
X254031Y228957D02*
Y236043D01*
X250291Y235256D02*
Y236043D01*
X261709Y235256D02*
Y236043D01*
Y228957D02*
Y229744D01*
X250291Y228957D02*
Y229744D01*
X301298Y43700D02*
X315078D01*
X301298Y13700D02*
Y43700D01*
X315078Y13700D02*
Y43700D01*
X301298Y13700D02*
X315078D01*
X130325Y183450D02*
X133475D01*
X130325Y177150D02*
X133475D01*
X110001Y83998D02*
Y96202D01*
X122599Y83998D02*
Y96202D01*
X110001D02*
X122599D01*
X110001Y83998D02*
X122599D01*
X52832Y42088D02*
Y43368D01*
X54112D01*
X52832Y26832D02*
Y28112D01*
Y26832D02*
X54112D01*
X69368D02*
Y28112D01*
X68088Y26832D02*
X69368D01*
Y42088D02*
Y43368D01*
X68088D02*
X69368D01*
X88106Y53933D02*
X89012D01*
X263696Y47589D02*
X325777Y109670D01*
X237806Y73479D02*
X299887Y135560D01*
X237806Y73479D02*
X263696Y47589D01*
X299887Y135560D02*
X325777Y109670D01*
X261973Y144051D02*
X263942D01*
X261973Y128697D02*
X263942D01*
X261973Y161051D02*
X263942D01*
X261973Y145697D02*
X263942D01*
X251878Y133920D02*
X253270Y132528D01*
X241021Y123063D02*
X242413Y121671D01*
X239460Y115039D02*
Y117007D01*
X224106Y115039D02*
Y117007D01*
X222460Y115039D02*
Y117007D01*
X207105Y115039D02*
Y117007D01*
X295783Y149606D02*
X302854Y156677D01*
X331139Y128393D01*
X295783Y149606D02*
X324067Y121322D01*
X331139Y128393D01*
X281201Y187244D02*
X282776D01*
X281201Y190394D02*
X282776D01*
X283563Y178091D02*
X286713D01*
X283563Y184390D02*
X286713D01*
X268209Y186752D02*
Y189902D01*
X274508Y186752D02*
Y189902D01*
X269587Y202205D02*
X271161D01*
X269587Y199055D02*
X271161D01*
X316331Y197319D02*
Y199681D01*
X307669Y197319D02*
Y199681D01*
X316331D01*
X307669Y197319D02*
X316331D01*
X265491Y221143D02*
X276909D01*
X265491Y214057D02*
X276909D01*
X273168D02*
Y221143D01*
X276909Y214057D02*
Y214844D01*
X265491Y214057D02*
Y214844D01*
Y220356D02*
Y221143D01*
X276909Y220356D02*
Y221143D01*
X251378Y208209D02*
X252953D01*
X251378Y211358D02*
X252953D01*
X231791Y203780D02*
X236516D01*
X200787Y180490D02*
X203014Y182717D01*
X200787Y139409D02*
Y182717D01*
X244094Y139409D02*
Y182717D01*
X200787D02*
X244094D01*
X200787Y139409D02*
X244094D01*
X227625Y218350D02*
X230775D01*
X227625Y212050D02*
X230775D01*
X112795Y138878D02*
X134449D01*
X112795Y117224D02*
X134449D01*
Y138878D01*
X112795Y117224D02*
Y138878D01*
X70653Y129075D02*
Y134193D01*
X70457Y120807D02*
X70653D01*
X77346Y129075D02*
Y134193D01*
Y120807D02*
X77543D01*
X70457D02*
Y134193D01*
X77543Y120807D02*
Y134193D01*
X186752Y28346D02*
X217323D01*
X151181D02*
X181752D01*
X151181Y75984D02*
X217323D01*
Y28346D02*
Y75984D01*
X151181Y28346D02*
Y75984D01*
X130847Y43291D02*
Y54709D01*
X124153Y43291D02*
Y54709D01*
X130059D02*
X130847D01*
X124153D02*
X124941D01*
X130059Y43291D02*
X130847D01*
X124153D02*
X124941D01*
X124153Y47032D02*
X130847D01*
X122579Y27425D02*
Y30575D01*
X132421Y27425D02*
Y30575D01*
X96350Y27799D02*
X102650D01*
X96350Y15201D02*
X102650D01*
X112016Y30898D02*
X113984D01*
X112016Y43102D02*
X113984D01*
Y30898D02*
Y43102D01*
X112016Y30898D02*
Y43102D01*
X113500Y56138D02*
Y60862D01*
X78787Y90405D02*
X80756D01*
Y87256D02*
Y90405D01*
X78787Y78594D02*
X80756D01*
Y81744D01*
X8988Y75067D02*
X9894D01*
X19657Y90491D02*
Y101909D01*
X26743Y90491D02*
Y101909D01*
X19657Y98168D02*
X26743D01*
X25956Y101909D02*
X26743D01*
X25956Y90491D02*
X26743D01*
X19657D02*
X20444D01*
X19657Y101909D02*
X20444D01*
X34850Y160299D02*
X41150D01*
X34850Y147701D02*
X41150D01*
X11791Y199543D02*
X23209D01*
X11791Y192457D02*
X23209D01*
X19468D02*
Y199543D01*
X23209Y192457D02*
Y193244D01*
X11791Y192457D02*
Y193244D01*
Y198756D02*
Y199543D01*
X23209Y198756D02*
Y199543D01*
X16142Y203937D02*
X24016D01*
X11024Y213779D02*
Y226772D01*
Y238976D02*
Y240945D01*
X14567D02*
Y246850D01*
X34252D01*
Y240945D02*
Y246850D01*
X34646Y213779D02*
Y226772D01*
Y238976D02*
Y240945D01*
X11024D02*
X34646D01*
X111901Y69398D02*
Y81602D01*
X124499Y69398D02*
Y81602D01*
X111901D02*
X124499D01*
X111901Y69398D02*
X124499D01*
X152863Y117557D02*
Y121100D01*
Y117557D02*
X153650Y116769D01*
X157194D01*
X152863Y121100D02*
X153257D01*
Y117557D02*
Y121100D01*
Y117557D02*
X153650Y117163D01*
X157194D01*
Y116769D02*
Y117163D01*
X117100Y163538D02*
Y168262D01*
X113835Y16260D02*
Y17835D01*
X113047D02*
X113835D01*
X118165D02*
X118953D01*
X118165Y16260D02*
Y17835D01*
X118953Y16260D02*
Y23740D01*
X113047Y16260D02*
Y23740D01*
X118165D02*
X118953D01*
X118165Y16260D02*
X118953D01*
X113047Y23740D02*
X113835D01*
X113047Y16260D02*
X113835D01*
D163*
X105572Y96793D02*
G03*
X105572Y96793I-492J0D01*
G01*
X49978Y40021D02*
G03*
X49978Y40021I-492J0D01*
G01*
X266902Y44875D02*
G03*
X266902Y44875I-492J0D01*
G01*
X317905Y202634D02*
G03*
X317905Y202634I-492J0D01*
G01*
X198721Y179961D02*
G03*
X198721Y179961I-492J0D01*
G01*
X137697Y143996D02*
G03*
X137697Y143996I-492J0D01*
G01*
X222539Y26772D02*
G03*
X222539Y26772I-492J0D01*
G01*
X118217Y29815D02*
G03*
X118217Y29815I-492J0D01*
G01*
X74752Y91587D02*
G03*
X74752Y91587I-492J0D01*
G01*
X107472Y82193D02*
G03*
X107472Y82193I-492J0D01*
G01*
D164*
X115119Y92265D02*
G03*
X115119Y92265I-1181J0D01*
G01*
X264877Y53157D02*
G03*
X264877Y53157I-1181J0D01*
G01*
X131693Y134941D02*
G03*
X131693Y134941I-1181J0D01*
G01*
X117019Y77665D02*
G03*
X117019Y77665I-1181J0D01*
G01*
D165*
X260202Y144917D02*
G03*
X260202Y144917I-197J0D01*
G01*
Y161917D02*
G03*
X260202Y161917I-197J0D01*
G01*
X251296Y135924D02*
G03*
X251296Y135924I-197J0D01*
G01*
X240523Y118976D02*
G03*
X240523Y118976I-197J0D01*
G01*
X223523D02*
G03*
X223523Y118976I-197J0D01*
G01*
D166*
X278248Y232887D02*
D03*
M02*
