*
*
G04 PADS 9.3 Build Number: 433611 generated Gerber (RS-274-X) file*
G04 PC Version=2.1*
*
%IN "opencalc.pcb"*%
*
%MOIN*%
*
%FSLAX35Y35*%
*
*
*
*
G04 PC Standard Apertures*
*
*
G04 Thermal Relief Aperture macro.*
%AMTER*
1,1,$1,0,0*
1,0,$1-$2,0,0*
21,0,$3,$4,0,0,45*
21,0,$3,$4,0,0,135*
%
*
*
G04 Annular Aperture macro.*
%AMANN*
1,1,$1,0,0*
1,0,$2,0,0*
%
*
*
G04 Odd Aperture macro.*
%AMODD*
1,1,$1,0,0*
1,0,$1-0.005,0,0*
%
*
*
G04 PC Custom Aperture Macros*
*
*
*
*
*
*
G04 PC Aperture Table*
*
%ADD010C,0.001*%
%ADD011C,0.01*%
%ADD012C,0.012*%
%ADD013C,0.005*%
*
*
*
*
G04 PC Circuitry*
G04 Layer Name opencalc.pcb - circuitry*
%LPD*%
*
*
G04 PC Custom Flashes*
G04 Layer Name opencalc.pcb - flashes*
%LPD*%
*
*
G04 PC Circuitry*
G04 Layer Name opencalc.pcb - circuitry*
%LPD*%
*
G54D10*
G54D11*
G01X361843Y714291D02*
X357843D01*
Y702244*
X361843*
Y714291*
X342157D02*
X338157D01*
Y702244*
X342157*
Y714291*
X411055Y698543D02*
X407055D01*
Y686496*
X411055*
Y698543*
X387433Y696575D02*
X383433D01*
Y684528*
X387433*
Y696575*
X348063Y643425D02*
X344063D01*
Y631378*
X348063*
Y643425*
X224047Y324528D02*
X220047D01*
Y312480*
X224047*
Y324528*
Y401299D02*
X220047D01*
Y389252*
X224047*
Y401299*
Y375709D02*
X220047D01*
Y363661*
X224047*
Y375709*
Y422953D02*
X220047D01*
Y410906*
X224047*
Y422953*
X348063Y661142D02*
X344063D01*
Y649094*
X348063*
Y661142*
Y678858D02*
X344063D01*
Y666811*
X348063*
Y678858*
Y625709D02*
X344063D01*
Y613661*
X348063*
Y625709*
X330346D02*
X326346D01*
Y613661*
X330346*
Y625709*
X224047Y456417D02*
X220047D01*
Y444370*
X224047*
Y456417*
X393425Y446425D02*
Y450425D01*
X381378*
Y446425*
X393425*
Y131465D02*
Y135465D01*
X381378*
Y131465*
X393425*
X172953Y407055D02*
Y411055D01*
X160906*
Y407055*
X172953*
X283189D02*
Y411055D01*
X271142*
Y407055*
X283189*
X393425D02*
Y411055D01*
X381378*
Y407055*
X393425*
X283024Y131767D02*
Y135767D01*
X270977*
Y131767*
X283024*
X172953Y367685D02*
Y371685D01*
X160906*
Y367685*
X172953*
X283189D02*
Y371685D01*
X271142*
Y367685*
X283189*
X393425D02*
Y371685D01*
X381378*
Y367685*
X393425*
Y170835D02*
Y174835D01*
X381378*
Y170835*
X393425*
X172953Y328315D02*
Y332315D01*
X160906*
Y328315*
X172953*
X283189D02*
Y332315D01*
X271142*
Y328315*
X283189*
X393425D02*
Y332315D01*
X381378*
Y328315*
X393425*
X283189Y170835D02*
Y174835D01*
X271142*
Y170835*
X283189*
X172953Y288945D02*
Y292945D01*
X160906*
Y288945*
X172953*
X283189D02*
Y292945D01*
X271142*
Y288945*
X283189*
X393425D02*
Y292945D01*
X381378*
Y288945*
X393425*
X172953Y249575D02*
Y253575D01*
X160906*
Y249575*
X172953*
X283189D02*
Y253575D01*
X271142*
Y249575*
X283189*
X393425D02*
Y253575D01*
X381378*
Y249575*
X393425*
X172953Y170835D02*
Y174835D01*
X160906*
Y170835*
X172953*
Y210205D02*
Y214205D01*
X160906*
Y210205*
X172953*
X283189D02*
Y214205D01*
X271142*
Y210205*
X283189*
X393425D02*
Y214205D01*
X381378*
Y210205*
X393425*
X172953Y131465D02*
Y135465D01*
X160906*
Y131465*
X172953*
Y446425D02*
Y450425D01*
X160906*
Y446425*
X172953*
X283189D02*
Y450425D01*
X271142*
Y446425*
X283189*
X444520Y582402D02*
X440520D01*
Y570354*
X444520*
Y582402*
X147181Y691646D02*
Y677646D01*
X155181*
Y691646*
X147181*
X133402D02*
Y677646D01*
X141402*
Y691646*
X133402*
X369780Y659898D02*
Y677898D01*
X357780*
Y659898*
X369780*
Y636276D02*
Y654276D01*
X357780*
Y636276*
X369780*
X182709Y714291D02*
X178709D01*
Y702244*
X182709*
Y714291*
X440583D02*
X436583D01*
Y702244*
X440583*
Y714291*
X405087Y704213D02*
X409087D01*
Y716260*
X405087*
Y704213*
X383433Y702244D02*
X387433D01*
Y714291*
X383433*
Y702244*
X182709Y733976D02*
X178709D01*
Y721929*
X182709*
Y733976*
X367835Y688551D02*
Y692551D01*
X355787*
Y688551*
X367835*
X391457Y672803D02*
Y676803D01*
X379409*
Y672803*
X391457*
X243457Y616811D02*
Y610811D01*
X236457*
Y593811*
X233461*
Y586024*
X304276*
Y593811*
X301276*
Y610811*
X294276*
Y616811*
X243457*
X222984Y703425D02*
Y697425D01*
X215984*
Y680425*
X212988*
Y672638*
X315299*
Y680425*
X312299*
Y697425*
X305299*
Y703425*
X222984*
X385625Y699540D02*
Y704540D01*
X385852Y705477*
X386079Y705790*
X386534Y706102*
X386988*
X387443Y705790*
X387670Y705477*
X387897Y704540*
Y703915*
X380852Y700477D02*
X381079Y699852D01*
X381761Y699540*
X382216*
X382897Y699852*
X383352Y700790*
X383579Y702352*
Y703915*
X383352Y705165*
X382897Y705790*
X382216Y706102*
X381988*
X381307Y705790*
X380852Y705165*
X380625Y704227*
Y703915*
X380852Y702977*
X381307Y702352*
X381988Y702040*
X382216*
X382897Y702352*
X383352Y702977*
X383579Y703915*
X100000Y750000D02*
Y100000D01*
X455000*
Y750000*
X100000*
G54D12*
X442897Y721102D02*
X302897D01*
Y741102*
X439897*
X442897Y738102*
Y721102*
G54D13*
X170696Y506477D02*
Y503196D01*
X172060*
X174787Y505696D02*
X174674Y506008D01*
X174446Y506321*
X174219Y506477*
X173765*
X173537Y506321*
X173310Y506008*
X173196Y505696*
X173083Y505227*
Y504446*
X173196Y503977*
X173310Y503664*
X173537Y503352*
X173765Y503196*
X174219*
X174446Y503352*
X174674Y503664*
X174787Y503977*
X175810Y506477D02*
Y503196D01*
Y506477D02*
X176606D01*
X176606D02*
X176946Y506321D01*
X177174Y506008*
X177287Y505696*
X177401Y505227*
Y504446*
X177287Y503977*
X177174Y503664*
X176946Y503352*
X176606Y503196*
X176606D02*
X175810D01*
X178424Y502571D02*
X180810D01*
X182401Y506477D02*
X181492Y503196D01*
X182401Y506477D02*
X183310Y503196D01*
X181833Y504289D02*
X182969D01*
X184333Y505852D02*
X184560Y506008D01*
X184901Y506477*
Y503196*
X383295Y506477D02*
Y503196D01*
X384658*
X387386Y505696D02*
X387272Y506008D01*
X387045Y506321*
X386818Y506477*
X386363*
X386136Y506321*
X385908Y506008*
X385795Y505696*
X385681Y505227*
Y504446*
X385795Y503977*
X385908Y503664*
X386136Y503352*
X386363Y503196*
X386818*
X387045Y503352*
X387272Y503664*
X387386Y503977*
X388408Y506477D02*
Y503196D01*
Y506477D02*
X389204D01*
X389545Y506321*
X389772Y506008*
X389886Y505696*
X389999Y505227*
Y504446*
X389886Y503977*
X389772Y503664*
X389545Y503352*
X389204Y503196*
X388408*
X391022Y502571D02*
X393408D01*
X394090Y506477D02*
Y503196D01*
X395681Y506477D02*
X394090Y504289D01*
X394658Y505071D02*
X395681Y503196D01*
X396704Y505852D02*
X396931Y506008D01*
X397272Y506477*
Y503196*
X333155Y548041D02*
X333269Y547728D01*
X333496Y547416*
X333723Y547259*
X334178*
X334405Y547416*
X334632Y547728*
X334746Y548041*
X334860Y548509*
Y549291*
X334746Y549759*
X334632Y550072*
X334405Y550384*
X334178Y550541*
X333723*
X333496Y550384*
X333269Y550072*
X333155Y549759*
X332132Y547884D02*
X331905Y547728D01*
X331564Y547259*
Y550541*
X330428Y548041D02*
Y547884D01*
X330314Y547572*
X330201Y547416*
X329973Y547259*
X329519*
X329291Y547416*
X329178Y547572*
X329064Y547884*
Y548197*
X329178Y548509*
X329405Y548978*
X330541Y550541*
X328951*
X264800Y534623D02*
X264914Y534310D01*
X265141Y533998*
X265368Y533841*
X265823*
X266050Y533998*
X266277Y534310*
X266391Y534623*
X266504Y535091*
Y535873*
X266391Y536341*
X266277Y536654*
X266050Y536966*
X265823Y537123*
X265368*
X265141Y536966*
X264914Y536654*
X264800Y536341*
X263777Y534466D02*
X263550Y534310D01*
X263209Y533841*
Y537123*
X261050Y533841D02*
X262186Y536029D01*
X260482*
X261050Y533841D02*
Y537123D01*
X233996Y570343D02*
X234309Y570456D01*
X234621Y570684*
X234777Y570911*
Y571365*
X234621Y571593*
X234309Y571820*
X233996Y571934*
X233527Y572047*
X232746*
X232277Y571934*
X231965Y571820*
X231652Y571593*
X231496Y571365*
Y570911*
X231652Y570684*
X231965Y570456*
X232277Y570343*
X234777Y568184D02*
X232590Y569320D01*
Y567615*
X234777Y568184D02*
X231496D01*
X234777Y566025D02*
X234621Y566365D01*
X234309Y566479*
X233996*
X233684Y566365*
X233527Y566138*
X233371Y565684*
X233215Y565343*
X232902Y565115*
X232590Y565002*
X232121*
X231809Y565115*
X231652Y565229*
X231496Y565570*
Y566025*
X231652Y566365*
X231809Y566479*
X232121Y566593*
X232590*
X232902Y566479*
X233215Y566252*
X233371Y565911*
X233527Y565456*
X233684Y565229*
X233996Y565115*
X234309*
X234621Y565229*
X234777Y565570*
Y566025*
X438988Y694161D02*
X438676Y694048D01*
X438363Y693820*
X438207Y693593*
Y693139*
X438363Y692911*
X438676Y692684*
X438988Y692570*
X439457Y692457*
X440238*
X440707Y692570*
X441019Y692684*
X441332Y692911*
X441488Y693139*
Y693593*
X441332Y693820*
X441019Y694048*
X440707Y694161*
X438207Y695411D02*
Y696661D01*
X439457Y695979*
Y696320*
X439613Y696548*
X439769Y696661*
X440238Y696775*
X440551*
X441019Y696661*
X441332Y696434*
X441488Y696093*
Y695752*
X441332Y695411*
X441176Y695298*
X440863Y695184*
X438207Y699389D02*
X441488Y698252D01*
X438207Y697798D02*
Y699389D01*
X402744Y690878D02*
X403057Y690992D01*
X403369Y691219*
X403525Y691446*
Y691901*
X403369Y692128*
X403057Y692355*
X402744Y692469*
X402275Y692583*
X401494*
X401025Y692469*
X400713Y692355*
X400400Y692128*
X400244Y691901*
Y691446*
X400400Y691219*
X400713Y690992*
X401025Y690878*
X403525Y688719D02*
X401338Y689855D01*
Y688151*
X403525Y688719D02*
X400244D01*
X403525Y686446D02*
X403369Y686787D01*
X402900Y687014*
X402119Y687128*
X401650*
X400869Y687014*
X400400Y686787*
X400244Y686446*
Y686219*
X400400Y685878*
X400869Y685651*
X401650Y685537*
X402119*
X402900Y685651*
X403369Y685878*
X403525Y686219*
Y686446*
X391744Y676445D02*
X391432Y676331D01*
X391119Y676104*
X390963Y675877*
Y675422*
X391119Y675195*
X391432Y674967*
X391744Y674854*
X392213Y674740*
X392994*
X393463Y674854*
X393775Y674967*
X394088Y675195*
X394244Y675422*
Y675877*
X394088Y676104*
X393775Y676331*
X393463Y676445*
X390963Y678604D02*
X393150Y677467D01*
Y679172*
X390963Y678604D02*
X394244D01*
X391588Y680195D02*
X391432Y680422D01*
X390963Y680763*
X394244*
X263059Y711799D02*
X262945Y712112D01*
X262718Y712424*
X262491Y712580*
X262036*
X261809Y712424*
X261582Y712112*
X261468Y711799*
X261354Y711330*
Y710549*
X261468Y710080*
X261582Y709768*
X261809Y709455*
X262036Y709299*
X262491*
X262718Y709455*
X262945Y709768*
X263059Y710080*
X264195Y711799D02*
Y711955D01*
X264309Y712268*
X264423Y712424*
X264650Y712580*
X265104*
X265332Y712424*
X265445Y712268*
X265559Y711955*
Y711643*
X265445Y711330*
X265218Y710862*
X264082Y709299*
X265673*
X268173Y712580D02*
X267036D01*
X266923Y711174*
X267036Y711330*
X267377Y711487*
X267718*
X268059Y711330*
X268286Y711018*
X268400Y710549*
X268286Y710237*
X268173Y709768*
X267945Y709455*
X267604Y709299*
X267263*
X266923Y709455*
X266809Y709612*
X266695Y709924*
X178755Y723576D02*
X178641Y723888D01*
X178414Y724201*
X178186Y724357*
X177732*
X177505Y724201*
X177277Y723888*
X177164Y723576*
X177050Y723107*
Y722326*
X177164Y721857*
X177277Y721544*
X177505Y721232*
X177732Y721076*
X178186*
X178414Y721232*
X178641Y721544*
X178755Y721857*
X180005Y724357D02*
X181255D01*
X180573Y723107*
X180914*
X181141Y722951*
X181255Y722794*
X181368Y722326*
Y722013*
X181255Y721544*
X181027Y721232*
X180686Y721076*
X180346*
X180005Y721232*
X179891Y721388*
X179777Y721701*
X182505Y723576D02*
Y723732D01*
X182618Y724044*
X182732Y724201*
X182959Y724357*
X183414*
X183641Y724201*
X183755Y724044*
X183868Y723732*
Y723419*
X183755Y723107*
X183527Y722638*
X182391Y721076*
X183982*
X438177Y690878D02*
X438490Y690992D01*
X438802Y691219*
X438958Y691446*
Y691901*
X438802Y692128*
X438490Y692355*
X438177Y692469*
X437708Y692583*
X436927*
X436458Y692469*
X436146Y692355*
X435833Y692128*
X435677Y691901*
Y691446*
X435833Y691219*
X436146Y690992*
X436458Y690878*
X438958Y689628D02*
Y688378D01*
X437708Y689060*
Y688719*
X437552Y688492*
X437396Y688378*
X436927Y688264*
X436615*
X436146Y688378*
X435833Y688605*
X435677Y688946*
Y689287*
X435833Y689628*
X435990Y689742*
X436302Y689855*
X438958Y686674D02*
X438802Y687014D01*
X438490Y687128*
X438177*
X437865Y687014*
X437708Y686787*
X437552Y686333*
X437396Y685992*
X437083Y685764*
X436771Y685651*
X436302*
X435990Y685764*
X435833Y685878*
X435677Y686219*
Y686674*
X435833Y687014*
X435990Y687128*
X436302Y687242*
X436771*
X437083Y687128*
X437396Y686901*
X437552Y686560*
X437708Y686105*
X437865Y685878*
X438177Y685764*
X438490*
X438802Y685878*
X438958Y686219*
Y686674*
X242138Y426445D02*
X241825Y426331D01*
X241513Y426104*
X241357Y425877*
Y425422*
X241513Y425195*
X241825Y424967*
X242138Y424854*
X242607Y424740*
X243388*
X243857Y424854*
X244169Y424967*
X244482Y425195*
X244638Y425422*
Y425877*
X244482Y426104*
X244169Y426331*
X243857Y426445*
X241357Y428036D02*
X241513Y427695D01*
X241825Y427581*
X242138*
X242450Y427695*
X242607Y427922*
X242763Y428377*
X242919Y428717*
X243232Y428945*
X243544Y429058*
X244013*
X244325Y428945*
X244482Y428831*
X244638Y428490*
Y428036*
X244482Y427695*
X244325Y427581*
X244013Y427467*
X243544*
X243232Y427581*
X242919Y427808*
X242763Y428149*
X242607Y428604*
X242450Y428831*
X242138Y428945*
X241825*
X241513Y428831*
X241357Y428490*
Y428036*
X241825Y431445D02*
X241513Y431331D01*
X241357Y430990*
Y430763*
X241513Y430422*
X241982Y430195*
X242763Y430081*
X243544*
X244169Y430195*
X244482Y430422*
X244638Y430763*
Y430877*
X244482Y431217*
X244169Y431445*
X243700Y431558*
X243544*
X243075Y431445*
X242763Y431217*
X242607Y430877*
Y430763*
X242763Y430422*
X243075Y430195*
X243544Y430081*
X302501Y530271D02*
X302188Y530158D01*
X301876Y529930*
X301719Y529703*
Y529249*
X301876Y529021*
X302188Y528794*
X302501Y528680*
X302969Y528567*
X303751*
X304219Y528680*
X304532Y528794*
X304844Y529021*
X305001Y529249*
Y529703*
X304844Y529930*
X304532Y530158*
X304219Y530271*
X301719Y531862D02*
X301876Y531521D01*
X302188Y531408*
X302501*
X302813Y531521*
X302969Y531749*
X303126Y532203*
X303282Y532544*
X303594Y532771*
X303907Y532885*
X304376*
X304688Y532771*
X304844Y532658*
X305001Y532317*
Y531862*
X304844Y531521*
X304688Y531408*
X304376Y531294*
X303907*
X303594Y531408*
X303282Y531635*
X303126Y531976*
X302969Y532430*
X302813Y532658*
X302501Y532771*
X302188*
X301876Y532658*
X301719Y532317*
Y531862*
X313672Y544646D02*
X313985Y544760D01*
X314297Y544987*
X314454Y545214*
Y545669*
X314297Y545896*
X313985Y546124*
X313672Y546237*
X313204Y546351*
X312422*
X311954Y546237*
X311641Y546124*
X311329Y545896*
X311172Y545669*
Y545214*
X311329Y544987*
X311641Y544760*
X311954Y544646*
X313360Y542146D02*
X312891Y542260D01*
X312579Y542487*
X312422Y542828*
Y542942*
X312579Y543283*
X312891Y543510*
X313360Y543624*
X313516*
X313985Y543510*
X314297Y543283*
X314454Y542942*
Y542828*
X314297Y542487*
X313985Y542260*
X313360Y542146*
X312579*
X311797Y542260*
X311329Y542487*
X311172Y542828*
Y543055*
X311329Y543396*
X311641Y543510*
X378413Y533656D02*
X378299Y533968D01*
X378072Y534281*
X377845Y534437*
X377390*
X377163Y534281*
X376936Y533968*
X376822Y533656*
X376709Y533187*
Y532406*
X376822Y531937*
X376936Y531625*
X377163Y531312*
X377390Y531156*
X377845*
X378072Y531312*
X378299Y531625*
X378413Y531937*
X379436Y533812D02*
X379663Y533968D01*
X380004Y534437*
Y531156*
X382618Y534437D02*
X381481Y531156D01*
X381027Y534437D02*
X382618D01*
X438177Y698752D02*
X438490Y698866D01*
X438802Y699093*
X438958Y699320*
Y699775*
X438802Y700002*
X438490Y700229*
X438177Y700343*
X437708Y700457*
X436927*
X436458Y700343*
X436146Y700229*
X435833Y700002*
X435677Y699775*
Y699320*
X435833Y699093*
X436146Y698866*
X436458Y698752*
X438958Y697502D02*
Y696252D01*
X437708Y696934*
Y696593*
X437552Y696366*
X437396Y696252*
X436927Y696139*
X436615*
X436146Y696252*
X435833Y696479*
X435677Y696820*
Y697161*
X435833Y697502*
X435990Y697616*
X436302Y697729*
X438958Y693979D02*
X436771Y695116D01*
Y693411*
X438958Y693979D02*
X435677D01*
X444083Y690878D02*
X444395Y690992D01*
X444708Y691219*
X444864Y691446*
Y691901*
X444708Y692128*
X444395Y692355*
X444083Y692469*
X443614Y692583*
X442833*
X442364Y692469*
X442051Y692355*
X441739Y692128*
X441583Y691901*
Y691446*
X441739Y691219*
X442051Y690992*
X442364Y690878*
X444864Y689628D02*
Y688378D01*
X443614Y689060*
Y688719*
X443458Y688492*
X443301Y688378*
X442833Y688264*
X442520*
X442051Y688378*
X441739Y688605*
X441583Y688946*
Y689287*
X441739Y689628*
X441895Y689742*
X442208Y689855*
X444395Y685878D02*
X444708Y685992D01*
X444864Y686333*
Y686560*
X444708Y686901*
X444239Y687128*
X443458Y687242*
X442676*
X442051Y687128*
X441739Y686901*
X441583Y686560*
Y686446*
X441739Y686105*
X442051Y685878*
X442520Y685764*
X442676*
X443145Y685878*
X443458Y686105*
X443614Y686446*
Y686560*
X443458Y686901*
X443145Y687128*
X442676Y687242*
X219752Y310224D02*
X219638Y310537D01*
X219411Y310849*
X219184Y311006*
X218729*
X218502Y310849*
X218275Y310537*
X218161Y310224*
X218047Y309756*
Y308974*
X218161Y308506*
X218275Y308193*
X218502Y307881*
X218729Y307724*
X219184*
X219411Y307881*
X219638Y308193*
X219752Y308506*
X221343Y311006D02*
X221002Y310849D01*
X220888Y310537*
Y310224*
X221002Y309912*
X221229Y309756*
X221684Y309599*
X222025Y309443*
X222252Y309131*
X222365Y308818*
Y308349*
X222252Y308037*
X222138Y307881*
X221797Y307724*
X221343*
X221002Y307881*
X220888Y308037*
X220775Y308349*
Y308818*
X220888Y309131*
X221115Y309443*
X221456Y309599*
X221911Y309756*
X222138Y309912*
X222252Y310224*
Y310537*
X222138Y310849*
X221797Y311006*
X221343*
X224865D02*
X223729D01*
X223615Y309599*
X223729Y309756*
X224070Y309912*
X224411*
X224752Y309756*
X224979Y309443*
X225093Y308974*
X224979Y308662*
X224865Y308193*
X224638Y307881*
X224297Y307724*
X223956*
X223615Y307881*
X223502Y308037*
X223388Y308349*
X217783Y361406D02*
X217670Y361718D01*
X217442Y362031*
X217215Y362187*
X216761*
X216533Y362031*
X216306Y361718*
X216192Y361406*
X216079Y360937*
Y360156*
X216192Y359687*
X216306Y359374*
X216533Y359062*
X216761Y358906*
X217215*
X217442Y359062*
X217670Y359374*
X217783Y359687*
X219374Y362187D02*
X219033Y362031D01*
X218920Y361718*
Y361406*
X219033Y361093*
X219261Y360937*
X219715Y360781*
X220056Y360624*
X220283Y360312*
X220397Y359999*
Y359531*
X220283Y359218*
X220170Y359062*
X219829Y358906*
X219374*
X219033Y359062*
X218920Y359218*
X218806Y359531*
Y359999*
X218920Y360312*
X219147Y360624*
X219488Y360781*
X219942Y360937*
X220170Y361093*
X220283Y361406*
Y361718*
X220170Y362031*
X219829Y362187*
X219374*
X223011D02*
X221874Y358906D01*
X221420Y362187D02*
X223011D01*
X278807Y548413D02*
X278693Y548726D01*
X278466Y549038*
X278239Y549195*
X277784*
X277557Y549038*
X277330Y548726*
X277216Y548413*
X277102Y547945*
Y547163*
X277216Y546695*
X277330Y546382*
X277557Y546070*
X277784Y545913*
X278239*
X278466Y546070*
X278693Y546382*
X278807Y546695*
X281193Y548726D02*
X281080Y549038D01*
X280739Y549195*
X280511*
X280171Y549038*
X279943Y548570*
X279830Y547788*
Y547007*
X279943Y546382*
X280171Y546070*
X280511Y545913*
X280625*
X280966Y546070*
X281193Y546382*
X281307Y546851*
Y547007*
X281193Y547476*
X280966Y547788*
X280625Y547945*
X280511*
X280171Y547788*
X279943Y547476*
X279830Y547007*
X282557Y549195D02*
X283807D01*
X283125Y547945*
X283466*
X283693Y547788*
X283807Y547632*
X283921Y547163*
Y546851*
X283807Y546382*
X283580Y546070*
X283239Y545913*
X282898*
X282557Y546070*
X282443Y546226*
X282330Y546538*
X238615Y545326D02*
X238502Y545638D01*
X238274Y545951*
X238047Y546107*
X237593*
X237365Y545951*
X237138Y545638*
X237024Y545326*
X236911Y544857*
Y544076*
X237024Y543607*
X237138Y543295*
X237365Y542982*
X237593Y542826*
X238047*
X238274Y542982*
X238502Y543295*
X238615Y543607*
X241002Y545638D02*
X240888Y545951D01*
X240547Y546107*
X240320*
X239979Y545951*
X239752Y545482*
X239638Y544701*
Y543920*
X239752Y543295*
X239979Y542982*
X240320Y542826*
X240434*
X240774Y542982*
X241002Y543295*
X241115Y543763*
Y543920*
X241002Y544388*
X240774Y544701*
X240434Y544857*
X240320*
X239979Y544701*
X239752Y544388*
X239638Y543920*
X242706Y546107D02*
X242365Y545951D01*
X242252Y545638*
Y545326*
X242365Y545013*
X242593Y544857*
X243047Y544701*
X243388Y544545*
X243615Y544232*
X243729Y543920*
Y543451*
X243615Y543138*
X243502Y542982*
X243161Y542826*
X242706*
X242365Y542982*
X242252Y543138*
X242138Y543451*
Y543920*
X242252Y544232*
X242479Y544545*
X242820Y544701*
X243274Y544857*
X243502Y545013*
X243615Y545326*
Y545638*
X243502Y545951*
X243161Y546107*
X242706*
X235375Y534316D02*
X235489Y534004D01*
X235716Y533691*
X235943Y533535*
X236398*
X236625Y533691*
X236852Y534004*
X236966Y534316*
X237079Y534785*
Y535566*
X236966Y536035*
X236852Y536348*
X236625Y536660*
X236398Y536816*
X235943*
X235716Y536660*
X235489Y536348*
X235375Y536035*
X232989Y534004D02*
X233102Y533691D01*
X233443Y533535*
X233670*
X234011Y533691*
X234239Y534160*
X234352Y534941*
Y535723*
X234239Y536348*
X234011Y536660*
X233670Y536816*
X233557*
X233216Y536660*
X232989Y536348*
X232875Y535879*
Y535723*
X232989Y535254*
X233216Y534941*
X233557Y534785*
X233670*
X234011Y534941*
X234239Y535254*
X234352Y535723*
X230375Y534629D02*
X230489Y535098D01*
X230716Y535410*
X231057Y535566*
X231170*
X231511Y535410*
X231739Y535098*
X231852Y534629*
Y534473*
X231739Y534004*
X231511Y533691*
X231170Y533535*
X231057*
X230716Y533691*
X230489Y534004*
X230375Y534629*
Y535410*
X230489Y536191*
X230716Y536660*
X231057Y536816*
X231284*
X231625Y536660*
X231739Y536348*
X329988Y642902D02*
X329874Y643214D01*
X329647Y643527*
X329420Y643683*
X328965*
X328738Y643527*
X328511Y643214*
X328397Y642902*
X328283Y642433*
Y641652*
X328397Y641183*
X328511Y640870*
X328738Y640558*
X328965Y640402*
X329420*
X329647Y640558*
X329874Y640870*
X329988Y641183*
X332602Y643683D02*
X331465Y640402D01*
X331011Y643683D02*
X332602D01*
X333624Y643058D02*
X333852Y643214D01*
X334193Y643683*
Y640402*
X233000Y531107D02*
X233114Y530795D01*
X233341Y530482*
X233568Y530326*
X234023*
X234250Y530482*
X234477Y530795*
X234591Y531107*
X234704Y531576*
Y532357*
X234591Y532826*
X234477Y533139*
X234250Y533451*
X234023Y533607*
X233568*
X233341Y533451*
X233114Y533139*
X233000Y532826*
X230500Y530326D02*
X231636D01*
X231750Y531732*
X231636Y531576*
X231295Y531420*
X230954*
X230614Y531576*
X230386Y531889*
X230273Y532357*
X230386Y532670*
X230500Y533139*
X230727Y533451*
X231068Y533607*
X231409*
X231750Y533451*
X231864Y533295*
X231977Y532982*
X227886Y530795D02*
X228000Y530482D01*
X228341Y530326*
X228568*
X228909Y530482*
X229136Y530951*
X229250Y531732*
Y532514*
X229136Y533139*
X228909Y533451*
X228568Y533607*
X228454*
X228114Y533451*
X227886Y533139*
X227773Y532670*
Y532514*
X227886Y532045*
X228114Y531732*
X228454Y531576*
X228568*
X228909Y531732*
X229136Y532045*
X229250Y532514*
X278532Y550204D02*
X278220Y550090D01*
X277907Y549863*
X277751Y549635*
Y549181*
X277907Y548954*
X278220Y548726*
X278532Y548613*
X279001Y548499*
X279782*
X280251Y548613*
X280563Y548726*
X280876Y548954*
X281032Y549181*
Y549635*
X280876Y549863*
X280563Y550090*
X280251Y550204*
X278220Y552590D02*
X277907Y552476D01*
X277751Y552135*
Y551908*
X277907Y551567*
X278376Y551340*
X279157Y551226*
X279938*
X280563Y551340*
X280876Y551567*
X281032Y551908*
Y552022*
X280876Y552363*
X280563Y552590*
X280095Y552704*
X279938*
X279470Y552590*
X279157Y552363*
X279001Y552022*
Y551908*
X279157Y551567*
X279470Y551340*
X279938Y551226*
X268245Y529931D02*
X268131Y530243D01*
X267904Y530556*
X267676Y530712*
X267222*
X266995Y530556*
X266767Y530243*
X266654Y529931*
X266540Y529462*
Y528681*
X266654Y528212*
X266767Y527899*
X266995Y527587*
X267222Y527431*
X267676*
X267904Y527587*
X268131Y527899*
X268245Y528212*
X270631Y530243D02*
X270517Y530556D01*
X270176Y530712*
X269949*
X269608Y530556*
X269381Y530087*
X269267Y529306*
Y528524*
X269381Y527899*
X269608Y527587*
X269949Y527431*
X270063*
X270404Y527587*
X270631Y527899*
X270745Y528368*
Y528524*
X270631Y528993*
X270404Y529306*
X270063Y529462*
X269949*
X269608Y529306*
X269381Y528993*
X269267Y528524*
X272904Y530712D02*
X271767Y528524D01*
X273472*
X272904Y530712D02*
Y527431D01*
X313024Y515321D02*
X313337Y515435D01*
X313649Y515662*
X313805Y515889*
Y516344*
X313649Y516571*
X313337Y516798*
X313024Y516912*
X312555Y517026*
X311774*
X311305Y516912*
X310993Y516798*
X310680Y516571*
X310524Y516344*
Y515889*
X310680Y515662*
X310993Y515435*
X311305Y515321*
X313805Y512707D02*
X310524Y513844D01*
X313805Y514298D02*
Y512707D01*
X436209Y614106D02*
X436521Y614220D01*
X436834Y614447*
X436990Y614675*
Y615129*
X436834Y615356*
X436521Y615584*
X436209Y615697*
X435740Y615811*
X434959*
X434490Y615697*
X434177Y615584*
X433865Y615356*
X433709Y615129*
Y614675*
X433865Y614447*
X434177Y614220*
X434490Y614106*
X436990Y612516D02*
X436834Y612856D01*
X436521Y612970*
X436209*
X435896Y612856*
X435740Y612629*
X435584Y612175*
X435427Y611834*
X435115Y611606*
X434802Y611493*
X434334*
X434021Y611606*
X433865Y611720*
X433709Y612061*
Y612516*
X433865Y612856*
X434021Y612970*
X434334Y613084*
X434802*
X435115Y612970*
X435427Y612743*
X435584Y612402*
X435740Y611947*
X435896Y611720*
X436209Y611606*
X436521*
X436834Y611720*
X436990Y612061*
Y612516*
Y610243D02*
Y608993D01*
X435740Y609675*
Y609334*
X435584Y609106*
X435427Y608993*
X434959Y608879*
X434646*
X434177Y608993*
X433865Y609220*
X433709Y609561*
Y609902*
X433865Y610243*
X434021Y610356*
X434334Y610470*
X357633Y703723D02*
X360915D01*
X357633D02*
Y704519D01*
X357790Y704859*
X358102Y705087*
X358415Y705200*
X358883Y705314*
X359665*
X360133Y705200*
X360446Y705087*
X360758Y704859*
X360915Y704519*
Y703723*
X358258Y706337D02*
X358102Y706564D01*
X357633Y706905*
X360915*
X337948Y703723D02*
X341230D01*
X337948D02*
Y704519D01*
X338105Y704859*
X338417Y705087*
X338730Y705200*
X339198Y705314*
X339980*
X340448Y705200*
X340761Y705087*
X341073Y704859*
X341230Y704519*
Y703723*
X338730Y706450D02*
X338573D01*
X338261Y706564*
X338105Y706678*
X337948Y706905*
Y707359*
X338105Y707587*
X338261Y707700*
X338573Y707814*
X338886*
X339198Y707700*
X339667Y707473*
X341230Y706337*
Y707928*
X406846Y687975D02*
X410127D01*
X406846D02*
Y688771D01*
X407002Y689111*
X407315Y689339*
X407627Y689452*
X408096Y689566*
X408877*
X409346Y689452*
X409659Y689339*
X409971Y689111*
X410127Y688771*
Y687975*
X406846Y690816D02*
Y692066D01*
X408096Y691384*
Y691725*
X408252Y691952*
X408409Y692066*
X408877Y692180*
X409190*
X409659Y692066*
X409971Y691839*
X410127Y691498*
Y691157*
X409971Y690816*
X409815Y690702*
X409502Y690589*
X383224Y686007D02*
X386505D01*
X383224D02*
Y686802D01*
X383380Y687143*
X383693Y687370*
X384005Y687484*
X384474Y687597*
X385255*
X385724Y687484*
X386036Y687370*
X386036D02*
X386349Y687143D01*
X386505Y686802*
Y686007*
X383224Y689757D02*
X385411Y688620D01*
X385411D02*
Y690325D01*
X383224Y689757D02*
X386505D01*
X343854Y632857D02*
X347135D01*
X343854D02*
Y633652D01*
X344010Y633993*
X344323Y634221*
X344635Y634334*
X345104Y634448*
X345885*
X346354Y634334*
X346666Y634221*
X346979Y633993*
X347135Y633652*
Y632857*
X344323Y636834D02*
X344010Y636721D01*
X343854Y636380*
Y636152*
X344010Y635812*
X344010D02*
X344479Y635584D01*
X345260Y635471*
X346041*
X346666Y635584*
X346979Y635812*
X346979D02*
X347135Y636152D01*
Y636266*
X346979Y636607*
X346666Y636834*
X346198Y636948*
X346041*
X345573Y636834*
X345260Y636607*
X345104Y636266*
Y636152*
X345260Y635812*
X345260D02*
X345573Y635584D01*
X346041Y635471*
X219838Y314641D02*
X219994Y314414D01*
X220307Y314187*
X220619Y314073*
X221088Y313959*
X221869*
X222338Y314073*
X222651Y314187*
X222963Y314414*
X223119Y314641*
Y315096*
X222963Y315323*
X222651Y315550*
X222338Y315664*
X221869Y315777*
X221869D02*
X221088D01*
X221088D02*
X220619Y315664D01*
X220307Y315550*
X219994Y315323*
X219838Y315096*
Y314641*
X222494Y314982D02*
X223432Y315664D01*
X219838Y318277D02*
Y317141D01*
X221244Y317027*
X221244D02*
X221088Y317141D01*
X220932Y317482*
Y317823*
X221088Y318164*
X221401Y318391*
X221869Y318505*
X222182Y318391*
X222651Y318277*
X222651D02*
X222963Y318050D01*
X223119Y317709*
Y317368*
X222963Y317027*
X222963D02*
X222807Y316914D01*
X222494Y316800*
X219838Y391413D02*
X219994Y391186D01*
X220307Y390958*
X220619Y390845*
X221088Y390731*
X221869*
X222338Y390845*
X222651Y390958*
X222963Y391186*
X223119Y391413*
Y391867*
X222963Y392095*
X222651Y392322*
X222338Y392436*
X221869Y392549*
X221088*
X220619Y392436*
X220307Y392322*
X219994Y392095*
X219838Y391867*
Y391413*
X222494Y391754D02*
X223432Y392436D01*
X219838Y395163D02*
X223119Y394026D01*
X219838Y393572D02*
Y395163D01*
Y365822D02*
X219994Y365595D01*
X220307Y365368*
X220619Y365254*
X221088Y365140*
X221869*
X222338Y365254*
X222651Y365368*
X222963Y365595*
X223119Y365822*
Y366277*
X222963Y366504*
X222651Y366731*
X222338Y366845*
X221869Y366959*
X221088*
X220619Y366845*
X220307Y366731*
X219994Y366504*
X219838Y366277*
Y365822*
X222494Y366163D02*
X223432Y366845D01*
X219838Y368550D02*
X219994Y368209D01*
X220307Y368095*
X220619*
X220932Y368209*
X221088Y368436*
X221244Y368890*
X221401Y369231*
X221713Y369459*
X222026Y369572*
X222494*
X222807Y369459*
X222963Y369345*
X223119Y369004*
Y368550*
X222963Y368209*
X222807Y368095*
X222494Y367981*
X222026*
X221713Y368095*
X221401Y368322*
X221244Y368663*
X221088Y369118*
X220932Y369345*
X220619Y369459*
X220307*
X219994Y369345*
X219838Y369004*
Y368550*
Y413066D02*
X219994Y412839D01*
X220307Y412612*
X220619Y412498*
X221088Y412385*
X221869*
X222338Y412498*
X222651Y412612*
X222963Y412839*
X223119Y413066*
Y413521*
X222963Y413748*
X222651Y413975*
X222338Y414089*
X221869Y414203*
X221088*
X220619Y414089*
X220307Y413975*
X219994Y413748*
X219838Y413521*
Y413066*
X222494Y413407D02*
X223432Y414089D01*
X220307Y416589D02*
X219994Y416475D01*
X219838Y416135*
Y415907*
X219994Y415566*
X220463Y415339*
X221244Y415225*
X222026*
X222651Y415339*
X222963Y415566*
X223119Y415907*
Y416021*
X222963Y416362*
X222651Y416589*
X222182Y416703*
X222026*
X221557Y416589*
X221244Y416362*
X221088Y416021*
Y415907*
X221244Y415566*
X221557Y415339*
X222026Y415225*
X343854Y651255D02*
X344010Y651028D01*
X344323Y650801*
X344635Y650687*
X345104Y650573*
X345885*
X346354Y650687*
X346666Y650801*
X346979Y651028*
X347135Y651255*
Y651710*
X346979Y651937*
X346666Y652164*
X346354Y652278*
X345885Y652392*
X345104*
X344635Y652278*
X344323Y652164*
X344010Y651937*
X343854Y651710*
Y651255*
X346510Y651596D02*
X347448Y652278D01*
X343854Y653642D02*
Y654892D01*
X345104Y654210*
Y654551*
X345260Y654778*
X345416Y654892*
X345885Y655005*
X346198*
X346666Y654892*
X346979Y654664*
X347135Y654323*
Y653983*
X346979Y653642*
X346823Y653528*
X346510Y653414*
X343854Y668972D02*
X344010Y668745D01*
X344323Y668517*
X344635Y668404*
X345104Y668290*
X345885*
X346354Y668404*
X346666Y668517*
X346979Y668745*
X347135Y668972*
Y669426*
X346979Y669654*
X346666Y669881*
X346354Y669995*
X345885Y670108*
X345104*
X344635Y669995*
X344323Y669881*
X344010Y669654*
X343854Y669426*
Y668972*
X346510Y669313D02*
X347448Y669995D01*
X344479Y671131D02*
X344323Y671358D01*
X343854Y671699*
X347135*
X343854Y615822D02*
X344010Y615595D01*
X344323Y615368*
X344635Y615254*
X345104Y615140*
X345885*
X346354Y615254*
X346666Y615368*
X346979Y615595*
X347135Y615822*
Y616277*
X346979Y616504*
X346666Y616731*
X346354Y616845*
X345885Y616959*
X345104*
X344635Y616845*
X344323Y616731*
X344010Y616504*
X343854Y616277*
Y615822*
X346510Y616163D02*
X347448Y616845D01*
X343854Y619118D02*
X346041Y617981D01*
Y619686*
X343854Y619118D02*
X347135D01*
X326137Y615822D02*
X326294Y615595D01*
X326606Y615368*
X326919Y615254*
X327387Y615140*
X328169*
X328637Y615254*
X328950Y615368*
X329262Y615595*
X329419Y615822*
Y616277*
X329262Y616504*
X328950Y616731*
X328637Y616845*
X328169Y616959*
X327387*
X326919Y616845*
X326606Y616731*
X326294Y616504*
X326137Y616277*
Y615822*
X328794Y616163D02*
X329731Y616845D01*
X326919Y618095D02*
X326762D01*
X326450Y618209*
X326294Y618322*
X326137Y618550*
Y619004*
X326294Y619231*
X326450Y619345*
X326762Y619459*
X327075*
X327387Y619345*
X327856Y619118*
X329419Y617981*
Y619572*
X219838Y446531D02*
X219994Y446304D01*
X220307Y446076*
X220619Y445963*
X221088Y445849*
X221869*
X222338Y445963*
X222651Y446076*
X222963Y446304*
X223119Y446531*
Y446985*
X222963Y447213*
X222651Y447440*
X222338Y447554*
X221869Y447667*
X221088*
X220619Y447554*
X220307Y447440*
X219994Y447213*
X219838Y446985*
Y446531*
X222494Y446872D02*
X223432Y447554D01*
X220932Y450167D02*
X221401Y450054D01*
X221713Y449826*
X221869Y449485*
Y449372*
X221713Y449031*
X221401Y448804*
X220932Y448690*
X220776*
X220307Y448804*
X219994Y449031*
X219838Y449372*
Y449485*
X219994Y449826*
X220307Y450054*
X220932Y450167*
X221713*
X222494Y450054*
X222963Y449826*
X223119Y449485*
Y449258*
X222963Y448917*
X222651Y448804*
X382857Y450634D02*
Y447353D01*
Y450634D02*
X383652D01*
X383993Y450478*
X384221Y450166*
X384334Y449853*
X384448Y449384*
Y448603*
X384334Y448134*
X384221Y447822*
X383993Y447509*
X383652Y447353*
X382857*
X385471Y450009D02*
X385698Y450166D01*
X386039Y450634*
Y447353*
X387743Y450634D02*
X387402Y450478D01*
X387175Y450009*
X387062Y449228*
X387062D02*
Y448759D01*
X387062D02*
X387175Y447978D01*
X387402Y447509*
X387743Y447353*
X387971*
X388312Y447509*
X388312D02*
X388539Y447978D01*
X388652Y448759*
Y449228*
X388539Y450009*
X388312Y450478*
X388312D02*
X387971Y450634D01*
X387743*
X382857Y135674D02*
Y132392D01*
Y135674D02*
X383652D01*
X383993Y135517*
X384221Y135205*
X384334Y134892*
X384448Y134424*
Y133642*
X384334Y133174*
X384221Y132861*
X383993Y132549*
X383652Y132392*
X382857*
X385698Y135674D02*
X386948D01*
X386266Y134424*
X386607*
X386834Y134267*
X386948Y134111*
X387062Y133642*
X387062D02*
Y133330D01*
X387062D02*
X386948Y132861D01*
X386721Y132549*
X386380Y132392*
X386039*
X385698Y132549*
X385584Y132705*
X385471Y133017*
X389675Y135674D02*
X388539Y132392D01*
X388084Y135674D02*
X389675D01*
X162385Y411264D02*
Y407983D01*
Y411264D02*
X163180D01*
X163521Y411108*
X163748Y410795*
X163862Y410483*
X163975Y410014*
Y409233*
X163862Y408764*
X163748Y408452*
X163521Y408139*
X163180Y407983*
X162385*
X164998Y410639D02*
X165225Y410795D01*
X165566Y411264*
Y407983*
X166703Y410483D02*
Y410639D01*
X166816Y410952*
X166930Y411108*
X167157Y411264*
X167612*
X167839Y411108*
X167953Y410952*
X168066Y410639*
Y410327*
X167953Y410014*
X167725Y409545*
X166589Y407983*
X168180*
X272621Y411264D02*
Y407983D01*
Y411264D02*
X273416D01*
X273757Y411108*
X273984Y410795*
X274098Y410483*
X274212Y410014*
Y409233*
X274098Y408764*
X273984Y408452*
X273757Y408139*
X273416Y407983*
X272621*
X275234Y410639D02*
X275462Y410795D01*
X275803Y411264*
Y407983*
X277053Y411264D02*
X278303D01*
X277621Y410014*
X277962*
X278189Y409858*
X278303Y409702*
X278416Y409233*
Y408920*
X278303Y408452*
X278075Y408139*
X277734Y407983*
X277393*
X277053Y408139*
X276939Y408295*
X276825Y408608*
X382857Y411264D02*
Y407983D01*
Y411264D02*
X383652D01*
X383993Y411108*
X384221Y410795*
X384334Y410483*
X384448Y410014*
Y409233*
X384334Y408764*
X384221Y408452*
X383993Y408139*
X383652Y407983*
X382857*
X385471Y410639D02*
X385698Y410795D01*
X386039Y411264*
Y407983*
X388198Y411264D02*
X387062Y409077D01*
X387062D02*
X388766D01*
X388198Y411264D02*
Y407983D01*
X272456Y135976D02*
Y132695D01*
Y135976D02*
X273251D01*
X273592Y135820*
X273819Y135507*
X273933Y135195*
X274047Y134726*
Y133945*
X273933Y133476*
X273819Y133163*
X273592Y132851*
X273251Y132695*
X272456*
X275297Y135976D02*
X276547D01*
X275865Y134726*
X276206*
X276433Y134570*
X276547Y134413*
X276660Y133945*
Y133632*
X276547Y133163*
X276319Y132851*
X275979Y132695*
X275638*
X275297Y132851*
X275183Y133007*
X275069Y133320*
X278251Y135976D02*
X277910Y135820D01*
X277797Y135507*
Y135195*
X277910Y134882*
X278138Y134726*
X278592Y134570*
X278933Y134413*
X279160Y134101*
X279274Y133788*
Y133320*
X279160Y133007*
X279047Y132851*
X278706Y132695*
X278251*
X277910Y132851*
X277797Y133007*
X277683Y133320*
Y133788*
X277797Y134101*
X278024Y134413*
X278365Y134570*
X278819Y134726*
X279047Y134882*
X279160Y135195*
Y135507*
X279047Y135820*
X278706Y135976*
X278251*
X162385Y371894D02*
Y368613D01*
Y371894D02*
X163180D01*
X163521Y371738*
X163748Y371425*
X163862Y371113*
X163975Y370644*
Y369863*
X163862Y369394*
X163748Y369082*
X163521Y368769*
X163180Y368613*
X162385*
X164998Y371269D02*
X165225Y371425D01*
X165566Y371894*
Y368613*
X167953Y371425D02*
X167839Y371738D01*
X167498Y371894*
X167271*
X166930Y371738*
X166703Y371269*
X166589Y370488*
Y369707*
X166703Y369082*
X166930Y368769*
X167271Y368613*
X167385*
X167725Y368769*
X167953Y369082*
X168066Y369550*
Y369707*
X167953Y370175*
X167725Y370488*
X167385Y370644*
X167271*
X166930Y370488*
X166703Y370175*
X166589Y369707*
X272621Y371894D02*
Y368613D01*
Y371894D02*
X273416D01*
X273757Y371738*
X273984Y371425*
X274098Y371113*
X274212Y370644*
Y369863*
X274098Y369394*
X273984Y369082*
X273757Y368769*
X273416Y368613*
X272621*
X275234Y371269D02*
X275462Y371425D01*
X275803Y371894*
Y368613*
X278416Y371894D02*
X277280Y368613D01*
X276825Y371894D02*
X278416D01*
X382857D02*
Y368613D01*
Y371894D02*
X383652D01*
X383993Y371738*
X384221Y371425*
X384334Y371113*
X384448Y370644*
Y369863*
X384334Y369394*
X384221Y369082*
X383993Y368769*
X383652Y368613*
X382857*
X385471Y371269D02*
X385698Y371425D01*
X386039Y371894*
Y368613*
X387630Y371894D02*
X387289Y371738D01*
X387175Y371425*
Y371113*
X387289Y370800*
X387516Y370644*
X387971Y370488*
X388312Y370332*
X388312D02*
X388539Y370019D01*
X388652Y369707*
Y369238*
X388539Y368925*
X388425Y368769*
X388084Y368613*
X387630*
X387289Y368769*
X387175Y368925*
X387062Y369238*
X387062D02*
Y369707D01*
X387062D02*
X387175Y370019D01*
X387402Y370332*
X387743Y370488*
X388198Y370644*
X388425Y370800*
X388539Y371113*
Y371425*
X388425Y371738*
X388084Y371894*
X387630*
X382857Y175044D02*
Y171762D01*
Y175044D02*
X383652D01*
X383993Y174887*
X384221Y174575*
X384334Y174262*
X384448Y173794*
Y173012*
X384334Y172544*
X384221Y172231*
X383993Y171919*
X383652Y171762*
X382857*
X385698Y175044D02*
X386948D01*
X386266Y173794*
X386607*
X386834Y173637*
X386948Y173481*
X387062Y173012*
X387062D02*
Y172700D01*
X387062D02*
X386948Y172231D01*
X386721Y171919*
X386380Y171762*
X386039*
X385698Y171919*
X385584Y172075*
X385471Y172387*
X389562Y173950D02*
X389448Y173481D01*
X389221Y173169*
X388880Y173012*
X388766*
X388425Y173169*
X388198Y173481*
X388084Y173950*
Y174106*
X388198Y174575*
X388425Y174887*
X388766Y175044*
X388880*
X389221Y174887*
X389448Y174575*
X389562Y173950*
X389562D02*
Y173169D01*
X389562D02*
X389448Y172387D01*
X389221Y171919*
X388880Y171762*
X388652*
X388312Y171919*
X388312D02*
X388198Y172231D01*
X162385Y332524D02*
Y329243D01*
Y332524D02*
X163180D01*
X163521Y332368*
X163748Y332055*
X163862Y331743*
X163975Y331274*
Y330493*
X163862Y330024*
X163748Y329712*
X163521Y329399*
X163180Y329243*
X162385*
X165112Y331743D02*
Y331899D01*
X165225Y332212*
X165339Y332368*
X165566Y332524*
X166021*
X166248Y332368*
X166362Y332212*
X166475Y331899*
Y331587*
X166362Y331274*
X166135Y330805*
X164998Y329243*
X166589*
X168294Y332524D02*
X167953Y332368D01*
X167725Y331899*
X167612Y331118*
Y330649*
X167725Y329868*
X167953Y329399*
X168294Y329243*
X168521*
X168862Y329399*
X169089Y329868*
X169203Y330649*
Y331118*
X169089Y331899*
X168862Y332368*
X168521Y332524*
X168294*
X272621D02*
Y329243D01*
Y332524D02*
X273416D01*
X273757Y332368*
X273984Y332055*
X274098Y331743*
X274212Y331274*
Y330493*
X274098Y330024*
X273984Y329712*
X273757Y329399*
X273416Y329243*
X272621*
X275348Y331743D02*
Y331899D01*
X275462Y332212*
X275575Y332368*
X275803Y332524*
X276257*
X276484Y332368*
X276598Y332212*
X276712Y331899*
Y331587*
X276598Y331274*
X276371Y330805*
X275234Y329243*
X276825*
X277848Y331899D02*
X278075Y332055D01*
X278416Y332524*
Y329243*
X382857Y332524D02*
Y329243D01*
Y332524D02*
X383652D01*
X383993Y332368*
X384221Y332055*
X384334Y331743*
X384448Y331274*
Y330493*
X384334Y330024*
X384221Y329712*
X383993Y329399*
X383652Y329243*
X382857*
X385584Y331743D02*
Y331899D01*
X385698Y332212*
X385812Y332368*
X385812D02*
X386039Y332524D01*
X386493*
X386721Y332368*
X386834Y332212*
X386948Y331899*
Y331587*
X386834Y331274*
X386607Y330805*
X385471Y329243*
X387062*
X388198Y331743D02*
Y331899D01*
X388312Y332212*
X388312D02*
X388425Y332368D01*
X388652Y332524*
X389107*
X389334Y332368*
X389448Y332212*
X389562Y331899*
X389562D02*
Y331587D01*
X389562D02*
X389448Y331274D01*
X389221Y330805*
X388084Y329243*
X389675*
X272621Y175044D02*
Y171762D01*
Y175044D02*
X273416D01*
X273757Y174887*
X273984Y174575*
X274098Y174262*
X274212Y173794*
Y173012*
X274098Y172544*
X273984Y172231*
X273757Y171919*
X273416Y171762*
X272621*
X276371Y175044D02*
X275234Y172856D01*
X276939*
X276371Y175044D02*
Y171762D01*
X278643Y175044D02*
X278303Y174887D01*
X278075Y174419*
X277962Y173637*
Y173169*
X278075Y172387*
X278303Y171919*
X278643Y171762*
X278871*
X279212Y171919*
X279439Y172387*
X279553Y173169*
Y173637*
X279439Y174419*
X279212Y174887*
X278871Y175044*
X278643*
X162385Y293154D02*
Y289873D01*
Y293154D02*
X163180D01*
X163521Y292998*
X163748Y292685*
X163862Y292373*
X163975Y291904*
Y291123*
X163862Y290654*
X163748Y290341*
X163521Y290029*
X163180Y289873*
X162385*
X165112Y292373D02*
Y292529D01*
X165225Y292841*
X165339Y292998*
X165566Y293154*
X166021*
X166248Y292998*
X166362Y292841*
X166475Y292529*
Y292216*
X166362Y291904*
X166135Y291435*
X164998Y289873*
X166589*
X169089Y293154D02*
X167953D01*
X167839Y291748*
X167953Y291904*
X168294Y292060*
X168635*
X168975Y291904*
X169203Y291591*
X169316Y291123*
X169203Y290810*
X169089Y290341*
X168862Y290029*
X168521Y289873*
X168180*
X167839Y290029*
X167725Y290185*
X167612Y290498*
X272621Y293154D02*
Y289873D01*
Y293154D02*
X273416D01*
X273757Y292998*
X273984Y292685*
X274098Y292373*
X274212Y291904*
Y291123*
X274098Y290654*
X273984Y290341*
X273757Y290029*
X273416Y289873*
X272621*
X275348Y292373D02*
Y292529D01*
X275462Y292841*
X275575Y292998*
X275803Y293154*
X276257*
X276484Y292998*
X276598Y292841*
X276712Y292529*
Y292216*
X276598Y291904*
X276371Y291435*
X275234Y289873*
X276825*
X279212Y292685D02*
X279098Y292998D01*
X278757Y293154*
X278530*
X278189Y292998*
X277962Y292529*
X277848Y291748*
Y290966*
X277962Y290341*
X278189Y290029*
X278530Y289873*
X278643*
X278984Y290029*
X279212Y290341*
X279325Y290810*
Y290966*
X279212Y291435*
X278984Y291748*
X278643Y291904*
X278530*
X278189Y291748*
X277962Y291435*
X277848Y290966*
X382857Y293154D02*
Y289873D01*
Y293154D02*
X383652D01*
X383993Y292998*
X384221Y292685*
X384334Y292373*
X384448Y291904*
Y291123*
X384334Y290654*
X384221Y290341*
X383993Y290029*
X383652Y289873*
X382857*
X385584Y292373D02*
Y292529D01*
X385698Y292841*
X385812Y292998*
X385812D02*
X386039Y293154D01*
X386493*
X386721Y292998*
X386834Y292841*
X386948Y292529*
Y292216*
X386834Y291904*
X386607Y291435*
X385471Y289873*
X387062*
X389675Y293154D02*
X388539Y289873D01*
X388084Y293154D02*
X389675D01*
X162385Y253784D02*
Y250503D01*
Y253784D02*
X163180D01*
X163521Y253628*
X163748Y253315*
X163862Y253003*
X163975Y252534*
Y251753*
X163862Y251284*
X163748Y250971*
X163521Y250659*
X163180Y250503*
X162385*
X165112Y253003D02*
Y253159D01*
X165225Y253471*
X165339Y253628*
X165566Y253784*
X166021*
X166248Y253628*
X166362Y253471*
X166475Y253159*
Y252846*
X166362Y252534*
X166135Y252065*
X164998Y250503*
X166589*
X169089Y252690D02*
X168975Y252221D01*
X168748Y251909*
X168407Y251753*
X168294*
X167953Y251909*
X167725Y252221*
X167612Y252690*
Y252846*
X167725Y253315*
X167953Y253628*
X168294Y253784*
X168407*
X168748Y253628*
X168975Y253315*
X169089Y252690*
Y251909*
X168975Y251128*
X168748Y250659*
X168407Y250503*
X168180*
X167839Y250659*
X167725Y250971*
X272621Y253784D02*
Y250503D01*
Y253784D02*
X273416D01*
X273757Y253628*
X273984Y253315*
X274098Y253003*
X274212Y252534*
Y251753*
X274098Y251284*
X273984Y250971*
X273757Y250659*
X273416Y250503*
X272621*
X275462Y253784D02*
X276712D01*
X276030Y252534*
X276371*
X276598Y252378*
X276712Y252221*
X276825Y251753*
Y251440*
X276712Y250971*
X276484Y250659*
X276143Y250503*
X275803*
X275462Y250659*
X275348Y250815*
X275234Y251128*
X278530Y253784D02*
X278189Y253628D01*
X277962Y253159*
X277848Y252378*
Y251909*
X277962Y251128*
X278189Y250659*
X278530Y250503*
X278757*
X279098Y250659*
X279325Y251128*
X279439Y251909*
Y252378*
X279325Y253159*
X279098Y253628*
X278757Y253784*
X278530*
X382857D02*
Y250503D01*
Y253784D02*
X383652D01*
X383993Y253628*
X384221Y253315*
X384334Y253003*
X384448Y252534*
Y251753*
X384334Y251284*
X384221Y250971*
X383993Y250659*
X383652Y250503*
X382857*
X385698Y253784D02*
X386948D01*
X386266Y252534*
X386607*
X386834Y252378*
X386948Y252221*
X387062Y251753*
X387062D02*
Y251440D01*
X387062D02*
X386948Y250971D01*
X386721Y250659*
X386380Y250503*
X386039*
X385698Y250659*
X385584Y250815*
X385471Y251128*
X388084Y253159D02*
X388312Y253315D01*
X388312D02*
X388652Y253784D01*
Y250503*
X162385Y175044D02*
Y171762D01*
Y175044D02*
X163180D01*
X163521Y174887*
X163748Y174575*
X163862Y174262*
X163975Y173794*
Y173012*
X163862Y172544*
X163748Y172231*
X163521Y171919*
X163180Y171762*
X162385*
X165225Y175044D02*
X166475D01*
X165794Y173794*
X166135*
X166362Y173637*
X166475Y173481*
X166589Y173012*
Y172700*
X166475Y172231*
X166248Y171919*
X165907Y171762*
X165566*
X165225Y171919*
X165112Y172075*
X164998Y172387*
X167725Y174262D02*
Y174419D01*
X167839Y174731*
X167953Y174887*
X168180Y175044*
X168635*
X168862Y174887*
X168975Y174731*
X169089Y174419*
Y174106*
X168975Y173794*
X168748Y173325*
X167612Y171762*
X169203*
X162385Y214414D02*
Y211133D01*
Y214414D02*
X163180D01*
X163521Y214258*
X163748Y213945*
X163862Y213633*
X163975Y213164*
Y212383*
X163862Y211914*
X163748Y211601*
X163521Y211289*
X163180Y211133*
X162385*
X165225Y214414D02*
X166475D01*
X165794Y213164*
X166135*
X166362Y213008*
X166475Y212851*
X166589Y212383*
Y212070*
X166475Y211601*
X166248Y211289*
X165907Y211133*
X165566*
X165225Y211289*
X165112Y211445*
X164998Y211758*
X167839Y214414D02*
X169089D01*
X168407Y213164*
X168748*
X168975Y213008*
X169089Y212851*
X169203Y212383*
Y212070*
X169089Y211601*
X168862Y211289*
X168521Y211133*
X168180*
X167839Y211289*
X167725Y211445*
X167612Y211758*
X272621Y214414D02*
Y211133D01*
Y214414D02*
X273416D01*
X273757Y214258*
X273984Y213945*
X274098Y213633*
X274212Y213164*
Y212383*
X274098Y211914*
X273984Y211601*
X273757Y211289*
X273416Y211133*
X272621*
X275462Y214414D02*
X276712D01*
X276030Y213164*
X276371*
X276598Y213008*
X276712Y212851*
X276825Y212383*
Y212070*
X276712Y211601*
X276484Y211289*
X276143Y211133*
X275803*
X275462Y211289*
X275348Y211445*
X275234Y211758*
X278984Y214414D02*
X277848Y212226D01*
X279553*
X278984Y214414D02*
Y211133D01*
X382857Y214414D02*
Y211133D01*
Y214414D02*
X383652D01*
X383993Y214258*
X384221Y213945*
X384334Y213633*
X384448Y213164*
Y212383*
X384334Y211914*
X384221Y211601*
X383993Y211289*
X383652Y211133*
X382857*
X385698Y214414D02*
X386948D01*
X386266Y213164*
X386607*
X386834Y213008*
X386948Y212851*
X387062Y212383*
X387062D02*
Y212070D01*
X387062D02*
X386948Y211601D01*
X386721Y211289*
X386380Y211133*
X386039*
X385698Y211289*
X385584Y211445*
X385471Y211758*
X389562Y214414D02*
X388425D01*
X388312Y213008*
X388312D02*
X388425Y213164D01*
X388766Y213320*
X389107*
X389448Y213164*
X389675Y212851*
X389789Y212383*
X389675Y212070*
X389562Y211601*
X389562D02*
X389334Y211289D01*
X388993Y211133*
X388652*
X388312Y211289*
X388312D02*
X388198Y211445D01*
X388084Y211758*
X162385Y135674D02*
Y132392D01*
Y135674D02*
X163180D01*
X163521Y135517*
X163748Y135205*
X163862Y134892*
X163975Y134424*
Y133642*
X163862Y133174*
X163748Y132861*
X163521Y132549*
X163180Y132392*
X162385*
X165225Y135674D02*
X166475D01*
X165794Y134424*
X166135*
X166362Y134267*
X166475Y134111*
X166589Y133642*
Y133330*
X166475Y132861*
X166248Y132549*
X165907Y132392*
X165566*
X165225Y132549*
X165112Y132705*
X164998Y133017*
X168975Y135205D02*
X168862Y135517D01*
X168521Y135674*
X168294*
X167953Y135517*
X167725Y135049*
X167612Y134267*
Y133486*
X167725Y132861*
X167953Y132549*
X168294Y132392*
X168407*
X168748Y132549*
X168975Y132861*
X169089Y133330*
Y133486*
X168975Y133955*
X168748Y134267*
X168407Y134424*
X168294*
X167953Y134267*
X167725Y133955*
X167612Y133486*
X162385Y450634D02*
Y447353D01*
Y450634D02*
X163180D01*
X163521Y450478*
X163748Y450166*
X163862Y449853*
X163975Y449384*
Y448603*
X163862Y448134*
X163748Y447822*
X163521Y447509*
X163180Y447353*
X162385*
X165566Y450634D02*
X165225Y450478D01*
X165112Y450166*
Y449853*
X165225Y449541*
X165453Y449384*
X165907Y449228*
X166248Y449072*
X166475Y448759*
X166589Y448447*
Y447978*
X166475Y447666*
X166362Y447509*
X166021Y447353*
X165566*
X165225Y447509*
X165112Y447666*
X164998Y447978*
Y448447*
X165112Y448759*
X165339Y449072*
X165680Y449228*
X166135Y449384*
X166362Y449541*
X166475Y449853*
Y450166*
X166362Y450478*
X166021Y450634*
X165566*
X272621D02*
Y447353D01*
Y450634D02*
X273416D01*
X273757Y450478*
X273984Y450166*
X274098Y449853*
X274212Y449384*
Y448603*
X274098Y448134*
X273984Y447822*
X273757Y447509*
X273416Y447353*
X272621*
X276712Y449541D02*
X276598Y449072D01*
X276371Y448759*
X276030Y448603*
X275916*
X275575Y448759*
X275348Y449072*
X275234Y449541*
Y449697*
X275348Y450166*
X275575Y450478*
X275916Y450634*
X276030*
X276371Y450478*
X276598Y450166*
X276712Y449541*
Y448759*
X276598Y447978*
X276371Y447509*
X276030Y447353*
X275803*
X275462Y447509*
X275348Y447822*
X440311Y572515D02*
X440467Y572288D01*
X440779Y572061*
X441092Y571947*
X441561Y571833*
X442342*
X442811Y571947*
X443123Y572061*
X443436Y572288*
X443592Y572515*
Y572970*
X443436Y573197*
X443123Y573424*
X442811Y573538*
X442342Y573652*
X441561*
X441092Y573538*
X440779Y573424*
X440467Y573197*
X440311Y572970*
Y572515*
X442967Y572856D02*
X443904Y573538D01*
X440936Y574674D02*
X440779Y574902D01*
X440311Y575242*
X443592*
X440936Y576265D02*
X440779Y576492D01*
X440311Y576833*
X443592*
X237795Y386089D02*
Y389370D01*
Y386089D02*
X237000D01*
X236659Y386245*
X236432Y386558*
X236318Y386870*
X236204Y387339*
Y388120*
X236318Y388589*
X236432Y388901*
X236659Y389214*
X237000Y389370*
X237795*
X235068Y386870D02*
Y386714D01*
X234954Y386401*
X234841Y386245*
X234613Y386089*
X234159*
X233932Y386245*
X233818Y386401*
X233704Y386714*
Y387026*
X233818Y387339*
X234045Y387808*
X235182Y389370*
X233591*
X231432Y386089D02*
X232568Y388276D01*
X230863*
X231432Y386089D02*
Y389370D01*
X325065Y676772D02*
X328346D01*
X325065D02*
Y677567D01*
X325221Y677908*
X325534Y678135*
X325846Y678249*
X326315Y678363*
X327096*
X327565Y678249*
X327878Y678135*
X328190Y677908*
X328346Y677567*
Y676772*
X325065Y680976D02*
X328346Y679840D01*
X325065Y679385D02*
Y680976D01*
X147900Y684646D02*
X151181D01*
Y686009*
X147900Y687259D02*
Y688509D01*
X149150Y687827*
Y688168*
X149306Y688396*
X149462Y688509*
X149931Y688623*
X150244*
X150712Y688509*
X151025Y688282*
X151181Y687941*
Y687600*
X151025Y687259*
X150869Y687146*
X150556Y687032*
X134120Y684646D02*
X137402D01*
Y686009*
X134120Y688168D02*
X136308Y687032D01*
Y688737*
X134120Y688168D02*
X137402D01*
X443175Y608556D02*
X443332Y608329D01*
X443644Y608101*
X443957Y607988*
X444425Y607874*
X445207*
X445675Y607988*
X445988Y608101*
X446300Y608329*
X446457Y608556*
Y609010*
X446300Y609238*
X445988Y609465*
X445675Y609579*
X445207Y609692*
X444425*
X443957Y609579*
X443644Y609465*
X443332Y609238*
X443175Y609010*
Y608556*
X445832Y608897D02*
X446769Y609579D01*
X443800Y610715D02*
X443644Y610942D01*
X443175Y611283*
X446457*
X443175Y612988D02*
X443332Y612647D01*
X443800Y612419*
X444582Y612306*
X445050*
X445832Y612419*
X446300Y612647*
X446457Y612988*
Y613215*
X446300Y613556*
X445832Y613783*
X445050Y613897*
X444582*
X443800Y613783*
X443332Y613556*
X443175Y613215*
Y612988*
X267449Y636114D02*
X270731D01*
X267449D02*
Y637137D01*
X267606Y637478*
X267606D02*
X267762Y637591D01*
X268074Y637705*
X268387*
X268699Y637591*
X268856Y637478*
X268856D02*
X269012Y637137D01*
Y636114*
Y636909D02*
X270731Y637705D01*
X268074Y638728D02*
X267918Y638955D01*
X267449Y639296*
X270731*
X267449Y641000D02*
X267606Y640659D01*
X268074Y640432*
X268856Y640318*
X269324*
X270106Y640432*
X270574Y640659*
X270731Y641000*
Y641228*
X270731D02*
X270574Y641568D01*
X270106Y641796*
X269324Y641909*
X268856*
X268074Y641796*
X267606Y641568*
X267449Y641228*
X267449D02*
Y641000D01*
X269228Y712580D02*
Y709299D01*
Y712580D02*
X270251D01*
X270592Y712424*
X270706Y712268*
X270819Y711955*
Y711643*
X270706Y711330*
X270592Y711174*
X270251Y711018*
X269228*
X270024D02*
X270819Y709299D01*
X271842Y711955D02*
X272069Y712112D01*
X272410Y712580*
Y709299*
X274797Y712112D02*
X274683Y712424D01*
X274342Y712580*
X274115*
X273774Y712424*
X273547Y711955*
X273433Y711174*
Y710393*
X273547Y709768*
X273774Y709455*
X274115Y709299*
X274228*
X274569Y709455*
X274797Y709768*
X274910Y710237*
Y710393*
X274797Y710862*
X274569Y711174*
X274228Y711330*
X274115*
X273774Y711174*
X273547Y710862*
X273433Y710393*
X108321Y663258D02*
X111602D01*
X108321D02*
Y664280D01*
X108477Y664621*
X108633Y664735*
X108946Y664849*
X109258*
X109571Y664735*
X109727Y664621*
X109883Y664280*
Y663258*
Y664053D02*
X111602Y664849D01*
X109102Y665985D02*
X108946D01*
X108633Y666099*
X108477Y666212*
X108321Y666440*
Y666894*
X108477Y667121*
X108633Y667235*
X108946Y667349*
X109258*
X109571Y667235*
X110039Y667008*
X111602Y665871*
Y667462*
X336283Y662616D02*
Y665898D01*
Y662616D02*
X335261D01*
X334920Y662773*
X334806Y662929*
X334693Y663241*
Y663554*
X334806Y663866*
X334920Y664023*
X335261Y664179*
X336283*
X335488D02*
X334693Y665898D01*
X332533Y662616D02*
X333670Y664804D01*
X331965*
X332533Y662616D02*
Y665898D01*
X330943Y663241D02*
X330715Y663085D01*
X330374Y662616*
Y665898*
X327971Y672772D02*
X331252D01*
X327971D02*
Y673794D01*
X328127Y674135*
X328283Y674249*
X328596Y674363*
X328908*
X329221Y674249*
X329377Y674135*
X329533Y673794*
Y672772*
Y673567D02*
X331252Y674363D01*
X327971Y676522D02*
X330158Y675385D01*
Y677090*
X327971Y676522D02*
X331252D01*
X327971Y678340D02*
Y679590D01*
X329221Y678908*
Y679249*
X329377Y679476*
X329533Y679590*
X330002Y679703*
X330314*
X330783Y679590*
X331096Y679363*
X331252Y679022*
Y678681*
X331096Y678340*
X330939Y678226*
X330627Y678113*
X349937Y531478D02*
Y528197D01*
Y531478D02*
X350960D01*
X351301Y531322*
X351414Y531166*
X351528Y530853*
Y530541*
X351414Y530228*
X351301Y530072*
X350960Y529916*
X349937*
X350732D02*
X351528Y528197D01*
X354028Y531478D02*
X352892D01*
X352778Y530072*
X352892Y530228*
X353232Y530384*
X353573*
X353914Y530228*
X354142Y529916*
X354255Y529447*
X354142Y529134*
X354028Y528666*
X353801Y528353*
X353460Y528197*
X353119*
X352778Y528353*
X352664Y528509*
X352551Y528822*
X278758Y706236D02*
X282039D01*
X278758D02*
Y707259D01*
X278914Y707600*
X279071Y707713*
X279383Y707827*
X279696*
X280008Y707713*
X280164Y707600*
X280321Y707259*
Y706236*
Y707032D02*
X282039Y707827D01*
X279383Y708850D02*
X279227Y709077D01*
X278758Y709418*
X282039*
X278758Y712032D02*
X282039Y710895D01*
X278758Y710441D02*
Y712032D01*
X390963Y694425D02*
X394244D01*
X390963D02*
Y695448D01*
X391119Y695789*
X391275Y695902*
X391588Y696016*
X391900*
X392213Y695902*
X392369Y695789*
X392525Y695448*
Y694425*
Y695221D02*
X394244Y696016D01*
X390963Y697266D02*
Y698516D01*
X392213Y697834*
Y698175*
X392369Y698402*
X392525Y698516*
X392994Y698630*
X393307*
X393775Y698516*
X394088Y698289*
X394244Y697948*
Y697607*
X394088Y697266*
X393932Y697152*
X393619Y697039*
X390963Y699880D02*
Y701130D01*
X392213Y700448*
Y700789*
X392369Y701016*
X392525Y701130*
X392994Y701243*
X393307*
X393775Y701130*
X394088Y700902*
X394244Y700562*
Y700221*
X394088Y699880*
X393932Y699766*
X393619Y699652*
X390963Y704268D02*
X394244D01*
X390963D02*
Y705290D01*
X391119Y705631*
X391275Y705745*
X391588Y705859*
X391900*
X392213Y705745*
X392369Y705631*
X392525Y705290*
Y704268*
Y705063D02*
X394244Y705859D01*
X390963Y707109D02*
Y708359D01*
X392213Y707677*
Y708018*
X392369Y708245*
X392525Y708359*
X392994Y708472*
X393307*
X393775Y708359*
X394088Y708131*
X394244Y707790*
Y707450*
X394088Y707109*
X393932Y706995*
X393619Y706881*
X390963Y710631D02*
X393150Y709495D01*
Y711200*
X390963Y710631D02*
X394244D01*
X328283Y637777D02*
Y634496D01*
Y637777D02*
X329306D01*
X329647Y637621*
X329761Y637465*
X329874Y637152*
Y636840*
X329761Y636527*
X329647Y636371*
X329306Y636215*
X328283*
X329079D02*
X329874Y634496D01*
X332033Y637777D02*
X330897Y635590D01*
X332602*
X332033Y637777D02*
Y634496D01*
X333738Y636996D02*
Y637152D01*
X333852Y637465*
X333965Y637621*
X334193Y637777*
X334647*
X334874Y637621*
X334988Y637465*
X335102Y637152*
Y636840*
X334988Y636527*
X334761Y636059*
X333624Y634496*
X335215*
X328283Y649588D02*
Y646307D01*
Y649588D02*
X329306D01*
X329647Y649432*
X329761Y649276*
X329874Y648963*
Y648651*
X329761Y648338*
X329647Y648182*
X329306Y648026*
X328283*
X329079D02*
X329874Y646307D01*
X332033Y649588D02*
X330897Y647401D01*
X332602*
X332033Y649588D02*
Y646307D01*
X335102Y649588D02*
X333965D01*
X333852Y648182*
X333965Y648338*
X334306Y648495*
X334647*
X334988Y648338*
X335215Y648026*
X335329Y647557*
X335215Y647245*
X335102Y646776*
X334874Y646463*
X334533Y646307*
X334193*
X333852Y646463*
X333738Y646620*
X333624Y646932*
X139433Y662616D02*
Y665898D01*
Y662616D02*
X138410D01*
X138069Y662773*
X137956Y662929*
X137842Y663241*
Y663554*
X137956Y663866*
X138069Y664023*
X138410Y664179*
X139433*
X138638D02*
X137842Y665898D01*
X136706Y663398D02*
Y663241D01*
X136592Y662929*
X136479Y662773*
X136251Y662616*
X135797*
X135569Y662773*
X135456Y662929*
X135342Y663241*
Y663554*
X135456Y663866*
X135683Y664335*
X136819Y665898*
X135229*
X132842Y663085D02*
X132956Y662773D01*
X133297Y662616*
X133524*
X133865Y662773*
X134092Y663241*
X134206Y664023*
Y664804*
X134092Y665429*
X133865Y665741*
X133524Y665898*
X133410*
X133069Y665741*
X132842Y665429*
X132729Y664960*
Y664804*
X132842Y664335*
X133069Y664023*
X133410Y663866*
X133524*
X133865Y664023*
X134092Y664335*
X134206Y664804*
X444864Y700457D02*
X441583D01*
X444864D02*
Y699434D01*
X444708Y699093*
X444551Y698979*
X444239Y698866*
X443926*
X443614Y698979*
X443458Y699093*
X443301Y699434*
Y700457*
Y699661D02*
X441583Y698866D01*
X444083Y697729D02*
X444239D01*
X444551Y697616*
X444708Y697502*
X444864Y697275*
Y696820*
X444708Y696593*
X444551Y696479*
X444239Y696366*
X443926*
X443614Y696479*
X443145Y696707*
X441583Y697843*
Y696252*
X444864Y693752D02*
Y694889D01*
X443458Y695002*
X443614Y694889*
X443770Y694548*
Y694207*
X443614Y693866*
X443301Y693639*
X442833Y693525*
X442520Y693639*
X442051Y693752*
X441739Y693979*
X441583Y694320*
Y694661*
X441739Y695002*
X441895Y695116*
X442208Y695229*
X450769Y692583D02*
X447488D01*
X450769D02*
Y691560D01*
X450613Y691219*
X450457Y691105*
X450144Y690992*
X449832*
X449519Y691105*
X449363Y691219*
X449207Y691560*
Y692583*
Y691787D02*
X447488Y690992D01*
X449988Y689855D02*
X450144D01*
X450457Y689742*
X450613Y689628*
X450769Y689401*
Y688946*
X450613Y688719*
X450457Y688605*
X450144Y688492*
X449832*
X449519Y688605*
X449051Y688833*
X447488Y689969*
Y688378*
X450769Y686787D02*
X450613Y687128D01*
X450301Y687242*
X449988*
X449676Y687128*
X449519Y686901*
X449363Y686446*
X449207Y686105*
X448894Y685878*
X448582Y685764*
X448113*
X447801Y685878*
X447644Y685992*
X447488Y686333*
Y686787*
X447644Y687128*
X447801Y687242*
X448113Y687355*
X448582*
X448894Y687242*
X449207Y687014*
X449363Y686674*
X449519Y686219*
X449676Y685992*
X449988Y685878*
X450301*
X450613Y685992*
X450769Y686333*
Y686787*
X456675Y692583D02*
X453394D01*
X456675D02*
Y691560D01*
X456519Y691219*
X456362Y691105*
X456050Y690992*
X455737*
X455425Y691105*
X455269Y691219*
X455112Y691560*
Y692583*
Y691787D02*
X453394Y690992D01*
X456675Y689742D02*
Y688492D01*
X455425Y689174*
Y688833*
X455269Y688605*
X455112Y688492*
X454644Y688378*
X454331*
X453862Y688492*
X453550Y688719*
X453394Y689060*
Y689401*
X453550Y689742*
X453706Y689855*
X454019Y689969*
X456050Y687355D02*
X456206Y687128D01*
X456675Y686787*
X453394*
X444112Y692457D02*
X447394D01*
X444112D02*
Y693479D01*
X444269Y693820*
X444425Y693934*
X444737Y694048*
X445050*
X445362Y693934*
X445519Y693820*
X445675Y693479*
Y692457*
Y693252D02*
X447394Y694048D01*
X444112Y695298D02*
Y696548D01*
X445362Y695866*
Y696207*
X445519Y696434*
X445675Y696548*
X446144Y696661*
X446456*
X446925Y696548*
X447237Y696320*
X447394Y695979*
Y695639*
X447237Y695298*
X447081Y695184*
X446769Y695070*
X444112Y698366D02*
X444269Y698025D01*
X444737Y697798*
X445519Y697684*
X445987*
X446769Y697798*
X447237Y698025*
X447394Y698366*
Y698593*
X447237Y698934*
X446769Y699161*
X445987Y699275*
X445519*
X444737Y699161*
X444269Y698934*
X444112Y698593*
Y698366*
X232266Y438646D02*
X228984D01*
X232266D02*
Y437623D01*
X232266D02*
X232109Y437282D01*
X231953Y437168*
X231641Y437055*
X231641D02*
X231328D01*
X231016Y437168*
X231016D02*
X230859Y437282D01*
X230703Y437623*
Y438646*
Y437850D02*
X228984Y437055D01*
X232266Y434441D02*
X228984Y435577D01*
X232266Y436032D02*
Y434441D01*
X231172Y431941D02*
X230703Y432055D01*
X230391Y432282*
X230391D02*
X230234Y432623D01*
Y432737*
X230391Y433077*
X230391D02*
X230703Y433305D01*
X231172Y433418*
X231328*
X231797Y433305*
X232109Y433077*
X232266Y432737*
X232266D02*
Y432623D01*
X232266D02*
X232109Y432282D01*
X231797Y432055*
X231172Y431941*
X230391*
X230391D02*
X229609Y432055D01*
X229141Y432282*
X229141D02*
X228984Y432623D01*
Y432850*
X229141Y433191*
X229141D02*
X229453Y433305D01*
X211829Y430646D02*
X215110D01*
X211829D02*
Y431668D01*
X211985Y432009*
X212141Y432123*
X212454Y432237*
X212766*
X213079Y432123*
X213235Y432009*
X213391Y431668*
Y430646*
Y431441D02*
X215110Y432237D01*
X211829Y434850D02*
X215110Y433714D01*
X211829Y433259D02*
Y434850D01*
Y436441D02*
X211985Y436100D01*
X212298Y435987*
X212610*
X212923Y436100*
X213079Y436327*
X213235Y436782*
X213391Y437123*
X213704Y437350*
X214016Y437464*
X214485*
X214798Y437350*
X214954Y437237*
X215110Y436896*
Y436441*
X214954Y436100*
X214798Y435987*
X214485Y435873*
X214016*
X213704Y435987*
X213391Y436214*
X213235Y436555*
X213079Y437009*
X212923Y437237*
X212610Y437350*
X212298*
X211985Y437237*
X211829Y436896*
Y436441*
X251199Y704268D02*
X254480D01*
X251199D02*
Y705290D01*
X251355Y705631*
X251512Y705745*
X251824Y705859*
X252137*
X252449Y705745*
X252605Y705631*
X252762Y705290*
Y704268*
Y705063D02*
X254480Y705859D01*
X251199Y708472D02*
X254480Y707336D01*
X251199Y706881D02*
Y708472D01*
X235764Y316911D02*
Y313630D01*
Y316911D02*
X236787D01*
X237127Y316755*
X237241Y316599*
X237355Y316286*
Y315974*
X237241Y315661*
X237127Y315505*
X236787Y315349*
X235764*
X236559D02*
X237355Y313630D01*
X239741Y316442D02*
X239627Y316755D01*
X239287Y316911*
X239059*
X238718Y316755*
X238491Y316286*
X238377Y315505*
Y314724*
X238491Y314099*
X238718Y313786*
X239059Y313630*
X239173*
X239514Y313786*
X239741Y314099*
X239855Y314567*
Y314724*
X239741Y315192*
X239514Y315505*
X239173Y315661*
X239059*
X238718Y315505*
X238491Y315192*
X238377Y314724*
X242241Y316442D02*
X242127Y316755D01*
X241787Y316911*
X241559*
X241218Y316755*
X240991Y316286*
X240877Y315505*
Y314724*
X240991Y314099*
X241218Y313786*
X241559Y313630*
X241673*
X242014Y313786*
X242241Y314099*
X242355Y314567*
Y314724*
X242241Y315192*
X242014Y315505*
X241673Y315661*
X241559*
X241218Y315505*
X240991Y315192*
X240877Y314724*
X202299Y316911D02*
Y313630D01*
Y316911D02*
X203322D01*
X203663Y316755*
X203776Y316599*
X203890Y316286*
Y315974*
X203776Y315661*
X203663Y315505*
X203322Y315349*
X202299*
X203095D02*
X203890Y313630D01*
X206276Y316442D02*
X206163Y316755D01*
X205822Y316911*
X205595*
X205254Y316755*
X205026Y316286*
X204913Y315505*
Y314724*
X205026Y314099*
X205254Y313786*
X205595Y313630*
X205708*
X206049Y313786*
X206276Y314099*
X206390Y314567*
Y314724*
X206276Y315192*
X206049Y315505*
X205708Y315661*
X205595*
X205254Y315505*
X205026Y315192*
X204913Y314724*
X209004Y316911D02*
X207867Y313630D01*
X207413Y316911D02*
X209004D01*
X200331Y395651D02*
Y392370D01*
Y395651D02*
X201353D01*
X201694Y395495*
X201808Y395339*
X201922Y395026*
Y394714*
X201808Y394401*
X201694Y394245*
X201353Y394089*
X200331*
X201126D02*
X201922Y392370D01*
X204535Y395651D02*
X203399Y392370D01*
X202944Y395651D02*
X204535D01*
X205672Y394870D02*
Y395026D01*
X205785Y395339*
X205899Y395495*
X206126Y395651*
X206581*
X206808Y395495*
X206922Y395339*
X207035Y395026*
Y394714*
X206922Y394401*
X206694Y393933*
X205558Y392370*
X207149*
X186551Y395651D02*
Y392370D01*
Y395651D02*
X187574D01*
X187915Y395495*
X188028Y395339*
X188142Y395026*
Y394714*
X188028Y394401*
X187915Y394245*
X187574Y394089*
X186551*
X187347D02*
X188142Y392370D01*
X190528Y395183D02*
X190415Y395495D01*
X190074Y395651*
X189847*
X189506Y395495*
X189278Y395026*
X189165Y394245*
Y393464*
X189278Y392839*
X189506Y392526*
X189847Y392370*
X189960*
X190301Y392526*
X190528Y392839*
X190642Y393308*
Y393464*
X190528Y393933*
X190301Y394245*
X189960Y394401*
X189847*
X189506Y394245*
X189278Y393933*
X189165Y393464*
X193142Y394558D02*
X193028Y394089D01*
X192801Y393776*
X192460Y393620*
X192347*
X192006Y393776*
X191778Y394089*
X191665Y394558*
Y394714*
X191778Y395183*
X192006Y395495*
X192347Y395651*
X192460*
X192801Y395495*
X193028Y395183*
X193142Y394558*
Y393776*
X193028Y392995*
X192801Y392526*
X192460Y392370*
X192233*
X191892Y392526*
X191778Y392839*
X224079Y326002D02*
Y329283D01*
Y326002D02*
X223056D01*
X222715Y326158*
X222601Y326315*
X222488Y326627*
Y326940*
X222601Y327252*
X222715Y327408*
X223056Y327565*
X224079*
X223283D02*
X222488Y329283D01*
X219874Y326002D02*
X221011Y329283D01*
X221465Y326002D02*
X219874D01*
X217261D02*
X218397Y329283D01*
X218851Y326002D02*
X217261D01*
X247575Y395651D02*
Y392370D01*
Y395651D02*
X248598D01*
X248938Y395495*
X249052Y395339*
X249166Y395026*
Y394714*
X249052Y394401*
X248938Y394245*
X248598Y394089*
X247575*
X248370D02*
X249166Y392370D01*
X251779Y395651D02*
X250643Y392370D01*
X250188Y395651D02*
X251779D01*
X253938D02*
X252802Y393464D01*
X254507*
X253938Y395651D02*
Y392370D01*
X224079Y333876D02*
Y337157D01*
Y333876D02*
X223056D01*
X222715Y334032*
X222601Y334189*
X222488Y334501*
Y334814*
X222601Y335126*
X222715Y335282*
X223056Y335439*
X224079*
X223283D02*
X222488Y337157D01*
X219874Y333876D02*
X221011Y337157D01*
X221465Y333876D02*
X219874D01*
X217488Y334345D02*
X217601Y334032D01*
X217942Y333876*
X218170*
X218511Y334032*
X218738Y334501*
X218851Y335282*
Y336064*
X218738Y336689*
X218511Y337001*
X218170Y337157*
X218056*
X217715Y337001*
X217488Y336689*
X217374Y336220*
Y336064*
X217488Y335595*
X217715Y335282*
X218056Y335126*
X218170*
X218511Y335282*
X218738Y335595*
X218851Y336064*
X216079Y389746D02*
Y386465D01*
Y389746D02*
X217101D01*
X217442Y389590*
X217556Y389433*
X217670Y389121*
Y388808*
X217556Y388496*
X217442Y388340*
X217101Y388183*
X216079*
X216874D02*
X217670Y386465D01*
X220283Y389746D02*
X219147Y386465D01*
X218692Y389746D02*
X220283D01*
X221533D02*
X222783D01*
X222101Y388496*
X222442*
X222670Y388340*
X222783Y388183*
X222897Y387715*
Y387402*
X222783Y386933*
X222556Y386621*
X222215Y386465*
X221874*
X221533Y386621*
X221420Y386777*
X221306Y387090*
X206362Y422459D02*
Y425740D01*
Y422459D02*
X205339D01*
X204999Y422615*
X204885Y422771*
X204771Y423084*
Y423396*
X204885Y423709*
X204999Y423865*
X205339Y424021*
X206362*
X205567D02*
X204771Y425740D01*
X202158Y422459D02*
X203294Y425740D01*
X203749Y422459D02*
X202158D01*
X200453D02*
X200794Y422615D01*
X201021Y423084*
X201135Y423865*
Y424334*
X201021Y425115*
X200794Y425584*
X200453Y425740*
X200226*
X199885Y425584*
X199658Y425115*
X199544Y424334*
Y423865*
X199658Y423084*
X199885Y422615*
X200226Y422459*
X200453*
X235451Y424740D02*
X238732D01*
X235451D02*
Y425763D01*
X235607Y426104*
X235764Y426217*
X236076Y426331*
X236389*
X236701Y426217*
X236857Y426104*
X237014Y425763*
Y424740*
Y425536D02*
X238732Y426331D01*
X235451Y428945D02*
X238732Y427808D01*
X235451Y427354D02*
Y428945D01*
X236076Y429967D02*
X235920Y430195D01*
X235451Y430536*
X238732*
X216079Y354313D02*
Y351031D01*
Y354313D02*
X217101D01*
X217442Y354156*
X217556Y354000*
X217670Y353688*
Y353375*
X217556Y353063*
X217442Y352906*
X217101Y352750*
X216079*
X216874D02*
X217670Y351031D01*
X220283Y354313D02*
X219147Y351031D01*
X218692Y354313D02*
X220283D01*
X222783D02*
X221647D01*
X221533Y352906*
X221647Y353063*
X221988Y353219*
X222329*
X222670Y353063*
X222897Y352750*
X223011Y352281*
X222897Y351969*
X222783Y351500*
X222556Y351188*
X222215Y351031*
X221874*
X221533Y351188*
X221420Y351344*
X221306Y351656*
X172772Y395651D02*
Y392370D01*
Y395651D02*
X173794D01*
X174135Y395495*
X174249Y395339*
X174363Y395026*
Y394714*
X174249Y394401*
X174135Y394245*
X173794Y394089*
X172772*
X173567D02*
X174363Y392370D01*
X176749Y395183D02*
X176635Y395495D01*
X176294Y395651*
X176067*
X175726Y395495*
X175499Y395026*
X175385Y394245*
Y393464*
X175499Y392839*
X175726Y392526*
X176067Y392370*
X176181*
X176522Y392526*
X176749Y392839*
X176863Y393308*
Y393464*
X176749Y393933*
X176522Y394245*
X176181Y394401*
X176067*
X175726Y394245*
X175499Y393933*
X175385Y393464*
X178453Y395651D02*
X178113Y395495D01*
X177999Y395183*
Y394870*
X178113Y394558*
X178340Y394401*
X178794Y394245*
X179135Y394089*
X179363Y393776*
X179476Y393464*
Y392995*
X179363Y392683*
X179249Y392526*
X178908Y392370*
X178453*
X178113Y392526*
X177999Y392683*
X177885Y392995*
Y393464*
X177999Y393776*
X178226Y394089*
X178567Y394245*
X179022Y394401*
X179249Y394558*
X179363Y394870*
Y395183*
X179249Y395495*
X178908Y395651*
X178453*
X151244Y662616D02*
Y665898D01*
Y662616D02*
X150221D01*
X149880Y662773*
X149767Y662929*
X149653Y663241*
Y663554*
X149767Y663866*
X149880Y664023*
X150221Y664179*
X151244*
X150449D02*
X149653Y665898D01*
X148517Y663398D02*
Y663241D01*
X148403Y662929*
X148290Y662773*
X148062Y662616*
X147608*
X147380Y662773*
X147267Y662929*
X147153Y663241*
Y663554*
X147267Y663866*
X147494Y664335*
X148630Y665898*
X147040*
X144426Y662616D02*
X145562Y665898D01*
X146017Y662616D02*
X144426D01*
X328283Y665336D02*
Y662055D01*
Y665336D02*
X329306D01*
X329647Y665180*
X329761Y665024*
X329874Y664711*
Y664399*
X329761Y664086*
X329647Y663930*
X329306Y663774*
X328283*
X329079D02*
X329874Y662055D01*
X332033Y665336D02*
X330897Y663149D01*
X332602*
X332033Y665336D02*
Y662055D01*
X334988Y664868D02*
X334874Y665180D01*
X334533Y665336*
X334306*
X333965Y665180*
X333738Y664711*
X333624Y663930*
Y663149*
X333738Y662524*
X333965Y662211*
X334306Y662055*
X334420*
X334761Y662211*
X334988Y662524*
X335102Y662993*
Y663149*
X334988Y663618*
X334761Y663930*
X334420Y664086*
X334306*
X333965Y663930*
X333738Y663618*
X333624Y663149*
X326441Y631120D02*
Y634402D01*
Y631120D02*
X325418D01*
X325077Y631277*
X324964Y631433*
X324850Y631745*
Y632058*
X324964Y632370*
X325077Y632527*
X325418Y632683*
X326441*
X325645D02*
X324850Y634402D01*
X322691Y631120D02*
X323827Y633308D01*
X322123*
X322691Y631120D02*
Y634402D01*
X319509Y631120D02*
X320645Y634402D01*
X321100Y631120D02*
X319509D01*
X326441Y625215D02*
Y628496D01*
Y625215D02*
X325418D01*
X325077Y625371*
X324964Y625527*
X324850Y625840*
Y626152*
X324964Y626465*
X325077Y626621*
X325418Y626777*
X326441*
X325645D02*
X324850Y628496D01*
X322691Y625215D02*
X323827Y627402D01*
X322123*
X322691Y625215D02*
Y628496D01*
X319964Y625215D02*
X321100Y627402D01*
X319395*
X319964Y625215D02*
Y628496D01*
X272853Y710173D02*
X276134D01*
X272853D02*
Y711196D01*
X273009Y711537*
X273165Y711651*
X273165D02*
X273478Y711764D01*
X273790*
X274103Y711651*
X274103D02*
X274259Y711537D01*
X274415Y711196*
Y710173*
Y710969D02*
X276134Y711764D01*
X273946Y714264D02*
X274415Y714151D01*
X274415D02*
X274728Y713923D01*
X274884Y713582*
Y713469*
X274728Y713128*
X274415Y712901*
X274415D02*
X273946Y712787D01*
X273790*
X273321Y712901*
X273321D02*
X273009Y713128D01*
X272853Y713469*
Y713582*
X273009Y713923*
X273321Y714151*
X273321D02*
X273946Y714264D01*
X274728*
X275509Y714151*
X275509D02*
X275978Y713923D01*
X276134Y713582*
Y713355*
X275978Y713014*
X275665Y712901*
X328283Y657462D02*
Y654181D01*
Y657462D02*
X329306D01*
X329647Y657306*
X329761Y657150*
X329874Y656837*
Y656525*
X329761Y656212*
X329647Y656056*
X329306Y655900*
X328283*
X329079D02*
X329874Y654181D01*
X331465Y657462D02*
X331124Y657306D01*
X331011Y656994*
Y656681*
X331124Y656369*
X331352Y656212*
X331806Y656056*
X332147Y655900*
X332374Y655587*
X332488Y655275*
Y654806*
X332374Y654494*
X332261Y654337*
X331920Y654181*
X331465*
X331124Y654337*
X331011Y654494*
X330897Y654806*
Y655275*
X331011Y655587*
X331238Y655900*
X331579Y656056*
X332033Y656212*
X332261Y656369*
X332374Y656681*
Y656994*
X332261Y657306*
X331920Y657462*
X331465*
X333738D02*
X334988D01*
X334306Y656212*
X334647*
X334874Y656056*
X334988Y655900*
X335102Y655431*
Y655119*
X334988Y654650*
X334761Y654337*
X334420Y654181*
X334079*
X333738Y654337*
X333624Y654494*
X333511Y654806*
X436677Y595687D02*
Y598969D01*
Y595687D02*
X435654D01*
X435314Y595844*
X435200Y596000*
X435086Y596312*
Y596625*
X435200Y596937*
X435314Y597094*
X435654Y597250*
X436677*
X435882D02*
X435086Y598969D01*
X433495Y595687D02*
X433836Y595844D01*
X433950Y596156*
Y596469*
X433836Y596781*
X433609Y596937*
X433154Y597094*
X432814Y597250*
X432586Y597562*
X432473Y597875*
Y598344*
X432586Y598656*
X432700Y598812*
X433041Y598969*
X433495*
X433836Y598812*
X433950Y598656*
X434064Y598344*
Y597875*
X433950Y597562*
X433723Y597250*
X433382Y597094*
X432927Y596937*
X432700Y596781*
X432586Y596469*
Y596156*
X432700Y595844*
X433041Y595687*
X433495*
X429973D02*
X431109D01*
X431223Y597094*
X431109Y596937*
X430768Y596781*
X430427*
X430086Y596937*
X429859Y597250*
X429745Y597719*
X429859Y598031*
X429973Y598500*
X430200Y598812*
X430541Y598969*
X430882*
X431223Y598812*
X431336Y598656*
X431450Y598344*
X436990Y572504D02*
X433709D01*
X436990D02*
Y571481D01*
X436834Y571140*
X436677Y571027*
X436365Y570913*
X436052*
X435740Y571027*
X435584Y571140*
X435427Y571481*
Y572504*
Y571708D02*
X433709Y570913D01*
X436990Y569322D02*
X436834Y569663D01*
X436521Y569777*
X436209*
X435896Y569663*
X435740Y569436*
X435584Y568981*
X435427Y568640*
X435115Y568413*
X434802Y568299*
X434334*
X434021Y568413*
X433865Y568527*
X433709Y568868*
Y569322*
X433865Y569663*
X434021Y569777*
X434334Y569890*
X434802*
X435115Y569777*
X435427Y569549*
X435584Y569208*
X435740Y568754*
X435896Y568527*
X436209Y568413*
X436521*
X436834Y568527*
X436990Y568868*
Y569322*
X436521Y565913D02*
X436834Y566027D01*
X436990Y566368*
Y566595*
X436834Y566936*
X436365Y567163*
X435584Y567277*
X434802*
X434177Y567163*
X433865Y566936*
X433709Y566595*
Y566481*
X433865Y566140*
X434177Y565913*
X434646Y565799*
X434802*
X435271Y565913*
X435584Y566140*
X435740Y566481*
Y566595*
X435584Y566936*
X435271Y567163*
X434802Y567277*
X436990Y598094D02*
X433709D01*
X436990D02*
Y597072D01*
X436834Y596731*
X436677Y596617*
X436365Y596504*
X436052*
X435740Y596617*
X435584Y596731*
X435427Y597072*
Y598094*
Y597299D02*
X433709Y596504D01*
X436990Y594913D02*
X436834Y595254D01*
X436521Y595367*
X436209*
X435896Y595254*
X435740Y595026*
X435584Y594572*
X435427Y594231*
X435115Y594004*
X434802Y593890*
X434334*
X434021Y594004*
X433865Y594117*
X433709Y594458*
Y594913*
X433865Y595254*
X434021Y595367*
X434334Y595481*
X434802*
X435115Y595367*
X435427Y595140*
X435584Y594799*
X435740Y594344*
X435896Y594117*
X436209Y594004*
X436521*
X436834Y594117*
X436990Y594458*
Y594913*
Y591276D02*
X433709Y592413D01*
X436990Y592867D02*
Y591276D01*
X442457Y568880D02*
Y565598D01*
Y568880D02*
X443479D01*
X443820Y568723*
X443934Y568567*
X444048Y568255*
Y567942*
X443934Y567630*
X443820Y567473*
X443479Y567317*
X442457*
X443252D02*
X444048Y565598D01*
X445639Y568880D02*
X445298Y568723D01*
X445184Y568411*
Y568098*
X445298Y567786*
X445525Y567630*
X445979Y567473*
X446320Y567317*
X446548Y567005*
X446661Y566692*
Y566223*
X446548Y565911*
X446434Y565755*
X446093Y565598*
X445639*
X445298Y565755*
X445184Y565911*
X445070Y566223*
Y566692*
X445184Y567005*
X445411Y567317*
X445752Y567473*
X446207Y567630*
X446434Y567786*
X446548Y568098*
Y568411*
X446434Y568723*
X446093Y568880*
X445639*
X448252D02*
X447911Y568723D01*
X447798Y568411*
Y568098*
X447911Y567786*
X448139Y567630*
X448593Y567473*
X448934Y567317*
X449161Y567005*
X449275Y566692*
Y566223*
X449161Y565911*
X449048Y565755*
X448707Y565598*
X448252*
X447911Y565755*
X447798Y565911*
X447684Y566223*
Y566692*
X447798Y567005*
X448025Y567317*
X448366Y567473*
X448820Y567630*
X449048Y567786*
X449161Y568098*
Y568411*
X449048Y568723*
X448707Y568880*
X448252*
X436990Y582346D02*
X433709D01*
X436990D02*
Y581324D01*
X436834Y580983*
X436677Y580869*
X436365Y580756*
X436052*
X435740Y580869*
X435584Y580983*
X435427Y581324*
Y582346*
Y581551D02*
X433709Y580756D01*
X436990Y579165D02*
X436834Y579506D01*
X436521Y579619*
X436209*
X435896Y579506*
X435740Y579278*
X435584Y578824*
X435427Y578483*
X435115Y578256*
X434802Y578142*
X434334*
X434021Y578256*
X433865Y578369*
X433709Y578710*
Y579165*
X433865Y579506*
X434021Y579619*
X434334Y579733*
X434802*
X435115Y579619*
X435427Y579392*
X435584Y579051*
X435740Y578596*
X435896Y578369*
X436209Y578256*
X436521*
X436834Y578369*
X436990Y578710*
Y579165*
X435896Y575642D02*
X435427Y575756D01*
X435115Y575983*
X434959Y576324*
Y576437*
X435115Y576778*
X435427Y577006*
X435896Y577119*
X436052*
X436521Y577006*
X436834Y576778*
X436990Y576437*
Y576324*
X436834Y575983*
X436521Y575756*
X435896Y575642*
X435115*
X434334Y575756*
X433865Y575983*
X433709Y576324*
Y576551*
X433865Y576892*
X434177Y577006*
X366607Y674270D02*
X363325D01*
X366607D02*
Y673248D01*
X366450Y672907*
X366294Y672793*
X365982Y672679*
X365669*
X365357Y672793*
X365200Y672907*
X365044Y673248*
Y674270*
Y673475D02*
X363325Y672679D01*
X366607Y671429D02*
Y670179D01*
X365357Y670861*
Y670520*
X365200Y670293*
X365044Y670179*
X364575Y670066*
X364263*
X363794Y670179*
X363482Y670407*
X363325Y670748*
Y671089*
X363482Y671429*
X363638Y671543*
X363950Y671657*
X365513Y667566D02*
X365044Y667679D01*
X364732Y667907*
X364575Y668248*
Y668361*
X364732Y668702*
X365044Y668929*
X365513Y669043*
X365669*
X366138Y668929*
X366450Y668702*
X366607Y668361*
Y668248*
X366450Y667907*
X366138Y667679*
X365513Y667566*
X364732*
X363950Y667679*
X363482Y667907*
X363325Y668248*
Y668475*
X363482Y668816*
X363794Y668929*
X366607Y650648D02*
X363325D01*
X366607D02*
Y649626D01*
X366450Y649285*
X366294Y649171*
X365982Y649057*
X365669*
X365357Y649171*
X365200Y649285*
X365044Y649626*
Y650648*
Y649853D02*
X363325Y649057D01*
X366607Y646898D02*
X364419Y648035D01*
Y646330*
X366607Y646898D02*
X363325D01*
X366607Y644626D02*
X366450Y644966D01*
X365982Y645194*
X365200Y645307*
X364732*
X363950Y645194*
X363482Y644966*
X363325Y644626*
Y644398*
X363482Y644057*
X363950Y643830*
X364732Y643716*
X365200*
X365982Y643830*
X366450Y644057*
X366607Y644398*
Y644626*
X140961Y411868D02*
X140734Y412180D01*
X140393Y412336*
X139938*
X139597Y412180*
X139370Y411868*
Y411555*
X139484Y411243*
X139597Y411086*
X139825Y410930*
X140506Y410618*
X140734Y410461*
X140847Y410305*
X140961Y409993*
Y409524*
X140734Y409211*
X140393Y409055*
X139938*
X139597Y409211*
X139370Y409524*
X141984Y412336D02*
X142552Y409055D01*
X143120Y412336D02*
X142552Y409055D01*
X143120Y412336D02*
X143688Y409055D01*
X144256Y412336D02*
X143688Y409055D01*
X145279Y411711D02*
X145506Y411868D01*
X145847Y412336*
Y409055*
X146870Y411711D02*
X147097Y411868D01*
X147438Y412336*
Y409055*
X361433Y136277D02*
X361206Y136590D01*
X360865Y136746*
X360411*
X360070Y136590*
X359843Y136277*
Y135965*
X359956Y135652*
X360070Y135496*
X360297Y135340*
X360979Y135027*
X361206Y134871*
X361320Y134715*
X361433Y134402*
Y133933*
X361206Y133621*
X360865Y133465*
X360411*
X360070Y133621*
X359843Y133933*
X362456Y136746D02*
X363024Y133465D01*
X363593Y136746D02*
X363024Y133465D01*
X363593Y136746D02*
X364161Y133465D01*
X364729Y136746D02*
X364161Y133465D01*
X367115Y136277D02*
X367002Y136590D01*
X366661Y136746*
X366433*
X366093Y136590*
X365865Y136121*
X365752Y135340*
Y134558*
X365865Y133933*
X366093Y133621*
X366433Y133465*
X366547*
X366888Y133621*
X367115Y133933*
X367229Y134402*
Y134558*
X367115Y135027*
X366888Y135340*
X366547Y135496*
X366433*
X366093Y135340*
X365865Y135027*
X365752Y134558*
X368365Y135965D02*
Y136121D01*
X368479Y136433*
X368593Y136590*
X368820Y136746*
X369274*
X369502Y136590*
X369615Y136433*
X369729Y136121*
Y135808*
X369615Y135496*
X369388Y135027*
X368252Y133465*
X369843*
X196079Y411868D02*
X195852Y412180D01*
X195511Y412336*
X195056*
X194715Y412180*
X194488Y411868*
Y411555*
X194602Y411243*
X194715Y411086*
X194943Y410930*
X195625Y410618*
X195852Y410461*
X195965Y410305*
X196079Y409993*
Y409524*
X195852Y409211*
X195511Y409055*
X195056*
X194715Y409211*
X194488Y409524*
X197102Y412336D02*
X197670Y409055D01*
X198238Y412336D02*
X197670Y409055D01*
X198238Y412336D02*
X198806Y409055D01*
X199375Y412336D02*
X198806Y409055D01*
X200397Y411711D02*
X200625Y411868D01*
X200965Y412336*
Y409055*
X202102Y411555D02*
Y411711D01*
X202215Y412024*
X202329Y412180*
X202556Y412336*
X203011*
X203238Y412180*
X203352Y412024*
X203465Y411711*
Y411399*
X203352Y411086*
X203125Y410618*
X201988Y409055*
X203579*
X251197Y411868D02*
X250970Y412180D01*
X250629Y412336*
X250174*
X249834Y412180*
X249606Y411868*
Y411555*
X249720Y411243*
X249834Y411086*
X250061Y410930*
X250743Y410618*
X250970Y410461*
X251084Y410305*
X251197Y409993*
Y409524*
X250970Y409211*
X250629Y409055*
X250174*
X249834Y409211*
X249606Y409524*
X252220Y412336D02*
X252788Y409055D01*
X253356Y412336D02*
X252788Y409055D01*
X253356Y412336D02*
X253924Y409055D01*
X254493Y412336D02*
X253924Y409055D01*
X255515Y411711D02*
X255743Y411868D01*
X256084Y412336*
Y409055*
X257334Y412336D02*
X258584D01*
X257902Y411086*
X258243*
X258470Y410930*
X258584Y410774*
X258697Y410305*
Y409993*
X258584Y409524*
X258356Y409211*
X258015Y409055*
X257674*
X257334Y409211*
X257220Y409368*
X257106Y409680*
X306315Y411868D02*
X306088Y412180D01*
X305747Y412336*
X305293*
X304952Y412180*
X304724Y411868*
Y411555*
X304838Y411243*
X304952Y411086*
X305179Y410930*
X305861Y410618*
X306088Y410461*
X306202Y410305*
X306315Y409993*
Y409524*
X306088Y409211*
X305747Y409055*
X305293*
X304952Y409211*
X304724Y409524*
X307338Y412336D02*
X307906Y409055D01*
X308474Y412336D02*
X307906Y409055D01*
X308474Y412336D02*
X309043Y409055D01*
X309611Y412336D02*
X309043Y409055D01*
X310634Y411711D02*
X310861Y411868D01*
X311202Y412336*
Y409055*
X313361Y412336D02*
X312224Y410149D01*
X313929*
X313361Y412336D02*
Y409055D01*
X361433Y411868D02*
X361206Y412180D01*
X360865Y412336*
X360411*
X360070Y412180*
X359843Y411868*
Y411555*
X359956Y411243*
X360070Y411086*
X360297Y410930*
X360979Y410618*
X361206Y410461*
X361320Y410305*
X361433Y409993*
Y409524*
X361206Y409211*
X360865Y409055*
X360411*
X360070Y409211*
X359843Y409524*
X362456Y412336D02*
X363024Y409055D01*
X363593Y412336D02*
X363024Y409055D01*
X363593Y412336D02*
X364161Y409055D01*
X364729Y412336D02*
X364161Y409055D01*
X365752Y411711D02*
X365979Y411868D01*
X366320Y412336*
Y409055*
X368820Y412336D02*
X367683D01*
X367570Y410930*
X367683Y411086*
X368024Y411243*
X368365*
X368706Y411086*
X368933Y410774*
X369047Y410305*
X368933Y409993*
X368820Y409524*
X368593Y409211*
X368252Y409055*
X367911*
X367570Y409211*
X367456Y409368*
X367343Y409680*
X416552Y411868D02*
X416324Y412180D01*
X415983Y412336*
X415529*
X415188Y412180*
X414961Y411868*
Y411555*
X415074Y411243*
X415188Y411086*
X415415Y410930*
X416097Y410618*
X416324Y410461*
X416438Y410305*
X416552Y409993*
Y409524*
X416324Y409211*
X415983Y409055*
X415529*
X415188Y409211*
X414961Y409524*
X417574Y412336D02*
X418142Y409055D01*
X418711Y412336D02*
X418142Y409055D01*
X418711Y412336D02*
X419279Y409055D01*
X419847Y412336D02*
X419279Y409055D01*
X420870Y411711D02*
X421097Y411868D01*
X421438Y412336*
Y409055*
X423824Y411868D02*
X423711Y412180D01*
X423370Y412336*
X423142*
X422802Y412180*
X422574Y411711*
X422461Y410930*
Y410149*
X422574Y409524*
X422802Y409211*
X423142Y409055*
X423256*
X423597Y409211*
X423824Y409524*
X423938Y409993*
Y410149*
X423824Y410618*
X423597Y410930*
X423256Y411086*
X423142*
X422802Y410930*
X422574Y410618*
X422461Y410149*
X251197Y136277D02*
X250970Y136590D01*
X250629Y136746*
X250174*
X249834Y136590*
X249606Y136277*
Y135965*
X249720Y135652*
X249834Y135496*
X250061Y135340*
X250743Y135027*
X250970Y134871*
X251084Y134715*
X251197Y134402*
Y133933*
X250970Y133621*
X250629Y133465*
X250174*
X249834Y133621*
X249606Y133933*
X252220Y136746D02*
X252788Y133465D01*
X253356Y136746D02*
X252788Y133465D01*
X253356Y136746D02*
X253924Y133465D01*
X254493Y136746D02*
X253924Y133465D01*
X256879Y136277D02*
X256765Y136590D01*
X256424Y136746*
X256197*
X255856Y136590*
X255629Y136121*
X255515Y135340*
Y134558*
X255629Y133933*
X255856Y133621*
X256197Y133465*
X256311*
X256652Y133621*
X256879Y133933*
X256993Y134402*
Y134558*
X256879Y135027*
X256652Y135340*
X256311Y135496*
X256197*
X255856Y135340*
X255629Y135027*
X255515Y134558*
X258697Y136746D02*
X258356Y136590D01*
X258129Y136121*
X258015Y135340*
Y134871*
X258129Y134090*
X258356Y133621*
X258697Y133465*
X258924*
X259265Y133621*
X259493Y134090*
X259606Y134871*
Y135340*
X259493Y136121*
X259265Y136590*
X258924Y136746*
X258697*
X306315Y136277D02*
X306088Y136590D01*
X305747Y136746*
X305293*
X304952Y136590*
X304724Y136277*
Y135965*
X304838Y135652*
X304952Y135496*
X305179Y135340*
X305861Y135027*
X306088Y134871*
X306202Y134715*
X306315Y134402*
Y133933*
X306088Y133621*
X305747Y133465*
X305293*
X304952Y133621*
X304724Y133933*
X307338Y136746D02*
X307906Y133465D01*
X308474Y136746D02*
X307906Y133465D01*
X308474Y136746D02*
X309043Y133465D01*
X309611Y136746D02*
X309043Y133465D01*
X311997Y136277D02*
X311884Y136590D01*
X311884D02*
X311543Y136746D01*
X311315*
X310974Y136590*
X310747Y136121*
X310634Y135340*
X310634D02*
Y134558D01*
X310634D02*
X310747Y133933D01*
X310974Y133621*
X311315Y133465*
X311429*
X311770Y133621*
X311997Y133933*
X312111Y134402*
Y134558*
X311997Y135027*
X311770Y135340*
X311429Y135496*
X311315*
X310974Y135340*
X310747Y135027*
X310634Y134558*
X313134Y136121D02*
X313361Y136277D01*
X313702Y136746*
Y133465*
X140961Y372498D02*
X140734Y372810D01*
X140393Y372966*
X139938*
X139597Y372810*
X139370Y372498*
Y372185*
X139484Y371873*
X139597Y371716*
X139825Y371560*
X140506Y371248*
X140734Y371091*
X140847Y370935*
X140961Y370623*
Y370154*
X140734Y369841*
X140393Y369685*
X139938*
X139597Y369841*
X139370Y370154*
X141984Y372966D02*
X142552Y369685D01*
X143120Y372966D02*
X142552Y369685D01*
X143120Y372966D02*
X143688Y369685D01*
X144256Y372966D02*
X143688Y369685D01*
X145279Y372341D02*
X145506Y372498D01*
X145847Y372966*
Y369685*
X148347Y371873D02*
X148234Y371404D01*
X148006Y371091*
X147666Y370935*
X147552*
X147211Y371091*
X146984Y371404*
X146870Y371873*
Y372029*
X146984Y372498*
X147211Y372810*
X147552Y372966*
X147666*
X148006Y372810*
X148234Y372498*
X148347Y371873*
Y371091*
X148234Y370310*
X148006Y369841*
X147666Y369685*
X147438*
X147097Y369841*
X146984Y370154*
X196079Y451238D02*
X195852Y451550D01*
X195511Y451706*
X195056*
X194715Y451550*
X194488Y451238*
Y450925*
X194602Y450613*
X194715Y450456*
X194943Y450300*
X195625Y449988*
X195852Y449831*
X195965Y449675*
X196079Y449363*
Y448894*
X195852Y448581*
X195511Y448425*
X195056*
X194715Y448581*
X194488Y448894*
X197102Y451706D02*
X197670Y448425D01*
X198238Y451706D02*
X197670Y448425D01*
X198238Y451706D02*
X198806Y448425D01*
X199375Y451706D02*
X198806Y448425D01*
X200511Y450925D02*
Y451081D01*
X200625Y451394*
X200738Y451550*
X200965Y451706*
X201420*
X201647Y451550*
X201761Y451394*
X201875Y451081*
Y450769*
X201761Y450456*
X201534Y449988*
X200397Y448425*
X201988*
X416552Y372498D02*
X416324Y372810D01*
X415983Y372966*
X415529*
X415188Y372810*
X414961Y372498*
Y372185*
X415074Y371873*
X415188Y371716*
X415415Y371560*
X416097Y371248*
X416324Y371091*
X416438Y370935*
X416552Y370623*
Y370154*
X416324Y369841*
X415983Y369685*
X415529*
X415188Y369841*
X414961Y370154*
X417574Y372966D02*
X418142Y369685D01*
X418711Y372966D02*
X418142Y369685D01*
X418711Y372966D02*
X419279Y369685D01*
X419847Y372966D02*
X419279Y369685D01*
X420983Y372185D02*
Y372341D01*
X421097Y372654*
X421211Y372810*
X421438Y372966*
X421892*
X422120Y372810*
X422233Y372654*
X422347Y372341*
Y372029*
X422233Y371716*
X422006Y371248*
X420870Y369685*
X422461*
X424165Y372966D02*
X423824Y372810D01*
X423597Y372341*
X423483Y371560*
Y371091*
X423597Y370310*
X423824Y369841*
X424165Y369685*
X424392*
X424733Y369841*
X424961Y370310*
X425074Y371091*
Y371560*
X424961Y372341*
X424733Y372810*
X424392Y372966*
X424165*
X361433Y175647D02*
X361206Y175960D01*
X360865Y176116*
X360411*
X360070Y175960*
X359843Y175647*
Y175335*
X359956Y175022*
X360070Y174866*
X360297Y174710*
X360979Y174397*
X361206Y174241*
X361320Y174085*
X361433Y173772*
Y173303*
X361206Y172991*
X360865Y172835*
X360411*
X360070Y172991*
X359843Y173303*
X362456Y176116D02*
X363024Y172835D01*
X363593Y176116D02*
X363024Y172835D01*
X363593Y176116D02*
X364161Y172835D01*
X364729Y176116D02*
X364161Y172835D01*
X367115Y175647D02*
X367002Y175960D01*
X366661Y176116*
X366433*
X366093Y175960*
X365865Y175491*
X365752Y174710*
Y173928*
X365865Y173303*
X366093Y172991*
X366433Y172835*
X366547*
X366888Y172991*
X367115Y173303*
X367229Y173772*
Y173928*
X367115Y174397*
X366888Y174710*
X366547Y174866*
X366433*
X366093Y174710*
X365865Y174397*
X365752Y173928*
X369615Y175647D02*
X369502Y175960D01*
X369161Y176116*
X368933*
X368593Y175960*
X368365Y175491*
X368252Y174710*
Y173928*
X368365Y173303*
X368593Y172991*
X368933Y172835*
X369047*
X369388Y172991*
X369615Y173303*
X369729Y173772*
Y173928*
X369615Y174397*
X369388Y174710*
X369047Y174866*
X368933*
X368593Y174710*
X368365Y174397*
X368252Y173928*
X196079Y372498D02*
X195852Y372810D01*
X195511Y372966*
X195056*
X194715Y372810*
X194488Y372498*
Y372185*
X194602Y371873*
X194715Y371716*
X194943Y371560*
X195625Y371248*
X195852Y371091*
X195965Y370935*
X196079Y370623*
Y370154*
X195852Y369841*
X195511Y369685*
X195056*
X194715Y369841*
X194488Y370154*
X197102Y372966D02*
X197670Y369685D01*
X198238Y372966D02*
X197670Y369685D01*
X198238Y372966D02*
X198806Y369685D01*
X199375Y372966D02*
X198806Y369685D01*
X200511Y372185D02*
Y372341D01*
X200625Y372654*
X200738Y372810*
X200965Y372966*
X201420*
X201647Y372810*
X201761Y372654*
X201875Y372341*
Y372029*
X201761Y371716*
X201534Y371248*
X200397Y369685*
X201988*
X203125Y372185D02*
Y372341D01*
X203238Y372654*
X203352Y372810*
X203579Y372966*
X204034*
X204261Y372810*
X204375Y372654*
X204488Y372341*
Y372029*
X204375Y371716*
X204147Y371248*
X203011Y369685*
X204602*
X251197Y372498D02*
X250970Y372810D01*
X250629Y372966*
X250174*
X249834Y372810*
X249606Y372498*
Y372185*
X249720Y371873*
X249834Y371716*
X250061Y371560*
X250743Y371248*
X250970Y371091*
X251084Y370935*
X251197Y370623*
Y370154*
X250970Y369841*
X250629Y369685*
X250174*
X249834Y369841*
X249606Y370154*
X252220Y372966D02*
X252788Y369685D01*
X253356Y372966D02*
X252788Y369685D01*
X253356Y372966D02*
X253924Y369685D01*
X254493Y372966D02*
X253924Y369685D01*
X255629Y372185D02*
Y372341D01*
X255743Y372654*
X255856Y372810*
X256084Y372966*
X256538*
X256765Y372810*
X256879Y372654*
X256993Y372341*
Y372029*
X256879Y371716*
X256652Y371248*
X255515Y369685*
X257106*
X258356Y372966D02*
X259606D01*
X258924Y371716*
X259265*
X259493Y371560*
X259606Y371404*
X259720Y370935*
Y370623*
X259606Y370154*
X259379Y369841*
X259038Y369685*
X258697*
X258356Y369841*
X258243Y369998*
X258129Y370310*
X306315Y372498D02*
X306088Y372810D01*
X305747Y372966*
X305293*
X304952Y372810*
X304724Y372498*
Y372185*
X304838Y371873*
X304952Y371716*
X305179Y371560*
X305861Y371248*
X306088Y371091*
X306202Y370935*
X306315Y370623*
Y370154*
X306088Y369841*
X305747Y369685*
X305293*
X304952Y369841*
X304724Y370154*
X307338Y372966D02*
X307906Y369685D01*
X308474Y372966D02*
X307906Y369685D01*
X308474Y372966D02*
X309043Y369685D01*
X309611Y372966D02*
X309043Y369685D01*
X310747Y372185D02*
Y372341D01*
X310861Y372654*
X310974Y372810*
X311202Y372966*
X311656*
X311884Y372810*
X311884D02*
X311997Y372654D01*
X312111Y372341*
Y372029*
X311997Y371716*
X311770Y371248*
X310634Y369685*
X310634D02*
X312224D01*
X314384Y372966D02*
X313247Y370779D01*
X314952*
X314384Y372966D02*
Y369685D01*
X361433Y372498D02*
X361206Y372810D01*
X360865Y372966*
X360411*
X360070Y372810*
X359843Y372498*
Y372185*
X359956Y371873*
X360070Y371716*
X360297Y371560*
X360979Y371248*
X361206Y371091*
X361320Y370935*
X361433Y370623*
Y370154*
X361206Y369841*
X360865Y369685*
X360411*
X360070Y369841*
X359843Y370154*
X362456Y372966D02*
X363024Y369685D01*
X363593Y372966D02*
X363024Y369685D01*
X363593Y372966D02*
X364161Y369685D01*
X364729Y372966D02*
X364161Y369685D01*
X365865Y372185D02*
Y372341D01*
X365979Y372654*
X366093Y372810*
X366320Y372966*
X366774*
X367002Y372810*
X367115Y372654*
X367229Y372341*
Y372029*
X367115Y371716*
X366888Y371248*
X365752Y369685*
X367343*
X369843Y372966D02*
X368706D01*
X368593Y371560*
X368706Y371716*
X369047Y371873*
X369388*
X369729Y371716*
X369956Y371404*
X370070Y370935*
X369956Y370623*
X369843Y370154*
X369615Y369841*
X369274Y369685*
X368933*
X368593Y369841*
X368479Y369998*
X368365Y370310*
X416552Y175647D02*
X416324Y175960D01*
X415983Y176116*
X415529*
X415188Y175960*
X414961Y175647*
Y175335*
X415074Y175022*
X415188Y174866*
X415415Y174710*
X416097Y174397*
X416324Y174241*
X416438Y174085*
X416552Y173772*
Y173303*
X416324Y172991*
X415983Y172835*
X415529*
X415188Y172991*
X414961Y173303*
X417574Y176116D02*
X418142Y172835D01*
X418711Y176116D02*
X418142Y172835D01*
X418711Y176116D02*
X419279Y172835D01*
X419847Y176116D02*
X419279Y172835D01*
X422233Y175647D02*
X422120Y175960D01*
X421779Y176116*
X421552*
X421211Y175960*
X420983Y175491*
X420870Y174710*
Y173928*
X420983Y173303*
X421211Y172991*
X421552Y172835*
X421665*
X422006Y172991*
X422233Y173303*
X422347Y173772*
Y173928*
X422233Y174397*
X422006Y174710*
X421665Y174866*
X421552*
X421211Y174710*
X420983Y174397*
X420870Y173928*
X424961Y176116D02*
X423824Y172835D01*
X423370Y176116D02*
X424961D01*
X140961Y136277D02*
X140734Y136590D01*
X140393Y136746*
X139938*
X139597Y136590*
X139370Y136277*
Y135965*
X139484Y135652*
X139597Y135496*
X139825Y135340*
X140506Y135027*
X140734Y134871*
X140847Y134715*
X140961Y134402*
Y133933*
X140734Y133621*
X140393Y133465*
X139938*
X139597Y133621*
X139370Y133933*
X141984Y136746D02*
X142552Y133465D01*
X143120Y136746D02*
X142552Y133465D01*
X143120Y136746D02*
X143688Y133465D01*
X144256Y136746D02*
X143688Y133465D01*
X145393Y135965D02*
Y136121D01*
X145506Y136433*
X145620Y136590*
X145847Y136746*
X146302*
X146529Y136590*
X146643Y136433*
X146756Y136121*
Y135808*
X146643Y135496*
X146416Y135027*
X145279Y133465*
X146870*
X149484Y136746D02*
X148347Y133465D01*
X147893Y136746D02*
X149484D01*
X140961Y333127D02*
X140734Y333440D01*
X140393Y333596*
X139938*
X139597Y333440*
X139370Y333127*
Y332815*
X139484Y332502*
X139597Y332346*
X139825Y332190*
X140506Y331877*
X140734Y331721*
X140847Y331565*
X140961Y331252*
Y330784*
X140734Y330471*
X140393Y330315*
X139938*
X139597Y330471*
X139370Y330784*
X141984Y333596D02*
X142552Y330315D01*
X143120Y333596D02*
X142552Y330315D01*
X143120Y333596D02*
X143688Y330315D01*
X144256Y333596D02*
X143688Y330315D01*
X145393Y332815D02*
Y332971D01*
X145506Y333284*
X145620Y333440*
X145847Y333596*
X146302*
X146529Y333440*
X146643Y333284*
X146756Y332971*
Y332659*
X146643Y332346*
X146416Y331877*
X145279Y330315*
X146870*
X148461Y333596D02*
X148120Y333440D01*
X148006Y333127*
Y332815*
X148120Y332502*
X148347Y332346*
X148802Y332190*
X149143Y332034*
X149370Y331721*
X149484Y331409*
Y330940*
X149370Y330627*
X149256Y330471*
X148916Y330315*
X148461*
X148120Y330471*
X148006Y330627*
X147893Y330940*
Y331409*
X148006Y331721*
X148234Y332034*
X148575Y332190*
X149029Y332346*
X149256Y332502*
X149370Y332815*
Y333127*
X149256Y333440*
X148916Y333596*
X148461*
X196079Y333127D02*
X195852Y333440D01*
X195511Y333596*
X195056*
X194715Y333440*
X194488Y333127*
Y332815*
X194602Y332502*
X194715Y332346*
X194943Y332190*
X195625Y331877*
X195852Y331721*
X195965Y331565*
X196079Y331252*
Y330784*
X195852Y330471*
X195511Y330315*
X195056*
X194715Y330471*
X194488Y330784*
X197102Y333596D02*
X197670Y330315D01*
X198238Y333596D02*
X197670Y330315D01*
X198238Y333596D02*
X198806Y330315D01*
X199375Y333596D02*
X198806Y330315D01*
X200511Y332815D02*
Y332971D01*
X200625Y333284*
X200738Y333440*
X200965Y333596*
X201420*
X201647Y333440*
X201761Y333284*
X201875Y332971*
Y332659*
X201761Y332346*
X201534Y331877*
X200397Y330315*
X201988*
X204488Y332502D02*
X204375Y332034D01*
X204147Y331721*
X203806Y331565*
X203693*
X203352Y331721*
X203125Y332034*
X203011Y332502*
Y332659*
X203125Y333127*
X203352Y333440*
X203693Y333596*
X203806*
X204147Y333440*
X204375Y333127*
X204488Y332502*
Y331721*
X204375Y330940*
X204147Y330471*
X203806Y330315*
X203579*
X203238Y330471*
X203125Y330784*
X251197Y451238D02*
X250970Y451550D01*
X250629Y451706*
X250174*
X249834Y451550*
X249606Y451238*
Y450925*
X249720Y450613*
X249834Y450456*
X250061Y450300*
X250743Y449988*
X250970Y449831*
X251084Y449675*
X251197Y449363*
Y448894*
X250970Y448581*
X250629Y448425*
X250174*
X249834Y448581*
X249606Y448894*
X252220Y451706D02*
X252788Y448425D01*
X253356Y451706D02*
X252788Y448425D01*
X253356Y451706D02*
X253924Y448425D01*
X254493Y451706D02*
X253924Y448425D01*
X255743Y451706D02*
X256993D01*
X256311Y450456*
X256652*
X256879Y450300*
X256993Y450144*
X257106Y449675*
Y449363*
X256993Y448894*
X256765Y448581*
X256424Y448425*
X256084*
X255743Y448581*
X255629Y448738*
X255515Y449050*
X251197Y333127D02*
X250970Y333440D01*
X250629Y333596*
X250174*
X249834Y333440*
X249606Y333127*
Y332815*
X249720Y332502*
X249834Y332346*
X250061Y332190*
X250743Y331877*
X250970Y331721*
X251084Y331565*
X251197Y331252*
Y330784*
X250970Y330471*
X250629Y330315*
X250174*
X249834Y330471*
X249606Y330784*
X252220Y333596D02*
X252788Y330315D01*
X253356Y333596D02*
X252788Y330315D01*
X253356Y333596D02*
X253924Y330315D01*
X254493Y333596D02*
X253924Y330315D01*
X255743Y333596D02*
X256993D01*
X256311Y332346*
X256652*
X256879Y332190*
X256993Y332034*
X257106Y331565*
Y331252*
X256993Y330784*
X256765Y330471*
X256424Y330315*
X256084*
X255743Y330471*
X255629Y330627*
X255515Y330940*
X258811Y333596D02*
X258470Y333440D01*
X258243Y332971*
X258129Y332190*
Y331721*
X258243Y330940*
X258470Y330471*
X258811Y330315*
X259038*
X259379Y330471*
X259606Y330940*
X259720Y331721*
Y332190*
X259606Y332971*
X259379Y333440*
X259038Y333596*
X258811*
X306315Y333127D02*
X306088Y333440D01*
X305747Y333596*
X305293*
X304952Y333440*
X304724Y333127*
Y332815*
X304838Y332502*
X304952Y332346*
X305179Y332190*
X305861Y331877*
X306088Y331721*
X306202Y331565*
X306315Y331252*
Y330784*
X306088Y330471*
X305747Y330315*
X305293*
X304952Y330471*
X304724Y330784*
X307338Y333596D02*
X307906Y330315D01*
X308474Y333596D02*
X307906Y330315D01*
X308474Y333596D02*
X309043Y330315D01*
X309611Y333596D02*
X309043Y330315D01*
X310861Y333596D02*
X312111D01*
X311429Y332346*
X311770*
X311997Y332190*
X312111Y332034*
X312224Y331565*
Y331252*
X312111Y330784*
X311884Y330471*
X311884D02*
X311543Y330315D01*
X311202*
X310861Y330471*
X310747Y330627*
X310634Y330940*
X313247Y332971D02*
X313474Y333127D01*
X313815Y333596*
Y330315*
X361433Y333127D02*
X361206Y333440D01*
X360865Y333596*
X360411*
X360070Y333440*
X359843Y333127*
Y332815*
X359956Y332502*
X360070Y332346*
X360297Y332190*
X360979Y331877*
X361206Y331721*
X361320Y331565*
X361433Y331252*
Y330784*
X361206Y330471*
X360865Y330315*
X360411*
X360070Y330471*
X359843Y330784*
X362456Y333596D02*
X363024Y330315D01*
X363593Y333596D02*
X363024Y330315D01*
X363593Y333596D02*
X364161Y330315D01*
X364729Y333596D02*
X364161Y330315D01*
X365979Y333596D02*
X367229D01*
X366547Y332346*
X366888*
X367115Y332190*
X367229Y332034*
X367343Y331565*
Y331252*
X367229Y330784*
X367002Y330471*
X366661Y330315*
X366320*
X365979Y330471*
X365865Y330627*
X365752Y330940*
X368479Y332815D02*
Y332971D01*
X368593Y333284*
X368706Y333440*
X368933Y333596*
X369388*
X369615Y333440*
X369729Y333284*
X369843Y332971*
Y332659*
X369729Y332346*
X369502Y331877*
X368365Y330315*
X369956*
X416552Y333127D02*
X416324Y333440D01*
X415983Y333596*
X415529*
X415188Y333440*
X414961Y333127*
Y332815*
X415074Y332502*
X415188Y332346*
X415415Y332190*
X416097Y331877*
X416324Y331721*
X416438Y331565*
X416552Y331252*
Y330784*
X416324Y330471*
X415983Y330315*
X415529*
X415188Y330471*
X414961Y330784*
X417574Y333596D02*
X418142Y330315D01*
X418711Y333596D02*
X418142Y330315D01*
X418711Y333596D02*
X419279Y330315D01*
X419847Y333596D02*
X419279Y330315D01*
X421097Y333596D02*
X422347D01*
X421665Y332346*
X422006*
X422233Y332190*
X422347Y332034*
X422461Y331565*
Y331252*
X422347Y330784*
X422120Y330471*
X421779Y330315*
X421438*
X421097Y330471*
X420983Y330627*
X420870Y330940*
X423711Y333596D02*
X424961D01*
X424279Y332346*
X424620*
X424847Y332190*
X424961Y332034*
X425074Y331565*
Y331252*
X424961Y330784*
X424733Y330471*
X424392Y330315*
X424052*
X423711Y330471*
X423597Y330627*
X423483Y330940*
X251197Y175647D02*
X250970Y175960D01*
X250629Y176116*
X250174*
X249834Y175960*
X249606Y175647*
Y175335*
X249720Y175022*
X249834Y174866*
X250061Y174710*
X250743Y174397*
X250970Y174241*
X251084Y174085*
X251197Y173772*
Y173303*
X250970Y172991*
X250629Y172835*
X250174*
X249834Y172991*
X249606Y173303*
X252220Y176116D02*
X252788Y172835D01*
X253356Y176116D02*
X252788Y172835D01*
X253356Y176116D02*
X253924Y172835D01*
X254493Y176116D02*
X253924Y172835D01*
X256879Y175647D02*
X256765Y175960D01*
X256424Y176116*
X256197*
X255856Y175960*
X255629Y175491*
X255515Y174710*
Y173928*
X255629Y173303*
X255856Y172991*
X256197Y172835*
X256311*
X256652Y172991*
X256879Y173303*
X256993Y173772*
Y173928*
X256879Y174397*
X256652Y174710*
X256311Y174866*
X256197*
X255856Y174710*
X255629Y174397*
X255515Y173928*
X259152Y176116D02*
X258015Y173928D01*
X259720*
X259152Y176116D02*
Y172835D01*
X306315Y175647D02*
X306088Y175960D01*
X305747Y176116*
X305293*
X304952Y175960*
X304724Y175647*
Y175335*
X304838Y175022*
X304952Y174866*
X305179Y174710*
X305861Y174397*
X306088Y174241*
X306202Y174085*
X306315Y173772*
Y173303*
X306088Y172991*
X305747Y172835*
X305293*
X304952Y172991*
X304724Y173303*
X307338Y176116D02*
X307906Y172835D01*
X308474Y176116D02*
X307906Y172835D01*
X308474Y176116D02*
X309043Y172835D01*
X309611Y176116D02*
X309043Y172835D01*
X311997Y175647D02*
X311884Y175960D01*
X311884D02*
X311543Y176116D01*
X311315*
X310974Y175960*
X310747Y175491*
X310634Y174710*
X310634D02*
Y173928D01*
X310634D02*
X310747Y173303D01*
X310974Y172991*
X311315Y172835*
X311429*
X311770Y172991*
X311997Y173303*
X312111Y173772*
Y173928*
X311997Y174397*
X311770Y174710*
X311429Y174866*
X311315*
X310974Y174710*
X310747Y174397*
X310634Y173928*
X314611Y176116D02*
X313474D01*
X313361Y174710*
X313474Y174866*
X313815Y175022*
X314156*
X314497Y174866*
X314724Y174553*
X314838Y174085*
X314724Y173772*
X314611Y173303*
X314384Y172991*
X314384D02*
X314043Y172835D01*
X313702*
X313361Y172991*
X313247Y173147*
X313134Y173460*
X140961Y293757D02*
X140734Y294070D01*
X140393Y294226*
X139938*
X139597Y294070*
X139370Y293757*
Y293445*
X139484Y293132*
X139597Y292976*
X139825Y292820*
X140506Y292507*
X140734Y292351*
X140847Y292195*
X140961Y291882*
Y291414*
X140734Y291101*
X140393Y290945*
X139938*
X139597Y291101*
X139370Y291414*
X141984Y294226D02*
X142552Y290945D01*
X143120Y294226D02*
X142552Y290945D01*
X143120Y294226D02*
X143688Y290945D01*
X144256Y294226D02*
X143688Y290945D01*
X145506Y294226D02*
X146756D01*
X146075Y292976*
X146416*
X146643Y292820*
X146756Y292664*
X146870Y292195*
Y291882*
X146756Y291414*
X146529Y291101*
X146188Y290945*
X145847*
X145506Y291101*
X145393Y291257*
X145279Y291570*
X149256Y293757D02*
X149143Y294070D01*
X148802Y294226*
X148575*
X148234Y294070*
X148006Y293601*
X147893Y292820*
Y292039*
X148006Y291414*
X148234Y291101*
X148575Y290945*
X148688*
X149029Y291101*
X149256Y291414*
X149370Y291882*
Y292039*
X149256Y292507*
X149029Y292820*
X148688Y292976*
X148575*
X148234Y292820*
X148006Y292507*
X147893Y292039*
X196079Y293757D02*
X195852Y294070D01*
X195511Y294226*
X195056*
X194715Y294070*
X194488Y293757*
Y293445*
X194602Y293132*
X194715Y292976*
X194943Y292820*
X195625Y292507*
X195852Y292351*
X195965Y292195*
X196079Y291882*
Y291414*
X195852Y291101*
X195511Y290945*
X195056*
X194715Y291101*
X194488Y291414*
X197102Y294226D02*
X197670Y290945D01*
X198238Y294226D02*
X197670Y290945D01*
X198238Y294226D02*
X198806Y290945D01*
X199375Y294226D02*
X198806Y290945D01*
X200625Y294226D02*
X201875D01*
X201193Y292976*
X201534*
X201761Y292820*
X201875Y292664*
X201988Y292195*
Y291882*
X201875Y291414*
X201647Y291101*
X201306Y290945*
X200965*
X200625Y291101*
X200511Y291257*
X200397Y291570*
X204602Y294226D02*
X203465Y290945D01*
X203011Y294226D02*
X204602D01*
X251197Y293757D02*
X250970Y294070D01*
X250629Y294226*
X250174*
X249834Y294070*
X249606Y293757*
Y293445*
X249720Y293132*
X249834Y292976*
X250061Y292820*
X250743Y292507*
X250970Y292351*
X251084Y292195*
X251197Y291882*
Y291414*
X250970Y291101*
X250629Y290945*
X250174*
X249834Y291101*
X249606Y291414*
X252220Y294226D02*
X252788Y290945D01*
X253356Y294226D02*
X252788Y290945D01*
X253356Y294226D02*
X253924Y290945D01*
X254493Y294226D02*
X253924Y290945D01*
X255743Y294226D02*
X256993D01*
X256311Y292976*
X256652*
X256879Y292820*
X256993Y292664*
X257106Y292195*
Y291882*
X256993Y291414*
X256765Y291101*
X256424Y290945*
X256084*
X255743Y291101*
X255629Y291257*
X255515Y291570*
X258697Y294226D02*
X258356Y294070D01*
X258243Y293757*
Y293445*
X258356Y293132*
X258584Y292976*
X259038Y292820*
X259379Y292664*
X259606Y292351*
X259720Y292039*
Y291570*
X259606Y291257*
X259493Y291101*
X259152Y290945*
X258697*
X258356Y291101*
X258243Y291257*
X258129Y291570*
Y292039*
X258243Y292351*
X258470Y292664*
X258811Y292820*
X259265Y292976*
X259493Y293132*
X259606Y293445*
Y293757*
X259493Y294070*
X259152Y294226*
X258697*
X306315Y293757D02*
X306088Y294070D01*
X305747Y294226*
X305293*
X304952Y294070*
X304724Y293757*
Y293445*
X304838Y293132*
X304952Y292976*
X305179Y292820*
X305861Y292507*
X306088Y292351*
X306202Y292195*
X306315Y291882*
Y291414*
X306088Y291101*
X305747Y290945*
X305293*
X304952Y291101*
X304724Y291414*
X307338Y294226D02*
X307906Y290945D01*
X308474Y294226D02*
X307906Y290945D01*
X308474Y294226D02*
X309043Y290945D01*
X309611Y294226D02*
X309043Y290945D01*
X310861Y294226D02*
X312111D01*
X311429Y292976*
X311770*
X311997Y292820*
X312111Y292664*
X312224Y292195*
Y291882*
X312111Y291414*
X311884Y291101*
X311884D02*
X311543Y290945D01*
X311202*
X310861Y291101*
X310747Y291257*
X310634Y291570*
X314724Y293132D02*
X314611Y292664D01*
X314384Y292351*
X314384D02*
X314043Y292195D01*
X313929*
X313588Y292351*
X313361Y292664*
X313247Y293132*
Y293289*
X313361Y293757*
X313588Y294070*
X313929Y294226*
X314043*
X314384Y294070*
X314384D02*
X314611Y293757D01*
X314724Y293132*
Y292351*
X314611Y291570*
X314384Y291101*
X314384D02*
X314043Y290945D01*
X313815*
X313474Y291101*
X313361Y291414*
X306315Y451238D02*
X306088Y451550D01*
X305747Y451706*
X305293*
X304952Y451550*
X304724Y451238*
Y450925*
X304838Y450613*
X304952Y450456*
X305179Y450300*
X305861Y449988*
X306088Y449831*
X306202Y449675*
X306315Y449363*
Y448894*
X306088Y448581*
X305747Y448425*
X305293*
X304952Y448581*
X304724Y448894*
X307338Y451706D02*
X307906Y448425D01*
X308474Y451706D02*
X307906Y448425D01*
X308474Y451706D02*
X309043Y448425D01*
X309611Y451706D02*
X309043Y448425D01*
X311770Y451706D02*
X310634Y449519D01*
X310634D02*
X312338D01*
X311770Y451706D02*
Y448425D01*
X361433Y293757D02*
X361206Y294070D01*
X360865Y294226*
X360411*
X360070Y294070*
X359843Y293757*
Y293445*
X359956Y293132*
X360070Y292976*
X360297Y292820*
X360979Y292507*
X361206Y292351*
X361320Y292195*
X361433Y291882*
Y291414*
X361206Y291101*
X360865Y290945*
X360411*
X360070Y291101*
X359843Y291414*
X362456Y294226D02*
X363024Y290945D01*
X363593Y294226D02*
X363024Y290945D01*
X363593Y294226D02*
X364161Y290945D01*
X364729Y294226D02*
X364161Y290945D01*
X366888Y294226D02*
X365752Y292039D01*
X367456*
X366888Y294226D02*
Y290945D01*
X369161Y294226D02*
X368820Y294070D01*
X368593Y293601*
X368479Y292820*
Y292351*
X368593Y291570*
X368820Y291101*
X369161Y290945*
X369388*
X369729Y291101*
X369956Y291570*
X370070Y292351*
Y292820*
X369956Y293601*
X369729Y294070*
X369388Y294226*
X369161*
X416552Y293757D02*
X416324Y294070D01*
X415983Y294226*
X415529*
X415188Y294070*
X414961Y293757*
Y293445*
X415074Y293132*
X415188Y292976*
X415415Y292820*
X416097Y292507*
X416324Y292351*
X416438Y292195*
X416552Y291882*
Y291414*
X416324Y291101*
X415983Y290945*
X415529*
X415188Y291101*
X414961Y291414*
X417574Y294226D02*
X418142Y290945D01*
X418711Y294226D02*
X418142Y290945D01*
X418711Y294226D02*
X419279Y290945D01*
X419847Y294226D02*
X419279Y290945D01*
X422006Y294226D02*
X420870Y292039D01*
X422574*
X422006Y294226D02*
Y290945D01*
X423597Y293601D02*
X423824Y293757D01*
X424165Y294226*
Y290945*
X140961Y254387D02*
X140734Y254700D01*
X140393Y254856*
X139938*
X139597Y254700*
X139370Y254387*
Y254075*
X139484Y253762*
X139597Y253606*
X139825Y253450*
X140506Y253137*
X140734Y252981*
X140847Y252825*
X140961Y252512*
Y252044*
X140734Y251731*
X140393Y251575*
X139938*
X139597Y251731*
X139370Y252044*
X141984Y254856D02*
X142552Y251575D01*
X143120Y254856D02*
X142552Y251575D01*
X143120Y254856D02*
X143688Y251575D01*
X144256Y254856D02*
X143688Y251575D01*
X146416Y254856D02*
X145279Y252669D01*
X146984*
X146416Y254856D02*
Y251575D01*
X149143Y254856D02*
X148006Y252669D01*
X149711*
X149143Y254856D02*
Y251575D01*
X196079Y254387D02*
X195852Y254700D01*
X195511Y254856*
X195056*
X194715Y254700*
X194488Y254387*
Y254075*
X194602Y253762*
X194715Y253606*
X194943Y253450*
X195625Y253137*
X195852Y252981*
X195965Y252825*
X196079Y252512*
Y252044*
X195852Y251731*
X195511Y251575*
X195056*
X194715Y251731*
X194488Y252044*
X197102Y254856D02*
X197670Y251575D01*
X198238Y254856D02*
X197670Y251575D01*
X198238Y254856D02*
X198806Y251575D01*
X199375Y254856D02*
X198806Y251575D01*
X201534Y254856D02*
X200397Y252669D01*
X202102*
X201534Y254856D02*
Y251575D01*
X204602Y254856D02*
X203465D01*
X203352Y253450*
X203465Y253606*
X203806Y253762*
X204147*
X204488Y253606*
X204715Y253294*
X204829Y252825*
X204715Y252512*
X204602Y252044*
X204375Y251731*
X204034Y251575*
X203693*
X203352Y251731*
X203238Y251887*
X203125Y252200*
X251197Y254387D02*
X250970Y254700D01*
X250629Y254856*
X250174*
X249834Y254700*
X249606Y254387*
Y254075*
X249720Y253762*
X249834Y253606*
X250061Y253450*
X250743Y253137*
X250970Y252981*
X251084Y252825*
X251197Y252512*
Y252044*
X250970Y251731*
X250629Y251575*
X250174*
X249834Y251731*
X249606Y252044*
X252220Y254856D02*
X252788Y251575D01*
X253356Y254856D02*
X252788Y251575D01*
X253356Y254856D02*
X253924Y251575D01*
X254493Y254856D02*
X253924Y251575D01*
X256652Y254856D02*
X255515Y252669D01*
X257220*
X256652Y254856D02*
Y251575D01*
X259606Y254387D02*
X259493Y254700D01*
X259152Y254856*
X258924*
X258584Y254700*
X258356Y254231*
X258243Y253450*
Y252669*
X258356Y252044*
X258584Y251731*
X258924Y251575*
X259038*
X259379Y251731*
X259606Y252044*
X259720Y252512*
Y252669*
X259606Y253137*
X259379Y253450*
X259038Y253606*
X258924*
X258584Y253450*
X258356Y253137*
X258243Y252669*
X306315Y254387D02*
X306088Y254700D01*
X305747Y254856*
X305293*
X304952Y254700*
X304724Y254387*
Y254075*
X304838Y253762*
X304952Y253606*
X305179Y253450*
X305861Y253137*
X306088Y252981*
X306202Y252825*
X306315Y252512*
Y252044*
X306088Y251731*
X305747Y251575*
X305293*
X304952Y251731*
X304724Y252044*
X307338Y254856D02*
X307906Y251575D01*
X308474Y254856D02*
X307906Y251575D01*
X308474Y254856D02*
X309043Y251575D01*
X309611Y254856D02*
X309043Y251575D01*
X311770Y254856D02*
X310634Y252669D01*
X310634D02*
X312338D01*
X311770Y254856D02*
Y251575D01*
X314952Y254856D02*
X313815Y251575D01*
X313361Y254856D02*
X314952D01*
X361433Y254387D02*
X361206Y254700D01*
X360865Y254856*
X360411*
X360070Y254700*
X359843Y254387*
Y254075*
X359956Y253762*
X360070Y253606*
X360297Y253450*
X360979Y253137*
X361206Y252981*
X361320Y252825*
X361433Y252512*
Y252044*
X361206Y251731*
X360865Y251575*
X360411*
X360070Y251731*
X359843Y252044*
X362456Y254856D02*
X363024Y251575D01*
X363593Y254856D02*
X363024Y251575D01*
X363593Y254856D02*
X364161Y251575D01*
X364729Y254856D02*
X364161Y251575D01*
X366888Y254856D02*
X365752Y252669D01*
X367456*
X366888Y254856D02*
Y251575D01*
X369047Y254856D02*
X368706Y254700D01*
X368593Y254387*
Y254075*
X368706Y253762*
X368933Y253606*
X369388Y253450*
X369729Y253294*
X369956Y252981*
X370070Y252669*
Y252200*
X369956Y251887*
X369843Y251731*
X369502Y251575*
X369047*
X368706Y251731*
X368593Y251887*
X368479Y252200*
Y252669*
X368593Y252981*
X368820Y253294*
X369161Y253450*
X369615Y253606*
X369843Y253762*
X369956Y254075*
Y254387*
X369843Y254700*
X369502Y254856*
X369047*
X416552Y252419D02*
X416324Y252731D01*
X415983Y252888*
X415529*
X415188Y252731*
X414961Y252419*
Y252106*
X415074Y251794*
X415188Y251638*
X415415Y251481*
X416097Y251169*
X416324Y251013*
X416438Y250856*
X416552Y250544*
Y250075*
X416324Y249763*
X415983Y249606*
X415529*
X415188Y249763*
X414961Y250075*
X417574Y252888D02*
X418142Y249606D01*
X418711Y252888D02*
X418142Y249606D01*
X418711Y252888D02*
X419279Y249606D01*
X419847Y252888D02*
X419279Y249606D01*
X422006Y252888D02*
X420870Y250700D01*
X422574*
X422006Y252888D02*
Y249606D01*
X425074Y251794D02*
X424961Y251325D01*
X424733Y251013*
X424392Y250856*
X424279*
X423938Y251013*
X423711Y251325*
X423597Y251794*
Y251950*
X423711Y252419*
X423938Y252731*
X424279Y252888*
X424392*
X424733Y252731*
X424961Y252419*
X425074Y251794*
Y251013*
X424961Y250231*
X424733Y249763*
X424392Y249606*
X424165*
X423824Y249763*
X423711Y250075*
X361433Y451238D02*
X361206Y451550D01*
X360865Y451706*
X360411*
X360070Y451550*
X359843Y451238*
Y450925*
X359956Y450613*
X360070Y450456*
X360297Y450300*
X360979Y449988*
X361206Y449831*
X361320Y449675*
X361433Y449363*
Y448894*
X361206Y448581*
X360865Y448425*
X360411*
X360070Y448581*
X359843Y448894*
X362456Y451706D02*
X363024Y448425D01*
X363593Y451706D02*
X363024Y448425D01*
X363593Y451706D02*
X364161Y448425D01*
X364729Y451706D02*
X364161Y448425D01*
X367229Y451706D02*
X366093D01*
X365979Y450300*
X366093Y450456*
X366433Y450613*
X366774*
X367115Y450456*
X367343Y450144*
X367456Y449675*
X367343Y449363*
X367229Y448894*
X367002Y448581*
X366661Y448425*
X366320*
X365979Y448581*
X365865Y448738*
X365752Y449050*
X140961Y175647D02*
X140734Y175960D01*
X140393Y176116*
X139938*
X139597Y175960*
X139370Y175647*
Y175335*
X139484Y175022*
X139597Y174866*
X139825Y174710*
X140506Y174397*
X140734Y174241*
X140847Y174085*
X140961Y173772*
Y173303*
X140734Y172991*
X140393Y172835*
X139938*
X139597Y172991*
X139370Y173303*
X141984Y176116D02*
X142552Y172835D01*
X143120Y176116D02*
X142552Y172835D01*
X143120Y176116D02*
X143688Y172835D01*
X144256Y176116D02*
X143688Y172835D01*
X146756Y176116D02*
X145620D01*
X145506Y174710*
X145620Y174866*
X145961Y175022*
X146302*
X146643Y174866*
X146870Y174553*
X146984Y174085*
X146870Y173772*
X146756Y173303*
X146529Y172991*
X146188Y172835*
X145847*
X145506Y172991*
X145393Y173147*
X145279Y173460*
X148688Y176116D02*
X148347Y175960D01*
X148120Y175491*
X148006Y174710*
Y174241*
X148120Y173460*
X148347Y172991*
X148688Y172835*
X148916*
X149256Y172991*
X149484Y173460*
X149597Y174241*
Y174710*
X149484Y175491*
X149256Y175960*
X148916Y176116*
X148688*
X196079Y175647D02*
X195852Y175960D01*
X195511Y176116*
X195056*
X194715Y175960*
X194488Y175647*
Y175335*
X194602Y175022*
X194715Y174866*
X194943Y174710*
X195625Y174397*
X195852Y174241*
X195965Y174085*
X196079Y173772*
Y173303*
X195852Y172991*
X195511Y172835*
X195056*
X194715Y172991*
X194488Y173303*
X197102Y176116D02*
X197670Y172835D01*
X198238Y176116D02*
X197670Y172835D01*
X198238Y176116D02*
X198806Y172835D01*
X199375Y176116D02*
X198806Y172835D01*
X201875Y176116D02*
X200738D01*
X200625Y174710*
X200738Y174866*
X201079Y175022*
X201420*
X201761Y174866*
X201988Y174553*
X202102Y174085*
X201988Y173772*
X201875Y173303*
X201647Y172991*
X201306Y172835*
X200965*
X200625Y172991*
X200511Y173147*
X200397Y173460*
X203125Y175491D02*
X203352Y175647D01*
X203693Y176116*
Y172835*
X140961Y215017D02*
X140734Y215330D01*
X140393Y215486*
X139938*
X139597Y215330*
X139370Y215017*
Y214705*
X139484Y214392*
X139597Y214236*
X139825Y214080*
X140506Y213767*
X140734Y213611*
X140847Y213455*
X140961Y213142*
Y212673*
X140734Y212361*
X140393Y212205*
X139938*
X139597Y212361*
X139370Y212673*
X141984Y215486D02*
X142552Y212205D01*
X143120Y215486D02*
X142552Y212205D01*
X143120Y215486D02*
X143688Y212205D01*
X144256Y215486D02*
X143688Y212205D01*
X146756Y215486D02*
X145620D01*
X145506Y214080*
X145620Y214236*
X145961Y214392*
X146302*
X146643Y214236*
X146870Y213923*
X146984Y213455*
X146870Y213142*
X146756Y212673*
X146529Y212361*
X146188Y212205*
X145847*
X145506Y212361*
X145393Y212517*
X145279Y212830*
X148120Y214705D02*
Y214861D01*
X148234Y215173*
X148347Y215330*
X148575Y215486*
X149029*
X149256Y215330*
X149370Y215173*
X149484Y214861*
Y214548*
X149370Y214236*
X149143Y213767*
X148006Y212205*
X149597*
X196079Y215017D02*
X195852Y215330D01*
X195511Y215486*
X195056*
X194715Y215330*
X194488Y215017*
Y214705*
X194602Y214392*
X194715Y214236*
X194943Y214080*
X195625Y213767*
X195852Y213611*
X195965Y213455*
X196079Y213142*
Y212673*
X195852Y212361*
X195511Y212205*
X195056*
X194715Y212361*
X194488Y212673*
X197102Y215486D02*
X197670Y212205D01*
X198238Y215486D02*
X197670Y212205D01*
X198238Y215486D02*
X198806Y212205D01*
X199375Y215486D02*
X198806Y212205D01*
X201875Y215486D02*
X200738D01*
X200625Y214080*
X200738Y214236*
X201079Y214392*
X201420*
X201761Y214236*
X201988Y213923*
X202102Y213455*
X201988Y213142*
X201875Y212673*
X201647Y212361*
X201306Y212205*
X200965*
X200625Y212361*
X200511Y212517*
X200397Y212830*
X203352Y215486D02*
X204602D01*
X203920Y214236*
X204261*
X204488Y214080*
X204602Y213923*
X204715Y213455*
Y213142*
X204602Y212673*
X204375Y212361*
X204034Y212205*
X203693*
X203352Y212361*
X203238Y212517*
X203125Y212830*
X251197Y215017D02*
X250970Y215330D01*
X250629Y215486*
X250174*
X249834Y215330*
X249606Y215017*
Y214705*
X249720Y214392*
X249834Y214236*
X250061Y214080*
X250743Y213767*
X250970Y213611*
X251084Y213455*
X251197Y213142*
Y212673*
X250970Y212361*
X250629Y212205*
X250174*
X249834Y212361*
X249606Y212673*
X252220Y215486D02*
X252788Y212205D01*
X253356Y215486D02*
X252788Y212205D01*
X253356Y215486D02*
X253924Y212205D01*
X254493Y215486D02*
X253924Y212205D01*
X256993Y215486D02*
X255856D01*
X255743Y214080*
X255856Y214236*
X256197Y214392*
X256538*
X256879Y214236*
X257106Y213923*
X257220Y213455*
X257106Y213142*
X256993Y212673*
X256765Y212361*
X256424Y212205*
X256084*
X255743Y212361*
X255629Y212517*
X255515Y212830*
X259379Y215486D02*
X258243Y213298D01*
X259947*
X259379Y215486D02*
Y212205D01*
X306315Y215017D02*
X306088Y215330D01*
X305747Y215486*
X305293*
X304952Y215330*
X304724Y215017*
Y214705*
X304838Y214392*
X304952Y214236*
X305179Y214080*
X305861Y213767*
X306088Y213611*
X306202Y213455*
X306315Y213142*
Y212673*
X306088Y212361*
X305747Y212205*
X305293*
X304952Y212361*
X304724Y212673*
X307338Y215486D02*
X307906Y212205D01*
X308474Y215486D02*
X307906Y212205D01*
X308474Y215486D02*
X309043Y212205D01*
X309611Y215486D02*
X309043Y212205D01*
X312111Y215486D02*
X310974D01*
X310861Y214080*
X310974Y214236*
X311315Y214392*
X311656*
X311997Y214236*
X312224Y213923*
X312338Y213455*
X312224Y213142*
X312111Y212673*
X311884Y212361*
X311884D02*
X311543Y212205D01*
X311202*
X310861Y212361*
X310747Y212517*
X310634Y212830*
X314838Y215486D02*
X313702D01*
X313588Y214080*
X313702Y214236*
X314043Y214392*
X314384*
X314384D02*
X314724Y214236D01*
X314952Y213923*
X315065Y213455*
X314952Y213142*
X314838Y212673*
X314611Y212361*
X314270Y212205*
X313929*
X313588Y212361*
X313474Y212517*
X313361Y212830*
X361433Y215017D02*
X361206Y215330D01*
X360865Y215486*
X360411*
X360070Y215330*
X359843Y215017*
Y214705*
X359956Y214392*
X360070Y214236*
X360297Y214080*
X360979Y213767*
X361206Y213611*
X361320Y213455*
X361433Y213142*
Y212673*
X361206Y212361*
X360865Y212205*
X360411*
X360070Y212361*
X359843Y212673*
X362456Y215486D02*
X363024Y212205D01*
X363593Y215486D02*
X363024Y212205D01*
X363593Y215486D02*
X364161Y212205D01*
X364729Y215486D02*
X364161Y212205D01*
X367229Y215486D02*
X366093D01*
X365979Y214080*
X366093Y214236*
X366433Y214392*
X366774*
X367115Y214236*
X367343Y213923*
X367456Y213455*
X367343Y213142*
X367229Y212673*
X367002Y212361*
X366661Y212205*
X366320*
X365979Y212361*
X365865Y212517*
X365752Y212830*
X369843Y215017D02*
X369729Y215330D01*
X369388Y215486*
X369161*
X368820Y215330*
X368593Y214861*
X368479Y214080*
Y213298*
X368593Y212673*
X368820Y212361*
X369161Y212205*
X369274*
X369615Y212361*
X369843Y212673*
X369956Y213142*
Y213298*
X369843Y213767*
X369615Y214080*
X369274Y214236*
X369161*
X368820Y214080*
X368593Y213767*
X368479Y213298*
X416552Y215017D02*
X416324Y215330D01*
X415983Y215486*
X415529*
X415188Y215330*
X414961Y215017*
Y214705*
X415074Y214392*
X415188Y214236*
X415415Y214080*
X416097Y213767*
X416324Y213611*
X416438Y213455*
X416552Y213142*
Y212673*
X416324Y212361*
X415983Y212205*
X415529*
X415188Y212361*
X414961Y212673*
X417574Y215486D02*
X418142Y212205D01*
X418711Y215486D02*
X418142Y212205D01*
X418711Y215486D02*
X419279Y212205D01*
X419847Y215486D02*
X419279Y212205D01*
X422347Y215486D02*
X421211D01*
X421097Y214080*
X421211Y214236*
X421552Y214392*
X421892*
X422233Y214236*
X422461Y213923*
X422574Y213455*
X422461Y213142*
X422347Y212673*
X422120Y212361*
X421779Y212205*
X421438*
X421097Y212361*
X420983Y212517*
X420870Y212830*
X425188Y215486D02*
X424052Y212205D01*
X423597Y215486D02*
X425188D01*
X196079Y136277D02*
X195852Y136590D01*
X195511Y136746*
X195056*
X194715Y136590*
X194488Y136277*
Y135965*
X194602Y135652*
X194715Y135496*
X194943Y135340*
X195625Y135027*
X195852Y134871*
X195965Y134715*
X196079Y134402*
Y133933*
X195852Y133621*
X195511Y133465*
X195056*
X194715Y133621*
X194488Y133933*
X197102Y136746D02*
X197670Y133465D01*
X198238Y136746D02*
X197670Y133465D01*
X198238Y136746D02*
X198806Y133465D01*
X199375Y136746D02*
X198806Y133465D01*
X201875Y136746D02*
X200738D01*
X200625Y135340*
X200738Y135496*
X201079Y135652*
X201420*
X201761Y135496*
X201988Y135183*
X202102Y134715*
X201988Y134402*
X201875Y133933*
X201647Y133621*
X201306Y133465*
X200965*
X200625Y133621*
X200511Y133777*
X200397Y134090*
X204602Y135652D02*
X204488Y135183D01*
X204261Y134871*
X203920Y134715*
X203806*
X203465Y134871*
X203238Y135183*
X203125Y135652*
Y135808*
X203238Y136277*
X203465Y136590*
X203806Y136746*
X203920*
X204261Y136590*
X204488Y136277*
X204602Y135652*
Y134871*
X204488Y134090*
X204261Y133621*
X203920Y133465*
X203693*
X203352Y133621*
X203238Y133933*
X416552Y136277D02*
X416324Y136590D01*
X415983Y136746*
X415529*
X415188Y136590*
X414961Y136277*
Y135965*
X415074Y135652*
X415188Y135496*
X415415Y135340*
X416097Y135027*
X416324Y134871*
X416438Y134715*
X416552Y134402*
Y133933*
X416324Y133621*
X415983Y133465*
X415529*
X415188Y133621*
X414961Y133933*
X417574Y136746D02*
X418142Y133465D01*
X418711Y136746D02*
X418142Y133465D01*
X418711Y136746D02*
X419279Y133465D01*
X419847Y136746D02*
X419279Y133465D01*
X422233Y136277D02*
X422120Y136590D01*
X421779Y136746*
X421552*
X421211Y136590*
X420983Y136121*
X420870Y135340*
Y134558*
X420983Y133933*
X421211Y133621*
X421552Y133465*
X421665*
X422006Y133621*
X422233Y133933*
X422347Y134402*
Y134558*
X422233Y135027*
X422006Y135340*
X421665Y135496*
X421552*
X421211Y135340*
X420983Y135027*
X420870Y134558*
X423597Y136746D02*
X424847D01*
X424165Y135496*
X424506*
X424733Y135340*
X424847Y135183*
X424961Y134715*
Y134402*
X424847Y133933*
X424620Y133621*
X424279Y133465*
X423938*
X423597Y133621*
X423483Y133777*
X423370Y134090*
X416552Y451238D02*
X416324Y451550D01*
X415983Y451706*
X415529*
X415188Y451550*
X414961Y451238*
Y450925*
X415074Y450613*
X415188Y450456*
X415415Y450300*
X416097Y449988*
X416324Y449831*
X416438Y449675*
X416552Y449363*
Y448894*
X416324Y448581*
X415983Y448425*
X415529*
X415188Y448581*
X414961Y448894*
X417574Y451706D02*
X418142Y448425D01*
X418711Y451706D02*
X418142Y448425D01*
X418711Y451706D02*
X419279Y448425D01*
X419847Y451706D02*
X419279Y448425D01*
X421438Y451706D02*
X421097Y451550D01*
X420983Y451238*
Y450925*
X421097Y450613*
X421324Y450456*
X421779Y450300*
X422120Y450144*
X422347Y449831*
X422461Y449519*
Y449050*
X422347Y448738*
X422233Y448581*
X421892Y448425*
X421438*
X421097Y448581*
X420983Y448738*
X420870Y449050*
Y449519*
X420983Y449831*
X421211Y450144*
X421552Y450300*
X422006Y450456*
X422233Y450613*
X422347Y450925*
Y451238*
X422233Y451550*
X421892Y451706*
X421438*
X140961Y451238D02*
X140734Y451550D01*
X140393Y451706*
X139938*
X139597Y451550*
X139370Y451238*
Y450925*
X139484Y450613*
X139597Y450456*
X139825Y450300*
X140506Y449988*
X140734Y449831*
X140847Y449675*
X140961Y449363*
Y448894*
X140734Y448581*
X140393Y448425*
X139938*
X139597Y448581*
X139370Y448894*
X141984Y451706D02*
X142552Y448425D01*
X143120Y451706D02*
X142552Y448425D01*
X143120Y451706D02*
X143688Y448425D01*
X144256Y451706D02*
X143688Y448425D01*
X146756Y450613D02*
X146643Y450144D01*
X146416Y449831*
X146075Y449675*
X145961*
X145620Y449831*
X145393Y450144*
X145279Y450613*
Y450769*
X145393Y451238*
X145620Y451550*
X145961Y451706*
X146075*
X146416Y451550*
X146643Y451238*
X146756Y450613*
Y449831*
X146643Y449050*
X146416Y448581*
X146075Y448425*
X145847*
X145506Y448581*
X145393Y448894*
X209273Y527783D02*
X212554D01*
X209273Y526987D02*
Y528578D01*
Y529601D02*
X212554D01*
X209273D02*
Y530624D01*
X209429Y530965*
X209586Y531078*
X209898Y531192*
X210367*
X210679Y531078*
X210836Y530965*
X210992Y530624*
Y529601*
X210367Y533692D02*
X210836Y533578D01*
X211148Y533351*
X211304Y533010*
Y532897*
X211148Y532556*
X210836Y532328*
X210367Y532215*
X210211*
X209742Y532328*
X209429Y532556*
X209273Y532897*
Y533010*
X209429Y533351*
X209742Y533578*
X210367Y533692*
X211148*
X211929Y533578*
X212398Y533351*
X212554Y533010*
Y532783*
X212398Y532442*
X212086Y532328*
X256307Y438321D02*
Y435039D01*
X255512Y438321D02*
X257103D01*
X258125D02*
Y435039D01*
Y438321D02*
X259148D01*
X259489Y438164*
X259603Y438008*
X259716Y437696*
Y437227*
X259603Y436914*
X259489Y436758*
X259148Y436602*
X258125*
X260739Y437696D02*
X260966Y437852D01*
X261307Y438321*
Y435039*
X262557Y438321D02*
X263807D01*
X263125Y437071*
X263466*
X263694Y436914*
X263807Y436758*
X263921Y436289*
Y435977*
X263807Y435508*
X263580Y435196*
X263239Y435039*
X262898*
X262557Y435196*
X262444Y435352*
X262330Y435664*
X213000Y442258D02*
Y438976D01*
X212205Y442258D02*
X213796D01*
X214818D02*
Y438976D01*
Y442258D02*
X215841D01*
X216182Y442101*
X216296Y441945*
X216409Y441633*
Y441164*
X216296Y440851*
X216182Y440695*
X215841Y440539*
X214818*
X217432Y441633D02*
X217659Y441789D01*
X218000Y442258*
Y438976*
X220159Y442258D02*
X219023Y440070D01*
X220727*
X220159Y442258D02*
Y438976D01*
X250402Y322179D02*
Y318898D01*
X249606Y322179D02*
X251197D01*
X252220D02*
Y318898D01*
Y322179D02*
X253243D01*
X253584Y322023*
X253697Y321866*
X253811Y321554*
Y321085*
X253697Y320773*
X253584Y320616*
X253243Y320460*
X252220*
X254834Y321554D02*
X255061Y321710D01*
X255402Y322179*
Y318898*
X256538Y321398D02*
Y321554D01*
X256652Y321866*
X256765Y322023*
X256993Y322179*
X257447*
X257674Y322023*
X257788Y321866*
X257902Y321554*
Y321241*
X257788Y320929*
X257561Y320460*
X256424Y318898*
X258015*
X178500Y703723D02*
X180843D01*
X181312Y703837*
X181625Y704064*
X181781Y704405*
Y704632*
X181625Y704973*
X181312Y705200*
X180843Y705314*
X178500*
X179125Y706337D02*
X178968Y706564D01*
X178500Y706905*
X181781*
X178500Y708609D02*
X178656Y708269D01*
X179125Y708041*
X179906Y707928*
X180375*
X181156Y708041*
X181625Y708269*
X181781Y708609*
Y708837*
X181625Y709178*
X181156Y709405*
X180375Y709519*
X179906*
X179125Y709405*
X178656Y709178*
X178500Y708837*
Y708609*
X436374Y703723D02*
X438717D01*
X439186Y703837*
X439499Y704064*
X439655Y704405*
Y704632*
X439499Y704973*
X439186Y705200*
X438717Y705314*
X436374*
X436999Y706337D02*
X436842Y706564D01*
X436374Y706905*
X439655*
X437155Y708041D02*
X436999D01*
X436686Y708155*
X436530Y708269*
X436374Y708496*
Y708950*
X436530Y709178*
X436686Y709291*
X436999Y709405*
X437311*
X437624Y709291*
X438092Y709064*
X439655Y707928*
Y709519*
X409296Y714781D02*
X406952D01*
X406483Y714667*
X406171Y714440*
X406014Y714099*
Y713872*
X406171Y713531*
X406483Y713304*
X406952Y713190*
X409296*
X408202Y710690D02*
X407733Y710804D01*
X407421Y711031*
X407264Y711372*
Y711485*
X407421Y711826*
X407733Y712054*
X408202Y712167*
X408358*
X408827Y712054*
X409139Y711826*
X409296Y711485*
Y711372*
X409139Y711031*
X408827Y710804*
X408202Y710690*
X407421*
X406639Y710804*
X406171Y711031*
X406014Y711372*
Y711599*
X406171Y711940*
X406483Y712054*
X387642Y712812D02*
X385298D01*
X384830Y712699*
X384517Y712471*
X384361Y712131*
Y711903*
X384517Y711562*
X384830Y711335*
X385298Y711221*
X387642*
X387017Y710199D02*
X387173Y709971D01*
X387642Y709631*
X384361*
X387642Y708381D02*
Y707131D01*
X386392Y707812*
Y707471*
X386236Y707244*
X386080Y707131*
X385611Y707017*
X385298*
X384830Y707131*
X384517Y707358*
X384361Y707699*
Y708040*
X384517Y708381*
X384673Y708494*
X384986Y708608*
X178500Y723408D02*
X180843D01*
X181312Y723522*
X181625Y723749*
X181781Y724090*
Y724317*
X181625Y724658*
X181312Y724885*
X180843Y724999*
X178500*
Y726590D02*
X178656Y726249D01*
X178968Y726135*
X179281*
X179593Y726249*
X179750Y726476*
X179906Y726931*
X180062Y727272*
X180375Y727499*
X180687Y727613*
X181156*
X181468Y727499*
X181625Y727385*
X181781Y727045*
X181781D02*
Y726590D01*
X181625Y726249*
X181468Y726135*
X181156Y726022*
X180687*
X180375Y726135*
X180062Y726363*
X179906Y726704*
X179750Y727158*
X179593Y727385*
X179281Y727499*
X178968*
X178656Y727385*
X178500Y727045*
X178500D02*
Y726590D01*
X357266Y692760D02*
Y690417D01*
X357380Y689948*
X357607Y689635*
X357948Y689479*
X358175*
X358516Y689635*
X358744Y689948*
X358857Y690417*
Y692760*
X359880Y692135D02*
X360107Y692292D01*
X360448Y692760*
Y689479*
X363062Y692760D02*
X361925Y689479D01*
X361471Y692760D02*
X363062D01*
X380888Y677012D02*
Y674668D01*
X381002Y674200*
X381229Y673887*
X381570Y673731*
X381798*
X382138Y673887*
X382366Y674200*
X382479Y674668*
Y677012*
X383502Y676387D02*
X383729Y676543D01*
X384070Y677012*
Y673731*
X385661Y677012D02*
X385320Y676856D01*
X385207Y676543*
Y676231*
X385320Y675918*
X385548Y675762*
X386002Y675606*
X386343Y675450*
X386570Y675137*
X386684Y674825*
Y674356*
X386570Y674043*
X386457Y673887*
X386116Y673731*
X385661*
X385320Y673887*
X385207Y674043*
X385093Y674356*
Y674825*
X385207Y675137*
X385434Y675450*
X385775Y675606*
X386229Y675762*
X386457Y675918*
X386570Y676231*
Y676543*
X386457Y676856*
X386116Y677012*
X385661*
X438025Y594023D02*
Y591679D01*
X438139Y591210*
X438366Y590898*
X438707Y590741*
X438934*
X439275Y590898*
X439502Y591210*
X439616Y591679*
Y594023*
X440752Y593241D02*
Y593398D01*
X440866Y593710*
X440979Y593866*
X441207Y594023*
X441661*
X441889Y593866*
X442002Y593710*
X442116Y593398*
Y593085*
X442002Y592773*
X441775Y592304*
X440639Y590741*
X442229*
X443366Y593241D02*
Y593398D01*
X443479Y593710*
X443593Y593866*
X443820Y594023*
X444275*
X444502Y593866*
X444616Y593710*
X444729Y593398*
Y593085*
X444616Y592773*
X444389Y592304*
X443252Y590741*
X444843*
X219117Y596003D02*
Y593659D01*
X219230Y593191*
X219458Y592878*
X219799Y592722*
X220026*
X220367Y592878*
X220594Y593191*
X220708Y593659*
Y596003*
X223094Y595534D02*
X222980Y595847D01*
X222640Y596003*
X222412*
X222071Y595847*
X221844Y595378*
X221730Y594597*
Y593816*
X221844Y593191*
X222071Y592878*
X222412Y592722*
X222526*
X222867Y592878*
X223094Y593191*
X223208Y593659*
Y593816*
X223094Y594284*
X222867Y594597*
X222526Y594753*
X222412*
X222071Y594597*
X221844Y594284*
X221730Y593816*
X230140Y682617D02*
Y680273D01*
X230254Y679805*
X230481Y679492*
X230822Y679336*
X231050*
X231390Y679492*
X231618Y679805*
X231731Y680273*
Y682617*
X234345D02*
X233209Y679336D01*
X232754Y682617D02*
X234345D01*
X243366Y522876D02*
X243054Y522762D01*
X242741Y522535*
X242585Y522308*
Y521853*
X242741Y521626*
X243054Y521399*
X243366Y521285*
X243835Y521172*
X244616*
X245085Y521285*
X245397Y521399*
X245710Y521626*
X245866Y521853*
Y522308*
X245710Y522535*
X245397Y522762*
X245085Y522876*
X242585Y524467D02*
X242741Y524126D01*
X243054Y524012*
X243366*
X243679Y524126*
X243835Y524353*
X243991Y524808*
X244147Y525149*
X244460Y525376*
X244772Y525490*
X245241*
X245554Y525376*
X245710Y525262*
X245866Y524922*
Y524467*
X245710Y524126*
X245554Y524012*
X245241Y523899*
X244772*
X244460Y524012*
X244147Y524240*
X243991Y524581*
X243835Y525035*
X243679Y525262*
X243366Y525376*
X243054*
X242741Y525262*
X242585Y524922*
Y524467*
Y527649D02*
X244772Y526512D01*
Y528217*
X242585Y527649D02*
X245866D01*
X246233Y552204D02*
X245920Y552090D01*
X245608Y551863*
X245452Y551636*
Y551181*
X245608Y550954*
X245920Y550727*
X246233Y550613*
X246702Y550499*
X247483*
X247952Y550613*
X248264Y550727*
X248577Y550954*
X248733Y551181*
Y551636*
X248577Y551863*
X248264Y552090*
X247952Y552204*
X245452Y553795D02*
X245608Y553454D01*
X245920Y553340*
X246233*
X246545Y553454*
X246702Y553681*
X246858Y554136*
X247014Y554477*
X247327Y554704*
X247639Y554817*
X248108*
X248420Y554704*
X248577Y554590*
X248733Y554249*
Y553795*
X248577Y553454*
X248420Y553340*
X248108Y553227*
X247639*
X247327Y553340*
X247014Y553567*
X246858Y553908*
X246702Y554363*
X246545Y554590*
X246233Y554704*
X245920*
X245608Y554590*
X245452Y554249*
Y553795*
Y556408D02*
X245608Y556067D01*
X245920Y555954*
X246233*
X246545Y556067*
X246702Y556295*
X246858Y556749*
X247014Y557090*
X247327Y557317*
X247639Y557431*
X248108*
X248420Y557317*
X248577Y557204*
X248733Y556863*
Y556408*
X248577Y556067*
X248420Y555954*
X248108Y555840*
X247639*
X247327Y555954*
X247014Y556181*
X246858Y556522*
X246702Y556977*
X246545Y557204*
X246233Y557317*
X245920*
X245608Y557204*
X245452Y556863*
Y556408*
X0Y0D02*
M02*
