*
*
G04 PADS 9.3 Build Number: 433611 generated Gerber (RS-274-X) file*
G04 PC Version=2.1*
*
%IN "opencalc.pcb"*%
*
%MOIN*%
*
%FSLAX35Y35*%
*
*
*
*
G04 PC Standard Apertures*
*
*
G04 Thermal Relief Aperture macro.*
%AMTER*
1,1,$1,0,0*
1,0,$1-$2,0,0*
21,0,$3,$4,0,0,45*
21,0,$3,$4,0,0,135*
%
*
*
G04 Annular Aperture macro.*
%AMANN*
1,1,$1,0,0*
1,0,$2,0,0*
%
*
*
G04 Odd Aperture macro.*
%AMODD*
1,1,$1,0,0*
1,0,$1-0.005,0,0*
%
*
*
G04 PC Custom Aperture Macros*
*
*
*
*
*
*
G04 PC Aperture Table*
*
%ADD010C,0.001*%
%ADD016C,0.09843*%
%ADD022R,0.06X0.06*%
%ADD023C,0.06*%
%ADD024R,0.05709X0.04528*%
%ADD025R,0.02165X0.03346*%
%ADD026R,0.1063X0.04528*%
%ADD027C,0.10236*%
%ADD028C,0.02953*%
%ADD029C,0.08661*%
%ADD031R,0.03937X0.03937*%
%ADD032R,0.01181X0.04724*%
%ADD040R,0.02469X0.02862*%
%ADD041R,0.02862X0.02469*%
%ADD042R,0.04043X0.02862*%
%ADD043R,0.02862X0.04043*%
%ADD044R,0.09555X0.10146*%
%ADD045R,0.04437X0.02862*%
%ADD046R,0.02862X0.04437*%
%ADD047R,0.02075X0.02075*%
%ADD048R,0.06602X0.09949*%
%ADD049R,0.065X0.065*%
%ADD050C,0.065*%
%ADD051R,0.03701X0.07008*%
%ADD054R,0.04831X0.02862*%
%ADD055C,0.0185*%
%ADD056R,0.02362X0.04134*%
%ADD057R,0.05906X0.01772*%
%ADD058R,0.05X0.05*%
*
*
*
*
G04 PC Circuitry*
G04 Layer Name opencalc.pcb - circuitry*
%LPD*%
*
*
G04 PC Custom Flashes*
G04 Layer Name opencalc.pcb - flashes*
%LPD*%
*
*
G04 PC Circuitry*
G04 Layer Name opencalc.pcb - circuitry*
%LPD*%
*
G54D10*
G54D16*
G01X170696Y503196D03*
X383295D03*
X140945Y704331D03*
X153543D03*
X161417Y716535D03*
X128346Y736220D03*
X164961D03*
G54D22*
X107874Y631496D03*
G54D23*
Y641496D03*
Y651496D03*
G54D24*
X151181Y681102D03*
Y688189D03*
X137402Y681102D03*
Y688189D03*
G54D25*
X443898Y603740D03*
X449016D03*
X446457Y612008D03*
G54D26*
X363780Y674803D03*
Y662992D03*
Y651181D03*
Y639370D03*
G54D27*
X152165Y417913D03*
Y400197D03*
X126575D03*
Y417913D03*
X372638Y142323D03*
Y124606D03*
X347047D03*
Y142323D03*
X207283Y417913D03*
Y400197D03*
X181693D03*
Y417913D03*
X262402D03*
Y400197D03*
X236811D03*
Y417913D03*
X317520D03*
Y400197D03*
X291929D03*
Y417913D03*
X372638D03*
Y400197D03*
X347047D03*
Y417913D03*
X427756D03*
Y400197D03*
X402165D03*
Y417913D03*
X262402Y142323D03*
Y124606D03*
X236811D03*
Y142323D03*
X317520D03*
Y124606D03*
X291929D03*
Y142323D03*
X152165Y378543D03*
Y360827D03*
X126575D03*
Y378543D03*
X207283Y457283D03*
Y439567D03*
X181693D03*
Y457283D03*
X427756Y378543D03*
Y360827D03*
X402165D03*
Y378543D03*
X372638Y181693D03*
Y163976D03*
X347047D03*
Y181693D03*
X207283Y378543D03*
Y360827D03*
X181693D03*
Y378543D03*
X262402D03*
Y360827D03*
X236811D03*
Y378543D03*
X317520D03*
Y360827D03*
X291929D03*
Y378543D03*
X372638D03*
Y360827D03*
X347047D03*
Y378543D03*
X427756Y181693D03*
Y163976D03*
X402165D03*
Y181693D03*
X152165Y142323D03*
Y124606D03*
X126575D03*
Y142323D03*
X152165Y339173D03*
Y321457D03*
X126575D03*
Y339173D03*
X207283D03*
Y321457D03*
X181693D03*
Y339173D03*
X262402Y457283D03*
Y439567D03*
X236811D03*
Y457283D03*
X262402Y339173D03*
Y321457D03*
X236811D03*
Y339173D03*
X317520D03*
Y321457D03*
X291929D03*
Y339173D03*
X372638D03*
Y321457D03*
X347047D03*
Y339173D03*
X427756D03*
Y321457D03*
X402165D03*
Y339173D03*
X262402Y181693D03*
Y163976D03*
X236811D03*
Y181693D03*
X317520D03*
Y163976D03*
X291929D03*
Y181693D03*
X152165Y299803D03*
Y282087D03*
X126575D03*
Y299803D03*
X207283D03*
Y282087D03*
X181693D03*
Y299803D03*
X262402D03*
Y282087D03*
X236811D03*
Y299803D03*
X317520D03*
Y282087D03*
X291929D03*
Y299803D03*
X317520Y457283D03*
Y439567D03*
X291929D03*
Y457283D03*
X372638Y299803D03*
Y282087D03*
X347047D03*
Y299803D03*
X427756D03*
Y282087D03*
X402165D03*
Y299803D03*
X152165Y260433D03*
Y242717D03*
X126575D03*
Y260433D03*
X207283D03*
Y242717D03*
X181693D03*
Y260433D03*
X262402D03*
Y242717D03*
X236811D03*
Y260433D03*
X317520D03*
Y242717D03*
X291929D03*
Y260433D03*
X372638D03*
Y242717D03*
X347047D03*
Y260433D03*
X427756Y258465D03*
Y240748D03*
X402165D03*
Y258465D03*
X372638Y457283D03*
Y439567D03*
X347047D03*
Y457283D03*
X152165Y181693D03*
Y163976D03*
X126575D03*
Y181693D03*
X207283D03*
Y163976D03*
X181693D03*
Y181693D03*
X152165Y221063D03*
Y203346D03*
X126575D03*
Y221063D03*
X207283D03*
Y203346D03*
X181693D03*
Y221063D03*
X262402D03*
Y203346D03*
X236811D03*
Y221063D03*
X317520D03*
Y203346D03*
X291929D03*
Y221063D03*
X372638D03*
Y203346D03*
X347047D03*
Y221063D03*
X427756D03*
Y203346D03*
X402165D03*
Y221063D03*
X207283Y142323D03*
Y124606D03*
X181693D03*
Y142323D03*
X427756D03*
Y124606D03*
X402165D03*
Y142323D03*
X427756Y457283D03*
Y439567D03*
X402165D03*
Y457283D03*
X152165D03*
Y439567D03*
X126575D03*
Y457283D03*
G54D28*
X220822Y526987D03*
X255512Y426772D03*
X212205Y430709D03*
X249606Y310630D03*
G54D29*
X396063Y610539D03*
Y660539D03*
G54D31*
X239457Y599811D03*
X302276D03*
X218984Y686425D03*
X313299D03*
G54D32*
X246457Y611811D03*
X248425D03*
X250394D03*
X252362D03*
X254331D03*
X256299D03*
X258268D03*
X260236D03*
X262205D03*
X264173D03*
X266142D03*
X268110D03*
X270079D03*
X272047D03*
X274016D03*
X275984D03*
X277953D03*
X279921D03*
X281890D03*
X283858D03*
X285827D03*
X287795D03*
X289764D03*
X291732D03*
X225984Y698425D03*
X227953D03*
X229921D03*
X231890D03*
X233858D03*
X235827D03*
X237795D03*
X239764D03*
X241732D03*
X243701D03*
X245669D03*
X247638D03*
X249606D03*
X251575D03*
X253543D03*
X255512D03*
X257480D03*
X259449D03*
X261417D03*
X263386D03*
X265354D03*
X267323D03*
X269291D03*
X271260D03*
X273228D03*
X275197D03*
X277165D03*
X279134D03*
X281102D03*
X283071D03*
X285039D03*
X287008D03*
X288976D03*
X290945D03*
X292913D03*
X294882D03*
X296850D03*
X298819D03*
X300787D03*
X302756D03*
G54D40*
X223523Y726001D03*
X219586D03*
X332828Y553541D03*
X328891D03*
X264473Y540123D03*
X260536D03*
X339341Y509091D03*
X343278D03*
X378942Y538436D03*
X382879D03*
X426772Y696457D03*
X422835D03*
X220095Y559018D03*
X224032D03*
X450394Y635433D03*
X446457D03*
X219697Y567569D03*
X223634D03*
X263386Y706299D03*
X267323D03*
X179082Y718076D03*
X183019D03*
X378740Y528156D03*
X382677D03*
X426772Y714173D03*
X422835D03*
X123622Y542913D03*
X119685D03*
X123622Y537008D03*
X119685D03*
X123622Y531102D03*
X119685D03*
X123622Y525197D03*
X119685D03*
X123622Y519291D03*
X119685D03*
X123622Y513386D03*
X119685D03*
X220079Y304724D03*
X224016D03*
X218110Y355906D03*
X222047D03*
X237812Y506594D03*
X241749D03*
X232436Y509251D03*
X228499D03*
X279134Y542913D03*
X283071D03*
X247407Y501291D03*
X251344D03*
X238942Y539826D03*
X242879D03*
X235048Y539816D03*
X231111D03*
X232436Y501377D03*
X228499D03*
X330315Y637402D03*
X334252D03*
X232436Y505314D03*
X228499D03*
X232673Y536607D03*
X228736D03*
X238022Y498703D03*
X241959D03*
X217252Y523837D03*
X213315D03*
X222758Y553215D03*
X218821D03*
X237841Y502656D03*
X241778D03*
X268572Y524431D03*
X272509D03*
X247407Y509165D03*
X251344D03*
X247407Y505228D03*
X251344D03*
X277410Y742789D03*
X273473D03*
X444488Y629528D03*
X448425D03*
X382879Y546318D03*
X378942D03*
X259940Y501784D03*
X256003D03*
X271260Y706299D03*
X275197D03*
X444488Y623622D03*
X448425D03*
X334252Y668898D03*
X330315D03*
X351969Y525197D03*
X355906D03*
X426772Y702362D03*
X422835D03*
X426772Y708268D03*
X422835D03*
X330315Y631496D03*
X334252D03*
X330315Y643307D03*
X334252D03*
X206299Y725984D03*
X202362D03*
X196457D03*
X192520D03*
X137402Y668898D03*
X133465D03*
Y542913D03*
X129528D03*
X133465Y537008D03*
X129528D03*
X133465Y531102D03*
X129528D03*
X133465Y525197D03*
X129528D03*
X133465Y519291D03*
X129528D03*
X133465Y513386D03*
X129528D03*
X237795Y310630D03*
X241732D03*
X204331D03*
X208268D03*
X202362Y389370D03*
X206299D03*
X188583D03*
X192520D03*
X222047Y332283D03*
X218110D03*
X249606Y389370D03*
X253543D03*
X222047Y340157D03*
X218110D03*
Y383465D03*
X222047D03*
X204331Y428740D03*
X200394D03*
X218110Y348031D03*
X222047D03*
X174803Y389370D03*
X178740D03*
X109843Y542913D03*
X113780D03*
X109843Y537008D03*
X113780D03*
X109843Y531102D03*
X113780D03*
X109843Y525197D03*
X113780D03*
X109843Y519291D03*
X113780D03*
X109843Y513386D03*
X113780D03*
X188892Y490683D03*
X192829D03*
X318504Y501575D03*
X322441D03*
X149213Y668898D03*
X145276D03*
X330315Y659055D03*
X334252D03*
X324409Y637402D03*
X320472D03*
X324409Y631496D03*
X320472D03*
X378942Y551919D03*
X382879D03*
X379085Y532798D03*
X383022D03*
X277296Y737406D03*
X273359D03*
X330315Y651181D03*
X334252D03*
X434646Y601969D03*
X430709D03*
X444488Y562598D03*
X448425D03*
G54D41*
X349713Y536272D03*
Y532335D03*
X344094Y558661D03*
Y554724D03*
X237795Y566535D03*
Y570472D03*
X220739Y543901D03*
Y547838D03*
X221050Y529801D03*
Y533738D03*
X215957Y547893D03*
Y543956D03*
X213256Y519413D03*
Y515476D03*
X444488Y694488D03*
Y698425D03*
X397244Y690551D03*
Y686614D03*
X217193Y519413D03*
Y515476D03*
X209319Y519413D03*
Y515476D03*
X397244Y676772D03*
Y680709D03*
X215889Y529716D03*
Y533653D03*
X267454Y629743D03*
Y625806D03*
X255744Y512192D03*
Y508255D03*
X432677Y690551D03*
Y686614D03*
X247638Y426772D03*
Y430709D03*
X308001Y530598D03*
Y534535D03*
X308172Y544319D03*
Y540382D03*
X349804Y540875D03*
Y544812D03*
X432677Y698425D03*
Y694488D03*
X438583Y690551D03*
Y686614D03*
X369732Y541403D03*
Y537466D03*
X284032Y550530D03*
Y554467D03*
X307524Y514994D03*
Y511057D03*
X430709Y613780D03*
Y609843D03*
X157087Y554724D03*
Y558661D03*
X162992Y554724D03*
Y558661D03*
X273487Y637689D03*
Y641626D03*
X183225Y519196D03*
Y523133D03*
X162992Y603937D03*
Y607874D03*
X139370Y554724D03*
Y558661D03*
X114602Y665289D03*
Y669226D03*
X151181Y554724D03*
Y558661D03*
X157087Y603937D03*
Y607874D03*
X139370Y603937D03*
Y607874D03*
X145276Y554724D03*
Y558661D03*
X334252Y674803D03*
Y678740D03*
X145276Y603937D03*
Y607874D03*
X151181Y603937D03*
Y607874D03*
X285039Y708268D03*
Y712205D03*
X397244Y696457D03*
Y700394D03*
Y706299D03*
Y710236D03*
X438583Y698425D03*
Y694488D03*
X444488Y690551D03*
Y686614D03*
X450394Y690551D03*
Y686614D03*
Y694488D03*
Y698425D03*
X225984Y436614D03*
Y432677D03*
X218110D03*
Y436614D03*
X257480Y706299D03*
Y710236D03*
X241732Y426772D03*
Y430709D03*
X329465Y509712D03*
Y505775D03*
X303639Y627620D03*
Y631557D03*
X279134Y712205D03*
Y716142D03*
X444488Y670866D03*
Y674803D03*
X430709Y570472D03*
Y566535D03*
Y596063D03*
Y592126D03*
Y580315D03*
Y576378D03*
X248866Y523203D03*
Y527140D03*
X251733Y552531D03*
Y556468D03*
G54D42*
X288976Y626575D03*
Y632480D03*
X253268Y688546D03*
Y682640D03*
X297345Y626322D03*
Y632227D03*
X235552Y688546D03*
Y682640D03*
X265900Y506857D03*
Y500951D03*
G54D43*
X439567Y662992D03*
X445472D03*
X274702Y631557D03*
X280608D03*
X280118Y603937D03*
X286024D03*
X280118Y598031D03*
X286024D03*
X240473Y681656D03*
X246379D03*
X439567Y629528D03*
X433661D03*
X439567Y635433D03*
X433661D03*
X439567Y623622D03*
X433661D03*
X274702Y625652D03*
X280608D03*
X240473Y687562D03*
X246379D03*
G54D44*
X144882Y686614D03*
X169291D03*
X144882Y664961D03*
X169291D03*
G54D45*
X355315Y712008D03*
Y704528D03*
X364370Y708268D03*
X335630Y712008D03*
Y704528D03*
X344685Y708268D03*
X404528Y696260D03*
Y688780D03*
X413583Y692520D03*
X380906Y694291D03*
Y686811D03*
X389961Y690551D03*
X341535Y641142D03*
Y633661D03*
X350591Y637402D03*
X217520Y322244D03*
Y314764D03*
X226575Y318504D03*
X217520Y399016D03*
Y391535D03*
X226575Y395276D03*
X217520Y373425D03*
Y365945D03*
X226575Y369685D03*
X217520Y420669D03*
Y413189D03*
X226575Y416929D03*
X341535Y658858D03*
Y651378D03*
X350591Y655118D03*
X341535Y676575D03*
Y669094D03*
X350591Y672835D03*
X341535Y623425D03*
Y615945D03*
X350591Y619685D03*
X323819Y623425D03*
Y615945D03*
X332874Y619685D03*
X217520Y454134D03*
Y446654D03*
X226575Y450394D03*
X437992Y580118D03*
Y572638D03*
X447047Y576378D03*
X176181Y712008D03*
Y704528D03*
X185236Y708268D03*
X434055Y712008D03*
Y704528D03*
X443110Y708268D03*
X411614Y706496D03*
Y713976D03*
X402559Y710236D03*
X389961Y704528D03*
Y712008D03*
X380906Y708268D03*
X176181Y731693D03*
Y724213D03*
X185236Y727953D03*
X229327Y719682D03*
Y712202D03*
X220272Y715942D03*
X423425Y629331D03*
Y621850D03*
X414370Y625591D03*
G54D46*
X391142Y452953D03*
X383661D03*
X387402Y443898D03*
X391142Y137992D03*
X383661D03*
X387402Y128937D03*
X170669Y413583D03*
X163189D03*
X166929Y404528D03*
X280906Y413583D03*
X273425D03*
X277165Y404528D03*
X391142Y413583D03*
X383661D03*
X387402Y404528D03*
X280741Y138294D03*
X273260D03*
X277000Y129239D03*
X170669Y374213D03*
X163189D03*
X166929Y365157D03*
X280906Y374213D03*
X273425D03*
X277165Y365157D03*
X391142Y374213D03*
X383661D03*
X387402Y365157D03*
X391142Y177362D03*
X383661D03*
X387402Y168307D03*
X170669Y334843D03*
X163189D03*
X166929Y325787D03*
X280906Y334843D03*
X273425D03*
X277165Y325787D03*
X391142Y334843D03*
X383661D03*
X387402Y325787D03*
X280906Y177362D03*
X273425D03*
X277165Y168307D03*
X170669Y295472D03*
X163189D03*
X166929Y286417D03*
X280906Y295472D03*
X273425D03*
X277165Y286417D03*
X391142Y295472D03*
X383661D03*
X387402Y286417D03*
X170669Y256102D03*
X163189D03*
X166929Y247047D03*
X280906Y256102D03*
X273425D03*
X277165Y247047D03*
X391142Y256102D03*
X383661D03*
X387402Y247047D03*
X170669Y177362D03*
X163189D03*
X166929Y168307D03*
X170669Y216732D03*
X163189D03*
X166929Y207677D03*
X280906Y216732D03*
X273425D03*
X277165Y207677D03*
X391142Y216732D03*
X383661D03*
X387402Y207677D03*
X170669Y137992D03*
X163189D03*
X166929Y128937D03*
X170669Y452953D03*
X163189D03*
X166929Y443898D03*
X280906Y452953D03*
X273425D03*
X277165Y443898D03*
X202165Y709646D03*
X194685D03*
X198425Y718701D03*
X365551Y703740D03*
X358071D03*
X361811Y712795D03*
X365551Y695079D03*
X358071D03*
X361811Y686024D03*
X389173Y679331D03*
X381693D03*
X385433Y670276D03*
X379724Y712795D03*
X387205D03*
X383465Y703740D03*
G54D47*
X240551Y389370D03*
X235039D03*
X328346Y674016D03*
Y679528D03*
G54D48*
X155762Y518035D03*
Y534570D03*
G54D49*
X437897Y736102D03*
G54D50*
Y726102D03*
X427897Y736102D03*
Y726102D03*
X417897Y736102D03*
Y726102D03*
X407897Y736102D03*
Y726102D03*
X397897Y736102D03*
Y726102D03*
X387897Y736102D03*
Y726102D03*
X377897Y736102D03*
Y726102D03*
X367897Y736102D03*
Y726102D03*
X357897Y736102D03*
Y726102D03*
X347897Y736102D03*
Y726102D03*
X337897Y736102D03*
Y726102D03*
X327897Y736102D03*
Y726102D03*
X317897Y736102D03*
Y726102D03*
X307897Y736102D03*
Y726102D03*
G54D51*
X160807Y570315D03*
X155807D03*
X150807D03*
X145807D03*
X140807D03*
X135807D03*
X130807D03*
X125807D03*
Y590315D03*
X130807D03*
X135807D03*
X140807D03*
X145807D03*
X150807D03*
X155807D03*
X160807D03*
G54D54*
X437205Y595866D03*
Y592126D03*
Y588386D03*
X447835D03*
Y595866D03*
G54D55*
X342913Y543307D03*
X339764D03*
X336614D03*
X324016D03*
X320866D03*
X317717D03*
X342913Y540157D03*
X339764D03*
X336614D03*
X324016D03*
X320866D03*
X317717D03*
X342913Y537008D03*
X339764D03*
X336614D03*
X324016D03*
X320866D03*
X317717D03*
X342913Y533858D03*
X339764D03*
X336614D03*
X324016D03*
X320866D03*
X317717D03*
X342913Y530709D03*
X339764D03*
X336614D03*
X324016D03*
X320866D03*
X317717D03*
X342913Y527559D03*
X339764D03*
X336614D03*
X324016D03*
X320866D03*
X317717D03*
X342913Y524409D03*
X339764D03*
X336614D03*
X324016D03*
X320866D03*
X317717D03*
X342913Y521260D03*
X339764D03*
X336614D03*
X324016D03*
X320866D03*
X317717D03*
X342913Y518110D03*
X339764D03*
X336614D03*
X324016D03*
X320866D03*
X317717D03*
X342913Y514961D03*
X339764D03*
X336614D03*
X324016D03*
X320866D03*
X317717D03*
G54D56*
X405709Y511417D03*
X410039D03*
X414370D03*
X418701D03*
X423031D03*
X427362D03*
X431693D03*
X436024D03*
X394094Y501457D03*
Y534528D03*
X447638Y501457D03*
Y534528D03*
G54D57*
X387497Y566722D03*
Y564163D03*
Y561604D03*
Y559045D03*
X364662D03*
Y561604D03*
Y564163D03*
Y566722D03*
G54D58*
X211437Y556576D03*
X189437D03*
Y566576D03*
X211437D03*
X0Y0D02*
M02*
