*
*
G04 PADS 9.3 Build Number: 433611 generated Gerber (RS-274-X) file*
G04 PC Version=2.1*
*
%IN "opencalc.pcb"*%
*
%MOIN*%
*
%FSDAX44Y44*%
*
*
*
*
G04 PC Standard Apertures*
*
*
G04 Thermal Relief Aperture macro.*
%AMTER*
1,1,$1,0,0*
1,0,$1-$2,0,0*
21,0,$3,$4,0,0,45*
21,0,$3,$4,0,0,135*
%
*
*
G04 Annular Aperture macro.*
%AMANN*
1,1,$1,0,0*
1,0,$2,0,0*
%
*
*
G04 Odd Aperture macro.*
%AMODD*
1,1,$1,0,0*
1,0,$1-0.005,0,0*
%
*
*
G04 PC Custom Aperture Macros*
*
*
*
*
*
*
G04 PC Aperture Table*
*
%ADD010C,0.001*%
%ADD011C,0.01*%
%ADD039C,0.00984*%
%ADD105C,0.10068*%
%ADD106R,0.02194X0.02587*%
%ADD107R,0.02587X0.02194*%
%ADD108R,0.02587X0.03768*%
%ADD109R,0.03768X0.02587*%
%ADD110R,0.04162X0.02587*%
%ADD111R,0.02587X0.04162*%
%ADD112R,0.018X0.018*%
%ADD113R,0.06225X0.06225*%
%ADD114C,0.06225*%
%ADD115R,0.05934X0.04753*%
%ADD116R,0.10855X0.04753*%
%ADD117C,0.10461*%
%ADD118C,0.03178*%
%ADD119C,0.08886*%
%ADD120R,0.04162X0.04162*%
%ADD121R,0.01406X0.04949*%
%ADD122R,0.05343X0.02981*%
%ADD123C,0.04162*%
*
*
*
*
G04 PC Circuitry*
G04 Layer Name opencalc.pcb - circuitry*
%LPD*%
*
*
G04 PC Custom Flashes*
G04 Layer Name opencalc.pcb - flashes*
%LPD*%
*
*
G04 PC Circuitry*
G04 Layer Name opencalc.pcb - circuitry*
%LPD*%
*
G54D10*
G54D11*
G01X00010000Y00075000D02*
Y00066765D01*
X00010196*
X00010196D02*
X00011378Y00065584D01*
Y00055741*
X00011378D02*
X00010196Y00054560D01*
X00010196D02*
X00010000D01*
X00010000D02*
Y00010000D01*
X00045500*
Y00075000*
X00010000*
G54D39*
X00024253Y00060552D02*
X00023699D01*
X00023699D02*
Y00060268D01*
X00023693Y00060254*
X00023693D02*
X00023682Y00060243D01*
X00023682D02*
X00023669Y00060237D01*
X00023669D02*
X00023384D01*
X00023384D02*
Y00059683D01*
X00023384D02*
X00024253D01*
X00024253D02*
Y00060552D01*
X00023415Y00059683D02*
Y00060237D01*
X00023464Y00059683D02*
Y00060237D01*
X00023513Y00059683D02*
Y00060237D01*
X00023563Y00059683D02*
Y00060237D01*
X00023612Y00059683D02*
Y00060237D01*
X00023661Y00059683D02*
Y00060237D01*
X00023710Y00059683D02*
Y00060552D01*
X00023759Y00059683D02*
Y00060552D01*
X00023809Y00059683D02*
Y00060552D01*
X00023858Y00059683D02*
Y00060552D01*
X00023907Y00059683D02*
Y00060552D01*
X00023956Y00059683D02*
Y00060552D01*
X00024005Y00059683D02*
Y00060552D01*
X00024055Y00059683D02*
Y00060552D01*
X00024104Y00059683D02*
Y00060552D01*
X00024153Y00059683D02*
Y00060552D01*
X00024202Y00059683D02*
Y00060552D01*
X00024252Y00059683D02*
Y00060552D01*
X00030434Y00060237D02*
X00030149D01*
X00030149D02*
X00030136Y00060243D01*
X00030125Y00060254*
X00030119Y00060268*
X00030119D02*
Y00060552D01*
X00030119D02*
X00029565D01*
X00029565D02*
Y00059683D01*
X00029565D02*
X00030434D01*
X00030434D02*
Y00060237D01*
X00029566Y00059683D02*
Y00060552D01*
X00029616Y00059683D02*
Y00060552D01*
X00029665Y00059683D02*
Y00060552D01*
X00029714Y00059683D02*
Y00060552D01*
X00029763Y00059683D02*
Y00060552D01*
X00029813Y00059683D02*
Y00060552D01*
X00029862Y00059683D02*
Y00060552D01*
X00029911Y00059683D02*
Y00060552D01*
X00029960Y00059683D02*
Y00060552D01*
X00030009Y00059683D02*
Y00060552D01*
X00030059Y00059683D02*
Y00060552D01*
X00030108Y00059683D02*
Y00060552D01*
X00030157Y00059683D02*
Y00060237D01*
X00030206Y00059683D02*
Y00060237D01*
X00030255Y00059683D02*
Y00060237D01*
X00030305Y00059683D02*
Y00060237D01*
X00030354Y00059683D02*
Y00060237D01*
X00030403Y00059683D02*
Y00060237D01*
X00031536Y00068899D02*
X00031252D01*
X00031238Y00068904*
X00031238D02*
X00031227Y00068915D01*
X00031227D02*
X00031221Y00068929D01*
X00031221D02*
Y00069214D01*
X00031221D02*
X00030667D01*
X00030667D02*
Y00068345D01*
X00030667D02*
X00031536D01*
X00031536D02*
Y00068899D01*
X00030669Y00068345D02*
Y00069214D01*
X00030718Y00068345D02*
Y00069214D01*
X00030767Y00068345D02*
Y00069214D01*
X00030816Y00068345D02*
Y00069214D01*
X00030866Y00068345D02*
Y00069214D01*
X00030915Y00068345D02*
Y00069214D01*
X00030964Y00068345D02*
Y00069214D01*
X00031013Y00068345D02*
Y00069214D01*
X00031063Y00068345D02*
Y00069214D01*
X00031112Y00068345D02*
Y00069214D01*
X00031161Y00068345D02*
Y00069214D01*
X00031210Y00068345D02*
Y00069214D01*
X00031259Y00068345D02*
Y00068899D01*
X00031309Y00068345D02*
Y00068899D01*
X00031358Y00068345D02*
Y00068899D01*
X00031407Y00068345D02*
Y00068899D01*
X00031456Y00068345D02*
Y00068899D01*
X00031505Y00068345D02*
Y00068899D01*
X00022206Y00069214D02*
X00021652D01*
Y00068929*
X00021646Y00068915*
X00021646D02*
X00021635Y00068904D01*
X00021635D02*
X00021621Y00068899D01*
X00021621D02*
X00021337D01*
Y00068345*
X00022206*
Y00069214*
X00021368Y00068345D02*
Y00068899D01*
X00021417Y00068345D02*
Y00068899D01*
X00021466Y00068345D02*
Y00068899D01*
X00021515Y00068345D02*
Y00068899D01*
X00021565Y00068345D02*
Y00068899D01*
X00021614Y00068345D02*
Y00068899D01*
X00021663Y00068345D02*
Y00069214D01*
X00021712Y00068345D02*
Y00069214D01*
X00021761Y00068345D02*
Y00069214D01*
X00021811Y00068345D02*
Y00069214D01*
X00021860Y00068345D02*
Y00069214D01*
X00021909Y00068345D02*
Y00069214D01*
X00021958Y00068345D02*
Y00069214D01*
X00022007Y00068345D02*
Y00069214D01*
X00022057Y00068345D02*
Y00069214D01*
X00022106Y00068345D02*
Y00069214D01*
X00022155Y00068345D02*
Y00069214D01*
X00022204Y00068345D02*
Y00069214D01*
G54D105*
X00017069Y00050319D03*
X00038329D03*
X00018230Y00070429D03*
X00019489D03*
X00020277Y00071649D03*
X00016970Y00073618D03*
X00020631D03*
G54D106*
X00033282Y00055354D03*
X00032889D03*
X00026447Y00054012D03*
X00026053D03*
X00021614Y00073385D03*
X00022007D03*
X00037874Y00052815D03*
X00038267D03*
X00021811Y00035590D03*
X00022204D03*
X00027913Y00054291D03*
X00028307D03*
X00023894Y00053982D03*
X00024287D03*
X00023343Y00054072D03*
X00022949D03*
X00033031Y00063740D03*
X00033425D03*
X00023300Y00053539D03*
X00022906D03*
X00026857Y00052443D03*
X00027250D03*
X00033425Y00066889D03*
X00033031D03*
X00035196Y00052519D03*
X00035590D03*
X00033031Y00063149D03*
X00033425D03*
X00033031Y00064330D03*
X00033425D03*
X00022007Y00073976D03*
X00021614D03*
X00023779Y00031063D03*
X00024173D03*
X00020433D03*
X00020826D03*
X00020236Y00038937D03*
X00020629D03*
X00018858D03*
X00019252D03*
X00022204Y00033228D03*
X00021811D03*
X00024960Y00038937D03*
X00025354D03*
X00022204Y00034015D03*
X00021811D03*
Y00038346D03*
X00022204D03*
X00020433Y00042874D03*
X00020039D03*
X00021811Y00034803D03*
X00022204D03*
X00017480Y00038937D03*
X00017874D03*
X00025157Y00073779D03*
X00025551D03*
X00033031Y00065905D03*
X00033425D03*
X00032440Y00063740D03*
X00032047D03*
X00032440Y00063149D03*
X00032047D03*
X00029539Y00063733D03*
X00029933D03*
X00033031Y00065118D03*
X00033425D03*
X00010984Y00068858D03*
X00010590D03*
X00010984Y00069448D03*
X00010590D03*
G54D107*
X00023779Y00056653D03*
Y00057047D03*
X00044253Y00068960D03*
Y00069353D03*
X00039724Y00069055D03*
Y00068661D03*
Y00067677D03*
Y00068070D03*
X00026774Y00063187D03*
Y00062794D03*
X00026822Y00071585D03*
Y00071191D03*
X00043041Y00068275D03*
Y00067881D03*
X00024763Y00042677D03*
Y00043070D03*
X00030800Y00053059D03*
Y00053453D03*
X00030817Y00054431D03*
Y00054038D03*
X00043072Y00069353D03*
Y00068960D03*
X00043632Y00068275D03*
Y00067881D03*
X00021846Y00030399D03*
Y00030005D03*
X00028403Y00055053D03*
Y00055446D03*
X00030752Y00051499D03*
Y00051105D03*
X00027348Y00063768D03*
Y00064162D03*
X00027402Y00071589D03*
Y00071195D03*
X00012755Y00047992D03*
Y00048385D03*
X00033425Y00067480D03*
Y00067874D03*
X00028747Y00070895D03*
Y00071289D03*
X00039724Y00069645D03*
Y00070039D03*
Y00070629D03*
Y00071023D03*
X00026280Y00071243D03*
Y00071637D03*
X00026215Y00072194D03*
Y00072588D03*
X00043663Y00069353D03*
Y00068960D03*
X00044222Y00068275D03*
Y00067881D03*
X00044813Y00068275D03*
Y00067881D03*
X00044844Y00068960D03*
Y00069353D03*
X00022598Y00043661D03*
Y00043267D03*
X00021811D03*
Y00043661D03*
X00025693Y00070869D03*
Y00071263D03*
X00024173Y00042677D03*
Y00043070D03*
X00028034Y00071220D03*
Y00071614D03*
X00024886Y00052320D03*
Y00052714D03*
X00025173Y00055253D03*
Y00055646D03*
G54D108*
X00029931Y00062434D03*
X00029341D03*
X00028160Y00064569D03*
X00028750D03*
X00028060Y00063070D03*
X00028650D03*
X00028087Y00062388D03*
X00028678D03*
X00029450Y00063061D03*
X00030040D03*
X00028114Y00063924D03*
X00028705D03*
G54D109*
X00024782Y00071426D03*
Y00072017D03*
X00022230Y00071930D03*
Y00071339D03*
X00023017D03*
Y00071930D03*
X00024030Y00071328D03*
Y00071918D03*
G54D110*
X00035531Y00071200D03*
Y00070452D03*
X00036437Y00070826D03*
X00033563Y00071200D03*
Y00070452D03*
X00034468Y00070826D03*
X00040452Y00069626D03*
Y00068878D03*
X00041358Y00069252D03*
X00038090Y00069429D03*
Y00068681D03*
X00038996Y00069055D03*
X00034153Y00064114D03*
Y00063366D03*
X00035059Y00063740D03*
X00021752Y00032224D03*
Y00031476D03*
X00022657Y00031850D03*
X00021752Y00039901D03*
Y00039153D03*
X00022657Y00039527D03*
X00021752Y00037342D03*
Y00036594D03*
X00022657Y00036968D03*
X00021752Y00042066D03*
Y00041318D03*
X00022657Y00041692D03*
X00034153Y00065885D03*
Y00065137D03*
X00035059Y00065511D03*
X00034153Y00067657D03*
Y00066909D03*
X00035059Y00067283D03*
X00034153Y00062342D03*
Y00061594D03*
X00035059Y00061968D03*
X00032381Y00062342D03*
Y00061594D03*
X00033287Y00061968D03*
X00021752Y00045413D03*
Y00044665D03*
X00022657Y00045039D03*
X00043405Y00071200D03*
Y00070452D03*
X00044311Y00070826D03*
X00041438Y00070749D03*
Y00071497D03*
X00040533Y00071123D03*
X00038996Y00070452D03*
Y00071200D03*
X00038090Y00070826D03*
X00027775Y00072421D03*
Y00073169D03*
X00026870Y00072795D03*
G54D111*
X00039114Y00045295D03*
X00038366D03*
X00038740Y00044389D03*
X00039114Y00013799D03*
X00038366D03*
X00038740Y00012893D03*
X00017066Y00041358D03*
X00016318D03*
X00016692Y00040452D03*
X00028090Y00041358D03*
X00027342D03*
X00027716Y00040452D03*
X00039114Y00041358D03*
X00038366D03*
X00038740Y00040452D03*
X00028074Y00013829D03*
X00027326D03*
X00027700Y00012923D03*
X00017066Y00037421D03*
X00016318D03*
X00016692Y00036515D03*
X00028090Y00037421D03*
X00027342D03*
X00027716Y00036515D03*
X00039114Y00037421D03*
X00038366D03*
X00038740Y00036515D03*
X00039114Y00017736D03*
X00038366D03*
X00038740Y00016830D03*
X00017066Y00033484D03*
X00016318D03*
X00016692Y00032578D03*
X00028090Y00033484D03*
X00027342D03*
X00027716Y00032578D03*
X00039114Y00033484D03*
X00038366D03*
X00038740Y00032578D03*
X00028090Y00017736D03*
X00027342D03*
X00027716Y00016830D03*
X00017066Y00029547D03*
X00016318D03*
X00016692Y00028641D03*
X00028090Y00029547D03*
X00027342D03*
X00027716Y00028641D03*
X00039114Y00029547D03*
X00038366D03*
X00038740Y00028641D03*
X00017066Y00025610D03*
X00016318D03*
X00016692Y00024704D03*
X00028090Y00025610D03*
X00027342D03*
X00027716Y00024704D03*
X00039114Y00025610D03*
X00038366D03*
X00038740Y00024704D03*
X00017066Y00017736D03*
X00016318D03*
X00016692Y00016830D03*
X00017066Y00021673D03*
X00016318D03*
X00016692Y00020767D03*
X00028090Y00021673D03*
X00027342D03*
X00027716Y00020767D03*
X00039114Y00021673D03*
X00038366D03*
X00038740Y00020767D03*
X00017066Y00013799D03*
X00016318D03*
X00016692Y00012893D03*
X00017066Y00045295D03*
X00016318D03*
X00016692Y00044389D03*
X00028090Y00045295D03*
X00027342D03*
X00027716Y00044389D03*
X00018051Y00069114D03*
X00017303D03*
X00017677Y00068208D03*
X00020216Y00069114D03*
X00019468D03*
X00019842Y00068208D03*
X00036555Y00069507D03*
X00035807D03*
X00036181Y00068602D03*
X00038917Y00067933D03*
X00038169D03*
X00038543Y00067027D03*
G54D112*
X00024055Y00038937D03*
X00023503D03*
X00032834Y00067401D03*
Y00067952D03*
G54D113*
X00043789Y00073610D03*
G54D114*
Y00072610D03*
X00042789Y00073610D03*
Y00072610D03*
X00041789Y00073610D03*
Y00072610D03*
X00040789Y00073610D03*
Y00072610D03*
X00039789Y00073610D03*
Y00072610D03*
X00038789Y00073610D03*
Y00072610D03*
X00037789Y00073610D03*
Y00072610D03*
X00036789Y00073610D03*
Y00072610D03*
X00035789Y00073610D03*
Y00072610D03*
X00034789Y00073610D03*
Y00072610D03*
X00033789Y00073610D03*
Y00072610D03*
X00032789Y00073610D03*
Y00072610D03*
X00031789Y00073610D03*
Y00072610D03*
X00030789Y00073610D03*
Y00072610D03*
G54D115*
X00024173Y00073740D03*
Y00073031D03*
X00022992Y00073740D03*
Y00073031D03*
G54D116*
X00036378Y00067480D03*
Y00066299D03*
Y00065118D03*
Y00063937D03*
G54D117*
X00015219Y00041795D03*
Y00040024D03*
X00012660D03*
Y00041795D03*
X00037259Y00014235D03*
Y00012464D03*
X00034700D03*
Y00014235D03*
X00020729Y00041795D03*
Y00040024D03*
X00018170D03*
Y00041795D03*
X00026239D03*
Y00040024D03*
X00023680D03*
Y00041795D03*
X00031749D03*
Y00040024D03*
X00029190D03*
Y00041795D03*
X00037259D03*
Y00040024D03*
X00034700D03*
Y00041795D03*
X00042779D03*
Y00040024D03*
X00040220D03*
Y00041795D03*
X00026239Y00014235D03*
Y00012464D03*
X00023680D03*
Y00014235D03*
X00031749D03*
Y00012464D03*
X00029190D03*
Y00014235D03*
X00015219Y00037855D03*
Y00036084D03*
X00012660D03*
Y00037855D03*
X00020729Y00045725D03*
Y00043954D03*
X00018170D03*
Y00045725D03*
X00042779Y00037855D03*
Y00036084D03*
X00040220D03*
Y00037855D03*
X00037259Y00018165D03*
Y00016394D03*
X00034700D03*
Y00018165D03*
X00020729Y00037855D03*
Y00036084D03*
X00018170D03*
Y00037855D03*
X00026239D03*
Y00036084D03*
X00023680D03*
Y00037855D03*
X00031749D03*
Y00036084D03*
X00029190D03*
Y00037855D03*
X00037259D03*
Y00036084D03*
X00034700D03*
Y00037855D03*
X00042779Y00018165D03*
Y00016394D03*
X00040220D03*
Y00018165D03*
X00015219Y00014235D03*
Y00012464D03*
X00012660D03*
Y00014235D03*
X00015219Y00033915D03*
Y00032144D03*
X00012660D03*
Y00033915D03*
X00020729D03*
Y00032144D03*
X00018170D03*
Y00033915D03*
X00026239Y00045725D03*
Y00043954D03*
X00023680D03*
Y00045725D03*
X00026239Y00033915D03*
Y00032144D03*
X00023680D03*
Y00033915D03*
X00031749D03*
Y00032144D03*
X00029190D03*
Y00033915D03*
X00037259D03*
Y00032144D03*
X00034700D03*
Y00033915D03*
X00042779D03*
Y00032144D03*
X00040220D03*
Y00033915D03*
X00026239Y00018165D03*
Y00016394D03*
X00023680D03*
Y00018165D03*
X00031749D03*
Y00016394D03*
X00029190D03*
Y00018165D03*
X00015219Y00029975D03*
Y00028204D03*
X00012660D03*
Y00029975D03*
X00020729D03*
Y00028204D03*
X00018170D03*
Y00029975D03*
X00026239D03*
Y00028204D03*
X00023680D03*
Y00029975D03*
X00031749D03*
Y00028204D03*
X00029190D03*
Y00029975D03*
X00031749Y00045725D03*
Y00043954D03*
X00029190D03*
Y00045725D03*
X00037259Y00029975D03*
Y00028204D03*
X00034700D03*
Y00029975D03*
X00042779D03*
Y00028204D03*
X00040220D03*
Y00029975D03*
X00015219Y00026045D03*
Y00024274D03*
X00012660D03*
Y00026045D03*
X00020729D03*
Y00024274D03*
X00018170D03*
Y00026045D03*
X00026239D03*
Y00024274D03*
X00023680D03*
Y00026045D03*
X00031749D03*
Y00024274D03*
X00029190D03*
Y00026045D03*
X00037259D03*
Y00024274D03*
X00034700D03*
Y00026045D03*
X00042779D03*
Y00024274D03*
X00040220D03*
Y00026045D03*
X00037259Y00045725D03*
Y00043954D03*
X00034700D03*
Y00045725D03*
X00015219Y00018165D03*
Y00016394D03*
X00012660D03*
Y00018165D03*
X00020729D03*
Y00016394D03*
X00018170D03*
Y00018165D03*
X00015219Y00022105D03*
Y00020334D03*
X00012660D03*
Y00022105D03*
X00020729D03*
Y00020334D03*
X00018170D03*
Y00022105D03*
X00026239D03*
Y00020334D03*
X00023680D03*
Y00022105D03*
X00031749D03*
Y00020334D03*
X00029190D03*
Y00022105D03*
X00037259D03*
Y00020334D03*
X00034700D03*
Y00022105D03*
X00042779D03*
Y00020334D03*
X00040220D03*
Y00022105D03*
X00020729Y00014235D03*
Y00012464D03*
X00018170D03*
Y00014235D03*
X00042779D03*
Y00012464D03*
X00040220D03*
Y00014235D03*
X00042779Y00045725D03*
Y00043954D03*
X00040220D03*
Y00045725D03*
X00015219D03*
Y00043954D03*
X00012660D03*
Y00045725D03*
G54D118*
X00026231Y00062855D03*
X00032038Y00068229D03*
X00021965Y00052675D03*
X00025551Y00042677D03*
X00021220Y00043070D03*
X00024960Y00031063D03*
G54D119*
X00039606Y00061053D03*
Y00066053D03*
G54D120*
X00023945Y00059981D03*
X00030227D03*
X00021898Y00068642D03*
X00031329D03*
G54D121*
X00024645Y00061181D03*
X00024842D03*
X00025039D03*
X00025236D03*
X00025433D03*
X00025629D03*
X00025826D03*
X00026023D03*
X00026220D03*
X00026417D03*
X00026614D03*
X00026811D03*
X00027007D03*
X00027204D03*
X00027401D03*
X00027598D03*
X00027795D03*
X00027992D03*
X00028189D03*
X00028385D03*
X00028582D03*
X00028779D03*
X00028976D03*
X00029173D03*
X00022598Y00069842D03*
X00022795D03*
X00022992D03*
X00023189D03*
X00023385D03*
X00023582D03*
X00023779D03*
X00023976D03*
X00024173D03*
X00024370D03*
X00024566D03*
X00024763D03*
X00024960D03*
X00025157D03*
X00025354D03*
X00025551D03*
X00025748D03*
X00025944D03*
X00026141D03*
X00026338D03*
X00026535D03*
X00026732D03*
X00026929D03*
X00027126D03*
X00027322D03*
X00027519D03*
X00027716D03*
X00027913D03*
X00028110D03*
X00028307D03*
X00028503D03*
X00028700D03*
X00028897D03*
X00029094D03*
X00029291D03*
X00029488D03*
X00029685D03*
X00029881D03*
X00030078D03*
X00030275D03*
G54D122*
X00014133Y00071003D03*
Y00070255D03*
X00012755Y00071003D03*
Y00070255D03*
X00011503Y00073828D03*
Y00074576D03*
X00010787Y00071003D03*
Y00070255D03*
X00010702Y00071843D03*
Y00072591D03*
X00012837Y00071945D03*
Y00072693D03*
X00011771Y00071830D03*
Y00072578D03*
Y00071003D03*
Y00070255D03*
X00015061Y00073774D03*
Y00074522D03*
X00013937Y00073799D03*
Y00074547D03*
X00013896Y00072675D03*
Y00071927D03*
G54D123*
X00011180Y00047290D03*
Y00047790D03*
Y00048290D03*
X00028972Y00072721D03*
Y00073221D03*
X00000000Y00000000D02*
M02*
