*
*
G04 PADS 9.3 Build Number: 433611 generated Gerber (RS-274-X) file*
G04 PC Version=2.1*
*
%IN "opencalc.pcb"*%
*
%MOIN*%
*
%FSDAX44Y44*%
*
*
*
*
G04 PC Standard Apertures*
*
*
G04 Thermal Relief Aperture macro.*
%AMTER*
1,1,$1,0,0*
1,0,$1-$2,0,0*
21,0,$3,$4,0,0,45*
21,0,$3,$4,0,0,135*
%
*
*
G04 Annular Aperture macro.*
%AMANN*
1,1,$1,0,0*
1,0,$2,0,0*
%
*
*
G04 Odd Aperture macro.*
%AMODD*
1,1,$1,0,0*
1,0,$1-0.005,0,0*
%
*
*
G04 PC Custom Aperture Macros*
*
*
*
*
*
*
G04 PC Aperture Table*
*
%ADD010C,0.001*%
%ADD015C,0.00787*%
%ADD017R,0.01969X0.02362*%
%ADD018R,0.02362X0.01969*%
%ADD019R,0.03937X0.02362*%
%ADD020R,0.02362X0.03937*%
%ADD021R,0.01575X0.01575*%
%ADD024R,0.05709X0.04528*%
%ADD026R,0.1063X0.04528*%
%ADD031R,0.03937X0.03937*%
%ADD032R,0.01181X0.04724*%
%ADD033C,0.01181*%
%ADD039C,0.00984*%
%ADD056R,0.02362X0.04134*%
%ADD057R,0.05906X0.01772*%
%ADD058R,0.05X0.05*%
%ADD059R,0.02992X0.06299*%
%ADD061C,0.01575*%
%ADD069R,0.03543X0.02362*%
%ADD070R,0.02362X0.03543*%
%ADD090O,0.03543X0.01378*%
%ADD092R,0.01181X0.0315*%
%ADD093R,0.01181X0.02559*%
%ADD094R,0.01575X0.0374*%
%ADD095R,0.05118X0.02756*%
%ADD098R,0.03543X0.06693*%
*
*
*
*
G04 PC Circuitry*
G04 Layer Name opencalc.pcb - circuitry*
%LPD*%
*
*
G04 PC Custom Flashes*
G04 Layer Name opencalc.pcb - flashes*
%LPD*%
*
*
G04 PC Circuitry*
G04 Layer Name opencalc.pcb - circuitry*
%LPD*%
*
G54D10*
G54D15*
G01X00044803Y00065192D02*
X00044665D01*
X00044665D02*
Y00065181D01*
X00044803*
Y00065192*
Y00065015D02*
X00044665D01*
X00044665D02*
Y00065003D01*
X00044665D02*
X00044803D01*
X00044803D02*
Y00065015D01*
Y00064838D02*
X00044665D01*
X00044665D02*
Y00064826D01*
X00044665D02*
X00044803D01*
X00044803D02*
Y00064838D01*
Y00064661D02*
X00044665D01*
Y00064649*
X00044665D02*
X00044803D01*
X00044803D02*
Y00064661D01*
X00043444Y00065192D02*
X00043307D01*
X00043307D02*
Y00065181D01*
X00043444*
X00043444D02*
Y00065192D01*
Y00064838D02*
X00043307D01*
X00043307D02*
Y00064826D01*
X00043307D02*
X00043444D01*
X00043444D02*
Y00064838D01*
Y00064661D02*
X00043307D01*
Y00064649*
X00043307D02*
X00043444D01*
X00043444D02*
Y00064661D01*
Y00065015D02*
X00043307D01*
X00043307D02*
Y00065003D01*
X00043307D02*
X00043444D01*
X00043444D02*
Y00065015D01*
X00044765Y00065181D02*
Y00065192D01*
Y00065003D02*
Y00065015D01*
Y00064826D02*
Y00064838D01*
Y00064649D02*
Y00064661D01*
X00043407Y00065181D02*
Y00065192D01*
Y00064826D02*
Y00064838D01*
Y00064649D02*
Y00064661D01*
Y00065003D02*
Y00065015D01*
G54D17*
X00033282Y00055354D03*
X00032889D03*
X00026447Y00054012D03*
X00026053D03*
X00021614Y00073385D03*
X00022007D03*
X00037874Y00052815D03*
X00038267D03*
X00021811Y00035590D03*
X00022204D03*
X00027913Y00054291D03*
X00028307D03*
X00023894Y00053982D03*
X00024287D03*
X00023343Y00054072D03*
X00022949D03*
X00033031Y00063740D03*
X00033425D03*
X00023300Y00053539D03*
X00022906D03*
X00026857Y00052443D03*
X00027250D03*
X00033425Y00066889D03*
X00033031D03*
X00035196Y00052519D03*
X00035590D03*
X00033031Y00063149D03*
X00033425D03*
X00033031Y00064330D03*
X00033425D03*
X00022007Y00073976D03*
X00021614D03*
X00023779Y00031063D03*
X00024173D03*
X00020433D03*
X00020826D03*
X00020236Y00038937D03*
X00020629D03*
X00018858D03*
X00019252D03*
X00022204Y00033228D03*
X00021811D03*
X00024960Y00038937D03*
X00025354D03*
X00022204Y00034015D03*
X00021811D03*
Y00038346D03*
X00022204D03*
X00020433Y00042874D03*
X00020039D03*
X00021811Y00034803D03*
X00022204D03*
X00017480Y00038937D03*
X00017874D03*
X00025157Y00073779D03*
X00025551D03*
X00033031Y00065905D03*
X00033425D03*
X00032440Y00063740D03*
X00032047D03*
X00032440Y00063149D03*
X00032047D03*
X00029539Y00063733D03*
X00029933D03*
X00033031Y00065118D03*
X00033425D03*
X00010984Y00068858D03*
X00010590D03*
X00010984Y00069448D03*
X00010590D03*
G54D18*
X00023779Y00056653D03*
Y00057047D03*
X00044253Y00068960D03*
Y00069353D03*
X00039724Y00069055D03*
Y00068661D03*
Y00067677D03*
Y00068070D03*
X00026774Y00063187D03*
Y00062794D03*
X00026822Y00071585D03*
Y00071191D03*
X00043041Y00068275D03*
Y00067881D03*
X00024763Y00042677D03*
Y00043070D03*
X00030800Y00053059D03*
Y00053453D03*
X00030817Y00054431D03*
Y00054038D03*
X00043072Y00069353D03*
Y00068960D03*
X00043632Y00068275D03*
Y00067881D03*
X00021846Y00030399D03*
Y00030005D03*
X00028403Y00055053D03*
Y00055446D03*
X00030752Y00051499D03*
Y00051105D03*
X00027348Y00063768D03*
Y00064162D03*
X00027402Y00071589D03*
Y00071195D03*
X00012755Y00047992D03*
Y00048385D03*
X00033425Y00067480D03*
Y00067874D03*
X00028747Y00070895D03*
Y00071289D03*
X00039724Y00069645D03*
Y00070039D03*
Y00070629D03*
Y00071023D03*
X00026280Y00071243D03*
Y00071637D03*
X00026215Y00072194D03*
Y00072588D03*
X00043663Y00069353D03*
Y00068960D03*
X00044222Y00068275D03*
Y00067881D03*
X00044813Y00068275D03*
Y00067881D03*
X00044844Y00068960D03*
Y00069353D03*
X00022598Y00043661D03*
Y00043267D03*
X00021811D03*
Y00043661D03*
X00025693Y00070869D03*
Y00071263D03*
X00024173Y00042677D03*
Y00043070D03*
X00028034Y00071220D03*
Y00071614D03*
X00024886Y00052320D03*
Y00052714D03*
X00025173Y00055253D03*
Y00055646D03*
G54D19*
X00035531Y00071200D03*
Y00070452D03*
X00036437Y00070826D03*
X00033563Y00071200D03*
Y00070452D03*
X00034468Y00070826D03*
X00040452Y00069626D03*
Y00068878D03*
X00041358Y00069252D03*
X00038090Y00069429D03*
Y00068681D03*
X00038996Y00069055D03*
X00034153Y00064114D03*
Y00063366D03*
X00035059Y00063740D03*
X00021752Y00032224D03*
Y00031476D03*
X00022657Y00031850D03*
X00021752Y00039901D03*
Y00039153D03*
X00022657Y00039527D03*
X00021752Y00037342D03*
Y00036594D03*
X00022657Y00036968D03*
X00021752Y00042066D03*
Y00041318D03*
X00022657Y00041692D03*
X00034153Y00065885D03*
Y00065137D03*
X00035059Y00065511D03*
X00034153Y00067657D03*
Y00066909D03*
X00035059Y00067283D03*
X00034153Y00062342D03*
Y00061594D03*
X00035059Y00061968D03*
X00032381Y00062342D03*
Y00061594D03*
X00033287Y00061968D03*
X00021752Y00045413D03*
Y00044665D03*
X00022657Y00045039D03*
X00043405Y00071200D03*
Y00070452D03*
X00044311Y00070826D03*
X00041438Y00070749D03*
Y00071497D03*
X00040533Y00071123D03*
X00038996Y00070452D03*
Y00071200D03*
X00038090Y00070826D03*
X00027775Y00072421D03*
Y00073169D03*
X00026870Y00072795D03*
G54D20*
X00039114Y00045295D03*
X00038366D03*
X00038740Y00044389D03*
X00039114Y00013799D03*
X00038366D03*
X00038740Y00012893D03*
X00017066Y00041358D03*
X00016318D03*
X00016692Y00040452D03*
X00028090Y00041358D03*
X00027342D03*
X00027716Y00040452D03*
X00039114Y00041358D03*
X00038366D03*
X00038740Y00040452D03*
X00028074Y00013829D03*
X00027326D03*
X00027700Y00012923D03*
X00017066Y00037421D03*
X00016318D03*
X00016692Y00036515D03*
X00028090Y00037421D03*
X00027342D03*
X00027716Y00036515D03*
X00039114Y00037421D03*
X00038366D03*
X00038740Y00036515D03*
X00039114Y00017736D03*
X00038366D03*
X00038740Y00016830D03*
X00017066Y00033484D03*
X00016318D03*
X00016692Y00032578D03*
X00028090Y00033484D03*
X00027342D03*
X00027716Y00032578D03*
X00039114Y00033484D03*
X00038366D03*
X00038740Y00032578D03*
X00028090Y00017736D03*
X00027342D03*
X00027716Y00016830D03*
X00017066Y00029547D03*
X00016318D03*
X00016692Y00028641D03*
X00028090Y00029547D03*
X00027342D03*
X00027716Y00028641D03*
X00039114Y00029547D03*
X00038366D03*
X00038740Y00028641D03*
X00017066Y00025610D03*
X00016318D03*
X00016692Y00024704D03*
X00028090Y00025610D03*
X00027342D03*
X00027716Y00024704D03*
X00039114Y00025610D03*
X00038366D03*
X00038740Y00024704D03*
X00017066Y00017736D03*
X00016318D03*
X00016692Y00016830D03*
X00017066Y00021673D03*
X00016318D03*
X00016692Y00020767D03*
X00028090Y00021673D03*
X00027342D03*
X00027716Y00020767D03*
X00039114Y00021673D03*
X00038366D03*
X00038740Y00020767D03*
X00017066Y00013799D03*
X00016318D03*
X00016692Y00012893D03*
X00017066Y00045295D03*
X00016318D03*
X00016692Y00044389D03*
X00028090Y00045295D03*
X00027342D03*
X00027716Y00044389D03*
X00018051Y00069114D03*
X00017303D03*
X00017677Y00068208D03*
X00020216Y00069114D03*
X00019468D03*
X00019842Y00068208D03*
X00036555Y00069507D03*
X00035807D03*
X00036181Y00068602D03*
X00038917Y00067933D03*
X00038169D03*
X00038543Y00067027D03*
G54D21*
X00024055Y00038937D03*
X00023503D03*
X00032834Y00067401D03*
Y00067952D03*
G54D24*
X00024173Y00073740D03*
Y00073031D03*
X00022992Y00073740D03*
Y00073031D03*
G54D26*
X00036378Y00067480D03*
Y00066299D03*
Y00065118D03*
Y00063937D03*
G54D31*
X00023945Y00059981D03*
X00030227D03*
X00021898Y00068642D03*
X00031329D03*
G54D32*
X00024645Y00061181D03*
X00024842D03*
X00025039D03*
X00025236D03*
X00025433D03*
X00025629D03*
X00025826D03*
X00026023D03*
X00026220D03*
X00026417D03*
X00026614D03*
X00026811D03*
X00027007D03*
X00027204D03*
X00027401D03*
X00027598D03*
X00027795D03*
X00027992D03*
X00028189D03*
X00028385D03*
X00028582D03*
X00028779D03*
X00028976D03*
X00029173D03*
X00022598Y00069842D03*
X00022795D03*
X00022992D03*
X00023189D03*
X00023385D03*
X00023582D03*
X00023779D03*
X00023976D03*
X00024173D03*
X00024370D03*
X00024566D03*
X00024763D03*
X00024960D03*
X00025157D03*
X00025354D03*
X00025551D03*
X00025748D03*
X00025944D03*
X00026141D03*
X00026338D03*
X00026535D03*
X00026732D03*
X00026929D03*
X00027126D03*
X00027322D03*
X00027519D03*
X00027716D03*
X00027913D03*
X00028110D03*
X00028307D03*
X00028503D03*
X00028700D03*
X00028897D03*
X00029094D03*
X00029291D03*
X00029488D03*
X00029685D03*
X00029881D03*
X00030078D03*
X00030275D03*
G54D33*
X00043622Y00065157D02*
X00043956D01*
X00043956D02*
Y00065019D01*
X00043956D02*
X00043622D01*
X00043622D02*
Y00065157D01*
X00043641Y00065019D02*
Y00065157D01*
X00043700Y00065019D02*
Y00065157D01*
X00043759Y00065019D02*
Y00065157D01*
X00043818Y00065019D02*
Y00065157D01*
X00043878Y00065019D02*
Y00065157D01*
X00043937Y00065019D02*
Y00065157D01*
X00044153D02*
X00044488D01*
Y00065019*
X00044488D02*
X00044153D01*
X00044153D02*
Y00065157D01*
X00044173Y00065019D02*
Y00065157D01*
X00044232Y00065019D02*
Y00065157D01*
X00044291Y00065019D02*
Y00065157D01*
X00044350Y00065019D02*
Y00065157D01*
X00044409Y00065019D02*
Y00065157D01*
X00044468Y00065019D02*
Y00065157D01*
X00044153Y00064822D02*
X00044488D01*
X00044488D02*
Y00064685D01*
X00044153*
X00044153D02*
Y00064822D01*
X00044173Y00064685D02*
Y00064822D01*
X00044232Y00064685D02*
Y00064822D01*
X00044291Y00064685D02*
Y00064822D01*
X00044350Y00064685D02*
Y00064822D01*
X00044409Y00064685D02*
Y00064822D01*
X00044468Y00064685D02*
Y00064822D01*
X00043956D02*
X00043622D01*
X00043622D02*
Y00064685D01*
X00043956*
X00043956D02*
Y00064822D01*
X00043622Y00064791D02*
X00043956D01*
G54D39*
X00024242Y00060541D02*
X00023710D01*
X00023710D02*
Y00060267D01*
X00023710D02*
X00023705Y00060253D01*
X00023705D02*
X00023696Y00060240D01*
X00023696D02*
X00023684Y00060231D01*
X00023669Y00060226*
X00023395*
X00023395D02*
Y00059694D01*
X00023395D02*
X00024242D01*
X00024242D02*
Y00060541D01*
X00023415Y00059694D02*
Y00060226D01*
X00023464Y00059694D02*
Y00060226D01*
X00023513Y00059694D02*
Y00060226D01*
X00023563Y00059694D02*
Y00060226D01*
X00023612Y00059694D02*
Y00060226D01*
X00023661Y00059694D02*
Y00060226D01*
X00023710Y00059694D02*
Y00060541D01*
X00023759Y00059694D02*
Y00060541D01*
X00023809Y00059694D02*
Y00060541D01*
X00023858Y00059694D02*
Y00060541D01*
X00023907Y00059694D02*
Y00060541D01*
X00023956Y00059694D02*
Y00060541D01*
X00024005Y00059694D02*
Y00060541D01*
X00024055Y00059694D02*
Y00060541D01*
X00024104Y00059694D02*
Y00060541D01*
X00024153Y00059694D02*
Y00060541D01*
X00024202Y00059694D02*
Y00060541D01*
X00030423Y00060226D02*
X00030149D01*
X00030149D02*
X00030134Y00060231D01*
X00030134D02*
X00030122Y00060240D01*
X00030113Y00060253*
X00030108Y00060267*
X00030108D02*
Y00060541D01*
X00029576*
X00029576D02*
Y00059694D01*
X00029576D02*
X00030423D01*
X00030423D02*
Y00060226D01*
X00029616Y00059694D02*
Y00060541D01*
X00029665Y00059694D02*
Y00060541D01*
X00029714Y00059694D02*
Y00060541D01*
X00029763Y00059694D02*
Y00060541D01*
X00029813Y00059694D02*
Y00060541D01*
X00029862Y00059694D02*
Y00060541D01*
X00029911Y00059694D02*
Y00060541D01*
X00029960Y00059694D02*
Y00060541D01*
X00030009Y00059694D02*
Y00060541D01*
X00030059Y00059694D02*
Y00060541D01*
X00030108Y00059694D02*
Y00060267D01*
X00030157Y00059694D02*
Y00060226D01*
X00030206Y00059694D02*
Y00060226D01*
X00030255Y00059694D02*
Y00060226D01*
X00030305Y00059694D02*
Y00060226D01*
X00030354Y00059694D02*
Y00060226D01*
X00030403Y00059694D02*
Y00060226D01*
X00031525Y00068887D02*
X00031252D01*
X00031252D02*
X00031237Y00068892D01*
X00031237D02*
X00031224Y00068901D01*
X00031224D02*
X00031215Y00068914D01*
X00031210Y00068929*
X00031210D02*
Y00069202D01*
X00031210D02*
X00030679D01*
X00030679D02*
Y00068356D01*
X00031525*
X00031525D02*
Y00068887D01*
X00030718Y00068356D02*
Y00069202D01*
X00030767Y00068356D02*
Y00069202D01*
X00030816Y00068356D02*
Y00069202D01*
X00030866Y00068356D02*
Y00069202D01*
X00030915Y00068356D02*
Y00069202D01*
X00030964Y00068356D02*
Y00069202D01*
X00031013Y00068356D02*
Y00069202D01*
X00031063Y00068356D02*
Y00069202D01*
X00031112Y00068356D02*
Y00069202D01*
X00031161Y00068356D02*
Y00069202D01*
X00031210Y00068356D02*
Y00068929D01*
X00031259Y00068356D02*
Y00068887D01*
X00031309Y00068356D02*
Y00068887D01*
X00031358Y00068356D02*
Y00068887D01*
X00031407Y00068356D02*
Y00068887D01*
X00031456Y00068356D02*
Y00068887D01*
X00031505Y00068356D02*
Y00068887D01*
X00022194Y00069202D02*
X00021663D01*
X00021663D02*
Y00068929D01*
X00021658Y00068914*
X00021658D02*
X00021649Y00068901D01*
X00021649D02*
X00021636Y00068892D01*
X00021636D02*
X00021622Y00068887D01*
X00021622D02*
X00021348D01*
X00021348D02*
Y00068356D01*
X00022194*
X00022194D02*
Y00069202D01*
X00021368Y00068356D02*
Y00068887D01*
X00021417Y00068356D02*
Y00068887D01*
X00021466Y00068356D02*
Y00068887D01*
X00021515Y00068356D02*
Y00068887D01*
X00021565Y00068356D02*
Y00068887D01*
X00021614Y00068356D02*
Y00068887D01*
X00021663Y00068356D02*
Y00069202D01*
X00021712Y00068356D02*
Y00069202D01*
X00021761Y00068356D02*
Y00069202D01*
X00021811Y00068356D02*
Y00069202D01*
X00021860Y00068356D02*
Y00069202D01*
X00021909Y00068356D02*
Y00069202D01*
X00021958Y00068356D02*
Y00069202D01*
X00022007Y00068356D02*
Y00069202D01*
X00022057Y00068356D02*
Y00069202D01*
X00022106Y00068356D02*
Y00069202D01*
X00022155Y00068356D02*
Y00069202D01*
G54D56*
X00040570Y00051141D03*
X00041003D03*
X00041437D03*
X00041870D03*
X00042303D03*
X00042736D03*
X00043169D03*
X00043602D03*
X00039409Y00050145D03*
Y00053452D03*
X00044763Y00050145D03*
Y00053452D03*
G54D57*
X00038749Y00056672D03*
Y00056416D03*
Y00056160D03*
Y00055904D03*
X00036466D03*
Y00056160D03*
Y00056416D03*
Y00056672D03*
G54D58*
X00021000Y00055657D03*
X00018800D03*
Y00056657D03*
X00021000D03*
G54D59*
X00016080Y00057031D03*
X00015580D03*
X00015080D03*
X00014580D03*
X00014080D03*
X00013580D03*
X00013080D03*
X00012580D03*
Y00059031D03*
X00013080D03*
X00013580D03*
X00014080D03*
X00014580D03*
X00015080D03*
X00015580D03*
X00016080D03*
G54D61*
X00034291Y00054330D03*
X00033976D03*
X00033661D03*
X00032401D03*
X00032086D03*
X00031771D03*
X00034291Y00054015D03*
X00033976D03*
X00033661D03*
X00032401D03*
X00032086D03*
X00031771D03*
X00034291Y00053700D03*
X00033976D03*
X00033661D03*
X00032401D03*
X00032086D03*
X00031771D03*
X00034291Y00053385D03*
X00033976D03*
X00033661D03*
X00032401D03*
X00032086D03*
X00031771D03*
X00034291Y00053070D03*
X00033976D03*
X00033661D03*
X00032401D03*
X00032086D03*
X00031771D03*
X00034291Y00052755D03*
X00033976D03*
X00033661D03*
X00032401D03*
X00032086D03*
X00031771D03*
X00034291Y00052440D03*
X00033976D03*
X00033661D03*
X00032401D03*
X00032086D03*
X00031771D03*
X00034291Y00052126D03*
X00033976D03*
X00033661D03*
X00032401D03*
X00032086D03*
X00031771D03*
X00034291Y00051811D03*
X00033976D03*
X00033661D03*
X00032401D03*
X00032086D03*
X00031771D03*
X00034291Y00051496D03*
X00033976D03*
X00033661D03*
X00032401D03*
X00032086D03*
X00031771D03*
G54D69*
X00024782Y00071426D03*
Y00072017D03*
X00022230Y00071930D03*
Y00071339D03*
X00023017D03*
Y00071930D03*
X00024030Y00071328D03*
Y00071918D03*
G54D70*
X00029931Y00062434D03*
X00029341D03*
X00028160Y00064569D03*
X00028750D03*
X00028060Y00063070D03*
X00028650D03*
X00028087Y00062388D03*
X00028678D03*
X00029450Y00063061D03*
X00030040D03*
X00028114Y00063924D03*
X00028705D03*
G54D90*
X00012775Y00064931D03*
Y00065187D03*
Y00065442D03*
Y00065698D03*
X00013917D03*
Y00065442D03*
Y00065187D03*
Y00064931D03*
G54D92*
X00015019Y00071681D03*
X00014783D03*
X00014547D03*
X00014311D03*
X00014074D03*
X00013838D03*
X00013602D03*
X00013366D03*
X00013129D03*
X00012893D03*
X00012657D03*
X00012421D03*
X00012185D03*
X00011948D03*
X00011712D03*
X00011476D03*
X00011240D03*
X00011003D03*
X00010767D03*
X00010531D03*
G54D93*
X00014901Y00072813D03*
X00014665D03*
X00014429D03*
X00014192D03*
X00013956D03*
X00013720D03*
X00013484D03*
X00013248D03*
X00013011D03*
X00012775D03*
X00012539D03*
X00012303D03*
X00012066D03*
X00011830D03*
X00011594D03*
X00011358D03*
X00011122D03*
X00010885D03*
X00010649D03*
G54D94*
X00015295Y00071718D03*
X00010255D03*
G54D95*
X00014133Y00071003D03*
Y00070255D03*
X00012755Y00071003D03*
Y00070255D03*
X00011503Y00073828D03*
Y00074576D03*
X00010787Y00071003D03*
Y00070255D03*
X00010702Y00071843D03*
Y00072591D03*
X00012837Y00071945D03*
Y00072693D03*
X00011771Y00071830D03*
Y00072578D03*
Y00071003D03*
Y00070255D03*
X00015061Y00073774D03*
Y00074522D03*
X00013937Y00073799D03*
Y00074547D03*
X00013896Y00072675D03*
Y00071927D03*
G54D98*
X00013346Y00065315D03*
X00000000Y00000000D02*
M02*
