*
*
G04 PADS 9.3 Build Number: 433611 generated Gerber (RS-274-X) file*
G04 PC Version=2.1*
*
%IN "opencalc.pcb"*%
*
%MOIN*%
*
%FSLAX35Y35*%
*
*
*
*
G04 PC Standard Apertures*
*
*
G04 Thermal Relief Aperture macro.*
%AMTER*
1,1,$1,0,0*
1,0,$1-$2,0,0*
21,0,$3,$4,0,0,45*
21,0,$3,$4,0,0,135*
%
*
*
G04 Annular Aperture macro.*
%AMANN*
1,1,$1,0,0*
1,0,$2,0,0*
%
*
*
G04 Odd Aperture macro.*
%AMODD*
1,1,$1,0,0*
1,0,$1-0.005,0,0*
%
*
*
G04 PC Custom Aperture Macros*
*
*
*
*
*
*
G04 PC Aperture Table*
*
%ADD010C,0.001*%
%ADD015C,0.00787*%
%ADD017R,0.01969X0.02362*%
%ADD018R,0.02362X0.01969*%
%ADD019R,0.03937X0.02362*%
%ADD020R,0.02362X0.03937*%
%ADD021R,0.01575X0.01575*%
%ADD024R,0.05709X0.04528*%
%ADD025R,0.02165X0.03346*%
%ADD026R,0.1063X0.04528*%
%ADD030R,0.04331X0.02362*%
%ADD031R,0.03937X0.03937*%
%ADD032R,0.01181X0.04724*%
%ADD033C,0.01181*%
%ADD056R,0.02362X0.04134*%
%ADD057R,0.05906X0.01772*%
%ADD058R,0.05X0.05*%
%ADD059R,0.02992X0.06299*%
%ADD061C,0.01575*%
*
*
*
*
G04 PC Circuitry*
G04 Layer Name opencalc.pcb - circuitry*
%LPD*%
*
*
G04 PC Custom Flashes*
G04 Layer Name opencalc.pcb - flashes*
%LPD*%
*
*
G04 PC Circuitry*
G04 Layer Name opencalc.pcb - circuitry*
%LPD*%
*
G54D10*
G54D15*
G01X434449Y651929D02*
X433071D01*
Y651811*
X434449*
Y651929*
Y650157D02*
X433071D01*
Y650039*
X434449*
Y650157*
Y648386D02*
X433071D01*
Y648268*
X434449*
Y648386*
Y646614D02*
X433071D01*
Y646496*
X434449*
Y646614*
X448031Y651929D02*
X446654D01*
Y651811*
X448031*
Y651929*
Y650157D02*
X446654D01*
Y650039*
X448031*
Y650157*
Y648386D02*
X446654D01*
Y648268*
X448031*
Y648386*
Y646614D02*
X446654D01*
Y646496*
X448031*
Y646614*
X434071Y651811D02*
Y651929D01*
Y650039D02*
Y650157D01*
Y648268D02*
Y648386D01*
Y646496D02*
Y646614D01*
X447654Y651811D02*
Y651929D01*
Y650039D02*
Y650157D01*
Y648268D02*
Y648386D01*
Y646496D02*
Y646614D01*
G54D17*
X332828Y553541D03*
X328891D03*
X264473Y540123D03*
X260536D03*
X263386Y706299D03*
X267323D03*
X179082Y718076D03*
X183019D03*
X378740Y528156D03*
X382677D03*
X220079Y304724D03*
X224016D03*
X218110Y355906D03*
X222047D03*
X279134Y542913D03*
X283071D03*
X238942Y539826D03*
X242879D03*
X235048Y539816D03*
X231111D03*
X330315Y637402D03*
X334252D03*
X232673Y536607D03*
X228736D03*
X268572Y524431D03*
X272509D03*
X271260Y706299D03*
X275197D03*
X334252Y668898D03*
X330315D03*
X351969Y525197D03*
X355906D03*
X330315Y631496D03*
X334252D03*
X330315Y643307D03*
X334252D03*
X137402Y668898D03*
X133465D03*
X237795Y310630D03*
X241732D03*
X204331D03*
X208268D03*
X202362Y389370D03*
X206299D03*
X188583D03*
X192520D03*
X222047Y332283D03*
X218110D03*
X249606Y389370D03*
X253543D03*
X222047Y340157D03*
X218110D03*
Y383465D03*
X222047D03*
X204331Y428740D03*
X200394D03*
X218110Y348031D03*
X222047D03*
X174803Y389370D03*
X178740D03*
X149213Y668898D03*
X145276D03*
X330315Y659055D03*
X334252D03*
X324409Y637402D03*
X320472D03*
X324409Y631496D03*
X320472D03*
X330315Y651181D03*
X334252D03*
X434646Y601969D03*
X430709D03*
X444488Y562598D03*
X448425D03*
G54D18*
X237795Y566535D03*
Y570472D03*
X444488Y694488D03*
Y698425D03*
X397244Y690551D03*
Y686614D03*
Y676772D03*
Y680709D03*
X432677Y690551D03*
Y686614D03*
X247638Y426772D03*
Y430709D03*
X308001Y530598D03*
Y534535D03*
X308172Y544319D03*
Y540382D03*
X432677Y698425D03*
Y694488D03*
X438583Y690551D03*
Y686614D03*
X284032Y550530D03*
Y554467D03*
X307524Y514994D03*
Y511057D03*
X430709Y613780D03*
Y609843D03*
X273487Y637689D03*
Y641626D03*
X114602Y665289D03*
Y669226D03*
X334252Y674803D03*
Y678740D03*
X285039Y708268D03*
Y712205D03*
X397244Y696457D03*
Y700394D03*
Y706299D03*
Y710236D03*
X438583Y698425D03*
Y694488D03*
X444488Y690551D03*
Y686614D03*
X450394Y690551D03*
Y686614D03*
Y694488D03*
Y698425D03*
X225984Y436614D03*
Y432677D03*
X218110D03*
Y436614D03*
X257480Y706299D03*
Y710236D03*
X241732Y426772D03*
Y430709D03*
X279134Y712205D03*
Y716142D03*
X430709Y570472D03*
Y566535D03*
Y596063D03*
Y592126D03*
Y580315D03*
Y576378D03*
X248866Y523203D03*
Y527140D03*
X251733Y552531D03*
Y556468D03*
G54D19*
X355315Y712008D03*
Y704528D03*
X364370Y708268D03*
X335630Y712008D03*
Y704528D03*
X344685Y708268D03*
X404528Y696260D03*
Y688780D03*
X413583Y692520D03*
X380906Y694291D03*
Y686811D03*
X389961Y690551D03*
X341535Y641142D03*
Y633661D03*
X350591Y637402D03*
X217520Y322244D03*
Y314764D03*
X226575Y318504D03*
X217520Y399016D03*
Y391535D03*
X226575Y395276D03*
X217520Y373425D03*
Y365945D03*
X226575Y369685D03*
X217520Y420669D03*
Y413189D03*
X226575Y416929D03*
X341535Y658858D03*
Y651378D03*
X350591Y655118D03*
X341535Y676575D03*
Y669094D03*
X350591Y672835D03*
X341535Y623425D03*
Y615945D03*
X350591Y619685D03*
X323819Y623425D03*
Y615945D03*
X332874Y619685D03*
X217520Y454134D03*
Y446654D03*
X226575Y450394D03*
X437992Y580118D03*
Y572638D03*
X447047Y576378D03*
X176181Y712008D03*
Y704528D03*
X185236Y708268D03*
X434055Y712008D03*
Y704528D03*
X443110Y708268D03*
X411614Y706496D03*
Y713976D03*
X402559Y710236D03*
X389961Y704528D03*
Y712008D03*
X380906Y708268D03*
X176181Y731693D03*
Y724213D03*
X185236Y727953D03*
G54D20*
X391142Y452953D03*
X383661D03*
X387402Y443898D03*
X391142Y137992D03*
X383661D03*
X387402Y128937D03*
X170669Y413583D03*
X163189D03*
X166929Y404528D03*
X280906Y413583D03*
X273425D03*
X277165Y404528D03*
X391142Y413583D03*
X383661D03*
X387402Y404528D03*
X280741Y138294D03*
X273260D03*
X277000Y129239D03*
X170669Y374213D03*
X163189D03*
X166929Y365157D03*
X280906Y374213D03*
X273425D03*
X277165Y365157D03*
X391142Y374213D03*
X383661D03*
X387402Y365157D03*
X391142Y177362D03*
X383661D03*
X387402Y168307D03*
X170669Y334843D03*
X163189D03*
X166929Y325787D03*
X280906Y334843D03*
X273425D03*
X277165Y325787D03*
X391142Y334843D03*
X383661D03*
X387402Y325787D03*
X280906Y177362D03*
X273425D03*
X277165Y168307D03*
X170669Y295472D03*
X163189D03*
X166929Y286417D03*
X280906Y295472D03*
X273425D03*
X277165Y286417D03*
X391142Y295472D03*
X383661D03*
X387402Y286417D03*
X170669Y256102D03*
X163189D03*
X166929Y247047D03*
X280906Y256102D03*
X273425D03*
X277165Y247047D03*
X391142Y256102D03*
X383661D03*
X387402Y247047D03*
X170669Y177362D03*
X163189D03*
X166929Y168307D03*
X170669Y216732D03*
X163189D03*
X166929Y207677D03*
X280906Y216732D03*
X273425D03*
X277165Y207677D03*
X391142Y216732D03*
X383661D03*
X387402Y207677D03*
X170669Y137992D03*
X163189D03*
X166929Y128937D03*
X170669Y452953D03*
X163189D03*
X166929Y443898D03*
X280906Y452953D03*
X273425D03*
X277165Y443898D03*
X365551Y695079D03*
X358071D03*
X361811Y686024D03*
X389173Y679331D03*
X381693D03*
X385433Y670276D03*
G54D21*
X240551Y389370D03*
X235039D03*
X328346Y674016D03*
Y679528D03*
G54D24*
X151181Y681102D03*
Y688189D03*
X137402Y681102D03*
Y688189D03*
G54D25*
X443898Y603740D03*
X449016D03*
X446457Y612008D03*
G54D26*
X363780Y674803D03*
Y662992D03*
Y651181D03*
Y639370D03*
G54D30*
X437205Y595866D03*
Y592126D03*
Y588386D03*
X447835D03*
Y595866D03*
G54D31*
X239457Y599811D03*
X302276D03*
X218984Y686425D03*
X313299D03*
G54D32*
X246457Y611811D03*
X248425D03*
X250394D03*
X252362D03*
X254331D03*
X256299D03*
X258268D03*
X260236D03*
X262205D03*
X264173D03*
X266142D03*
X268110D03*
X270079D03*
X272047D03*
X274016D03*
X275984D03*
X277953D03*
X279921D03*
X281890D03*
X283858D03*
X285827D03*
X287795D03*
X289764D03*
X291732D03*
X225984Y698425D03*
X227953D03*
X229921D03*
X231890D03*
X233858D03*
X235827D03*
X237795D03*
X239764D03*
X241732D03*
X243701D03*
X245669D03*
X247638D03*
X249606D03*
X251575D03*
X253543D03*
X255512D03*
X257480D03*
X259449D03*
X261417D03*
X263386D03*
X265354D03*
X267323D03*
X269291D03*
X271260D03*
X273228D03*
X275197D03*
X277165D03*
X279134D03*
X281102D03*
X283071D03*
X285039D03*
X287008D03*
X288976D03*
X290945D03*
X292913D03*
X294882D03*
X296850D03*
X298819D03*
X300787D03*
X302756D03*
G54D33*
X436220Y651575D02*
X439567D01*
Y650197*
X436220*
Y651575*
X436417Y650197D02*
Y651575D01*
X437008Y650197D02*
Y651575D01*
X437598Y650197D02*
Y651575D01*
X438189Y650197D02*
Y651575D01*
X438780Y650197D02*
Y651575D01*
X439370Y650197D02*
Y651575D01*
X439567Y648228D02*
X436220D01*
Y646850*
X439567*
Y648228*
X444882Y651575D02*
X441535D01*
Y650197*
X444882*
Y651575*
Y648228D02*
X441535D01*
Y646850*
X444882*
Y648228*
X436220Y647912D02*
X439567D01*
X441535Y651259D02*
X444882D01*
X441535Y647912D02*
X444882D01*
G54D56*
X405709Y511417D03*
X410039D03*
X414370D03*
X418701D03*
X423031D03*
X427362D03*
X431693D03*
X436024D03*
X394094Y501457D03*
Y534528D03*
X447638Y501457D03*
Y534528D03*
G54D57*
X387497Y566722D03*
Y564163D03*
Y561604D03*
Y559045D03*
X364662D03*
Y561604D03*
Y564163D03*
Y566722D03*
G54D58*
X211437Y556576D03*
X189437D03*
Y566576D03*
X211437D03*
G54D59*
X160807Y570315D03*
X155807D03*
X150807D03*
X145807D03*
X140807D03*
X135807D03*
X130807D03*
X125807D03*
Y590315D03*
X130807D03*
X135807D03*
X140807D03*
X145807D03*
X150807D03*
X155807D03*
X160807D03*
G54D61*
X342913Y543307D03*
X339764D03*
X336614D03*
X324016D03*
X320866D03*
X317717D03*
X342913Y540157D03*
X339764D03*
X336614D03*
X324016D03*
X320866D03*
X317717D03*
X342913Y537008D03*
X339764D03*
X336614D03*
X324016D03*
X320866D03*
X317717D03*
X342913Y533858D03*
X339764D03*
X336614D03*
X324016D03*
X320866D03*
X317717D03*
X342913Y530709D03*
X339764D03*
X336614D03*
X324016D03*
X320866D03*
X317717D03*
X342913Y527559D03*
X339764D03*
X336614D03*
X324016D03*
X320866D03*
X317717D03*
X342913Y524409D03*
X339764D03*
X336614D03*
X324016D03*
X320866D03*
X317717D03*
X342913Y521260D03*
X339764D03*
X336614D03*
X324016D03*
X320866D03*
X317717D03*
X342913Y518110D03*
X339764D03*
X336614D03*
X324016D03*
X320866D03*
X317717D03*
X342913Y514961D03*
X339764D03*
X336614D03*
X324016D03*
X320866D03*
X317717D03*
X0Y0D02*
M02*
