*
*
G04 PADS 9.3 Build Number: 433611 generated Gerber (RS-274-X) file*
G04 PC Version=2.1*
*
%IN "opencalc.pcb"*%
*
%MOIN*%
*
%FSDAX44Y44*%
*
*
*
*
G04 PC Standard Apertures*
*
*
G04 Thermal Relief Aperture macro.*
%AMTER*
1,1,$1,0,0*
1,0,$1-$2,0,0*
21,0,$3,$4,0,0,45*
21,0,$3,$4,0,0,135*
%
*
*
G04 Annular Aperture macro.*
%AMANN*
1,1,$1,0,0*
1,0,$2,0,0*
%
*
*
G04 Odd Aperture macro.*
%AMODD*
1,1,$1,0,0*
1,0,$1-0.005,0,0*
%
*
*
G04 PC Custom Aperture Macros*
*
*
*
*
*
*
G04 PC Aperture Table*
*
%ADD010C,0.001*%
%ADD011C,0.01*%
%ADD012C,0.012*%
%ADD013C,0.005*%
%ADD015C,0.00787*%
%ADD016C,0.09843*%
%ADD017R,0.01969X0.02362*%
%ADD018R,0.02362X0.01969*%
%ADD019R,0.03937X0.02362*%
%ADD020R,0.02362X0.03937*%
%ADD021R,0.01575X0.01575*%
%ADD022R,0.06X0.06*%
%ADD023C,0.06*%
%ADD024R,0.05709X0.04528*%
%ADD026R,0.1063X0.04528*%
%ADD027C,0.10236*%
%ADD028C,0.02953*%
%ADD029C,0.08661*%
%ADD031R,0.03937X0.03937*%
%ADD032R,0.01181X0.04724*%
%ADD033C,0.01181*%
%ADD036C,0.02*%
%ADD037C,0.007*%
%ADD039C,0.00984*%
%ADD067C,0.015*%
%ADD069R,0.03543X0.02362*%
%ADD070R,0.02362X0.03543*%
%ADD095R,0.05118X0.02756*%
%ADD096C,0.03937*%
%ADD099C,0.01969*%
%ADD100C,0.01802*%
%ADD101C,0.022*%
*
*
*
*
G04 PC Circuitry*
G04 Layer Name opencalc.pcb - circuitry*
%LPD*%
*
*
G04 PC Custom Flashes*
G04 Layer Name opencalc.pcb - flashes*
%LPD*%
*
*
G04 PC Circuitry*
G04 Layer Name opencalc.pcb - circuitry*
%LPD*%
*
G54D10*
G54D11*
G01X00031320Y00048610D02*
Y00049275D01*
X00031530Y00049485*
Y00050150*
X00031070Y00053050D02*
Y00053059D01*
X00031070D02*
X00030800D01*
X00026120Y00054310D02*
X00026132Y00054322D01*
X00026447Y00054012D02*
X00026435D01*
Y00054019*
X00026435D02*
X00026132Y00054322D01*
X00027660Y00054270D02*
Y00054285D01*
X00027660D02*
X00027913D01*
X00027913D02*
Y00054291D01*
X00030808Y00054460D02*
X00030998Y00054651D01*
X00030998D02*
X00030970Y00054680D01*
X00030817Y00054431D02*
Y00054460D01*
X00030817D02*
X00030808D01*
X00028590Y00060690D02*
X00028565Y00060665D01*
X00028385Y00060844*
X00028385D02*
Y00061181D01*
X00029173D02*
Y00061358D01*
X00029410Y00061595*
Y00061850*
X00028976Y00061181D02*
Y00061576D01*
X00029080Y00061680*
Y00061920*
X00028779Y00061181D02*
Y00061890D01*
X00028779D02*
X00028740D01*
X00028582Y00061181D02*
Y00061561D01*
X00028582D02*
X00028470Y00061674D01*
Y00061940*
X00027992Y00061181D02*
Y00061890D01*
X00027795Y00061181D02*
Y00061727D01*
X00027795D02*
X00027550Y00061972D01*
X00027550D02*
Y00062830D01*
X00027992Y00061890D02*
X00028000D01*
X00026535Y00069440D02*
X00026862D01*
X00026862D02*
X00026929Y00069506D01*
Y00069842*
X00026535Y00069440D02*
Y00069842D01*
Y00070910D02*
Y00071317D01*
X00026535D02*
X00026802Y00071585D01*
X00026802D02*
X00026822D01*
X00026535Y00069842D02*
Y00070910D01*
X00025693Y00070869D02*
X00026128D01*
X00026169Y00070910*
X00026535*
G54D12*
X00024886Y00052320D02*
Y00052395D01*
X00024886D02*
X00024550D01*
Y00052430*
X00026821Y00052427D02*
Y00052443D01*
X00026821D02*
X00026857D01*
X00026821Y00052427D02*
X00026479Y00052769D01*
X00026440Y00052730*
X00037874Y00052815D02*
Y00052820D01*
X00037570*
X00026450Y00053360D02*
Y00053670D01*
X00026450D02*
X00026447Y00053673D01*
Y00054012*
X00024880Y00055250D02*
Y00055253D01*
X00025173*
X00027550Y00062830D02*
Y00063314D01*
X00027580Y00063344*
Y00064870*
X00027210Y00065240*
X00026330Y00065360D02*
Y00067312D01*
X00026535Y00067517*
X00026535D02*
Y00069440D01*
G54D13*
X00016692Y00012972D02*
X00017222D01*
X00017393Y00013143*
X00017393D02*
X00026935D01*
X00016692Y00012972D02*
X00016257D01*
X00016257D02*
X00015960Y00013270D01*
X00011890*
X00016692Y00012893D02*
Y00012972D01*
X00027700Y00012923D02*
Y00013002D01*
X00027700D02*
X00027871Y00013173D01*
X00027871D02*
X00028175D01*
X00027700Y00012923D02*
X00027154D01*
X00027154D02*
X00026935Y00013143D01*
X00038740Y00012893D02*
Y00012972D01*
X00038542Y00013170*
X00038542D02*
X00028179D01*
X00028175Y00013173*
X00018865Y00013527D02*
X00019570Y00014232D01*
X00020728*
X00018865Y00013527D02*
X00016850D01*
X00016850D02*
X00016579Y00013799D01*
X00016318*
X00028074Y00013829D02*
Y00013908D01*
X00027749Y00014232*
X00027749D02*
X00026240D01*
X00026239Y00014235*
X00029919Y00013557D02*
X00030594Y00014232D01*
X00031752*
X00029919Y00013557D02*
X00027857D01*
X00027857D02*
X00027586Y00013829D01*
X00027326*
X00039114Y00013799D02*
Y00013878D01*
X00038759Y00014232*
X00038759D02*
X00037263D01*
X00037263D02*
X00037259Y00014235D01*
X00040912Y00013527D02*
X00041617Y00014232D01*
X00041617D02*
X00042775D01*
X00040912Y00013527D02*
X00038898D01*
X00038626Y00013799*
X00038366*
X00016692Y00016830D02*
X00017329D01*
X00017329D02*
X00017488Y00016990D01*
X00017488D02*
X00026920D01*
X00027716Y00016830D02*
X00027080D01*
X00027080D02*
X00026920Y00016990D01*
X00027716Y00016830D02*
Y00016909D01*
X00027716D02*
X00028047Y00017240D01*
X00035730*
X00035507Y00015800D02*
X00036101Y00016394D01*
X00036101D02*
X00037259D01*
X00035507Y00015800D02*
X00014560D01*
X00014140Y00016220*
X00038740Y00016830D02*
Y00016909D01*
X00038409Y00017240*
X00038409D02*
X00035730D01*
X00013750Y00019200D02*
X00030617D01*
X00031752Y00020334*
X00015219Y00018165D02*
X00015216Y00018169D01*
X00017066Y00017736D02*
Y00017815D01*
X00017066D02*
X00016712Y00018169D01*
X00016712D02*
X00015216D01*
X00018865Y00017464D02*
X00019570Y00018169D01*
X00020728*
X00018865Y00017464D02*
X00016850D01*
X00016850D02*
X00016579Y00017736D01*
X00016318*
X00026239Y00018165D02*
X00026240Y00018169D01*
X00027736*
X00028090Y00017736D02*
Y00017815D01*
X00028090D02*
X00027736Y00018169D01*
X00029889Y00017464D02*
X00030594Y00018169D01*
X00031752*
X00029889Y00017464D02*
X00027874D01*
X00027602Y00017736*
X00027602D02*
X00027342D01*
X00037259Y00018165D02*
X00037263Y00018169D01*
X00037263D02*
X00038759D01*
X00039114Y00017736D02*
Y00017815D01*
X00038759Y00018169*
X00040912Y00017464D02*
X00041617Y00018169D01*
X00041617D02*
X00042775D01*
X00040912Y00017464D02*
X00038898D01*
X00038626Y00017736*
X00038366*
X00016692Y00020767D02*
X00017329D01*
X00017329D02*
X00017483Y00020921D01*
X00026926*
X00027716Y00020767D02*
X00027080D01*
X00027080D02*
X00026926Y00020921D01*
X00027716Y00020767D02*
Y00020846D01*
X00027716D02*
X00028030Y00021160D01*
X00035310*
X00031749Y00020334D02*
X00031752D01*
X00038740Y00020767D02*
Y00020846D01*
X00038426Y00021160*
X00038426D02*
X00035310D01*
X00014080Y00023240D02*
X00024050D01*
X00024050D02*
X00025082Y00024271D01*
X00025082D02*
X00026240D01*
X00015219Y00022105D02*
X00015216Y00022106D01*
X00017066Y00021673D02*
Y00021752D01*
X00017066D02*
X00016712Y00022106D01*
X00016712D02*
X00015216D01*
X00018865Y00021401D02*
X00019570Y00022106D01*
X00020728*
X00018865Y00021401D02*
X00016850D01*
X00016850D02*
X00016579Y00021673D01*
X00016318*
X00026239Y00022105D02*
X00026240Y00022106D01*
X00027736*
X00028090Y00021673D02*
Y00021752D01*
X00028090D02*
X00027736Y00022106D01*
X00029889Y00021401D02*
X00030594Y00022106D01*
X00031752*
X00029889Y00021401D02*
X00027874D01*
X00027602Y00021673*
X00027602D02*
X00027342D01*
X00037259Y00022105D02*
X00037263Y00022106D01*
X00037263D02*
X00038759D01*
X00039114Y00021673D02*
Y00021752D01*
X00038759Y00022106*
X00040912Y00021401D02*
X00041617Y00022106D01*
X00041617D02*
X00042775D01*
X00040912Y00021401D02*
X00038898D01*
X00038626Y00021673*
X00038366*
X00016692Y00024704D02*
Y00024811D01*
X00016692D02*
X00017111Y00025230D01*
X00027270*
X00026240Y00024271D02*
X00026239Y00024274D01*
X00027716Y00024783D02*
X00028013Y00025080D01*
X00029990*
X00027270Y00025230D02*
X00027716Y00024783D01*
X00027716D02*
Y00024704D01*
X00038740D02*
Y00024783D01*
X00038443Y00025080*
X00038443D02*
X00029990D01*
X00013170Y00027090D02*
X00041030D01*
X00041030D02*
X00042145Y00028204D01*
X00042779*
X00015216Y00026043D02*
X00015219Y00026045D01*
X00017066Y00025610D02*
Y00025689D01*
X00017066D02*
X00016712Y00026043D01*
X00016712D02*
X00015216D01*
X00018865Y00025338D02*
X00019570Y00026043D01*
X00020728*
X00018865Y00025338D02*
X00016850D01*
X00016850D02*
X00016579Y00025610D01*
X00016318*
X00028090D02*
Y00025689D01*
X00028090D02*
X00027736Y00026043D01*
X00026240*
X00026239Y00026045*
X00029889Y00025338D02*
X00030594Y00026043D01*
X00031752*
X00029889Y00025338D02*
X00027874D01*
X00027602Y00025610*
X00027602D02*
X00027342D01*
X00039114D02*
Y00025689D01*
X00038759Y00026043*
X00038759D02*
X00037263D01*
X00037263D02*
X00037259Y00026045D01*
X00040905Y00025330D02*
X00041621Y00026045D01*
X00041621D02*
X00042779D01*
X00040905Y00025330D02*
X00038906D01*
X00038626Y00025610*
X00038366*
X00016692Y00028641D02*
X00017329D01*
X00017329D02*
X00017483Y00028795D01*
X00026926*
X00027716Y00028641D02*
X00027080D01*
X00027080D02*
X00026926Y00028795D01*
X00027716Y00028641D02*
X00028352D01*
X00028352D02*
X00028511Y00028800D01*
X00030310*
Y00028947*
X00030240Y00029017*
Y00029230*
X00038740Y00028641D02*
X00038103D01*
X00038103D02*
X00037945Y00028800D01*
X00037945D02*
X00030310D01*
X00015219Y00029975D02*
X00015216Y00029980D01*
X00017066Y00029547D02*
Y00029626D01*
X00017066D02*
X00016712Y00029980D01*
X00016712D02*
X00015216D01*
X00018865Y00029275D02*
X00019570Y00029980D01*
X00020728*
X00018865Y00029275D02*
X00016850D01*
X00016850D02*
X00016579Y00029547D01*
X00016318*
X00020643Y00030860D02*
X00020826Y00031043D01*
X00020826D02*
Y00031063D01*
X00020643Y00030860D02*
X00020313D01*
X00020120Y00031053*
Y00031119*
X00020120D02*
X00019850Y00031390D01*
X00020433Y00031063D02*
Y00031082D01*
X00020433D02*
X00020757Y00031407D01*
X00020757D02*
X00020856D01*
X00021673Y00032224*
X00021752*
X00021846Y00030005D02*
X00021826D01*
X00021290Y00030541*
X00021290D02*
Y00030860D01*
X00021846Y00030399D02*
Y00030615D01*
X00021846D02*
X00021770Y00030691D01*
X00021770D02*
Y00030920D01*
X00024173Y00031063D02*
Y00031082D01*
X00024173D02*
X00023845Y00031410D01*
X00023845D02*
X00023176D01*
X00023176D02*
X00022736Y00031850D01*
X00022657*
X00024173Y00031063D02*
X00024960D01*
X00023779D02*
Y00031092D01*
X00023779D02*
X00023420D01*
X00023420D02*
Y00031110D01*
X00026239Y00029975D02*
X00026240Y00029980D01*
X00027736*
X00028090Y00029547D02*
Y00029626D01*
X00028090D02*
X00027736Y00029980D01*
X00029889Y00029275D02*
X00030594Y00029980D01*
X00031752*
X00029889Y00029275D02*
X00027874D01*
X00027602Y00029547*
X00027602D02*
X00027342D01*
X00037259Y00029975D02*
X00037263Y00029980D01*
X00037263D02*
X00038759D01*
X00039114Y00029547D02*
Y00029626D01*
X00038759Y00029980*
X00040912Y00029275D02*
X00041617Y00029980D01*
X00041617D02*
X00042775D01*
X00040912Y00029275D02*
X00038898D01*
X00038626Y00029547*
X00038366*
X00016692Y00032578D02*
X00017329D01*
X00017329D02*
X00017483Y00032732D01*
X00026926*
X00018865Y00033212D02*
X00019570Y00033917D01*
X00020728*
X00018865Y00033212D02*
X00016850D01*
X00016850D02*
X00016579Y00033484D01*
X00016318*
X00022204Y00033228D02*
Y00033557D01*
X00022204D02*
X00022010Y00033752D01*
Y00034275*
X00021811Y00034474*
Y00034803*
X00022657Y00031850D02*
Y00032297D01*
X00022810Y00032450*
X00027716Y00032578D02*
X00027080D01*
X00027080D02*
X00026926Y00032732D01*
X00027716Y00032578D02*
X00028352D01*
X00028352D02*
X00028514Y00032740D01*
X00036050*
X00029889Y00033212D02*
X00030594Y00033917D01*
X00031752*
X00029889Y00033212D02*
X00027874D01*
X00027602Y00033484*
X00027602D02*
X00027342D01*
X00036050Y00032740D02*
Y00032942D01*
X00036030Y00032962*
Y00033230*
X00038740Y00032578D02*
X00038103D01*
X00038103D02*
X00037942Y00032740D01*
X00037942D02*
X00036050D01*
X00040912Y00033212D02*
X00041617Y00033917D01*
X00041617D02*
X00042775D01*
X00040912Y00033212D02*
X00038898D01*
X00038626Y00033484*
X00038366*
X00015219Y00033915D02*
X00015216Y00033917D01*
X00017066Y00033484D02*
Y00033563D01*
X00017066D02*
X00016712Y00033917D01*
X00016712D02*
X00015216D01*
X00022204Y00034803D02*
Y00035590D01*
X00021811Y00034803D02*
X00021624D01*
X00021624D02*
X00021487Y00034940D01*
X00021487D02*
X00021290D01*
X00022204Y00034015D02*
Y00034043D01*
X00022204D02*
X00022540D01*
X00022540D02*
Y00034060D01*
X00026239Y00033915D02*
X00026240Y00033917D01*
X00027736*
X00028090Y00033484D02*
Y00033563D01*
X00028090D02*
X00027736Y00033917D01*
X00037259Y00033915D02*
X00037263Y00033917D01*
X00037263D02*
X00038759D01*
X00039114Y00033484D02*
Y00033563D01*
X00038759Y00033917*
X00016692Y00036515D02*
X00016908D01*
X00016908D02*
X00016990Y00036596D01*
X00016990D02*
Y00036868D01*
X00016990D02*
X00022117D01*
X00018865Y00037149D02*
X00019570Y00037854D01*
X00020728*
X00018865Y00037149D02*
X00016850D01*
X00016850D02*
X00016579Y00037421D01*
X00016318*
X00022657Y00036968D02*
X00022740D01*
X00022740D02*
Y00037350D01*
X00027716Y00036515D02*
Y00036594D01*
X00027716D02*
X00027932Y00036810D01*
X00035993*
X00027716Y00036515D02*
X00027177D01*
X00027177D02*
X00026973Y00036720D01*
X00022266*
X00022117Y00036868*
X00029889Y00037149D02*
X00030594Y00037854D01*
X00031752*
X00029889Y00037149D02*
X00027874D01*
X00027602Y00037421*
X00027602D02*
X00027342D01*
X00036560Y00036600D02*
X00036203D01*
X00035993Y00036810*
X00036560Y00036600D02*
X00036715Y00036755D01*
X00036753*
X00036908Y00036910*
X00038424*
X00038740Y00036515D02*
Y00036594D01*
X00038424Y00036910*
X00040912Y00037149D02*
X00041617Y00037854D01*
X00041617D02*
X00042775D01*
X00040912Y00037149D02*
X00038898D01*
X00038626Y00037421*
X00038366*
X00015216Y00037854D02*
X00015219Y00037855D01*
X00017066Y00037421D02*
Y00037500D01*
X00017066D02*
X00016712Y00037854D01*
X00016712D02*
X00015216D01*
X00017480Y00038937D02*
Y00038956D01*
X00017480D02*
X00017663Y00039140D01*
X00017663D02*
X00018280D01*
X00018858Y00038937D02*
X00018483D01*
X00018280Y00039140*
X00018858Y00038937D02*
Y00039181D01*
X00018858D02*
X00019216Y00039540D01*
X00019430*
X00020550Y00038560D02*
X00020611Y00038621D01*
X00021327*
X00020550Y00038560D02*
X00013760D01*
X00013420Y00038900*
X00019526Y00038740D02*
X00019536Y00038750D01*
X00019870*
X00019526Y00038740D02*
X00018483D01*
X00018286Y00038937*
X00017874*
X00020452Y00038740D02*
X00020629Y00038917D01*
X00020629D02*
Y00038937D01*
X00020452Y00038740D02*
X00020110D01*
X00020060Y00038790*
Y00038910*
X00019430Y00039540*
X00020629Y00038937D02*
Y00038970D01*
X00020629D02*
X00021100D01*
X00020236Y00038937D02*
Y00038956D01*
X00020236D02*
X00020561Y00039281D01*
X00021053*
X00021673Y00039901*
X00021673D02*
X00021752D01*
X00022053Y00038175D02*
X00022204Y00038326D01*
X00022204D02*
Y00038346D01*
X00022053Y00038175D02*
X00022010Y00038218D01*
Y00038470*
X00021940Y00038540*
X00021620*
X00021538Y00038621*
X00021538D02*
X00021327D01*
X00021800Y00038730D02*
Y00039153D01*
X00021800D02*
X00021752D01*
X00021490Y00038110D02*
X00021327Y00038272D01*
X00021327D02*
Y00038621D01*
X00022204Y00038346D02*
Y00038679D01*
X00022204D02*
X00022270Y00038744D01*
X00022270D02*
Y00039050D01*
X00022204Y00038346D02*
X00022913D01*
X00023503Y00038937*
X00021752Y00037342D02*
Y00037815D01*
X00021811Y00037874*
Y00038346*
X00025000Y00038490D02*
X00024979D01*
X00024979D02*
Y00038937D01*
X00024979D02*
X00024960D01*
X00024055D02*
X00024190Y00039071D01*
X00024190D02*
Y00039171D01*
X00024190D02*
X00024328Y00039310D01*
X00025180*
X00025354Y00038937D02*
Y00039136D01*
X00025354D02*
X00025180Y00039310D01*
X00028090Y00037421D02*
Y00037500D01*
X00028090D02*
X00027736Y00037854D01*
X00026240*
X00026239Y00037855*
X00039114Y00037421D02*
Y00037500D01*
X00038759Y00037854*
X00038759D02*
X00037263D01*
X00037263D02*
X00037259Y00037855D01*
X00016692Y00040452D02*
X00017011D01*
X00017011D02*
X00017268Y00040710D01*
X00027538*
X00018865Y00041086D02*
X00019570Y00041791D01*
X00020728*
X00018865Y00041086D02*
X00016850D01*
X00016850D02*
X00016579Y00041358D01*
X00016318*
X00023320Y00039370D02*
X00023130D01*
X00022972Y00039527*
X00022972D02*
X00022657D01*
X00027716Y00040531D02*
X00027905Y00040720D01*
X00037590*
X00027538Y00040710D02*
X00027716Y00040531D01*
X00027716D02*
Y00040452D01*
X00029889Y00041086D02*
X00030594Y00041791D01*
X00031752*
X00029889Y00041086D02*
X00027874D01*
X00027602Y00041358*
X00027602D02*
X00027342D01*
X00037700Y00040610D02*
X00037599D01*
X00037599D02*
X00037590Y00040619D01*
X00037590D02*
Y00040720D01*
X00037700Y00040610D02*
Y00040866D01*
X00037816Y00040983*
X00037816D02*
X00037810Y00040990D01*
X00038740Y00040452D02*
X00038252D01*
X00038252D02*
X00038094Y00040610D01*
X00038094D02*
X00037700D01*
X00040912Y00041086D02*
X00041617Y00041791D01*
X00041617D02*
X00042775D01*
X00040912Y00041086D02*
X00038898D01*
X00038626Y00041358*
X00038366*
X00015216Y00041791D02*
X00015219Y00041795D01*
X00017066Y00041358D02*
Y00041437D01*
X00017066D02*
X00016712Y00041791D01*
X00016712D02*
X00015216D01*
X00019800Y00042830D02*
Y00042846D01*
X00020039*
Y00042874*
X00022130Y00043070D02*
X00022381D01*
X00022578Y00043267*
X00022578D02*
X00022598D01*
X00021530Y00042720D02*
X00022936D01*
X00022936D02*
X00023466Y00043250D01*
X00023466D02*
X00024316D01*
X00021220Y00043070D02*
X00021417Y00043267D01*
X00021417D02*
X00021811D01*
X00022657Y00041692D02*
X00022736D01*
X00022736D02*
X00023692Y00042648D01*
X00023692D02*
X00023731D01*
X00023731D02*
X00024153Y00043070D01*
X00024153D02*
X00024173D01*
X00021752Y00041318D02*
X00021720D01*
X00021720D02*
Y00041780D01*
X00021752Y00042066D02*
X00021673D01*
X00021673D02*
X00020866Y00042874D01*
X00020433*
X00024566Y00042500D02*
X00024744Y00042677D01*
X00024763*
X00024566Y00042500D02*
X00024176D01*
X00024176D02*
X00024173Y00042503D01*
X00024173D02*
Y00042677D01*
X00024370Y00042854D02*
Y00043196D01*
X00024370D02*
X00024316Y00043250D01*
X00024750Y00042430D02*
Y00042677D01*
X00024763*
X00024173D02*
X00024192D01*
X00024192D02*
X00024370Y00042854D01*
X00024763Y00042677D02*
X00025551D01*
X00028090Y00041358D02*
Y00041437D01*
X00028090D02*
X00027736Y00041791D01*
X00026240*
X00026239Y00041795*
X00039114Y00041358D02*
Y00041437D01*
X00038759Y00041791*
X00038759D02*
X00037263D01*
X00037263D02*
X00037259Y00041795D01*
X00014370Y00043330D02*
X00018943D01*
X00018943D02*
X00019570Y00043956D01*
X00019570D02*
X00020728D01*
X00016692Y00044389D02*
X00017234D01*
X00017234D02*
X00017394Y00044550D01*
X00017394D02*
X00021316D01*
X00018865Y00045023D02*
X00019570Y00045728D01*
X00020728*
X00018865Y00045023D02*
X00016850D01*
X00016850D02*
X00016579Y00045295D01*
X00016318*
X00020729Y00043954D02*
X00020728Y00043956D01*
X00022820Y00043470D02*
X00023030Y00043680D01*
Y00044134*
X00023446Y00044550*
X00027015*
X00022820Y00043470D02*
X00022396D01*
X00021316Y00044550*
X00021530Y00043620D02*
Y00043641D01*
X00021811*
Y00043661*
Y00043267D02*
Y00043290D01*
X00022260*
X00022598Y00043661D02*
Y00044645D01*
X00022598D02*
X00021830Y00045413D01*
X00021830D02*
X00021752D01*
X00022657Y00045039D02*
X00022543D01*
Y00045460*
X00022520*
X00027716Y00044389D02*
X00028352D01*
X00028352D02*
X00028673Y00044710D01*
X00029860*
X00027716Y00044389D02*
X00027175D01*
X00027175D02*
X00027015Y00044550D01*
X00029889Y00045023D02*
X00030594Y00045728D01*
X00031752*
X00029889Y00045023D02*
X00027874D01*
X00027602Y00045295*
X00027602D02*
X00027342D01*
X00036560Y00044950D02*
Y00046061D01*
X00037150Y00046651*
X00038740Y00044389D02*
X00038100D01*
X00038100D02*
X00037910Y00044580D01*
X00033671*
X00033671D02*
X00033541Y00044710D01*
X00033541D02*
X00029860D01*
X00016380Y00046600D02*
X00015440Y00047540D01*
Y00055840*
X00015219Y00045725D02*
X00015216Y00045728D01*
X00017066Y00045295D02*
Y00045374D01*
X00017066D02*
X00016712Y00045728D01*
X00016712D02*
X00015216D01*
X00020880Y00046570D02*
Y00051645D01*
X00020510Y00052015*
X00022540Y00046570D02*
X00024717D01*
X00024717D02*
X00029180Y00051032D01*
Y00056071*
X00022520Y00045460D02*
X00023450Y00046390D01*
X00024679*
X00029290Y00051000*
X00029290D02*
Y00056555D01*
X00023960Y00047190D02*
Y00048811D01*
X00023960D02*
X00024080Y00048931D01*
X00024080D02*
Y00052260D01*
X00024090Y00052270*
X00026239Y00045725D02*
X00026240Y00045728D01*
X00027736*
X00028090Y00045295D02*
Y00045374D01*
X00028090D02*
X00027736Y00045728D01*
X00029790Y00046600D02*
Y00056265D01*
X00029410Y00056645*
Y00057005*
X00029305Y00057110*
X00029140*
X00030390Y00046420D02*
X00030140Y00046670D01*
Y00057010*
X00029710Y00057440*
X00030080Y00046440D02*
X00030060D01*
Y00046606*
X00030060D02*
X00029965Y00046701D01*
X00029965D02*
Y00056729D01*
X00029740Y00056954*
Y00057150*
X00030740Y00046360D02*
Y00049779D01*
X00030300Y00050219*
X00037150Y00046651D02*
Y00054759D01*
X00037100Y00054809*
Y00055290*
X00036170Y00046710D02*
Y00048584D01*
X00036170D02*
X00036340Y00048754D01*
X00035990Y00046530D02*
Y00050255D01*
X00035990D02*
X00036230Y00050495D01*
X00035540Y00046640D02*
Y00050937D01*
X00035540D02*
X00036120Y00051517D01*
X00036700Y00046640D02*
Y00053337D01*
X00036440Y00053597*
X00037990Y00047190D02*
X00037320Y00047860D01*
X00037259Y00045725D02*
X00037263Y00045728D01*
X00037263D02*
X00038759D01*
X00039114Y00045295D02*
Y00045374D01*
X00038759Y00045728*
X00011180Y00047790D02*
X00011906D01*
X00012108Y00047992*
X00012755*
X00012755D02*
X00012775D01*
X00012755D02*
Y00048025D01*
X00012755D02*
X00012826Y00048096D01*
X00013019*
X00013019D02*
X00013090Y00048166D01*
X00013090D02*
Y00049289D01*
X00020380Y00048700D02*
Y00050040D01*
X00020380D02*
X00020254Y00050166D01*
X00020254D02*
Y00052309D01*
X00036340Y00048754D02*
Y00053216D01*
X00036290Y00053266*
Y00056470*
X00035970Y00056790*
X00037320Y00047860D02*
Y00056871D01*
X00037580Y00057131*
Y00057920*
X00013090Y00049289D02*
X00012860Y00049519D01*
X00012860D02*
Y00050150D01*
X00012370Y00049900D02*
Y00057404D01*
X00014644Y00059678*
X00014644D02*
Y00062152D01*
X00023590Y00050040D02*
X00023940Y00050390D01*
Y00051695*
X00026870Y00049850D02*
X00025690Y00051030D01*
X00024996*
X00024670Y00051356*
X00030300Y00050219D02*
Y00054789D01*
X00030540Y00055029*
Y00055910*
X00032430Y00049910D02*
Y00050330D01*
X00032430D02*
X00032420Y00050340D01*
X00032420D02*
Y00052090D01*
X00036230Y00050495D02*
Y00052844D01*
X00036230D02*
X00036150Y00052924D01*
X00036150D02*
Y00055410D01*
X00035620Y00055940*
X00017430Y00052670D02*
Y00064296D01*
X00017610Y00064476*
Y00067280*
X00020254Y00052309D02*
X00020340Y00052394D01*
Y00053390*
X00020760Y00053091D02*
Y00058113D01*
X00020760D02*
X00020700Y00058173D01*
X00020700D02*
Y00063500D01*
X00020650Y00053182D02*
Y00055339D01*
X00020510Y00055479*
Y00057540*
Y00052015D02*
Y00053042D01*
X00020510D02*
X00020650Y00053182D01*
X00020620Y00052508D02*
Y00052951D01*
X00020620D02*
X00020760Y00053091D01*
X00021000Y00053000D02*
Y00053170D01*
X00021000D02*
X00021100Y00053270D01*
X00021100D02*
Y00053625D01*
X00021460Y00053985*
Y00064210*
X00023670Y00066420*
X00020810Y00052820D02*
X00021275D01*
X00021365Y00052910*
X00022895*
X00022540Y00052710D02*
X00021970Y00052140D01*
X00020988*
X00020620Y00052508*
X00022630Y00053210D02*
X00022396D01*
X00022240Y00053366*
X00021965Y00052675D02*
Y00052692D01*
X00021965D02*
X00021620D01*
X00021620D02*
Y00052710D01*
X00023435Y00052870D02*
X00023765Y00053200D01*
X00023765D02*
X00024080D01*
X00024390Y00053510*
X00024730*
X00023435Y00052870D02*
X00022935D01*
X00022895Y00052910*
X00024090Y00052270D02*
Y00052570D01*
X00023930Y00052730*
X00024670Y00051356D02*
Y00051910D01*
X00024670D02*
X00024690Y00051930D01*
X00024690D02*
Y00052152D01*
X00024582Y00052260*
X00024485*
X00024240Y00052505*
Y00052740*
X00023760Y00052270D02*
X00023920Y00052430D01*
X00023940Y00051695D02*
X00023760Y00051875D01*
X00023760D02*
Y00052270D01*
X00023290Y00053040D02*
X00022424D01*
X00022424D02*
X00022130Y00053334D01*
X00027250Y00052443D02*
Y00052536D01*
X00027250D02*
X00027710D01*
Y00052560*
X00032420Y00052090D02*
X00032810Y00052480D01*
X00034870Y00052470D02*
Y00052488D01*
X00035196*
X00035196D02*
Y00052519D01*
X00036120Y00051517D02*
Y00052728D01*
X00036120D02*
X00036030Y00052818D01*
X00036030D02*
Y00055110D01*
X00035430Y00055710*
X00019190Y00053720D02*
Y00056539D01*
X00019380Y00056729*
Y00059260*
X00019430Y00054180D02*
X00019900Y00054650D01*
Y00058580*
X00021090Y00053860D02*
Y00054115D01*
X00021090D02*
X00021010Y00054195D01*
X00021010D02*
Y00056476D01*
X00020930Y00053340D02*
Y00053645D01*
X00020930D02*
X00020900Y00053675D01*
X00020900D02*
Y00058592D01*
X00020170Y00055140D02*
Y00060790D01*
X00020190Y00060810*
Y00066460*
X00022510Y00054354D02*
Y00054703D01*
X00022430Y00054783*
X00022240Y00053366D02*
Y00054084D01*
X00022510Y00054354*
X00022130Y00053334D02*
Y00055694D01*
X00022510Y00056074*
X00022430Y00054783D02*
Y00055618D01*
X00022620Y00055808*
X00022539Y00054854D02*
Y00055065D01*
X00022539D02*
X00022714Y00055240D01*
X00022714D02*
X00022753D01*
X00022753D02*
X00022860Y00055346D01*
X00022640Y00054896D02*
Y00055023D01*
X00022640D02*
X00022746Y00055130D01*
X00022785*
X00022970Y00055314*
X00022970D02*
Y00060441D01*
X00022970D02*
X00023210Y00060681D01*
X00023210D02*
Y00060870D01*
X00021670Y00053950D02*
Y00064000D01*
X00023900Y00066230*
X00022710Y00054070D02*
X00022949D01*
X00022949D02*
Y00054072D01*
X00022906Y00053539D02*
Y00053571D01*
X00022906D02*
X00022630D01*
Y00053590*
X00023894Y00054002D02*
X00023824Y00054072D01*
X00023343*
X00023918Y00053938D02*
X00023894Y00053962D01*
X00024400Y00054780D02*
Y00055839D01*
X00024660Y00056099*
X00024714Y00055181D02*
Y00055665D01*
X00024714D02*
X00024800Y00055750D01*
X00024800D02*
Y00056945D01*
X00025040Y00057185*
X00025020Y00054760D02*
Y00054972D01*
X00024912Y00055080*
X00024816*
X00024714Y00055181*
X00024240Y00053670D02*
X00024087Y00053822D01*
X00024087D02*
Y00054356D01*
X00024087D02*
X00023983Y00054460D01*
X00023983D02*
X00022934D01*
X00022934D02*
X00022539Y00054854D01*
X00023920Y00053690D02*
X00023906D01*
X00023906D02*
Y00053982D01*
X00023906D02*
X00023894D01*
X00023590Y00053670D02*
X00023473Y00053786D01*
X00024870Y00054610D02*
X00025020Y00054760D01*
X00024560Y00054620D02*
X00024400Y00054780D01*
X00023610Y00054940D02*
X00023220D01*
X00023200Y00054960*
X00022810*
X00023610Y00054630D02*
X00022906D01*
X00022640Y00054896*
X00024870Y00053370D02*
X00024730Y00053510D01*
X00023300Y00053539D02*
Y00053732D01*
X00023300D02*
X00023355Y00053786D01*
X00023355D02*
X00023473D01*
X00025630Y00055110D02*
Y00055930D01*
X00025660Y00055960*
X00025640Y00053800D02*
Y00054765D01*
X00025650Y00054775*
Y00055089*
X00025650D02*
X00025630Y00055110D01*
X00026440Y00054620D02*
X00026950Y00055130D01*
Y00056790*
X00025790Y00053360D02*
Y00053650D01*
X00025790D02*
X00025640Y00053800D01*
X00026450Y00054300D02*
X00026860Y00054710D01*
Y00054884*
X00026860D02*
X00027250Y00055274D01*
X00027250D02*
Y00057980D01*
X00027280Y00054970D02*
Y00055149D01*
X00027280D02*
X00027420Y00055289D01*
X00027420D02*
Y00058749D01*
X00028040Y00054920D02*
X00027670Y00055290D01*
Y00059520*
X00028750Y00054720D02*
Y00055220D01*
X00028670Y00055300*
Y00055800*
X00029470Y00055010D02*
Y00055525D01*
X00029550Y00055605*
Y00056120*
X00036440Y00053597D02*
Y00056074D01*
X00036450Y00056084*
Y00057110*
X00038830Y00053770D02*
Y00054800D01*
X00038110Y00055520*
X00038550Y00053310D02*
Y00053490D01*
X00038830Y00053770*
X00015440Y00055840D02*
X00016960Y00057360D01*
X00021010Y00056476D02*
X00021260Y00056726D01*
Y00064350*
X00023640Y00066730*
X00022510Y00056074D02*
Y00057125D01*
X00022280Y00057355*
X00022860Y00055346D02*
Y00059020D01*
X00022460Y00059420*
X00022620Y00055808D02*
Y00058820D01*
X00022620D02*
X00022270Y00059170D01*
X00023090Y00056458D02*
Y00060397D01*
X00023380Y00060687*
X00022150Y00057150D02*
Y00057855D01*
X00022150D02*
X00022120Y00057885D01*
X00022120D02*
Y00058639D01*
X00023530Y00056380D02*
X00023399Y00056249D01*
X00023299*
X00023090Y00056458*
X00025150Y00057020D02*
Y00057865D01*
X00025150D02*
X00024970Y00058045D01*
X00024970D02*
Y00059748D01*
X00024842Y00059875*
X00024842D02*
Y00061181D01*
X00025040Y00057185D02*
Y00057824D01*
X00024860Y00058004*
Y00059655*
X00024860D02*
X00024645Y00059869D01*
X00024645D02*
Y00061181D01*
X00024340Y00057180D02*
X00024140Y00057380D01*
Y00057660*
X00024020Y00057780*
Y00058363*
X00024280Y00056985D02*
X00024340Y00057045D01*
Y00057180*
X00024760D02*
X00024780D01*
Y00057603*
X00024780D02*
X00024690Y00057693D01*
X00024690D02*
Y00058180D01*
X00024590Y00057065D02*
Y00057259D01*
X00024590D02*
X00024670Y00057339D01*
X00024660Y00056099D02*
Y00056995D01*
X00024590Y00057065*
X00024490Y00056380D02*
X00024329Y00056540D01*
X00024329D02*
Y00056770D01*
X00024329D02*
X00024280Y00056820D01*
Y00056985*
X00025010Y00056880D02*
X00025150Y00057020D01*
X00024120Y00056710D02*
Y00056900D01*
X00024120D02*
X00023990Y00057030D01*
X00023990D02*
Y00057192D01*
X00023990D02*
X00023570Y00057612D01*
X00024450Y00056920D02*
Y00057298D01*
X00024450D02*
X00024490Y00057338D01*
X00023280Y00056530D02*
X00023410Y00056660D01*
X00023410D02*
X00023779D01*
Y00056653D02*
Y00056660D01*
X00026263Y00056590D02*
X00026620Y00056946D01*
Y00057199*
X00026263Y00056590D02*
X00026095D01*
X00026095D02*
X00025995Y00056690D01*
X00025995D02*
X00025800D01*
X00025660Y00055960D02*
Y00056495D01*
X00025630Y00056525*
Y00057165*
X00025670Y00057205*
Y00057440*
X00025670D02*
X00025620Y00057490D01*
X00026620Y00057199D02*
X00026550Y00057269D01*
X00026550D02*
Y00057820D01*
X00026530Y00057840*
Y00058046*
X00025800Y00055560D02*
X00026730Y00056490D01*
Y00057357*
X00026190Y00056760D02*
Y00056990D01*
X00026440Y00057240*
Y00057712*
X00026080Y00057240D02*
Y00058137D01*
X00026260Y00058317*
Y00058597*
X00026260D02*
X00026350Y00058687D01*
X00026350D02*
Y00059800D01*
X00025800Y00057050D02*
Y00057509D01*
X00025730Y00057579*
Y00057815*
X00029180Y00056071D02*
X00028850Y00056401D01*
X00028850D02*
Y00056710D01*
X00029290Y00056555D02*
X00029200Y00056645D01*
Y00056870*
X00036010Y00056220D02*
X00035580Y00056650D01*
Y00060150*
X00014560Y00058080D02*
X00014880Y00058400D01*
Y00067824*
X00015190Y00068134*
Y00070709*
X00014230Y00057810D02*
X00014370Y00057950D01*
X00014370D02*
Y00058694D01*
X00014370D02*
X00014744Y00059067D01*
X00014744D02*
Y00062156D01*
X00017810Y00058110D02*
Y00060640D01*
X00017810D02*
X00017690Y00060760D01*
X00017690D02*
Y00063834D01*
X00018610Y00058340D02*
Y00067104D01*
X00018610D02*
X00018590Y00067124D01*
X00018590D02*
Y00067700D01*
X00019000Y00058380D02*
Y00066964D01*
X00019000D02*
X00018840Y00067124D01*
X00018840D02*
Y00067924D01*
X00018650Y00068114*
Y00068520*
X00020900Y00058592D02*
X00021120Y00058812D01*
Y00064530*
X00023240Y00066650*
X00019650Y00058830D02*
Y00059825D01*
X00019650D02*
X00019550Y00059925D01*
X00019550D02*
Y00066604D01*
X00019550D02*
X00019030Y00067124D01*
X00019030D02*
Y00069230D01*
X00022270Y00059170D02*
Y00060383D01*
X00022420Y00060533*
Y00061590*
X00022120Y00058639D02*
X00022130Y00058649D01*
Y00058900*
X00022280Y00057355D02*
Y00057949D01*
X00022290Y00057959*
Y00058490*
X00024020Y00058363D02*
X00024410Y00058754D01*
X00024410D02*
X00024424D01*
X00024590Y00058920*
X00023680Y00058406D02*
X00024370Y00059096D01*
X00024370D02*
Y00062342D01*
X00024490Y00057338D02*
Y00057555D01*
X00024490D02*
X00024450Y00057595D01*
X00024450D02*
Y00057711D01*
X00024450D02*
X00024314Y00057847D01*
X00024314D02*
Y00058079D01*
X00024314D02*
X00024430Y00058195D01*
Y00058540*
X00024466Y00057906D02*
X00024480Y00057920D01*
X00024670Y00057339D02*
Y00057569D01*
X00024670D02*
X00024583Y00057655D01*
X00024583D02*
Y00057790D01*
X00024583D02*
X00024466Y00057906D01*
X00023570Y00057612D02*
Y00058450D01*
X00023780Y00058660*
Y00058850*
X00023970Y00057470D02*
X00023680Y00057760D01*
Y00058406*
X00023350Y00057950D02*
Y00058658D01*
X00023200Y00058808*
Y00060360*
X00024320Y00057440D02*
Y00057660D01*
X00024320D02*
X00024190Y00057790D01*
X00024190D02*
Y00058270D01*
X00023850Y00057920D02*
Y00058423D01*
X00024480Y00059053*
Y00064190*
X00027056Y00057516D02*
Y00059173D01*
X00027056D02*
X00027007Y00059222D01*
X00027007D02*
Y00061181D01*
X00025620Y00057490D02*
Y00057846D01*
X00025620D02*
X00025698Y00057924D01*
X00025698D02*
Y00058090D01*
X00025720*
X00025480Y00058180D02*
X00025420Y00058240D01*
Y00059695*
X00025730Y00057815D02*
X00025930Y00058015D01*
Y00058182*
X00025930D02*
X00026150Y00058402D01*
X00026150D02*
Y00058625D01*
X00026710Y00059077D02*
X00026660Y00059127D01*
Y00060479*
X00026614Y00060524*
X00026614D02*
Y00061181D01*
X00026530Y00058046D02*
X00026710Y00058226D01*
X00026710D02*
Y00059077D01*
X00026420Y00058081D02*
X00026520Y00058181D01*
X00026520D02*
Y00058350D01*
X00026540*
X00026730Y00057357D02*
X00026660Y00057427D01*
Y00057749*
X00026700Y00057789*
Y00057980*
X00026440Y00057712D02*
X00026420Y00057732D01*
X00026420D02*
Y00058081D01*
X00025750Y00058750D02*
Y00060650D01*
X00025826Y00060726*
X00025826D02*
Y00061181D01*
X00026150Y00058625D02*
X00025920Y00058855D01*
Y00059650*
X00026270Y00057580D02*
Y00058130D01*
X00026270D02*
X00026370Y00058230D01*
X00026370D02*
Y00058447D01*
X00026530Y00058607*
Y00060370*
X00025250Y00058290D02*
Y00059655D01*
X00025250D02*
X00025236Y00059669D01*
Y00061181*
X00025320Y00057610D02*
X00025440Y00057730D01*
Y00057825*
X00025440D02*
X00025480Y00057865D01*
X00025480D02*
Y00058180D01*
X00026180Y00058870D02*
Y00059800D01*
X00026030Y00059950*
Y00060510*
X00026830Y00057660D02*
Y00057850D01*
X00026830D02*
X00026870Y00057890D01*
X00026870D02*
Y00059722D01*
X00025590Y00058470D02*
Y00059732D01*
X00025590D02*
X00025629Y00059772D01*
X00025629D02*
Y00061181D01*
X00025980Y00058520D02*
X00025750Y00058750D01*
X00025310Y00057950D02*
X00025080Y00058180D01*
Y00060284*
X00025080D02*
X00025039Y00060325D01*
Y00061181*
X00026940Y00057400D02*
X00027056Y00057516D01*
X00027420Y00058749D02*
X00027290Y00058879D01*
Y00059750*
X00031070Y00058480D02*
Y00063820D01*
X00031070D02*
X00031740Y00064490D01*
X00031740D02*
Y00071190D01*
X00037140Y00057560D02*
X00037335Y00057755D01*
X00037335D02*
Y00061080D01*
X00037335D02*
X00037540Y00061285D01*
Y00067920*
X00019730Y00060810D02*
Y00067110D01*
X00019350Y00067490*
X00020920Y00060930D02*
Y00070725D01*
X00020950Y00070755*
Y00070940*
X00023200Y00060360D02*
X00023700Y00060860D01*
Y00064869*
X00024290Y00065459*
Y00066477*
X00023380Y00060687D02*
Y00062409D01*
X00023220Y00062569*
Y00064230*
X00025039Y00061181D02*
Y00062058D01*
X00025039D02*
X00025100Y00062119D01*
Y00064752*
X00025330Y00064982*
Y00068440*
X00025350Y00068460*
Y00069070*
X00024842Y00061181D02*
Y00062571D01*
X00024842D02*
X00024990Y00062718D01*
X00024990D02*
Y00065250D01*
X00024645Y00061181D02*
Y00062341D01*
X00024645D02*
X00024600Y00062387D01*
Y00064480*
X00026010Y00060990D02*
Y00061167D01*
X00026023Y00061181*
X00026530Y00060370D02*
X00026417Y00060482D01*
X00026417D02*
Y00061181D01*
X00026350Y00059800D02*
X00026220Y00059929D01*
X00026220D02*
Y00061181D01*
X00026870Y00059722D02*
X00026800Y00059792D01*
X00026800D02*
Y00060670D01*
X00025420Y00059695D02*
X00025433Y00059708D01*
Y00061181*
X00026030Y00060510D02*
Y00060769D01*
X00026023Y00060775*
X00026023D02*
Y00061181D01*
X00026800Y00060670D02*
X00026811D01*
Y00061181*
X00027007D02*
Y00063367D01*
X00027007D02*
X00027020Y00063379D01*
X00027020D02*
Y00065420D01*
X00026614Y00061181D02*
Y00062062D01*
X00026580Y00062096*
Y00063858*
X00026417Y00061181D02*
Y00062109D01*
X00026417D02*
X00026470Y00062162D01*
Y00064096*
X00026470D02*
X00026680Y00064306D01*
X00026680D02*
Y00065461D01*
X00028160Y00066941*
Y00067300*
X00026220Y00061181D02*
Y00061968D01*
X00026220D02*
X00026008Y00062180D01*
X00026008D02*
Y00063104D01*
X00025826Y00061181D02*
Y00061726D01*
X00025826D02*
X00025880Y00061780D01*
Y00063176*
X00025880D02*
X00025970Y00063266D01*
X00025970D02*
Y00064260D01*
X00026150Y00064440*
Y00066739*
X00025629Y00061181D02*
Y00062005D01*
X00025629D02*
X00025750Y00062125D01*
X00025750D02*
Y00063287D01*
X00025750D02*
X00025859Y00063396D01*
X00025859D02*
Y00064424D01*
X00025433Y00061181D02*
Y00061958D01*
X00025433D02*
X00025620Y00062145D01*
X00025620D02*
Y00063398D01*
X00025759Y00063537*
Y00064170*
X00025236Y00061181D02*
Y00061710D01*
X00025222Y00061723*
X00025222D02*
Y00062062D01*
X00028189Y00061181D02*
X00028154D01*
X00028154D02*
Y00061654D01*
X00028154D02*
X00028170Y00061670D01*
X00028110Y00060670D02*
X00028120D01*
Y00060835*
X00028154Y00060869*
X00028154D02*
Y00061181D01*
X00028385D02*
X00028402D01*
Y00061374*
X00027204Y00061181D02*
Y00062657D01*
X00027204D02*
X00027348Y00062801D01*
X00027348D02*
Y00063768D01*
X00030420Y00060910D02*
Y00070099D01*
X00030420D02*
X00030269Y00070250D01*
X00030269D02*
X00029500D01*
X00029880Y00060880D02*
X00030240Y00061240D01*
Y00063263*
X00032130Y00060250D02*
Y00061131D01*
X00031870Y00061391*
X00031920Y00060100D02*
Y00060905D01*
X00031720Y00061105*
Y00063786*
X00014744Y00062156D02*
Y00063535D01*
X00014744D02*
X00014060Y00064220D01*
Y00068076*
X00014644Y00062152D02*
X00013790Y00063006D01*
X00013790D02*
Y00066970D01*
X00024370Y00062342D02*
X00024020Y00062692D01*
Y00064924*
X00026008Y00063104D02*
X00026090Y00063186D01*
Y00064065*
X00026560Y00064535*
Y00065540*
X00026824Y00065804*
X00026824D02*
X00026878D01*
X00026878D02*
X00027092Y00066018D01*
Y00066072*
X00027689Y00066669*
X00027689D02*
Y00068297D01*
X00027689D02*
X00027716Y00068324D01*
X00027716D02*
Y00069842D01*
X00025490Y00062330D02*
Y00063490D01*
X00025490D02*
X00025340Y00063640D01*
X00025340D02*
Y00064092D01*
X00025222Y00062062D02*
X00025490Y00062330D01*
X00026800Y00062450D02*
Y00062794D01*
X00026774*
X00026231Y00062855D02*
Y00063147D01*
X00026270Y00063186*
Y00063420*
X00026774Y00063187D02*
X00026780D01*
X00026780D02*
Y00063440D01*
X00028900Y00061990D02*
X00029054Y00062144D01*
X00029054D02*
X00029110D01*
X00029110D02*
X00029341Y00062375D01*
Y00062434*
X00028900Y00061990D02*
X00028873D01*
X00028873D02*
X00028870Y00061993D01*
X00028870D02*
X00028753Y00061876D01*
X00028753D02*
X00028740Y00061890D01*
X00027992D02*
X00027980D01*
Y00062080*
X00027860Y00062200*
Y00063344*
X00028678Y00062390D02*
Y00062715D01*
X00028678D02*
X00028650Y00062743D01*
X00028650D02*
Y00063070D01*
X00028290Y00061486D02*
Y00062215D01*
X00028290D02*
X00028464Y00062390D01*
X00028678*
X00028402Y00061374D02*
X00028290Y00061486D01*
X00028170Y00061670D02*
Y00062003D01*
X00028170D02*
X00028087Y00062086D01*
X00028087D02*
Y00062388D01*
X00029080Y00061920D02*
X00029270Y00062110D01*
X00029666*
X00029666D02*
X00029931Y00062375D01*
X00029931D02*
Y00062434D01*
X00028470Y00061940D02*
X00028630Y00062100D01*
X00028860*
X00028930Y00062170*
Y00063772*
X00028678Y00062388D02*
Y00062390D01*
X00028087Y00062388D02*
Y00062712D01*
X00028087D02*
X00028060Y00062739D01*
X00028060D02*
Y00063070D01*
X00030130Y00062637D02*
X00030077Y00062690D01*
X00029762*
X00029450Y00063001*
X00029450D02*
Y00063061D01*
X00029410Y00061850D02*
X00029749D01*
X00030130Y00062230*
X00030130D02*
Y00062637D01*
X00030040Y00063061D02*
Y00063120D01*
X00030040D02*
X00029710D01*
X00029450Y00063061D02*
Y00063382D01*
X00029539Y00063471*
X00029539D02*
Y00063733D01*
X00033031Y00063149D02*
X00033033D01*
X00033033D02*
Y00063171D01*
X00033033D02*
X00032767Y00063437D01*
X00031870Y00061391D02*
Y00063332D01*
X00032047Y00063509*
X00032047D02*
Y00063740D01*
X00033031Y00063149D02*
Y00063410D01*
X00032381Y00062342D02*
Y00062795D01*
X00032381D02*
X00032047Y00063129D01*
X00032047D02*
Y00063149D01*
X00033698Y00061759D02*
X00033769Y00061830D01*
X00034562*
X00034700Y00061968*
X00034700D02*
X00035059D01*
X00033698Y00061759D02*
X00033040D01*
X00033040D02*
X00032834Y00061965D01*
X00032834D02*
Y00062736D01*
X00032834D02*
X00032440Y00063129D01*
X00032440D02*
Y00063149D01*
X00034600Y00062464D02*
X00033914Y00063149D01*
X00033914D02*
X00033425D01*
X00033287Y00061968D02*
X00034348D01*
X00034348D02*
X00034600Y00062220D01*
X00034600D02*
Y00062464D01*
X00034153Y00062342D02*
X00033515D01*
X00033515D02*
X00032740Y00063118D01*
Y00063204*
X00032740D02*
X00032440Y00063503D01*
X00032440D02*
Y00063740D01*
X00037000Y00062550D02*
Y00067722D01*
X00036662Y00068060*
X00036302*
X00035980Y00068382*
X00017690Y00063834D02*
X00017880Y00064024D01*
Y00067160*
X00017370Y00065120D02*
X00016280Y00066210D01*
Y00070750*
X00023100Y00064650D02*
Y00065025D01*
X00024070Y00065995*
X00024600Y00064480D02*
X00024683Y00064564D01*
X00024683D02*
Y00068761D01*
X00024683D02*
X00024790Y00068868D01*
Y00069070*
X00024480Y00064190D02*
X00024190Y00064480D01*
X00024020Y00064924D02*
X00024400Y00065304D01*
Y00066531*
X00024810Y00063840D02*
Y00064314D01*
X00024810D02*
X00024787Y00064337D01*
X00024787D02*
Y00066163D01*
X00024400Y00064750D02*
Y00065039D01*
X00024580Y00065219*
Y00069473*
X00026580Y00063858D02*
X00026810Y00064088D01*
X00026810D02*
Y00065446D01*
X00028400Y00067036*
Y00068511*
X00028848Y00068960*
X00028848D02*
X00029463D01*
X00029463D02*
X00029685Y00069181D01*
Y00069842*
X00025759Y00064170D02*
X00025660Y00064270D01*
Y00068160*
X00025859Y00064424D02*
X00025810Y00064474D01*
Y00066314*
X00025340Y00064092D02*
X00025550Y00064302D01*
X00025550D02*
Y00068255D01*
X00025550D02*
X00025640Y00068345D01*
X00025640D02*
Y00068590D01*
X00025230Y00064423D02*
X00025440Y00064633D01*
X00025440D02*
Y00068351D01*
X00025440D02*
X00025460Y00068371D01*
X00025460D02*
Y00068805D01*
X00025500Y00068845*
Y00069260*
X00025320Y00063310D02*
Y00063493D01*
X00025320D02*
X00025230Y00063583D01*
X00025230D02*
Y00064423D01*
X00028728Y00063924D02*
Y00064569D01*
X00028750*
X00028930Y00063772D02*
X00028778Y00063924D01*
X00028728*
X00027860Y00063344D02*
X00028114Y00063598D01*
X00028114D02*
Y00063924D01*
X00028705D02*
X00028728D01*
X00028114D02*
X00028137D01*
X00028137D02*
Y00064569D01*
X00028137D02*
X00028160D01*
X00030240Y00063263D02*
X00030073Y00063430D01*
X00029913*
X00029913D02*
X00029750Y00063593D01*
X00029750D02*
Y00066488D01*
X00029933Y00063733D02*
Y00063750D01*
X00030210*
X00033031Y00063720D02*
Y00063410D01*
X00033597*
X00033927Y00063740*
X00035059*
X00033031D02*
Y00063720D01*
X00033072*
X00032767Y00063437D02*
X00032770Y00063440D01*
X00031720Y00063786D02*
X00033031Y00065098D01*
Y00065118*
Y00065905*
Y00063740D02*
Y00064330D01*
X00034750Y00063360D02*
X00034508D01*
X00034502Y00063366*
X00034153*
X00036378Y00065118D02*
Y00066299D01*
X00037280Y00064430D02*
Y00068143D01*
X00036360Y00069063*
Y00069843*
X00036360D02*
X00036190Y00070013D01*
X00036190D02*
Y00070250D01*
X00038150Y00063700D02*
Y00065751D01*
X00038169Y00065770*
Y00067933*
X00014230Y00067060D02*
Y00068044D01*
X00015090Y00068904*
Y00070539*
X00020490Y00066960D02*
Y00070713D01*
X00020490D02*
X00020886Y00071110D01*
X00020966*
X00020966D02*
X00021595Y00071739D01*
X00021595D02*
X00021609D01*
X00021740Y00071870*
X00021170Y00066140D02*
Y00067518D01*
X00021050Y00067638*
Y00070693*
X00022500Y00066560D02*
Y00067455D01*
X00022500D02*
X00022690Y00067645D01*
X00022690D02*
Y00069310D01*
X00024787Y00066163D02*
Y00068687D01*
X00025040Y00068940*
X00024070Y00065995D02*
Y00066339D01*
X00023850Y00066559*
Y00067110*
X00023390Y00067570*
Y00068650*
X00022795Y00069244*
X00022795D02*
Y00069842D01*
X00024887Y00066167D02*
Y00068339D01*
X00025050Y00068502*
Y00068710*
X00024290Y00066477D02*
X00024160Y00066607D01*
Y00067040*
X00024180Y00066416D02*
X00023990Y00066606D01*
X00023990D02*
Y00068320D01*
X00024400Y00066531D02*
X00024390Y00066541D01*
X00024390D02*
Y00066730D01*
X00025150Y00066980D02*
Y00068440D01*
X00025240Y00068530*
X00024990Y00065250D02*
Y00066064D01*
X00024990D02*
X00024887Y00066167D01*
X00023900Y00065420D02*
X00024180Y00065700D01*
Y00066416*
X00026150Y00066739D02*
X00026080Y00066809D01*
Y00068900*
X00025810Y00066314D02*
X00025830Y00066334D01*
Y00068000*
X00026690Y00066030D02*
X00027126Y00066466D01*
Y00069842*
X00029750Y00066488D02*
X00029881Y00066620D01*
X00029881D02*
Y00069842D01*
X00033031Y00066889D02*
Y00066909D01*
X00032680Y00067260*
X00032680D02*
Y00067523D01*
X00033425Y00066889D02*
Y00066909D01*
X00033158Y00067176*
X00033059*
X00033059D02*
X00032834Y00067401D01*
X00033425Y00066889D02*
X00033730D01*
X00033730D02*
X00033750Y00066909D01*
X00034153*
X00035059Y00065511D02*
Y00066425D01*
X00034284Y00067200*
X00033382*
X00033382D02*
X00033230Y00067352D01*
X00034153Y00065885D02*
X00033750D01*
X00033750D02*
X00033730Y00065905D01*
X00033730D02*
X00033425D01*
X00038600Y00066170D02*
X00038917Y00066487D01*
Y00067933*
X00041640Y00066970D02*
Y00067251D01*
X00041640D02*
X00041570Y00067321D01*
X00010480Y00067380D02*
Y00067910D01*
X00010480D02*
X00010340Y00068050D01*
X00010340D02*
Y00072970D01*
X00010510Y00068480D02*
Y00068651D01*
X00010510D02*
X00010517Y00068658D01*
X00010517D02*
Y00068858D01*
X00010590*
X00010984D02*
Y00069448D01*
X00014060Y00068076D02*
X00014420Y00068436D01*
Y00069130*
X00016893Y00067770D02*
X00017050Y00067926D01*
Y00070217*
X00017050D02*
X00017360Y00070527D01*
X00017360D02*
Y00071520D01*
X00016893Y00067770D02*
X00016766D01*
X00016590Y00067946*
Y00068210*
X00017303Y00069114D02*
Y00069502D01*
X00018230Y00070429*
X00018051Y00069114D02*
Y00069192D01*
X00018051D02*
X00018228Y00069370D01*
X00018283*
X00018283D02*
X00018860Y00069946D01*
Y00070716*
X00019323Y00071180*
X00019323D02*
X00019807D01*
X00019807D02*
X00020277Y00071649D01*
X00020100Y00067350D02*
Y00068120D01*
X00020216Y00068237*
X00020216D02*
Y00069114D01*
X00019468D02*
Y00069613D01*
X00019468D02*
X00019489Y00069634D01*
X00019489D02*
Y00070429D01*
X00020216Y00069114D02*
Y00070611D01*
X00020216D02*
X00020829Y00071224D01*
X00020829D02*
X00020930D01*
X00020930D02*
Y00072930D01*
X00020930D02*
X00021032Y00073033D01*
X00021032D02*
Y00073217D01*
X00022460Y00068210D02*
Y00069819D01*
X00022300Y00069979*
Y00070954*
X00025040Y00068940D02*
Y00069220D01*
X00024763Y00069496*
X00024763D02*
Y00069842D01*
X00023990Y00068320D02*
X00024184Y00068515D01*
X00024184D02*
Y00069411D01*
X00023770Y00067780D02*
Y00068617D01*
X00023770D02*
X00024084Y00068932D01*
X00024084D02*
Y00069407D01*
X00024250Y00067840D02*
Y00068126D01*
X00024250D02*
X00024370Y00068247D01*
Y00069842*
X00025660Y00068160D02*
X00025830Y00068330D01*
X00025240Y00068530D02*
Y00068909D01*
X00025157Y00068992*
Y00069842*
X00025350Y00069070D02*
X00025330D01*
X00027860Y00067600D02*
Y00069455D01*
X00027913Y00069508*
X00027913D02*
Y00069842D01*
X00028160Y00067300D02*
X00027860Y00067600D01*
X00028210Y00069050D02*
X00028230D01*
Y00069364*
X00028230D02*
X00028307Y00069441D01*
X00028307D02*
Y00069842D01*
X00028550Y00069130D02*
X00028700Y00069280D01*
X00028700D02*
Y00069842D01*
X00029150Y00069210D02*
Y00069425D01*
X00029094Y00069481*
Y00069842*
X00029433Y00069163D02*
X00029291Y00069305D01*
Y00069842*
X00029430Y00069160D02*
X00029433Y00069163D01*
X00032680Y00067523D02*
X00033110Y00067952D01*
X00033110D02*
Y00068110D01*
X00033240Y00068240*
X00033572*
X00032038Y00068229D02*
X00032289D01*
X00032370Y00068310*
X00032590*
X00032834Y00067952D02*
Y00068250D01*
X00032834D02*
X00032775Y00068310D01*
X00032590*
X00034153Y00067657D02*
X00033838D01*
X00033838D02*
Y00067973D01*
X00033838D02*
X00033572Y00068240D01*
X00033405Y00067874D02*
X00033425D01*
X00033230Y00067352D02*
Y00067698D01*
X00033230D02*
X00033405Y00067874D01*
X00033405D02*
X00033425D01*
X00033444Y00067480D02*
X00033425D01*
X00033661*
X00033838Y00067657*
X00035059Y00067283D02*
X00035574D01*
X00035574D02*
X00035771Y00067480D01*
X00036378*
X00036080Y00069210D02*
Y00069492D01*
X00036050Y00069522*
Y00069870*
X00035980Y00068382D02*
Y00069110D01*
X00036080Y00069210*
X00035450Y00067450D02*
Y00068244D01*
X00035807Y00068601*
X00035807D02*
Y00069507D01*
X00038600Y00068880D02*
Y00071832D01*
X00038600D02*
X00038789Y00072022D01*
X00038789D02*
Y00072610D01*
X00039030Y00068740D02*
Y00069055D01*
X00038996*
X00037350Y00068910D02*
Y00072748D01*
X00037789Y00073187*
X00037789D02*
Y00073610D01*
X00037540Y00067920D02*
Y00069465D01*
X00037550Y00069475*
Y00071020*
X00038600Y00068590D02*
X00038434D01*
X00038434D02*
X00038362Y00068662D01*
X00038362D02*
X00038090D01*
X00038090D02*
Y00068681D01*
X00038169Y00067933D02*
Y00068011D01*
X00038169D02*
X00037789Y00068391D01*
X00037789D02*
Y00072610D01*
X00038917Y00067933D02*
Y00068562D01*
X00038917D02*
X00038600Y00068880D01*
X00038996Y00069055D02*
X00039724D01*
X00039610Y00067389D02*
X00039724Y00067503D01*
X00039724D02*
Y00067677D01*
X00039610Y00067389D02*
X00039600Y00067400D01*
X00040452Y00068878D02*
X00040529D01*
X00040529D02*
X00040930Y00069279D01*
X00039724Y00067677D02*
X00039744D01*
X00040502Y00068435*
Y00068474*
X00041279Y00069252*
X00041279D02*
X00041358D01*
X00039724Y00069055D02*
Y00069645D01*
X00041570Y00067321D02*
Y00068312D01*
X00042164Y00068906*
X00042164D02*
Y00072618D01*
X00041760Y00067510D02*
X00042380Y00068130D01*
Y00071699*
X00042380D02*
X00042789Y00072109D01*
X00042789D02*
Y00072610D01*
X00043072Y00068960D02*
Y00068972D01*
X00043072D02*
X00042879D01*
X00042879D02*
X00042855Y00068996D01*
X00042855D02*
X00042690D01*
X00042690D02*
Y00069010D01*
X00043041Y00067881D02*
Y00067900D01*
X00043041D02*
X00042590D01*
Y00067920*
X00043041Y00068275D02*
X00043632D01*
X00043660Y00067540D02*
Y00067881D01*
X00043660D02*
X00043632D01*
X00044800Y00067530D02*
Y00067881D01*
X00044800D02*
X00044813D01*
X00044222D02*
X00044029D01*
X00044029D02*
X00043915Y00067995D01*
X00043915D02*
Y00068008D01*
X00043648Y00068275*
X00043632*
X00044222Y00067881D02*
X00044242D01*
X00044242D02*
X00044507Y00068146D01*
Y00068162*
X00044620Y00068275*
X00044813*
X00044222D02*
Y00068467D01*
X00044222D02*
X00044030Y00068660D01*
X00043663Y00068960D02*
X00043643D01*
X00043643D02*
X00043492Y00069111D01*
X00043492D02*
Y00069127D01*
X00043492D02*
X00043265Y00069353D01*
X00043265D02*
X00043072D01*
X00043663Y00068960D02*
X00044253D01*
X00044253D02*
X00044844D01*
X00011190Y00070900D02*
Y00070891D01*
X00010787*
Y00071003*
X00010984Y00069448D02*
X00010972D01*
X00010972D02*
Y00069710D01*
X00010972D02*
X00010960D01*
X00011210Y00071210D02*
Y00071453D01*
X00011210D02*
X00010820Y00071843D01*
X00010702*
X00011771Y00071003D02*
X00011780D01*
X00011780D02*
Y00071330D01*
X00012755Y00071003D02*
X00012525D01*
X00012525D02*
Y00071290D01*
X00012520*
X00015190Y00070709D02*
X00015130Y00070769D01*
X00015130D02*
Y00071050D01*
X00015090Y00070539D02*
X00014870Y00070759D01*
X00014870D02*
Y00071755D01*
X00014440Y00072185*
Y00072410*
X00013220Y00070990D02*
X00013587D01*
X00013601Y00071003*
X00013601D02*
X00014133D01*
X00018230Y00070429D02*
Y00071690D01*
X00018230D02*
X00018250Y00071710D01*
X00018250D02*
Y00072570D01*
X00021050Y00070693D02*
X00021936Y00071580D01*
X00022281*
X00022281D02*
X00022550Y00071848D01*
Y00072065*
X00022550D02*
X00022922Y00072438D01*
X00022922D02*
X00023118D01*
X00023118D02*
X00023360Y00072680D01*
X00022300Y00070954D02*
X00022690Y00071344D01*
X00022690D02*
Y00072004D01*
X00022915Y00072230*
X00022915D02*
X00023481D01*
X00023481D02*
X00023780Y00072528D01*
Y00073406*
X00024114Y00073740*
X00024173*
X00022690Y00069310D02*
X00022598Y00069401D01*
X00022598D02*
Y00069842D01*
X00021820Y00071230D02*
X00021936Y00071346D01*
X00021936D02*
X00022230D01*
X00023189Y00069842D02*
Y00070510D01*
X00023111Y00070587*
X00023111D02*
Y00070991D01*
X00023111D02*
X00023017Y00071085D01*
X00023017D02*
Y00071339D01*
X00022992Y00069842D02*
Y00070360D01*
X00023000*
X00023372Y00069842D02*
X00023385D01*
X00023580Y00070280D02*
X00024290Y00070990D01*
Y00071718*
X00024580Y00069473D02*
X00024566Y00069486D01*
X00024566D02*
Y00069842D01*
X00023765Y00070033D02*
X00024302Y00070570D01*
X00024302*
X00024302D02*
X00024782Y00071049D01*
X00024782D02*
Y00071426D01*
X00024184Y00069411D02*
Y00069842D01*
X00024184D02*
X00024173D01*
X00024084Y00069407D02*
X00023976Y00069515D01*
X00023976D02*
Y00069842D01*
X00024960D02*
Y00070204D01*
X00024960D02*
X00024910Y00070254D01*
X00024910D02*
Y00070470D01*
X00023779Y00069842D02*
X00023765D01*
X00023765D02*
Y00070033D01*
X00023582Y00069842D02*
X00023580Y00069845D01*
Y00070280*
X00023385Y00069842D02*
Y00070484D01*
X00023385D02*
X00023630Y00070729D01*
Y00070987*
X00023971Y00071328*
X00024030*
X00025500Y00069260D02*
X00025354Y00069405D01*
X00025354D02*
Y00069842D01*
X00027100Y00071010D02*
Y00071180D01*
X00027088Y00071191*
X00027088D02*
X00026822D01*
X00026732Y00069842D02*
Y00070352D01*
X00026850Y00070470*
X00026280Y00071243D02*
X00026261D01*
X00026070Y00071434*
Y00071550*
X00025940Y00071680*
X00028910Y00069290D02*
X00028897D01*
X00028897D02*
Y00069842D01*
X00028030Y00069290D02*
X00028034D01*
Y00069455*
X00028110Y00069531*
Y00069842*
X00028270Y00070880D02*
X00028747D01*
Y00070895*
X00028503Y00069842D02*
Y00070317D01*
X00028503D02*
X00028270Y00070551D01*
Y00070880*
X00027716Y00069842D02*
Y00070922D01*
X00027716D02*
X00028014Y00071220D01*
X00028014D02*
X00028034D01*
X00027519Y00069842D02*
Y00070529D01*
X00027519D02*
X00027402Y00070646D01*
X00027402D02*
Y00071195D01*
X00029488Y00069842D02*
Y00070250D01*
X00029500*
X00031740Y00071190D02*
X00031520Y00071410D01*
X00034860Y00070820D02*
X00034468D01*
X00034468D02*
Y00070826D01*
X00033563Y00070452D02*
Y00070480D01*
X00034070*
X00036555Y00069586D02*
X00037240Y00070271D01*
Y00071119*
X00036555Y00069586D02*
X00036500Y00069641D01*
X00036500D02*
Y00070173D01*
X00036500D02*
X00036253Y00070420D01*
X00036020Y00070313D02*
X00036126Y00070420D01*
X00036253*
X00035803Y00070165D02*
Y00071785D01*
X00035803D02*
X00035789Y00071799D01*
X00035789D02*
Y00072610D01*
X00035750Y00069840D02*
Y00070111D01*
X00035750D02*
X00035803Y00070165D01*
X00036050Y00069870D02*
Y00070095D01*
X00036050D02*
X00036020Y00070125D01*
X00036020D02*
Y00070313D01*
X00037070Y00070390D02*
X00036878Y00070581D01*
X00036878D02*
X00036761D01*
X00036515Y00070826*
X00036515D02*
X00036437D01*
X00035220Y00069960D02*
Y00070220D01*
X00035452Y00070452*
X00035452D02*
X00035531D01*
X00035807Y00069507D02*
Y00069782D01*
X00035807D02*
X00035750Y00069840D01*
X00036555Y00069507D02*
Y00069586D01*
X00037240Y00071119D02*
X00036789Y00071569D01*
X00036789D02*
Y00072610D01*
X00038996Y00070452D02*
Y00070797D01*
X00038996D02*
X00038830Y00070963D01*
X00038830D02*
X00038723D01*
X00038723D02*
X00038710Y00070976D01*
X00038710D02*
Y00071588D01*
X00040930Y00069279D02*
Y00069280D01*
X00040533Y00071123D02*
X00040610D01*
X00040610D02*
Y00071530D01*
X00039724Y00071023D02*
X00039488D01*
X00039488D02*
X00039311Y00071200D01*
X00039311D02*
X00038996D01*
X00039724Y00071023D02*
Y00071544D01*
X00039724D02*
X00040789Y00072610D01*
X00039724Y00070039D02*
X00039704D01*
X00039704D02*
X00039291Y00070452D01*
X00039291D02*
X00038996D01*
X00041791Y00070451D02*
X00041493Y00070749D01*
X00041493D02*
X00041438D01*
X00041780Y00070440D02*
X00041791Y00070451D01*
X00041358Y00069252D02*
Y00069486D01*
X00040214Y00070629*
X00040214D02*
X00039724D01*
X00043570Y00070880D02*
X00043577D01*
Y00071200*
X00043577D02*
X00043405D01*
Y00070452D02*
X00043484D01*
X00043484D02*
X00043789Y00070758D01*
X00043789D02*
Y00072610D01*
X00043405Y00071200D02*
Y00072572D01*
X00043405D02*
X00042789Y00073187D01*
X00042789D02*
Y00073610D01*
X00044844Y00069353D02*
X00044820D01*
X00044820D02*
Y00069690D01*
X00043663Y00069353D02*
Y00069764D01*
X00043663D02*
X00043405Y00070022D01*
X00043405D02*
Y00070452D01*
X00044253Y00069353D02*
X00044250D01*
X00044250D02*
Y00069690D01*
X00010340Y00072970D02*
X00010760Y00073390D01*
X00010570Y00072160D02*
Y00072591D01*
X00010570D02*
X00010702D01*
X00010702D02*
Y00072842D01*
X00011000Y00073140*
X00012650Y00072280D02*
X00012815D01*
X00012815D02*
X00012945Y00072410D01*
X00012945D02*
X00013075D01*
X00013010Y00072240D02*
X00013026Y00072256D01*
X00011771Y00072578D02*
Y00073049D01*
X00011771D02*
X00011920Y00073197D01*
Y00073620*
X00011771Y00071830D02*
X00011790D01*
X00011790D02*
Y00072220D01*
X00012837Y00072693D02*
X00012719D01*
X00012528Y00072884*
X00012528D02*
Y00072971D01*
X00012528D02*
X00012290Y00073210D01*
X00012837Y00071945D02*
X00012444D01*
X00012444D02*
X00012180Y00072210D01*
X00014439Y00072649D02*
Y00073338D01*
X00014370Y00073407*
Y00074100*
X00013520Y00072200D02*
X00013740Y00072420D01*
X00014210*
X00014439Y00072649*
X00013960Y00071290D02*
X00014300Y00071630D01*
Y00072080*
X00013690Y00071270D02*
Y00071593D01*
X00013690D02*
X00013026Y00072256D01*
X00013896Y00071927D02*
X00013557D01*
X00013557D02*
X00013075Y00072410D01*
X00013896Y00072675D02*
X00013364D01*
X00013364D02*
X00012600Y00073440D01*
X00021032Y00073217D02*
X00020631Y00073618D01*
X00021660Y00071560D02*
X00021790Y00071690D01*
X00021820*
X00021869Y00071739*
X00021869D02*
X00021981D01*
X00021981D02*
X00022171Y00071930D01*
X00022171D02*
X00022230D01*
Y00071339D02*
Y00071346D01*
X00023360Y00072680D02*
Y00073431D01*
X00023051Y00073740*
X00022992*
X00024290Y00071718D02*
X00024089Y00071918D01*
X00024089D02*
X00024030D01*
X00024930Y00072320D02*
X00024662Y00072587D01*
X00024662D02*
Y00072601D01*
X00024232Y00073031*
X00024173*
X00023340Y00071900D02*
X00023017D01*
X00023017D02*
Y00071930D01*
X00024782Y00072017D02*
Y00072049D01*
X00024782D02*
X00025034D01*
X00025034D02*
X00025074Y00072090D01*
X00025074D02*
X00025240D01*
X00025800Y00072170D02*
Y00072182D01*
X00025800D02*
X00026215D01*
X00026215D02*
Y00072194D01*
X00025693Y00071263D02*
Y00071278D01*
X00025693D02*
X00025500D01*
X00025465Y00071313*
X00025465D02*
X00025300D01*
X00025300D02*
Y00071330D01*
X00026215Y00072588D02*
X00027116D01*
X00027116D02*
X00027696Y00073169D01*
X00027696D02*
X00027775D01*
X00026280Y00071637D02*
X00026300D01*
X00027084Y00072421*
X00027084D02*
X00027775D01*
Y00073169D02*
X00028348D01*
X00028400Y00073221*
X00028972*
X00027775Y00072421D02*
X00028100D01*
X00028400Y00072721*
X00028972*
X00028034Y00071614D02*
X00028010D01*
Y00071890*
X00028747Y00071289D02*
X00028740D01*
X00028740D02*
Y00071630D01*
X00038710Y00071588D02*
X00039290Y00072168D01*
X00039290D02*
Y00073065D01*
X00039290D02*
X00039789Y00073565D01*
X00039789D02*
Y00073610D01*
X00042164Y00072618D02*
Y00073235D01*
X00042164D02*
X00041789Y00073610D01*
X00041438Y00071497D02*
Y00072259D01*
X00041438D02*
X00041789Y00072610D01*
X00012480Y00073740D02*
X00012898D01*
X00012898D02*
X00013218Y00074060D01*
X00013218D02*
X00014033D01*
X00014243Y00074270*
X00014447*
X00011610Y00073510D02*
Y00073828D01*
X00011610D02*
X00011503D01*
X00013470Y00073790D02*
X00013937D01*
Y00073799*
X00015061Y00073774D02*
X00014943D01*
X00014943D02*
X00014447Y00074270D01*
X00021614Y00073385D02*
Y00073405D01*
X00021614D02*
X00021401Y00073618D01*
X00020631*
X00024173Y00073740D02*
X00024739D01*
X00024778Y00073779*
X00024778D02*
X00025157D01*
G54D15*
X00011380Y00066870D02*
X00010790Y00067460D01*
Y00069021*
X00010790D02*
X00010590Y00069221D01*
X00010590D02*
Y00069448D01*
G54D16*
X00017069Y00050319D03*
X00038329D03*
X00018230Y00070429D03*
X00019489D03*
X00020277Y00071649D03*
X00016970Y00073618D03*
X00020631D03*
G54D17*
X00033282Y00055354D03*
X00032889D03*
X00026447Y00054012D03*
X00026053D03*
X00021614Y00073385D03*
X00022007D03*
X00037874Y00052815D03*
X00038267D03*
X00021811Y00035590D03*
X00022204D03*
X00027913Y00054291D03*
X00028307D03*
X00023894Y00053982D03*
X00024287D03*
X00023343Y00054072D03*
X00022949D03*
X00033031Y00063740D03*
X00033425D03*
X00023300Y00053539D03*
X00022906D03*
X00026857Y00052443D03*
X00027250D03*
X00033425Y00066889D03*
X00033031D03*
X00035196Y00052519D03*
X00035590D03*
X00033031Y00063149D03*
X00033425D03*
X00033031Y00064330D03*
X00033425D03*
X00022007Y00073976D03*
X00021614D03*
X00023779Y00031063D03*
X00024173D03*
X00020433D03*
X00020826D03*
X00020236Y00038937D03*
X00020629D03*
X00018858D03*
X00019252D03*
X00022204Y00033228D03*
X00021811D03*
X00024960Y00038937D03*
X00025354D03*
X00022204Y00034015D03*
X00021811D03*
Y00038346D03*
X00022204D03*
X00020433Y00042874D03*
X00020039D03*
X00021811Y00034803D03*
X00022204D03*
X00017480Y00038937D03*
X00017874D03*
X00025157Y00073779D03*
X00025551D03*
X00033031Y00065905D03*
X00033425D03*
X00032440Y00063740D03*
X00032047D03*
X00032440Y00063149D03*
X00032047D03*
X00029539Y00063733D03*
X00029933D03*
X00033031Y00065118D03*
X00033425D03*
X00010984Y00068858D03*
X00010590D03*
X00010984Y00069448D03*
X00010590D03*
G54D18*
X00023779Y00056653D03*
Y00057047D03*
X00044253Y00068960D03*
Y00069353D03*
X00039724Y00069055D03*
Y00068661D03*
Y00067677D03*
Y00068070D03*
X00026774Y00063187D03*
Y00062794D03*
X00026822Y00071585D03*
Y00071191D03*
X00043041Y00068275D03*
Y00067881D03*
X00024763Y00042677D03*
Y00043070D03*
X00030800Y00053059D03*
Y00053453D03*
X00030817Y00054431D03*
Y00054038D03*
X00043072Y00069353D03*
Y00068960D03*
X00043632Y00068275D03*
Y00067881D03*
X00021846Y00030399D03*
Y00030005D03*
X00028403Y00055053D03*
Y00055446D03*
X00030752Y00051499D03*
Y00051105D03*
X00027348Y00063768D03*
Y00064162D03*
X00027402Y00071589D03*
Y00071195D03*
X00012755Y00047992D03*
Y00048385D03*
X00033425Y00067480D03*
Y00067874D03*
X00028747Y00070895D03*
Y00071289D03*
X00039724Y00069645D03*
Y00070039D03*
Y00070629D03*
Y00071023D03*
X00026280Y00071243D03*
Y00071637D03*
X00026215Y00072194D03*
Y00072588D03*
X00043663Y00069353D03*
Y00068960D03*
X00044222Y00068275D03*
Y00067881D03*
X00044813Y00068275D03*
Y00067881D03*
X00044844Y00068960D03*
Y00069353D03*
X00022598Y00043661D03*
Y00043267D03*
X00021811D03*
Y00043661D03*
X00025693Y00070869D03*
Y00071263D03*
X00024173Y00042677D03*
Y00043070D03*
X00028034Y00071220D03*
Y00071614D03*
X00024886Y00052320D03*
Y00052714D03*
X00025173Y00055253D03*
Y00055646D03*
G54D19*
X00035531Y00071200D03*
Y00070452D03*
X00036437Y00070826D03*
X00033563Y00071200D03*
Y00070452D03*
X00034468Y00070826D03*
X00040452Y00069626D03*
Y00068878D03*
X00041358Y00069252D03*
X00038090Y00069429D03*
Y00068681D03*
X00038996Y00069055D03*
X00034153Y00064114D03*
Y00063366D03*
X00035059Y00063740D03*
X00021752Y00032224D03*
Y00031476D03*
X00022657Y00031850D03*
X00021752Y00039901D03*
Y00039153D03*
X00022657Y00039527D03*
X00021752Y00037342D03*
Y00036594D03*
X00022657Y00036968D03*
X00021752Y00042066D03*
Y00041318D03*
X00022657Y00041692D03*
X00034153Y00065885D03*
Y00065137D03*
X00035059Y00065511D03*
X00034153Y00067657D03*
Y00066909D03*
X00035059Y00067283D03*
X00034153Y00062342D03*
Y00061594D03*
X00035059Y00061968D03*
X00032381Y00062342D03*
Y00061594D03*
X00033287Y00061968D03*
X00021752Y00045413D03*
Y00044665D03*
X00022657Y00045039D03*
X00043405Y00071200D03*
Y00070452D03*
X00044311Y00070826D03*
X00041438Y00070749D03*
Y00071497D03*
X00040533Y00071123D03*
X00038996Y00070452D03*
Y00071200D03*
X00038090Y00070826D03*
X00027775Y00072421D03*
Y00073169D03*
X00026870Y00072795D03*
G54D20*
X00039114Y00045295D03*
X00038366D03*
X00038740Y00044389D03*
X00039114Y00013799D03*
X00038366D03*
X00038740Y00012893D03*
X00017066Y00041358D03*
X00016318D03*
X00016692Y00040452D03*
X00028090Y00041358D03*
X00027342D03*
X00027716Y00040452D03*
X00039114Y00041358D03*
X00038366D03*
X00038740Y00040452D03*
X00028074Y00013829D03*
X00027326D03*
X00027700Y00012923D03*
X00017066Y00037421D03*
X00016318D03*
X00016692Y00036515D03*
X00028090Y00037421D03*
X00027342D03*
X00027716Y00036515D03*
X00039114Y00037421D03*
X00038366D03*
X00038740Y00036515D03*
X00039114Y00017736D03*
X00038366D03*
X00038740Y00016830D03*
X00017066Y00033484D03*
X00016318D03*
X00016692Y00032578D03*
X00028090Y00033484D03*
X00027342D03*
X00027716Y00032578D03*
X00039114Y00033484D03*
X00038366D03*
X00038740Y00032578D03*
X00028090Y00017736D03*
X00027342D03*
X00027716Y00016830D03*
X00017066Y00029547D03*
X00016318D03*
X00016692Y00028641D03*
X00028090Y00029547D03*
X00027342D03*
X00027716Y00028641D03*
X00039114Y00029547D03*
X00038366D03*
X00038740Y00028641D03*
X00017066Y00025610D03*
X00016318D03*
X00016692Y00024704D03*
X00028090Y00025610D03*
X00027342D03*
X00027716Y00024704D03*
X00039114Y00025610D03*
X00038366D03*
X00038740Y00024704D03*
X00017066Y00017736D03*
X00016318D03*
X00016692Y00016830D03*
X00017066Y00021673D03*
X00016318D03*
X00016692Y00020767D03*
X00028090Y00021673D03*
X00027342D03*
X00027716Y00020767D03*
X00039114Y00021673D03*
X00038366D03*
X00038740Y00020767D03*
X00017066Y00013799D03*
X00016318D03*
X00016692Y00012893D03*
X00017066Y00045295D03*
X00016318D03*
X00016692Y00044389D03*
X00028090Y00045295D03*
X00027342D03*
X00027716Y00044389D03*
X00018051Y00069114D03*
X00017303D03*
X00017677Y00068208D03*
X00020216Y00069114D03*
X00019468D03*
X00019842Y00068208D03*
X00036555Y00069507D03*
X00035807D03*
X00036181Y00068602D03*
X00038917Y00067933D03*
X00038169D03*
X00038543Y00067027D03*
G54D21*
X00024055Y00038937D03*
X00023503D03*
X00032834Y00067401D03*
Y00067952D03*
G54D22*
X00043789Y00073610D03*
G54D23*
Y00072610D03*
X00042789Y00073610D03*
Y00072610D03*
X00041789Y00073610D03*
Y00072610D03*
X00040789Y00073610D03*
Y00072610D03*
X00039789Y00073610D03*
Y00072610D03*
X00038789Y00073610D03*
Y00072610D03*
X00037789Y00073610D03*
Y00072610D03*
X00036789Y00073610D03*
Y00072610D03*
X00035789Y00073610D03*
Y00072610D03*
X00034789Y00073610D03*
Y00072610D03*
X00033789Y00073610D03*
Y00072610D03*
X00032789Y00073610D03*
Y00072610D03*
X00031789Y00073610D03*
Y00072610D03*
X00030789Y00073610D03*
Y00072610D03*
G54D24*
X00024173Y00073740D03*
Y00073031D03*
X00022992Y00073740D03*
Y00073031D03*
G54D26*
X00036378Y00067480D03*
Y00066299D03*
Y00065118D03*
Y00063937D03*
G54D27*
X00015219Y00041795D03*
Y00040024D03*
X00012660D03*
Y00041795D03*
X00037259Y00014235D03*
Y00012464D03*
X00034700D03*
Y00014235D03*
X00020729Y00041795D03*
Y00040024D03*
X00018170D03*
Y00041795D03*
X00026239D03*
Y00040024D03*
X00023680D03*
Y00041795D03*
X00031749D03*
Y00040024D03*
X00029190D03*
Y00041795D03*
X00037259D03*
Y00040024D03*
X00034700D03*
Y00041795D03*
X00042779D03*
Y00040024D03*
X00040220D03*
Y00041795D03*
X00026239Y00014235D03*
Y00012464D03*
X00023680D03*
Y00014235D03*
X00031749D03*
Y00012464D03*
X00029190D03*
Y00014235D03*
X00015219Y00037855D03*
Y00036084D03*
X00012660D03*
Y00037855D03*
X00020729Y00045725D03*
Y00043954D03*
X00018170D03*
Y00045725D03*
X00042779Y00037855D03*
Y00036084D03*
X00040220D03*
Y00037855D03*
X00037259Y00018165D03*
Y00016394D03*
X00034700D03*
Y00018165D03*
X00020729Y00037855D03*
Y00036084D03*
X00018170D03*
Y00037855D03*
X00026239D03*
Y00036084D03*
X00023680D03*
Y00037855D03*
X00031749D03*
Y00036084D03*
X00029190D03*
Y00037855D03*
X00037259D03*
Y00036084D03*
X00034700D03*
Y00037855D03*
X00042779Y00018165D03*
Y00016394D03*
X00040220D03*
Y00018165D03*
X00015219Y00014235D03*
Y00012464D03*
X00012660D03*
Y00014235D03*
X00015219Y00033915D03*
Y00032144D03*
X00012660D03*
Y00033915D03*
X00020729D03*
Y00032144D03*
X00018170D03*
Y00033915D03*
X00026239Y00045725D03*
Y00043954D03*
X00023680D03*
Y00045725D03*
X00026239Y00033915D03*
Y00032144D03*
X00023680D03*
Y00033915D03*
X00031749D03*
Y00032144D03*
X00029190D03*
Y00033915D03*
X00037259D03*
Y00032144D03*
X00034700D03*
Y00033915D03*
X00042779D03*
Y00032144D03*
X00040220D03*
Y00033915D03*
X00026239Y00018165D03*
Y00016394D03*
X00023680D03*
Y00018165D03*
X00031749D03*
Y00016394D03*
X00029190D03*
Y00018165D03*
X00015219Y00029975D03*
Y00028204D03*
X00012660D03*
Y00029975D03*
X00020729D03*
Y00028204D03*
X00018170D03*
Y00029975D03*
X00026239D03*
Y00028204D03*
X00023680D03*
Y00029975D03*
X00031749D03*
Y00028204D03*
X00029190D03*
Y00029975D03*
X00031749Y00045725D03*
Y00043954D03*
X00029190D03*
Y00045725D03*
X00037259Y00029975D03*
Y00028204D03*
X00034700D03*
Y00029975D03*
X00042779D03*
Y00028204D03*
X00040220D03*
Y00029975D03*
X00015219Y00026045D03*
Y00024274D03*
X00012660D03*
Y00026045D03*
X00020729D03*
Y00024274D03*
X00018170D03*
Y00026045D03*
X00026239D03*
Y00024274D03*
X00023680D03*
Y00026045D03*
X00031749D03*
Y00024274D03*
X00029190D03*
Y00026045D03*
X00037259D03*
Y00024274D03*
X00034700D03*
Y00026045D03*
X00042779D03*
Y00024274D03*
X00040220D03*
Y00026045D03*
X00037259Y00045725D03*
Y00043954D03*
X00034700D03*
Y00045725D03*
X00015219Y00018165D03*
Y00016394D03*
X00012660D03*
Y00018165D03*
X00020729D03*
Y00016394D03*
X00018170D03*
Y00018165D03*
X00015219Y00022105D03*
Y00020334D03*
X00012660D03*
Y00022105D03*
X00020729D03*
Y00020334D03*
X00018170D03*
Y00022105D03*
X00026239D03*
Y00020334D03*
X00023680D03*
Y00022105D03*
X00031749D03*
Y00020334D03*
X00029190D03*
Y00022105D03*
X00037259D03*
Y00020334D03*
X00034700D03*
Y00022105D03*
X00042779D03*
Y00020334D03*
X00040220D03*
Y00022105D03*
X00020729Y00014235D03*
Y00012464D03*
X00018170D03*
Y00014235D03*
X00042779D03*
Y00012464D03*
X00040220D03*
Y00014235D03*
X00042779Y00045725D03*
Y00043954D03*
X00040220D03*
Y00045725D03*
X00015219D03*
Y00043954D03*
X00012660D03*
Y00045725D03*
G54D28*
X00026231Y00062855D03*
X00032038Y00068229D03*
X00021965Y00052675D03*
X00025551Y00042677D03*
X00021220Y00043070D03*
X00024960Y00031063D03*
G54D29*
X00039606Y00061053D03*
Y00066053D03*
G54D31*
X00023945Y00059981D03*
X00030227D03*
X00021898Y00068642D03*
X00031329D03*
G54D32*
X00024645Y00061181D03*
X00024842D03*
X00025039D03*
X00025236D03*
X00025433D03*
X00025629D03*
X00025826D03*
X00026023D03*
X00026220D03*
X00026417D03*
X00026614D03*
X00026811D03*
X00027007D03*
X00027204D03*
X00027401D03*
X00027598D03*
X00027795D03*
X00027992D03*
X00028189D03*
X00028385D03*
X00028582D03*
X00028779D03*
X00028976D03*
X00029173D03*
X00022598Y00069842D03*
X00022795D03*
X00022992D03*
X00023189D03*
X00023385D03*
X00023582D03*
X00023779D03*
X00023976D03*
X00024173D03*
X00024370D03*
X00024566D03*
X00024763D03*
X00024960D03*
X00025157D03*
X00025354D03*
X00025551D03*
X00025748D03*
X00025944D03*
X00026141D03*
X00026338D03*
X00026535D03*
X00026732D03*
X00026929D03*
X00027126D03*
X00027322D03*
X00027519D03*
X00027716D03*
X00027913D03*
X00028110D03*
X00028307D03*
X00028503D03*
X00028700D03*
X00028897D03*
X00029094D03*
X00029291D03*
X00029488D03*
X00029685D03*
X00029881D03*
X00030078D03*
X00030275D03*
G54D33*
X00021770Y00030920D02*
Y00031476D01*
X00021752*
X00021811Y00033228D02*
Y00033620D01*
Y00034015*
X00021800Y00033620D02*
X00021811D01*
X00021670Y00035260D02*
X00021729D01*
Y00035590*
X00021729D02*
X00021811D01*
X00021811D02*
Y00036063D01*
X00021752Y00036122*
Y00036594*
X00019252Y00038937D02*
Y00039230D01*
X00019260*
X00024763Y00043070D02*
X00024704D01*
X00024704D02*
Y00043420D01*
X00024704D02*
X00024690D01*
X00021752Y00044665D02*
X00021760D01*
Y00045000*
X00012280Y00048350D02*
Y00048385D01*
X00012280D02*
X00012755D01*
X00030720Y00050740D02*
X00030748D01*
Y00051105*
X00030748D02*
X00030752D01*
X00025196Y00053034D02*
X00025180Y00053050D01*
X00024886Y00052714D02*
Y00052729D01*
X00024886D02*
X00024891D01*
X00025196Y00053034*
X00027250Y00052443D02*
Y00052444D01*
X00035840Y00052510D02*
Y00052518D01*
X00035590*
X00035590D02*
Y00052519D01*
X00038267Y00052815D02*
Y00052821D01*
X00038267D02*
X00038550D01*
Y00052860*
X00024550Y00053980D02*
X00024287D01*
X00024287D02*
Y00053982D01*
X00025810Y00053990D02*
Y00054009D01*
X00026053*
X00026053D02*
Y00054012D01*
X00028530Y00054090D02*
X00028519Y00054079D01*
X00028317Y00054281*
X00028317D02*
Y00054291D01*
X00028307*
X00030470Y00054010D02*
Y00054038D01*
X00030817*
X00030800Y00053453D02*
X00031130D01*
X00031130D02*
Y00053470D01*
X00032866Y00055311D02*
X00033054Y00055124D01*
X00033030Y00055100*
X00025173Y00055646D02*
X00025170D01*
X00025170D02*
Y00056050D01*
X00023779Y00057047D02*
Y00057130D01*
X00023779D02*
X00023400D01*
X00023400D02*
Y00057190D01*
X00028403Y00055446D02*
X00028394D01*
X00028394D02*
Y00055740D01*
X00028394D02*
X00028340D01*
X00032866Y00055311D02*
Y00055354D01*
X00032889*
X00027610Y00060760D02*
X00027598D01*
Y00061181*
X00033770Y00061480D02*
Y00061515D01*
X00033770D02*
X00034153D01*
X00034153D02*
Y00061594D01*
X00027348Y00064162D02*
X00027350D01*
X00027350D02*
Y00064490D01*
X00027360*
X00034700Y00064110D02*
X00034153D01*
X00034153D02*
Y00064114D01*
X00033425Y00065118D02*
Y00065345D01*
X00033410Y00065360*
X00033410D02*
X00033410D01*
X00033389Y00065380*
X00033389D02*
Y00065580D01*
X00033389D02*
X00033360D01*
X00033425Y00064330D02*
Y00064740D01*
X00033430*
X00034153Y00065137D02*
X00034120D01*
X00034120D02*
Y00065520D01*
X00033425Y00063740D02*
Y00064330D01*
X00038543Y00067027D02*
X00038545D01*
X00038545D02*
Y00067450D01*
X00038545D02*
X00038560D01*
X00017677Y00068208D02*
X00017670D01*
X00017670D02*
Y00068660D01*
X00019842Y00068208D02*
X00019836D01*
X00019836D02*
Y00068560D01*
X00019836D02*
X00019800D01*
X00036181Y00068602D02*
X00036190D01*
Y00069080*
X00039309Y00068550D02*
X00039419Y00068661D01*
X00039419D02*
X00039724D01*
X00039725Y00068091D02*
X00039428Y00068388D01*
X00039450Y00068410*
X00039309Y00068550*
X00039724Y00068070D02*
Y00068091D01*
X00039725*
X00010787Y00070255D02*
X00010750D01*
X00010750D02*
Y00070590D01*
X00011771Y00070255D02*
X00011780D01*
X00011780D02*
Y00070550D01*
X00012755Y00070255D02*
X00012770D01*
X00012770D02*
Y00070540D01*
X00014133Y00070255D02*
X00014150D01*
X00014150D02*
Y00070560D01*
X00027330Y00069390D02*
X00027322D01*
X00027322D02*
Y00069842D01*
X00034060Y00071180D02*
Y00071198D01*
X00033563*
Y00071200*
X00035531D02*
X00035520D01*
X00035520D02*
Y00071630D01*
X00038060Y00070280D02*
Y00070826D01*
X00038060D02*
X00038090D01*
X00038420Y00069600D02*
Y00069656D01*
X00038090Y00069429D02*
Y00069656D01*
X00038090D02*
X00038420D01*
X00040452Y00069626D02*
Y00069685D01*
X00040452D02*
X00040840D01*
Y00069700*
X00044311Y00070826D02*
Y00070831D01*
X00044780*
Y00070860*
X00021777Y00073092D02*
X00022029Y00073344D01*
X00022029D02*
Y00073385D01*
X00021800Y00073070D02*
X00021777Y00073092D01*
X00027315Y00073154D02*
X00026952Y00072791D01*
X00026952D02*
X00026870D01*
Y00072795*
X00027320Y00073150D02*
X00027315Y00073154D01*
X00013950Y00074260D02*
Y00074547D01*
X00013937*
X00022029Y00073385D02*
X00022007D01*
X00021614Y00073976D02*
Y00074440D01*
X00021590*
X00026600Y00073450D02*
X00026270Y00073779D01*
X00026270D02*
X00025551D01*
G54D36*
X00027250Y00049350D02*
X00029000Y00051100D01*
Y00055961*
X00031150Y00051480D02*
Y00051499D01*
X00030752*
X00028410Y00054780D02*
X00028403D01*
Y00055053*
X00033300Y00055080D02*
X00033290D01*
Y00055354*
X00033282*
X00029000Y00055961D02*
X00027980Y00056981D01*
X00027980D02*
Y00059290D01*
X00044850Y00055760D02*
Y00058500D01*
X00044790Y00058560*
Y00061300*
X00027980Y00059290D02*
X00028230Y00059540D01*
X00028520*
X00031520Y00060050D02*
Y00063840D01*
X00031520D02*
X00032170Y00064490D01*
X00032170D02*
Y00067439D01*
X00032590Y00067859*
Y00068310*
X00031530Y00059630D02*
X00031525D01*
Y00060050*
X00031520*
X00036770Y00061040D02*
Y00061045D01*
X00036390*
Y00061050*
X00033005*
X00032460Y00061594*
X00032460D02*
X00032381D01*
X00036390Y00061050D02*
Y00062419D01*
X00036378Y00062431*
Y00063937*
X00036072*
X00036072D02*
X00035551Y00064458D01*
X00035551D02*
Y00066222D01*
X00034712Y00067061*
Y00070160*
X00034712D02*
X00035130Y00070578D01*
Y00071918*
X00035239Y00072027*
X00035239D02*
Y00072600D01*
X00032590Y00068310D02*
Y00069365D01*
X00032360Y00069595*
Y00070620*
Y00070630*
X00031920Y00070610D02*
X00031930Y00070620D01*
X00032360*
Y00070630D02*
Y00071135D01*
X00032369Y00071145*
X00032369D02*
Y00071410D01*
X00032369D02*
X00032200Y00071580D01*
X00031910Y00071530D02*
Y00071555D01*
X00032200*
Y00071580*
X00035239Y00072600D02*
Y00073160D01*
X00035239D02*
X00034789Y00073610D01*
X00011980Y00074560D02*
Y00074576D01*
X00011980D02*
X00011503D01*
X00015100Y00074180D02*
Y00074522D01*
X00015061*
G54D37*
X00023894Y00053962D02*
Y00053982D01*
X00023894D02*
Y00054002D01*
G54D39*
X00024242Y00060541D02*
X00023710D01*
X00023710D02*
Y00060267D01*
X00023710D02*
X00023705Y00060253D01*
X00023705D02*
X00023696Y00060240D01*
X00023696D02*
X00023684Y00060231D01*
X00023669Y00060226*
X00023395*
X00023395D02*
Y00059694D01*
X00023395D02*
X00024242D01*
X00024242D02*
Y00060541D01*
X00023415Y00059694D02*
Y00060226D01*
X00023464Y00059694D02*
Y00060226D01*
X00023513Y00059694D02*
Y00060226D01*
X00023563Y00059694D02*
Y00060226D01*
X00023612Y00059694D02*
Y00060226D01*
X00023661Y00059694D02*
Y00060226D01*
X00023710Y00059694D02*
Y00060541D01*
X00023759Y00059694D02*
Y00060541D01*
X00023809Y00059694D02*
Y00060541D01*
X00023858Y00059694D02*
Y00060541D01*
X00023907Y00059694D02*
Y00060541D01*
X00023956Y00059694D02*
Y00060541D01*
X00024005Y00059694D02*
Y00060541D01*
X00024055Y00059694D02*
Y00060541D01*
X00024104Y00059694D02*
Y00060541D01*
X00024153Y00059694D02*
Y00060541D01*
X00024202Y00059694D02*
Y00060541D01*
X00030423Y00060226D02*
X00030149D01*
X00030149D02*
X00030134Y00060231D01*
X00030134D02*
X00030122Y00060240D01*
X00030113Y00060253*
X00030108Y00060267*
X00030108D02*
Y00060541D01*
X00029576*
X00029576D02*
Y00059694D01*
X00029576D02*
X00030423D01*
X00030423D02*
Y00060226D01*
X00029616Y00059694D02*
Y00060541D01*
X00029665Y00059694D02*
Y00060541D01*
X00029714Y00059694D02*
Y00060541D01*
X00029763Y00059694D02*
Y00060541D01*
X00029813Y00059694D02*
Y00060541D01*
X00029862Y00059694D02*
Y00060541D01*
X00029911Y00059694D02*
Y00060541D01*
X00029960Y00059694D02*
Y00060541D01*
X00030009Y00059694D02*
Y00060541D01*
X00030059Y00059694D02*
Y00060541D01*
X00030108Y00059694D02*
Y00060267D01*
X00030157Y00059694D02*
Y00060226D01*
X00030206Y00059694D02*
Y00060226D01*
X00030255Y00059694D02*
Y00060226D01*
X00030305Y00059694D02*
Y00060226D01*
X00030354Y00059694D02*
Y00060226D01*
X00030403Y00059694D02*
Y00060226D01*
X00031525Y00068887D02*
X00031252D01*
X00031252D02*
X00031237Y00068892D01*
X00031237D02*
X00031224Y00068901D01*
X00031224D02*
X00031215Y00068914D01*
X00031210Y00068929*
X00031210D02*
Y00069202D01*
X00031210D02*
X00030679D01*
X00030679D02*
Y00068356D01*
X00031525*
X00031525D02*
Y00068887D01*
X00030718Y00068356D02*
Y00069202D01*
X00030767Y00068356D02*
Y00069202D01*
X00030816Y00068356D02*
Y00069202D01*
X00030866Y00068356D02*
Y00069202D01*
X00030915Y00068356D02*
Y00069202D01*
X00030964Y00068356D02*
Y00069202D01*
X00031013Y00068356D02*
Y00069202D01*
X00031063Y00068356D02*
Y00069202D01*
X00031112Y00068356D02*
Y00069202D01*
X00031161Y00068356D02*
Y00069202D01*
X00031210Y00068356D02*
Y00068929D01*
X00031259Y00068356D02*
Y00068887D01*
X00031309Y00068356D02*
Y00068887D01*
X00031358Y00068356D02*
Y00068887D01*
X00031407Y00068356D02*
Y00068887D01*
X00031456Y00068356D02*
Y00068887D01*
X00031505Y00068356D02*
Y00068887D01*
X00022194Y00069202D02*
X00021663D01*
X00021663D02*
Y00068929D01*
X00021658Y00068914*
X00021658D02*
X00021649Y00068901D01*
X00021649D02*
X00021636Y00068892D01*
X00021636D02*
X00021622Y00068887D01*
X00021622D02*
X00021348D01*
X00021348D02*
Y00068356D01*
X00022194*
X00022194D02*
Y00069202D01*
X00021368Y00068356D02*
Y00068887D01*
X00021417Y00068356D02*
Y00068887D01*
X00021466Y00068356D02*
Y00068887D01*
X00021515Y00068356D02*
Y00068887D01*
X00021565Y00068356D02*
Y00068887D01*
X00021614Y00068356D02*
Y00068887D01*
X00021663Y00068356D02*
Y00069202D01*
X00021712Y00068356D02*
Y00069202D01*
X00021761Y00068356D02*
Y00069202D01*
X00021811Y00068356D02*
Y00069202D01*
X00021860Y00068356D02*
Y00069202D01*
X00021909Y00068356D02*
Y00069202D01*
X00021958Y00068356D02*
Y00069202D01*
X00022007Y00068356D02*
Y00069202D01*
X00022057Y00068356D02*
Y00069202D01*
X00022106Y00068356D02*
Y00069202D01*
X00022155Y00068356D02*
Y00069202D01*
X00017069Y00050319D02*
Y00052312D01*
X00017069D02*
X00016500Y00052882D01*
Y00055530*
X00017170Y00056200*
Y00058894*
X00016170Y00059894*
Y00063170*
X00012029Y00064630D02*
X00012099Y00064700D01*
X00012320*
X00012029Y00064630D02*
X00011842D01*
X00011640Y00064832*
Y00065756*
X00011640D02*
X00010210Y00067186D01*
X00010210D02*
Y00073100D01*
X00010210D02*
X00010330Y00073220D01*
X00010330D02*
X00011100Y00074170D01*
X00022210Y00073020D02*
X00022497D01*
X00022497D02*
X00022509Y00073031D01*
X00022992*
Y00073740D02*
X00022524D01*
X00022524D02*
X00022288Y00073976D01*
X00022007*
G54D67*
X00026822Y00071585D02*
X00027402D01*
X00027402D02*
Y00071589D01*
G54D69*
X00024782Y00071426D03*
Y00072017D03*
X00022230Y00071930D03*
Y00071339D03*
X00023017D03*
Y00071930D03*
X00024030Y00071328D03*
Y00071918D03*
G54D70*
X00029931Y00062434D03*
X00029341D03*
X00028160Y00064569D03*
X00028750D03*
X00028060Y00063070D03*
X00028650D03*
X00028087Y00062388D03*
X00028678D03*
X00029450Y00063061D03*
X00030040D03*
X00028114Y00063924D03*
X00028705D03*
G54D95*
X00014133Y00071003D03*
Y00070255D03*
X00012755Y00071003D03*
Y00070255D03*
X00011503Y00073828D03*
Y00074576D03*
X00010787Y00071003D03*
Y00070255D03*
X00010702Y00071843D03*
Y00072591D03*
X00012837Y00071945D03*
Y00072693D03*
X00011771Y00071830D03*
Y00072578D03*
Y00071003D03*
Y00070255D03*
X00015061Y00073774D03*
Y00074522D03*
X00013937Y00073799D03*
Y00074547D03*
X00013896Y00072675D03*
Y00071927D03*
G54D96*
X00011180Y00047290D03*
Y00047790D03*
Y00048290D03*
X00028972Y00072721D03*
Y00073221D03*
G54D99*
X00014910Y00069650D02*
Y00070345D01*
X00014910D02*
X00014252Y00071003D01*
X00014252D02*
X00014133D01*
G54D100*
X00011890Y00013270D03*
X00014140Y00016220D03*
X00035730Y00017240D03*
X00035310Y00021160D03*
X00029990Y00025080D03*
X00030240Y00029230D03*
X00023420Y00031110D03*
X00022810Y00032450D03*
X00036030Y00033230D03*
X00021800Y00033620D03*
X00036560Y00036600D03*
X00021100Y00038970D03*
X00019260Y00039230D03*
X00022270Y00039050D03*
X00043650Y00039010D03*
X00020000Y00039300D03*
X00023320Y00039370D03*
X00037810Y00040990D03*
X00019800Y00042830D03*
X00022130Y00043070D03*
X00021530Y00042720D03*
X00024750Y00042430D03*
X00022260Y00043290D03*
X00021760Y00045000D03*
X00024690Y00043420D03*
X00029860Y00044710D03*
X00036560Y00044950D03*
X00020880Y00046570D03*
X00022540D03*
X00022520Y00045460D03*
X00023960Y00047190D03*
X00029790Y00046600D03*
X00030390Y00046420D03*
X00030080Y00046440D03*
X00030740Y00046360D03*
X00036940Y00046970D03*
X00036170Y00046710D03*
X00035990Y00046530D03*
X00035540Y00046640D03*
X00036700D03*
X00037990Y00047190D03*
X00012280Y00048350D03*
X00015850Y00049150D03*
X00016490Y00049180D03*
X00020380Y00048700D03*
X00022880Y00048370D03*
X00024930Y00048630D03*
X00024660Y00048420D03*
X00023390Y00048370D03*
X00026030Y00048510D03*
X00032350D03*
X00031780Y00048630D03*
X00031320Y00048610D03*
X00038670D03*
X00011280Y00049250D03*
X00011610Y00050520D03*
X00012370Y00049900D03*
X00014610Y00050560D03*
X00022480Y00050520D03*
X00022470Y00049860D03*
Y00050830D03*
X00024560Y00050100D03*
X00024530Y00050630D03*
X00023200Y00050100D03*
X00023590Y00050040D03*
X00024470Y00049820D03*
X00024450Y00050880D03*
X00024470Y00050380D03*
X00026870Y00049850D03*
X00026970Y00049420D03*
X00025600Y00049870D03*
X00025370Y00049690D03*
X00025210Y00050650D03*
X00025720Y00050450D03*
X00027270Y00050580D03*
X00027540Y00050040D03*
X00027340Y00050340D03*
X00027710Y00050210D03*
X00027250Y00049350D03*
X00030720Y00050740D03*
X00032430Y00049910D03*
X00032590Y00050660D03*
X00033070Y00051120D03*
X00031530Y00050150D03*
X00033350Y00050900D03*
X00033680Y00050540D03*
X00033360Y00050310D03*
X00034330Y00050970D03*
X00037560Y00050440D03*
X00039060Y00050170D03*
X00041000Y00049650D03*
X00042200Y00049450D03*
X00041840Y00050680D03*
X00042850D03*
X00043360Y00049290D03*
X00044280Y00050340D03*
X00013700Y00051340D03*
X00013680Y00051950D03*
X00013710Y00052490D03*
X00013670Y00053080D03*
X00017430Y00052670D03*
X00018330Y00052470D03*
X00021000Y00053000D03*
X00020420Y00051410D03*
X00022540Y00052710D03*
X00022630Y00053210D03*
X00021620Y00052710D03*
X00022910Y00051760D03*
X00023290Y00053040D03*
X00023920Y00053030D03*
X00023930Y00052730D03*
X00024240Y00052740D03*
X00024550Y00052730D03*
X00024840Y00051730D03*
Y00051420D03*
X00023590Y00052100D03*
X00023920Y00052430D03*
X00023770Y00051470D03*
X00024550Y00052430D03*
X00025180Y00053050D03*
X00024240D03*
X00023280Y00052090D03*
X00025680Y00051290D03*
X00025500Y00053040D03*
X00025220Y00051580D03*
X00026440Y00052730D03*
X00025810Y00053030D03*
X00027710Y00052560D03*
X00031150Y00051480D03*
X00031070Y00053050D03*
X00032640Y00051950D03*
X00032710Y00053040D03*
X00033100Y00052800D03*
X00033070Y00053170D03*
X00032750Y00051660D03*
X00032810Y00052480D03*
X00031340Y00052700D03*
X00033390Y00052990D03*
X00034870Y00052470D03*
X00033480Y00051280D03*
X00033450Y00052320D03*
X00033260Y00052560D03*
X00033200Y00052100D03*
X00034610Y00052810D03*
X00034640Y00053050D03*
X00035190Y00052910D03*
X00035840Y00052510D03*
X00037570Y00052820D03*
X00038550Y00052860D03*
X00041250Y00051550D03*
X00011060Y00054770D03*
X00014520Y00053370D03*
X00013630Y00053800D03*
X00013660Y00054400D03*
X00013340Y00054960D03*
X00015050Y00055080D03*
X00014560Y00055120D03*
X00013910Y00055140D03*
X00015690Y00054800D03*
X00016270Y00055120D03*
X00015610Y00055140D03*
X00020340Y00053390D03*
X00019430Y00054180D03*
X00021090Y00053860D03*
X00020930Y00053340D03*
X00020170Y00055140D03*
X00021180Y00054350D03*
X00021670Y00053950D03*
X00022810Y00054960D03*
X00022710Y00054070D03*
X00021890Y00055240D03*
X00022410Y00053430D03*
X00022630Y00053590D03*
X00022340Y00054600D03*
X00024240Y00053670D03*
X00023600Y00054290D03*
X00023920Y00053690D03*
Y00054630D03*
X00023590Y00053670D03*
X00024870Y00054610D03*
X00024560Y00054620D03*
X00023610Y00054940D03*
Y00054630D03*
X00024870Y00053370D03*
X00023920D03*
X00024550Y00053980D03*
X00023920Y00054290D03*
X00023930Y00054940D03*
X00026440Y00054620D03*
X00025790Y00053360D03*
X00026450Y00054300D03*
X00026120Y00054310D03*
X00026450Y00053360D03*
X00025810Y00053990D03*
X00027280Y00054970D03*
X00028040Y00054920D03*
X00028750Y00054720D03*
X00027660Y00054270D03*
X00028410Y00054780D03*
X00028530Y00054090D03*
X00029470Y00055010D03*
X00030970Y00054680D03*
X00031130Y00053960D03*
Y00053470D03*
X00030470Y00054010D03*
X00032570Y00053540D03*
X00032640Y00054050D03*
X00032920Y00053800D03*
X00031420Y00053710D03*
X00031350Y00054180D03*
X00033030Y00055100D03*
X00033310Y00053450D03*
X00033300Y00055080D03*
X00035160Y00054750D03*
X00034680Y00053850D03*
X00033690Y00054680D03*
X00036610Y00055150D03*
X00035480Y00053590D03*
X00035840Y00054420D03*
X00035590Y00054140D03*
X00036660Y00054120D03*
X00036980Y00054380D03*
X00036960Y00053410D03*
X00038550Y00053310D03*
X00037520Y00053840D03*
X00037630Y00053290D03*
X00037510Y00055160D03*
X00038660Y00053850D03*
X00037820Y00054280D03*
X00039090Y00053390D03*
X00040450Y00054650D03*
X00043100Y00054950D03*
X00044440Y00053470D03*
X00022150Y00057150D03*
X00023190Y00055960D03*
X00022340Y00056440D03*
X00022690Y00055410D03*
X00024490Y00056380D03*
X00025010Y00056880D03*
X00024760Y00057180D03*
X00024120Y00056710D03*
X00024170Y00057110D03*
X00024450Y00056920D03*
X00024880Y00055250D03*
X00025170Y00056050D03*
X00025800Y00055560D03*
X00026190Y00056760D03*
X00026950Y00056790D03*
X00025800Y00056690D03*
X00026420Y00056430D03*
X00026080Y00057240D03*
X00026450Y00057010D03*
X00025320Y00057150D03*
X00025300Y00056610D03*
X00025800Y00057050D03*
X00025490Y00056330D03*
X00028850Y00056710D03*
X00029140Y00057110D03*
X00028170Y00056410D03*
X00028670Y00055800D03*
X00028340Y00055740D03*
X00029200Y00056870D03*
X00029740Y00057150D03*
X00029550Y00056120D03*
X00029590Y00056840D03*
X00030540Y00055910D03*
X00034840Y00055970D03*
X00034750Y00055450D03*
X00035970Y00056790D03*
X00035620Y00055940D03*
X00035430Y00055710D03*
X00036450Y00057110D03*
X00037140Y00056680D03*
X00037100Y00055290D03*
X00038010Y00056710D03*
X00038110Y00055520D03*
X00037730Y00056430D03*
X00038790Y00055540D03*
X00039600Y00056170D03*
X00044440Y00055700D03*
X00044850Y00055760D03*
X00014560Y00058080D03*
X00014230Y00057810D03*
X00015110Y00058190D03*
X00015520Y00057790D03*
X00016080Y00057830D03*
X00017810Y00058110D03*
X00018610Y00058340D03*
X00019000Y00058380D03*
X00019650Y00058830D03*
X00019900Y00058580D03*
X00020510Y00057540D03*
X00022130Y00058900D03*
X00022290Y00058490D03*
X00022450Y00057520D03*
X00024590Y00058920D03*
X00023970Y00057470D03*
X00024690Y00058180D03*
X00024870Y00057750D03*
X00023780Y00058850D03*
X00023350Y00057950D03*
X00024320Y00057440D03*
X00024190Y00058270D03*
X00024430Y00058540D03*
X00023850Y00057920D03*
X00024480D03*
X00026700Y00057980D03*
X00026540Y00058350D03*
X00025720Y00058090D03*
X00026270Y00057580D03*
X00025250Y00058290D03*
X00025320Y00057610D03*
X00026180Y00058870D03*
X00026830Y00057660D03*
X00025900Y00057700D03*
X00025590Y00058470D03*
X00025980Y00058520D03*
X00025310Y00057950D03*
X00025500Y00057320D03*
X00026940Y00057400D03*
X00027250Y00057980D03*
X00031070Y00058480D03*
X00029710Y00057440D03*
X00037140Y00057560D03*
X00037580Y00057920D03*
X00039720Y00057750D03*
X00040300Y00058550D03*
X00039510Y00058800D03*
X00013480Y00060410D03*
X00014160Y00060150D03*
X00016560Y00061220D03*
X00019730Y00060810D03*
X00019380Y00059260D03*
X00020920Y00060930D03*
X00023210Y00060870D03*
X00026030Y00060510D03*
X00026800Y00060670D03*
X00025920Y00059650D03*
X00027290Y00059750D03*
X00028590Y00060690D03*
X00028110Y00060670D03*
X00027670Y00059520D03*
X00028520Y00059540D03*
X00027980Y00059290D03*
X00027610Y00060760D03*
X00030420Y00060910D03*
X00029880Y00060880D03*
X00032130Y00060250D03*
X00031920Y00060100D03*
X00031520Y00060050D03*
X00031530Y00059630D03*
X00036770Y00061040D03*
X00036390Y00061050D03*
X00040920Y00060820D03*
X00041540Y00060490D03*
X00041520Y00061210D03*
X00011840Y00063090D03*
X00016170Y00063170D03*
X00017860Y00063190D03*
X00022420Y00061590D03*
X00025300Y00062620D03*
X00026800Y00062450D03*
X00028740Y00061890D03*
X00029080Y00061920D03*
X00028470Y00061940D03*
X00028000Y00061890D03*
X00027550Y00062830D03*
X00029410Y00061850D03*
X00029710Y00063120D03*
X00033770Y00061480D03*
X00037000Y00062550D03*
X00043080Y00062840D03*
X00044790Y00061300D03*
X00044880Y00063070D03*
X00043560Y00061470D03*
X00012360Y00065120D03*
X00012320Y00064700D03*
X00011920Y00064820D03*
X00013380Y00064510D03*
X00016980Y00064440D03*
X00017370Y00065120D03*
X00017250Y00064570D03*
X00020700Y00063500D03*
X00023100Y00064650D03*
X00024770Y00063300D03*
X00024190Y00064480D03*
X00024810Y00063840D03*
X00024400Y00064750D03*
X00025320Y00063310D03*
X00026780Y00063440D03*
X00026270Y00063420D03*
X00025510Y00063730D03*
X00025980Y00064750D03*
X00027210Y00065240D03*
X00027360Y00064490D03*
X00030210Y00063750D03*
X00032770Y00063440D03*
X00034750Y00063360D03*
X00033430Y00064740D03*
X00034700Y00064110D03*
X00037280Y00064430D03*
X00038150Y00063700D03*
X00043050Y00064650D03*
X00043040Y00065170D03*
X00042700Y00064940D03*
X00042840Y00063650D03*
X00045030Y00064760D03*
X00045020Y00065060D03*
X00044490Y00063840D03*
X00044330Y00063450D03*
X00011380Y00066870D03*
X00012350Y00065860D03*
X00012000Y00066220D03*
X00014230Y00067060D03*
X00013790Y00066970D03*
X00013240Y00066500D03*
X00015130Y00067080D03*
X00013310Y00066100D03*
X00014650Y00065740D03*
X00014410Y00065450D03*
X00015680Y00066570D03*
X00016300Y00065680D03*
X00017880Y00067160D03*
X00020490Y00066960D03*
X00021170Y00066140D03*
X00020190Y00066460D03*
X00022500Y00066560D03*
X00025150Y00066980D03*
X00024390Y00066730D03*
X00024990Y00065250D03*
X00024160Y00067040D03*
X00023670Y00066420D03*
X00023640Y00066730D03*
X00023900Y00066230D03*
Y00065420D03*
X00023240Y00066650D03*
X00026330Y00065360D03*
X00026690Y00066030D03*
X00027020Y00065420D03*
X00027500Y00065550D03*
X00034120Y00065520D03*
X00033360Y00065580D03*
X00038600Y00066170D03*
X00041640Y00066970D03*
X00044770Y00065910D03*
X00043480Y00066540D03*
X00043510Y00066250D03*
X00044140Y00067180D03*
X00044560Y00066690D03*
X00044840Y00066380D03*
X00044460Y00065980D03*
X00010480Y00067380D03*
X00010510Y00068480D03*
X00012710Y00067610D03*
X00014770Y00068290D03*
X00014510Y00067840D03*
X00014420Y00069130D03*
X00013280Y00068250D03*
X00013710Y00068270D03*
X00014130Y00068770D03*
X00016830Y00067940D03*
X00016590Y00068210D03*
X00015980Y00068860D03*
X00017610Y00067280D03*
X00019030Y00069230D03*
X00018590Y00067700D03*
X00018650Y00068520D03*
X00017670Y00068660D03*
X00019350Y00067490D03*
X00020100Y00067350D03*
X00019800Y00068560D03*
X00023100Y00067550D03*
X00022020Y00067250D03*
X00022460Y00068210D03*
X00025050Y00068710D03*
X00024790Y00069070D03*
X00023770Y00067780D03*
X00024250Y00067840D03*
X00025640Y00068590D03*
X00025830Y00068330D03*
Y00068000D03*
X00026080Y00068900D03*
X00025330Y00069070D03*
X00028160Y00067300D03*
X00028210Y00069050D03*
X00028550Y00069130D03*
X00029150Y00069210D03*
X00029430Y00069160D03*
X00035450Y00067450D03*
X00036190Y00069080D03*
X00039030Y00068740D03*
X00037350Y00068910D03*
X00037540Y00067920D03*
X00038600Y00068590D03*
X00038560Y00067450D03*
X00039600Y00067400D03*
X00039450Y00068410D03*
X00042690Y00069010D03*
X00042590Y00067920D03*
X00044030Y00068660D03*
X00043660Y00067540D03*
X00044800Y00067530D03*
X00011190Y00070900D03*
X00010960Y00069710D03*
X00010750Y00070590D03*
X00011210Y00071210D03*
X00012770Y00070540D03*
X00011780Y00070550D03*
X00015130Y00071050D03*
X00014620Y00071040D03*
X00013220Y00070990D03*
X00014910Y00069650D03*
X00014150Y00070560D03*
X00016280Y00070750D03*
X00016170Y00071060D03*
X00018220Y00069540D03*
X00020950Y00070940D03*
X00021220Y00069250D03*
X00021790Y00070080D03*
X00023000Y00070360D03*
X00022470Y00070720D03*
X00021820Y00071230D03*
X00023390Y00070940D03*
X00024910Y00070470D03*
X00027100Y00071010D03*
X00026850Y00070470D03*
X00028910Y00069290D03*
X00028030D03*
X00028270Y00070880D03*
X00027330Y00069390D03*
X00029500Y00070250D03*
X00031920Y00070610D03*
X00032360Y00070630D03*
X00034860Y00070820D03*
X00034070Y00070480D03*
X00034060Y00071180D03*
X00036190Y00070250D03*
X00036050Y00069870D03*
X00037070Y00070390D03*
X00035220Y00069960D03*
X00037550Y00071020D03*
X00038780Y00070780D03*
X00038420Y00069600D03*
X00040930Y00069280D03*
X00040840Y00069700D03*
X00041780Y00070440D03*
X00042670Y00069970D03*
X00043570Y00070880D03*
X00044820Y00069690D03*
X00044250D03*
X00044780Y00070860D03*
X00010570Y00072160D03*
X00011000Y00073140D03*
X00011010Y00072200D03*
X00010640Y00071390D03*
X00011780Y00071330D03*
X00011790Y00072220D03*
X00012180Y00072210D03*
X00012290Y00073210D03*
X00012650Y00072280D03*
X00012520Y00071290D03*
X00013010Y00072240D03*
X00015120Y00072310D03*
X00013520Y00072200D03*
X00014440Y00072410D03*
X00014320Y00071310D03*
X00013860Y00072210D03*
X00013960Y00071290D03*
X00014300Y00072080D03*
X00013690Y00071270D03*
X00014760Y00072110D03*
X00016850Y00071430D03*
X00015700Y00071680D03*
X00017360Y00071520D03*
X00018250Y00072570D03*
X00017880Y00073190D03*
X00017750Y00071270D03*
X00022210Y00073020D03*
X00021220Y00072270D03*
X00021740Y00071870D03*
X00022920Y00071630D03*
X00021660Y00071560D03*
X00021280Y00072630D03*
X00021800Y00073070D03*
X00024750Y00071720D03*
X00024930Y00072320D03*
X00023340Y00071900D03*
X00025060Y00072740D03*
X00025800Y00072170D03*
X00025940Y00071680D03*
X00025300Y00071330D03*
X00025240Y00072090D03*
X00028390Y00071860D03*
X00028740Y00071630D03*
X00028010Y00071890D03*
X00027320Y00073150D03*
X00031520Y00071410D03*
X00031910Y00071530D03*
X00032200Y00071580D03*
X00040610Y00071530D03*
X00042810Y00071770D03*
X00011170Y00073520D03*
X00010760Y00073390D03*
X00011100Y00074170D03*
X00012480Y00073740D03*
X00011610Y00073510D03*
X00011920Y00073620D03*
X00012600Y00073440D03*
X00011980Y00074560D03*
X00011300Y00073310D03*
X00014370Y00074100D03*
X00013470Y00073790D03*
X00014180Y00073350D03*
X00015100Y00074180D03*
X00013240Y00073250D03*
X00013950Y00074260D03*
X00021590Y00074440D03*
X00028160Y00074050D03*
G54D101*
X00013750Y00019200D03*
X00014080Y00023240D03*
X00013170Y00027090D03*
X00021290Y00030860D03*
X00021770Y00030920D03*
X00019850Y00031390D03*
X00021290Y00034940D03*
X00022540Y00034060D03*
X00021670Y00035260D03*
X00013420Y00038900D03*
X00019870Y00038750D03*
X00022740Y00037350D03*
X00021800Y00038730D03*
X00021490Y00038110D03*
X00025000Y00038490D03*
X00019430Y00039540D03*
X00021720Y00041780D03*
X00014370Y00043330D03*
X00021530Y00043620D03*
X00016380Y00046600D03*
X00019190Y00048660D03*
X00019620Y00048900D03*
X00022860Y00048720D03*
X00023450D03*
X00012860Y00050150D03*
X00013260Y00050850D03*
X00013990Y00053070D03*
X00020810Y00052820D03*
X00021060Y00052330D03*
X00014120Y00053570D03*
X00014510Y00053790D03*
X00016710Y00054370D03*
X00019190Y00053720D03*
X00021290Y00053350D03*
X00023530Y00056380D03*
X00023280Y00056530D03*
X00023400Y00057190D03*
X00036010Y00056220D03*
X00016960Y00057360D03*
X00015090Y00061160D03*
X00014450Y00061200D03*
X00015750Y00061150D03*
X00022460Y00059420D03*
X00035580Y00060150D03*
X00023220Y00064230D03*
X00032590Y00068310D03*
X00041760Y00067510D03*
X00022610Y00070950D03*
X00038060Y00070280D03*
X00023560Y00072570D03*
X00025830Y00072790D03*
X00036130Y00071780D03*
X00035520Y00071630D03*
X00022390Y00074210D03*
X00022490Y00073360D03*
X00026600Y00073450D03*
X00026740Y00074360D03*
X00000000Y00000000D02*
M02*
