*
*
G04 PADS 9.3 Build Number: 433611 generated Gerber (RS-274-X) file*
G04 PC Version=2.1*
*
%IN "opencalc.pcb"*%
*
%MOIN*%
*
%FSLAX35Y35*%
*
*
*
*
G04 PC Standard Apertures*
*
*
G04 Thermal Relief Aperture macro.*
%AMTER*
1,1,$1,0,0*
1,0,$1-$2,0,0*
21,0,$3,$4,0,0,45*
21,0,$3,$4,0,0,135*
%
*
*
G04 Annular Aperture macro.*
%AMANN*
1,1,$1,0,0*
1,0,$2,0,0*
%
*
*
G04 Odd Aperture macro.*
%AMODD*
1,1,$1,0,0*
1,0,$1-0.005,0,0*
%
*
*
G04 PC Custom Aperture Macros*
*
*
*
*
*
*
G04 PC Aperture Table*
*
%ADD010C,0.001*%
%ADD011C,0.01*%
%ADD012C,0.012*%
%ADD013C,0.005*%
%ADD016C,0.09843*%
%ADD017R,0.01969X0.02362*%
%ADD018R,0.02362X0.01969*%
%ADD019R,0.03937X0.02362*%
%ADD020R,0.02362X0.03937*%
%ADD022R,0.06X0.06*%
%ADD023C,0.06*%
%ADD024R,0.05709X0.04528*%
%ADD026R,0.1063X0.04528*%
%ADD027C,0.10236*%
%ADD028C,0.02953*%
%ADD029C,0.08661*%
%ADD033C,0.01181*%
%ADD034C,0.04*%
%ADD035C,0.03*%
%ADD036C,0.02*%
%ADD038C,0.017*%
%ADD052C,0.01378*%
%ADD056R,0.02362X0.04134*%
%ADD057R,0.05906X0.01772*%
%ADD058R,0.05X0.05*%
%ADD059R,0.02992X0.06299*%
%ADD061C,0.01575*%
%ADD069R,0.03543X0.02362*%
%ADD070R,0.02362X0.03543*%
%ADD071R,0.09055X0.09646*%
%ADD072R,0.04528X0.1063*%
%ADD073R,0.06102X0.09449*%
%ADD074R,0.01575X0.05315*%
%ADD075R,0.08268X0.06299*%
%ADD076R,0.07087X0.0748*%
%ADD077R,0.07874X0.11811*%
%ADD078R,0.07087X0.17717*%
%ADD079R,0.07874X0.04921*%
%ADD080C,0.01102*%
%ADD081R,0.15748X0.0622*%
%ADD082R,0.09843X0.11811*%
%ADD083C,0.013*%
%ADD084C,0.019*%
%ADD085C,0.0085*%
*
*
*
*
G04 PC Circuitry*
G04 Layer Name opencalc.pcb - circuitry*
%LPD*%
*
*
G04 PC Custom Flashes*
G04 Layer Name opencalc.pcb - flashes*
%LPD*%
*
*
G04 PC Circuitry*
G04 Layer Name opencalc.pcb - circuitry*
%LPD*%
*
G54D10*
G54D11*
G01X232436Y500446D02*
Y501377D01*
X229467Y523868D02*
X231310Y525711D01*
X234460*
X245589Y524187D02*
X245550Y524148D01*
X243948Y525750*
X245076Y514409D02*
X243633Y515852D01*
Y519412*
X243908*
X237718Y517158D02*
X237664D01*
Y519412*
X237609*
X243908Y525711D02*
X243948Y525750D01*
X237547Y538372D02*
X235846Y536672D01*
X235784Y536734*
X248672Y552508D02*
X250240Y550940D01*
X250208Y550908*
X237609Y538309D02*
X237547Y538372D01*
X264381Y533585D02*
X262806Y535160D01*
X248672Y552508D02*
X248704Y552541D01*
X234460Y557207D02*
X232885Y558782D01*
X286024Y598031D02*
Y603937D01*
X280118Y598031D02*
Y603937D01*
X286024D02*
X285881D01*
Y607598*
X285487*
X280118Y603937D02*
X280257D01*
Y607336*
X280641*
X286205Y630299D02*
X288386Y632480D01*
X288976*
X287528Y617395D02*
Y620747D01*
X286205Y622071*
Y630299*
X289408Y619170D02*
Y622491D01*
X288976Y622923*
Y626575*
X281368Y620945D02*
X280872D01*
Y622795*
X280787Y622880*
Y625652*
X280608*
X274893Y620945D02*
X274753D01*
Y625652*
X274702*
X280608D02*
Y631557D01*
X274702Y625652D02*
Y631557D01*
X293585Y617812D02*
Y623152D01*
X296754Y626322*
X297345*
X300138*
X301437Y627620*
X303639*
G54D12*
X225950Y530421D02*
X226165Y530636D01*
X226165D02*
X229936D01*
X231310Y532010*
X234640Y514548D02*
Y516643D01*
X235452Y517455*
X240759Y516702D02*
Y519412D01*
X236084Y520836D02*
X234409Y522510D01*
X234460Y522561*
X236033Y520785D02*
X236084Y520836D01*
X310764Y530413D02*
X313258D01*
X313553Y530709*
X317717*
X314479Y527073D02*
Y527334D01*
X317717*
Y527559*
X376850Y530395D02*
X376858Y530387D01*
X379085Y532615*
Y532798*
X312133Y541707D02*
X316117D01*
X317717Y543307*
Y537008D02*
Y537090D01*
X314734*
Y537171*
X375943Y538125D02*
Y538399D01*
X378942*
Y538436*
X272326Y653134D02*
Y652550D01*
X268033*
X267003Y653580*
X263312*
X281023Y742704D02*
Y742779D01*
X277410*
Y742789*
G54D13*
X118095Y132304D02*
Y503185D01*
X115365Y505915*
X152165Y124606D02*
X164268Y136709D01*
Y474454*
X207283Y124606D02*
Y132249D01*
X201415Y138117*
Y148497*
X262402Y124606D02*
Y132249D01*
X256533Y138117*
Y148497*
X317520Y124606D02*
Y132249D01*
X311652Y138117*
Y148497*
X372638Y124606D02*
Y132249D01*
X366770Y138117*
Y148497*
X427756Y124606D02*
Y132249D01*
X421888Y138117*
Y148497*
X152165Y142323D02*
X133198Y161290D01*
Y258367*
X201415Y148497D02*
X207283Y154365D01*
Y163976*
X256533Y148497D02*
X262402Y154365D01*
Y163976*
X311652Y148497D02*
X317520Y154365D01*
Y163976*
X366770Y148497D02*
X372638Y154365D01*
Y163976*
X421888Y148497D02*
X427756Y154365D01*
Y163976*
X134198Y165236D02*
Y240597D01*
X134661Y241060*
Y368310*
X137759Y371408*
X141230Y158204D02*
X134198Y165236D01*
X152165Y163976D02*
Y171619D01*
X146297Y177487*
Y187867*
X207283Y163976D02*
Y171619D01*
X201415Y177487*
Y187867*
X262402Y163976D02*
Y171619D01*
X256533Y177487*
Y187867*
X317520Y163976D02*
Y171619D01*
X311652Y177487*
Y187867*
X372638Y163976D02*
Y171619D01*
X366770Y177487*
Y187867*
X427756Y163976D02*
Y171619D01*
X421888Y177487*
Y187867*
X146297D02*
X152165Y193735D01*
Y203346*
X135948Y192113D02*
Y351467D01*
X138759Y354278*
Y518790*
X201415Y187867D02*
X207283Y193735D01*
Y203346*
X256533Y187867D02*
X262402Y193735D01*
Y203346*
X311652Y187867D02*
X317520Y193735D01*
Y203346*
X366770Y187867D02*
X372638Y193735D01*
Y203346*
X357032Y172873D02*
Y463186D01*
X360919Y467073*
X421888Y187867D02*
X427756Y193735D01*
Y203346*
X152165D02*
Y210989D01*
X146297Y216858*
Y227237*
X207283Y203346D02*
Y210989D01*
X201415Y216858*
Y227237*
X262402Y203346D02*
Y210989D01*
X256533Y216858*
Y227237*
X317520Y203346D02*
Y210989D01*
X311652Y216858*
Y227237*
X354159Y212077D02*
Y463862D01*
X357370Y467073*
X372638Y203346D02*
Y210989D01*
X366770Y216858*
Y227237*
X427756Y203346D02*
Y210989D01*
X421888Y216858*
Y226253*
X146297Y227237D02*
X152165Y233105D01*
Y242717*
X140983Y231539D02*
Y334222D01*
X140092Y335113*
Y522953*
X138157Y524888*
X201415Y227237D02*
X207283Y233105D01*
Y242717*
X256533Y227237D02*
X262402Y233105D01*
Y242717*
X311652Y227237D02*
X317520Y233105D01*
Y242717*
X366770Y227237D02*
X372638Y233105D01*
Y242717*
X421888Y226253D02*
X427756Y232121D01*
Y240748*
X152165Y242717D02*
Y250359D01*
X146297Y256228*
Y266607*
X207283Y242717D02*
Y250359D01*
X201415Y256228*
Y266607*
X262402Y242717D02*
Y250359D01*
X256533Y256228*
Y266607*
X300943Y250440D02*
Y349360D01*
X301021Y349437*
Y464988*
X317520Y242717D02*
Y250359D01*
X311652Y256228*
Y266607*
X372638Y242717D02*
Y250359D01*
X366770Y256228*
Y266607*
X427756Y240748D02*
Y248391D01*
X421888Y254259*
Y265623*
X127446Y271385D02*
X132443Y276382D01*
Y381391*
X146297Y266607D02*
X152165Y272475D01*
Y282087*
X133198Y258367D02*
X133443Y258612D01*
Y382223*
X201415Y266607D02*
X207283Y272475D01*
Y282087*
X256533Y266607D02*
X262402Y272475D01*
Y282087*
X311652Y266607D02*
X317520Y272475D01*
Y282087*
X366770Y266607D02*
X372638Y272475D01*
Y282087*
X421888Y265623D02*
X427756Y271491D01*
Y282087*
X152165D02*
Y289730D01*
X146297Y295598*
Y305977*
X207283Y282087D02*
Y289730D01*
X215199Y297645*
Y313541*
X262402Y282087D02*
Y289730D01*
X256533Y295598*
Y305977*
X302682Y291943D02*
Y377584D01*
X303693Y378596*
Y464237*
X317520Y282087D02*
Y289730D01*
X311652Y295598*
Y305977*
X372638Y282087D02*
Y289730D01*
X366770Y295598*
Y305977*
X427756Y282087D02*
Y289730D01*
X421888Y295598*
Y305977*
X146297D02*
X152165Y311845D01*
Y321457*
X198767Y312475D02*
X194616Y316625D01*
Y393043*
X213449Y307328D02*
X208700Y312077D01*
X208364*
X196648Y323794*
Y388308*
X256533Y305977D02*
X262402Y311845D01*
Y321457*
X311652Y305977D02*
X317520Y311845D01*
Y321457*
X366770Y305977D02*
X372638Y311845D01*
Y321457*
X421888Y305977D02*
X427756Y311845D01*
Y321457*
X152165D02*
Y329100D01*
X146297Y334968*
Y345347*
X207283Y321457D02*
X213152Y327325D01*
Y343333*
X215199Y313541D02*
X207283Y321457D01*
X227583Y323487D02*
X224111Y326959D01*
Y354242*
X262402Y321457D02*
Y329100D01*
X256533Y334968*
Y345347*
X317520Y321457D02*
Y329100D01*
X311652Y334968*
Y345347*
X360412Y331886D02*
X363453Y334928D01*
Y467411*
X372638Y321457D02*
Y329100D01*
X366770Y334968*
Y345347*
X427756Y321457D02*
Y329100D01*
X421888Y334968*
Y345347*
X146297D02*
X152165Y351215D01*
Y360827*
X213152Y343333D02*
X207283Y349201D01*
Y360827*
X225861Y340477D02*
X249928Y364544D01*
Y385130*
X212184Y348505D02*
Y353842D01*
X214358Y356016*
Y381843*
X256533Y345347D02*
X262402Y351215D01*
Y360827*
X311652Y345347D02*
X317520Y351215D01*
Y360827*
X366770Y345347D02*
X372638Y351215D01*
Y360827*
X421888Y345347D02*
X427756Y351215D01*
Y360827*
X137759Y371408D02*
Y513674D01*
X135095Y516339*
X132283*
X129528Y519094*
Y519291*
X152165Y360827D02*
Y368470D01*
X146297Y374338*
Y384717*
X207283Y360827D02*
Y368470D01*
X201415Y374338*
Y384717*
X224111Y354242D02*
X228671Y358802D01*
Y420515*
X262402Y360827D02*
Y368470D01*
X256533Y374338*
Y384717*
X317520Y360827D02*
Y368470D01*
X311652Y374338*
Y384717*
X365922Y370009D02*
Y372690D01*
X365770Y372842*
Y445104*
X372638Y360827D02*
Y368470D01*
X366770Y374338*
Y384717*
X427756Y360827D02*
Y368470D01*
X421888Y374338*
Y384717*
X131624Y391943D02*
X132443Y392762D01*
Y484127*
X146297Y384717D02*
X152165Y390585D01*
Y400197*
X132443Y381391D02*
X131624Y382210D01*
Y391943*
X133443Y382223D02*
X133374Y382292D01*
Y386214*
X201415Y384717D02*
X207283Y390585D01*
Y400197*
X226921Y372566D02*
Y378924D01*
X217687Y388157*
X222198Y387810D02*
Y409734D01*
X223218Y410755*
Y432679*
X249928Y385130D02*
Y403748D01*
X247752Y405923*
Y424391*
X256533Y384717D02*
X262402Y390585D01*
Y400197*
X311652Y384717D02*
X317520Y390585D01*
Y400197*
X366770Y384717D02*
X372638Y390585D01*
Y400197*
X421888Y384717D02*
X427756Y390585D01*
Y400197*
X435895Y390657D02*
Y441501D01*
X427756Y449641*
Y457283*
X152165Y400197D02*
Y407840D01*
X146297Y413708*
Y424087*
X199491Y393876D02*
Y408165D01*
X196970Y410686*
Y424975*
X207283Y400197D02*
Y407840D01*
X201415Y413708*
Y424087*
X262402Y400197D02*
Y407840D01*
X256533Y413708*
Y424087*
X317520Y400197D02*
Y407840D01*
X311652Y413708*
Y424087*
X377436Y410816D02*
Y413414D01*
X379113Y415091*
Y469301*
X372638Y400197D02*
Y407840D01*
X366770Y413708*
Y424087*
X146297D02*
X152165Y429955D01*
Y439567*
X201415Y424087D02*
X207283Y429955D01*
Y439567*
X228671Y420515D02*
X227257Y421929D01*
Y465456*
X214132Y427204D02*
Y431498D01*
X213182Y432448*
Y460609*
X206538Y467253*
X256533Y424087D02*
X262402Y429955D01*
Y439567*
X311652Y424087D02*
X317520Y429955D01*
Y439567*
X366770Y424087D02*
X372638Y429955D01*
Y439567*
X143661Y433890D02*
X141425Y436127D01*
Y527250*
X135475Y533199*
X152165Y439567D02*
X143497Y448236D01*
Y531222*
X137256Y537463*
X221012Y434505D02*
Y451698D01*
X223791Y454476*
X299380Y447380D02*
Y455652D01*
X298821Y456211*
Y464483*
X317520Y439567D02*
X305893Y451193D01*
Y464347*
X365770Y445104D02*
X365922Y445257D01*
Y467459*
X132443Y484127D02*
X129528Y487042D01*
Y508589*
X264695Y490365D02*
X255888D01*
X255888D02*
Y491735D01*
X129528Y508589D02*
Y513386D01*
X146564Y505525D02*
Y518492D01*
X146759Y518687*
Y531654*
X132756Y508330D02*
X130896D01*
X130637Y508589*
X129528*
X270514Y506457D02*
X271838Y507780D01*
X306176*
X306787Y508391*
X322578*
X274043Y501392D02*
X275174Y502524D01*
X276223Y500461D02*
X279268Y503506D01*
X323984*
X305528Y509973D02*
X305948Y510393D01*
X325221*
X330908Y516080*
X334584*
X336614Y518110*
X305528Y509973D02*
X263331D01*
X260408Y512896*
X259806*
X256277Y516425*
X304649Y511973D02*
X305078Y512402D01*
X322994*
X324016Y513423*
Y514961*
X304649Y511973D02*
X264256D01*
X261279Y514950*
X260669*
X256357Y519262*
X305950Y508973D02*
X306369Y509391D01*
X324637*
X305950Y508973D02*
X262828D01*
X259917Y511883*
X259365*
X256423Y514825*
X254040*
X305097Y510973D02*
X305520Y511396D01*
X323932*
X333795Y521260*
X336614*
X305097Y510973D02*
X263810D01*
X260855Y513927*
X260233*
X256461Y517699*
X255070*
X253357Y519412*
X330396Y509712D02*
Y512320D01*
X330289*
X325713Y500037D02*
X324175Y501575D01*
X322441*
X325538Y499861D02*
X325713Y500037D01*
X329465Y509712D02*
X330396D01*
X338502Y498261D02*
X348702Y508461D01*
Y519583*
X338502Y498261D02*
X276160D01*
X274043Y500378*
Y501392*
X332252Y507978D02*
X337339Y513065D01*
X337868*
X339764Y514961*
X332252Y507978D02*
X326050D01*
X324637Y509391*
X340868Y502041D02*
X347702Y508876D01*
Y516471*
X340868Y502041D02*
X325449D01*
X323984Y503506*
X340454Y503041D02*
X346702Y509290D01*
Y514321*
X340454Y503041D02*
X326189D01*
X324381Y504849*
X291399*
X290686Y505562*
X273351*
X332141Y504041D02*
X334503Y506403D01*
Y508363*
X337256Y511117*
X338094*
X341301Y514324*
Y516573*
X332141Y504041D02*
X326929D01*
X322578Y508391*
X336971Y508569D02*
Y508760D01*
X339341*
Y509091*
X375500Y504500D02*
Y517791D01*
X375250Y518041*
Y532189*
X410000Y496500D02*
Y503331D01*
X410039Y503370*
Y511417*
X405709D02*
Y528963D01*
X404500Y530171*
Y546500*
X422000Y494500D02*
Y501834D01*
X423031Y502866*
Y511417*
X418500Y508000D02*
Y511417D01*
X418701*
X431693D02*
Y530721D01*
X431000Y531414*
Y549500*
X414370Y511417D02*
X413766D01*
Y514234*
X412500Y515500*
X434500Y492500D02*
Y500588D01*
X436024Y502112*
Y511417*
X113780Y513386D02*
X119685D01*
X113780Y519291D02*
X119685D01*
X113780Y525197D02*
X119685D01*
X113780Y531102D02*
X119685D01*
X123622Y513386D02*
X129528D01*
X123622Y519291D02*
X129528D01*
X123622Y525197D02*
X129528D01*
X123622Y531102D02*
X129528D01*
X138157Y524888D02*
X134895Y528150D01*
X132283*
X129528Y530906*
Y531102*
X138157Y524888D02*
X138501Y525233D01*
Y527360*
X138759Y518790D02*
X135305Y522244D01*
X132283*
X129528Y525000*
Y525197*
X138579Y531930D02*
X136602Y533907D01*
X136159Y513011D02*
X133465D01*
Y513386*
X136159Y519127D02*
X133465D01*
Y519291*
X135842Y524940D02*
X133465D01*
Y525197*
X135814Y529957D02*
Y530171D01*
X133465*
Y531102*
X227397Y525473D02*
X228017D01*
X229729Y527185*
X235942*
X227525Y527823D02*
X228656Y528955D01*
X231310*
Y528860D02*
Y528955D01*
X251952Y524112D02*
X251916Y524075D01*
X250244Y525747*
X243882Y522588D02*
X242393Y521099D01*
X242366Y521125*
X240748Y532020D02*
X239102Y530374D01*
X239092Y530385*
X235452Y517455D02*
X236033Y518036D01*
Y520785*
X248497Y517982D02*
Y524272D01*
X247058Y525711*
X248374Y517026D02*
Y517859D01*
X248497Y517982*
X251727Y527322D02*
X250198Y528851D01*
X240767Y522553D02*
X240759Y522561D01*
X247079Y522541D02*
X247058Y522561D01*
X240771Y528848D02*
X240759Y528860D01*
X237624Y525696D02*
X237609Y525711D01*
X237611Y528858D02*
X237609Y528860D01*
X243946Y528823D02*
X243908Y528860D01*
X250198Y528851D02*
X250208Y528860D01*
X235940Y527187D02*
X237611Y528858D01*
X245545Y521007D02*
X247079Y522541D01*
X235928Y524000D02*
X237624Y525696D01*
X239158Y520944D02*
X240767Y522553D01*
X239121Y527197D02*
X240771Y528848D01*
X242446Y527323D02*
X243946Y528823D01*
X235942Y527185D02*
X235940Y527187D01*
X235942Y523985D02*
X235928Y524000D01*
X245483Y530435D02*
X247058Y532010D01*
X248633Y530435D02*
X250208Y532010D01*
X233052Y530385D02*
X235984D01*
X237609Y532010*
X239134Y527185D02*
X239121Y527197D01*
X251717Y527312D02*
X251727Y527322D01*
X239166Y520936D02*
X239158Y520944D01*
X242484Y527286D02*
X242446Y527323D01*
X245483Y527286D02*
X247058Y528860D01*
X249505Y515894D02*
X248374Y517026D01*
X245566Y520986D02*
X245545Y521007D01*
X247905Y514356D02*
Y516018D01*
X247058Y516865*
Y519412*
X250208Y525711D02*
X250244Y525747D01*
X243908Y522561D02*
X243882Y522588D01*
X240759Y532010D02*
X240748Y532020D01*
X237609Y522561D02*
X239184Y524136D01*
X234460Y532010D02*
X233021Y533449D01*
X229631*
X252970Y516018D02*
X253377Y516425D01*
X256277*
X252970Y516018D02*
X251645D01*
X250208Y517455*
Y519412*
X264532Y530385D02*
X264507Y530360D01*
X262831Y532035*
X258352Y524136D02*
X258285Y524068D01*
X256574Y525778*
X259507Y519262D02*
X259656Y519412D01*
X256357Y519262D02*
X256507Y519412D01*
X264419Y524023D02*
X262768Y525673D01*
X262806Y525711*
X264381Y523985D02*
X264419Y524023D01*
X261231Y530435D02*
X259656Y532010D01*
X261181Y527336D02*
X259656Y528860D01*
X254932Y527286D02*
X253357Y528860D01*
X261231Y524136D02*
X259656Y525711D01*
X254932Y530435D02*
X253357Y532010D01*
X258132Y527235D02*
X256507Y528860D01*
X252307Y517618D02*
X251782Y518143D01*
Y520986*
X250208Y522561*
X269105Y519412D02*
X290978D01*
X295976Y524409*
X317717*
X269105Y525711D02*
X271116D01*
X271640Y526235*
X278335*
X283152Y531052*
X303301*
X311020Y538771*
X316162*
X269105Y528860D02*
X271481D01*
X271548Y528927*
X274085*
X269105Y532010D02*
X273937D01*
X274631Y532704*
X300117*
X310720Y543307*
X314551*
X317089Y545844*
X325103*
X262806Y532010D02*
X262831Y532035D01*
X256507Y525711D02*
X256574Y525778D01*
X273937Y530571D02*
X274469Y531103D01*
X276688*
X273937Y530571D02*
X267395D01*
X265956Y532010*
X281750Y521943D02*
X287336Y527529D01*
X312478*
X314082Y529134*
X319291*
X320866Y530709*
X281750Y521943D02*
X272261D01*
X271642Y522561*
X269105*
X286630Y520943D02*
X291128Y525441D01*
X315842*
X316385Y525984*
X319291*
X320866Y527559*
X286630Y520943D02*
X267574D01*
X265956Y522561*
X290978Y517973D02*
X295840Y522835D01*
X319291*
X320866Y524409*
X290978Y517973D02*
X267395D01*
X265956Y519412*
X279274Y530462D02*
X276139Y527327D01*
X267489*
X265956Y528860*
X277482Y522943D02*
X283939Y529401D01*
X303301*
X310114Y536213*
X312655*
X277482Y522943D02*
X273495D01*
X272302Y524136*
X267530*
X267530D02*
X265956Y525711D01*
X303553Y513973D02*
X306619Y517038D01*
X316476*
X303553Y513973D02*
X265107D01*
X262107Y516973*
X261796*
X259507Y519262*
X296617Y516973D02*
X300904Y521260D01*
X317717*
X296617Y516973D02*
X266360D01*
X264381Y518951*
Y520986*
X262806Y522561*
X302256Y515973D02*
X305969Y519685D01*
X319291*
X320866Y521260*
X302256Y515973D02*
X265945D01*
X262806Y519112*
Y519412*
X304168Y512973D02*
X304608Y513412D01*
X318343*
X319291Y514361*
Y515560*
X320267Y516535*
X321466*
X322441Y517511*
Y518073*
X322478Y518110*
X324016*
X304168Y512973D02*
X264687D01*
X261709Y515950*
X261083*
X258082Y518951*
Y520986*
X256507Y522561*
X302938Y514973D02*
X306076Y518110D01*
X317717*
X302938Y514973D02*
X265527D01*
X262527Y517973*
X262210*
X261231Y518951*
Y520986*
X259656Y522561*
X318353Y516573D02*
X319291Y517511D01*
Y518073*
X319329Y518110*
X320866*
X318353Y516573D02*
X316942D01*
X316476Y517038*
X321953Y513874D02*
X322441Y514361D01*
Y515560*
X323454Y516573*
X325558*
Y516613*
X321953Y513874D02*
X320866Y514961D01*
X324998Y532321D02*
X325201Y532524D01*
X326872*
X324998Y532321D02*
X322404D01*
X320866Y533858*
X329247Y522549D02*
Y524591D01*
X328309Y525528*
X326426Y519728D02*
X329247Y522549D01*
X330025Y528801D02*
X328351Y530474D01*
Y531045*
X326872Y532524*
X330254Y532104D02*
Y535112D01*
X330971Y535829*
X330868Y522057D02*
Y524384D01*
X327693Y527559*
X324016*
Y521260D02*
X325328Y522572D01*
X326290*
X327647Y523928*
X324016Y524409D02*
X325135Y525528D01*
X328309*
X324016Y530709D02*
Y530816D01*
X326209*
Y530924*
X336558Y524466D02*
X335050Y522958D01*
X334994Y523015*
X339764Y533858D02*
X338226Y532321D01*
X335290*
X333662Y533949*
X347343Y524641D02*
X348383D01*
X348702Y519583D02*
X347343Y520943D01*
Y524641*
X341301Y516573D02*
X339764Y518110D01*
X347702Y516471D02*
X342913Y521260D01*
X346702Y514321D02*
X342913Y518110D01*
X333454Y529002D02*
X335469D01*
X335600Y529134*
X338189*
X339764Y530709*
X333007Y517680D02*
X335012Y519685D01*
X338189*
X339764Y521260*
X333374Y514480D02*
Y514721D01*
X336614*
Y514961*
X332541Y525332D02*
X334985D01*
X335638Y525984*
X338189*
X339764Y527559*
X336614Y524409D02*
X336558Y524466D01*
X339764Y524409D02*
X341339Y525984D01*
X345488*
X346478Y526974*
X350098*
X355370Y532246*
X342913Y524409D02*
X345281D01*
X345513Y524641*
X347343*
X336614Y530709D02*
X334640D01*
X331985Y533363*
Y538963*
X325103Y545844*
X355370Y532246D02*
Y544856D01*
X349078Y551147*
X340181*
X337639Y553689*
X375250Y532189D02*
X378678Y535617D01*
X379349*
X380911Y537178*
Y541056*
X382879Y543025*
Y546318*
X113780Y537008D02*
X119685D01*
X113780Y542913D02*
X119685D01*
X123622Y537008D02*
X129528D01*
X123622Y542913D02*
X129528D01*
X137256Y537463D02*
X138914Y539120D01*
X140096*
X142284Y541309*
X137256Y537463D02*
X134758Y539961D01*
X132283*
X129528Y542717*
Y542913*
X135475Y533199D02*
X136182Y533907D01*
X136602*
X135475Y533199D02*
X134619Y534055D01*
X132283*
X129528Y536811*
Y537008*
X135897Y536559D02*
Y536724D01*
X133465*
Y537008*
X133941Y549440D02*
Y549637D01*
X130128*
Y549833*
X151013Y551860D02*
Y554724D01*
X151181*
X144762Y551860D02*
X144951D01*
Y554724*
X145276*
X139011Y550928D02*
Y554724D01*
X139370*
X133465Y542913D02*
Y543122D01*
X136159*
X166651Y544113D02*
Y613151D01*
X168500Y615001*
Y657500*
X162708Y551524D02*
Y554724D01*
X162992*
X156928Y551591D02*
Y554724D01*
X157087*
X177646Y542277D02*
X187333D01*
X193988Y548932*
X210727*
X210116Y535006D02*
X211898D01*
X212380Y535488*
X224667*
X192326Y534942D02*
X207789D01*
X209507Y536660*
X220907*
X225842Y541595*
X229060*
X210930Y539268D02*
X213545D01*
X214189Y539913*
X221332*
X225014Y543595*
X230132*
X203236Y542277D02*
X209260D01*
X212674Y545690*
X218752*
X228229Y534857D02*
X228532Y535160D01*
X231310*
X228229Y534857D02*
X225298D01*
X224667Y535488*
X227075Y548112D02*
X228942Y549978D01*
Y549979*
X229871Y550908*
X231310*
X227075Y548112D02*
X225750D01*
X224786Y549076*
Y549885*
X223493Y551178*
Y553215*
X222758*
X228115Y546112D02*
X229761Y547758D01*
X231310*
X228115Y546112D02*
X224922D01*
X222712Y548321*
Y549090*
X222231Y549572*
X227590Y547112D02*
X229675Y549197D01*
X233021*
X227590Y547112D02*
X225336D01*
X223755Y548693*
Y549462*
X222289Y550928*
X221819*
X220790Y551957*
Y555432*
X220095Y556127*
Y559018*
X226523Y533023D02*
X229206D01*
X229631Y533449*
X226413Y549712D02*
X224493Y551632D01*
Y555019*
X222063Y557448*
Y561774*
X219697Y564140*
Y567569*
X215867Y538313D02*
X221146D01*
X225428Y542595*
X229560*
X231310Y541459D02*
X230696D01*
X229560Y542595*
X215957Y547893D02*
X216154D01*
X217832Y549572*
X222231*
X215957Y547893D02*
X211767D01*
X210727Y548932*
X220739Y543901D02*
X223905D01*
X224613Y544608*
X231310*
X220739Y543901D02*
X220542D01*
X218752Y545690*
X240759Y550908D02*
X240739Y550888D01*
X239124Y552502*
X237609Y541459D02*
X237546Y541396D01*
X235896Y543046*
X234460Y544608D02*
X233021Y543169D01*
X230557*
X230132Y543595*
X236183Y552482D02*
X236146Y552445D01*
X237646Y550945*
X240771Y544621D02*
X239171Y546221D01*
X247076Y550925D02*
X245486Y552515D01*
X243926Y550925D02*
X242286Y552565D01*
X247071Y547771D02*
X245521Y549320D01*
X239171Y546221D02*
X239184Y546234D01*
X237610Y547759D02*
X236075Y549293D01*
Y549294*
X245521Y549320D02*
X245534Y549333D01*
X243908Y538309D02*
X243946Y538272D01*
X242446Y536772*
X243958Y541509D02*
X242484Y542984D01*
X242534Y543034*
X245483Y533585D02*
X247058Y535160D01*
X242484Y536734D02*
X242446Y536772D01*
X235834Y542983D02*
X235896Y543046D01*
X248633Y533585D02*
X250208Y535160D01*
Y541459D02*
X248633Y543034D01*
X250208Y544608D02*
X248633Y546183D01*
X250208Y547758D02*
X248633Y549333D01*
X247058Y541459D02*
X245483Y543034D01*
X247058Y544608D02*
X245483Y546183D01*
X247058Y547758D02*
X247071Y547771D01*
X247058Y550908D02*
X247076Y550925D01*
X243908Y541459D02*
X243958Y541509D01*
X243908Y544608D02*
X242334Y546183D01*
X243908Y547758D02*
X242334Y549333D01*
X243908Y550908D02*
X243926Y550925D01*
X240759Y535160D02*
X239184Y536734D01*
X240759Y544608D02*
X240771Y544621D01*
X237609Y544608D02*
X236034Y546183D01*
X237609Y547758D02*
X237610Y547759D01*
X237609Y550908D02*
X237646Y550945D01*
X234460Y535160D02*
X232885Y536734D01*
X228915*
X227273Y538376*
X226524*
X226505Y538395*
Y539995*
X234460Y538309D02*
X232885Y539884D01*
X230771*
X229060Y541595*
X234460Y547758D02*
X233021Y549197D01*
X234460Y550908D02*
X233018Y552349D01*
X226432*
X225493Y553288*
X266106Y538159D02*
X267694Y539748D01*
X270638*
X266106Y538159D02*
X265956Y538309D01*
X266552Y540020D02*
X267530Y540999D01*
X267530D02*
Y541919D01*
X267530D02*
X268645Y543034D01*
X270335*
X272019Y544718*
X275260*
X266552Y540020D02*
X261095D01*
X259656Y541459*
X264406Y549308D02*
X262831Y547733D01*
X262806Y547758*
X270042Y552279D02*
X278102Y560339D01*
Y561050*
X282270Y565217*
X270042Y552279D02*
X269906D01*
X269838Y552347*
X265806Y541609D02*
X267530Y543333D01*
X267530D02*
Y545069D01*
X267530D02*
X268780Y546318D01*
X274156*
X281041Y553204*
X281041D02*
X299628D01*
X299628D02*
X300113Y553689D01*
X337639*
X254856Y549308D02*
X254831Y549333D01*
X264393Y546221D02*
X264381Y546234D01*
X258031Y549333D02*
X258044Y549320D01*
X256494Y547771*
X253332Y547783D02*
X254856Y549308D01*
X262793Y544621D02*
X264393Y546221D01*
X258082Y533585D02*
X256507Y535160D01*
X261231Y533585D02*
X259656Y535160D01*
X261231Y536734D02*
X259656Y538309D01*
X264431Y549282D02*
X264406Y549308D01*
X264381Y543034D02*
X265956Y544608D01*
X269105Y541459D02*
Y541649D01*
X271054*
X269105Y550908D02*
X274537D01*
X288832Y565203*
X265956Y541459D02*
X265806Y541609D01*
X265956Y547758D02*
X267530Y549333D01*
X267530D02*
X274465D01*
X279524Y554392*
X284864*
X296058Y565586*
Y567620*
X265956Y550908D02*
X267395Y552347D01*
X269838*
X262806Y544608D02*
X262793Y544621D01*
X262806Y550908D02*
X264381Y552482D01*
X259656Y544608D02*
X261231Y546183D01*
X259656Y547758D02*
X261231Y549333D01*
X259656Y550908D02*
X261282Y552533D01*
X256507Y541459D02*
X258082Y543034D01*
X256507Y544608D02*
X258082Y546183D01*
X256507Y547758D02*
X256494Y547771D01*
X256507Y550908D02*
X258082Y552482D01*
Y565236*
X259714Y566868*
Y570289*
X253357Y547758D02*
X253332Y547783D01*
X253357Y550908D02*
X254932Y552482D01*
X276017Y534704D02*
X276898Y535585D01*
X278526*
X276017Y534704D02*
X272831D01*
X272376Y535160*
X269105*
X273263Y537918D02*
X275148Y539803D01*
X291326*
X301367Y549844*
X326927*
X273263Y537918D02*
X271001D01*
X270609Y538309*
X269105*
X272848Y538918D02*
X274845Y540915D01*
X290184*
X300220Y550951*
X319698*
X320436Y551689*
X333162*
X272848Y538918D02*
X271469D01*
X270638Y539748*
X273629Y536870D02*
X275445Y538686D01*
X293411*
X303569Y548844*
X326346*
X273629Y536870D02*
X264245D01*
X262806Y538309*
X275260Y544718D02*
X282619Y552077D01*
X309663*
X310275Y552689*
X333576*
X275326Y536304D02*
X276584Y537563D01*
X295380*
X305662Y547844*
X325932*
X272186Y540518D02*
X271054Y541649D01*
X295059Y533704D02*
X305662Y544307D01*
X313146*
X315684Y546844*
X325518*
X295059Y533704D02*
X267411D01*
X265956Y535160*
X324016Y543307D02*
X322478Y541770D01*
X319254*
X317717Y543307*
X325761Y535284D02*
X324175Y533699D01*
X324016Y533858*
X325465Y538620D02*
X326119Y539274D01*
Y540874*
X325465Y538620D02*
X324016D01*
Y540157*
X320866D02*
X319329Y538620D01*
X316314*
X316162Y538771*
X320866Y537008D02*
X319329Y535470D01*
X313398*
X312655Y536213*
X330971Y535829D02*
Y538563D01*
X324689Y544844*
X325921Y535124D02*
X325761Y535284D01*
X324016Y537008D02*
X326216D01*
X327108Y537900*
X329371*
X320866Y543307D02*
X322404Y544844D01*
X324689*
X339764Y537008D02*
X338226Y535470D01*
X335977*
X334025Y537423*
Y539752*
X325932Y547844*
X341301Y541695D02*
Y544964D01*
X333576Y552689*
X336614Y533858D02*
X336175D01*
X333002Y537031*
Y539360*
X325518Y546844*
X336614Y537008D02*
X335051Y538571D01*
Y540140*
X326346Y548844*
X336614Y540157D02*
X326927Y549844D01*
X339764Y540157D02*
X341301Y541695D01*
X339764Y543307D02*
X338385Y544686D01*
Y546465*
X333162Y551689*
X366277Y551343D02*
Y554369D01*
X364662Y555984*
Y559045*
X383022Y532798D02*
Y532981D01*
X387419*
X382879Y546318D02*
Y551919D01*
X145276Y558661D02*
Y563140D01*
X145807Y563671*
Y570315*
X151181Y558661D02*
Y563219D01*
X150807Y563593*
Y570315*
X139370Y558661D02*
Y562687D01*
X140807Y564124*
Y570315*
X162992Y558661D02*
Y562313D01*
X160807Y564498*
Y570315*
X157087Y558661D02*
Y562766D01*
X155807Y564045*
Y570315*
X211437Y566576D02*
X215828D01*
X216821Y567569*
X219697*
X211437Y556576D02*
X215303D01*
X217745Y559018*
X220095*
X229219Y555354D02*
X229498Y555632D01*
X232885*
X225914Y556071D02*
Y569572D01*
X224357Y571129*
Y573786*
X225493Y553288D02*
Y554631D01*
X225493D02*
X225914Y555053D01*
Y556071*
X233499Y567478D02*
X233448Y567428D01*
X232409Y568467*
X251918Y557803D02*
X253354Y559239D01*
Y561548*
X255514Y563707*
Y574237*
X245781Y572037D02*
X245687Y572131D01*
Y578006*
X248769Y555496D02*
Y561063D01*
X250581Y562874*
Y568520*
X248981Y571092D02*
X247287Y572786D01*
Y577133*
X242286Y552565D02*
X242304Y552583D01*
X245486Y552515D02*
X245504Y552533D01*
X245619Y562007D02*
X245781Y562168D01*
Y572037*
X242043Y568626D02*
X241645Y569025D01*
X242469Y555496D02*
Y563086D01*
X244181Y564797*
Y567035*
X239104Y552482D02*
X239124Y552502D01*
X250208Y554057D02*
X248769Y555496D01*
X247058Y554057D02*
X245619Y555496D01*
Y562007*
X247058Y557207D02*
Y563048D01*
X248981Y564971*
Y571092*
X243908Y554057D02*
X242469Y555496D01*
X240759Y554057D02*
X239184Y555632D01*
Y561889*
X238726Y562347*
Y570324*
X237421Y571629*
Y648325*
X230482Y655264*
X240759Y557207D02*
Y563086D01*
X242043Y564371*
Y568626*
X237609Y554057D02*
X236034Y555632D01*
Y559406*
X233499Y561942*
Y567478*
X237609Y557207D02*
Y567573D01*
X235821Y569362*
Y579078*
X234460Y554057D02*
X232885Y555632D01*
X232359Y568417D02*
X232409Y568467D01*
X259714Y570289D02*
X257886Y572117D01*
Y575570*
X262656Y557357D02*
X282811Y577511D01*
X396741*
X265806Y557357D02*
X282049Y573600D01*
X294789*
X253914Y566449D02*
Y569350D01*
X254100Y569536*
Y573557*
X254932Y552482D02*
Y559632D01*
X256514Y561213*
Y574668*
X252500Y571500D02*
X249743Y574257D01*
Y643083*
X233447Y659380*
Y664769*
X269105Y554057D02*
X275396Y560348D01*
Y560607*
X282441Y567651*
X291256*
X269105Y557207D02*
X282298Y570400D01*
X291317*
X265956Y554057D02*
X267530Y555632D01*
X267530D02*
Y557667D01*
X267530D02*
X281863Y572000D01*
X294031*
X265956Y557207D02*
X265806Y557357D01*
X262806Y554057D02*
X264381Y555632D01*
Y557667*
X281833Y575119*
X323615*
X262806Y557207D02*
X262656Y557357D01*
X259656Y554057D02*
X261231Y555632D01*
Y563864*
X263634Y566266*
X264452*
X259656Y557207D02*
Y565154D01*
X263189Y568686*
Y572500*
X253357Y554057D02*
X251918Y555496D01*
Y557803*
X360081Y562229D02*
Y562240D01*
X364662*
Y566722D02*
Y566776D01*
X371031*
Y566875*
X364662Y564163D02*
X334571D01*
X323615Y575119*
X364662Y561604D02*
Y562240D01*
X380353Y566225D02*
X382625D01*
X383122Y566722*
X387497*
X377049Y563987D02*
X381133D01*
X381310Y564163*
X387497*
Y561604D02*
X392697D01*
X392697D02*
X392863Y561771D01*
X395961*
X426475Y568109D02*
Y573485D01*
X425948Y574012*
X150845Y582196D02*
Y585087D01*
X150807Y585125*
Y590315*
Y598022*
X151181Y598396*
Y603937*
X145807Y590315D02*
Y597943D01*
X145276Y598474*
Y603937*
X140807Y590315D02*
Y597490D01*
X139370Y598927*
Y603937*
X155255Y579652D02*
Y583558D01*
X155807Y584110*
Y590315*
X160683Y577787D02*
Y582839D01*
X160807Y582963*
Y590315*
Y597116*
X162992Y599301*
Y603937*
X155807Y590315D02*
Y597569D01*
X157087Y598848*
Y603937*
X225074Y589692D02*
X220500Y594267D01*
Y672500*
X224500Y585500D02*
Y587173D01*
X225074Y587747*
Y589692*
X245687Y578006D02*
X248000Y580319D01*
Y635500*
X240408Y577732D02*
X239171Y578969D01*
X240242Y573736D02*
Y576526D01*
X240408Y576692*
Y577732*
X254100Y573557D02*
X253914D01*
X255286Y576688D02*
X256295Y577697D01*
X256295D02*
Y579714D01*
X256295D02*
X253500Y582510D01*
Y625500*
X255514Y574237D02*
X255286Y574465D01*
Y576688*
X256514Y574668D02*
X256286Y574896D01*
Y576249*
X257295Y577259*
X257295D02*
Y580795D01*
X257295D02*
X255500Y582590D01*
Y637000*
X263189Y572500D02*
X263000D01*
X296564Y573519D02*
X294869D01*
X294789Y573600*
X425948Y574012D02*
Y584683D01*
X427451Y586186*
Y593234*
X426246Y594439*
Y596316*
X142296Y601393D02*
X144960Y604056D01*
X145276*
X142296Y601393D02*
X142177Y601512D01*
X145276Y603937D02*
Y604056D01*
X139370Y603937D02*
X135859D01*
X134885Y604911*
X131704*
X225000Y615000D02*
Y659250D01*
X224000Y660250*
Y704500*
X270952Y628177D02*
X269385Y629743D01*
X267454*
X270821Y628046D02*
X270952Y628177D01*
X263386Y623622D02*
X268496D01*
X270821Y625947*
Y628046*
X143146Y653800D02*
Y656601D01*
X144882Y658337*
Y664961*
X132444Y658482D02*
Y663949D01*
X133120Y664624*
Y674557*
X144882Y686319*
Y686614*
X169291Y664961D02*
X159653D01*
X153233Y671381*
X135117*
X181037Y664823D02*
X176997D01*
X176859Y664961*
X169291*
X230482Y655264D02*
Y669704D01*
X231000Y670222*
Y674500*
X233447Y664769D02*
X234562Y665884D01*
Y669771*
X238000Y673209*
Y677500*
X235047Y664106D02*
X238674D01*
X239742Y665174*
X292737*
X315744Y688182*
X388201*
X232082Y665667D02*
Y670293D01*
X232815Y671026*
Y690873*
X253759Y711817*
X310638*
X236909Y667164D02*
X266332D01*
X288433Y689265*
X425447*
X429913Y693731*
X335278Y657900D02*
X356583Y679205D01*
X356583D02*
X434215D01*
X434215D02*
X437656Y682646D01*
X335278Y657900D02*
X246127D01*
X241443Y662585*
X155639Y681306D02*
X160947Y686614D01*
X169291*
X180939Y685577D02*
X177397D01*
X176361Y686614*
X169291*
X235500Y686000D02*
Y688546D01*
X235552*
X243500Y681500D02*
X240473D01*
Y681656*
X249000Y687500D02*
X246379D01*
Y687562*
X243500Y687500D02*
X240473D01*
Y687562*
X256400Y690900D02*
X257500Y692000D01*
X280763*
X283231Y694469*
X256400Y690900D02*
X250500D01*
Y691000*
X254500Y685500D02*
X256266Y687266D01*
X279766*
X287000Y694500*
X256500Y684500D02*
X279263D01*
X289331Y694569*
X258500Y679500D02*
X277111D01*
X291000Y693389*
X260500Y689500D02*
X280463D01*
X285100Y694137*
Y694863*
X286537Y696300*
X291400*
X253268Y688546D02*
X250454D01*
X244852Y694148*
X238352*
X325486Y681980D02*
X325534Y681931D01*
X322392Y678789*
X322441Y678740D02*
X322392Y678789D01*
X392059Y687056D02*
X389328D01*
X388201Y688182*
X140945Y704331D02*
X146616Y710002D01*
X163717*
X175571Y707572D02*
X166146D01*
X163717Y710002*
X194685Y709646D02*
Y717126D01*
X192520Y719291*
Y725984*
X202165Y709646D02*
Y718110D01*
X202362Y718307*
Y725984*
X246900Y695163D02*
X262554Y710817D01*
X273817*
X248500Y694500D02*
X258169D01*
X259769Y696100*
X275731*
X252500Y692500D02*
Y692600D01*
X248137*
X246900Y693837*
Y695163*
X289331Y694569D02*
X289200Y694700D01*
X283231Y694469D02*
X283200Y694500D01*
X281000D02*
X277331D01*
X275731Y696100*
X282500Y709500D02*
X275134D01*
X273817Y710817*
X293200Y694500D02*
X291400Y696300D01*
X350097Y707790D02*
X314665D01*
X310638Y711817*
X366921Y700900D02*
X368528Y702507D01*
Y704108*
X371100Y706679*
X401373*
X402961Y708268*
X422835*
X366921Y700900D02*
X356701D01*
X353684Y703917*
Y704203*
X350097Y707790*
X365551Y709500D02*
Y714802D01*
X364147Y716206*
Y728129*
X361500Y702500D02*
Y702711D01*
X358071*
Y703740*
Y717119*
X361647Y720696*
Y728129*
X365551Y703740D02*
Y709500D01*
X387000Y708500D02*
Y712795D01*
X387205*
X376000Y709500D02*
X365551D01*
X402358Y701022D02*
X403699Y702362D01*
X422835*
X402358Y701022D02*
X374644D01*
X371175Y704491*
X422835Y708268D02*
Y714173D01*
X426772Y708268D02*
Y710573D01*
X424803Y712542*
Y719197*
X417897Y726102*
X426772Y702362D02*
Y702559D01*
X423017Y706313*
X417200*
X422835Y696457D02*
Y702362D01*
X205565Y725984D02*
X206299D01*
X196046Y722470D02*
X196258D01*
Y725984*
X196457*
X205805Y721250D02*
X205565D01*
Y725984*
X192520D02*
Y729409D01*
X193504Y730394*
Y738543*
X202362Y725984D02*
Y729409D01*
X203346Y730394*
Y738543*
X229071Y716131D02*
Y719682D01*
X229327*
X248263Y722950D02*
X259100D01*
X273359Y737209*
Y737406*
X248263Y722950D02*
Y723694D01*
X248228Y723728*
Y733169*
X248263Y716061D02*
Y722950D01*
X283439Y718442D02*
Y731066D01*
X277296Y737209*
Y737406*
X323414Y716744D02*
X338539D01*
X347897Y726102*
X364147Y728129D02*
X367897Y731879D01*
Y736102*
X361647Y728129D02*
X357897Y731879D01*
Y736102*
X384147Y728129D02*
X387897Y731879D01*
Y736102*
X381647Y728129D02*
X377897Y731879D01*
Y736102*
X387205Y712795D02*
Y718503D01*
X384147Y721560*
Y728129*
X379724Y712795D02*
Y719070D01*
X381647Y720993*
Y728129*
X273359Y737406D02*
Y740040D01*
X273473Y740155*
Y742789*
G54D16*
X170696Y503196D03*
X383295D03*
X140945Y704331D03*
X153543D03*
X161417Y716535D03*
X128346Y736220D03*
X164961D03*
G54D17*
X223523Y726001D03*
X219586D03*
X339341Y509091D03*
X343278D03*
X378942Y538436D03*
X382879D03*
X426772Y696457D03*
X422835D03*
X220095Y559018D03*
X224032D03*
X450394Y635433D03*
X446457D03*
X219697Y567569D03*
X223634D03*
X426772Y714173D03*
X422835D03*
X123622Y542913D03*
X119685D03*
X123622Y537008D03*
X119685D03*
X123622Y531102D03*
X119685D03*
X123622Y525197D03*
X119685D03*
X123622Y519291D03*
X119685D03*
X123622Y513386D03*
X119685D03*
X237812Y506594D03*
X241749D03*
X232436Y509251D03*
X228499D03*
X247407Y501291D03*
X251344D03*
X232436Y501377D03*
X228499D03*
X232436Y505314D03*
X228499D03*
X238022Y498703D03*
X241959D03*
X217252Y523837D03*
X213315D03*
X222758Y553215D03*
X218821D03*
X237841Y502656D03*
X241778D03*
X247407Y509165D03*
X251344D03*
X247407Y505228D03*
X251344D03*
X277410Y742789D03*
X273473D03*
X444488Y629528D03*
X448425D03*
X382879Y546318D03*
X378942D03*
X259940Y501784D03*
X256003D03*
X444488Y623622D03*
X448425D03*
X426772Y702362D03*
X422835D03*
X426772Y708268D03*
X422835D03*
X206299Y725984D03*
X202362D03*
X196457D03*
X192520D03*
X133465Y542913D03*
X129528D03*
X133465Y537008D03*
X129528D03*
X133465Y531102D03*
X129528D03*
X133465Y525197D03*
X129528D03*
X133465Y519291D03*
X129528D03*
X133465Y513386D03*
X129528D03*
X109843Y542913D03*
X113780D03*
X109843Y537008D03*
X113780D03*
X109843Y531102D03*
X113780D03*
X109843Y525197D03*
X113780D03*
X109843Y519291D03*
X113780D03*
X109843Y513386D03*
X113780D03*
X188892Y490683D03*
X192829D03*
X318504Y501575D03*
X322441D03*
X378942Y551919D03*
X382879D03*
X379085Y532798D03*
X383022D03*
X277296Y737406D03*
X273359D03*
G54D18*
X349713Y536272D03*
Y532335D03*
X344094Y558661D03*
Y554724D03*
X220739Y543901D03*
Y547838D03*
X221050Y529801D03*
Y533738D03*
X215957Y547893D03*
Y543956D03*
X213256Y519413D03*
Y515476D03*
X217193Y519413D03*
Y515476D03*
X209319Y519413D03*
Y515476D03*
X215889Y529716D03*
Y533653D03*
X267454Y629743D03*
Y625806D03*
X255744Y512192D03*
Y508255D03*
X349804Y540875D03*
Y544812D03*
X369732Y541403D03*
Y537466D03*
X157087Y554724D03*
Y558661D03*
X162992Y554724D03*
Y558661D03*
X183225Y519196D03*
Y523133D03*
X162992Y603937D03*
Y607874D03*
X139370Y554724D03*
Y558661D03*
X151181Y554724D03*
Y558661D03*
X157087Y603937D03*
Y607874D03*
X139370Y603937D03*
Y607874D03*
X145276Y554724D03*
Y558661D03*
Y603937D03*
Y607874D03*
X151181Y603937D03*
Y607874D03*
X329465Y509712D03*
Y505775D03*
X303639Y627620D03*
Y631557D03*
X444488Y670866D03*
Y674803D03*
G54D19*
X229327Y719682D03*
Y712202D03*
X220272Y715942D03*
X423425Y629331D03*
Y621850D03*
X414370Y625591D03*
G54D20*
X202165Y709646D03*
X194685D03*
X198425Y718701D03*
X365551Y703740D03*
X358071D03*
X361811Y712795D03*
X379724D03*
X387205D03*
X383465Y703740D03*
G54D22*
X107874Y631496D03*
X437897Y736102D03*
G54D23*
X107874Y641496D03*
Y651496D03*
X437897Y726102D03*
X427897Y736102D03*
Y726102D03*
X417897Y736102D03*
Y726102D03*
X407897Y736102D03*
Y726102D03*
X397897Y736102D03*
Y726102D03*
X387897Y736102D03*
Y726102D03*
X377897Y736102D03*
Y726102D03*
X367897Y736102D03*
Y726102D03*
X357897Y736102D03*
Y726102D03*
X347897Y736102D03*
Y726102D03*
X337897Y736102D03*
Y726102D03*
X327897Y736102D03*
Y726102D03*
X317897Y736102D03*
Y726102D03*
X307897Y736102D03*
Y726102D03*
G54D24*
X238753Y712236D03*
Y719323D03*
G54D26*
X193079Y497366D03*
Y509177D03*
X232266Y479924D03*
Y491735D03*
X255888Y479924D03*
Y491735D03*
X244077Y479924D03*
Y491735D03*
G54D27*
X152165Y417913D03*
Y400197D03*
X126575D03*
Y417913D03*
X372638Y142323D03*
Y124606D03*
X347047D03*
Y142323D03*
X207283Y417913D03*
Y400197D03*
X181693D03*
Y417913D03*
X262402D03*
Y400197D03*
X236811D03*
Y417913D03*
X317520D03*
Y400197D03*
X291929D03*
Y417913D03*
X372638D03*
Y400197D03*
X347047D03*
Y417913D03*
X427756D03*
Y400197D03*
X402165D03*
Y417913D03*
X262402Y142323D03*
Y124606D03*
X236811D03*
Y142323D03*
X317520D03*
Y124606D03*
X291929D03*
Y142323D03*
X152165Y378543D03*
Y360827D03*
X126575D03*
Y378543D03*
X207283Y457283D03*
Y439567D03*
X181693D03*
Y457283D03*
X427756Y378543D03*
Y360827D03*
X402165D03*
Y378543D03*
X372638Y181693D03*
Y163976D03*
X347047D03*
Y181693D03*
X207283Y378543D03*
Y360827D03*
X181693D03*
Y378543D03*
X262402D03*
Y360827D03*
X236811D03*
Y378543D03*
X317520D03*
Y360827D03*
X291929D03*
Y378543D03*
X372638D03*
Y360827D03*
X347047D03*
Y378543D03*
X427756Y181693D03*
Y163976D03*
X402165D03*
Y181693D03*
X152165Y142323D03*
Y124606D03*
X126575D03*
Y142323D03*
X152165Y339173D03*
Y321457D03*
X126575D03*
Y339173D03*
X207283D03*
Y321457D03*
X181693D03*
Y339173D03*
X262402Y457283D03*
Y439567D03*
X236811D03*
Y457283D03*
X262402Y339173D03*
Y321457D03*
X236811D03*
Y339173D03*
X317520D03*
Y321457D03*
X291929D03*
Y339173D03*
X372638D03*
Y321457D03*
X347047D03*
Y339173D03*
X427756D03*
Y321457D03*
X402165D03*
Y339173D03*
X262402Y181693D03*
Y163976D03*
X236811D03*
Y181693D03*
X317520D03*
Y163976D03*
X291929D03*
Y181693D03*
X152165Y299803D03*
Y282087D03*
X126575D03*
Y299803D03*
X207283D03*
Y282087D03*
X181693D03*
Y299803D03*
X262402D03*
Y282087D03*
X236811D03*
Y299803D03*
X317520D03*
Y282087D03*
X291929D03*
Y299803D03*
X317520Y457283D03*
Y439567D03*
X291929D03*
Y457283D03*
X372638Y299803D03*
Y282087D03*
X347047D03*
Y299803D03*
X427756D03*
Y282087D03*
X402165D03*
Y299803D03*
X152165Y260433D03*
Y242717D03*
X126575D03*
Y260433D03*
X207283D03*
Y242717D03*
X181693D03*
Y260433D03*
X262402D03*
Y242717D03*
X236811D03*
Y260433D03*
X317520D03*
Y242717D03*
X291929D03*
Y260433D03*
X372638D03*
Y242717D03*
X347047D03*
Y260433D03*
X427756Y258465D03*
Y240748D03*
X402165D03*
Y258465D03*
X372638Y457283D03*
Y439567D03*
X347047D03*
Y457283D03*
X152165Y181693D03*
Y163976D03*
X126575D03*
Y181693D03*
X207283D03*
Y163976D03*
X181693D03*
Y181693D03*
X152165Y221063D03*
Y203346D03*
X126575D03*
Y221063D03*
X207283D03*
Y203346D03*
X181693D03*
Y221063D03*
X262402D03*
Y203346D03*
X236811D03*
Y221063D03*
X317520D03*
Y203346D03*
X291929D03*
Y221063D03*
X372638D03*
Y203346D03*
X347047D03*
Y221063D03*
X427756D03*
Y203346D03*
X402165D03*
Y221063D03*
X207283Y142323D03*
Y124606D03*
X181693D03*
Y142323D03*
X427756D03*
Y124606D03*
X402165D03*
Y142323D03*
X427756Y457283D03*
Y439567D03*
X402165D03*
Y457283D03*
X152165D03*
Y439567D03*
X126575D03*
Y457283D03*
G54D28*
X263386Y623622D03*
X232359Y568417D03*
X420866Y662992D03*
X130128Y549833D03*
X264695Y490365D03*
X322441Y678740D03*
X178740Y560630D03*
X359843Y533071D03*
Y540945D03*
G54D29*
X396063Y610539D03*
Y660539D03*
G54D33*
X191985Y487964D02*
X192435D01*
Y490683*
X192829*
Y490695*
X195361*
Y490777*
X244077Y479924D02*
X243339D01*
Y484117*
X244077Y479924D02*
X240369D01*
Y483768*
X239851*
X244077Y479924D02*
X246653D01*
Y483856*
X232266Y479924D02*
X229560D01*
Y483550*
X232266Y479924D02*
X232176D01*
Y483550*
X232266Y479924D02*
X235229D01*
Y483550*
X255888Y479924D02*
X252147D01*
Y484030*
X255888Y479924D02*
X255112D01*
Y484204*
X255888Y479924D02*
X258426D01*
Y484292*
X226138Y501244D02*
Y501359D01*
X228499*
Y501377*
X226104Y504957D02*
Y505266D01*
X228499*
Y505314*
X226104Y508806D02*
Y509173D01*
X228499*
Y509251*
X251101Y498681D02*
X251344D01*
Y501291*
Y505228D02*
Y509165D01*
Y501291D02*
Y501357D01*
X256003*
Y501784*
X251344Y501291D02*
Y505228D01*
X255657Y501784D02*
Y502327D01*
X257922Y504591*
X257554Y504958*
X256003Y498668D02*
Y501784D01*
X253786Y505227D02*
X251344D01*
Y505228*
X257554Y504958D02*
X258015D01*
Y508255*
X256003Y501784D02*
X255657D01*
X255744Y508255D02*
Y508619D01*
X251344*
Y509165*
X255744Y508255D02*
X258015D01*
X329465Y505775D02*
Y505831D01*
X332035*
Y506198*
X343278Y509091D02*
Y511363D01*
X343827Y511912*
X344244*
X345102Y512771*
X427500Y508000D02*
X427381D01*
Y511417*
X427362*
X109843Y513386D02*
Y519291D01*
Y525197*
Y531102*
Y537008*
X209319Y512961D02*
Y515476D01*
X231267Y519455D02*
X229779Y517967D01*
X229735Y518011*
X213315Y523811D02*
Y523837D01*
Y523779*
X217199Y512961D02*
Y515476D01*
X217193*
X213463Y512961D02*
X213284D01*
Y515476*
X213256*
X231310Y519412D02*
Y519525D01*
X232742Y520957*
X231310Y519412D02*
X231267Y519455D01*
X243908Y532010D02*
X243923Y531995D01*
X242428Y530500*
X242442Y530486D02*
X242428Y530500D01*
X258082Y530435D02*
X256507Y532010D01*
X345103Y512771D02*
X342913Y514960D01*
Y514961*
X345102Y512771D02*
X345103D01*
X350168Y529306D02*
X349774D01*
Y532335*
X349713*
X353211*
Y532395*
X342913Y527559D02*
Y530709D01*
X392151Y528183D02*
X391823D01*
Y534528*
X447780Y529339D02*
X447657D01*
Y534528*
X447638*
X109843Y537008D02*
Y542913D01*
X110236*
Y547308*
X110617*
X221050Y533653D02*
Y533738D01*
X223257Y545515D02*
X220935Y547837D01*
X220934Y547838*
X220739*
X223799Y533649D02*
Y533738D01*
X213202Y533355D02*
Y533653D01*
X223256Y545514D02*
X223257Y545515D01*
X215267Y541513D02*
X215366D01*
Y543956*
X215957*
X240759Y541459D02*
X240721Y541421D01*
X239071Y543071*
X240759Y547758D02*
X240739Y547738D01*
X239124Y549353*
X239034Y543034D02*
X239071Y543071D01*
X239104Y549333D02*
X239124Y549353D01*
X236034Y533585D02*
X237609Y535160D01*
X258016Y539687D02*
X256573Y538243D01*
X256507Y538309*
X258082Y539622D02*
X258016Y539687D01*
X317717Y533858D02*
X314635D01*
X314363Y534130*
X311219*
Y534613*
X346218Y538435D02*
X346125Y538528D01*
X349804Y544812D02*
X349792D01*
Y547705*
X349713*
X342913Y537008D02*
X344791D01*
X346218Y538435*
X336614Y543307D02*
X336554D01*
Y545479*
X336494*
X342913Y543307D02*
X344419Y544812D01*
X349804*
X353348Y544616D02*
Y544812D01*
X349804*
X391823Y534528D02*
X394094D01*
X378723Y543259D02*
X378942D01*
Y546318*
X382879Y538436D02*
Y538520D01*
X385681*
X227093Y553951D02*
Y553838D01*
X231310*
Y554057*
X216396Y553034D02*
Y553191D01*
X218821*
Y553215*
X224311Y564367D02*
X224028D01*
Y567569*
X223634*
X224032Y559018D02*
Y561886D01*
X224078*
X347659Y554674D02*
Y554724D01*
X344094*
X151181Y607874D02*
X151165D01*
Y611424*
X151059*
X145276Y607874D02*
X145198D01*
Y611660*
X144694*
X139370Y607874D02*
X162992D01*
X157087D02*
X157053D01*
Y611011*
X156834*
X162992Y607874D02*
Y610717D01*
X164452Y612177*
X263312Y627341D02*
Y627562D01*
X265502*
X267454Y625806D02*
X267257D01*
X265502Y627562*
X293059Y632112D02*
Y632212D01*
X297345*
Y632227*
X303639Y631557D02*
Y631825D01*
X297345*
Y632227*
X303639Y631557D02*
X307294D01*
Y631759*
X429802Y629464D02*
X433661D01*
Y629528*
X429185Y623413D02*
X433661D01*
Y623622*
Y629528*
Y635433*
Y635515*
X429061*
X235611Y679068D02*
Y682640D01*
X235552*
X246533Y677142D02*
X246399D01*
Y681656*
X246379*
X253316Y679017D02*
Y682640D01*
X253268*
X379996Y703375D02*
X383465D01*
Y703740*
X198727Y714175D02*
X198465D01*
Y718701*
X198425*
X215002Y715663D02*
Y715905D01*
X220272*
Y715942*
X219586Y726001D02*
Y726079D01*
X214816*
X250983Y726873D02*
X250787D01*
Y733169*
X361811Y712795D02*
X361773D01*
Y717148*
X361523*
X426772Y714173D02*
X427165D01*
Y718054*
X427443*
G54D34*
X258217Y727204D02*
Y733661D01*
X257874*
X233465D02*
X229921Y737205D01*
Y743701*
X265763Y733502D02*
X265763D01*
X257874*
Y733661*
X267214Y743399D02*
X261417D01*
Y743701*
X257874Y733661D02*
X261417Y737205D01*
Y743701*
G54D35*
X233699Y728150D02*
Y733661D01*
X233465*
X223802Y743062D02*
X229921D01*
Y743701*
X226501Y733502D02*
X233465D01*
Y733661*
G54D36*
X188892Y490683D02*
Y497366D01*
X193079*
X228686Y487967D02*
Y491735D01*
X232266*
X235501Y487936D02*
Y491735D01*
X232266*
X232503Y487904D02*
Y491735D01*
X232266*
X240107Y487967D02*
X240932D01*
Y491735*
X244077*
X246670Y487967D02*
Y491735D01*
X244077*
X243956Y487841D02*
Y491735D01*
X244077*
Y495499*
X243815Y495760*
X238283*
X238022Y496021*
Y498703*
X232266Y491735D02*
X228623D01*
Y496044*
X232266Y491735D02*
Y497012D01*
X232436Y497182*
Y501377*
X252538Y487904D02*
Y491735D01*
X255888*
X259479Y487967D02*
Y491735D01*
X255888*
X255756Y487967D02*
Y491735D01*
X255888*
X253777*
X247407Y498105*
Y501291*
X206037Y498721D02*
Y504036D01*
X211500Y509499*
X217688*
X217688D02*
X228538Y520349D01*
X229098*
X229222Y520473*
X193079Y509177D02*
X180030D01*
X178274Y510933*
X161190*
X155762Y516362*
Y518035*
X193079Y509177D02*
X196130D01*
X200913Y513960*
X204054*
X206514Y516421*
Y519289*
X206638Y519413*
X209319*
X219029Y498721D02*
Y504036D01*
X223694Y508700*
Y509719*
X227680Y513705*
X228753*
X232912Y517864*
X250877Y512006D02*
X251064Y512192D01*
X255744*
X250877Y512006D02*
X246932D01*
X245316Y513622*
Y514170*
X245076Y514409*
X244472Y498522D02*
Y498703D01*
X241959*
X244366Y506594D02*
X241749D01*
X247407Y505228D02*
Y509165D01*
X244923*
X240759Y513329*
Y516702*
X241778Y502656D02*
X244274D01*
X244274D02*
Y502941D01*
X237841Y502656D02*
X237812D01*
X237812D02*
Y506594D01*
X238022Y498703D02*
X237841D01*
Y502656*
X232436Y509251D02*
Y505314D01*
Y501377*
X247407Y501291D02*
Y505228D01*
X232436Y509251D02*
Y509448D01*
X234640Y511651*
Y514548*
X237812Y506594D02*
Y511995D01*
X237718Y512089*
Y517158*
X265900Y500951D02*
X262628D01*
Y501580*
X262424Y501784*
X259940*
X265900Y506857D02*
X262370D01*
X259080Y510147*
X258904*
X258857Y510195*
X258795*
X258767Y510223*
X258722*
X258695Y510249*
X258644*
X258608Y510285*
X258518*
X258431Y510373*
X258137*
X256318Y512192*
X255744*
X314479Y501238D02*
Y501575D01*
X318504*
X339356Y506547D02*
X339341D01*
Y509091*
X186003Y523065D02*
Y523133D01*
X183225*
Y525747*
X183735*
X183225Y519196D02*
X190816D01*
Y522233*
X193701Y515418D02*
X196721Y518439D01*
Y520092*
X198863Y522233*
X202627*
X193701Y515418D02*
X173240D01*
X155762Y532897*
Y534570*
X210809Y523456D02*
X212960D01*
X213315Y523811*
X202627Y522233D02*
Y525285D01*
X206799Y529456*
X211856*
X212116Y529716*
X215889*
X209319Y519413D02*
X213256D01*
X225950Y530421D02*
X225279Y529750D01*
X221101*
X221050Y529801*
X217252Y523837D02*
X221840D01*
X223477Y525473*
X227397*
X215889Y529716D02*
X221050D01*
Y529801*
X217193Y519413D02*
X222615D01*
X226161Y522959*
X228558*
X229467Y523868*
X213256Y519413D02*
X217193D01*
X213202Y533653D02*
X215889D01*
X221050*
Y533738D02*
X223799D01*
X349804Y540875D02*
X353620D01*
Y540936*
X349804Y540875D02*
X349801Y540878D01*
X342913Y533858D02*
Y534440D01*
X345201*
X347032Y536272*
X349713*
X342913Y540157D02*
X343634Y540878D01*
X349801*
X353348Y536030D02*
Y536272D01*
X349713*
X378942Y551919D02*
X375754D01*
Y552294*
X344094Y558661D02*
X347679D01*
Y558874*
X229088Y707972D02*
Y712202D01*
X229327*
X238753*
Y712236*
Y725150D02*
X240551Y726949D01*
Y733169*
X238753Y725150D02*
X231556D01*
X230705Y726001*
X223523*
X238753Y719323D02*
Y725150D01*
X250787Y733169D02*
Y733661D01*
X257874*
X141230Y158204D03*
X135948Y192113D03*
X140983Y231539D03*
X127446Y271385D03*
X198767Y312475D03*
X213449Y307328D03*
X217839Y309902D03*
X217179Y352370D03*
X225861Y340477D03*
X212184Y348505D03*
X133374Y386214D03*
X196648Y388308D03*
X226921Y372566D03*
X217687Y388157D03*
X214358Y381843D03*
X249928Y385130D03*
X194616Y393043D03*
X217839Y416765D03*
X143661Y433890D03*
X214963Y435836D03*
X233336Y470505D03*
X164268Y474454D03*
X191985Y487964D03*
X195361Y490777D03*
X228686Y487967D03*
X235501Y487936D03*
X232503Y487904D03*
X240107Y487967D03*
X246670D03*
X243956Y487841D03*
X252538Y487904D03*
X259479Y487967D03*
X255756D03*
X418001Y481547D03*
X427294Y475637D03*
X125086Y501291D03*
X132756Y508330D03*
X228623Y496044D03*
X244472Y498522D03*
X244274Y502941D03*
X244366Y506594D03*
X138579Y531930D03*
X138501Y527360D03*
X173936Y523815D03*
X183735Y525747D03*
X186003Y523065D03*
X209319Y512961D03*
X210809Y523456D03*
X210027Y526956D03*
X217199Y512961D03*
X213463D03*
X142284Y541309D03*
X147494Y534910D03*
X166651Y544113D03*
X192326Y534942D03*
X223799Y533649D03*
X213202Y533355D03*
X226165Y536607D03*
X235313Y564113D03*
X234050Y571507D03*
X233499Y567478D03*
X360081Y562229D03*
X169403Y572529D03*
X239171Y578969D03*
X240242Y573736D03*
X427698Y578512D03*
X448228Y584339D03*
X440404D03*
X151059Y611424D03*
X144694Y611660D03*
X156834Y611011D03*
X223945Y593844D03*
X356280Y601611D03*
X231635Y642441D03*
X143146Y653800D03*
X132444Y658482D03*
X181037Y664823D03*
X416097D03*
X114540Y672554D03*
X180939Y685577D03*
X235611Y679068D03*
X325486Y681980D03*
X414001Y674379D03*
X229088Y707972D03*
X379996Y703375D03*
X233699Y728150D03*
X258217Y727204D03*
X323414Y716744D03*
X361523Y717148D03*
X354843Y715416D03*
X223802Y743062D03*
X226501Y733502D03*
X265763D03*
X267214Y743399D03*
G54D38*
X118095Y132304D03*
X357032Y172873D03*
X354159Y212077D03*
X300943Y250440D03*
X302682Y291943D03*
X227583Y323487D03*
X360412Y331886D03*
X365922Y370009D03*
X211258Y390094D03*
X192266Y392104D03*
X222198Y387810D03*
X435895Y390657D03*
X199491Y393876D03*
X232691Y393456D03*
X377436Y410816D03*
X196970Y424975D03*
X214132Y427204D03*
X247752Y424391D03*
X221012Y434505D03*
X217116Y449624D03*
X223218Y432679D03*
X247853Y433713D03*
X299380Y447380D03*
X206538Y467253D03*
X227257Y465456D03*
X223791Y454476D03*
X298821Y464483D03*
X303693Y464237D03*
X301021Y464988D03*
X305893Y464347D03*
X363453Y467411D03*
X360919Y467073D03*
X357370D03*
X365922Y467459D03*
X379113Y469301D03*
X229560Y483550D03*
X246653Y483856D03*
X243339Y484117D03*
X239851Y483768D03*
X235229Y483550D03*
X232176D03*
X258426Y484292D03*
X255112Y484204D03*
X252147Y484030D03*
X115365Y505915D03*
X146564Y505525D03*
X225000Y492500D03*
X226138Y501244D03*
X226104Y504957D03*
Y508806D03*
X251101Y498681D03*
X270514Y506457D03*
X268500Y498500D03*
X256003Y498668D03*
X253786Y505227D03*
X257554Y504958D03*
X275174Y502524D03*
X273351Y505562D03*
X276223Y500461D03*
X307454Y506791D03*
X325538Y499861D03*
X330289Y512320D03*
X314479Y501238D03*
X332035Y506198D03*
X336971Y508569D03*
X339356Y506547D03*
X375500Y504500D03*
X410000Y496500D03*
X422000Y494500D03*
X427500Y508000D03*
X418500D03*
X434500Y492500D03*
X146759Y531654D03*
X136159Y513011D03*
Y519127D03*
X135842Y524940D03*
X135814Y529957D03*
X209791Y531806D03*
X227525Y527823D03*
X229735Y518011D03*
X239184Y524136D03*
X235942Y527185D03*
Y523985D03*
X245483Y530435D03*
X248633D03*
X233052Y530385D03*
X239092D03*
X239134Y527185D03*
X251952Y524112D03*
X251717Y527312D03*
X239166Y520936D03*
X242484Y527286D03*
X245483D03*
X249505Y515894D03*
X242366Y521125D03*
X245566Y520986D03*
X247905Y514356D03*
X242442Y530486D03*
X232742Y520957D03*
X236033Y520785D03*
X237718Y517158D03*
X245589Y524187D03*
X258352Y524136D03*
X264532Y530385D03*
X264381Y523985D03*
X261231Y530435D03*
X261181Y527336D03*
X254932Y527286D03*
X254040Y514825D03*
X261231Y524136D03*
X254932Y530435D03*
X258132Y527235D03*
X252307Y517618D03*
X252051Y530427D03*
X258082Y530435D03*
X264381Y527185D03*
X279274Y530462D03*
X274085Y528927D03*
X276688Y531103D03*
X274977Y524543D03*
X310363Y515256D03*
X310764Y530413D03*
X326426Y519728D03*
X326209Y530924D03*
X330025Y528801D03*
X330254Y532104D03*
X325558Y516613D03*
X327647Y523928D03*
X330868Y522057D03*
X314479Y527073D03*
X333454Y529002D03*
X333007Y517680D03*
X348383Y524641D03*
X333374Y514480D03*
X334994Y523015D03*
X332541Y525332D03*
X345102Y512771D03*
X350168Y529306D03*
X359435Y525445D03*
X353211Y532395D03*
X385918Y528229D03*
X376850Y530395D03*
X378505Y524601D03*
X392151Y528183D03*
X412500Y515500D03*
X447780Y529339D03*
X110617Y547308D03*
X145000Y541000D03*
X135897Y536559D03*
X136159Y543122D03*
X133941Y549440D03*
X151013Y551860D03*
X144762D03*
X139011Y550928D03*
X162708Y551524D03*
X156928Y551591D03*
X210116Y535006D03*
X210930Y539268D03*
X226505Y539995D03*
X226523Y533023D03*
X226413Y549712D03*
X228700Y539614D03*
X223256Y545514D03*
X215267Y541513D03*
X215867Y538313D03*
X245483Y533585D03*
X248633Y546183D03*
X242484Y536734D03*
X236034Y546183D03*
X235834Y542983D03*
X248633Y549333D03*
X245534D03*
X245483Y546183D03*
X242334Y549333D03*
Y546183D03*
X245483Y543034D03*
X248633D03*
X236075Y549294D03*
X245470Y539787D03*
X239034Y543034D03*
X239104Y549333D03*
X236034Y533585D03*
X239184Y536734D03*
Y533585D03*
Y546234D03*
X235784Y536734D03*
X242534Y543034D03*
X248633Y533585D03*
X264381Y546234D03*
X258082Y533585D03*
X258031Y549333D03*
X254831D03*
X258082Y543034D03*
Y546183D03*
X261231Y533585D03*
Y536734D03*
X258082Y539622D03*
X264381Y533585D03*
X261231Y546183D03*
X264431Y549282D03*
X264381Y543034D03*
X261231Y549333D03*
X275260Y544718D03*
X275326Y536304D03*
X272186Y540518D03*
X278526Y535585D03*
X285973Y542626D03*
X283985Y548178D03*
X287736Y546826D03*
X311219Y534613D03*
X304657Y540257D03*
X311493Y545907D03*
X294067Y549727D03*
X325921Y535124D03*
X326119Y540874D03*
X329371Y537900D03*
X329359Y550089D03*
X314734Y537171D03*
X312133Y541707D03*
X333662Y533949D03*
X349713Y547705D03*
X346125Y538528D03*
X336494Y545479D03*
X332570Y550018D03*
X366277Y551343D03*
X353348Y544616D03*
X353620Y540936D03*
X353348Y536030D03*
X387419Y532981D03*
X385681Y538520D03*
X378723Y543259D03*
X375943Y538125D03*
X375754Y552294D03*
X404500Y546500D03*
X431000Y549500D03*
X221657Y570691D03*
X227093Y553951D03*
X216396Y553034D03*
X224078Y561886D03*
X224311Y564367D03*
X242304Y552583D03*
X232885Y555632D03*
X250581Y568520D03*
X247381Y567916D03*
X245504Y552533D03*
X240443Y567115D03*
X239104Y552482D03*
X236183D03*
X241645Y569025D03*
X243793Y571402D03*
X244181Y567035D03*
X232885Y558782D03*
X251176Y559324D03*
X248704Y552541D03*
X258114Y567773D03*
X253914Y566449D03*
X264381Y552482D03*
X264452Y566266D03*
X261589Y570800D03*
X254932Y552482D03*
X252500Y571500D03*
X261282Y552533D03*
X288832Y565203D03*
X291256Y567651D03*
X291317Y570400D03*
X282270Y565217D03*
X283600Y556876D03*
X287051Y558842D03*
X294031Y572000D03*
X293430Y559058D03*
X296058Y567620D03*
X305065Y562399D03*
X347659Y554674D03*
X347679Y558874D03*
X360412Y570491D03*
X355511Y562042D03*
X356187Y558493D03*
X364669Y571274D03*
X371031Y566875D03*
X380353Y566225D03*
X381099Y555034D03*
X377049Y563987D03*
X373190Y554256D03*
X395961Y561771D03*
X426475Y568109D03*
X150845Y582196D03*
X155255Y579652D03*
X160683Y577787D03*
X195775Y588430D03*
X205544Y574717D03*
X223474Y588482D03*
X224500Y585500D03*
X224357Y573786D03*
X245538Y581407D03*
X251547Y581253D03*
X247287Y577133D03*
X239126Y585812D03*
X235821Y579078D03*
X244521Y579313D03*
X251487Y578484D03*
X242105Y583565D03*
X243555Y585398D03*
X258895Y581267D03*
X263000Y572500D03*
X253914Y573557D03*
X270169Y573952D03*
X254695Y578385D03*
X261621Y586374D03*
X257886Y575570D03*
X268036Y575791D03*
X257400Y583410D03*
X259885Y584351D03*
X272347Y578333D03*
X310308Y584453D03*
X296564Y573519D03*
X372000Y575500D03*
X376178Y582288D03*
X396741Y577511D03*
X425851Y592294D03*
X438922Y576446D03*
X440793Y592171D03*
X131704Y604911D03*
X142177Y601512D03*
X164452Y612177D03*
X208482Y609021D03*
X232424Y609174D03*
X260071Y603688D03*
X268042Y606724D03*
X285487Y607598D03*
X280641Y607336D03*
X275664Y605372D03*
X304311Y610286D03*
X298834Y608598D03*
X426246Y596316D03*
X426345Y609582D03*
X427209Y602050D03*
X225000Y615000D03*
X270821Y628046D03*
X253500Y625500D03*
X263312Y627341D03*
X287528Y617395D03*
X289408Y619170D03*
X281368Y620945D03*
X274893D03*
X293585Y617812D03*
X307294Y631759D03*
X293059Y632112D03*
X368000Y618000D03*
X370000Y625500D03*
X429802Y629464D03*
X429185Y623413D03*
X207000Y635000D03*
X244500Y642000D03*
X248000Y635500D03*
X255500Y637000D03*
X277414Y641799D03*
X327000Y643500D03*
X318500Y635000D03*
X337000Y632500D03*
X334106Y647089D03*
X346363Y641455D03*
X346744Y633309D03*
X381500Y637000D03*
X374000Y644500D03*
X429061Y635515D03*
X131122Y668606D03*
X135117Y671381D03*
X168500Y657500D03*
X205127Y670968D03*
X241929Y669634D03*
X235047Y664106D03*
X232082Y665667D03*
X236909Y667164D03*
X241443Y662585D03*
X268000Y659500D03*
X270918Y655022D03*
X263312Y653580D03*
X272326Y653134D03*
X341187Y654854D03*
X334411Y655235D03*
X389000Y661500D03*
X155639Y681306D03*
X231000Y674500D03*
X220500Y672500D03*
X250500Y691000D03*
X238000Y677500D03*
X235500Y686000D03*
X243500Y681500D03*
X249000Y687500D03*
X243500D03*
X246533Y677142D03*
X254500Y685500D03*
X256500Y684500D03*
X258500Y679500D03*
X260500Y689500D03*
X253316Y679017D03*
X354500Y674500D03*
X361971Y691474D03*
X374000Y685000D03*
X385464Y675294D03*
X386407Y686582D03*
X396000Y674000D03*
X392059Y687056D03*
X394846Y683929D03*
X409115Y691203D03*
X429115Y686280D03*
X437656Y682646D03*
X175571Y707572D03*
X185335Y711757D03*
X208000Y711500D03*
X224000Y704500D03*
X230000Y702500D03*
X248500Y694500D03*
X236000Y702500D03*
X238352Y694148D03*
X252500Y692500D03*
X267388Y709217D03*
X281000Y694500D03*
X283200D03*
X287000D03*
X289200Y694700D03*
X282500Y709500D03*
X291000Y693389D03*
X273000Y694500D03*
X295000Y702500D03*
X293200Y694500D03*
X350097Y707790D03*
X340654Y712258D03*
X348601Y703801D03*
X340554Y703613D03*
X361500Y702500D03*
X371175Y704491D03*
X387000Y708500D03*
X376000Y709500D03*
X386220Y694630D03*
X410031Y696152D03*
X417200Y706313D03*
X429913Y693731D03*
X186265Y718267D03*
X180314Y727939D03*
X196046Y722470D03*
X205805Y721250D03*
X198727Y714175D03*
X229071Y716131D03*
X214816Y726079D03*
X215002Y715663D03*
X248263Y716061D03*
X250983Y726873D03*
X257508Y713473D03*
X283439Y718442D03*
X285070Y715265D03*
X278899Y719345D03*
X315942Y714314D03*
X427443Y718054D03*
X281023Y742704D03*
G54D52*
X231310Y557207D03*
Y554057D03*
Y550908D03*
Y547758D03*
Y544608D03*
Y541459D03*
Y538309D03*
Y535160D03*
Y532010D03*
Y528860D03*
Y525711D03*
Y522561D03*
Y519412D03*
X234460Y557207D03*
Y554057D03*
Y550908D03*
Y547758D03*
Y544608D03*
Y541459D03*
Y538309D03*
Y535160D03*
Y532010D03*
Y528860D03*
Y525711D03*
Y522561D03*
Y519412D03*
X237609Y557207D03*
Y554057D03*
Y550908D03*
Y547758D03*
Y544608D03*
Y541459D03*
Y538309D03*
Y535160D03*
Y532010D03*
Y528860D03*
Y525711D03*
Y522561D03*
Y519412D03*
X240759Y557207D03*
Y554057D03*
Y550908D03*
Y547758D03*
Y544608D03*
Y541459D03*
Y538309D03*
Y535160D03*
Y532010D03*
Y528860D03*
Y525711D03*
Y522561D03*
Y519412D03*
X243908Y557207D03*
Y554057D03*
Y550908D03*
Y547758D03*
Y544608D03*
Y541459D03*
Y538309D03*
Y535160D03*
Y532010D03*
Y528860D03*
Y525711D03*
Y522561D03*
Y519412D03*
X247058Y557207D03*
Y554057D03*
Y550908D03*
Y547758D03*
Y544608D03*
Y541459D03*
Y538309D03*
Y535160D03*
Y532010D03*
Y528860D03*
Y525711D03*
Y522561D03*
Y519412D03*
X250208Y557207D03*
Y554057D03*
Y550908D03*
Y547758D03*
Y544608D03*
Y541459D03*
Y538309D03*
Y535160D03*
Y532010D03*
Y528860D03*
Y525711D03*
Y522561D03*
Y519412D03*
X253357Y557207D03*
Y554057D03*
Y550908D03*
Y547758D03*
Y544608D03*
Y541459D03*
Y538309D03*
Y535160D03*
Y532010D03*
Y528860D03*
Y525711D03*
Y522561D03*
Y519412D03*
X256507Y557207D03*
Y554057D03*
Y550908D03*
Y547758D03*
Y544608D03*
Y541459D03*
Y538309D03*
Y535160D03*
Y532010D03*
Y528860D03*
Y525711D03*
Y522561D03*
Y519412D03*
X259656Y557207D03*
Y554057D03*
Y550908D03*
Y547758D03*
Y544608D03*
Y541459D03*
Y538309D03*
Y535160D03*
Y532010D03*
Y528860D03*
Y525711D03*
Y522561D03*
Y519412D03*
X262806Y557207D03*
Y554057D03*
Y550908D03*
Y547758D03*
Y544608D03*
Y541459D03*
Y538309D03*
Y535160D03*
Y532010D03*
Y528860D03*
Y525711D03*
Y522561D03*
Y519412D03*
X265956Y557207D03*
Y554057D03*
Y550908D03*
Y547758D03*
Y544608D03*
Y541459D03*
Y538309D03*
Y535160D03*
Y532010D03*
Y528860D03*
Y525711D03*
Y522561D03*
Y519412D03*
X269105Y557207D03*
Y554057D03*
Y550908D03*
Y547758D03*
Y544608D03*
Y541459D03*
Y538309D03*
Y535160D03*
Y532010D03*
Y528860D03*
Y525711D03*
Y522561D03*
Y519412D03*
G54D56*
X405709Y511417D03*
X410039D03*
X414370D03*
X418701D03*
X423031D03*
X427362D03*
X431693D03*
X436024D03*
X394094Y501457D03*
Y534528D03*
X447638Y501457D03*
Y534528D03*
G54D57*
X387497Y566722D03*
Y564163D03*
Y561604D03*
Y559045D03*
X364662D03*
Y561604D03*
Y564163D03*
Y566722D03*
G54D58*
X211437Y556576D03*
X189437D03*
Y566576D03*
X211437D03*
G54D59*
X160807Y570315D03*
X155807D03*
X150807D03*
X145807D03*
X140807D03*
X135807D03*
X130807D03*
X125807D03*
Y590315D03*
X130807D03*
X135807D03*
X140807D03*
X145807D03*
X150807D03*
X155807D03*
X160807D03*
G54D61*
X342913Y543307D03*
X339764D03*
X336614D03*
X324016D03*
X320866D03*
X317717D03*
X342913Y540157D03*
X339764D03*
X336614D03*
X324016D03*
X320866D03*
X317717D03*
X342913Y537008D03*
X339764D03*
X336614D03*
X324016D03*
X320866D03*
X317717D03*
X342913Y533858D03*
X339764D03*
X336614D03*
X324016D03*
X320866D03*
X317717D03*
X342913Y530709D03*
X339764D03*
X336614D03*
X324016D03*
X320866D03*
X317717D03*
X342913Y527559D03*
X339764D03*
X336614D03*
X324016D03*
X320866D03*
X317717D03*
X342913Y524409D03*
X339764D03*
X336614D03*
X324016D03*
X320866D03*
X317717D03*
X342913Y521260D03*
X339764D03*
X336614D03*
X324016D03*
X320866D03*
X317717D03*
X342913Y518110D03*
X339764D03*
X336614D03*
X324016D03*
X320866D03*
X317717D03*
X342913Y514961D03*
X339764D03*
X336614D03*
X324016D03*
X320866D03*
X317717D03*
X314219D01*
X313924Y515256*
X310363*
G54D69*
X288976Y626575D03*
Y632480D03*
X253268Y688546D03*
Y682640D03*
X297345Y626322D03*
Y632227D03*
X235552Y688546D03*
Y682640D03*
X265900Y506857D03*
Y500951D03*
G54D70*
X439567Y662992D03*
X445472D03*
X274702Y631557D03*
X280608D03*
X280118Y603937D03*
X286024D03*
X280118Y598031D03*
X286024D03*
X240473Y681656D03*
X246379D03*
X439567Y629528D03*
X433661D03*
X439567Y635433D03*
X433661D03*
X439567Y623622D03*
X433661D03*
X274702Y625652D03*
X280608D03*
X240473Y687562D03*
X246379D03*
G54D71*
X144882Y686614D03*
X169291D03*
X144882Y664961D03*
X169291D03*
G54D72*
X190816Y522233D03*
X202627D03*
G54D73*
X155762Y518035D03*
Y534570D03*
G54D74*
X240551Y733169D03*
X243110D03*
X245669D03*
X248228D03*
X250787D03*
G54D75*
X257874Y733661D03*
X233465D03*
G54D76*
X261417Y743701D03*
X229921D03*
G54D77*
X203346Y738543D03*
X193504D03*
G54D78*
X206037Y498721D03*
X219029D03*
G54D79*
X422835Y656693D03*
Y641732D03*
G54D80*
X446457Y642205D02*
X446457D01*
Y644331*
X446457*
Y642205*
Y642362D02*
X446457D01*
Y643465D02*
X446457D01*
X444488Y642205D02*
X444488D01*
Y644331*
X444488*
Y642205*
Y642362D02*
X444488D01*
Y643465D02*
X444488D01*
X442520Y642205D02*
X442520D01*
Y644331*
X442520*
Y642205*
Y642362D02*
X442520D01*
Y643465D02*
X442520D01*
X440551Y642205D02*
X440551D01*
Y644331*
X440551*
Y642205*
Y642362D02*
X440551D01*
Y643465D02*
X440551D01*
X438583Y642205D02*
X438583D01*
Y644331*
X438583*
Y642205*
Y642362D02*
X438583D01*
Y643465D02*
X438583D01*
X436614Y642205D02*
X436614D01*
Y644331*
X436614*
Y642205*
Y642362D02*
X436614D01*
Y643465D02*
X436614D01*
X434646Y642205D02*
X434646D01*
Y644331*
X434646*
Y642205*
Y642362D02*
X434646D01*
Y643465D02*
X434646D01*
Y654094D02*
X434646D01*
Y656220*
X434646*
Y654094*
Y654488D02*
X434646D01*
Y655591D02*
X434646D01*
X436614Y654094D02*
X436614D01*
Y656220*
X436614*
Y654094*
Y654488D02*
X436614D01*
Y655591D02*
X436614D01*
X438583Y654094D02*
X438583D01*
Y656220*
X438583*
Y654094*
Y654488D02*
X438583D01*
Y655591D02*
X438583D01*
X440551Y654094D02*
X440551D01*
Y656220*
X440551*
Y654094*
Y654488D02*
X440551D01*
Y655591D02*
X440551D01*
X442520Y654094D02*
X442520D01*
Y656220*
X442520*
Y654094*
Y654488D02*
X442520D01*
Y655591D02*
X442520D01*
X444488Y654094D02*
X444488D01*
Y656220*
X444488*
Y654094*
Y654488D02*
X444488D01*
Y655591D02*
X444488D01*
X446457Y654094D02*
X446457D01*
Y656220*
X446457*
Y654094*
Y654488D02*
X446457D01*
Y655591D02*
X446457D01*
G54D81*
X440551Y649213D03*
G54D82*
X203236Y542277D03*
X177646D03*
G54D83*
X229222Y520473D02*
X231310Y522561D01*
X232912Y517864D02*
X234460Y519412D01*
G54D84*
X347507Y530325D02*
X349516Y532335D01*
X349713*
X347507Y530325D02*
X342913D01*
Y530709*
G54D85*
X229219Y555354D02*
X228293D01*
X227092Y556554*
X229142Y557404D02*
Y688862D01*
X245669Y705389*
Y733169*
X227092Y556554D02*
Y689753D01*
X243110Y705771*
Y733169*
X231310Y557207D02*
Y557404D01*
X229142*
X0Y0D02*
M02*
