*
*
G04 PADS 9.3 Build Number: 433611 generated Gerber (RS-274-X) file*
G04 PC Version=2.1*
*
%IN "opencalc.pcb"*%
*
%MOIN*%
*
%FSDAX44Y44*%
*
*
*
*
G04 PC Standard Apertures*
*
*
G04 Thermal Relief Aperture macro.*
%AMTER*
1,1,$1,0,0*
1,0,$1-$2,0,0*
21,0,$3,$4,0,0,45*
21,0,$3,$4,0,0,135*
%
*
*
G04 Annular Aperture macro.*
%AMANN*
1,1,$1,0,0*
1,0,$2,0,0*
%
*
*
G04 Odd Aperture macro.*
%AMODD*
1,1,$1,0,0*
1,0,$1-0.005,0,0*
%
*
*
G04 PC Custom Aperture Macros*
*
*
*
*
*
*
G04 PC Aperture Table*
*
%ADD010C,0.001*%
%ADD011C,0.01*%
%ADD012C,0.012*%
%ADD013C,0.005*%
%ADD015C,0.00787*%
%ADD016C,0.09843*%
%ADD017R,0.01969X0.02362*%
%ADD018R,0.02362X0.01969*%
%ADD019R,0.03937X0.02362*%
%ADD020R,0.02362X0.03937*%
%ADD022R,0.06X0.06*%
%ADD023C,0.06*%
%ADD024R,0.05709X0.04528*%
%ADD026R,0.1063X0.04528*%
%ADD027C,0.10236*%
%ADD028C,0.02953*%
%ADD029C,0.08661*%
%ADD033C,0.01181*%
%ADD034C,0.04*%
%ADD035C,0.03*%
%ADD036C,0.02*%
%ADD052C,0.01378*%
%ADD056R,0.02362X0.04134*%
%ADD057R,0.05906X0.01772*%
%ADD058R,0.05X0.05*%
%ADD059R,0.02992X0.06299*%
%ADD061C,0.01575*%
%ADD069R,0.03543X0.02362*%
%ADD070R,0.02362X0.03543*%
%ADD071R,0.09055X0.09646*%
%ADD072R,0.04528X0.1063*%
%ADD073R,0.06102X0.09449*%
%ADD074R,0.01575X0.05315*%
%ADD075R,0.08268X0.06299*%
%ADD076R,0.07087X0.0748*%
%ADD078R,0.07087X0.17717*%
%ADD079R,0.07874X0.04921*%
%ADD080C,0.01102*%
%ADD081R,0.15748X0.0622*%
%ADD082R,0.09843X0.11811*%
%ADD083C,0.013*%
%ADD085C,0.0085*%
%ADD088R,0.02756X0.05118*%
%ADD089R,0.06299X0.22441*%
%ADD090O,0.03543X0.01378*%
%ADD091R,0.06299X0.09449*%
%ADD092R,0.01181X0.0315*%
%ADD093R,0.01181X0.02559*%
%ADD094R,0.01575X0.0374*%
%ADD095R,0.05118X0.02756*%
%ADD096C,0.03937*%
%ADD097R,0.22441X0.06299*%
%ADD099C,0.01969*%
%ADD100C,0.01802*%
%ADD101C,0.022*%
%ADD102C,0.025*%
%ADD103C,0.018*%
*
*
*
*
G04 PC Circuitry*
G04 Layer Name opencalc.pcb - circuitry*
%LPD*%
*
*
G04 PC Custom Flashes*
G04 Layer Name opencalc.pcb - flashes*
%LPD*%
*
*
G04 PC Circuitry*
G04 Layer Name opencalc.pcb - circuitry*
%LPD*%
*
G54D10*
G54D11*
G01X00026048Y00050761D02*
X00026014D01*
X00026014D02*
X00025745Y00051030D01*
X00025745D02*
X00025470D01*
X00025320Y00051180*
X00024811*
X00024560Y00051431*
Y00051581*
X00024390Y00051750*
X00024390D02*
Y00051941D01*
X00034370Y00050558D02*
Y00050970D01*
X00034330*
X00023131Y00052571D02*
X00023446D01*
X00021757Y00051792D02*
X00022307D01*
X00022307D02*
X00022764Y00052249D01*
X00022764D02*
X00022809D01*
X00022809D02*
X00023131Y00052571D01*
X00024550Y00052430D02*
X00024545Y00052425D01*
X00024395Y00052575*
X00023770Y00051470D02*
X00023765D01*
Y00051941*
X00023760*
X00024390Y00052571D02*
X00024395Y00052575D01*
X00026440Y00052730D02*
X00026439Y00052729D01*
X00026281Y00052886*
X00026281*
X00027249Y00053083D02*
X00027266Y00053100D01*
X00027266D02*
X00027525D01*
X00027910Y00052980D02*
X00027645D01*
X00027525Y00053100*
X00023920Y00053370D02*
X00023916Y00053366D01*
X00023916D02*
X00023764Y00053519D01*
X00023758Y00053833D02*
X00023592Y00053667D01*
X00023592D02*
X00023590Y00053670D01*
X00024880Y00055250D02*
X00024875Y00055245D01*
X00025025Y00055095*
X00025020Y00055090D02*
X00025025Y00055095D01*
X00023760Y00053516D02*
X00023764Y00053519D01*
X00023760Y00053830D02*
X00023758Y00053833D01*
X00026450Y00053360D02*
X00026446Y00053356D01*
X00026446D02*
X00026284Y00053519D01*
X00026120Y00054310D02*
X00026119Y00054309D01*
X00026281Y00054146*
X00026280Y00053516D02*
X00026284Y00053519D01*
X00026280Y00054145D02*
X00026281Y00054146D01*
X00036660Y00054120D02*
Y00054140D01*
X00036973*
X00035984Y00054094D02*
X00036338D01*
X00036363Y00054120*
X00036363D02*
X00036660D01*
X00036973Y00054140D02*
X00036980D01*
Y00054380*
X00023190Y00055960D02*
X00023194Y00055964D01*
X00023446Y00055720D02*
X00023441Y00055716D01*
X00023441D02*
X00023194Y00055964D01*
X00013937Y00064527D02*
X00013917Y00064547D01*
Y00064931*
X00015315Y00064940D02*
X00014699D01*
X00014699D02*
X00014453Y00065187D01*
X00014453D02*
X00013917D01*
X00044055Y00064921D02*
X00043038D01*
X00043019Y00064940*
X00043019D02*
X00042700D01*
X00044055Y00065515D02*
Y00065850D01*
X00043956Y00065948*
X00010787Y00074566D02*
Y00074576D01*
X00010787D02*
X00011503D01*
G54D12*
X00022690Y00052960D02*
X00022785D01*
X00022785D02*
X00022875Y00053050D01*
X00022875D02*
X00022980D01*
X00023131Y00053201*
X00023464Y00051454D02*
Y00051664D01*
X00023545Y00051745*
X00024030Y00051630D02*
Y00051710D01*
X00024075Y00051755*
X00024075D02*
Y00051941D01*
X00023446Y00052256D02*
X00023442Y00052253D01*
X00023442D02*
X00023593Y00052103D01*
X00023590Y00052100D02*
X00023593Y00052103D01*
X00031070Y00053050D02*
Y00053070D01*
X00031430*
X00031430*
X00031430D02*
X00031771D01*
X00031340Y00052700D02*
Y00052740D01*
X00031550*
X00031565Y00052755*
X00031565D02*
X00031771D01*
X00031350Y00054180D02*
X00031500Y00054330D01*
X00031500D02*
X00031771D01*
Y00053700D02*
Y00053705D01*
X00031771D02*
X00031420D01*
Y00053710*
X00037520Y00053840D02*
X00037894D01*
Y00053843*
X00037908Y00053279D02*
Y00053281D01*
X00037908D02*
X00037630D01*
Y00053290*
X00027210Y00065240D02*
Y00065210D01*
X00026810*
X00026660Y00065360*
X00026330*
X00028169Y00074059D02*
X00027949Y00074278D01*
X00027949D02*
X00027741D01*
X00028160Y00074050D02*
X00028169Y00074059D01*
G54D13*
X00015216Y00012460D02*
X00016380Y00013624D01*
Y00046600*
X00015216Y00012460D02*
X00015219Y00012464D01*
X00020728Y00012460D02*
Y00013224D01*
X00020728D02*
X00020141Y00013811D01*
X00020141D02*
Y00014849D01*
X00020728Y00012460D02*
X00020729Y00012464D01*
X00026239D02*
Y00012637D01*
X00026239D02*
X00025510Y00013367D01*
Y00016410*
X00031020Y00013192D02*
Y00015664D01*
X00031020D02*
X00031749Y00016394D01*
X00031752Y00012460D02*
X00031020Y00013192D01*
X00037259Y00012464D02*
X00036510Y00013213D01*
X00036510D02*
Y00016440D01*
X00042775Y00012460D02*
Y00013224D01*
X00042775D02*
X00042188Y00013811D01*
X00042188D02*
Y00014849D01*
X00042775Y00012460D02*
X00042779Y00012464D01*
X00011890Y00013270D02*
Y00031755D01*
X00011610Y00032035*
Y00050520*
X00015216Y00014232D02*
X00013450Y00015998D01*
X00020141Y00014849D02*
X00020728Y00015436D01*
Y00016397*
X00042188Y00014849D02*
X00042775Y00015436D01*
X00042775D02*
Y00016397D01*
X00013560Y00016800D02*
Y00021841D01*
X00013560D02*
X00013630Y00021911D01*
X00013630D02*
Y00046787D01*
X00013630D02*
X00013880Y00047037D01*
X00013450Y00015998D02*
Y00024443D01*
X00013480Y00024473*
X00014140Y00016220D02*
X00013560Y00016800D01*
X00015219Y00016394D02*
X00015216Y00016397D01*
X00015216D02*
Y00017161D01*
X00015216D02*
X00014629Y00017748D01*
X00014629D02*
Y00018786D01*
X00020728Y00016397D02*
X00020729Y00016394D01*
X00020729D02*
X00020728Y00016397D01*
X00020728D02*
Y00017161D01*
X00020728D02*
X00020141Y00017748D01*
X00020141D02*
Y00018786D01*
X00025510Y00016410D02*
Y00019440D01*
X00026240Y00020170*
Y00020334*
X00026239Y00016394D02*
Y00016410D01*
X00026239D02*
X00025510D01*
X00031749Y00016394D02*
X00030960Y00017183D01*
X00030960D02*
Y00019542D01*
X00036510Y00016440D02*
Y00020060D01*
X00035730Y00017240D02*
Y00042906D01*
X00035990Y00043166*
Y00046530*
X00037259Y00016394D02*
X00036664D01*
X00036618Y00016440*
X00036510*
X00042775Y00016397D02*
X00042779Y00016394D01*
X00042779D02*
X00042775Y00016397D01*
X00042775D02*
Y00017161D01*
X00042775D02*
X00042188Y00017748D01*
X00042188D02*
Y00018786D01*
X00014629D02*
X00015216Y00019373D01*
X00015216D02*
Y00020334D01*
X00013750Y00019200D02*
Y00042457D01*
X00013990Y00042697*
X00020141Y00018786D02*
X00020728Y00019373D01*
X00020728D02*
Y00020334D01*
X00042188Y00018786D02*
X00042775Y00019373D01*
X00042775D02*
Y00020334D01*
X00015216D02*
X00015219D01*
X00015219D02*
X00015216D01*
X00015216D02*
Y00021098D01*
X00015216D02*
X00014629Y00021685D01*
X00014629D02*
Y00022723D01*
X00020728Y00020334D02*
X00020729D01*
X00020729D02*
X00020728D01*
X00020728D02*
Y00021098D01*
X00020728D02*
X00020141Y00021685D01*
X00020141D02*
Y00022723D01*
X00025230Y00021344D02*
X00026240Y00020334D01*
X00026240D02*
X00026239D01*
X00030960Y00019542D02*
X00031752Y00020334D01*
X00031752D02*
X00030980Y00021106D01*
X00030980D02*
Y00022670D01*
X00036510Y00020060D02*
X00036610D01*
X00036640Y00020089*
X00036640D02*
Y00020301D01*
X00036640D02*
X00036672Y00020334D01*
X00036672D02*
X00037259D01*
X00036510Y00020060D02*
Y00024240D01*
X00035310Y00021160D02*
Y00033785D01*
X00035540Y00034015*
Y00046640*
X00042775Y00020334D02*
X00042779D01*
X00042779D02*
Y00021098D01*
X00042779D02*
X00042190Y00021688D01*
Y00022722*
X00014629Y00022723D02*
X00015216Y00023310D01*
X00015216D02*
Y00024271D01*
X00015216D02*
X00015219Y00024274D01*
X00014080Y00023240D02*
Y00033035D01*
X00014111Y00033067*
X00014111D02*
Y00052930D01*
X00020141Y00022723D02*
X00020728Y00023310D01*
X00020728D02*
Y00024271D01*
X00020728D02*
X00020729Y00024274D01*
X00025230Y00021344D02*
Y00024100D01*
X00025250*
X00030980Y00022670D02*
X00031749Y00023439D01*
X00031749D02*
Y00024274D01*
X00042548Y00023080D02*
X00042779Y00023311D01*
X00042779D02*
Y00024274D01*
X00042548Y00023080D02*
X00042190Y00023438D01*
Y00026657*
Y00022722D02*
X00042548Y00023080D01*
X00013480Y00024473D02*
Y00038556D01*
X00013420Y00038616*
Y00038900*
X00015216Y00024271D02*
Y00025035D01*
X00015216D02*
X00014629Y00025622D01*
X00014629D02*
Y00026660D01*
X00015216Y00024271D02*
X00015219Y00024274D01*
X00020728Y00024271D02*
Y00025035D01*
X00020728D02*
X00020141Y00025622D01*
X00020141D02*
Y00026660D01*
X00020728Y00024271D02*
X00020729Y00024274D01*
X00025250Y00024100D02*
Y00028170D01*
X00025379*
X00025250Y00024100D02*
X00025440D01*
X00025614Y00024274*
X00026239*
X00029990Y00025080D02*
Y00034925D01*
X00029990D02*
X00030080Y00035015D01*
X00030080D02*
Y00046440D01*
X00031749Y00024274D02*
X00030930Y00025093D01*
X00030930D02*
Y00027386D01*
X00036510Y00024240D02*
Y00028020D01*
X00036510D02*
X00036599Y00028110D01*
Y00028130*
X00036510Y00024240D02*
X00036620D01*
X00036654Y00024274*
X00037259*
X00013170Y00027090D02*
Y00027579D01*
X00013250Y00027659*
X00014629Y00026660D02*
X00015216Y00027247D01*
X00015216D02*
Y00028208D01*
X00020141Y00026660D02*
X00020728Y00027247D01*
X00020728D02*
Y00028208D01*
X00042190Y00026657D02*
X00042779Y00027246D01*
X00042779D02*
Y00028204D01*
X00013250Y00027659D02*
Y00038452D01*
X00013230Y00038472*
X00015216Y00028208D02*
X00015219Y00028204D01*
X00015219D02*
X00015216Y00028208D01*
X00015216D02*
Y00028973D01*
X00015216D02*
X00014629Y00029559D01*
X00014629D02*
Y00030597D01*
X00020728Y00028973D02*
X00021519Y00029764D01*
X00021519D02*
Y00031550D01*
X00020728Y00028208D02*
X00020729Y00028204D01*
X00020729D02*
X00020728Y00028208D01*
X00020728D02*
Y00028973D01*
X00025379Y00028170D02*
Y00031415D01*
X00025379D02*
X00026110Y00032145D01*
X00026110D02*
X00026240D01*
X00025379Y00028170D02*
X00025549D01*
X00025583Y00028204*
X00026239*
X00030940Y00029020D02*
Y00031334D01*
X00030940D02*
X00031749Y00032144D01*
X00030930Y00027386D02*
X00031752Y00028208D01*
X00030240Y00029230D02*
Y00037750D01*
X00030390Y00037900*
Y00046420*
X00031752Y00028208D02*
X00030940Y00029020D01*
X00036599Y00032070D02*
Y00028130D01*
X00036599D02*
X00036672Y00028204D01*
X00036672D02*
X00037259D01*
X00042779D02*
Y00028968D01*
X00042779D02*
X00042192Y00029555D01*
X00014629Y00030597D02*
X00015216Y00031184D01*
X00015216D02*
Y00032145D01*
X00021290Y00030860D02*
X00020990D01*
X00019836Y00032014*
X00042192Y00029555D02*
Y00030594D01*
X00042192D02*
X00042779Y00031181D01*
X00042779D02*
Y00032144D01*
X00015216Y00032145D02*
X00015219Y00032144D01*
X00015219D02*
X00015216Y00032145D01*
X00015216D02*
Y00032910D01*
X00015216D02*
X00014629Y00033496D01*
X00014629D02*
Y00034534D01*
X00019836Y00032014D02*
Y00035437D01*
X00019836D02*
X00019870Y00035471D01*
X00019870D02*
Y00038750D01*
X00019550Y00032113D02*
Y00039130D01*
X00019560Y00039140*
X00019560D02*
Y00039409D01*
X00019850Y00031390D02*
Y00031813D01*
X00019850D02*
X00019550Y00032113D01*
X00021519Y00031550D02*
X00021323D01*
X00021323D02*
X00020729Y00032144D01*
X00021519Y00031550D02*
Y00032190D01*
X00021519D02*
X00021600D01*
Y00034121*
X00021600D02*
X00020809Y00034912D01*
X00020809D02*
Y00036084D01*
X00020809D02*
X00020729D01*
X00022350Y00032910D02*
Y00035415D01*
X00022930Y00035995*
X00022810Y00032450D02*
X00022350Y00032910D01*
X00026240Y00032145D02*
X00025550Y00032835D01*
X00025550D02*
Y00036140D01*
X00026239Y00032144D02*
X00026240Y00032145D01*
X00031749Y00032144D02*
X00030740Y00033153D01*
X00030740D02*
Y00035070D01*
X00036599Y00032070D02*
Y00033427D01*
X00036670Y00033498*
Y00034532*
X00037259Y00035121*
X00037259D02*
Y00036084D01*
X00036599Y00032070D02*
X00036672Y00032144D01*
X00036672D02*
X00037259D01*
X00036030Y00033230D02*
Y00039865D01*
X00036030D02*
X00036170Y00040005D01*
X00036170D02*
Y00046710D01*
X00042779Y00032144D02*
X00042775Y00032145D01*
X00042775D02*
Y00032910D01*
X00042775D02*
X00042188Y00033496D01*
X00042188D02*
Y00034534D01*
X00014629D02*
X00015216Y00035121D01*
X00015216D02*
Y00036082D01*
X00015216D02*
X00015219Y00036084D01*
X00021290Y00034940D02*
Y00035469D01*
X00021290D02*
X00021490Y00035669D01*
X00021490D02*
Y00038110D01*
X00022540Y00034060D02*
X00025000Y00036520D01*
Y00038490*
X00030740Y00035070D02*
X00031752Y00036082D01*
X00042188Y00034534D02*
X00042775Y00035121D01*
X00042775D02*
Y00036082D01*
X00042775D02*
X00042779Y00036084D01*
X00015216Y00036082D02*
Y00036847D01*
X00015216D02*
X00014629Y00037433D01*
X00014629D02*
Y00038471D01*
X00015216Y00036082D02*
X00015219Y00036084D01*
X00020728Y00036082D02*
Y00036847D01*
X00020141Y00037433*
X00020141D02*
Y00038471D01*
X00020728Y00036082D02*
X00020729Y00036084D01*
X00022930Y00035995D02*
Y00046180D01*
X00022540Y00046570*
X00025550Y00036140D02*
Y00039329D01*
X00025550D02*
X00026240Y00040019D01*
X00026239Y00036084D02*
X00025652D01*
X00025652D02*
Y00036137D01*
X00025652D02*
X00025650Y00036140D01*
X00025550*
X00031752Y00036082D02*
X00031010Y00036824D01*
X00031010D02*
Y00038540D01*
X00036560Y00036600D02*
Y00040740D01*
X00036560D02*
X00036390Y00040910D01*
X00036390D02*
Y00046330D01*
X00037259Y00036084D02*
Y00036848D01*
X00037259D02*
X00037850Y00037438D01*
X00042775Y00036082D02*
Y00036847D01*
X00042775D02*
X00042188Y00037433D01*
X00042188D02*
Y00038471D01*
X00042775Y00036082D02*
X00042779Y00036084D01*
X00013230Y00038472D02*
Y00039367D01*
X00013230D02*
X00013260Y00039397D01*
X00013260D02*
Y00050850D01*
X00014629Y00038471D02*
X00015216Y00039058D01*
X00015216D02*
Y00040019D01*
X00015216D02*
X00015219Y00040024D01*
X00020141Y00038471D02*
X00020728Y00039058D01*
X00020728D02*
Y00040019D01*
X00020728D02*
X00020729Y00040024D01*
X00022740Y00037350D02*
Y00037790D01*
X00021800Y00038730*
X00022270Y00039050D02*
Y00040990D01*
X00022130Y00041130*
Y00043070*
X00025000Y00038490D02*
Y00040345D01*
X00024750Y00040595*
Y00042430*
X00031010Y00038540D02*
X00031749Y00039279D01*
X00031749D02*
Y00040024D01*
X00037850Y00037438D02*
Y00038471D01*
X00037259Y00039061*
X00037259D02*
Y00040024D01*
X00042188Y00038471D02*
X00042775Y00039058D01*
X00042775D02*
Y00040019D01*
X00042775D02*
X00042779Y00040024D01*
X00043650Y00039010D02*
Y00044089D01*
X00043650D02*
X00042775Y00044964D01*
X00015219Y00040024D02*
Y00040788D01*
X00015219D02*
X00014630Y00041378D01*
Y00042407*
X00020728Y00040019D02*
Y00040784D01*
X00020141Y00041370*
X00020141D02*
Y00042408D01*
X00020728Y00040019D02*
X00020729Y00040024D01*
X00019560Y00039409D02*
X00019430Y00039540D01*
X00020000Y00039300D02*
Y00040965D01*
X00019800Y00041165*
Y00042830*
X00026240Y00040019D02*
X00025530Y00040729D01*
X00025530D02*
Y00043246D01*
X00026240Y00040019D02*
X00026239Y00040024D01*
X00031749D02*
X00030980Y00040793D01*
X00030980D02*
Y00042480D01*
X00037810Y00040990D02*
Y00041331D01*
X00037990Y00041511*
Y00047190*
X00037259Y00040024D02*
Y00040788D01*
X00037259D02*
X00036670Y00041378D01*
Y00043362*
X00013990Y00042697D02*
Y00051873D01*
X00013990D02*
X00013633Y00052230D01*
X00013633D02*
X00013222D01*
X00013222D02*
X00012952Y00052500D01*
X00012952D02*
Y00052519D01*
X00014630Y00042407D02*
X00015219Y00042996D01*
X00015219D02*
Y00043954D01*
X00020141Y00042408D02*
X00020728Y00042995D01*
X00020728D02*
Y00043956D01*
X00021530Y00042720D02*
Y00043121D01*
X00021530D02*
X00021330Y00043321D01*
X00021330D02*
Y00046120D01*
X00020880Y00046570*
X00025530Y00043246D02*
X00026240Y00043956D01*
X00030980Y00042480D02*
X00031749Y00043249D01*
X00031749D02*
Y00043954D01*
X00014370Y00043330D02*
Y00044470D01*
X00014370D02*
X00014220Y00044620D01*
X00014220D02*
Y00053123D01*
X00014120Y00053223*
Y00053570*
X00015219Y00043954D02*
Y00044718D01*
X00015219D02*
X00014350Y00045588D01*
X00020729Y00043954D02*
X00020728Y00043956D01*
X00022260Y00043290D02*
Y00044245D01*
X00022520Y00044505*
Y00045460*
X00029860Y00044710D02*
Y00045620D01*
X00029790Y00045690*
Y00046600*
X00031752Y00043956D02*
X00030740Y00044968D01*
X00030740D02*
Y00046360D01*
X00031749Y00043954D02*
X00031752Y00043956D01*
X00036670Y00043362D02*
X00037263Y00043956D01*
X00037259Y00043954D02*
X00036760Y00044453D01*
X00036760D02*
Y00044749D01*
X00036760D02*
X00036560Y00044950D01*
X00042775Y00044964D02*
Y00045728D01*
X00014350Y00045588D02*
Y00053439D01*
X00014510Y00053599*
Y00053790*
X00013880Y00047037D02*
Y00051473D01*
X00013880D02*
X00013693Y00051660D01*
X00013693D02*
X00012889D01*
X00012720Y00051829*
Y00051929*
X00036390Y00046330D02*
X00036700Y00046640D01*
X00036940Y00046970D02*
Y00049820D01*
X00037560Y00050440*
X00042779Y00045725D02*
X00042775Y00045728D01*
X00023153Y00047954D02*
X00023390D01*
Y00048370*
X00024930Y00048630D02*
Y00049154D01*
X00024930D02*
X00024597D01*
Y00047973D02*
X00024660D01*
X00024660D02*
Y00048420D01*
X00026903Y00048883D02*
X00026628Y00049158D01*
X00026628D02*
X00026022D01*
X00026888Y00048868D02*
X00026903Y00048883D01*
X00026022Y00049158D02*
X00025717D01*
X00025385Y00049490*
X00025082*
X00025082D02*
X00024738Y00049834D01*
X00024738D02*
Y00049854D01*
X00026022Y00047977D02*
X00026030D01*
Y00048510*
X00014610Y00050560D02*
Y00051920D01*
X00014520Y00052010*
Y00053370*
X00013260Y00050850D02*
Y00051035D01*
X00012964Y00051330*
X00012964D02*
Y00051338D01*
X00012964D02*
X00012952D01*
X00022830Y00050398D02*
Y00050491D01*
X00022830D02*
X00022657D01*
X00022645Y00050503*
X00022645D02*
X00022480D01*
X00022480D02*
Y00050520D01*
X00022846Y00049799D02*
Y00049837D01*
X00022846D02*
X00022470D01*
X00022470D02*
Y00049860D01*
X00024560Y00050100D02*
X00024548Y00050088D01*
X00024750Y00049886*
X00024526Y00050626D02*
X00024530Y00050630D01*
X00024754Y00050374D02*
Y00050398D01*
X00024754D02*
X00024526Y00050626D01*
X00024754Y00050374D02*
X00024751D01*
X00024902Y00050545D02*
Y00050735D01*
X00024902D02*
X00024740Y00050896D01*
X00024740D02*
Y00050916D01*
X00024767Y00050374D02*
X00024751D01*
X00024544Y00050116D02*
X00024767Y00050338D01*
X00024767D02*
Y00050374D01*
X00024560Y00050100D02*
X00024544Y00050116D01*
X00024470Y00049820D02*
Y00049837D01*
X00024214*
X00024214D02*
Y00049867D01*
X00024450Y00050880D02*
X00024188D01*
X00024188D02*
Y00050898D01*
X00024470Y00050380D02*
X00024194D01*
X00024194D02*
Y00050397D01*
X00025144Y00050374D02*
X00025218D01*
X00025218D02*
Y00050650D01*
X00024751Y00050374D02*
Y00050394D01*
X00024902Y00050545*
X00023800Y00050397D02*
Y00050898D01*
X00023800D02*
X00023795D01*
X00023821Y00049867D02*
X00023800D01*
X00023800D02*
Y00050397D01*
X00023240Y00049799D02*
X00023220D01*
X00023220D02*
Y00050100D01*
X00023220D02*
X00023200D01*
X00024738Y00049854D02*
X00024750D01*
Y00049886*
X00026048Y00050741D02*
Y00050761D01*
X00025728Y00050450D02*
Y00050761D01*
X00025728D02*
X00025655D01*
X00025728Y00050450D02*
X00025720D01*
X00025218Y00050650D02*
X00025210D01*
X00025207*
X00025207D02*
Y00050916D01*
X00025207D02*
X00025134D01*
X00026548Y00049988D02*
X00026489D01*
X00026489D02*
X00026299Y00050178D01*
X00026299D02*
X00025994D01*
X00026548Y00050579D02*
X00026211D01*
X00026048Y00050741*
X00026048D02*
Y00050761D01*
X00027340Y00050340D02*
X00027435D01*
X00027555Y00050460*
X00032410*
X00027710Y00050210D02*
X00029605D01*
X00029755Y00050360*
X00032366*
X00030387Y00051039D02*
X00030467Y00051120D01*
X00030467D02*
X00030926D01*
X00030387Y00051039D02*
X00026401D01*
X00026401D02*
X00026078Y00051363D01*
X00025985*
X00025724Y00051624*
X00025652*
X00025652D02*
X00025335Y00051941D01*
X00030528Y00050820D02*
X00030618Y00050910D01*
X00030806*
X00030528Y00050820D02*
X00026321D01*
X00025991Y00051150*
X00025820*
X00025680Y00051290*
X00030305Y00051139D02*
X00030385Y00051220D01*
X00030991*
X00030305Y00051139D02*
X00026450D01*
X00026450D02*
X00026124Y00051465D01*
X00026124D02*
X00026043D01*
X00026043D02*
X00025748Y00051760D01*
X00025748D02*
X00025687D01*
X00025687D02*
X00025650Y00051797D01*
X00025650D02*
Y00051941D01*
X00030222Y00051240D02*
X00030312Y00051330D01*
X00030312D02*
X00031046D01*
X00030222Y00051240D02*
X00026500D01*
X00026173Y00051566*
X00026173D02*
X00026103D01*
X00026103D02*
X00025803Y00051866D01*
X00025803D02*
Y00052103D01*
X00025650Y00052256*
X00030458Y00050930D02*
X00030548Y00051020D01*
X00030861*
X00030458Y00050930D02*
X00026361D01*
X00026031Y00051260*
X00025945*
X00025745Y00051460*
X00032433Y00051109D02*
X00032920Y00051596D01*
Y00051793*
X00032920D02*
X00033041Y00051915D01*
X00033272*
X00033272D02*
X00033483Y00052126D01*
X00033483D02*
X00033661D01*
X00032433Y00051109D02*
X00030936D01*
X00030936D02*
X00030926Y00051120D01*
X00032401Y00051496D02*
X00032115Y00051209D01*
X00032115D02*
X00031001D01*
X00031001D02*
X00030991Y00051220D01*
X00032590Y00051000D02*
X00033010Y00051420D01*
X00033010D02*
X00033270D01*
X00033661Y00051811*
X00032590Y00051000D02*
X00030881D01*
X00030881D02*
X00030861Y00051020D01*
X00032440Y00049920D02*
X00032233Y00050127D01*
X00032233D02*
Y00050157D01*
X00032233D02*
X00032244D01*
X00032430Y00049910D02*
X00032440Y00049920D01*
X00032590Y00050660D02*
X00032984D01*
X00032984D02*
Y00050664D01*
Y00050270D02*
Y00050289D01*
X00032984D02*
X00033360D01*
X00033360D02*
Y00050310D01*
X00033315Y00050490D02*
X00034130Y00051304D01*
X00034130D02*
Y00051501D01*
X00033315Y00050490D02*
X00032524D01*
X00032444Y00050570*
X00028984*
X00028974Y00050580*
X00027270*
X00034321Y00049930D02*
X00034710Y00050318D01*
Y00051707*
X00034321Y00049930D02*
X00032796D01*
X00032796D02*
X00032366Y00050360D01*
X00034273Y00049740D02*
X00034870Y00050336D01*
X00034870D02*
Y00052470D01*
X00034273Y00049740D02*
X00027840D01*
X00027540Y00050040*
X00034607Y00050357D02*
X00034289Y00050039D01*
X00034289D02*
X00033949D01*
X00033949D02*
X00033897Y00050091D01*
X00033897D02*
X00032779D01*
X00032779D02*
X00032410Y00050460D01*
X00033413Y00050730D02*
X00033976Y00051292D01*
X00033976D02*
Y00051496D01*
X00033413Y00050730D02*
X00033264D01*
X00033124Y00050870*
X00030846*
X00030846D02*
X00030806Y00050910D01*
X00034607Y00050357D02*
Y00050802D01*
X00034607D02*
X00034530Y00050880D01*
Y00051572*
X00034291Y00051811*
X00033350Y00050900D02*
Y00051150D01*
X00033480Y00051280*
X00037560Y00050440D02*
Y00051600D01*
X00037560D02*
X00037400Y00051760D01*
X00037400D02*
Y00053293D01*
X00041000Y00049650D02*
Y00050333D01*
X00041003Y00050337*
X00041003D02*
Y00051141D01*
X00040570D02*
Y00052896D01*
X00040570D02*
X00040450Y00053017D01*
Y00054650*
X00042200Y00049450D02*
Y00050183D01*
X00042303Y00050286*
X00042303D02*
Y00051141D01*
X00041840Y00050680D02*
Y00051141D01*
X00041840D02*
X00041870D01*
X00043169D02*
Y00053072D01*
X00043100Y00053141*
Y00054950*
X00041437Y00051141D02*
X00041376D01*
X00041376D02*
Y00051423D01*
X00041376D02*
X00041250Y00051550D01*
X00043360Y00049290D02*
Y00050036D01*
X00043602Y00050278*
X00043602D02*
Y00051141D01*
X00012720Y00051929D02*
X00012952D01*
X00012952D02*
Y00051909D01*
X00011378Y00051338D02*
X00011968D01*
X00011378Y00051929D02*
X00011968D01*
X00011378Y00052519D02*
X00011968D01*
X00011378Y00053110D02*
X00011968D01*
X00012362Y00051338D02*
X00012952D01*
X00012362Y00051929D02*
X00012720D01*
X00012362Y00052519D02*
X00012952D01*
X00012362Y00053110D02*
X00012952D01*
X00013990Y00053070D02*
X00013830Y00052910D01*
X00013133*
X00012952Y00053090*
X00012952D02*
Y00053110D01*
X00013990Y00053070D02*
X00013980Y00053060D01*
X00013980D02*
X00014111Y00052930D01*
X00013710Y00052490D02*
X00013346D01*
Y00052519*
X00013670Y00053080D02*
X00013346D01*
Y00053110*
Y00051338D02*
Y00051340D01*
X00013700*
X00013346Y00051929D02*
Y00051950D01*
X00013680*
X00018330Y00052470D02*
Y00052483D01*
X00018046*
Y00052495*
X00020705Y00051376D02*
Y00051392D01*
X00020705D02*
X00020420D01*
X00020420D02*
Y00051410D01*
X00022740Y00052520D02*
X00022950Y00052730D01*
X00023590*
X00021736Y00052383D02*
Y00052593D01*
X00021736D02*
X00021620Y00052710D01*
X00022540D02*
X00022757D01*
X00022757D02*
X00022933Y00052886D01*
X00022933D02*
X00023131D01*
X00022630Y00053210D02*
X00022865D01*
X00022865D02*
X00023005Y00053350D01*
X00023005D02*
X00023297D01*
X00021725Y00052383D02*
Y00052403D01*
X00021717Y00052411*
X00021217Y00051370D02*
X00021470D01*
X00021470D02*
X00021498Y00051398D01*
X00021498D02*
X00021757D01*
X00021217Y00051370D02*
X00020705D01*
X00020705D02*
Y00051376D01*
X00023757Y00052889D02*
X00023593Y00052726D01*
X00023593D02*
X00023590Y00052730D01*
X00023758Y00052573D02*
X00023602Y00052417D01*
X00023602D02*
X00023600Y00052420D01*
X00024700Y00052261D02*
X00024534Y00052095D01*
X00024534D02*
X00024530Y00052100D01*
X00025018Y00053203D02*
X00024852Y00053037D01*
X00024852D02*
X00024850Y00053040D01*
X00024389Y00052887D02*
X00024241Y00052738D01*
X00024241D02*
X00024240Y00052740D01*
X00023545Y00051745D02*
X00023590Y00051790D01*
Y00052100*
X00023917Y00052092D02*
X00024078Y00052253D01*
X00024078D02*
X00024075Y00052256D01*
X00024390D02*
X00024394Y00052252D01*
X00024394D02*
X00024246Y00052103D01*
X00023757Y00052259D02*
X00023923Y00052426D01*
X00023923D02*
X00023920Y00052430D01*
X00023916Y00053033D02*
X00024079Y00053197D01*
X00024079D02*
X00024075Y00053201D01*
X00024556Y00053043D02*
X00024709Y00053197D01*
X00024709D02*
X00024705Y00053201D01*
X00023927Y00052732D02*
X00024078Y00052883D01*
X00024078D02*
X00024075Y00052886D01*
X00024549Y00052730D02*
X00024705Y00052886D01*
X00024705D02*
X00024705D01*
X00024604Y00051839D02*
X00024705Y00051941D01*
X00024850Y00051730D02*
Y00052426D01*
X00024850D02*
X00024705Y00052571D01*
X00024850Y00051730D02*
X00024840D01*
X00025020Y00052571D02*
Y00052570D01*
X00025020D02*
X00025170Y00052420D01*
X00025020Y00052886D02*
X00025016Y00052881D01*
X00025016D02*
X00025164Y00052734D01*
X00024560Y00053040D02*
X00024556Y00053043D01*
X00023290Y00053040D02*
X00023599D01*
X00023599D02*
X00023760Y00053201D01*
X00023920Y00053030D02*
X00023916Y00053033D01*
X00023930Y00052730D02*
X00023927Y00052732D01*
X00025170Y00052420D02*
X00025170D01*
X00025160Y00052730D02*
X00025164Y00052734D01*
X00023920Y00052090D02*
X00023917Y00052092D01*
X00024550Y00052730D02*
X00024549D01*
X00024250Y00052100D02*
X00024246Y00052103D01*
X00024840Y00051420D02*
X00024694Y00051565D01*
X00024694D02*
Y00051636D01*
X00024604Y00051726*
Y00051839*
X00025020Y00053201D02*
X00025018Y00053203D01*
X00024705Y00052256D02*
X00024700Y00052261D01*
X00024390Y00052886D02*
X00024389Y00052887D01*
X00023760Y00052256D02*
X00023757Y00052259D01*
X00023760Y00052571D02*
X00023758Y00052573D01*
X00023760Y00052886D02*
X00023757Y00052889D01*
X00023446Y00053201D02*
X00023297Y00053350D01*
X00025510Y00052730D02*
X00025505Y00052725D01*
X00025340Y00052890*
X00025500Y00053040D02*
X00025499Y00053039D01*
X00025336Y00053201*
X00025820Y00052420D02*
X00025815Y00052415D01*
X00025655Y00052575*
X00025820Y00052730D02*
X00025816Y00052726D01*
X00025816D02*
X00025654Y00052889D01*
X00026120Y00052740D02*
X00026117Y00052737D01*
X00026117D02*
X00025967Y00052888D01*
X00027193Y00051560D02*
X00027213Y00051580D01*
X00029782*
X00030172Y00051970*
X00031930*
X00031930D02*
X00032086Y00052126D01*
X00027193Y00051560D02*
X00026608D01*
X00026280Y00051887*
X00026280D02*
Y00051941D01*
X00026440Y00053060D02*
X00026435Y00053055D01*
X00026285Y00053205*
X00026846Y00051666D02*
X00026870Y00051690D01*
X00029504*
X00029504D02*
X00029940Y00052126D01*
X00029940D02*
X00031771D01*
X00026846Y00051666D02*
X00026643D01*
X00026643D02*
X00026440Y00051870D01*
Y00052096*
X00026440D02*
X00026280Y00052256D01*
X00025425Y00051410D02*
X00025475Y00051460D01*
X00025745*
X00025425Y00051410D02*
X00025156D01*
X00025020Y00051545*
X00025020D02*
Y00051941D01*
X00025948Y00051923D02*
X00025965Y00051941D01*
Y00052571D02*
X00025961Y00052566D01*
X00025961D02*
X00026124Y00052404D01*
X00025965Y00053201D02*
X00025964Y00053199D01*
X00026121Y00053041*
X00026280Y00052571D02*
X00026277Y00052568D01*
X00026277D02*
X00026442Y00052402D01*
X00026440Y00052400D02*
X00026442Y00052402D01*
X00026120Y00053040D02*
X00026121Y00053041D01*
X00026120Y00052400D02*
X00026124Y00052404D01*
X00025220Y00051580D02*
Y00051799D01*
X00025180Y00051839*
Y00052096*
X00025180D02*
X00025020Y00052256D01*
X00026910Y00052571D02*
X00027487D01*
X00027646Y00052730*
X00027776*
X00026910Y00052886D02*
X00027157D01*
X00027157D02*
X00027171Y00052900D01*
X00027171D02*
X00027440D01*
X00026910Y00053201D02*
X00027122D01*
X00027122D02*
X00027151Y00053229D01*
X00027151D02*
X00029938D01*
X00029938D02*
X00031299Y00054590D01*
X00032515*
X00026280Y00053201D02*
X00026285Y00053205D01*
X00025965Y00052886D02*
X00025967Y00052888D01*
X00025650Y00052571D02*
X00025655Y00052575D01*
X00025650Y00052886D02*
X00025654Y00052889D01*
X00025335Y00052886D02*
X00025340Y00052890D01*
X00025335Y00053201D02*
X00025336D01*
X00029097Y00051797D02*
X00029584Y00052283D01*
X00031929*
X00032086Y00052440*
X00029097Y00051797D02*
X00026739D01*
X00026595Y00051941*
X00028586Y00052087D02*
X00028987Y00052488D01*
X00028987D02*
X00031493D01*
X00031493D02*
X00031603Y00052598D01*
X00031603D02*
X00031929D01*
X00032086Y00052755*
X00028586Y00052087D02*
X00026764D01*
X00026595Y00052256*
X00028051Y00052340D02*
X00028601Y00052890D01*
X00029913*
X00030663Y00053640*
X00031225*
X00028051Y00052340D02*
X00027415D01*
X00027345Y00052410*
X00026756*
X00026756D02*
X00026595Y00052571D01*
X00028080Y00052810D02*
X00028150Y00052880D01*
Y00053050*
X00028080Y00052810D02*
X00027842D01*
X00027812Y00052840*
X00027504Y00052730D02*
X00027614Y00052840D01*
X00027812*
X00027504Y00052730D02*
X00026751D01*
X00026751D02*
X00026595Y00052886D01*
X00027249Y00053083D02*
X00027216Y00053050D01*
X00027216D02*
X00026746D01*
X00026746D02*
X00026595Y00053201D01*
X00028841Y00051941D02*
X00029285Y00052385D01*
X00029285D02*
X00031552D01*
X00031552D02*
X00031607Y00052440D01*
X00031607D02*
X00031771D01*
X00028841Y00051941D02*
X00027875D01*
X00027875D02*
X00027875D01*
X00027875D02*
X00026910D01*
X00028170Y00052700D02*
X00028590Y00053120D01*
X00028590D02*
X00029985D01*
X00029985D02*
X00030635Y00053770D01*
X00030635D02*
X00031210D01*
X00031320Y00053880*
X00031586*
X00028170Y00052700D02*
X00027806D01*
X00027776Y00052730*
X00028335Y00052230D02*
X00028875Y00052770D01*
X00031097*
X00031237Y00052910*
X00031797*
X00031797D02*
X00031805Y00052917D01*
X00031932*
X00031932D02*
X00032086Y00053070D01*
X00028335Y00052230D02*
X00027233D01*
X00027233D02*
X00027207Y00052256D01*
X00027207D02*
X00026910D01*
X00030111Y00051350D02*
X00030411Y00051650D01*
X00030411D02*
X00031828D01*
X00031930Y00051751*
X00031930D02*
Y00051808D01*
X00031932Y00051811*
X00031932D02*
X00032086D01*
X00030111Y00051350D02*
X00026534D01*
X00026194Y00051690*
X00026181*
X00026181D02*
X00025948Y00051923D01*
X00029941Y00051459D02*
X00030292Y00051811D01*
X00030292D02*
X00031771D01*
X00029941Y00051459D02*
X00026566D01*
X00026566D02*
X00026234Y00051791D01*
X00026234D02*
X00026226D01*
X00026226D02*
X00026123Y00051895D01*
Y00052098*
X00026123D02*
X00025965Y00052256D01*
X00032796Y00052493D02*
X00032415Y00052112D01*
X00032401Y00052126*
X00031803Y00051310D02*
X00031930Y00051436D01*
X00031930D02*
Y00051557D01*
X00032023Y00051650*
X00032143*
X00032247Y00051754*
X00032247D02*
Y00051811D01*
X00032247D02*
X00032401D01*
X00031803Y00051310D02*
X00031066D01*
X00031066D02*
X00031046Y00051330D01*
X00032980Y00052290D02*
Y00052543D01*
X00032980D02*
X00032873Y00052650D01*
X00032640Y00051950D02*
X00032980Y00052290D01*
X00032710Y00053040D02*
Y00053055D01*
X00032401*
X00032401D02*
Y00053070D01*
X00033100Y00052800D02*
X00032929Y00052970D01*
X00032929D02*
Y00053054D01*
X00032753Y00053230*
X00032753D02*
X00032242D01*
X00032086Y00053385*
X00033070Y00053170D02*
X00032953Y00053286D01*
X00033090Y00051730D02*
X00033309D01*
X00033549Y00051970*
X00033820*
X00033976Y00052126*
X00032810Y00052480D02*
X00032796Y00052493D01*
X00032086Y00051496D02*
X00032240D01*
X00032244Y00051499*
X00032244D02*
Y00051556D01*
X00032337Y00051650*
X00032337D02*
X00032516D01*
X00032526Y00051660*
X00032750*
X00032401Y00052440D02*
X00032610Y00052650D01*
X00032610D02*
X00032873D01*
X00032401Y00052755D02*
X00032728D01*
X00032728D02*
X00032732Y00052760D01*
X00032905*
X00033976Y00053385D02*
X00033820Y00053230D01*
X00033820D02*
X00033587D01*
X00033505Y00053311*
X00033505D02*
X00033448D01*
X00033448D02*
X00033310Y00053450D01*
X00033480Y00052820D02*
X00033570Y00052910D01*
X00033570D02*
X00033815D01*
X00033815D02*
X00033976Y00053070D01*
X00033480Y00052820D02*
X00033390D01*
Y00052990*
X00034710Y00051707D02*
X00034291Y00052126D01*
X00034130Y00051501D02*
Y00051657D01*
X00033976Y00051811*
X00033661Y00051496D02*
X00033670Y00051487D01*
X00033471Y00051288*
X00033480Y00051280D02*
X00033471Y00051288D01*
X00033450Y00052320D02*
X00033540D01*
X00033661Y00052440*
X00033260Y00052560D02*
X00033480D01*
X00033480D02*
X00033520Y00052600D01*
X00033520D02*
X00033820D01*
X00033976Y00052755*
X00033200Y00052100D02*
Y00052325D01*
X00033200D02*
X00033090Y00052435D01*
X00033090D02*
Y00052575D01*
X00032905Y00052760*
X00034610Y00052810D02*
X00034493Y00052926D01*
X00034640Y00053050D02*
Y00053060D01*
X00034291*
Y00053070*
X00033976Y00052440D02*
X00034135Y00052600D01*
X00034700*
X00034790Y00052690*
X00035404*
X00035404D02*
X00035800Y00053085D01*
X00034291Y00052440D02*
X00034560D01*
X00034560D02*
X00034589Y00052470D01*
X00034589D02*
X00034870D01*
X00034291Y00052755D02*
Y00052909D01*
X00034291D02*
Y00052910D01*
X00034291D02*
X00034410D01*
X00034426Y00052926*
X00034426D02*
X00034493D01*
X00033661Y00053070D02*
X00033592D01*
X00033592D02*
X00033473Y00053190D01*
X00033296*
X00033070Y00053416*
X00035761Y00053214D02*
Y00053662D01*
X00035761D02*
X00035800Y00053700D01*
X00035800D02*
Y00053963D01*
Y00053085D02*
Y00053176D01*
X00035761Y00053214*
X00012952Y00054271D02*
Y00054291D01*
X00011378Y00053700D02*
X00011968D01*
X00011378Y00054291D02*
X00011968D01*
X00012362Y00053700D02*
X00012952D01*
X00012362Y00054291D02*
X00012952D01*
X00013666Y00053500D02*
X00013736Y00053570D01*
X00013736D02*
X00014120D01*
X00013666Y00053500D02*
X00013133D01*
X00013133D02*
X00012952Y00053681D01*
X00012952D02*
Y00053700D01*
X00014510Y00053790D02*
X00014099D01*
X00013859Y00054030*
X00013194*
X00012952Y00054271*
X00012952D02*
Y00054291D01*
X00013340Y00054960D02*
Y00054971D01*
X00013340D02*
X00013012D01*
X00013012D02*
Y00054983D01*
X00015050Y00055080D02*
Y00055245D01*
X00015103Y00055298*
X00015103D02*
Y00055472D01*
X00015103D02*
X00015118D01*
X00014560Y00055120D02*
Y00055472D01*
X00014527*
X00013910Y00055140D02*
Y00055472D01*
X00013937*
X00013346Y00053700D02*
Y00053793D01*
X00013346D02*
X00013630D01*
X00013630D02*
Y00053800D01*
X00013346Y00054291D02*
Y00054384D01*
X00013660*
Y00054400*
X00016710Y00054370D02*
Y00057845D01*
X00016710D02*
X00016730Y00057865D01*
X00016270Y00055120D02*
Y00055472D01*
X00016299*
X00015610Y00055140D02*
X00015615D01*
X00015615D02*
Y00055472D01*
X00015615D02*
X00015708D01*
X00017764Y00054227D02*
X00018733D01*
X00018733D02*
X00019398Y00054893D01*
X00019398D02*
X00021044D01*
X00020999Y00053560D02*
X00021139Y00053700D01*
X00021139D02*
X00022013D01*
X00022013D02*
X00022353Y00054040D01*
X00022353D02*
X00022445D01*
X00022645Y00054240*
X00022773*
X00020999Y00053560D02*
X00019668D01*
X00019668D02*
X00019508Y00053720D01*
X00019508D02*
X00019190D01*
X00021090Y00053860D02*
X00021300D01*
X00021300D02*
X00021610Y00054170D01*
X00021610D02*
X00022195D01*
X00022295Y00054270*
X00022389*
X00022389D02*
X00022579Y00054460D01*
X00022579D02*
X00022837D01*
X00020930Y00053340D02*
X00021180Y00053590D01*
X00022120*
X00022120D02*
X00022220Y00053690D01*
X00022220D02*
X00022485D01*
X00022555Y00053760*
X00022718*
X00021180Y00054350D02*
Y00054373D01*
X00021180D02*
X00021540D01*
X00021540D02*
Y00054395D01*
X00020323Y00054227D02*
X00020890D01*
X00020890D02*
X00020950Y00054286D01*
X00020950D02*
Y00054353D01*
X00020950D02*
X00021166Y00054570D01*
X00021690*
X00022907Y00054790D02*
X00023037Y00054920D01*
X00023037D02*
X00023301D01*
X00022907Y00054790D02*
X00022564D01*
X00022564D02*
X00022284Y00055070D01*
X00022284D02*
X00021826D01*
X00021720Y00055176*
X00023131Y00054775D02*
X00023029Y00054674D01*
X00022522*
X00022236Y00054960*
X00021720Y00055176D02*
Y00055688D01*
X00021908Y00055876*
X00021908D02*
Y00056123D01*
X00022410Y00053860D02*
Y00053870D01*
X00022819*
X00021670Y00053950D02*
X00022119D01*
X00022119D02*
X00022319Y00054150D01*
X00022319D02*
X00022412D01*
X00022412D02*
X00022612Y00054350D01*
X00022612D02*
X00022805D01*
X00022810Y00054960D02*
X00022553D01*
X00022110Y00055403*
Y00056315*
X00022110D02*
X00021890Y00056534D01*
X00021890D02*
Y00056799D01*
Y00055240D02*
X00021908D01*
Y00055517*
X00021924*
X00023131Y00053516D02*
X00022962D01*
X00022718Y00053760*
X00023131Y00054145D02*
Y00054170D01*
X00022985*
X00022985D02*
X00022805Y00054350D01*
X00023131Y00054460D02*
X00022979D01*
X00022979D02*
X00022870Y00054570D01*
X00023131Y00055090D02*
X00022949D01*
X00022949D02*
X00022910Y00055130D01*
X00022910D02*
X00022534D01*
X00022340Y00055324*
Y00055517*
X00022318*
X00021540Y00054789D02*
X00021749D01*
X00021920Y00054960*
X00022236*
X00021540Y00054789D02*
X00021148D01*
X00021148D02*
X00021044Y00054893D01*
X00022073Y00054390D02*
X00022366D01*
X00022546Y00054570*
X00022870*
X00022073Y00054390D02*
X00021869D01*
X00021869D02*
X00021690Y00054570D01*
X00025019Y00053517D02*
X00024871Y00053368D01*
X00024871D02*
X00024870Y00053370D01*
X00023446Y00054460D02*
X00023295Y00054310D01*
X00022987*
X00022987D02*
X00022837Y00054460D01*
X00023760Y00055090D02*
X00023760D01*
X00023760D02*
X00023610Y00055240D01*
X00023760Y00054145D02*
X00023756Y00054141D01*
X00023756D02*
X00023604Y00054294D01*
X00024075Y00055090D02*
X00024074Y00055089D01*
X00023911Y00055251*
X00024390Y00055090D02*
X00024387Y00055087D01*
X00024387D02*
X00024222Y00055252D01*
X00024705Y00054145D02*
X00024702Y00054143D01*
X00024702D02*
X00024552Y00054292D01*
X00025020Y00054145D02*
X00025016Y00054141D01*
X00025016D02*
X00024864Y00054294D01*
X00025020Y00054460D02*
X00025020D01*
X00024870Y00054610*
X00025020Y00054775D02*
X00025016Y00054771D01*
X00025016D02*
X00024864Y00054924D01*
X00024705Y00053516D02*
X00024708Y00053513D01*
X00024547Y00053352*
X00024079Y00054464D02*
X00023916Y00054626D01*
X00023916D02*
X00023920Y00054630D01*
X00023765Y00054465D02*
X00023605Y00054625D01*
X00023610Y00054630*
Y00054940D02*
X00023606Y00054936D01*
X00023606D02*
X00023764Y00054779D01*
X00023920Y00053690D02*
X00023915Y00053685D01*
X00024080Y00053520*
X00024240Y00054940D02*
X00024236Y00054936D01*
X00024236D02*
X00024394Y00054779D01*
X00024560Y00054620D02*
X00024556Y00054616D01*
X00024556D02*
X00024709Y00054464D01*
X00024560Y00055250D02*
X00024556Y00055246D01*
X00024556D02*
X00024709Y00055094D01*
X00024560Y00054930D02*
X00024557Y00054927D01*
X00024557D02*
X00024707Y00054777D01*
X00025177Y00054937D02*
X00025180Y00054940D01*
X00024240Y00054630D02*
X00024235Y00054625D01*
X00024395Y00054465*
X00024237Y00053672D02*
X00024393Y00053828D01*
X00024390Y00053830*
X00024550Y00053350D02*
X00024547Y00053352D01*
X00024240Y00053670D02*
X00024237Y00053672D01*
X00023600Y00054290D02*
X00023604Y00054294D01*
X00023610Y00055240D02*
X00023610D01*
X00024550Y00054290D02*
X00024552Y00054292D01*
X00024870Y00054610D02*
X00024870D01*
X00024860Y00054920D02*
X00024864Y00054924D01*
X00024860Y00054290D02*
X00024864Y00054294D01*
X00024240Y00054300D02*
X00024241Y00054302D01*
X00025020Y00053516D02*
X00025019Y00053517D01*
X00024705Y00054460D02*
X00024709Y00054464D01*
X00024705Y00054775D02*
X00024707Y00054777D01*
X00024705Y00055090D02*
X00024709Y00055094D01*
X00024390Y00054145D02*
X00024241Y00054302D01*
X00024390Y00054460D02*
X00024395Y00054465D01*
X00024390Y00054775D02*
X00024394Y00054779D01*
X00024075Y00053516D02*
X00024080Y00053520D01*
X00024075Y00054460D02*
X00024079Y00054464D01*
X00023760Y00054460D02*
X00023765Y00054465D01*
X00023764Y00054779D02*
X00023760Y00054775D01*
X00023760D02*
X00023761D01*
X00023446Y00053516D02*
X00023291Y00053670D01*
X00023291D02*
X00023019D01*
X00022819Y00053870*
X00023446Y00053830D02*
X00023286Y00053990D01*
X00023286D02*
X00023023D01*
X00023023D02*
X00022773Y00054240D01*
X00023446Y00054775D02*
X00023301Y00054920D01*
X00023446Y00055090D02*
X00023296Y00055240D01*
X00023296D02*
X00022626D01*
X00022510Y00055356*
Y00057095*
X00022510D02*
X00022450Y00057155D01*
X00022450D02*
Y00057520D01*
X00026130Y00054940D02*
X00025965Y00054775D01*
X00025965D02*
X00025965D01*
X00026136Y00055253D02*
X00025969Y00055087D01*
X00025965Y00055090*
X00025800Y00054610D02*
X00025650Y00054460D01*
X00025650D02*
X00025650D01*
X00025800Y00055240D02*
X00025650Y00055090D01*
X00025650D02*
X00025650D01*
X00026120Y00053680D02*
X00026119Y00053679D01*
X00025966Y00053831*
X00026439Y00054620D02*
X00026280Y00054460D01*
X00026280D02*
X00026280D01*
X00026436Y00054923D02*
X00026284Y00054772D01*
X00026280Y00054775*
X00026928Y00055073D02*
X00027925Y00056070D01*
X00028210*
X00028850Y00056710*
X00026928Y00055073D02*
X00026910Y00055090D01*
X00026768Y00054078D02*
X00026671Y00053981D01*
X00026671D02*
X00026129D01*
X00026129D02*
X00025965Y00054145D01*
X00026578Y00054163D02*
X00026750Y00054335D01*
Y00054504*
X00026866Y00054620*
X00027258*
X00027258D02*
X00027988Y00055350D01*
X00027988D02*
X00029218D01*
X00029358Y00055490*
X00033738*
X00026768Y00054078D02*
Y00054081D01*
X00026768D02*
X00026760Y00054090D01*
Y00054199*
X00026861Y00054300*
X00027400*
X00027710Y00054610*
X00025500Y00054940D02*
X00025496Y00054936D01*
X00025496D02*
X00025654Y00054779D01*
X00025337Y00054777D02*
X00025177Y00054937D01*
X00025650Y00053516D02*
X00025646Y00053511D01*
X00025646D02*
X00025794Y00053364D01*
X00025647Y00054149D02*
X00025813Y00054316D01*
X00025813D02*
X00025810Y00054320D01*
X00025965Y00053516D02*
Y00053515D01*
X00025965D02*
X00026120Y00053360D01*
X00025964Y00054462D02*
X00026131Y00054628D01*
X00026131D02*
X00026130Y00054630D01*
X00026278Y00055093D02*
X00026442Y00055257D01*
X00026446Y00054303D02*
X00026599Y00054457D01*
X00026595Y00054460*
X00026440Y00054620D02*
X00026439D01*
X00025790Y00053360D02*
X00025794Y00053364D01*
X00025800Y00054610D02*
X00025800D01*
Y00055240D02*
X00025800D01*
X00026120Y00053360D02*
X00026120D01*
X00027120Y00054090D02*
X00027064Y00054145D01*
X00027064D02*
X00026910D01*
X00026440Y00054920D02*
X00026436Y00054923D01*
X00026450Y00054300D02*
X00026446Y00054303D01*
X00026130Y00054940D02*
X00026130D01*
X00026910Y00054460D02*
X00027258D01*
X00027258D02*
X00027718Y00054920D01*
X00028040*
X00026910Y00054775D02*
X00027085D01*
X00027085D02*
X00027280Y00054970D01*
X00026595Y00053830D02*
X00026739D01*
X00026739D02*
X00026750Y00053841D01*
Y00053874*
X00026856Y00053980*
X00026980*
X00026595Y00054145D02*
X00026578Y00054163D01*
X00026595Y00054775D02*
X00026749Y00054930D01*
X00026749D02*
X00026979D01*
X00026979D02*
X00027539Y00055490D01*
X00027539D02*
X00028593D01*
X00028593D02*
X00029590Y00056486D01*
Y00056840*
X00026595Y00055090D02*
X00026754Y00055250D01*
X00026754D02*
X00026961D01*
X00027887Y00056176*
X00027887D02*
X00027936D01*
X00027936D02*
X00028170Y00056410D01*
X00026280Y00055090D02*
X00026278Y00055093D01*
X00025965Y00053830D02*
X00025966Y00053831D01*
X00025965Y00054460D02*
X00025964Y00054462D01*
X00025650Y00054145D02*
X00025647Y00054149D01*
X00025650Y00054775D02*
X00025654Y00054779D01*
X00025335Y00054775D02*
X00025337Y00054777D01*
X00025335Y00055090D02*
X00025490Y00055245D01*
Y00055766*
X00025660Y00055936*
Y00056272*
X00026010Y00056622*
Y00057075*
X00028894Y00053819D02*
X00030124Y00055049D01*
X00030124D02*
X00032716D01*
X00028894Y00053819D02*
X00028402D01*
X00028402D02*
X00028306Y00053915D01*
X00027335Y00053810D02*
X00027441Y00053915D01*
X00028306*
X00027335Y00053810D02*
X00026910D01*
X00026910D02*
Y00053830D01*
X00028773Y00053920D02*
X00030123Y00055270D01*
X00030123D02*
X00033343D01*
X00028773Y00053920D02*
X00028455D01*
X00028355Y00054020*
X00027243Y00053920D02*
X00027343Y00054020D01*
X00027343D02*
X00028355D01*
X00027243Y00053920D02*
X00027040D01*
X00027040D02*
X00026980Y00053980D01*
X00029059Y00053719D02*
X00030284Y00054945D01*
X00030284D02*
X00032584D01*
X00029059Y00053719D02*
X00028349D01*
X00028349D02*
X00028278Y00053790D01*
X00028278D02*
X00027983D01*
X00027983D02*
X00027958Y00053815D01*
X00027380Y00053680D02*
X00027490Y00053790D01*
X00027526*
X00027551Y00053815*
X00027551D02*
X00027958D01*
X00027380Y00053680D02*
X00026431D01*
X00026431D02*
X00026280Y00053830D01*
X00027853Y00053450D02*
X00027903Y00053500D01*
X00028150*
X00027853Y00053450D02*
X00027581D01*
X00027581D02*
X00027515Y00053516D01*
X00027515D02*
X00026910D01*
X00027710Y00054610D02*
X00027985D01*
X00028585Y00055210*
X00029843*
X00030013Y00055380*
X00033375*
X00027670Y00053620D02*
X00027935D01*
X00027935D02*
X00027981Y00053665D01*
X00028240*
X00029224Y00053334D02*
X00030276Y00054387D01*
X00030932*
X00030932D02*
X00031235Y00054690D01*
X00031235D02*
X00032556D01*
X00029224Y00053334D02*
X00027267D01*
X00027267D02*
X00027244Y00053358D01*
X00026753*
X00026595Y00053516*
X00029224Y00053619D02*
X00030449Y00054845D01*
X00032543*
X00029224Y00053619D02*
X00028285D01*
X00028285D02*
X00028240Y00053665D01*
X00031130Y00053960D02*
Y00053980D01*
X00031438*
X00031438D02*
X00031474Y00054015D01*
X00031474D02*
X00031771D01*
X00032086Y00053700D02*
X00031925Y00053540D01*
X00031925D02*
X00031325D01*
X00031225Y00053640*
X00032086Y00054015D02*
X00031930Y00053860D01*
X00031930D02*
X00031606D01*
X00031606D02*
X00031586Y00053880D01*
X00032401Y00054330D02*
X00032240Y00054170D01*
X00032240D02*
X00031932D01*
X00031771Y00054330*
X00032566Y00053543D02*
X00032405Y00053382D01*
X00032401Y00053385*
X00033070Y00053416D02*
Y00053544D01*
X00033205Y00053679*
X00032953Y00053286D02*
Y00053569D01*
X00033105Y00053721*
Y00053858*
X00032473Y00054490*
X00032570Y00053540D02*
X00032566Y00053543D01*
X00032920Y00053800D02*
X00032637D01*
X00032627Y00053809*
X00032401Y00053700D02*
X00032510Y00053809D01*
X00032510D02*
X00032627D01*
X00032401Y00054015D02*
Y00054032D01*
X00032401D02*
X00032640D01*
X00032640D02*
Y00054050D01*
X00032086Y00054330D02*
X00032245Y00054490D01*
X00032245D02*
X00032473D01*
X00033976Y00053700D02*
X00033822Y00053546D01*
X00033822D02*
X00033597D01*
X00033597D02*
X00033405Y00053739D01*
X00033405D02*
Y00053982D01*
X00033405D02*
X00032543Y00054845D01*
X00033205Y00053679D02*
Y00053899D01*
X00033205D02*
X00032515Y00054590D01*
X00034130Y00054169D02*
Y00054625D01*
X00033375Y00055380*
X00033661Y00053385D02*
X00033617D01*
X00033617D02*
X00033305Y00053697D01*
X00033305D02*
Y00053941D01*
X00032556Y00054690*
X00034291Y00053385D02*
X00034599D01*
X00034599D02*
X00034829Y00053615D01*
X00034829D02*
X00035176D01*
X00033661Y00053700D02*
X00033505Y00053856D01*
X00033505D02*
Y00054024D01*
X00033505D02*
X00032584Y00054945D01*
X00033661Y00054015D02*
X00033432Y00054244D01*
X00033432D02*
Y00054333D01*
X00033432D02*
X00032716Y00055049D01*
X00033976Y00054015D02*
X00034130Y00054169D01*
X00034291Y00054015D02*
X00034493D01*
X00034493D02*
X00034553Y00054075D01*
X00034553D02*
X00035185D01*
X00033976Y00054330D02*
Y00054637D01*
X00033343Y00055270*
X00035185Y00054075D02*
Y00054094D01*
X00035185D02*
X00035379D01*
X00035424Y00054140*
X00035424D02*
X00035590D01*
X00035800Y00054235D02*
X00035788Y00054246D01*
X00035788D02*
X00035780D01*
X00035500Y00054526*
Y00054643*
X00035500D02*
X00035043Y00055100D01*
X00035043D02*
X00034128D01*
X00033738Y00055490*
X00035761Y00054002D02*
Y00054186D01*
X00035761D02*
X00035800Y00054225D01*
Y00054235*
Y00053963D02*
X00035761Y00054002D01*
X00035984Y00054094D02*
X00036005D01*
Y00054420*
X00035840*
X00036610Y00055150D02*
Y00055456D01*
X00036466Y00055599*
X00036466D02*
Y00055904D01*
X00035480Y00053590D02*
Y00053603D01*
X00035176*
X00035176D02*
Y00053615D01*
X00035984Y00053307D02*
Y00054094D01*
X00037400Y00053293D02*
X00037666Y00053560D01*
X00037933*
X00038090Y00053716*
X00038090D02*
Y00054104D01*
X00038090D02*
X00038287Y00054302D01*
X00038287D02*
Y00054631D01*
X00038302Y00053279D02*
Y00053310D01*
X00038550*
X00038287Y00054631D02*
Y00055191D01*
X00014527Y00055866D02*
Y00056314D01*
X00014527D02*
X00014580Y00056367D01*
X00014580D02*
Y00057031D01*
X00015118Y00055866D02*
Y00056321D01*
X00015118D02*
X00015080Y00056359D01*
X00015080D02*
Y00057031D01*
X00013937Y00055866D02*
Y00056268D01*
X00013937D02*
X00014080Y00056412D01*
X00014080D02*
Y00057031D01*
X00016299Y00055866D02*
Y00056231D01*
X00016080Y00056449*
X00016080D02*
Y00057031D01*
X00015708Y00055866D02*
Y00056276D01*
X00015708D02*
X00015580Y00056404D01*
X00015580D02*
Y00057031D01*
X00021000Y00056657D02*
X00021450D01*
X00021450D02*
X00021592Y00056799D01*
X00021890*
X00021000Y00055657D02*
X00021465Y00056123D01*
X00021908*
X00022921Y00055535D02*
X00022946Y00055560D01*
X00022946D02*
X00023280D01*
X00022358Y00056440D02*
Y00056799D01*
X00022284*
X00022358Y00056440D02*
X00022340D01*
X00022302Y00056123D02*
X00022320D01*
X00022320D02*
Y00056440D01*
X00022320D02*
X00022340D01*
X00023446Y00055405D02*
X00023443Y00055402D01*
X00023443D02*
X00023282Y00055562D01*
X00025000Y00055942D02*
Y00056261D01*
X00025090Y00056351*
Y00056680*
X00025180Y00056770*
Y00057003*
X00025040Y00057143*
Y00057813*
X00025040D02*
X00024920Y00057933D01*
X00024920D02*
X00024861D01*
X00024861D02*
X00024855Y00057939D01*
X00024855D02*
Y00058039D01*
X00024246Y00056386D02*
X00024450Y00056590D01*
Y00056920*
X00024290Y00056799D02*
X00024170Y00056919D01*
Y00057110*
X00025191Y00055715D02*
Y00055809D01*
X00025191D02*
X00025340Y00055957D01*
X00024560Y00055570D02*
X00024555Y00055565D01*
X00024710Y00055410*
X00025026Y00056863D02*
X00025010Y00056880D01*
X00024876Y00055715D02*
Y00056427D01*
X00024876D02*
X00024945Y00056495D01*
X00024945D02*
Y00056781D01*
X00025026Y00056863*
X00024660Y00056199D02*
Y00056995D01*
X00024540Y00057115*
Y00057453*
X00024540D02*
X00024073Y00057920D01*
X00024073D02*
X00023850D01*
X00024220Y00055250D02*
X00024222Y00055252D01*
X00023910Y00055250D02*
X00023911Y00055251D01*
X00023280Y00056530D02*
X00023258D01*
Y00056841*
X00023258D02*
X00023235D01*
X00024560Y00055570D02*
Y00056099D01*
X00024660Y00056199*
X00023280Y00055560D02*
X00023282Y00055562D01*
X00025020Y00055405D02*
X00024876Y00055549D01*
X00024876D02*
Y00055715D01*
X00025020Y00055720D02*
Y00055921D01*
X00025020D02*
X00025000Y00055942D01*
X00024705Y00055405D02*
X00024710Y00055410D01*
X00024705Y00055720D02*
Y00055984D01*
X00024705D02*
X00024770Y00056048D01*
Y00056915*
X00024930Y00057075*
Y00057384*
X00024390Y00055405D02*
X00024246Y00055549D01*
X00024246D02*
Y00056386D01*
X00024390Y00055720D02*
Y00056099D01*
X00024390D02*
X00024490Y00056198D01*
X00024490D02*
Y00056380D01*
X00024075Y00055405D02*
X00023920Y00055561D01*
X00023920D02*
Y00057266D01*
X00023560Y00057626*
Y00065246*
X00023070Y00065736*
X00024075Y00055720D02*
Y00056411D01*
X00024075D02*
X00024290Y00056626D01*
Y00056799*
X00023760Y00055405D02*
X00023600Y00055566D01*
X00023600D02*
Y00055924D01*
X00023600D02*
X00023280Y00056244D01*
X00023280D02*
Y00056530D01*
X00023760Y00055720D02*
Y00056480D01*
X00023760D02*
X00023640Y00056601D01*
Y00057336*
X00023350Y00057626*
Y00057950*
X00025800Y00055560D02*
X00025801Y00055558D01*
X00025801D02*
X00025649Y00055407D01*
X00026010Y00057075D02*
X00025840Y00057245D01*
Y00057450*
X00025730Y00057560*
Y00057815*
X00025670Y00057180D02*
Y00057402D01*
X00025670D02*
X00025520Y00057552D01*
X00025520D02*
Y00058255D01*
X00025300Y00058475*
Y00062620*
X00025320Y00056200D02*
Y00056395D01*
X00025610Y00056685*
Y00057120*
X00025670Y00057180*
X00025340Y00055957D02*
Y00056180D01*
X00025320Y00056200*
X00025318Y00055738D02*
X00025490Y00055909D01*
X00025490D02*
Y00056330D01*
X00026620Y00057230D02*
X00026270Y00057580D01*
X00026442Y00055257D02*
X00026440Y00055260D01*
X00026950Y00056790D02*
Y00057065D01*
X00026950D02*
X00027110Y00057225D01*
X00027110D02*
Y00057675D01*
X00026450Y00057010D02*
X00026284Y00057175D01*
X00026284D02*
Y00057315D01*
X00026284D02*
X00025900Y00057700D01*
X00025320Y00057150D02*
X00025190Y00057280D01*
Y00057409*
X00025150Y00057449*
Y00057849*
X00024955Y00058044*
X00025300Y00056610D02*
Y00056891D01*
X00025500Y00057091*
Y00057320*
X00026140Y00055250D02*
X00026136Y00055253D01*
X00026910Y00055405D02*
X00028384Y00056880D01*
X00028384D02*
X00028969D01*
X00026910Y00055720D02*
X00028299Y00057110D01*
X00028299D02*
X00029140D01*
X00026595Y00055405D02*
X00026750Y00055560D01*
Y00055763*
X00026750D02*
X00028266Y00057280D01*
X00029324*
X00026595Y00055720D02*
Y00055905D01*
X00026595D02*
X00028228Y00057538D01*
X00028920*
X00026280Y00055405D02*
X00026440Y00055565D01*
Y00055891*
X00026440D02*
X00028188Y00057640D01*
X00032310*
X00026280Y00055720D02*
Y00055873D01*
X00026280D02*
X00028156Y00057750D01*
X00028156D02*
X00039720D01*
X00025965Y00055405D02*
X00026120Y00055560D01*
Y00056130*
X00026420Y00056430*
X00025965Y00055720D02*
Y00056230D01*
X00025965D02*
X00026620Y00056884D01*
Y00057230*
X00025650Y00055405D02*
X00025649Y00055407D01*
X00025650Y00055720D02*
X00025830Y00055900D01*
Y00056256*
X00025830D02*
X00026168Y00056594D01*
X00026168D02*
Y00056760D01*
X00026190*
X00025335Y00055405D02*
X00025191Y00055549D01*
X00025191D02*
Y00055715D01*
X00025335Y00055720D02*
X00025318Y00055738D01*
X00029200Y00056870D02*
X00028979D01*
X00028969Y00056880*
X00029740Y00057150D02*
X00029454D01*
X00029324Y00057280*
X00036010Y00056220D02*
Y00056224D01*
X00036466*
Y00056672D02*
Y00056680D01*
X00037140*
X00036466Y00056416D02*
X00033533D01*
X00033533D02*
X00032310Y00057640D01*
X00036466Y00056160D02*
Y00056224D01*
X00038749Y00056160D02*
X00039272D01*
X00039272D02*
X00039282Y00056170D01*
X00039600*
X00038749Y00056416D02*
X00038144D01*
X00038130Y00056430*
X00037730*
X00038749Y00056672D02*
X00038296D01*
X00038258Y00056710*
X00038010*
X00041063Y00056456D02*
Y00056486D01*
X00040300Y00057249*
Y00058550*
X00043503Y00056456D02*
Y00056486D01*
X00043503D02*
X00042360Y00057630D01*
Y00061216*
X00041640Y00061936*
Y00066970*
X00015110Y00058190D02*
Y00058483D01*
X00015110D02*
X00015080Y00058513D01*
X00015080D02*
Y00059031D01*
X00015080D02*
Y00059756D01*
X00015080D02*
X00015118Y00059794D01*
Y00060393*
X00014580Y00059031D02*
Y00059739D01*
X00014580D02*
X00014527Y00059792D01*
X00014527D02*
Y00060393D01*
X00014080Y00059031D02*
Y00059708D01*
X00014080D02*
X00013937Y00059852D01*
Y00060393*
X00016730Y00057865D02*
Y00061898D01*
X00016480Y00062148*
Y00064738*
X00016300Y00064918*
Y00065680*
X00015520Y00057790D02*
Y00058268D01*
X00015580Y00058328*
X00015580D02*
Y00059031D01*
X00016080Y00057830D02*
Y00058318D01*
X00016080*
X00016080D02*
Y00059031D01*
X00016080D02*
Y00059711D01*
X00016080D02*
X00016299Y00059930D01*
Y00060393*
X00015580Y00059031D02*
Y00059711D01*
X00015580D02*
X00015708Y00059839D01*
X00015708D02*
Y00060393D01*
X00022300Y00058750D02*
Y00059140D01*
X00022300D02*
X00022020Y00059420D01*
X00022020D02*
Y00067250D01*
X00022290Y00058490D02*
Y00058740D01*
X00022290D02*
X00022300Y00058750D01*
X00024955Y00058044D02*
Y00059675D01*
X00024955D02*
X00025084Y00059805D01*
X00025084D02*
Y00061498D01*
X00024855Y00058039D02*
Y00061373D01*
X00024984Y00061502*
X00024930Y00057384D02*
X00024870Y00057444D01*
Y00057750*
X00024590Y00058920D02*
Y00062102D01*
X00024770Y00062282*
Y00063300*
X00025730Y00057815D02*
X00026150Y00058235D01*
Y00058625*
X00025510Y00059265*
Y00063730*
X00027110Y00057675D02*
X00027080Y00057705D01*
Y00063285*
X00029710Y00057440D02*
X00029018D01*
X00028920Y00057538*
X00039510Y00058800D02*
X00040095D01*
X00040095D02*
X00040114Y00058818D01*
X00040114D02*
X00041063D01*
X00043503D02*
Y00060800D01*
X00043503D02*
X00041814Y00062490D01*
X00014172Y00060137D02*
X00014289Y00060254D01*
X00014344*
X00014495Y00060406*
X00014495D02*
X00014527D01*
X00014172Y00060137D02*
X00014160Y00060150D01*
X00014527Y00060393D02*
Y00060406D01*
X00013937Y00060393D02*
Y00060410D01*
X00013480*
X00025920Y00059650D02*
Y00060070D01*
X00025920D02*
X00025810Y00060180D01*
X00025810D02*
Y00062489D01*
X00016170Y00063170D02*
Y00063436D01*
X00016170D02*
X00016161Y00063445D01*
Y00063740*
X00022420Y00061590D02*
Y00064080D01*
X00022420D02*
X00022290Y00064210D01*
X00022290D02*
Y00068886D01*
X00024984Y00061502D02*
Y00064485D01*
X00024984D02*
X00024361Y00065109D01*
X00024210*
X00024210D02*
X00023900Y00065420D01*
X00025084Y00061498D02*
Y00064685D01*
X00025084D02*
X00023470Y00066300D01*
X00025810Y00062489D02*
X00025980Y00062659D01*
Y00064750*
X00041814Y00062490D02*
Y00066095D01*
X00041814D02*
X00041970Y00066250D01*
X00045045Y00062787D02*
Y00063070D01*
X00044880*
X00045045Y00062787D02*
X00044999D01*
X00044790Y00061300D02*
Y00061537D01*
X00044624Y00061703*
Y00061968*
X00043560Y00061470D02*
Y00061968D01*
X00043541*
X00044284Y00061323D02*
Y00061554D01*
X00044284D02*
X00044132Y00061707D01*
X00044132D02*
Y00061968D01*
X00045017D02*
Y00062356D01*
X00045017D02*
X00044605Y00062768D01*
X00044605D02*
Y00062787D01*
X00044605D02*
Y00062807D01*
X00044605D02*
X00044160Y00063253D01*
X00044132Y00061968D02*
Y00062368D01*
X00044132D02*
X00044113Y00062387D01*
X00044113D02*
Y00062787D01*
X00044132Y00061968D02*
X00044624D01*
X00044113Y00062787D02*
Y00063086D01*
X00044113D02*
X00043956Y00063243D01*
X00043956D02*
Y00063543D01*
X00012483Y00065003D02*
X00012667Y00065187D01*
X00012775*
X00012483Y00065003D02*
X00012476D01*
X00012476D02*
X00012360Y00065120D01*
X00012320Y00064700D02*
X00012443Y00064823D01*
X00012559*
X00012667Y00064931*
X00012775*
X00016980Y00064440D02*
Y00064990D01*
X00016980D02*
X00016930Y00065040D01*
X00016930D02*
Y00066591D01*
X00016930D02*
X00016250Y00067271D01*
X00016250D02*
Y00069305D01*
X00016250D02*
X00015789Y00069766D01*
X00015789D02*
Y00070286D01*
X00017250Y00064570D02*
Y00064910D01*
X00017250D02*
X00017120Y00065040D01*
X00017120D02*
Y00066994D01*
X00017120D02*
X00016390Y00067724D01*
X00016390D02*
Y00069789D01*
X00016390D02*
X00015889Y00070290D01*
X00027080Y00063285D02*
X00027530Y00063735D01*
Y00064954*
X00027500Y00064984*
Y00065550*
X00042283Y00064173D02*
X00042966D01*
X00042966D02*
X00043120Y00064326D01*
X00043120D02*
X00043464D01*
X00044160Y00063253D02*
Y00063711D01*
X00044160D02*
X00044252Y00063803D01*
X00044252D02*
Y00064326D01*
X00045039Y00063543D02*
Y00063826D01*
X00045039D02*
X00044645Y00064220D01*
X00044645D02*
Y00064326D01*
X00043464D02*
X00043661D01*
X00012350Y00065860D02*
Y00066095D01*
X00012504Y00066249*
Y00066512*
X00012775Y00065698D02*
X00012676D01*
X00012676D02*
X00012515Y00065860D01*
X00012350*
X00013240Y00066500D02*
X00012897D01*
X00012897D02*
Y00066512D01*
X00013917Y00065698D02*
Y00066063D01*
X00013937Y00066082*
X00013937D02*
Y00066496D01*
X00013543D02*
Y00066500D01*
X00013240*
X00013937Y00066496D02*
Y00066823D01*
X00013790Y00066970*
X00023070Y00065736D02*
Y00067034D01*
X00023100Y00067064*
Y00067550*
X00023470Y00066300D02*
Y00067480D01*
X00023770Y00067780*
X00023670Y00066420D02*
X00028678D01*
X00030798Y00068540*
X00037710*
X00038060Y00068890*
X00038880*
X00023640Y00066730D02*
X00024120D01*
X00024290Y00066900*
X00024725*
X00023240Y00066650D02*
Y00067135D01*
X00023240D02*
X00023320Y00067215D01*
X00023320D02*
Y00069113D01*
X00023320D02*
X00025526Y00071320D01*
X00029720*
X00026325Y00066810D02*
X00027085Y00067570D01*
X00029449*
X00030689Y00068810*
X00036585*
X00036855Y00069080*
X00039934*
X00026325Y00066810D02*
X00024815D01*
X00024725Y00066900*
X00028678Y00065800D02*
X00030578Y00067700D01*
X00042583*
X00028678Y00065800D02*
X00024330D01*
X00023900Y00066230*
X00041970Y00066250D02*
Y00067233D01*
X00041970D02*
X00041760Y00067443D01*
X00041760D02*
Y00067510D01*
X00045010Y00066314D02*
Y00066938D01*
X00045010D02*
X00044468Y00067480D01*
X00044468D02*
X00044448D01*
X00044770Y00065910D02*
Y00066080D01*
X00044830Y00066140*
X00044835*
X00045010Y00066314*
X00044448Y00067086D02*
Y00067160D01*
X00044448D02*
X00044140D01*
Y00067180*
X00044645Y00065515D02*
Y00065785D01*
X00044645D02*
X00044770Y00065910D01*
X00043464Y00065515D02*
Y00065622D01*
X00043464D02*
X00043319Y00065767D01*
X00043319D02*
X00043122D01*
X00043464Y00065515D02*
X00043661D01*
X00013149Y00067874D02*
X00013740D01*
X00013149Y00067480D02*
Y00067553D01*
X00013149D02*
X00012956D01*
X00012956D02*
X00012900Y00067610D01*
X00012710*
X00013149Y00067480D02*
X00013740D01*
X00014420Y00069130D02*
X00013960Y00069590D01*
Y00071290*
X00013280Y00068250D02*
Y00069565D01*
X00013280D02*
X00013510Y00069795D01*
X00013510D02*
Y00071074D01*
X00013710Y00068270D02*
Y00071016D01*
X00013520Y00071206*
X00014130Y00068770D02*
X00013840Y00069060D01*
Y00071120*
X00013690Y00071270*
X00013740Y00067874D02*
X00014175D01*
X00014371Y00068070*
X00014371D02*
X00014777D01*
X00016830Y00067940D02*
Y00069675D01*
X00016850Y00069695*
Y00071430*
X00015570Y00067854D02*
X00014993D01*
X00014777Y00068070*
X00022290Y00068886D02*
X00022470Y00069066D01*
Y00070720*
X00024726Y00068900D02*
X00024620Y00069006D01*
Y00069133*
X00024726Y00068900D02*
X00025160D01*
X00025330Y00069070*
X00024620Y00069133D02*
X00026666Y00071180D01*
X00027970*
X00025050Y00068710D02*
X00025370D01*
X00025370D02*
X00025730Y00069070D01*
X00025730D02*
X00027084D01*
X00024790D02*
X00025280Y00069560D01*
X00027494*
X00025640Y00068590D02*
X00028165D01*
X00028540Y00068964*
X00028540D02*
Y00069130D01*
X00028550*
X00025830Y00068330D02*
X00028047D01*
X00028783Y00069066*
X00028783D02*
Y00069163D01*
X00028783D02*
X00028910Y00069290D01*
X00028273Y00068880D02*
X00028380Y00068986D01*
Y00069193*
X00028380D02*
X00028646Y00069460D01*
X00029136*
X00028273Y00068880D02*
X00027210D01*
X00027190Y00068900*
X00026080*
X00029146Y00069206D02*
X00029150Y00069210D01*
X00028210Y00069050D02*
X00027104D01*
X00027084Y00069070*
X00029279Y00067780D02*
X00029620Y00068120D01*
Y00068733*
X00029279Y00067780D02*
X00027515D01*
X00027295Y00068000*
X00025830*
X00029433Y00069163D02*
X00029136Y00069460D01*
X00029620Y00068733D02*
X00029146Y00069206D01*
X00029430Y00069160D02*
X00029433Y00069163D01*
X00039030Y00068740D02*
X00038880Y00068890D01*
X00042690Y00069010D02*
X00040004D01*
X00039934Y00069080*
X00044030Y00068660D02*
Y00070420D01*
X00043570Y00070880*
X00043660Y00067540D02*
X00042743D01*
X00042583Y00067700*
X00011190Y00070900D02*
X00011476Y00071186D01*
Y00071681*
X00010960Y00069710D02*
Y00071390D01*
X00010960D02*
X00010767Y00071582D01*
X00010767D02*
Y00071681D01*
X00011210Y00071210D02*
X00011206D01*
Y00071681*
X00013510Y00071074D02*
X00013366Y00071217D01*
X00013366D02*
Y00071681D01*
X00013520Y00071206D02*
Y00071350D01*
X00013602Y00071432*
Y00071681*
X00015130Y00071050D02*
X00014872Y00071307D01*
X00014872D02*
X00014822D01*
X00014822D02*
X00014547Y00071582D01*
X00014547D02*
Y00071681D01*
X00014620Y00071040D02*
X00014356D01*
X00014130Y00071266*
Y00071373*
X00014130D02*
X00014074Y00071428D01*
X00014074D02*
Y00071681D01*
X00013220Y00070990D02*
Y00071190D01*
X00013129Y00071280*
X00013129D02*
Y00071681D01*
X00015889Y00070290D02*
Y00071302D01*
X00015968Y00071382*
X00015968D02*
Y00071482D01*
X00015789Y00070286D02*
Y00071407D01*
X00015868Y00071486*
X00016170Y00071060D02*
Y00072147D01*
X00014797Y00073520*
X00021650Y00070775D02*
Y00071339D01*
X00021660Y00071349*
Y00071560*
X00021220Y00069250D02*
Y00072270D01*
X00021790Y00070080D02*
Y00070635D01*
X00021790D02*
X00021650Y00070775D01*
X00028030Y00069290D02*
X00027764D01*
X00027494Y00069560*
X00028270Y00070880D02*
X00027970Y00071180D01*
X00034860Y00070820D02*
X00030220D01*
X00029720Y00071320*
X00036682Y00070080D02*
X00036830Y00070227D01*
X00036830D02*
Y00070383D01*
X00036830D02*
X00037096Y00070650D01*
X00038584*
X00036682Y00070080D02*
X00035600D01*
X00034860Y00070820*
X00036190Y00070250D02*
Y00070271D01*
X00035807*
Y00070374*
Y00071864*
X00036164Y00072221*
X00036555Y00070374D02*
Y00070452D01*
X00036555D02*
X00036929Y00070826D01*
X00036929D02*
X00037356D01*
X00037356D02*
X00037550Y00071020D01*
X00036414Y00072155*
X00036414D02*
Y00072601D01*
X00038780Y00070780D02*
X00038758D01*
Y00071279*
X00038758D02*
X00038720D01*
X00040223Y00070090D02*
X00040369Y00070236D01*
X00040369D02*
X00042283D01*
X00040223Y00070090D02*
X00037370D01*
X00037070Y00070390*
X00040368Y00070610D02*
X00040585Y00070826D01*
X00040585D02*
X00042283D01*
X00040368Y00070610D02*
X00038624D01*
X00038584Y00070650*
X00042283Y00070826D02*
Y00071417D01*
X00042677Y00070826D02*
Y00071057D01*
X00042480Y00071254*
Y00071919*
X00042480D02*
X00041789Y00072610D01*
X00042677Y00070236D02*
Y00070255D01*
X00042677D02*
X00042493Y00070440D01*
X00041780*
X00042283Y00069645D02*
Y00070236D01*
X00010531Y00071681D02*
X00010565D01*
X00010565D02*
Y00072160D01*
X00010565D02*
X00010570D01*
X00010649Y00072813D02*
Y00072882D01*
X00010649D02*
X00010393Y00073138D01*
X00010393D02*
Y00073976D01*
X00010885Y00072813D02*
Y00072882D01*
X00010885D02*
X00010760Y00073007D01*
X00010760D02*
Y00073390D01*
X00011003Y00071681D02*
Y00072200D01*
X00011003D02*
X00011010D01*
X00011122Y00072813D02*
Y00073018D01*
X00011000Y00073140*
X00012533Y00071470D02*
X00012421Y00071582D01*
X00012421D02*
Y00071681D01*
X00011206D02*
X00011240D01*
X00011780Y00071330D02*
X00011945D01*
X00011948Y00071333*
X00011948D02*
Y00071681D01*
X00012520Y00071290D02*
X00012533D01*
Y00071470*
X00013010Y00072240D02*
X00013249Y00072479D01*
Y00072509*
X00013484Y00072744*
Y00072813*
X00011594D02*
Y00073172D01*
X00011594D02*
X00011610Y00073188D01*
Y00073510*
X00011712Y00071681D02*
Y00071942D01*
X00011712D02*
X00011790Y00072020D01*
Y00072220*
X00011830Y00072813D02*
Y00073172D01*
X00011830D02*
X00011920Y00073262D01*
Y00073620*
X00012066Y00072813D02*
Y00073326D01*
X00012066D02*
X00012480Y00073740D01*
X00012185Y00071681D02*
Y00072210D01*
X00012180*
X00012303Y00072813D02*
Y00073210D01*
X00012290*
X00012539Y00072813D02*
Y00073115D01*
X00012600Y00073175*
X00012600D02*
Y00073440D01*
X00012657Y00071681D02*
Y00072010D01*
X00012657D02*
X00012650Y00072018D01*
Y00072280*
X00012775Y00072813D02*
Y00073329D01*
X00012775D02*
X00013406Y00073960D01*
X00013550*
X00012893Y00071681D02*
Y00071779D01*
X00012893D02*
X00013314Y00072200D01*
X00013520*
X00013011Y00072813D02*
Y00073331D01*
X00013011D02*
X00013470Y00073790D01*
X00015003Y00072193D02*
X00015120Y00072310D01*
X00014440Y00072410D02*
X00014429D01*
Y00072813*
X00014320Y00071310D02*
X00014311D01*
Y00071681*
X00014300Y00072080D02*
X00013976Y00072403D01*
X00013976D02*
X00013927D01*
X00013720Y00072610*
Y00072813*
X00013248D02*
Y00073250D01*
X00013240*
X00013838Y00071681D02*
Y00072210D01*
X00013838D02*
X00013860D01*
X00013956Y00072813D02*
Y00073360D01*
X00013956D02*
X00014116Y00073520D01*
X00014797*
X00014192Y00072813D02*
Y00073094D01*
X00014192D02*
X00014180Y00073107D01*
Y00073350*
X00014665Y00072813D02*
Y00072882D01*
X00014803Y00073020*
X00014988*
X00014783Y00071681D02*
Y00072110D01*
X00014760*
X00015019Y00071681D02*
Y00072045D01*
X00015019D02*
X00015003Y00072061D01*
X00015003D02*
Y00072193D01*
X00015968Y00071482D02*
Y00072039D01*
X00015968D02*
X00014988Y00073020D01*
X00015868Y00071486D02*
Y00071818D01*
X00015868D02*
X00015137Y00072550D01*
X00015137D02*
X00015095D01*
X00015095D02*
X00014901Y00072744D01*
X00014901D02*
Y00072813D01*
X00017750Y00071270D02*
Y00071601D01*
X00017880Y00071731*
Y00073190*
X00022920Y00071630D02*
Y00071968D01*
X00022932*
X00021280Y00072630D02*
X00021551D01*
Y00072663*
X00023875Y00072273D02*
X00023869Y00072280D01*
X00022349*
X00022169Y00072460*
X00022129*
X00021945Y00072644*
Y00072663*
X00024777Y00072450D02*
Y00072740D01*
X00024822Y00072786*
X00024822D02*
Y00073316D01*
X00024777Y00072450D02*
X00024822D01*
X00024872Y00072500*
X00026115*
X00027335Y00073720*
X00027335D02*
Y00073740D01*
X00024750Y00071720D02*
Y00072423D01*
X00024777Y00072450*
X00028390Y00071860D02*
Y00073060D01*
X00027729Y00073720*
X00027729D02*
Y00073740D01*
X00036414Y00072601D02*
Y00073235D01*
X00036414D02*
X00036789Y00073610D01*
X00036164Y00072221D02*
Y00072812D01*
X00036164D02*
X00035789Y00073187D01*
X00035789D02*
Y00073610D01*
X00038414Y00072812D02*
X00038789Y00073187D01*
X00038789D02*
Y00073610D01*
X00038164Y00072812D02*
X00037789Y00073187D01*
X00037789D02*
Y00073610D01*
X00038720Y00071279D02*
Y00071850D01*
X00038414Y00072156*
X00038414D02*
Y00072812D01*
X00037972Y00071279D02*
Y00071907D01*
X00038164Y00072099*
X00038164D02*
Y00072812D01*
X00010774Y00074009D02*
X00010934Y00074170D01*
X00010934D02*
X00011100D01*
X00011170Y00073520D02*
Y00073825D01*
X00011170D02*
X00011172Y00073828D01*
X00011172D02*
X00011503D01*
X00010393Y00073976D02*
Y00074566D01*
X00010787Y00073976D02*
X00010774D01*
Y00074009*
X00014370Y00074100D02*
X00014249Y00074220D01*
X00014249D02*
Y00074352D01*
X00014249D02*
X00014055Y00074547D01*
X00013937*
Y00073799D02*
Y00073912D01*
X00013598*
X00013550Y00073960*
X00027335Y00073720D02*
Y00073740D01*
X00027335D02*
Y00074004D01*
X00027335D02*
X00027347Y00074015D01*
Y00074278*
G54D15*
X00038670Y00048610D02*
Y00049093D01*
X00038670D02*
X00038329Y00049434D01*
Y00050319*
X00011280Y00049250D02*
Y00049825D01*
X00011280D02*
X00011190Y00049915D01*
X00011190D02*
Y00053265D01*
X00011334Y00053410*
X00011334D02*
X00012020D01*
X00012020D02*
X00012170Y00053559D01*
Y00060900*
X00012830Y00061560*
Y00064412*
X00017860Y00063190D02*
Y00063878D01*
X00018267*
X00012830Y00064412D02*
X00012775Y00064467D01*
X00012775D02*
Y00064931D01*
X00015315Y00064940D02*
Y00065168D01*
X00015680Y00065533*
X00015680D02*
Y00066570D01*
G54D16*
X00017069Y00050319D03*
X00038329D03*
X00018230Y00070429D03*
X00019489D03*
X00020277Y00071649D03*
X00016970Y00073618D03*
X00020631D03*
G54D17*
X00021945Y00072663D03*
X00021551D03*
X00033976Y00050558D03*
X00034370D03*
X00037894Y00053843D03*
X00038287D03*
X00042677Y00069645D03*
X00042283D03*
X00021908Y00056123D03*
X00022302D03*
X00045039Y00063543D03*
X00044645D03*
X00021890Y00056799D03*
X00022284D03*
X00026048Y00050761D03*
X00025655D03*
X00042677Y00071417D03*
X00042283D03*
X00012362Y00054291D03*
X00011968D03*
X00012362Y00053700D03*
X00011968D03*
X00012362Y00053110D03*
X00011968D03*
X00012362Y00052519D03*
X00011968D03*
X00012362Y00051929D03*
X00011968D03*
X00012362Y00051338D03*
X00011968D03*
X00023795Y00050898D03*
X00024188D03*
X00023243Y00050925D03*
X00022849D03*
X00024738Y00049854D03*
X00025131D03*
X00023240Y00049799D03*
X00022846D03*
X00023224Y00050398D03*
X00022830D03*
X00023821Y00049867D03*
X00024214D03*
X00021725Y00052383D03*
X00021331D03*
X00022318Y00055517D03*
X00021924D03*
X00023800Y00050397D03*
X00024194D03*
X00024740Y00050916D03*
X00025134D03*
X00024751Y00050374D03*
X00025144D03*
X00027741Y00074278D03*
X00027347D03*
X00044605Y00062787D03*
X00044999D03*
X00038287Y00054631D03*
X00037894D03*
X00025994Y00050178D03*
X00025600D03*
X00044624Y00061968D03*
X00045017D03*
X00042677Y00070236D03*
X00042283D03*
X00042677Y00070826D03*
X00042283D03*
X00013346Y00054291D03*
X00012952D03*
X00013346Y00053700D03*
X00012952D03*
X00013346Y00053110D03*
X00012952D03*
X00013346Y00052519D03*
X00012952D03*
X00013346Y00051929D03*
X00012952D03*
X00013346Y00051338D03*
X00012952D03*
X00010984Y00054291D03*
X00011378D03*
X00010984Y00053700D03*
X00011378D03*
X00010984Y00053110D03*
X00011378D03*
X00010984Y00052519D03*
X00011378D03*
X00010984Y00051929D03*
X00011378D03*
X00010984Y00051338D03*
X00011378D03*
X00018889Y00049068D03*
X00019282D03*
X00031850Y00050157D03*
X00032244D03*
X00037894Y00055191D03*
X00038287D03*
X00037908Y00053279D03*
X00038302D03*
X00027729Y00073740D03*
X00027335D03*
X00012504Y00066512D03*
X00012897D03*
X00013937Y00066496D03*
X00013543D03*
X00010393Y00074566D03*
X00010787D03*
Y00073976D03*
X00010393D03*
G54D18*
X00035176Y00053615D03*
Y00053221D03*
X00034409Y00055866D03*
Y00055472D03*
X00022073Y00054390D03*
Y00054783D03*
X00022105Y00052980D03*
Y00053373D03*
X00021540Y00054789D03*
Y00054395D03*
X00021217Y00051764D03*
Y00051370D03*
X00021757Y00051792D03*
Y00051398D03*
X00020705Y00051770D03*
Y00051376D03*
X00021588Y00052971D03*
Y00053365D03*
X00035185Y00054075D03*
Y00054469D03*
X00036973Y00054140D03*
Y00053746D03*
X00015708Y00055472D03*
Y00055866D03*
X00016299Y00055472D03*
Y00055866D03*
X00018046Y00052101D03*
Y00052495D03*
X00016299Y00060393D03*
Y00060787D03*
X00013937Y00055472D03*
Y00055866D03*
X00015118Y00055472D03*
Y00055866D03*
X00015708Y00060393D03*
Y00060787D03*
X00013937Y00060393D03*
Y00060787D03*
X00014527Y00055472D03*
Y00055866D03*
Y00060393D03*
Y00060787D03*
X00015118Y00060393D03*
Y00060787D03*
X00032984Y00050664D03*
Y00050270D03*
X00044448Y00067086D03*
Y00067480D03*
X00013149D03*
Y00067874D03*
X00013740Y00067480D03*
Y00067874D03*
G54D19*
X00022932Y00071968D03*
Y00071220D03*
X00022027Y00071594D03*
X00040569Y00060457D03*
Y00061205D03*
X00041474Y00060831D03*
X00015255Y00063366D03*
Y00064114D03*
X00016161Y00063740D03*
X00015570Y00067854D03*
Y00067106D03*
X00014665Y00067480D03*
G54D20*
X00036555Y00070374D03*
X00035807D03*
X00036181Y00071279D03*
X00037972D03*
X00038720D03*
X00038346Y00070374D03*
G54D22*
X00043789Y00073610D03*
G54D23*
Y00072610D03*
X00042789Y00073610D03*
Y00072610D03*
X00041789Y00073610D03*
Y00072610D03*
X00040789Y00073610D03*
Y00072610D03*
X00039789Y00073610D03*
Y00072610D03*
X00038789Y00073610D03*
Y00072610D03*
X00037789Y00073610D03*
Y00072610D03*
X00036789Y00073610D03*
Y00072610D03*
X00035789Y00073610D03*
Y00072610D03*
X00034789Y00073610D03*
Y00072610D03*
X00033789Y00073610D03*
Y00072610D03*
X00032789Y00073610D03*
Y00072610D03*
X00031789Y00073610D03*
Y00072610D03*
X00030789Y00073610D03*
Y00072610D03*
G54D24*
X00023875Y00071223D03*
Y00071932D03*
G54D26*
X00018872Y00049694D03*
Y00050875D03*
X00023153Y00047954D03*
Y00049135D03*
X00026022Y00047977D03*
Y00049158D03*
X00024597Y00047973D03*
Y00049154D03*
G54D27*
X00015219Y00041795D03*
Y00040024D03*
X00012660D03*
Y00041795D03*
X00037259Y00014235D03*
Y00012464D03*
X00034700D03*
Y00014235D03*
X00020729Y00041795D03*
Y00040024D03*
X00018170D03*
Y00041795D03*
X00026239D03*
Y00040024D03*
X00023680D03*
Y00041795D03*
X00031749D03*
Y00040024D03*
X00029190D03*
Y00041795D03*
X00037259D03*
Y00040024D03*
X00034700D03*
Y00041795D03*
X00042779D03*
Y00040024D03*
X00040220D03*
Y00041795D03*
X00026239Y00014235D03*
Y00012464D03*
X00023680D03*
Y00014235D03*
X00031749D03*
Y00012464D03*
X00029190D03*
Y00014235D03*
X00015219Y00037855D03*
Y00036084D03*
X00012660D03*
Y00037855D03*
X00020729Y00045725D03*
Y00043954D03*
X00018170D03*
Y00045725D03*
X00042779Y00037855D03*
Y00036084D03*
X00040220D03*
Y00037855D03*
X00037259Y00018165D03*
Y00016394D03*
X00034700D03*
Y00018165D03*
X00020729Y00037855D03*
Y00036084D03*
X00018170D03*
Y00037855D03*
X00026239D03*
Y00036084D03*
X00023680D03*
Y00037855D03*
X00031749D03*
Y00036084D03*
X00029190D03*
Y00037855D03*
X00037259D03*
Y00036084D03*
X00034700D03*
Y00037855D03*
X00042779Y00018165D03*
Y00016394D03*
X00040220D03*
Y00018165D03*
X00015219Y00014235D03*
Y00012464D03*
X00012660D03*
Y00014235D03*
X00015219Y00033915D03*
Y00032144D03*
X00012660D03*
Y00033915D03*
X00020729D03*
Y00032144D03*
X00018170D03*
Y00033915D03*
X00026239Y00045725D03*
Y00043954D03*
X00023680D03*
Y00045725D03*
X00026239Y00033915D03*
Y00032144D03*
X00023680D03*
Y00033915D03*
X00031749D03*
Y00032144D03*
X00029190D03*
Y00033915D03*
X00037259D03*
Y00032144D03*
X00034700D03*
Y00033915D03*
X00042779D03*
Y00032144D03*
X00040220D03*
Y00033915D03*
X00026239Y00018165D03*
Y00016394D03*
X00023680D03*
Y00018165D03*
X00031749D03*
Y00016394D03*
X00029190D03*
Y00018165D03*
X00015219Y00029975D03*
Y00028204D03*
X00012660D03*
Y00029975D03*
X00020729D03*
Y00028204D03*
X00018170D03*
Y00029975D03*
X00026239D03*
Y00028204D03*
X00023680D03*
Y00029975D03*
X00031749D03*
Y00028204D03*
X00029190D03*
Y00029975D03*
X00031749Y00045725D03*
Y00043954D03*
X00029190D03*
Y00045725D03*
X00037259Y00029975D03*
Y00028204D03*
X00034700D03*
Y00029975D03*
X00042779D03*
Y00028204D03*
X00040220D03*
Y00029975D03*
X00015219Y00026045D03*
Y00024274D03*
X00012660D03*
Y00026045D03*
X00020729D03*
Y00024274D03*
X00018170D03*
Y00026045D03*
X00026239D03*
Y00024274D03*
X00023680D03*
Y00026045D03*
X00031749D03*
Y00024274D03*
X00029190D03*
Y00026045D03*
X00037259D03*
Y00024274D03*
X00034700D03*
Y00026045D03*
X00042779D03*
Y00024274D03*
X00040220D03*
Y00026045D03*
X00037259Y00045725D03*
Y00043954D03*
X00034700D03*
Y00045725D03*
X00015219Y00018165D03*
Y00016394D03*
X00012660D03*
Y00018165D03*
X00020729D03*
Y00016394D03*
X00018170D03*
Y00018165D03*
X00015219Y00022105D03*
Y00020334D03*
X00012660D03*
Y00022105D03*
X00020729D03*
Y00020334D03*
X00018170D03*
Y00022105D03*
X00026239D03*
Y00020334D03*
X00023680D03*
Y00022105D03*
X00031749D03*
Y00020334D03*
X00029190D03*
Y00022105D03*
X00037259D03*
Y00020334D03*
X00034700D03*
Y00022105D03*
X00042779D03*
Y00020334D03*
X00040220D03*
Y00022105D03*
X00020729Y00014235D03*
Y00012464D03*
X00018170D03*
Y00014235D03*
X00042779D03*
Y00012464D03*
X00040220D03*
Y00014235D03*
X00042779Y00045725D03*
Y00043954D03*
X00040220D03*
Y00045725D03*
X00015219D03*
Y00043954D03*
X00012660D03*
Y00045725D03*
G54D28*
X00023235Y00056841D03*
X00044284Y00061323D03*
X00013012Y00054983D03*
X00026888Y00048868D03*
X00016071Y00054538D03*
X00035984Y00053307D03*
Y00054094D03*
G54D29*
X00039606Y00061053D03*
Y00066053D03*
G54D33*
X00019190Y00048660D02*
X00019243D01*
X00019243D02*
Y00049068D01*
X00019243D02*
X00019282D01*
X00019620Y00048900D02*
Y00049119D01*
X00019282Y00049068D02*
Y00049119D01*
X00019282D02*
X00019620D01*
X00022880Y00048370D02*
X00023390D01*
X00022470Y00050830D02*
Y00050866D01*
X00022849*
X00022849D02*
Y00050925D01*
X00025131Y00049854D02*
X00025154D01*
Y00049857*
X00025370Y00049690D02*
X00025345Y00049665D01*
X00025345D02*
X00025154Y00049857D01*
X00025720Y00050450D02*
X00025754Y00050416D01*
X00025568Y00050230*
X00025600Y00049870D02*
X00025600D01*
Y00050178*
X00025568*
Y00050230*
X00034330Y00050970D02*
X00034310D01*
X00034310D02*
Y00051496D01*
X00034310D02*
X00034291D01*
X00039409Y00050145D02*
Y00050170D01*
X00039060*
X00042850Y00050680D02*
X00042795D01*
Y00051141*
X00042795D02*
X00042736D01*
X00044763Y00050145D02*
Y00050231D01*
X00044763D02*
X00044536D01*
X00044536D02*
X00044479Y00050288D01*
X00044280*
Y00050340*
X00010984Y00051338D02*
Y00051929D01*
Y00052519*
X00010984D02*
Y00053110D01*
Y00053700*
X00023280Y00052090D02*
X00023131Y00051941D01*
X00023131*
X00023121Y00051951D02*
X00022920Y00051750D01*
X00022910Y00051760*
X00023131Y00051941D02*
X00023121Y00051951D01*
X00024240Y00053050D02*
X00024390Y00053201D01*
X00024390D02*
X00024390D01*
X00024240Y00053050D02*
X00024240D01*
X00023280Y00052090D02*
X00023280D01*
X00025650Y00053201D02*
X00025647Y00053198D01*
X00025647D02*
X00025812Y00053032D01*
X00025810Y00053030D02*
X00025812Y00053032D01*
X00010984Y00053700D02*
Y00054291D01*
Y00054518*
X00010984D02*
X00011036Y00054570D01*
X00011036D02*
Y00054770D01*
X00011060*
X00022340Y00054600D02*
X00022323Y00054583D01*
X00022323D02*
X00022108Y00054799D01*
X00022073Y00054783D02*
Y00054799D01*
X00022073D02*
X00022108D01*
X00024075Y00054145D02*
X00024072Y00054142D01*
X00024072D02*
X00023922Y00054292D01*
X00023930Y00054940D02*
X00023925Y00054935D01*
X00024080Y00054780*
X00023920Y00054290D02*
X00023922Y00054292D01*
X00024075Y00054775D02*
X00024080Y00054780D01*
X00025809Y00053990D02*
X00025650Y00053830D01*
X00025650D02*
X00025650D01*
X00025810Y00053990D02*
X00025809D01*
X00031527Y00053329D02*
X00031583Y00053385D01*
X00031583D02*
X00031771D01*
X00031527Y00053329D02*
X00031270D01*
X00031270D02*
X00031130Y00053470D01*
X00034291Y00053700D02*
X00034440Y00053850D01*
X00034440D02*
X00034680D01*
X00033661Y00054330D02*
X00033675D01*
X00033675D02*
Y00054680D01*
X00033675D02*
X00033690D01*
X00034291Y00054330D02*
X00034430Y00054469D01*
X00034430D02*
X00034917D01*
X00035185D02*
X00035182D01*
X00035182D02*
Y00054750D01*
X00035160*
X00036960Y00053410D02*
X00036971D01*
Y00053746*
X00036971D02*
X00036973D01*
X00037820Y00054280D02*
X00037854D01*
X00037854D02*
Y00054631D01*
X00037854D02*
X00037894D01*
X00039090Y00053390D02*
X00039409D01*
Y00053452*
X00038287Y00053843D02*
Y00053850D01*
X00038287D02*
X00038660D01*
X00044763Y00053452D02*
Y00053470D01*
X00044763D02*
X00044440D01*
X00023131Y00055405D02*
Y00055383D01*
X00023131D02*
X00022690D01*
X00022690D02*
Y00055410D01*
X00034750Y00055450D02*
Y00055472D01*
X00034409*
X00038790Y00055540D02*
Y00055904D01*
X00038749*
X00015118Y00060787D02*
X00015114D01*
Y00061160*
X00015090*
X00015118Y00060787D02*
X00015708D01*
X00014527D02*
X00014468D01*
X00014468D02*
Y00061200D01*
X00014468D02*
X00014450D01*
X00015118Y00060787D02*
X00014527D01*
X00014527D02*
X00013937D01*
X00016560Y00061220D02*
X00016542Y00061237D01*
X00016299Y00060787D02*
X00015708D01*
X00015708D02*
X00015714D01*
Y00061150*
X00015750*
X00016299Y00060787D02*
Y00060995D01*
X00016542Y00061237*
X00040920Y00060820D02*
Y00060829D01*
X00040920D02*
X00041474D01*
X00041474D02*
Y00060831D01*
X00041540Y00060490D02*
Y00060831D01*
X00041474*
X00041474D02*
X00041520D01*
Y00061210*
X00043523Y00062787D02*
Y00062840D01*
X00043080*
X00011920Y00064820D02*
Y00065216D01*
X00011920D02*
X00011968D01*
X00013380Y00064510D02*
Y00065315D01*
X00013346*
X00043050Y00064650D02*
Y00064669D01*
X00044055*
Y00064921*
X00044675Y00063543D02*
Y00063592D01*
X00044458Y00063808*
X00044675Y00063543D02*
X00044645D01*
X00044458Y00063808D02*
X00044490Y00063840D01*
X00045030Y00064760D02*
X00044055D01*
Y00064921*
X00044490Y00063840D02*
X00044448D01*
X00044448D02*
Y00064326D01*
X00044330Y00063450D02*
Y00063484D01*
X00044645*
X00044645D02*
Y00063543D01*
X00043366D02*
Y00063600D01*
X00042840*
Y00063650*
X00044055Y00064921D02*
Y00065060D01*
X00045020*
X00044055Y00064921D02*
Y00065113D01*
X00044055D02*
X00043040D01*
X00043040D02*
Y00065170D01*
X00044055Y00064921D02*
X00044531D01*
X00014650Y00065740D02*
X00014662Y00065727D01*
X00014662D02*
X00014397Y00065462D01*
X00015130Y00067080D02*
Y00067102D01*
X00015130D02*
X00015570D01*
X00015570D02*
Y00067106D01*
X00014410Y00065450D02*
X00014397Y00065462D01*
X00013346Y00065315D02*
X00013310D01*
Y00066100*
X00013346Y00065315D02*
Y00065442D01*
X00013346D02*
X00013917D01*
X00013917D02*
Y00065443D01*
X00013917D02*
X00014410D01*
X00014410D02*
Y00065450D01*
X00015315Y00065689D02*
Y00065705D01*
X00015315D02*
X00014650D01*
X00014650D02*
Y00065740D01*
X00044460Y00065980D02*
X00044488D01*
Y00066299*
X00044547*
Y00066342*
X00044840*
Y00066380*
X00044547Y00066299D02*
X00044548D01*
X00044548D02*
Y00066690D01*
X00044548D02*
X00044560D01*
X00044448Y00065515D02*
Y00065980D01*
X00044448D02*
X00044460D01*
X00015492Y00068858D02*
Y00068860D01*
X00015980*
X00021855Y00071194D02*
X00022027Y00071366D01*
X00022027D02*
Y00071594D01*
X00021855Y00071194D02*
X00021820Y00071230D01*
X00038060Y00070280D02*
Y00070317D01*
X00038060D02*
X00038346D01*
X00038346D02*
Y00070374D01*
X00042677Y00069645D02*
Y00069970D01*
X00042670*
X00010238Y00071592D02*
Y00071718D01*
X00010238D02*
X00010255D01*
X00010640Y00071390D02*
X00010440D01*
X00010440D02*
X00010238Y00071592D01*
X00011358Y00072813D02*
Y00073310D01*
X00011300*
X00015700Y00071680D02*
X00015295D01*
Y00071718*
X00025060Y00072740D02*
X00025078D01*
X00025078D02*
Y00073316D01*
X00036181Y00071279D02*
X00036174D01*
X00036174D02*
Y00071780D01*
X00036130*
X00042950Y00071629D02*
X00042810Y00071770D01*
X00042677Y00071417D02*
X00042884D01*
X00042884D02*
X00042950Y00071483D01*
X00042950D02*
Y00071629D01*
G54D34*
X00025830Y00072790D02*
Y00073341D01*
X00025830D02*
X00025821Y00073350D01*
X00022992Y00074306D02*
Y00074370D01*
X00023346Y00073366D02*
X00022992Y00073720D01*
Y00074306*
X00026141Y00074370D02*
Y00074339D01*
X00026141D02*
X00026161Y00074360D01*
X00026161D02*
X00026740D01*
X00025821Y00073350D02*
X00025921Y00073450D01*
X00026600*
X00025821Y00073350D02*
X00025805Y00073366D01*
X00025805D02*
X00025787D01*
X00026141Y00073720*
X00026141D02*
Y00074339D01*
G54D35*
X00022791Y00072909D02*
X00023248Y00073366D01*
X00023346*
X00022791Y00072909D02*
X00022415Y00073285D01*
X00023560Y00072570D02*
X00023471D01*
X00023471D02*
Y00073366D01*
X00023471D02*
X00023346D01*
X00022415Y00073285D02*
X00022490Y00073360D01*
X00022390Y00074210D02*
X00022486Y00074306D01*
X00022992*
G54D36*
X00015850Y00049150D02*
Y00049165D01*
X00016490*
Y00049180*
Y00049705*
X00016490D02*
X00016309Y00049885D01*
X00016309D02*
Y00050961D01*
X00018889Y00049068D02*
Y00049694D01*
X00018889D02*
X00018872D01*
X00022860Y00048720D02*
Y00049135D01*
X00023153*
X00023450Y00048720D02*
Y00049135D01*
X00023153*
X00016309Y00050961D02*
X00015576Y00051695D01*
Y00051803*
X00018872Y00050875D02*
X00019177D01*
X00019177D02*
X00019771Y00051470D01*
X00019771D02*
X00020079D01*
X00020379Y00051770*
X00020705*
X00023464Y00051454D02*
Y00051165D01*
X00023389Y00051240*
X00024740Y00050916D02*
Y00050936D01*
X00024740D02*
X00024476Y00051200D01*
X00024476D02*
X00024320D01*
X00024080Y00051440*
Y00051580*
X00024030Y00051630*
X00023224Y00050398D02*
Y00050925D01*
X00023224D02*
X00023243D01*
X00023243D02*
Y00051240D01*
X00023243D02*
X00023389D01*
X00027250Y00049385D02*
Y00049815D01*
X00027000Y00050065*
Y00050186*
X00027000D02*
X00026607Y00050579D01*
X00026548*
X00027250Y00049385D02*
X00026970D01*
Y00049420*
X00027250Y00049350D02*
Y00049385D01*
X00031530Y00050150D02*
Y00050157D01*
X00031850*
X00033680Y00050540D02*
Y00050558D01*
X00033976*
X00018046Y00052101D02*
X00018805D01*
X00018805D02*
Y00052405D01*
X00021060Y00052330D02*
Y00052348D01*
X00021331*
Y00052383*
X00019986Y00052405D02*
Y00052710D01*
X00019986D02*
X00019537Y00053160D01*
X00017763*
X00017763D02*
X00017466Y00053457D01*
X00017466D02*
X00015576D01*
X00019986Y00052405D02*
X00020763D01*
X00021290Y00052932*
Y00052941*
X00021320Y00052971*
X00021320D02*
X00021588D01*
X00022740Y00052520D02*
X00022563Y00052343D01*
X00022014*
X00021973Y00052383*
X00021973D02*
X00021736D01*
X00022690Y00052960D02*
X00022450D01*
X00022429Y00052980*
X00022429D02*
X00022105D01*
X00021725Y00052383D02*
X00021736D01*
X00021588Y00052971D02*
X00022105D01*
X00022105D02*
Y00052980D01*
X00021217Y00051764D02*
X00020705D01*
X00020705D02*
Y00051770D01*
X00021217Y00051764D02*
X00021710D01*
X00021710D02*
Y00051789D01*
X00021713Y00051792*
X00021713D02*
X00021757D01*
X00035190Y00052910D02*
X00035176D01*
X00035176D02*
Y00053221D01*
X00016071Y00054538D02*
X00016041Y00054508D01*
X00016041D02*
X00015719Y00054829D01*
X00015690Y00054800D02*
X00015719Y00054829D01*
X00016071Y00054538D02*
X00016053Y00054556D01*
X00015576Y00053457D02*
Y00054079D01*
X00015576D02*
X00016053Y00054556D01*
X00021290Y00053350D02*
Y00053365D01*
X00021588*
X00022105Y00053373D02*
X00022410D01*
X00022410D02*
Y00053430D01*
X00034917Y00054469D02*
X00035185D01*
X00037510Y00055160D02*
Y00055191D01*
X00037510D02*
X00037894D01*
X00034840Y00055970D02*
X00034670Y00056139D01*
X00034409Y00055866D02*
Y00056114D01*
X00034409D02*
X00034434Y00056139D01*
X00034434D02*
X00034670D01*
X00039606Y00061053D02*
X00040189D01*
X00040189D02*
X00040205Y00061070D01*
X00040205D02*
Y00061189D01*
X00040205D02*
X00040222Y00061205D01*
X00040569*
X00012421Y00062952D02*
Y00063090D01*
X00011840*
X00014271Y00063366D02*
Y00064224D01*
X00014271D02*
X00014165Y00064330D01*
X00014165D02*
X00014133D01*
X00014133D02*
X00013937Y00064527D01*
X00016161Y00063740D02*
Y00064212D01*
X00016161D02*
X00015433Y00064940D01*
X00015433D02*
X00015315D01*
X00012775Y00065442D02*
X00012391D01*
X00012391D02*
X00012027Y00065807D01*
X00012027D02*
X00011968D01*
X00011968D02*
X00011975D01*
Y00066220*
X00012000*
X00042283Y00065669D02*
X00043024D01*
X00043122Y00065767*
X00043956Y00066299D02*
Y00066240D01*
X00043956D02*
Y00065948D01*
X00043480Y00066540D02*
Y00066582D01*
X00043480D02*
X00043732D01*
X00043510Y00066250D02*
X00043495D01*
Y00066540*
X00043480*
X00043956Y00066299D02*
Y00066358D01*
X00043956D02*
X00043732Y00066582D01*
X00022599Y00070960D02*
X00022859Y00071220D01*
X00022932*
X00022610Y00070950D02*
X00022599Y00070960D01*
X00022932Y00071220D02*
X00023011D01*
X00023347Y00071556*
X00023483*
X00022932Y00071220D02*
Y00071230D01*
X00022932D02*
X00023021D01*
X00023390Y00070940D02*
X00023350Y00070900D01*
X00023350D02*
X00023021Y00071230D01*
X00023875Y00071223D02*
X00023816D01*
X00023816D02*
X00023483Y00071556D01*
X00023875Y00072273D02*
Y00072515D01*
X00024055Y00072694*
X00024055D02*
Y00073316D01*
X00023875Y00071932D02*
Y00072273D01*
X00011980Y00074560D02*
Y00074576D01*
X00011980D02*
X00011503D01*
G54D52*
X00023131Y00055720D03*
Y00055405D03*
Y00055090D03*
Y00054775D03*
Y00054460D03*
Y00054145D03*
Y00053830D03*
Y00053516D03*
Y00053201D03*
Y00052886D03*
Y00052571D03*
Y00052256D03*
Y00051941D03*
X00023446Y00055720D03*
Y00055405D03*
Y00055090D03*
Y00054775D03*
Y00054460D03*
Y00054145D03*
Y00053830D03*
Y00053516D03*
Y00053201D03*
Y00052886D03*
Y00052571D03*
Y00052256D03*
Y00051941D03*
X00023760Y00055720D03*
Y00055405D03*
Y00055090D03*
Y00054775D03*
Y00054460D03*
Y00054145D03*
Y00053830D03*
Y00053516D03*
Y00053201D03*
Y00052886D03*
Y00052571D03*
Y00052256D03*
Y00051941D03*
X00024075Y00055720D03*
Y00055405D03*
Y00055090D03*
Y00054775D03*
Y00054460D03*
Y00054145D03*
Y00053830D03*
Y00053516D03*
Y00053201D03*
Y00052886D03*
Y00052571D03*
Y00052256D03*
Y00051941D03*
X00024390Y00055720D03*
Y00055405D03*
Y00055090D03*
Y00054775D03*
Y00054460D03*
Y00054145D03*
Y00053830D03*
Y00053516D03*
Y00053201D03*
Y00052886D03*
Y00052571D03*
Y00052256D03*
Y00051941D03*
X00024705Y00055720D03*
Y00055405D03*
Y00055090D03*
Y00054775D03*
Y00054460D03*
Y00054145D03*
Y00053830D03*
Y00053516D03*
Y00053201D03*
Y00052886D03*
Y00052571D03*
Y00052256D03*
Y00051941D03*
X00025020Y00055720D03*
Y00055405D03*
Y00055090D03*
Y00054775D03*
Y00054460D03*
Y00054145D03*
Y00053830D03*
Y00053516D03*
Y00053201D03*
Y00052886D03*
Y00052571D03*
Y00052256D03*
Y00051941D03*
X00025335Y00055720D03*
Y00055405D03*
Y00055090D03*
Y00054775D03*
Y00054460D03*
Y00054145D03*
Y00053830D03*
Y00053516D03*
Y00053201D03*
Y00052886D03*
Y00052571D03*
Y00052256D03*
Y00051941D03*
X00025650Y00055720D03*
Y00055405D03*
Y00055090D03*
Y00054775D03*
Y00054460D03*
Y00054145D03*
Y00053830D03*
Y00053516D03*
Y00053201D03*
Y00052886D03*
Y00052571D03*
Y00052256D03*
Y00051941D03*
X00025965Y00055720D03*
Y00055405D03*
Y00055090D03*
Y00054775D03*
Y00054460D03*
Y00054145D03*
Y00053830D03*
Y00053516D03*
Y00053201D03*
Y00052886D03*
Y00052571D03*
Y00052256D03*
Y00051941D03*
X00026280Y00055720D03*
Y00055405D03*
Y00055090D03*
Y00054775D03*
Y00054460D03*
Y00054145D03*
Y00053830D03*
Y00053516D03*
Y00053201D03*
Y00052886D03*
Y00052571D03*
Y00052256D03*
Y00051941D03*
X00026595Y00055720D03*
Y00055405D03*
Y00055090D03*
Y00054775D03*
Y00054460D03*
Y00054145D03*
Y00053830D03*
Y00053516D03*
Y00053201D03*
Y00052886D03*
Y00052571D03*
Y00052256D03*
Y00051941D03*
X00026910Y00055720D03*
Y00055405D03*
Y00055090D03*
Y00054775D03*
Y00054460D03*
Y00054145D03*
Y00053830D03*
Y00053516D03*
Y00053201D03*
Y00052886D03*
Y00052571D03*
Y00052256D03*
Y00051941D03*
G54D56*
X00040570Y00051141D03*
X00041003D03*
X00041437D03*
X00041870D03*
X00042303D03*
X00042736D03*
X00043169D03*
X00043602D03*
X00039409Y00050145D03*
Y00053452D03*
X00044763Y00050145D03*
Y00053452D03*
G54D57*
X00038749Y00056672D03*
Y00056416D03*
Y00056160D03*
Y00055904D03*
X00036466D03*
Y00056160D03*
Y00056416D03*
Y00056672D03*
G54D58*
X00021000Y00055657D03*
X00018800D03*
Y00056657D03*
X00021000D03*
G54D59*
X00016080Y00057031D03*
X00015580D03*
X00015080D03*
X00014580D03*
X00014080D03*
X00013580D03*
X00013080D03*
X00012580D03*
Y00059031D03*
X00013080D03*
X00013580D03*
X00014080D03*
X00014580D03*
X00015080D03*
X00015580D03*
X00016080D03*
G54D61*
X00034291Y00054330D03*
X00033976D03*
X00033661D03*
X00032401D03*
X00032086D03*
X00031771D03*
X00034291Y00054015D03*
X00033976D03*
X00033661D03*
X00032401D03*
X00032086D03*
X00031771D03*
X00034291Y00053700D03*
X00033976D03*
X00033661D03*
X00032401D03*
X00032086D03*
X00031771D03*
X00034291Y00053385D03*
X00033976D03*
X00033661D03*
X00032401D03*
X00032086D03*
X00031771D03*
X00034291Y00053070D03*
X00033976D03*
X00033661D03*
X00032401D03*
X00032086D03*
X00031771D03*
X00034291Y00052755D03*
X00033976D03*
X00033661D03*
X00032401D03*
X00032086D03*
X00031771D03*
X00034291Y00052440D03*
X00033976D03*
X00033661D03*
X00032401D03*
X00032086D03*
X00031771D03*
X00034291Y00052126D03*
X00033976D03*
X00033661D03*
X00032401D03*
X00032086D03*
X00031771D03*
X00034291Y00051811D03*
X00033976D03*
X00033661D03*
X00032401D03*
X00032086D03*
X00031771D03*
X00034291Y00051496D03*
X00033976D03*
X00033661D03*
X00032401D03*
X00032086D03*
X00031771D03*
X00031150Y00051480D02*
Y00051496D01*
X00031771*
X00031771D02*
X00031771D01*
G54D69*
X00026548Y00050579D03*
Y00049988D03*
X00011968Y00065807D03*
Y00065216D03*
G54D70*
X00043956Y00066299D03*
X00044547D03*
X00044113Y00062787D03*
X00043523D03*
X00043956Y00063543D03*
X00043366D03*
X00044132Y00061968D03*
X00043541D03*
G54D71*
X00041063Y00058818D03*
X00043503D03*
X00041063Y00056456D03*
X00043503D03*
G54D72*
X00018805Y00052405D03*
X00019986D03*
G54D73*
X00015576Y00051803D03*
Y00053457D03*
G54D74*
X00024055Y00073316D03*
X00024311D03*
X00024566D03*
X00024822D03*
X00025078D03*
G54D75*
X00025787Y00073366D03*
X00023346D03*
G54D76*
X00026141Y00074370D03*
X00022992D03*
G54D78*
X00020398Y00049855D03*
X00021697D03*
G54D79*
X00042283Y00065669D03*
Y00064173D03*
G54D80*
X00044645Y00064220D02*
X00044645D01*
X00044645D02*
Y00064433D01*
X00044645D02*
X00044645D01*
X00044645D02*
Y00064220D01*
Y00064236D02*
X00044645D01*
Y00064346D02*
X00044645D01*
X00044448Y00064220D02*
X00044448D01*
X00044448D02*
Y00064433D01*
X00044448D02*
X00044448D01*
X00044448D02*
Y00064220D01*
Y00064236D02*
X00044448D01*
Y00064346D02*
X00044448D01*
X00044252Y00064220D02*
X00044252D01*
Y00064433*
X00044252*
Y00064220*
Y00064236D02*
X00044252D01*
Y00064346D02*
X00044252D01*
X00044055Y00064220D02*
X00044055D01*
Y00064433*
X00044055*
Y00064220*
Y00064236D02*
X00044055D01*
Y00064346D02*
X00044055D01*
X00043858Y00064220D02*
X00043858D01*
Y00064433*
X00043858*
Y00064220*
Y00064236D02*
X00043858D01*
Y00064346D02*
X00043858D01*
X00043661Y00064220D02*
X00043661D01*
Y00064433*
X00043661*
Y00064220*
Y00064236D02*
X00043661D01*
Y00064346D02*
X00043661D01*
X00043464Y00064220D02*
X00043464D01*
X00043464D02*
Y00064433D01*
X00043464D02*
X00043464D01*
X00043464D02*
Y00064220D01*
Y00064236D02*
X00043464D01*
Y00064346D02*
X00043464D01*
Y00065409D02*
X00043464D01*
X00043464D02*
Y00065622D01*
X00043464D02*
X00043464D01*
X00043464D02*
Y00065409D01*
Y00065448D02*
X00043464D01*
Y00065559D02*
X00043464D01*
X00043661Y00065409D02*
X00043661D01*
Y00065622*
X00043661*
Y00065409*
Y00065448D02*
X00043661D01*
Y00065559D02*
X00043661D01*
X00043858Y00065409D02*
X00043858D01*
Y00065622*
X00043858*
Y00065409*
Y00065448D02*
X00043858D01*
Y00065559D02*
X00043858D01*
X00044055Y00065409D02*
X00044055D01*
Y00065622*
X00044055*
Y00065409*
Y00065448D02*
X00044055D01*
Y00065559D02*
X00044055D01*
X00044252Y00065409D02*
X00044252D01*
Y00065622*
X00044252*
Y00065409*
Y00065448D02*
X00044252D01*
Y00065559D02*
X00044252D01*
X00044448Y00065409D02*
X00044448D01*
X00044448D02*
Y00065622D01*
X00044448D02*
X00044448D01*
X00044448D02*
Y00065409D01*
Y00065448D02*
X00044448D01*
Y00065559D02*
X00044448D01*
X00044645Y00065409D02*
X00044645D01*
X00044645D02*
Y00065622D01*
X00044645D02*
X00044645D01*
X00044645D02*
Y00065409D01*
Y00065448D02*
X00044645D01*
Y00065559D02*
X00044645D01*
X00043956Y00063893D02*
X00043858Y00063992D01*
Y00064326*
X00043956Y00063893D02*
X00044055Y00063992D01*
Y00064326*
X00043956Y00063543D02*
Y00063893D01*
X00044252Y00065515D02*
Y00065944D01*
X00044252D02*
X00043956Y00066240D01*
X00043858Y00065515D02*
Y00065850D01*
X00043956Y00065948*
G54D81*
X00044055Y00064921D03*
G54D82*
X00020323Y00054227D03*
X00017764D03*
G54D83*
X00022550Y00051675D02*
X00022630Y00051755D01*
Y00051770*
X00022886Y00052027*
X00022886D02*
X00022902D01*
X00023131Y00052256*
X00023291Y00051786D02*
X00023446Y00051941D01*
G54D85*
X00022921Y00055535D02*
X00022829D01*
X00022709Y00055655*
X00022914Y00055740D02*
Y00068886D01*
X00024566Y00070538*
X00024566D02*
Y00073316D01*
X00022709Y00055655D02*
Y00068975D01*
X00024311Y00070577*
Y00073316*
X00023131Y00055720D02*
Y00055740D01*
X00022914*
G54D88*
X00014744Y00068858D03*
X00015492D03*
G54D89*
X00014271Y00062952D03*
X00012421D03*
G54D90*
X00012775Y00064931D03*
Y00065187D03*
Y00065442D03*
Y00065698D03*
X00013917D03*
Y00065442D03*
Y00065187D03*
Y00064931D03*
G54D91*
X00013346Y00065315D03*
G54D92*
X00015019Y00071681D03*
X00014783D03*
X00014547D03*
X00014311D03*
X00014074D03*
X00013838D03*
X00013602D03*
X00013366D03*
X00013129D03*
X00012893D03*
X00012657D03*
X00012421D03*
X00012185D03*
X00011948D03*
X00011712D03*
X00011476D03*
X00011240D03*
X00011003D03*
X00010767D03*
X00010531D03*
G54D93*
X00014901Y00072813D03*
X00014665D03*
X00014429D03*
X00014192D03*
X00013956D03*
X00013720D03*
X00013484D03*
X00013248D03*
X00013011D03*
X00012775D03*
X00012539D03*
X00012303D03*
X00012066D03*
X00011830D03*
X00011594D03*
X00011358D03*
X00011122D03*
X00010885D03*
X00010649D03*
G54D94*
X00015295Y00071718D03*
X00010255D03*
G54D95*
X00011503Y00073828D03*
Y00074576D03*
X00015315Y00064940D03*
Y00065689D03*
X00013937Y00073799D03*
Y00074547D03*
G54D96*
X00011180Y00047290D03*
Y00047790D03*
Y00048290D03*
X00028972Y00072721D03*
Y00073221D03*
X00014271Y00062952D02*
Y00063366D01*
X00014271D02*
X00015255D01*
X00015255D02*
Y00064114D01*
G54D97*
X00018267Y00062027D03*
Y00063878D03*
G54D99*
Y00062027D02*
X00017460D01*
X00017460D02*
X00016700Y00062788D01*
Y00066502*
X00015721Y00067480*
X00015721D02*
X00014665D01*
X00018267Y00063878D02*
Y00066797D01*
X00018267D02*
X00018220Y00066845D01*
Y00069540*
X00014770Y00068290D02*
X00014744D01*
Y00068858*
X00014665Y00067480D02*
X00014566D01*
X00014566D02*
Y00067840D01*
X00014566D02*
X00014510D01*
G54D100*
X00011890Y00013270D03*
X00014140Y00016220D03*
X00035730Y00017240D03*
X00035310Y00021160D03*
X00029990Y00025080D03*
X00030240Y00029230D03*
X00023420Y00031110D03*
X00022810Y00032450D03*
X00036030Y00033230D03*
X00021800Y00033620D03*
X00036560Y00036600D03*
X00021100Y00038970D03*
X00019260Y00039230D03*
X00022270Y00039050D03*
X00043650Y00039010D03*
X00020000Y00039300D03*
X00023320Y00039370D03*
X00037810Y00040990D03*
X00019800Y00042830D03*
X00022130Y00043070D03*
X00021530Y00042720D03*
X00024750Y00042430D03*
X00022260Y00043290D03*
X00021760Y00045000D03*
X00024690Y00043420D03*
X00029860Y00044710D03*
X00036560Y00044950D03*
X00020880Y00046570D03*
X00022540D03*
X00022520Y00045460D03*
X00023960Y00047190D03*
X00029790Y00046600D03*
X00030390Y00046420D03*
X00030080Y00046440D03*
X00030740Y00046360D03*
X00036940Y00046970D03*
X00036170Y00046710D03*
X00035990Y00046530D03*
X00035540Y00046640D03*
X00036700D03*
X00037990Y00047190D03*
X00012280Y00048350D03*
X00015850Y00049150D03*
X00016490Y00049180D03*
X00020380Y00048700D03*
X00022880Y00048370D03*
X00024930Y00048630D03*
X00024660Y00048420D03*
X00023390Y00048370D03*
X00026030Y00048510D03*
X00032350D03*
X00031780Y00048630D03*
X00031320Y00048610D03*
X00038670D03*
X00011280Y00049250D03*
X00011610Y00050520D03*
X00012370Y00049900D03*
X00014610Y00050560D03*
X00022480Y00050520D03*
X00022470Y00049860D03*
Y00050830D03*
X00024560Y00050100D03*
X00024530Y00050630D03*
X00023200Y00050100D03*
X00023590Y00050040D03*
X00024470Y00049820D03*
X00024450Y00050880D03*
X00024470Y00050380D03*
X00026870Y00049850D03*
X00026970Y00049420D03*
X00025600Y00049870D03*
X00025370Y00049690D03*
X00025210Y00050650D03*
X00025720Y00050450D03*
X00027270Y00050580D03*
X00027540Y00050040D03*
X00027340Y00050340D03*
X00027710Y00050210D03*
X00027250Y00049350D03*
X00030720Y00050740D03*
X00032430Y00049910D03*
X00032590Y00050660D03*
X00033070Y00051120D03*
X00031530Y00050150D03*
X00033350Y00050900D03*
X00033680Y00050540D03*
X00033360Y00050310D03*
X00034330Y00050970D03*
X00037560Y00050440D03*
X00039060Y00050170D03*
X00041000Y00049650D03*
X00042200Y00049450D03*
X00041840Y00050680D03*
X00042850D03*
X00043360Y00049290D03*
X00044280Y00050340D03*
X00013700Y00051340D03*
X00013680Y00051950D03*
X00013710Y00052490D03*
X00013670Y00053080D03*
X00017430Y00052670D03*
X00018330Y00052470D03*
X00021000Y00053000D03*
X00020420Y00051410D03*
X00022540Y00052710D03*
X00022630Y00053210D03*
X00021620Y00052710D03*
X00022910Y00051760D03*
X00023600Y00052420D03*
X00024560Y00053040D03*
X00024850D03*
X00023290D03*
X00023920Y00053030D03*
X00023930Y00052730D03*
X00025170Y00052420D03*
X00025160Y00052730D03*
X00023920Y00052090D03*
X00024240Y00052740D03*
X00024550Y00052730D03*
X00024840Y00051730D03*
X00024250Y00052100D03*
X00024530D03*
X00024840Y00051420D03*
X00023590Y00052100D03*
Y00052730D03*
X00023920Y00052430D03*
X00023770Y00051470D03*
X00024550Y00052430D03*
X00025180Y00053050D03*
X00024240D03*
X00023280Y00052090D03*
X00025820Y00052420D03*
X00026440Y00053060D03*
Y00052400D03*
X00026120Y00053040D03*
Y00052740D03*
X00025510Y00052730D03*
X00025680Y00051290D03*
X00026120Y00052400D03*
X00025500Y00053040D03*
X00025820Y00052730D03*
X00025220Y00051580D03*
X00026440Y00052730D03*
X00025810Y00053030D03*
X00028150Y00053050D03*
X00027440Y00052900D03*
X00027910Y00052980D03*
X00027710Y00052560D03*
X00031150Y00051480D03*
X00031070Y00053050D03*
X00032640Y00051950D03*
X00032710Y00053040D03*
X00033100Y00052800D03*
X00033070Y00053170D03*
X00033090Y00051730D03*
X00032750Y00051660D03*
X00032810Y00052480D03*
X00031340Y00052700D03*
X00033390Y00052990D03*
X00034870Y00052470D03*
X00033480Y00051280D03*
X00033450Y00052320D03*
X00033260Y00052560D03*
X00033200Y00052100D03*
X00034610Y00052810D03*
X00034640Y00053050D03*
X00035190Y00052910D03*
X00035840Y00052510D03*
X00037570Y00052820D03*
X00038550Y00052860D03*
X00041250Y00051550D03*
X00011060Y00054770D03*
X00014520Y00053370D03*
X00013630Y00053800D03*
X00013660Y00054400D03*
X00013340Y00054960D03*
X00015050Y00055080D03*
X00014560Y00055120D03*
X00013910Y00055140D03*
X00015690Y00054800D03*
X00016270Y00055120D03*
X00015610Y00055140D03*
X00020340Y00053390D03*
X00019430Y00054180D03*
X00021090Y00053860D03*
X00020930Y00053340D03*
X00020170Y00055140D03*
X00021180Y00054350D03*
X00022410Y00053860D03*
X00021670Y00053950D03*
X00022810Y00054960D03*
X00022710Y00054070D03*
X00021890Y00055240D03*
X00022410Y00053430D03*
X00022630Y00053590D03*
X00022340Y00054600D03*
X00024550Y00053350D03*
X00024240Y00053670D03*
X00023600Y00054290D03*
X00023610Y00055240D03*
X00024240Y00054940D03*
X00024550Y00054290D03*
X00023920Y00053690D03*
Y00054630D03*
X00023590Y00053670D03*
X00024870Y00054610D03*
X00024560Y00054930D03*
X00024860Y00054920D03*
X00024560Y00054620D03*
X00025180Y00054940D03*
X00024860Y00054290D03*
X00023610Y00054940D03*
X00024240Y00054630D03*
X00023610D03*
X00024240Y00054300D03*
X00024870Y00053370D03*
X00023920D03*
X00024550Y00053980D03*
X00023920Y00054290D03*
X00023930Y00054940D03*
X00026440Y00054620D03*
X00025790Y00053360D03*
X00025500Y00054940D03*
X00025810Y00054320D03*
X00025800Y00054610D03*
Y00055240D03*
X00026120Y00053360D03*
Y00053680D03*
X00027120Y00054090D03*
X00026130Y00054630D03*
X00026440Y00054920D03*
X00026450Y00054300D03*
X00026120Y00054310D03*
X00026450Y00053360D03*
X00025810Y00053990D03*
X00026130Y00054940D03*
X00027280Y00054970D03*
X00028040Y00054920D03*
X00027710Y00054610D03*
X00027670Y00053620D03*
X00028150Y00053500D03*
X00028750Y00054720D03*
X00027660Y00054270D03*
X00028410Y00054780D03*
X00028530Y00054090D03*
X00029470Y00055010D03*
X00030970Y00054680D03*
X00031130Y00053960D03*
Y00053470D03*
X00030470Y00054010D03*
X00032570Y00053540D03*
X00032640Y00054050D03*
X00032920Y00053800D03*
X00031420Y00053710D03*
X00031350Y00054180D03*
X00033030Y00055100D03*
X00033310Y00053450D03*
X00033300Y00055080D03*
X00035160Y00054750D03*
X00034680Y00053850D03*
X00033690Y00054680D03*
X00036610Y00055150D03*
X00035480Y00053590D03*
X00035840Y00054420D03*
X00035590Y00054140D03*
X00036660Y00054120D03*
X00036980Y00054380D03*
X00036960Y00053410D03*
X00038550Y00053310D03*
X00037520Y00053840D03*
X00037630Y00053290D03*
X00037510Y00055160D03*
X00038660Y00053850D03*
X00037820Y00054280D03*
X00039090Y00053390D03*
X00040450Y00054650D03*
X00043100Y00054950D03*
X00044440Y00053470D03*
X00022150Y00057150D03*
X00023190Y00055960D03*
X00022340Y00056440D03*
X00022690Y00055410D03*
X00024490Y00056380D03*
X00024220Y00055250D03*
X00025010Y00056880D03*
X00024760Y00057180D03*
X00024560Y00055250D03*
X00024120Y00056710D03*
X00023910Y00055250D03*
X00024170Y00057110D03*
X00024450Y00056920D03*
X00024560Y00055570D03*
X00023280Y00055560D03*
X00024880Y00055250D03*
X00025170Y00056050D03*
X00025800Y00055560D03*
X00026190Y00056760D03*
X00026950Y00056790D03*
X00025800Y00056690D03*
X00026440Y00055260D03*
X00026420Y00056430D03*
X00026080Y00057240D03*
X00026450Y00057010D03*
X00025320Y00057150D03*
X00025300Y00056610D03*
X00025800Y00057050D03*
X00025490Y00056330D03*
X00026140Y00055250D03*
X00028850Y00056710D03*
X00029140Y00057110D03*
X00028170Y00056410D03*
X00028670Y00055800D03*
X00028340Y00055740D03*
X00029200Y00056870D03*
X00029740Y00057150D03*
X00029550Y00056120D03*
X00029590Y00056840D03*
X00030540Y00055910D03*
X00034840Y00055970D03*
X00034750Y00055450D03*
X00035970Y00056790D03*
X00035620Y00055940D03*
X00035430Y00055710D03*
X00036450Y00057110D03*
X00037140Y00056680D03*
X00037100Y00055290D03*
X00038010Y00056710D03*
X00038110Y00055520D03*
X00037730Y00056430D03*
X00038790Y00055540D03*
X00039600Y00056170D03*
X00044440Y00055700D03*
X00044850Y00055760D03*
X00014560Y00058080D03*
X00014230Y00057810D03*
X00015110Y00058190D03*
X00015520Y00057790D03*
X00016080Y00057830D03*
X00017810Y00058110D03*
X00018610Y00058340D03*
X00019000Y00058380D03*
X00019650Y00058830D03*
X00019900Y00058580D03*
X00020510Y00057540D03*
X00022130Y00058900D03*
X00022290Y00058490D03*
X00022450Y00057520D03*
X00024590Y00058920D03*
X00023970Y00057470D03*
X00024690Y00058180D03*
X00024870Y00057750D03*
X00023780Y00058850D03*
X00023350Y00057950D03*
X00024320Y00057440D03*
X00024190Y00058270D03*
X00024430Y00058540D03*
X00023850Y00057920D03*
X00024480D03*
X00026700Y00057980D03*
X00026540Y00058350D03*
X00025720Y00058090D03*
X00026270Y00057580D03*
X00025250Y00058290D03*
X00025320Y00057610D03*
X00026180Y00058870D03*
X00026830Y00057660D03*
X00025900Y00057700D03*
X00025590Y00058470D03*
X00025980Y00058520D03*
X00025310Y00057950D03*
X00025500Y00057320D03*
X00026940Y00057400D03*
X00027250Y00057980D03*
X00031070Y00058480D03*
X00029710Y00057440D03*
X00037140Y00057560D03*
X00037580Y00057920D03*
X00039720Y00057750D03*
X00040300Y00058550D03*
X00039510Y00058800D03*
X00013480Y00060410D03*
X00014160Y00060150D03*
X00016560Y00061220D03*
X00019730Y00060810D03*
X00019380Y00059260D03*
X00020920Y00060930D03*
X00023210Y00060870D03*
X00026030Y00060510D03*
X00026800Y00060670D03*
X00025920Y00059650D03*
X00027290Y00059750D03*
X00028590Y00060690D03*
X00028110Y00060670D03*
X00027670Y00059520D03*
X00028520Y00059540D03*
X00027980Y00059290D03*
X00027610Y00060760D03*
X00030420Y00060910D03*
X00029880Y00060880D03*
X00032130Y00060250D03*
X00031920Y00060100D03*
X00031520Y00060050D03*
X00031530Y00059630D03*
X00036770Y00061040D03*
X00036390Y00061050D03*
X00040920Y00060820D03*
X00041540Y00060490D03*
X00041520Y00061210D03*
X00011840Y00063090D03*
X00016170Y00063170D03*
X00017860Y00063190D03*
X00022420Y00061590D03*
X00025300Y00062620D03*
X00026800Y00062450D03*
X00028740Y00061890D03*
X00029080Y00061920D03*
X00028470Y00061940D03*
X00028000Y00061890D03*
X00027550Y00062830D03*
X00029410Y00061850D03*
X00029710Y00063120D03*
X00033770Y00061480D03*
X00037000Y00062550D03*
X00043080Y00062840D03*
X00044790Y00061300D03*
X00044880Y00063070D03*
X00043560Y00061470D03*
X00012360Y00065120D03*
X00012320Y00064700D03*
X00011920Y00064820D03*
X00013380Y00064510D03*
X00016980Y00064440D03*
X00017370Y00065120D03*
X00017250Y00064570D03*
X00020700Y00063500D03*
X00023100Y00064650D03*
X00024770Y00063300D03*
X00024190Y00064480D03*
X00024810Y00063840D03*
X00024400Y00064750D03*
X00025320Y00063310D03*
X00026780Y00063440D03*
X00026270Y00063420D03*
X00025510Y00063730D03*
X00025980Y00064750D03*
X00027210Y00065240D03*
X00027360Y00064490D03*
X00030210Y00063750D03*
X00032770Y00063440D03*
X00034750Y00063360D03*
X00033430Y00064740D03*
X00034700Y00064110D03*
X00037280Y00064430D03*
X00038150Y00063700D03*
X00043050Y00064650D03*
X00043040Y00065170D03*
X00042700Y00064940D03*
X00042840Y00063650D03*
X00045030Y00064760D03*
X00045020Y00065060D03*
X00044490Y00063840D03*
X00044330Y00063450D03*
X00011380Y00066870D03*
X00012350Y00065860D03*
X00012000Y00066220D03*
X00014230Y00067060D03*
X00013790Y00066970D03*
X00013240Y00066500D03*
X00015130Y00067080D03*
X00013310Y00066100D03*
X00014650Y00065740D03*
X00014410Y00065450D03*
X00015680Y00066570D03*
X00016300Y00065680D03*
X00017880Y00067160D03*
X00020490Y00066960D03*
X00021170Y00066140D03*
X00020190Y00066460D03*
X00022500Y00066560D03*
X00025150Y00066980D03*
X00024390Y00066730D03*
X00024990Y00065250D03*
X00024160Y00067040D03*
X00023670Y00066420D03*
X00023640Y00066730D03*
X00023900Y00066230D03*
Y00065420D03*
X00023240Y00066650D03*
X00026330Y00065360D03*
X00026690Y00066030D03*
X00027020Y00065420D03*
X00027500Y00065550D03*
X00034120Y00065520D03*
X00033360Y00065580D03*
X00038600Y00066170D03*
X00041640Y00066970D03*
X00044770Y00065910D03*
X00043480Y00066540D03*
X00043510Y00066250D03*
X00044140Y00067180D03*
X00044560Y00066690D03*
X00044840Y00066380D03*
X00044460Y00065980D03*
X00010480Y00067380D03*
X00010510Y00068480D03*
X00012710Y00067610D03*
X00014770Y00068290D03*
X00014510Y00067840D03*
X00014420Y00069130D03*
X00013280Y00068250D03*
X00013710Y00068270D03*
X00014130Y00068770D03*
X00016830Y00067940D03*
X00016590Y00068210D03*
X00015980Y00068860D03*
X00017610Y00067280D03*
X00019030Y00069230D03*
X00018590Y00067700D03*
X00018650Y00068520D03*
X00017670Y00068660D03*
X00019350Y00067490D03*
X00020100Y00067350D03*
X00019800Y00068560D03*
X00023100Y00067550D03*
X00022020Y00067250D03*
X00022460Y00068210D03*
X00025050Y00068710D03*
X00024790Y00069070D03*
X00023770Y00067780D03*
X00024250Y00067840D03*
X00025640Y00068590D03*
X00025830Y00068330D03*
Y00068000D03*
X00026080Y00068900D03*
X00025330Y00069070D03*
X00028160Y00067300D03*
X00028210Y00069050D03*
X00028550Y00069130D03*
X00029150Y00069210D03*
X00029430Y00069160D03*
X00035450Y00067450D03*
X00036190Y00069080D03*
X00039030Y00068740D03*
X00037350Y00068910D03*
X00037540Y00067920D03*
X00038600Y00068590D03*
X00038560Y00067450D03*
X00039600Y00067400D03*
X00039450Y00068410D03*
X00042690Y00069010D03*
X00042590Y00067920D03*
X00044030Y00068660D03*
X00043660Y00067540D03*
X00044800Y00067530D03*
X00011190Y00070900D03*
X00010960Y00069710D03*
X00010750Y00070590D03*
X00011210Y00071210D03*
X00012770Y00070540D03*
X00011780Y00070550D03*
X00015130Y00071050D03*
X00014620Y00071040D03*
X00013220Y00070990D03*
X00014910Y00069650D03*
X00014150Y00070560D03*
X00016280Y00070750D03*
X00016170Y00071060D03*
X00018220Y00069540D03*
X00020950Y00070940D03*
X00021220Y00069250D03*
X00021790Y00070080D03*
X00023000Y00070360D03*
X00022470Y00070720D03*
X00021820Y00071230D03*
X00023390Y00070940D03*
X00024910Y00070470D03*
X00027100Y00071010D03*
X00026850Y00070470D03*
X00028910Y00069290D03*
X00028030D03*
X00028270Y00070880D03*
X00027330Y00069390D03*
X00029500Y00070250D03*
X00031920Y00070610D03*
X00032360Y00070630D03*
X00034860Y00070820D03*
X00034070Y00070480D03*
X00034060Y00071180D03*
X00036190Y00070250D03*
X00036050Y00069870D03*
X00037070Y00070390D03*
X00035220Y00069960D03*
X00037550Y00071020D03*
X00038780Y00070780D03*
X00038420Y00069600D03*
X00040930Y00069280D03*
X00040840Y00069700D03*
X00041780Y00070440D03*
X00042670Y00069970D03*
X00043570Y00070880D03*
X00044820Y00069690D03*
X00044250D03*
X00044780Y00070860D03*
X00010570Y00072160D03*
X00011000Y00073140D03*
X00011010Y00072200D03*
X00010640Y00071390D03*
X00011780Y00071330D03*
X00011790Y00072220D03*
X00012180Y00072210D03*
X00012290Y00073210D03*
X00012650Y00072280D03*
X00012520Y00071290D03*
X00013010Y00072240D03*
X00015120Y00072310D03*
X00013520Y00072200D03*
X00014440Y00072410D03*
X00014320Y00071310D03*
X00013860Y00072210D03*
X00013960Y00071290D03*
X00014300Y00072080D03*
X00013690Y00071270D03*
X00014760Y00072110D03*
X00016850Y00071430D03*
X00015700Y00071680D03*
X00017360Y00071520D03*
X00018250Y00072570D03*
X00017880Y00073190D03*
X00017750Y00071270D03*
X00022210Y00073020D03*
X00021220Y00072270D03*
X00021740Y00071870D03*
X00022920Y00071630D03*
X00021660Y00071560D03*
X00021280Y00072630D03*
X00021800Y00073070D03*
X00024750Y00071720D03*
X00024930Y00072320D03*
X00023340Y00071900D03*
X00025060Y00072740D03*
X00025800Y00072170D03*
X00025940Y00071680D03*
X00025300Y00071330D03*
X00025240Y00072090D03*
X00028390Y00071860D03*
X00028740Y00071630D03*
X00028010Y00071890D03*
X00027320Y00073150D03*
X00031520Y00071410D03*
X00031910Y00071530D03*
X00032200Y00071580D03*
X00040610Y00071530D03*
X00042810Y00071770D03*
X00011170Y00073520D03*
X00010760Y00073390D03*
X00011100Y00074170D03*
X00012480Y00073740D03*
X00011610Y00073510D03*
X00011920Y00073620D03*
X00012600Y00073440D03*
X00011980Y00074560D03*
X00011300Y00073310D03*
X00014370Y00074100D03*
X00013470Y00073790D03*
X00014180Y00073350D03*
X00015100Y00074180D03*
X00013240Y00073250D03*
X00013950Y00074260D03*
X00021590Y00074440D03*
X00028160Y00074050D03*
G54D101*
X00013750Y00019200D03*
X00014080Y00023240D03*
X00013170Y00027090D03*
X00021290Y00030860D03*
X00021770Y00030920D03*
X00019850Y00031390D03*
X00021290Y00034940D03*
X00022540Y00034060D03*
X00021670Y00035260D03*
X00013420Y00038900D03*
X00019870Y00038750D03*
X00022740Y00037350D03*
X00021800Y00038730D03*
X00021490Y00038110D03*
X00025000Y00038490D03*
X00019430Y00039540D03*
X00021720Y00041780D03*
X00014370Y00043330D03*
X00021530Y00043620D03*
X00016380Y00046600D03*
X00019190Y00048660D03*
X00019620Y00048900D03*
X00022860Y00048720D03*
X00023450D03*
X00012860Y00050150D03*
X00013260Y00050850D03*
X00013990Y00053070D03*
X00020810Y00052820D03*
X00021060Y00052330D03*
X00014120Y00053570D03*
X00014510Y00053790D03*
X00016710Y00054370D03*
X00019190Y00053720D03*
X00021290Y00053350D03*
X00023530Y00056380D03*
X00023280Y00056530D03*
X00023400Y00057190D03*
X00036010Y00056220D03*
X00016960Y00057360D03*
X00015090Y00061160D03*
X00014450Y00061200D03*
X00015750Y00061150D03*
X00022460Y00059420D03*
X00035580Y00060150D03*
X00023220Y00064230D03*
X00032590Y00068310D03*
X00041760Y00067510D03*
X00022610Y00070950D03*
X00038060Y00070280D03*
X00023560Y00072570D03*
X00025830Y00072790D03*
X00036130Y00071780D03*
X00035520Y00071630D03*
X00022390Y00074210D03*
X00022490Y00073360D03*
X00026600Y00073450D03*
X00026740Y00074360D03*
G54D102*
X00016309Y00050961D02*
X00016689D01*
X00016689D02*
X00016717Y00050990D01*
X00017697*
X00018872Y00050875D02*
X00017811D01*
X00017811D02*
X00017697Y00050990D01*
X00020398Y00049855D02*
Y00050387D01*
X00020398D02*
X00021021Y00051010D01*
X00021884*
X00021884D02*
X00022550Y00051675D01*
G54D103*
X00021697Y00049855D02*
Y00050387D01*
X00021697D02*
X00022520Y00051210D01*
X00022520D02*
X00022714D01*
X00022714D02*
X00023291Y00051786D01*
X00023795Y00050898D02*
Y00051470D01*
X00023770*
X00000000Y00000000D02*
M02*
