*
*
G04 PADS 9.3 Build Number: 433611 generated Gerber (RS-274-X) file*
G04 PC Version=2.1*
*
%IN "opencalc.pcb"*%
*
%MOIN*%
*
%FSDAX44Y44*%
*
*
*
*
G04 PC Standard Apertures*
*
*
G04 Thermal Relief Aperture macro.*
%AMTER*
1,1,$1,0,0*
1,0,$1-$2,0,0*
21,0,$3,$4,0,0,45*
21,0,$3,$4,0,0,135*
%
*
*
G04 Annular Aperture macro.*
%AMANN*
1,1,$1,0,0*
1,0,$2,0,0*
%
*
*
G04 Odd Aperture macro.*
%AMODD*
1,1,$1,0,0*
1,0,$1-0.005,0,0*
%
*
*
G04 PC Custom Aperture Macros*
*
*
*
*
*
*
G04 PC Aperture Table*
*
%ADD010C,0.001*%
%ADD017R,0.01969X0.02362*%
%ADD018R,0.02362X0.01969*%
%ADD019R,0.03937X0.02362*%
%ADD020R,0.02362X0.03937*%
%ADD024R,0.05709X0.04528*%
%ADD026R,0.1063X0.04528*%
%ADD028C,0.02953*%
%ADD052C,0.01378*%
%ADD056R,0.02362X0.04134*%
%ADD057R,0.05906X0.01772*%
%ADD058R,0.05X0.05*%
%ADD059R,0.02992X0.06299*%
%ADD061C,0.01575*%
%ADD069R,0.03543X0.02362*%
%ADD070R,0.02362X0.03543*%
%ADD071R,0.09055X0.09646*%
%ADD072R,0.04528X0.1063*%
%ADD073R,0.06102X0.09449*%
%ADD074R,0.01575X0.05315*%
%ADD075R,0.08268X0.06299*%
%ADD076R,0.07087X0.0748*%
%ADD078R,0.07087X0.17717*%
%ADD079R,0.07874X0.04921*%
%ADD080C,0.01102*%
%ADD081R,0.15748X0.0622*%
%ADD082R,0.09843X0.11811*%
%ADD088R,0.02756X0.05118*%
%ADD089R,0.06299X0.22441*%
%ADD090O,0.03543X0.01378*%
%ADD091R,0.06299X0.09449*%
%ADD092R,0.01181X0.0315*%
%ADD093R,0.01181X0.02559*%
%ADD094R,0.01575X0.0374*%
%ADD095R,0.05118X0.02756*%
%ADD097R,0.22441X0.06299*%
*
*
*
*
G04 PC Circuitry*
G04 Layer Name opencalc.pcb - circuitry*
%LPD*%
*
*
G04 PC Custom Flashes*
G04 Layer Name opencalc.pcb - flashes*
%LPD*%
*
*
G04 PC Circuitry*
G04 Layer Name opencalc.pcb - circuitry*
%LPD*%
*
G54D10*
G54D17*
G01X00021945Y00072663D03*
X00021551D03*
X00033976Y00050558D03*
X00034370D03*
X00037894Y00053843D03*
X00038287D03*
X00042677Y00069645D03*
X00042283D03*
X00021908Y00056123D03*
X00022302D03*
X00045039Y00063543D03*
X00044645D03*
X00021890Y00056799D03*
X00022284D03*
X00026048Y00050761D03*
X00025655D03*
X00042677Y00071417D03*
X00042283D03*
X00012362Y00054291D03*
X00011968D03*
X00012362Y00053700D03*
X00011968D03*
X00012362Y00053110D03*
X00011968D03*
X00012362Y00052519D03*
X00011968D03*
X00012362Y00051929D03*
X00011968D03*
X00012362Y00051338D03*
X00011968D03*
X00023795Y00050898D03*
X00024188D03*
X00023243Y00050925D03*
X00022849D03*
X00024738Y00049854D03*
X00025131D03*
X00023240Y00049799D03*
X00022846D03*
X00023224Y00050398D03*
X00022830D03*
X00023821Y00049867D03*
X00024214D03*
X00021725Y00052383D03*
X00021331D03*
X00022318Y00055517D03*
X00021924D03*
X00023800Y00050397D03*
X00024194D03*
X00024740Y00050916D03*
X00025134D03*
X00024751Y00050374D03*
X00025144D03*
X00027741Y00074278D03*
X00027347D03*
X00044605Y00062787D03*
X00044999D03*
X00038287Y00054631D03*
X00037894D03*
X00025994Y00050178D03*
X00025600D03*
X00044624Y00061968D03*
X00045017D03*
X00042677Y00070236D03*
X00042283D03*
X00042677Y00070826D03*
X00042283D03*
X00013346Y00054291D03*
X00012952D03*
X00013346Y00053700D03*
X00012952D03*
X00013346Y00053110D03*
X00012952D03*
X00013346Y00052519D03*
X00012952D03*
X00013346Y00051929D03*
X00012952D03*
X00013346Y00051338D03*
X00012952D03*
X00010984Y00054291D03*
X00011378D03*
X00010984Y00053700D03*
X00011378D03*
X00010984Y00053110D03*
X00011378D03*
X00010984Y00052519D03*
X00011378D03*
X00010984Y00051929D03*
X00011378D03*
X00010984Y00051338D03*
X00011378D03*
X00018889Y00049068D03*
X00019282D03*
X00031850Y00050157D03*
X00032244D03*
X00037894Y00055191D03*
X00038287D03*
X00037908Y00053279D03*
X00038302D03*
X00027729Y00073740D03*
X00027335D03*
X00012504Y00066512D03*
X00012897D03*
X00013937Y00066496D03*
X00013543D03*
X00010393Y00074566D03*
X00010787D03*
Y00073976D03*
X00010393D03*
G54D18*
X00035176Y00053615D03*
Y00053221D03*
X00034409Y00055866D03*
Y00055472D03*
X00022073Y00054390D03*
Y00054783D03*
X00022105Y00052980D03*
Y00053373D03*
X00021540Y00054789D03*
Y00054395D03*
X00021217Y00051764D03*
Y00051370D03*
X00021757Y00051792D03*
Y00051398D03*
X00020705Y00051770D03*
Y00051376D03*
X00021588Y00052971D03*
Y00053365D03*
X00035185Y00054075D03*
Y00054469D03*
X00036973Y00054140D03*
Y00053746D03*
X00015708Y00055472D03*
Y00055866D03*
X00016299Y00055472D03*
Y00055866D03*
X00018046Y00052101D03*
Y00052495D03*
X00016299Y00060393D03*
Y00060787D03*
X00013937Y00055472D03*
Y00055866D03*
X00015118Y00055472D03*
Y00055866D03*
X00015708Y00060393D03*
Y00060787D03*
X00013937Y00060393D03*
Y00060787D03*
X00014527Y00055472D03*
Y00055866D03*
Y00060393D03*
Y00060787D03*
X00015118Y00060393D03*
Y00060787D03*
X00032984Y00050664D03*
Y00050270D03*
X00044448Y00067086D03*
Y00067480D03*
X00013149D03*
Y00067874D03*
X00013740Y00067480D03*
Y00067874D03*
G54D19*
X00022932Y00071968D03*
Y00071220D03*
X00022027Y00071594D03*
X00040569Y00060457D03*
Y00061205D03*
X00041474Y00060831D03*
X00015255Y00063366D03*
Y00064114D03*
X00016161Y00063740D03*
X00015570Y00067854D03*
Y00067106D03*
X00014665Y00067480D03*
G54D20*
X00036555Y00070374D03*
X00035807D03*
X00036181Y00071279D03*
X00037972D03*
X00038720D03*
X00038346Y00070374D03*
G54D24*
X00023875Y00071223D03*
Y00071932D03*
G54D26*
X00018872Y00049694D03*
Y00050875D03*
X00023153Y00047954D03*
Y00049135D03*
X00026022Y00047977D03*
Y00049158D03*
X00024597Y00047973D03*
Y00049154D03*
G54D28*
X00023235Y00056841D03*
X00044284Y00061323D03*
X00013012Y00054983D03*
X00026888Y00048868D03*
X00016071Y00054538D03*
X00035984Y00053307D03*
Y00054094D03*
G54D52*
X00023131Y00055720D03*
Y00055405D03*
Y00055090D03*
Y00054775D03*
Y00054460D03*
Y00054145D03*
Y00053830D03*
Y00053516D03*
Y00053201D03*
Y00052886D03*
Y00052571D03*
Y00052256D03*
Y00051941D03*
X00023446Y00055720D03*
Y00055405D03*
Y00055090D03*
Y00054775D03*
Y00054460D03*
Y00054145D03*
Y00053830D03*
Y00053516D03*
Y00053201D03*
Y00052886D03*
Y00052571D03*
Y00052256D03*
Y00051941D03*
X00023760Y00055720D03*
Y00055405D03*
Y00055090D03*
Y00054775D03*
Y00054460D03*
Y00054145D03*
Y00053830D03*
Y00053516D03*
Y00053201D03*
Y00052886D03*
Y00052571D03*
Y00052256D03*
Y00051941D03*
X00024075Y00055720D03*
Y00055405D03*
Y00055090D03*
Y00054775D03*
Y00054460D03*
Y00054145D03*
Y00053830D03*
Y00053516D03*
Y00053201D03*
Y00052886D03*
Y00052571D03*
Y00052256D03*
Y00051941D03*
X00024390Y00055720D03*
Y00055405D03*
Y00055090D03*
Y00054775D03*
Y00054460D03*
Y00054145D03*
Y00053830D03*
Y00053516D03*
Y00053201D03*
Y00052886D03*
Y00052571D03*
Y00052256D03*
Y00051941D03*
X00024705Y00055720D03*
Y00055405D03*
Y00055090D03*
Y00054775D03*
Y00054460D03*
Y00054145D03*
Y00053830D03*
Y00053516D03*
Y00053201D03*
Y00052886D03*
Y00052571D03*
Y00052256D03*
Y00051941D03*
X00025020Y00055720D03*
Y00055405D03*
Y00055090D03*
Y00054775D03*
Y00054460D03*
Y00054145D03*
Y00053830D03*
Y00053516D03*
Y00053201D03*
Y00052886D03*
Y00052571D03*
Y00052256D03*
Y00051941D03*
X00025335Y00055720D03*
Y00055405D03*
Y00055090D03*
Y00054775D03*
Y00054460D03*
Y00054145D03*
Y00053830D03*
Y00053516D03*
Y00053201D03*
Y00052886D03*
Y00052571D03*
Y00052256D03*
Y00051941D03*
X00025650Y00055720D03*
Y00055405D03*
Y00055090D03*
Y00054775D03*
Y00054460D03*
Y00054145D03*
Y00053830D03*
Y00053516D03*
Y00053201D03*
Y00052886D03*
Y00052571D03*
Y00052256D03*
Y00051941D03*
X00025965Y00055720D03*
Y00055405D03*
Y00055090D03*
Y00054775D03*
Y00054460D03*
Y00054145D03*
Y00053830D03*
Y00053516D03*
Y00053201D03*
Y00052886D03*
Y00052571D03*
Y00052256D03*
Y00051941D03*
X00026280Y00055720D03*
Y00055405D03*
Y00055090D03*
Y00054775D03*
Y00054460D03*
Y00054145D03*
Y00053830D03*
Y00053516D03*
Y00053201D03*
Y00052886D03*
Y00052571D03*
Y00052256D03*
Y00051941D03*
X00026595Y00055720D03*
Y00055405D03*
Y00055090D03*
Y00054775D03*
Y00054460D03*
Y00054145D03*
Y00053830D03*
Y00053516D03*
Y00053201D03*
Y00052886D03*
Y00052571D03*
Y00052256D03*
Y00051941D03*
X00026910Y00055720D03*
Y00055405D03*
Y00055090D03*
Y00054775D03*
Y00054460D03*
Y00054145D03*
Y00053830D03*
Y00053516D03*
Y00053201D03*
Y00052886D03*
Y00052571D03*
Y00052256D03*
Y00051941D03*
G54D56*
X00040570Y00051141D03*
X00041003D03*
X00041437D03*
X00041870D03*
X00042303D03*
X00042736D03*
X00043169D03*
X00043602D03*
X00039409Y00050145D03*
Y00053452D03*
X00044763Y00050145D03*
Y00053452D03*
G54D57*
X00038749Y00056672D03*
Y00056416D03*
Y00056160D03*
Y00055904D03*
X00036466D03*
Y00056160D03*
Y00056416D03*
Y00056672D03*
G54D58*
X00021000Y00055657D03*
X00018800D03*
Y00056657D03*
X00021000D03*
G54D59*
X00016080Y00057031D03*
X00015580D03*
X00015080D03*
X00014580D03*
X00014080D03*
X00013580D03*
X00013080D03*
X00012580D03*
Y00059031D03*
X00013080D03*
X00013580D03*
X00014080D03*
X00014580D03*
X00015080D03*
X00015580D03*
X00016080D03*
G54D61*
X00034291Y00054330D03*
X00033976D03*
X00033661D03*
X00032401D03*
X00032086D03*
X00031771D03*
X00034291Y00054015D03*
X00033976D03*
X00033661D03*
X00032401D03*
X00032086D03*
X00031771D03*
X00034291Y00053700D03*
X00033976D03*
X00033661D03*
X00032401D03*
X00032086D03*
X00031771D03*
X00034291Y00053385D03*
X00033976D03*
X00033661D03*
X00032401D03*
X00032086D03*
X00031771D03*
X00034291Y00053070D03*
X00033976D03*
X00033661D03*
X00032401D03*
X00032086D03*
X00031771D03*
X00034291Y00052755D03*
X00033976D03*
X00033661D03*
X00032401D03*
X00032086D03*
X00031771D03*
X00034291Y00052440D03*
X00033976D03*
X00033661D03*
X00032401D03*
X00032086D03*
X00031771D03*
X00034291Y00052126D03*
X00033976D03*
X00033661D03*
X00032401D03*
X00032086D03*
X00031771D03*
X00034291Y00051811D03*
X00033976D03*
X00033661D03*
X00032401D03*
X00032086D03*
X00031771D03*
X00034291Y00051496D03*
X00033976D03*
X00033661D03*
X00032401D03*
X00032086D03*
X00031771D03*
G54D69*
X00026548Y00050579D03*
Y00049988D03*
X00011968Y00065807D03*
Y00065216D03*
G54D70*
X00043956Y00066299D03*
X00044547D03*
X00044113Y00062787D03*
X00043523D03*
X00043956Y00063543D03*
X00043366D03*
X00044132Y00061968D03*
X00043541D03*
G54D71*
X00041063Y00058818D03*
X00043503D03*
X00041063Y00056456D03*
X00043503D03*
G54D72*
X00018805Y00052405D03*
X00019986D03*
G54D73*
X00015576Y00051803D03*
Y00053457D03*
G54D74*
X00024055Y00073316D03*
X00024311D03*
X00024566D03*
X00024822D03*
X00025078D03*
G54D75*
X00025787Y00073366D03*
X00023346D03*
G54D76*
X00026141Y00074370D03*
X00022992D03*
G54D78*
X00020398Y00049855D03*
X00021697D03*
G54D79*
X00042283Y00065669D03*
Y00064173D03*
G54D80*
X00044645Y00064220D02*
X00044645D01*
X00044645D02*
Y00064433D01*
X00044645D02*
X00044645D01*
X00044645D02*
Y00064220D01*
Y00064236D02*
X00044645D01*
Y00064346D02*
X00044645D01*
X00044448Y00064220D02*
X00044448D01*
X00044448D02*
Y00064433D01*
X00044448D02*
X00044448D01*
X00044448D02*
Y00064220D01*
Y00064236D02*
X00044448D01*
Y00064346D02*
X00044448D01*
X00044252Y00064220D02*
X00044252D01*
Y00064433*
X00044252*
Y00064220*
Y00064236D02*
X00044252D01*
Y00064346D02*
X00044252D01*
X00044055Y00064220D02*
X00044055D01*
Y00064433*
X00044055*
Y00064220*
Y00064236D02*
X00044055D01*
Y00064346D02*
X00044055D01*
X00043858Y00064220D02*
X00043858D01*
Y00064433*
X00043858*
Y00064220*
Y00064236D02*
X00043858D01*
Y00064346D02*
X00043858D01*
X00043661Y00064220D02*
X00043661D01*
Y00064433*
X00043661*
Y00064220*
Y00064236D02*
X00043661D01*
Y00064346D02*
X00043661D01*
X00043464Y00064220D02*
X00043464D01*
X00043464D02*
Y00064433D01*
X00043464D02*
X00043464D01*
X00043464D02*
Y00064220D01*
Y00064236D02*
X00043464D01*
Y00064346D02*
X00043464D01*
Y00065409D02*
X00043464D01*
X00043464D02*
Y00065622D01*
X00043464D02*
X00043464D01*
X00043464D02*
Y00065409D01*
Y00065448D02*
X00043464D01*
Y00065559D02*
X00043464D01*
X00043661Y00065409D02*
X00043661D01*
Y00065622*
X00043661*
Y00065409*
Y00065448D02*
X00043661D01*
Y00065559D02*
X00043661D01*
X00043858Y00065409D02*
X00043858D01*
Y00065622*
X00043858*
Y00065409*
Y00065448D02*
X00043858D01*
Y00065559D02*
X00043858D01*
X00044055Y00065409D02*
X00044055D01*
Y00065622*
X00044055*
Y00065409*
Y00065448D02*
X00044055D01*
Y00065559D02*
X00044055D01*
X00044252Y00065409D02*
X00044252D01*
Y00065622*
X00044252*
Y00065409*
Y00065448D02*
X00044252D01*
Y00065559D02*
X00044252D01*
X00044448Y00065409D02*
X00044448D01*
X00044448D02*
Y00065622D01*
X00044448D02*
X00044448D01*
X00044448D02*
Y00065409D01*
Y00065448D02*
X00044448D01*
Y00065559D02*
X00044448D01*
X00044645Y00065409D02*
X00044645D01*
X00044645D02*
Y00065622D01*
X00044645D02*
X00044645D01*
X00044645D02*
Y00065409D01*
Y00065448D02*
X00044645D01*
Y00065559D02*
X00044645D01*
G54D81*
X00044055Y00064921D03*
G54D82*
X00020323Y00054227D03*
X00017764D03*
G54D88*
X00014744Y00068858D03*
X00015492D03*
G54D89*
X00014271Y00062952D03*
X00012421D03*
G54D90*
X00012775Y00064931D03*
Y00065187D03*
Y00065442D03*
Y00065698D03*
X00013917D03*
Y00065442D03*
Y00065187D03*
Y00064931D03*
G54D91*
X00013346Y00065315D03*
G54D92*
X00015019Y00071681D03*
X00014783D03*
X00014547D03*
X00014311D03*
X00014074D03*
X00013838D03*
X00013602D03*
X00013366D03*
X00013129D03*
X00012893D03*
X00012657D03*
X00012421D03*
X00012185D03*
X00011948D03*
X00011712D03*
X00011476D03*
X00011240D03*
X00011003D03*
X00010767D03*
X00010531D03*
G54D93*
X00014901Y00072813D03*
X00014665D03*
X00014429D03*
X00014192D03*
X00013956D03*
X00013720D03*
X00013484D03*
X00013248D03*
X00013011D03*
X00012775D03*
X00012539D03*
X00012303D03*
X00012066D03*
X00011830D03*
X00011594D03*
X00011358D03*
X00011122D03*
X00010885D03*
X00010649D03*
G54D94*
X00015295Y00071718D03*
X00010255D03*
G54D95*
X00011503Y00073828D03*
Y00074576D03*
X00015315Y00064940D03*
Y00065689D03*
X00013937Y00073799D03*
Y00074547D03*
G54D97*
X00018267Y00062027D03*
Y00063878D03*
X00000000Y00000000D02*
M02*
