*
*
G04 PADS 9.3 Build Number: 433611 generated Gerber (RS-274-X) file*
G04 PC Version=2.1*
*
%IN "opencalc.pcb"*%
*
%MOIN*%
*
%FSLAX35Y35*%
*
*
*
*
G04 PC Standard Apertures*
*
*
G04 Thermal Relief Aperture macro.*
%AMTER*
1,1,$1,0,0*
1,0,$1-$2,0,0*
21,0,$3,$4,0,0,45*
21,0,$3,$4,0,0,135*
%
*
*
G04 Annular Aperture macro.*
%AMANN*
1,1,$1,0,0*
1,0,$2,0,0*
%
*
*
G04 Odd Aperture macro.*
%AMODD*
1,1,$1,0,0*
1,0,$1-0.005,0,0*
%
*
*
G04 PC Custom Aperture Macros*
*
*
*
*
*
*
G04 PC Aperture Table*
*
%ADD010C,0.001*%
%ADD011C,0.01*%
*
*
*
*
G04 PC Circuitry*
G04 Layer Name opencalc.pcb - circuitry*
%LPD*%
*
*
G04 PC Custom Flashes*
G04 Layer Name opencalc.pcb - flashes*
%LPD*%
*
*
G04 PC Circuitry*
G04 Layer Name opencalc.pcb - circuitry*
%LPD*%
*
G54D10*
G01X102500Y747500D02*
X102503D01*
X452500D02*
X452503D01*
X102500Y102500D02*
X102503D01*
X102500Y747500D02*
X102503D01*
G54D11*
X170696Y499196D02*
X174696Y503196D01*
X170696Y507196*
X166696Y503196*
X170696Y499196*
Y503196D02*
Y507196D01*
X383295Y499196D02*
X387295Y503196D01*
X383295Y507196*
X379295Y503196*
X383295Y499196*
Y503196D02*
Y507196D01*
X103874Y631496D02*
X111874D01*
X107874Y627496D02*
Y635496D01*
X110783Y636777D02*
X109874Y633496D01*
X110783Y636777D02*
X111692Y633496D01*
X110215Y634590D02*
X111351D01*
X103874Y641496D02*
X111874D01*
X107874Y637496D02*
Y645496D01*
X110783Y646777D02*
X109874Y643496D01*
X110783Y646777D02*
X111692Y643496D01*
X110215Y644590D02*
X111351D01*
X103874Y651496D02*
X111874D01*
X107874Y647496D02*
Y655496D01*
X110783Y656777D02*
X109874Y653496D01*
X110783Y656777D02*
X111692Y653496D01*
X110215Y654590D02*
X111351D01*
X433897Y736102D02*
X441897D01*
X437897Y732102D02*
Y740102D01*
X439897Y741384D02*
Y738102D01*
Y741384D02*
X440693D01*
X441034Y741227*
X441261Y740915*
X441375Y740602*
X441488Y740134*
Y739352*
X441375Y738884*
X441261Y738571*
X441034Y738259*
X440693Y738102*
X439897*
X433897Y726102D02*
X441897D01*
X437897Y722102D02*
Y730102D01*
X439897Y731384D02*
Y728102D01*
Y731384D02*
X440693D01*
X441034Y731227*
X441261Y730915*
X441375Y730602*
X441488Y730134*
Y729352*
X441375Y728884*
X441261Y728571*
X441034Y728259*
X440693Y728102*
X439897*
X423897Y736102D02*
X431897D01*
X427897Y732102D02*
Y740102D01*
X429897Y741384D02*
Y738102D01*
Y741384D02*
X430693D01*
X431034Y741227*
X431261Y740915*
X431375Y740602*
X431488Y740134*
Y739352*
X431375Y738884*
X431261Y738571*
X431034Y738259*
X430693Y738102*
X429897*
X423897Y726102D02*
X431897D01*
X427897Y722102D02*
Y730102D01*
X429897Y731384D02*
Y728102D01*
Y731384D02*
X430693D01*
X431034Y731227*
X431261Y730915*
X431375Y730602*
X431488Y730134*
Y729352*
X431375Y728884*
X431261Y728571*
X431034Y728259*
X430693Y728102*
X429897*
X413897Y736102D02*
X421897D01*
X417897Y732102D02*
Y740102D01*
X419897Y741384D02*
Y738102D01*
Y741384D02*
X420693D01*
X421034Y741227*
X421261Y740915*
X421375Y740602*
X421488Y740134*
Y739352*
X421375Y738884*
X421261Y738571*
X421034Y738259*
X420693Y738102*
X419897*
X413897Y726102D02*
X421897D01*
X417897Y722102D02*
Y730102D01*
X419897Y731384D02*
Y728102D01*
Y731384D02*
X420693D01*
X421034Y731227*
X421261Y730915*
X421375Y730602*
X421488Y730134*
Y729352*
X421375Y728884*
X421261Y728571*
X421034Y728259*
X420693Y728102*
X419897*
X403897Y736102D02*
X411897D01*
X407897Y732102D02*
Y740102D01*
X409897Y741384D02*
Y738102D01*
Y741384D02*
X410693D01*
X411034Y741227*
X411261Y740915*
X411375Y740602*
X411488Y740134*
Y739352*
X411375Y738884*
X411261Y738571*
X411034Y738259*
X410693Y738102*
X409897*
X403897Y726102D02*
X411897D01*
X407897Y722102D02*
Y730102D01*
X409897Y731384D02*
Y728102D01*
Y731384D02*
X410693D01*
X411034Y731227*
X411261Y730915*
X411375Y730602*
X411488Y730134*
Y729352*
X411375Y728884*
X411261Y728571*
X411034Y728259*
X410693Y728102*
X409897*
X393897Y736102D02*
X401897D01*
X397897Y732102D02*
Y740102D01*
X399897Y741384D02*
Y738102D01*
Y741384D02*
X400693D01*
X401034Y741227*
X401261Y740915*
X401375Y740602*
X401488Y740134*
Y739352*
X401375Y738884*
X401261Y738571*
X401034Y738259*
X400693Y738102*
X399897*
X393897Y726102D02*
X401897D01*
X397897Y722102D02*
Y730102D01*
X399897Y731384D02*
Y728102D01*
Y731384D02*
X400693D01*
X401034Y731227*
X401261Y730915*
X401375Y730602*
X401488Y730134*
Y729352*
X401375Y728884*
X401261Y728571*
X401034Y728259*
X400693Y728102*
X399897*
X383897Y736102D02*
X391897D01*
X387897Y732102D02*
Y740102D01*
X389897Y741384D02*
Y738102D01*
Y741384D02*
X390693D01*
X391034Y741227*
X391261Y740915*
X391375Y740602*
X391488Y740134*
Y739352*
X391375Y738884*
X391261Y738571*
X391034Y738259*
X390693Y738102*
X389897*
X383897Y726102D02*
X391897D01*
X387897Y722102D02*
Y730102D01*
X389897Y731384D02*
Y728102D01*
Y731384D02*
X390693D01*
X391034Y731227*
X391261Y730915*
X391375Y730602*
X391488Y730134*
Y729352*
X391375Y728884*
X391261Y728571*
X391034Y728259*
X390693Y728102*
X389897*
X373897Y736102D02*
X381897D01*
X377897Y732102D02*
Y740102D01*
X379897Y741384D02*
Y738102D01*
Y741384D02*
X380693D01*
X381034Y741227*
X381261Y740915*
X381375Y740602*
X381488Y740134*
Y739352*
X381375Y738884*
X381261Y738571*
X381034Y738259*
X380693Y738102*
X379897*
X373897Y726102D02*
X381897D01*
X377897Y722102D02*
Y730102D01*
X379897Y731384D02*
Y728102D01*
Y731384D02*
X380693D01*
X381034Y731227*
X381261Y730915*
X381375Y730602*
X381488Y730134*
Y729352*
X381375Y728884*
X381261Y728571*
X381034Y728259*
X380693Y728102*
X379897*
X363897Y736102D02*
X371897D01*
X367897Y732102D02*
Y740102D01*
X369897Y741384D02*
Y738102D01*
Y741384D02*
X370693D01*
X371034Y741227*
X371261Y740915*
X371375Y740602*
X371488Y740134*
Y739352*
X371375Y738884*
X371261Y738571*
X371034Y738259*
X370693Y738102*
X369897*
X363897Y726102D02*
X371897D01*
X367897Y722102D02*
Y730102D01*
X369897Y731384D02*
Y728102D01*
Y731384D02*
X370693D01*
X371034Y731227*
X371261Y730915*
X371375Y730602*
X371488Y730134*
Y729352*
X371375Y728884*
X371261Y728571*
X371034Y728259*
X370693Y728102*
X369897*
X353897Y736102D02*
X361897D01*
X357897Y732102D02*
Y740102D01*
X359897Y741384D02*
Y738102D01*
Y741384D02*
X360693D01*
X361034Y741227*
X361261Y740915*
X361375Y740602*
X361488Y740134*
Y739352*
X361375Y738884*
X361261Y738571*
X361034Y738259*
X360693Y738102*
X359897*
X353897Y726102D02*
X361897D01*
X357897Y722102D02*
Y730102D01*
X359897Y731384D02*
Y728102D01*
Y731384D02*
X360693D01*
X361034Y731227*
X361261Y730915*
X361375Y730602*
X361488Y730134*
Y729352*
X361375Y728884*
X361261Y728571*
X361034Y728259*
X360693Y728102*
X359897*
X343897Y736102D02*
X351897D01*
X347897Y732102D02*
Y740102D01*
X349897Y741384D02*
Y738102D01*
Y741384D02*
X350693D01*
X351034Y741227*
X351261Y740915*
X351375Y740602*
X351488Y740134*
Y739352*
X351375Y738884*
X351261Y738571*
X351034Y738259*
X350693Y738102*
X349897*
X343897Y726102D02*
X351897D01*
X347897Y722102D02*
Y730102D01*
X349897Y731384D02*
Y728102D01*
Y731384D02*
X350693D01*
X351034Y731227*
X351261Y730915*
X351375Y730602*
X351488Y730134*
Y729352*
X351375Y728884*
X351261Y728571*
X351034Y728259*
X350693Y728102*
X349897*
X333897Y736102D02*
X341897D01*
X337897Y732102D02*
Y740102D01*
X339897Y741384D02*
Y738102D01*
Y741384D02*
X340693D01*
X341034Y741227*
X341261Y740915*
X341375Y740602*
X341488Y740134*
Y739352*
X341375Y738884*
X341261Y738571*
X341034Y738259*
X340693Y738102*
X339897*
X333897Y726102D02*
X341897D01*
X337897Y722102D02*
Y730102D01*
X339897Y731384D02*
Y728102D01*
Y731384D02*
X340693D01*
X341034Y731227*
X341261Y730915*
X341375Y730602*
X341488Y730134*
Y729352*
X341375Y728884*
X341261Y728571*
X341034Y728259*
X340693Y728102*
X339897*
X323897Y736102D02*
X331897D01*
X327897Y732102D02*
Y740102D01*
X329897Y741384D02*
Y738102D01*
Y741384D02*
X330693D01*
X331034Y741227*
X331261Y740915*
X331375Y740602*
X331488Y740134*
Y739352*
X331375Y738884*
X331261Y738571*
X331034Y738259*
X330693Y738102*
X329897*
X323897Y726102D02*
X331897D01*
X327897Y722102D02*
Y730102D01*
X329897Y731384D02*
Y728102D01*
Y731384D02*
X330693D01*
X331034Y731227*
X331261Y730915*
X331375Y730602*
X331488Y730134*
Y729352*
X331375Y728884*
X331261Y728571*
X331034Y728259*
X330693Y728102*
X329897*
X313897Y736102D02*
X321897D01*
X317897Y732102D02*
Y740102D01*
X319897Y741384D02*
Y738102D01*
Y741384D02*
X320693D01*
X321034Y741227*
X321261Y740915*
X321375Y740602*
X321488Y740134*
Y739352*
X321375Y738884*
X321261Y738571*
X321034Y738259*
X320693Y738102*
X319897*
X313897Y726102D02*
X321897D01*
X317897Y722102D02*
Y730102D01*
X319897Y731384D02*
Y728102D01*
Y731384D02*
X320693D01*
X321034Y731227*
X321261Y730915*
X321375Y730602*
X321488Y730134*
Y729352*
X321375Y728884*
X321261Y728571*
X321034Y728259*
X320693Y728102*
X319897*
X303897Y736102D02*
X311897D01*
X307897Y732102D02*
Y740102D01*
X309897Y741384D02*
Y738102D01*
Y741384D02*
X310693D01*
X311034Y741227*
X311261Y740915*
X311375Y740602*
X311488Y740134*
Y739352*
X311375Y738884*
X311261Y738571*
X311034Y738259*
X310693Y738102*
X309897*
X303897Y726102D02*
X311897D01*
X307897Y722102D02*
Y730102D01*
X309897Y731384D02*
Y728102D01*
Y731384D02*
X310693D01*
X311034Y731227*
X311261Y730915*
X311375Y730602*
X311488Y730134*
Y729352*
X311375Y728884*
X311261Y728571*
X311034Y728259*
X310693Y728102*
X309897*
X136945Y704331D02*
X144945D01*
X140945Y700331D02*
Y708331D01*
X142945Y709612D02*
Y706331D01*
Y709612D02*
X143968D01*
X144309Y709456*
X144422Y709299*
X144536Y708987*
Y708674*
X144422Y708362*
X144309Y708206*
X143968Y708049*
X142945D02*
X143968D01*
X144309Y707893*
X144422Y707737*
X144536Y707424*
Y706956*
X144422Y706643*
X144309Y706487*
X143968Y706331*
X142945*
X149543Y704331D02*
X157543D01*
X153543Y700331D02*
Y708331D01*
X155543Y709612D02*
Y706331D01*
Y709612D02*
X156566D01*
X156907Y709456*
X157021Y709299*
X157134Y708987*
Y708674*
X157021Y708362*
X156907Y708206*
X156566Y708049*
X155543D02*
X156566D01*
X156907Y707893*
X157021Y707737*
X157134Y707424*
Y706956*
X157021Y706643*
X156907Y706487*
X156566Y706331*
X155543*
X157417Y716535D02*
X165417D01*
X161417Y712535D02*
Y720535D01*
X163417Y721817D02*
Y718535D01*
Y721817D02*
X164440D01*
X164781Y721660*
X164895Y721504*
X165008Y721192*
Y720879*
X164895Y720567*
X164781Y720410*
X164440Y720254*
X163417D02*
X164440D01*
X164781Y720098*
X164895Y719942*
X165008Y719629*
Y719160*
X164895Y718848*
X164781Y718692*
X164440Y718535*
X163417*
X124346Y736220D02*
X132346D01*
X128346Y732220D02*
Y740220D01*
X130346Y741502D02*
Y738220D01*
Y741502D02*
X131369D01*
X131710Y741345*
X131824Y741189*
X131937Y740877*
Y740564*
X131824Y740252*
X131710Y740095*
X131369Y739939*
X130346D02*
X131369D01*
X131710Y739783*
X131824Y739627*
X131937Y739314*
Y738845*
X131824Y738533*
X131710Y738377*
X131369Y738220*
X130346*
X160961Y736220D02*
X168961D01*
X164961Y732220D02*
Y740220D01*
X166961Y741502D02*
Y738220D01*
Y741502D02*
X167983D01*
X168324Y741345*
X168438Y741189*
X168552Y740877*
Y740564*
X168438Y740252*
X168324Y740095*
X167983Y739939*
X166961D02*
X167983D01*
X168324Y739783*
X168438Y739627*
X168552Y739314*
Y738845*
X168438Y738533*
X168324Y738377*
X167983Y738220*
X166961*
X143244Y716535D02*
X151244D01*
X147244Y712535D02*
Y720535D01*
X150949Y721035D02*
X150835Y721348D01*
X150608Y721660*
X150380Y721817*
X149926*
X149699Y721660*
X149471Y721348*
X149358Y721035*
X149244Y720567*
Y719785*
X149358Y719317*
X149471Y719004*
X149699Y718692*
X149926Y718535*
X150380*
X150608Y718692*
X150835Y719004*
X150949Y719317*
X143244Y736220D02*
X151244D01*
X147244Y732220D02*
Y740220D01*
X150949Y740720D02*
X150835Y741033D01*
X150608Y741345*
X150380Y741502*
X149926*
X149699Y741345*
X149471Y741033*
X149358Y740720*
X149244Y740252*
Y739470*
X149358Y739002*
X149471Y738689*
X149699Y738377*
X149926Y738220*
X150380*
X150608Y738377*
X150835Y738689*
X150949Y739002*
X148165Y413913D02*
X156165Y421913D01*
X148165D02*
X156165Y413913D01*
X148165Y396197D02*
X156165Y404197D01*
X148165D02*
X156165Y396197D01*
X122575D02*
X130575Y404197D01*
X122575D02*
X130575Y396197D01*
X122575Y413913D02*
X130575Y421913D01*
X122575D02*
X130575Y413913D01*
X368638Y138323D02*
X376638Y146323D01*
X368638D02*
X376638Y138323D01*
X368638Y120606D02*
X376638Y128606D01*
X368638D02*
X376638Y120606D01*
X343047D02*
X351047Y128606D01*
X343047D02*
X351047Y120606D01*
X343047Y138323D02*
X351047Y146323D01*
X343047D02*
X351047Y138323D01*
X203283Y413913D02*
X211283Y421913D01*
X203283D02*
X211283Y413913D01*
X203283Y396197D02*
X211283Y404197D01*
X203283D02*
X211283Y396197D01*
X177693D02*
X185693Y404197D01*
X177693D02*
X185693Y396197D01*
X177693Y413913D02*
X185693Y421913D01*
X177693D02*
X185693Y413913D01*
X258402D02*
X266402Y421913D01*
X258402D02*
X266402Y413913D01*
X258402Y396197D02*
X266402Y404197D01*
X258402D02*
X266402Y396197D01*
X232811D02*
X240811Y404197D01*
X232811D02*
X240811Y396197D01*
X232811Y413913D02*
X240811Y421913D01*
X232811D02*
X240811Y413913D01*
X313520D02*
X321520Y421913D01*
X313520D02*
X321520Y413913D01*
X313520Y396197D02*
X321520Y404197D01*
X313520D02*
X321520Y396197D01*
X287929D02*
X295929Y404197D01*
X287929D02*
X295929Y396197D01*
X287929Y413913D02*
X295929Y421913D01*
X287929D02*
X295929Y413913D01*
X368638D02*
X376638Y421913D01*
X368638D02*
X376638Y413913D01*
X368638Y396197D02*
X376638Y404197D01*
X368638D02*
X376638Y396197D01*
X343047D02*
X351047Y404197D01*
X343047D02*
X351047Y396197D01*
X343047Y413913D02*
X351047Y421913D01*
X343047D02*
X351047Y413913D01*
X423756D02*
X431756Y421913D01*
X423756D02*
X431756Y413913D01*
X423756Y396197D02*
X431756Y404197D01*
X423756D02*
X431756Y396197D01*
X398165D02*
X406165Y404197D01*
X398165D02*
X406165Y396197D01*
X398165Y413913D02*
X406165Y421913D01*
X398165D02*
X406165Y413913D01*
X258402Y138323D02*
X266402Y146323D01*
X258402D02*
X266402Y138323D01*
X258402Y120606D02*
X266402Y128606D01*
X258402D02*
X266402Y120606D01*
X232811D02*
X240811Y128606D01*
X232811D02*
X240811Y120606D01*
X232811Y138323D02*
X240811Y146323D01*
X232811D02*
X240811Y138323D01*
X313520D02*
X321520Y146323D01*
X313520D02*
X321520Y138323D01*
X313520Y120606D02*
X321520Y128606D01*
X313520D02*
X321520Y120606D01*
X287929D02*
X295929Y128606D01*
X287929D02*
X295929Y120606D01*
X287929Y138323D02*
X295929Y146323D01*
X287929D02*
X295929Y138323D01*
X148165Y374543D02*
X156165Y382543D01*
X148165D02*
X156165Y374543D01*
X148165Y356827D02*
X156165Y364827D01*
X148165D02*
X156165Y356827D01*
X122575D02*
X130575Y364827D01*
X122575D02*
X130575Y356827D01*
X122575Y374543D02*
X130575Y382543D01*
X122575D02*
X130575Y374543D01*
X203283Y453283D02*
X211283Y461283D01*
X203283D02*
X211283Y453283D01*
X203283Y435567D02*
X211283Y443567D01*
X203283D02*
X211283Y435567D01*
X177693D02*
X185693Y443567D01*
X177693D02*
X185693Y435567D01*
X177693Y453283D02*
X185693Y461283D01*
X177693D02*
X185693Y453283D01*
X423756Y374543D02*
X431756Y382543D01*
X423756D02*
X431756Y374543D01*
X423756Y356827D02*
X431756Y364827D01*
X423756D02*
X431756Y356827D01*
X398165D02*
X406165Y364827D01*
X398165D02*
X406165Y356827D01*
X398165Y374543D02*
X406165Y382543D01*
X398165D02*
X406165Y374543D01*
X368638Y177693D02*
X376638Y185693D01*
X368638D02*
X376638Y177693D01*
X368638Y159976D02*
X376638Y167976D01*
X368638D02*
X376638Y159976D01*
X343047D02*
X351047Y167976D01*
X343047D02*
X351047Y159976D01*
X343047Y177693D02*
X351047Y185693D01*
X343047D02*
X351047Y177693D01*
X203283Y374543D02*
X211283Y382543D01*
X203283D02*
X211283Y374543D01*
X203283Y356827D02*
X211283Y364827D01*
X203283D02*
X211283Y356827D01*
X177693D02*
X185693Y364827D01*
X177693D02*
X185693Y356827D01*
X177693Y374543D02*
X185693Y382543D01*
X177693D02*
X185693Y374543D01*
X258402D02*
X266402Y382543D01*
X258402D02*
X266402Y374543D01*
X258402Y356827D02*
X266402Y364827D01*
X258402D02*
X266402Y356827D01*
X232811D02*
X240811Y364827D01*
X232811D02*
X240811Y356827D01*
X232811Y374543D02*
X240811Y382543D01*
X232811D02*
X240811Y374543D01*
X313520D02*
X321520Y382543D01*
X313520D02*
X321520Y374543D01*
X313520Y356827D02*
X321520Y364827D01*
X313520D02*
X321520Y356827D01*
X287929D02*
X295929Y364827D01*
X287929D02*
X295929Y356827D01*
X287929Y374543D02*
X295929Y382543D01*
X287929D02*
X295929Y374543D01*
X368638D02*
X376638Y382543D01*
X368638D02*
X376638Y374543D01*
X368638Y356827D02*
X376638Y364827D01*
X368638D02*
X376638Y356827D01*
X343047D02*
X351047Y364827D01*
X343047D02*
X351047Y356827D01*
X343047Y374543D02*
X351047Y382543D01*
X343047D02*
X351047Y374543D01*
X423756Y177693D02*
X431756Y185693D01*
X423756D02*
X431756Y177693D01*
X423756Y159976D02*
X431756Y167976D01*
X423756D02*
X431756Y159976D01*
X398165D02*
X406165Y167976D01*
X398165D02*
X406165Y159976D01*
X398165Y177693D02*
X406165Y185693D01*
X398165D02*
X406165Y177693D01*
X148165Y138323D02*
X156165Y146323D01*
X148165D02*
X156165Y138323D01*
X148165Y120606D02*
X156165Y128606D01*
X148165D02*
X156165Y120606D01*
X122575D02*
X130575Y128606D01*
X122575D02*
X130575Y120606D01*
X122575Y138323D02*
X130575Y146323D01*
X122575D02*
X130575Y138323D01*
X148165Y335173D02*
X156165Y343173D01*
X148165D02*
X156165Y335173D01*
X148165Y317457D02*
X156165Y325457D01*
X148165D02*
X156165Y317457D01*
X122575D02*
X130575Y325457D01*
X122575D02*
X130575Y317457D01*
X122575Y335173D02*
X130575Y343173D01*
X122575D02*
X130575Y335173D01*
X203283D02*
X211283Y343173D01*
X203283D02*
X211283Y335173D01*
X203283Y317457D02*
X211283Y325457D01*
X203283D02*
X211283Y317457D01*
X177693D02*
X185693Y325457D01*
X177693D02*
X185693Y317457D01*
X177693Y335173D02*
X185693Y343173D01*
X177693D02*
X185693Y335173D01*
X258402Y453283D02*
X266402Y461283D01*
X258402D02*
X266402Y453283D01*
X258402Y435567D02*
X266402Y443567D01*
X258402D02*
X266402Y435567D01*
X232811D02*
X240811Y443567D01*
X232811D02*
X240811Y435567D01*
X232811Y453283D02*
X240811Y461283D01*
X232811D02*
X240811Y453283D01*
X258402Y335173D02*
X266402Y343173D01*
X258402D02*
X266402Y335173D01*
X258402Y317457D02*
X266402Y325457D01*
X258402D02*
X266402Y317457D01*
X232811D02*
X240811Y325457D01*
X232811D02*
X240811Y317457D01*
X232811Y335173D02*
X240811Y343173D01*
X232811D02*
X240811Y335173D01*
X313520D02*
X321520Y343173D01*
X313520D02*
X321520Y335173D01*
X313520Y317457D02*
X321520Y325457D01*
X313520D02*
X321520Y317457D01*
X287929D02*
X295929Y325457D01*
X287929D02*
X295929Y317457D01*
X287929Y335173D02*
X295929Y343173D01*
X287929D02*
X295929Y335173D01*
X368638D02*
X376638Y343173D01*
X368638D02*
X376638Y335173D01*
X368638Y317457D02*
X376638Y325457D01*
X368638D02*
X376638Y317457D01*
X343047D02*
X351047Y325457D01*
X343047D02*
X351047Y317457D01*
X343047Y335173D02*
X351047Y343173D01*
X343047D02*
X351047Y335173D01*
X423756D02*
X431756Y343173D01*
X423756D02*
X431756Y335173D01*
X423756Y317457D02*
X431756Y325457D01*
X423756D02*
X431756Y317457D01*
X398165D02*
X406165Y325457D01*
X398165D02*
X406165Y317457D01*
X398165Y335173D02*
X406165Y343173D01*
X398165D02*
X406165Y335173D01*
X258402Y177693D02*
X266402Y185693D01*
X258402D02*
X266402Y177693D01*
X258402Y159976D02*
X266402Y167976D01*
X258402D02*
X266402Y159976D01*
X232811D02*
X240811Y167976D01*
X232811D02*
X240811Y159976D01*
X232811Y177693D02*
X240811Y185693D01*
X232811D02*
X240811Y177693D01*
X313520D02*
X321520Y185693D01*
X313520D02*
X321520Y177693D01*
X313520Y159976D02*
X321520Y167976D01*
X313520D02*
X321520Y159976D01*
X287929D02*
X295929Y167976D01*
X287929D02*
X295929Y159976D01*
X287929Y177693D02*
X295929Y185693D01*
X287929D02*
X295929Y177693D01*
X148165Y295803D02*
X156165Y303803D01*
X148165D02*
X156165Y295803D01*
X148165Y278087D02*
X156165Y286087D01*
X148165D02*
X156165Y278087D01*
X122575D02*
X130575Y286087D01*
X122575D02*
X130575Y278087D01*
X122575Y295803D02*
X130575Y303803D01*
X122575D02*
X130575Y295803D01*
X203283D02*
X211283Y303803D01*
X203283D02*
X211283Y295803D01*
X203283Y278087D02*
X211283Y286087D01*
X203283D02*
X211283Y278087D01*
X177693D02*
X185693Y286087D01*
X177693D02*
X185693Y278087D01*
X177693Y295803D02*
X185693Y303803D01*
X177693D02*
X185693Y295803D01*
X258402D02*
X266402Y303803D01*
X258402D02*
X266402Y295803D01*
X258402Y278087D02*
X266402Y286087D01*
X258402D02*
X266402Y278087D01*
X232811D02*
X240811Y286087D01*
X232811D02*
X240811Y278087D01*
X232811Y295803D02*
X240811Y303803D01*
X232811D02*
X240811Y295803D01*
X313520D02*
X321520Y303803D01*
X313520D02*
X321520Y295803D01*
X313520Y278087D02*
X321520Y286087D01*
X313520D02*
X321520Y278087D01*
X287929D02*
X295929Y286087D01*
X287929D02*
X295929Y278087D01*
X287929Y295803D02*
X295929Y303803D01*
X287929D02*
X295929Y295803D01*
X313520Y453283D02*
X321520Y461283D01*
X313520D02*
X321520Y453283D01*
X313520Y435567D02*
X321520Y443567D01*
X313520D02*
X321520Y435567D01*
X287929D02*
X295929Y443567D01*
X287929D02*
X295929Y435567D01*
X287929Y453283D02*
X295929Y461283D01*
X287929D02*
X295929Y453283D01*
X368638Y295803D02*
X376638Y303803D01*
X368638D02*
X376638Y295803D01*
X368638Y278087D02*
X376638Y286087D01*
X368638D02*
X376638Y278087D01*
X343047D02*
X351047Y286087D01*
X343047D02*
X351047Y278087D01*
X343047Y295803D02*
X351047Y303803D01*
X343047D02*
X351047Y295803D01*
X423756D02*
X431756Y303803D01*
X423756D02*
X431756Y295803D01*
X423756Y278087D02*
X431756Y286087D01*
X423756D02*
X431756Y278087D01*
X398165D02*
X406165Y286087D01*
X398165D02*
X406165Y278087D01*
X398165Y295803D02*
X406165Y303803D01*
X398165D02*
X406165Y295803D01*
X148165Y256433D02*
X156165Y264433D01*
X148165D02*
X156165Y256433D01*
X148165Y238717D02*
X156165Y246717D01*
X148165D02*
X156165Y238717D01*
X122575D02*
X130575Y246717D01*
X122575D02*
X130575Y238717D01*
X122575Y256433D02*
X130575Y264433D01*
X122575D02*
X130575Y256433D01*
X203283D02*
X211283Y264433D01*
X203283D02*
X211283Y256433D01*
X203283Y238717D02*
X211283Y246717D01*
X203283D02*
X211283Y238717D01*
X177693D02*
X185693Y246717D01*
X177693D02*
X185693Y238717D01*
X177693Y256433D02*
X185693Y264433D01*
X177693D02*
X185693Y256433D01*
X258402D02*
X266402Y264433D01*
X258402D02*
X266402Y256433D01*
X258402Y238717D02*
X266402Y246717D01*
X258402D02*
X266402Y238717D01*
X232811D02*
X240811Y246717D01*
X232811D02*
X240811Y238717D01*
X232811Y256433D02*
X240811Y264433D01*
X232811D02*
X240811Y256433D01*
X313520D02*
X321520Y264433D01*
X313520D02*
X321520Y256433D01*
X313520Y238717D02*
X321520Y246717D01*
X313520D02*
X321520Y238717D01*
X287929D02*
X295929Y246717D01*
X287929D02*
X295929Y238717D01*
X287929Y256433D02*
X295929Y264433D01*
X287929D02*
X295929Y256433D01*
X368638D02*
X376638Y264433D01*
X368638D02*
X376638Y256433D01*
X368638Y238717D02*
X376638Y246717D01*
X368638D02*
X376638Y238717D01*
X343047D02*
X351047Y246717D01*
X343047D02*
X351047Y238717D01*
X343047Y256433D02*
X351047Y264433D01*
X343047D02*
X351047Y256433D01*
X423756Y254465D02*
X431756Y262465D01*
X423756D02*
X431756Y254465D01*
X423756Y236748D02*
X431756Y244748D01*
X423756D02*
X431756Y236748D01*
X398165D02*
X406165Y244748D01*
X398165D02*
X406165Y236748D01*
X398165Y254465D02*
X406165Y262465D01*
X398165D02*
X406165Y254465D01*
X368638Y453283D02*
X376638Y461283D01*
X368638D02*
X376638Y453283D01*
X368638Y435567D02*
X376638Y443567D01*
X368638D02*
X376638Y435567D01*
X343047D02*
X351047Y443567D01*
X343047D02*
X351047Y435567D01*
X343047Y453283D02*
X351047Y461283D01*
X343047D02*
X351047Y453283D01*
X148165Y177693D02*
X156165Y185693D01*
X148165D02*
X156165Y177693D01*
X148165Y159976D02*
X156165Y167976D01*
X148165D02*
X156165Y159976D01*
X122575D02*
X130575Y167976D01*
X122575D02*
X130575Y159976D01*
X122575Y177693D02*
X130575Y185693D01*
X122575D02*
X130575Y177693D01*
X203283D02*
X211283Y185693D01*
X203283D02*
X211283Y177693D01*
X203283Y159976D02*
X211283Y167976D01*
X203283D02*
X211283Y159976D01*
X177693D02*
X185693Y167976D01*
X177693D02*
X185693Y159976D01*
X177693Y177693D02*
X185693Y185693D01*
X177693D02*
X185693Y177693D01*
X148165Y217063D02*
X156165Y225063D01*
X148165D02*
X156165Y217063D01*
X148165Y199346D02*
X156165Y207346D01*
X148165D02*
X156165Y199346D01*
X122575D02*
X130575Y207346D01*
X122575D02*
X130575Y199346D01*
X122575Y217063D02*
X130575Y225063D01*
X122575D02*
X130575Y217063D01*
X203283D02*
X211283Y225063D01*
X203283D02*
X211283Y217063D01*
X203283Y199346D02*
X211283Y207346D01*
X203283D02*
X211283Y199346D01*
X177693D02*
X185693Y207346D01*
X177693D02*
X185693Y199346D01*
X177693Y217063D02*
X185693Y225063D01*
X177693D02*
X185693Y217063D01*
X258402D02*
X266402Y225063D01*
X258402D02*
X266402Y217063D01*
X258402Y199346D02*
X266402Y207346D01*
X258402D02*
X266402Y199346D01*
X232811D02*
X240811Y207346D01*
X232811D02*
X240811Y199346D01*
X232811Y217063D02*
X240811Y225063D01*
X232811D02*
X240811Y217063D01*
X313520D02*
X321520Y225063D01*
X313520D02*
X321520Y217063D01*
X313520Y199346D02*
X321520Y207346D01*
X313520D02*
X321520Y199346D01*
X287929D02*
X295929Y207346D01*
X287929D02*
X295929Y199346D01*
X287929Y217063D02*
X295929Y225063D01*
X287929D02*
X295929Y217063D01*
X368638D02*
X376638Y225063D01*
X368638D02*
X376638Y217063D01*
X368638Y199346D02*
X376638Y207346D01*
X368638D02*
X376638Y199346D01*
X343047D02*
X351047Y207346D01*
X343047D02*
X351047Y199346D01*
X343047Y217063D02*
X351047Y225063D01*
X343047D02*
X351047Y217063D01*
X423756D02*
X431756Y225063D01*
X423756D02*
X431756Y217063D01*
X423756Y199346D02*
X431756Y207346D01*
X423756D02*
X431756Y199346D01*
X398165D02*
X406165Y207346D01*
X398165D02*
X406165Y199346D01*
X398165Y217063D02*
X406165Y225063D01*
X398165D02*
X406165Y217063D01*
X203283Y138323D02*
X211283Y146323D01*
X203283D02*
X211283Y138323D01*
X203283Y120606D02*
X211283Y128606D01*
X203283D02*
X211283Y120606D01*
X177693D02*
X185693Y128606D01*
X177693D02*
X185693Y120606D01*
X177693Y138323D02*
X185693Y146323D01*
X177693D02*
X185693Y138323D01*
X423756D02*
X431756Y146323D01*
X423756D02*
X431756Y138323D01*
X423756Y120606D02*
X431756Y128606D01*
X423756D02*
X431756Y120606D01*
X398165D02*
X406165Y128606D01*
X398165D02*
X406165Y120606D01*
X398165Y138323D02*
X406165Y146323D01*
X398165D02*
X406165Y138323D01*
X423756Y453283D02*
X431756Y461283D01*
X423756D02*
X431756Y453283D01*
X423756Y435567D02*
X431756Y443567D01*
X423756D02*
X431756Y435567D01*
X398165D02*
X406165Y443567D01*
X398165D02*
X406165Y435567D01*
X398165Y453283D02*
X406165Y461283D01*
X398165D02*
X406165Y453283D01*
X148165D02*
X156165Y461283D01*
X148165D02*
X156165Y453283D01*
X148165Y435567D02*
X156165Y443567D01*
X148165D02*
X156165Y435567D01*
X122575D02*
X130575Y443567D01*
X122575D02*
X130575Y435567D01*
X122575Y453283D02*
X130575Y461283D01*
X122575D02*
X130575Y453283D01*
X392063Y606539D02*
X400063Y614539D01*
Y606539*
X392063Y614539*
Y606539*
Y656539D02*
X400063Y664539D01*
Y656539*
X392063Y664539*
Y656539*
X286472Y583547D02*
X294472D01*
X286472Y591547*
X294472*
X286472Y583547*
Y679531D02*
X294472D01*
X286472Y687531*
X294472*
X286472Y679531*
X114095Y132304D02*
X122095D01*
X118095Y128304D02*
Y136304D01*
X137230Y154204D02*
X145230D01*
X145230D02*
Y162204D01*
X145230D02*
X137230D01*
X137230D02*
Y154204D01*
X141230Y158204D02*
Y162204D01*
X131948Y188113D02*
X139948D01*
Y196113*
X131948*
Y188113*
X135948Y192113D02*
Y196113D01*
X353032Y172873D02*
X361032D01*
X357032Y168873D02*
Y176873D01*
X350159Y212077D02*
X358159D01*
X354159Y208077D02*
Y216077D01*
X136983Y227539D02*
X144983D01*
Y235539*
X136983*
Y227539*
X140983Y231539D02*
Y235539D01*
X296943Y250440D02*
X304943D01*
X300943Y246440D02*
Y254440D01*
X123446Y267385D02*
X131446D01*
Y275385*
X123446*
Y267385*
X127446Y271385D02*
Y275385D01*
X298682Y291943D02*
X306682D01*
X302682Y287943D02*
Y295943D01*
X194767Y308475D02*
X202767D01*
Y316475*
X194767*
Y308475*
X198767Y312475D02*
Y316475D01*
X209449Y303328D02*
X217449D01*
Y311328*
X209449*
Y303328*
X213449Y307328D02*
Y311328D01*
X213839Y305902D02*
X221839D01*
Y313902*
X213839*
Y305902*
X217839Y309902D02*
Y313902D01*
X223583Y323487D02*
X231583D01*
X227583Y319487D02*
Y327487D01*
X356412Y331886D02*
X364412D01*
X360412Y327886D02*
Y335886D01*
X213179Y348370D02*
X221179D01*
Y356370*
X213179*
Y348370*
X217179Y352370D02*
Y356370D01*
X221861Y336477D02*
X229861D01*
Y344477*
X221861*
Y336477*
X225861Y340477D02*
Y344477D01*
X208184Y344505D02*
X216184D01*
Y352505*
X208184*
Y344505*
X212184Y348505D02*
Y352505D01*
X361922Y370009D02*
X369922D01*
X365922Y366009D02*
Y374009D01*
X129374Y382214D02*
X137374D01*
Y390214*
X129374*
Y382214*
X133374Y386214D02*
Y390214D01*
X207258Y390094D02*
X215258D01*
X211258Y386094D02*
Y394094D01*
X192648Y384308D02*
X200648D01*
Y392308*
X192648*
Y384308*
X196648Y388308D02*
Y392308D01*
X188266Y392104D02*
X196266D01*
X192266Y388104D02*
Y396104D01*
X222921Y368566D02*
X230921D01*
Y376566*
X222921*
Y368566*
X226921Y372566D02*
Y376566D01*
X213687Y384157D02*
X221687D01*
Y392157*
X213687*
Y384157*
X217687Y388157D02*
Y392157D01*
X218198Y387810D02*
X226198D01*
X222198Y383810D02*
Y391810D01*
X210358Y377843D02*
X218358D01*
Y385843*
X210358*
Y377843*
X214358Y381843D02*
Y385843D01*
X245928Y381130D02*
X253928D01*
Y389130*
X245928*
Y381130*
X249928Y385130D02*
Y389130D01*
X431895Y390657D02*
X439895D01*
X435895Y386657D02*
Y394657D01*
X190616Y389043D02*
X198616D01*
Y397043*
X190616*
Y389043*
X194616Y393043D02*
Y397043D01*
X195491Y393876D02*
X203491D01*
X199491Y389876D02*
Y397876D01*
X228691Y393456D02*
X236691D01*
X232691Y389456D02*
Y397456D01*
X373436Y410816D02*
X381436D01*
X377436Y406816D02*
Y414816D01*
X192970Y424975D02*
X200970D01*
X196970Y420975D02*
Y428975D01*
X210132Y427204D02*
X218132D01*
X214132Y423204D02*
Y431204D01*
X213839Y412765D02*
X221839D01*
Y420765*
X213839*
Y412765*
X217839Y416765D02*
Y420765D01*
X243752Y424391D02*
X251752D01*
X247752Y420391D02*
Y428391D01*
X139661Y429890D02*
X147661D01*
Y437890*
X139661*
Y429890*
X143661Y433890D02*
Y437890D01*
X217012Y434505D02*
X225012D01*
X221012Y430505D02*
Y438505D01*
X213116Y449624D02*
X221116D01*
X217116Y445624D02*
Y453624D01*
X219218Y432679D02*
X227218D01*
X223218Y428679D02*
Y436679D01*
X210963Y431836D02*
X218963D01*
Y439836*
X210963*
Y431836*
X214963Y435836D02*
Y439836D01*
X243853Y433713D02*
X251853D01*
X247853Y429713D02*
Y437713D01*
X295380Y447380D02*
X303380D01*
X299380Y443380D02*
Y451380D01*
X202538Y467253D02*
X210538D01*
X206538Y463253D02*
Y471253D01*
X223257Y465456D02*
X231257D01*
X227257Y461456D02*
Y469456D01*
X219791Y454476D02*
X227791D01*
X223791Y450476D02*
Y458476D01*
X229336Y466505D02*
X237336D01*
Y474505*
X229336*
Y466505*
X233336Y470505D02*
Y474505D01*
X294821Y464483D02*
X302821D01*
X298821Y460483D02*
Y468483D01*
X299693Y464237D02*
X307693D01*
X303693Y460237D02*
Y468237D01*
X297021Y464988D02*
X305021D01*
X301021Y460988D02*
Y468988D01*
X301893Y464347D02*
X309893D01*
X305893Y460347D02*
Y468347D01*
X359453Y467411D02*
X367453D01*
X363453Y463411D02*
Y471411D01*
X356919Y467073D02*
X364919D01*
X360919Y463073D02*
Y471073D01*
X353370Y467073D02*
X361370D01*
X357370Y463073D02*
Y471073D01*
X361922Y467459D02*
X369922D01*
X365922Y463459D02*
Y471459D01*
X375113Y469301D02*
X383113D01*
X379113Y465301D02*
Y473301D01*
X160268Y470454D02*
X168268D01*
Y478454*
X160268*
Y470454*
X164268Y474454D02*
Y478454D01*
X187985Y483964D02*
X195985D01*
Y491964*
X187985*
Y483964*
X191985Y487964D02*
Y491964D01*
X191361Y486777D02*
X199361D01*
Y494777*
X191361*
Y486777*
X195361Y490777D02*
Y494777D01*
X225560Y483550D02*
X233560D01*
X229560Y479550D02*
Y487550D01*
X224686Y483967D02*
X232686D01*
Y491967*
X224686*
Y483967*
X228686Y487967D02*
Y491967D01*
X242653Y483856D02*
X250653D01*
X246653Y479856D02*
Y487856D01*
X239339Y484117D02*
X247339D01*
X243339Y480117D02*
Y488117D01*
X235851Y483768D02*
X243851D01*
X239851Y479768D02*
Y487768D01*
X231229Y483550D02*
X239229D01*
X235229Y479550D02*
Y487550D01*
X228176Y483550D02*
X236176D01*
X232176Y479550D02*
Y487550D01*
X231501Y483936D02*
X239501D01*
Y491936*
X231501*
Y483936*
X235501Y487936D02*
Y491936D01*
X228503Y483904D02*
X236503D01*
Y491904*
X228503*
Y483904*
X232503Y487904D02*
Y491904D01*
X236107Y483967D02*
X244107D01*
Y491967*
X236107*
Y483967*
X240107Y487967D02*
Y491967D01*
X242670Y483967D02*
X250670D01*
Y491967*
X242670*
Y483967*
X246670Y487967D02*
Y491967D01*
X239956Y483841D02*
X247956D01*
Y491841*
X239956*
Y483841*
X243956Y487841D02*
Y491841D01*
X254426Y484292D02*
X262426D01*
X258426Y480292D02*
Y488292D01*
X251112Y484204D02*
X259112D01*
X255112Y480204D02*
Y488204D01*
X248147Y484030D02*
X256147D01*
X252147Y480030D02*
Y488030D01*
X248538Y483904D02*
X256538D01*
Y491904*
X248538*
Y483904*
X252538Y487904D02*
Y491904D01*
X255479Y483967D02*
X263479D01*
Y491967*
X255479*
Y483967*
X259479Y487967D02*
Y491967D01*
X251756Y483967D02*
X259756D01*
Y491967*
X251756*
Y483967*
X255756Y487967D02*
Y491967D01*
X414001Y477547D02*
X422001D01*
Y485547*
X414001*
Y477547*
X418001Y481547D02*
Y485547D01*
X423294Y471637D02*
X431294D01*
Y479637*
X423294*
Y471637*
X427294Y475637D02*
Y479637D01*
X111365Y505915D02*
X119365D01*
X115365Y501915D02*
Y509915D01*
X121086Y497291D02*
X129086D01*
Y505291*
X121086*
Y497291*
X125086Y501291D02*
Y505291D01*
X142564Y505525D02*
X150564D01*
X146564Y501525D02*
Y509525D01*
X128756Y504330D02*
X136756D01*
Y512330*
X128756*
Y504330*
X132756Y508330D02*
Y512330D01*
X221000Y492500D02*
X229000D01*
X225000Y488500D02*
Y496500D01*
X222138Y501244D02*
X230138D01*
X226138Y497244D02*
Y505244D01*
X222104Y504957D02*
X230104D01*
X226104Y500957D02*
Y508957D01*
X222104Y508806D02*
X230104D01*
X226104Y504806D02*
Y512806D01*
X224623Y492044D02*
X232623D01*
Y500044*
X224623*
Y492044*
X228623Y496044D02*
Y500044D01*
X240472Y494522D02*
X248472D01*
Y502522*
X240472*
Y494522*
X244472Y498522D02*
Y502522D01*
X240274Y498941D02*
X248274D01*
Y506941*
X240274*
Y498941*
X244274Y502941D02*
Y506941D01*
X240366Y502594D02*
X248366D01*
Y510594*
X240366*
Y502594*
X244366Y506594D02*
Y510594D01*
X247101Y498681D02*
X255101D01*
X251101Y494681D02*
Y502681D01*
X266514Y506457D02*
X274514D01*
X270514Y502457D02*
Y510457D01*
X264500Y498500D02*
X272500D01*
X268500Y494500D02*
Y502500D01*
X252003Y498668D02*
X260003D01*
X256003Y494668D02*
Y502668D01*
X249786Y505227D02*
X257786D01*
X253786Y501227D02*
Y509227D01*
X253554Y504958D02*
X261554D01*
X257554Y500958D02*
Y508958D01*
X271174Y502524D02*
X279174D01*
X275174Y498524D02*
Y506524D01*
X269351Y505562D02*
X277351D01*
X273351Y501562D02*
Y509562D01*
X272223Y500461D02*
X280223D01*
X276223Y496461D02*
Y504461D01*
X303454Y506791D02*
X311454D01*
X307454Y502791D02*
Y510791D01*
X321538Y499861D02*
X329538D01*
X325538Y495861D02*
Y503861D01*
X326289Y512320D02*
X334289D01*
X330289Y508320D02*
Y516320D01*
X310479Y501238D02*
X318479D01*
X314479Y497238D02*
Y505238D01*
X328035Y506198D02*
X336035D01*
X332035Y502198D02*
Y510198D01*
X332971Y508569D02*
X340971D01*
X336971Y504569D02*
Y512569D01*
X335356Y506547D02*
X343356D01*
X339356Y502547D02*
Y510547D01*
X371500Y504500D02*
X379500D01*
X375500Y500500D02*
Y508500D01*
X406000Y496500D02*
X414000D01*
X410000Y492500D02*
Y500500D01*
X418000Y494500D02*
X426000D01*
X422000Y490500D02*
Y498500D01*
X423500Y508000D02*
X431500D01*
X427500Y504000D02*
Y512000D01*
X414500Y508000D02*
X422500D01*
X418500Y504000D02*
Y512000D01*
X430500Y492500D02*
X438500D01*
X434500Y488500D02*
Y496500D01*
X142759Y531654D02*
X150759D01*
X146759Y527654D02*
Y535654D01*
X134579Y527930D02*
X142579D01*
Y535930*
X134579*
Y527930*
X138579Y531930D02*
Y535930D01*
X134501Y523360D02*
X142501D01*
Y531360*
X134501*
Y523360*
X138501Y527360D02*
Y531360D01*
X132159Y513011D02*
X140159D01*
X136159Y509011D02*
Y517011D01*
X132159Y519127D02*
X140159D01*
X136159Y515127D02*
Y523127D01*
X131842Y524940D02*
X139842D01*
X135842Y520940D02*
Y528940D01*
X131814Y529957D02*
X139814D01*
X135814Y525957D02*
Y533957D01*
X169936Y519815D02*
X177936D01*
Y527815*
X169936*
Y519815*
X173936Y523815D02*
Y527815D01*
X179735Y521747D02*
X187735D01*
Y529747*
X179735*
Y521747*
X183735Y525747D02*
Y529747D01*
X182003Y519065D02*
X190003D01*
Y527065*
X182003*
Y519065*
X186003Y523065D02*
Y527065D01*
X205791Y531806D02*
X213791D01*
X209791Y527806D02*
Y535806D01*
X205319Y508961D02*
X213319D01*
Y516961*
X205319*
Y508961*
X209319Y512961D02*
Y516961D01*
X206809Y519456D02*
X214809D01*
Y527456*
X206809*
Y519456*
X210809Y523456D02*
Y527456D01*
X206027Y522956D02*
X214027D01*
Y530956*
X206027*
Y522956*
X210027Y526956D02*
Y530956D01*
X223525Y527823D02*
X231525D01*
X227525Y523823D02*
Y531823D01*
X213199Y508961D02*
X221199D01*
Y516961*
X213199*
Y508961*
X217199Y512961D02*
Y516961D01*
X209463Y508961D02*
X217463D01*
Y516961*
X209463*
Y508961*
X213463Y512961D02*
Y516961D01*
X225735Y518011D02*
X233735D01*
X229735Y514011D02*
Y522011D01*
X235184Y524136D02*
X243184D01*
X239184Y520136D02*
Y528136D01*
X231942Y527185D02*
X239942D01*
X235942Y523185D02*
Y531185D01*
X231942Y523985D02*
X239942D01*
X235942Y519985D02*
Y527985D01*
X241483Y530435D02*
X249483D01*
X245483Y526435D02*
Y534435D01*
X244633Y530435D02*
X252633D01*
X248633Y526435D02*
Y534435D01*
X229052Y530385D02*
X237052D01*
X233052Y526385D02*
Y534385D01*
X235092Y530385D02*
X243092D01*
X239092Y526385D02*
Y534385D01*
X235134Y527185D02*
X243134D01*
X239134Y523185D02*
Y531185D01*
X247952Y524112D02*
X255952D01*
X251952Y520112D02*
Y528112D01*
X247717Y527312D02*
X255717D01*
X251717Y523312D02*
Y531312D01*
X235166Y520936D02*
X243166D01*
X239166Y516936D02*
Y524936D01*
X238484Y527286D02*
X246484D01*
X242484Y523286D02*
Y531286D01*
X241483Y527286D02*
X249483D01*
X245483Y523286D02*
Y531286D01*
X245505Y515894D02*
X253505D01*
X249505Y511894D02*
Y519894D01*
X238366Y521125D02*
X246366D01*
X242366Y517125D02*
Y525125D01*
X241566Y520986D02*
X249566D01*
X245566Y516986D02*
Y524986D01*
X243905Y514356D02*
X251905D01*
X247905Y510356D02*
Y518356D01*
X238442Y530486D02*
X246442D01*
X242442Y526486D02*
Y534486D01*
X228742Y520957D02*
X236742D01*
X232742Y516957D02*
Y524957D01*
X232033Y520785D02*
X240033D01*
X236033Y516785D02*
Y524785D01*
X233718Y517158D02*
X241718D01*
X237718Y513158D02*
Y521158D01*
X241589Y524187D02*
X249589D01*
X245589Y520187D02*
Y528187D01*
X254352Y524136D02*
X262352D01*
X258352Y520136D02*
Y528136D01*
X260532Y530385D02*
X268532D01*
X264532Y526385D02*
Y534385D01*
X260381Y523985D02*
X268381D01*
X264381Y519985D02*
Y527985D01*
X257231Y530435D02*
X265231D01*
X261231Y526435D02*
Y534435D01*
X257181Y527336D02*
X265181D01*
X261181Y523336D02*
Y531336D01*
X250932Y527286D02*
X258932D01*
X254932Y523286D02*
Y531286D01*
X250040Y514825D02*
X258040D01*
X254040Y510825D02*
Y518825D01*
X257231Y524136D02*
X265231D01*
X261231Y520136D02*
Y528136D01*
X250932Y530435D02*
X258932D01*
X254932Y526435D02*
Y534435D01*
X254132Y527235D02*
X262132D01*
X258132Y523235D02*
Y531235D01*
X248307Y517618D02*
X256307D01*
X252307Y513618D02*
Y521618D01*
X248051Y530427D02*
X256051D01*
X252051Y526427D02*
Y534427D01*
X254082Y530435D02*
X262082D01*
X258082Y526435D02*
Y534435D01*
X260381Y527185D02*
X268381D01*
X264381Y523185D02*
Y531185D01*
X275274Y530462D02*
X283274D01*
X279274Y526462D02*
Y534462D01*
X270085Y528927D02*
X278085D01*
X274085Y524927D02*
Y532927D01*
X272688Y531103D02*
X280688D01*
X276688Y527103D02*
Y535103D01*
X270977Y524543D02*
X278977D01*
X274977Y520543D02*
Y528543D01*
X306363Y515256D02*
X314363D01*
X310363Y511256D02*
Y519256D01*
X306764Y530413D02*
X314764D01*
X310764Y526413D02*
Y534413D01*
X322426Y519728D02*
X330426D01*
X326426Y515728D02*
Y523728D01*
X322209Y530924D02*
X330209D01*
X326209Y526924D02*
Y534924D01*
X326025Y528801D02*
X334025D01*
X330025Y524801D02*
Y532801D01*
X326254Y532104D02*
X334254D01*
X330254Y528104D02*
Y536104D01*
X321558Y516613D02*
X329558D01*
X325558Y512613D02*
Y520613D01*
X323647Y523928D02*
X331647D01*
X327647Y519928D02*
Y527928D01*
X326868Y522057D02*
X334868D01*
X330868Y518057D02*
Y526057D01*
X310479Y527073D02*
X318479D01*
X314479Y523073D02*
Y531073D01*
X329454Y529002D02*
X337454D01*
X333454Y525002D02*
Y533002D01*
X329007Y517680D02*
X337007D01*
X333007Y513680D02*
Y521680D01*
X344383Y524641D02*
X352383D01*
X348383Y520641D02*
Y528641D01*
X329374Y514480D02*
X337374D01*
X333374Y510480D02*
Y518480D01*
X330994Y523015D02*
X338994D01*
X334994Y519015D02*
Y527015D01*
X328541Y525332D02*
X336541D01*
X332541Y521332D02*
Y529332D01*
X341102Y512771D02*
X349102D01*
X345102Y508771D02*
Y516771D01*
X346168Y529306D02*
X354168D01*
X350168Y525306D02*
Y533306D01*
X355435Y525445D02*
X363435D01*
X359435Y521445D02*
Y529445D01*
X349211Y532395D02*
X357211D01*
X353211Y528395D02*
Y536395D01*
X381918Y528229D02*
X389918D01*
X385918Y524229D02*
Y532229D01*
X372850Y530395D02*
X380850D01*
X376850Y526395D02*
Y534395D01*
X374505Y524601D02*
X382505D01*
X378505Y520601D02*
Y528601D01*
X388151Y528183D02*
X396151D01*
X392151Y524183D02*
Y532183D01*
X408500Y515500D02*
X416500D01*
X412500Y511500D02*
Y519500D01*
X443780Y529339D02*
X451780D01*
X447780Y525339D02*
Y533339D01*
X106617Y547308D02*
X114617D01*
X110617Y543308D02*
Y551308D01*
X141000Y541000D02*
X149000D01*
X145000Y537000D02*
Y545000D01*
X138284Y537309D02*
X146284D01*
Y545309*
X138284*
Y537309*
X142284Y541309D02*
Y545309D01*
X143494Y530910D02*
X151494D01*
Y538910*
X143494*
Y530910*
X147494Y534910D02*
Y538910D01*
X131897Y536559D02*
X139897D01*
X135897Y532559D02*
Y540559D01*
X132159Y543122D02*
X140159D01*
X136159Y539122D02*
Y547122D01*
X129941Y549440D02*
X137941D01*
X133941Y545440D02*
Y553440D01*
X147013Y551860D02*
X155013D01*
X151013Y547860D02*
Y555860D01*
X140762Y551860D02*
X148762D01*
X144762Y547860D02*
Y555860D01*
X135011Y550928D02*
X143011D01*
X139011Y546928D02*
Y554928D01*
X162651Y540113D02*
X170651D01*
Y548113*
X162651*
Y540113*
X166651Y544113D02*
Y548113D01*
X158708Y551524D02*
X166708D01*
X162708Y547524D02*
Y555524D01*
X152928Y551591D02*
X160928D01*
X156928Y547591D02*
Y555591D01*
X206116Y535006D02*
X214116D01*
X210116Y531006D02*
Y539006D01*
X188326Y530942D02*
X196326D01*
Y538942*
X188326*
Y530942*
X192326Y534942D02*
Y538942D01*
X206930Y539268D02*
X214930D01*
X210930Y535268D02*
Y543268D01*
X222505Y539995D02*
X230505D01*
X226505Y535995D02*
Y543995D01*
X222523Y533023D02*
X230523D01*
X226523Y529023D02*
Y537023D01*
X222413Y549712D02*
X230413D01*
X226413Y545712D02*
Y553712D01*
X219799Y529649D02*
X227799D01*
Y537649*
X219799*
Y529649*
X223799Y533649D02*
Y537649D01*
X209202Y529355D02*
X217202D01*
Y537355*
X209202*
Y529355*
X213202Y533355D02*
Y537355D01*
X222165Y532607D02*
X230165D01*
X230165D02*
Y540607D01*
X230165D02*
X222165D01*
X222165D02*
Y532607D01*
X226165Y536607D02*
Y540607D01*
X224700Y539614D02*
X232700D01*
X228700Y535614D02*
Y543614D01*
X219256Y545514D02*
X227256D01*
X223256Y541514D02*
Y549514D01*
X211267Y541513D02*
X219267D01*
X215267Y537513D02*
Y545513D01*
X211867Y538313D02*
X219867D01*
X215867Y534313D02*
Y542313D01*
X241483Y533585D02*
X249483D01*
X245483Y529585D02*
Y537585D01*
X244633Y546183D02*
X252633D01*
X248633Y542183D02*
Y550183D01*
X238484Y536734D02*
X246484D01*
X242484Y532734D02*
Y540734D01*
X232034Y546183D02*
X240034D01*
X236034Y542183D02*
Y550183D01*
X231834Y542983D02*
X239834D01*
X235834Y538983D02*
Y546983D01*
X244633Y549333D02*
X252633D01*
X248633Y545333D02*
Y553333D01*
X241534Y549333D02*
X249534D01*
X245534Y545333D02*
Y553333D01*
X241483Y546183D02*
X249483D01*
X245483Y542183D02*
Y550183D01*
X238334Y549333D02*
X246334D01*
X242334Y545333D02*
Y553333D01*
X238334Y546183D02*
X246334D01*
X242334Y542183D02*
Y550183D01*
X241483Y543034D02*
X249483D01*
X245483Y539034D02*
Y547034D01*
X244633Y543034D02*
X252633D01*
X248633Y539034D02*
Y547034D01*
X232075Y549294D02*
X240075D01*
X236075Y545294D02*
Y553294D01*
X241470Y539787D02*
X249470D01*
X245470Y535787D02*
Y543787D01*
X235034Y543034D02*
X243034D01*
X239034Y539034D02*
Y547034D01*
X235104Y549333D02*
X243104D01*
X239104Y545333D02*
Y553333D01*
X232034Y533585D02*
X240034D01*
X236034Y529585D02*
Y537585D01*
X235184Y536734D02*
X243184D01*
X239184Y532734D02*
Y540734D01*
X235184Y533585D02*
X243184D01*
X239184Y529585D02*
Y537585D01*
X235184Y546234D02*
X243184D01*
X239184Y542234D02*
Y550234D01*
X231784Y536734D02*
X239784D01*
X235784Y532734D02*
Y540734D01*
X238534Y543034D02*
X246534D01*
X242534Y539034D02*
Y547034D01*
X244633Y533585D02*
X252633D01*
X248633Y529585D02*
Y537585D01*
X260381Y546234D02*
X268381D01*
X264381Y542234D02*
Y550234D01*
X254082Y533585D02*
X262082D01*
X258082Y529585D02*
Y537585D01*
X254031Y549333D02*
X262031D01*
X258031Y545333D02*
Y553333D01*
X250831Y549333D02*
X258831D01*
X254831Y545333D02*
Y553333D01*
X254082Y543034D02*
X262082D01*
X258082Y539034D02*
Y547034D01*
X254082Y546183D02*
X262082D01*
X258082Y542183D02*
Y550183D01*
X257231Y533585D02*
X265231D01*
X261231Y529585D02*
Y537585D01*
X257231Y536734D02*
X265231D01*
X261231Y532734D02*
Y540734D01*
X254082Y539622D02*
X262082D01*
X258082Y535622D02*
Y543622D01*
X260381Y533585D02*
X268381D01*
X264381Y529585D02*
Y537585D01*
X257231Y546183D02*
X265231D01*
X261231Y542183D02*
Y550183D01*
X260431Y549282D02*
X268431D01*
X264431Y545282D02*
Y553282D01*
X260381Y543034D02*
X268381D01*
X264381Y539034D02*
Y547034D01*
X257231Y549333D02*
X265231D01*
X261231Y545333D02*
Y553333D01*
X271260Y544718D02*
X279260D01*
X275260Y540718D02*
Y548718D01*
X271326Y536304D02*
X279326D01*
X275326Y532304D02*
Y540304D01*
X268186Y540518D02*
X276186D01*
X272186Y536518D02*
Y544518D01*
X274526Y535585D02*
X282526D01*
X278526Y531585D02*
Y539585D01*
X281973Y542626D02*
X289973D01*
X285973Y538626D02*
Y546626D01*
X279985Y548178D02*
X287985D01*
X283985Y544178D02*
Y552178D01*
X283736Y546826D02*
X291736D01*
X287736Y542826D02*
Y550826D01*
X307219Y534613D02*
X315219D01*
X311219Y530613D02*
Y538613D01*
X300657Y540257D02*
X308657D01*
X304657Y536257D02*
Y544257D01*
X307493Y545907D02*
X315493D01*
X311493Y541907D02*
Y549907D01*
X290067Y549727D02*
X298067D01*
X294067Y545727D02*
Y553727D01*
X321921Y535124D02*
X329921D01*
X325921Y531124D02*
Y539124D01*
X322119Y540874D02*
X330119D01*
X326119Y536874D02*
Y544874D01*
X325371Y537900D02*
X333371D01*
X329371Y533900D02*
Y541900D01*
X325359Y550089D02*
X333359D01*
X329359Y546089D02*
Y554089D01*
X310734Y537171D02*
X318734D01*
X314734Y533171D02*
Y541171D01*
X308133Y541707D02*
X316133D01*
X312133Y537707D02*
Y545707D01*
X329662Y533949D02*
X337662D01*
X333662Y529949D02*
Y537949D01*
X345713Y547705D02*
X353713D01*
X349713Y543705D02*
Y551705D01*
X342125Y538528D02*
X350125D01*
X346125Y534528D02*
Y542528D01*
X332494Y545479D02*
X340494D01*
X336494Y541479D02*
Y549479D01*
X328570Y550018D02*
X336570D01*
X332570Y546018D02*
Y554018D01*
X362277Y551343D02*
X370277D01*
X366277Y547343D02*
Y555343D01*
X349348Y544616D02*
X357348D01*
X353348Y540616D02*
Y548616D01*
X349620Y540936D02*
X357620D01*
X353620Y536936D02*
Y544936D01*
X349348Y536030D02*
X357348D01*
X353348Y532030D02*
Y540030D01*
X383419Y532981D02*
X391419D01*
X387419Y528981D02*
Y536981D01*
X381681Y538520D02*
X389681D01*
X385681Y534520D02*
Y542520D01*
X374723Y543259D02*
X382723D01*
X378723Y539259D02*
Y547259D01*
X371943Y538125D02*
X379943D01*
X375943Y534125D02*
Y542125D01*
X371754Y552294D02*
X379754D01*
X375754Y548294D02*
Y556294D01*
X400500Y546500D02*
X408500D01*
X404500Y542500D02*
Y550500D01*
X427000Y549500D02*
X435000D01*
X431000Y545500D02*
Y553500D01*
X217657Y570691D02*
X225657D01*
X221657Y566691D02*
Y574691D01*
X223093Y553951D02*
X231093D01*
X227093Y549951D02*
Y557951D01*
X212396Y553034D02*
X220396D01*
X216396Y549034D02*
Y557034D01*
X220078Y561886D02*
X228078D01*
X224078Y557886D02*
Y565886D01*
X220311Y564367D02*
X228311D01*
X224311Y560367D02*
Y568367D01*
X238304Y552583D02*
X246304D01*
X242304Y548583D02*
Y556583D01*
X228885Y555632D02*
X236885D01*
X232885Y551632D02*
Y559632D01*
X246581Y568520D02*
X254581D01*
X250581Y564520D02*
Y572520D01*
X243381Y567916D02*
X251381D01*
X247381Y563916D02*
Y571916D01*
X241504Y552533D02*
X249504D01*
X245504Y548533D02*
Y556533D01*
X236443Y567115D02*
X244443D01*
X240443Y563115D02*
Y571115D01*
X235104Y552482D02*
X243104D01*
X239104Y548482D02*
Y556482D01*
X231313Y560113D02*
X239313D01*
Y568113*
X231313*
Y560113*
X235313Y564113D02*
Y568113D01*
X232183Y552482D02*
X240183D01*
X236183Y548482D02*
Y556482D01*
X237645Y569025D02*
X245645D01*
X241645Y565025D02*
Y573025D01*
X239793Y571402D02*
X247793D01*
X243793Y567402D02*
Y575402D01*
X240181Y567035D02*
X248181D01*
X244181Y563035D02*
Y571035D01*
X228885Y558782D02*
X236885D01*
X232885Y554782D02*
Y562782D01*
X247176Y559324D02*
X255176D01*
X251176Y555324D02*
Y563324D01*
X230050Y567507D02*
X238050D01*
Y575507*
X230050*
Y567507*
X234050Y571507D02*
Y575507D01*
X244704Y552541D02*
X252704D01*
X248704Y548541D02*
Y556541D01*
X229499Y563478D02*
X237499D01*
Y571478*
X229499*
Y563478*
X233499Y567478D02*
Y571478D01*
X254114Y567773D02*
X262114D01*
X258114Y563773D02*
Y571773D01*
X249914Y566449D02*
X257914D01*
X253914Y562449D02*
Y570449D01*
X260381Y552482D02*
X268381D01*
X264381Y548482D02*
Y556482D01*
X260452Y566266D02*
X268452D01*
X264452Y562266D02*
Y570266D01*
X257589Y570800D02*
X265589D01*
X261589Y566800D02*
Y574800D01*
X250932Y552482D02*
X258932D01*
X254932Y548482D02*
Y556482D01*
X248500Y571500D02*
X256500D01*
X252500Y567500D02*
Y575500D01*
X257282Y552533D02*
X265282D01*
X261282Y548533D02*
Y556533D01*
X284832Y565203D02*
X292832D01*
X288832Y561203D02*
Y569203D01*
X287256Y567651D02*
X295256D01*
X291256Y563651D02*
Y571651D01*
X287317Y570400D02*
X295317D01*
X291317Y566400D02*
Y574400D01*
X278270Y565217D02*
X286270D01*
X282270Y561217D02*
Y569217D01*
X279600Y556876D02*
X287600D01*
X283600Y552876D02*
Y560876D01*
X283051Y558842D02*
X291051D01*
X287051Y554842D02*
Y562842D01*
X290031Y572000D02*
X298031D01*
X294031Y568000D02*
Y576000D01*
X289430Y559058D02*
X297430D01*
X293430Y555058D02*
Y563058D01*
X292058Y567620D02*
X300058D01*
X296058Y563620D02*
Y571620D01*
X301065Y562399D02*
X309065D01*
X305065Y558399D02*
Y566399D01*
X343659Y554674D02*
X351659D01*
X347659Y550674D02*
Y558674D01*
X343679Y558874D02*
X351679D01*
X347679Y554874D02*
Y562874D01*
X356081Y558229D02*
X364081D01*
Y566229*
X356081*
Y558229*
X360081Y562229D02*
Y566229D01*
X356412Y570491D02*
X364412D01*
X360412Y566491D02*
Y574491D01*
X351511Y562042D02*
X359511D01*
X355511Y558042D02*
Y566042D01*
X352187Y558493D02*
X360187D01*
X356187Y554493D02*
Y562493D01*
X360669Y571274D02*
X368669D01*
X364669Y567274D02*
Y575274D01*
X367031Y566875D02*
X375031D01*
X371031Y562875D02*
Y570875D01*
X376353Y566225D02*
X384353D01*
X380353Y562225D02*
Y570225D01*
X377099Y555034D02*
X385099D01*
X381099Y551034D02*
Y559034D01*
X373049Y563987D02*
X381049D01*
X377049Y559987D02*
Y567987D01*
X369190Y554256D02*
X377190D01*
X373190Y550256D02*
Y558256D01*
X391961Y561771D02*
X399961D01*
X395961Y557771D02*
Y565771D01*
X422475Y568109D02*
X430475D01*
X426475Y564109D02*
Y572109D01*
X146845Y582196D02*
X154845D01*
X150845Y578196D02*
Y586196D01*
X151255Y579652D02*
X159255D01*
X155255Y575652D02*
Y583652D01*
X156683Y577787D02*
X164683D01*
X160683Y573787D02*
Y581787D01*
X165403Y568529D02*
X173403D01*
Y576529*
X165403*
Y568529*
X169403Y572529D02*
Y576529D01*
X191775Y588430D02*
X199775D01*
X195775Y584430D02*
Y592430D01*
X201544Y574717D02*
X209544D01*
X205544Y570717D02*
Y578717D01*
X219474Y588482D02*
X227474D01*
X223474Y584482D02*
Y592482D01*
X220500Y585500D02*
X228500D01*
X224500Y581500D02*
Y589500D01*
X220357Y573786D02*
X228357D01*
X224357Y569786D02*
Y577786D01*
X235171Y574969D02*
X243171D01*
Y582969*
X235171*
Y574969*
X239171Y578969D02*
Y582969D01*
X236242Y569736D02*
X244242D01*
Y577736*
X236242*
Y569736*
X240242Y573736D02*
Y577736D01*
X241538Y581407D02*
X249538D01*
X245538Y577407D02*
Y585407D01*
X247547Y581253D02*
X255547D01*
X251547Y577253D02*
Y585253D01*
X243287Y577133D02*
X251287D01*
X247287Y573133D02*
Y581133D01*
X235126Y585812D02*
X243126D01*
X239126Y581812D02*
Y589812D01*
X231821Y579078D02*
X239821D01*
X235821Y575078D02*
Y583078D01*
X240521Y579313D02*
X248521D01*
X244521Y575313D02*
Y583313D01*
X247487Y578484D02*
X255487D01*
X251487Y574484D02*
Y582484D01*
X238105Y583565D02*
X246105D01*
X242105Y579565D02*
Y587565D01*
X239555Y585398D02*
X247555D01*
X243555Y581398D02*
Y589398D01*
X254895Y581267D02*
X262895D01*
X258895Y577267D02*
Y585267D01*
X259000Y572500D02*
X267000D01*
X263000Y568500D02*
Y576500D01*
X249914Y573557D02*
X257914D01*
X253914Y569557D02*
Y577557D01*
X266169Y573952D02*
X274169D01*
X270169Y569952D02*
Y577952D01*
X250695Y578385D02*
X258695D01*
X254695Y574385D02*
Y582385D01*
X257621Y586374D02*
X265621D01*
X261621Y582374D02*
Y590374D01*
X253886Y575570D02*
X261886D01*
X257886Y571570D02*
Y579570D01*
X264036Y575791D02*
X272036D01*
X268036Y571791D02*
Y579791D01*
X253400Y583410D02*
X261400D01*
X257400Y579410D02*
Y587410D01*
X255885Y584351D02*
X263885D01*
X259885Y580351D02*
Y588351D01*
X268347Y578333D02*
X276347D01*
X272347Y574333D02*
Y582333D01*
X306308Y584453D02*
X314308D01*
X310308Y580453D02*
Y588453D01*
X292564Y573519D02*
X300564D01*
X296564Y569519D02*
Y577519D01*
X368000Y575500D02*
X376000D01*
X372000Y571500D02*
Y579500D01*
X372178Y582288D02*
X380178D01*
X376178Y578288D02*
Y586288D01*
X392741Y577511D02*
X400741D01*
X396741Y573511D02*
Y581511D01*
X423698Y574512D02*
X431698D01*
Y582512*
X423698*
Y574512*
X427698Y578512D02*
Y582512D01*
X421851Y592294D02*
X429851D01*
X425851Y588294D02*
Y596294D01*
X444228Y580339D02*
X452228D01*
Y588339*
X444228*
Y580339*
X448228Y584339D02*
Y588339D01*
X436404Y580339D02*
X444404D01*
Y588339*
X436404*
Y580339*
X440404Y584339D02*
Y588339D01*
X434922Y576446D02*
X442922D01*
X438922Y572446D02*
Y580446D01*
X436793Y592171D02*
X444793D01*
X440793Y588171D02*
Y596171D01*
X127704Y604911D02*
X135704D01*
X131704Y600911D02*
Y608911D01*
X138177Y601512D02*
X146177D01*
X142177Y597512D02*
Y605512D01*
X147059Y607424D02*
X155059D01*
Y615424*
X147059*
Y607424*
X151059Y611424D02*
Y615424D01*
X140694Y607660D02*
X148694D01*
Y615660*
X140694*
Y607660*
X144694Y611660D02*
Y615660D01*
X152834Y607011D02*
X160834D01*
Y615011*
X152834*
Y607011*
X156834Y611011D02*
Y615011D01*
X160452Y612177D02*
X168452D01*
X164452Y608177D02*
Y616177D01*
X204482Y609021D02*
X212482D01*
X208482Y605021D02*
Y613021D01*
X219945Y589844D02*
X227945D01*
Y597844*
X219945*
Y589844*
X223945Y593844D02*
Y597844D01*
X228424Y609174D02*
X236424D01*
X232424Y605174D02*
Y613174D01*
X256071Y603688D02*
X264071D01*
X260071Y599688D02*
Y607688D01*
X264042Y606724D02*
X272042D01*
X268042Y602724D02*
Y610724D01*
X281487Y607598D02*
X289487D01*
X285487Y603598D02*
Y611598D01*
X276641Y607336D02*
X284641D01*
X280641Y603336D02*
Y611336D01*
X271664Y605372D02*
X279664D01*
X275664Y601372D02*
Y609372D01*
X300311Y610286D02*
X308311D01*
X304311Y606286D02*
Y614286D01*
X294834Y608598D02*
X302834D01*
X298834Y604598D02*
Y612598D01*
X352280Y597611D02*
X360280D01*
Y605611*
X352280*
Y597611*
X356280Y601611D02*
Y605611D01*
X422246Y596316D02*
X430246D01*
X426246Y592316D02*
Y600316D01*
X422345Y609582D02*
X430345D01*
X426345Y605582D02*
Y613582D01*
X423209Y602050D02*
X431209D01*
X427209Y598050D02*
Y606050D01*
X221000Y615000D02*
X229000D01*
X225000Y611000D02*
Y619000D01*
X266821Y628046D02*
X274821D01*
X270821Y624046D02*
Y632046D01*
X249500Y625500D02*
X257500D01*
X253500Y621500D02*
Y629500D01*
X259312Y627341D02*
X267312D01*
X263312Y623341D02*
Y631341D01*
X283528Y617395D02*
X291528D01*
X287528Y613395D02*
Y621395D01*
X285408Y619170D02*
X293408D01*
X289408Y615170D02*
Y623170D01*
X277368Y620945D02*
X285368D01*
X281368Y616945D02*
Y624945D01*
X270893Y620945D02*
X278893D01*
X274893Y616945D02*
Y624945D01*
X289585Y617812D02*
X297585D01*
X293585Y613812D02*
Y621812D01*
X303294Y631759D02*
X311294D01*
X307294Y627759D02*
Y635759D01*
X289059Y632112D02*
X297059D01*
X293059Y628112D02*
Y636112D01*
X364000Y618000D02*
X372000D01*
X368000Y614000D02*
Y622000D01*
X366000Y625500D02*
X374000D01*
X370000Y621500D02*
Y629500D01*
X425802Y629464D02*
X433802D01*
X429802Y625464D02*
Y633464D01*
X425185Y623413D02*
X433185D01*
X429185Y619413D02*
Y627413D01*
X203000Y635000D02*
X211000D01*
X207000Y631000D02*
Y639000D01*
X227635Y638441D02*
X235635D01*
Y646441*
X227635*
Y638441*
X231635Y642441D02*
Y646441D01*
X240500Y642000D02*
X248500D01*
X244500Y638000D02*
Y646000D01*
X244000Y635500D02*
X252000D01*
X248000Y631500D02*
Y639500D01*
X251500Y637000D02*
X259500D01*
X255500Y633000D02*
Y641000D01*
X273414Y641799D02*
X281414D01*
X277414Y637799D02*
Y645799D01*
X323000Y643500D02*
X331000D01*
X327000Y639500D02*
Y647500D01*
X314500Y635000D02*
X322500D01*
X318500Y631000D02*
Y639000D01*
X333000Y632500D02*
X341000D01*
X337000Y628500D02*
Y636500D01*
X330106Y647089D02*
X338106D01*
X334106Y643089D02*
Y651089D01*
X342363Y641455D02*
X350363D01*
X346363Y637455D02*
Y645455D01*
X342744Y633309D02*
X350744D01*
X346744Y629309D02*
Y637309D01*
X377500Y637000D02*
X385500D01*
X381500Y633000D02*
Y641000D01*
X370000Y644500D02*
X378000D01*
X374000Y640500D02*
Y648500D01*
X425061Y635515D02*
X433061D01*
X429061Y631515D02*
Y639515D01*
X127122Y668606D02*
X135122D01*
X131122Y664606D02*
Y672606D01*
X139146Y649800D02*
X147146D01*
Y657800*
X139146*
Y649800*
X143146Y653800D02*
Y657800D01*
X131117Y671381D02*
X139117D01*
X135117Y667381D02*
Y675381D01*
X128444Y654482D02*
X136444D01*
Y662482*
X128444*
Y654482*
X132444Y658482D02*
Y662482D01*
X164500Y657500D02*
X172500D01*
X168500Y653500D02*
Y661500D01*
X177037Y660823D02*
X185037D01*
Y668823*
X177037*
Y660823*
X181037Y664823D02*
Y668823D01*
X201127Y670968D02*
X209127D01*
X205127Y666968D02*
Y674968D01*
X237929Y669634D02*
X245929D01*
X241929Y665634D02*
Y673634D01*
X231047Y664106D02*
X239047D01*
X235047Y660106D02*
Y668106D01*
X228082Y665667D02*
X236082D01*
X232082Y661667D02*
Y669667D01*
X232909Y667164D02*
X240909D01*
X236909Y663164D02*
Y671164D01*
X237443Y662585D02*
X245443D01*
X241443Y658585D02*
Y666585D01*
X264000Y659500D02*
X272000D01*
X268000Y655500D02*
Y663500D01*
X266918Y655022D02*
X274918D01*
X270918Y651022D02*
Y659022D01*
X259312Y653580D02*
X267312D01*
X263312Y649580D02*
Y657580D01*
X268326Y653134D02*
X276326D01*
X272326Y649134D02*
Y657134D01*
X337187Y654854D02*
X345187D01*
X341187Y650854D02*
Y658854D01*
X330411Y655235D02*
X338411D01*
X334411Y651235D02*
Y659235D01*
X385000Y661500D02*
X393000D01*
X389000Y657500D02*
Y665500D01*
X412097Y660823D02*
X420097D01*
Y668823*
X412097*
Y660823*
X416097Y664823D02*
Y668823D01*
X110540Y668554D02*
X118540D01*
Y676554*
X110540*
Y668554*
X114540Y672554D02*
Y676554D01*
X151639Y681306D02*
X159639D01*
X155639Y677306D02*
Y685306D01*
X176939Y681577D02*
X184939D01*
Y689577*
X176939*
Y681577*
X180939Y685577D02*
Y689577D01*
X227000Y674500D02*
X235000D01*
X231000Y670500D02*
Y678500D01*
X216500Y672500D02*
X224500D01*
X220500Y668500D02*
Y676500D01*
X246500Y691000D02*
X254500D01*
X250500Y687000D02*
Y695000D01*
X234000Y677500D02*
X242000D01*
X238000Y673500D02*
Y681500D01*
X231500Y686000D02*
X239500D01*
X235500Y682000D02*
Y690000D01*
X239500Y681500D02*
X247500D01*
X243500Y677500D02*
Y685500D01*
X245000Y687500D02*
X253000D01*
X249000Y683500D02*
Y691500D01*
X239500Y687500D02*
X247500D01*
X243500Y683500D02*
Y691500D01*
X231611Y675068D02*
X239611D01*
Y683068*
X231611*
Y675068*
X235611Y679068D02*
Y683068D01*
X242533Y677142D02*
X250533D01*
X246533Y673142D02*
Y681142D01*
X250500Y685500D02*
X258500D01*
X254500Y681500D02*
Y689500D01*
X252500Y684500D02*
X260500D01*
X256500Y680500D02*
Y688500D01*
X254500Y679500D02*
X262500D01*
X258500Y675500D02*
Y683500D01*
X256500Y689500D02*
X264500D01*
X260500Y685500D02*
Y693500D01*
X249316Y679017D02*
X257316D01*
X253316Y675017D02*
Y683017D01*
X321486Y677980D02*
X329486D01*
Y685980*
X321486*
Y677980*
X325486Y681980D02*
Y685980D01*
X350500Y674500D02*
X358500D01*
X354500Y670500D02*
Y678500D01*
X357971Y691474D02*
X365971D01*
X361971Y687474D02*
Y695474D01*
X370000Y685000D02*
X378000D01*
X374000Y681000D02*
Y689000D01*
X381464Y675294D02*
X389464D01*
X385464Y671294D02*
Y679294D01*
X382407Y686582D02*
X390407D01*
X386407Y682582D02*
Y690582D01*
X392000Y674000D02*
X400000D01*
X396000Y670000D02*
Y678000D01*
X388059Y687056D02*
X396059D01*
X392059Y683056D02*
Y691056D01*
X390846Y683929D02*
X398846D01*
X394846Y679929D02*
Y687929D01*
X405115Y691203D02*
X413115D01*
X409115Y687203D02*
Y695203D01*
X410001Y670379D02*
X418001D01*
Y678379*
X410001*
Y670379*
X414001Y674379D02*
Y678379D01*
X425115Y686280D02*
X433115D01*
X429115Y682280D02*
Y690280D01*
X433656Y682646D02*
X441656D01*
X437656Y678646D02*
Y686646D01*
X171571Y707572D02*
X179571D01*
X175571Y703572D02*
Y711572D01*
X181335Y711757D02*
X189335D01*
X185335Y707757D02*
Y715757D01*
X204000Y711500D02*
X212000D01*
X208000Y707500D02*
Y715500D01*
X220000Y704500D02*
X228000D01*
X224000Y700500D02*
Y708500D01*
X225088Y703972D02*
X233088D01*
Y711972*
X225088*
Y703972*
X229088Y707972D02*
Y711972D01*
X226000Y702500D02*
X234000D01*
X230000Y698500D02*
Y706500D01*
X244500Y694500D02*
X252500D01*
X248500Y690500D02*
Y698500D01*
X232000Y702500D02*
X240000D01*
X236000Y698500D02*
Y706500D01*
X234352Y694148D02*
X242352D01*
X238352Y690148D02*
Y698148D01*
X248500Y692500D02*
X256500D01*
X252500Y688500D02*
Y696500D01*
X263388Y709217D02*
X271388D01*
X267388Y705217D02*
Y713217D01*
X277000Y694500D02*
X285000D01*
X281000Y690500D02*
Y698500D01*
X279200Y694500D02*
X287200D01*
X283200Y690500D02*
Y698500D01*
X283000Y694500D02*
X291000D01*
X287000Y690500D02*
Y698500D01*
X285200Y694700D02*
X293200D01*
X289200Y690700D02*
Y698700D01*
X278500Y709500D02*
X286500D01*
X282500Y705500D02*
Y713500D01*
X287000Y693389D02*
X295000D01*
X291000Y689389D02*
Y697389D01*
X269000Y694500D02*
X277000D01*
X273000Y690500D02*
Y698500D01*
X291000Y702500D02*
X299000D01*
X295000Y698500D02*
Y706500D01*
X289200Y694500D02*
X297200D01*
X293200Y690500D02*
Y698500D01*
X346097Y707790D02*
X354097D01*
X350097Y703790D02*
Y711790D01*
X336654Y712258D02*
X344654D01*
X340654Y708258D02*
Y716258D01*
X344601Y703801D02*
X352601D01*
X348601Y699801D02*
Y707801D01*
X336554Y703613D02*
X344554D01*
X340554Y699613D02*
Y707613D01*
X357500Y702500D02*
X365500D01*
X361500Y698500D02*
Y706500D01*
X367175Y704491D02*
X375175D01*
X371175Y700491D02*
Y708491D01*
X383000Y708500D02*
X391000D01*
X387000Y704500D02*
Y712500D01*
X372000Y709500D02*
X380000D01*
X376000Y705500D02*
Y713500D01*
X375996Y699375D02*
X383996D01*
Y707375*
X375996*
Y699375*
X379996Y703375D02*
Y707375D01*
X382220Y694630D02*
X390220D01*
X386220Y690630D02*
Y698630D01*
X406031Y696152D02*
X414031D01*
X410031Y692152D02*
Y700152D01*
X413200Y706313D02*
X421200D01*
X417200Y702313D02*
Y710313D01*
X425913Y693731D02*
X433913D01*
X429913Y689731D02*
Y697731D01*
X182265Y718267D02*
X190265D01*
X186265Y714267D02*
Y722267D01*
X176314Y727939D02*
X184314D01*
X180314Y723939D02*
Y731939D01*
X192046Y722470D02*
X200046D01*
X196046Y718470D02*
Y726470D01*
X201805Y721250D02*
X209805D01*
X205805Y717250D02*
Y725250D01*
X194727Y714175D02*
X202727D01*
X198727Y710175D02*
Y718175D01*
X225071Y716131D02*
X233071D01*
X229071Y712131D02*
Y720131D01*
X210816Y726079D02*
X218816D01*
X214816Y722079D02*
Y730079D01*
X211002Y715663D02*
X219002D01*
X215002Y711663D02*
Y719663D01*
X244263Y716061D02*
X252263D01*
X248263Y712061D02*
Y720061D01*
X229699Y724150D02*
X237699D01*
Y732150*
X229699*
Y724150*
X233699Y728150D02*
Y732150D01*
X246983Y726873D02*
X254983D01*
X250983Y722873D02*
Y730873D01*
X254217Y723204D02*
X262217D01*
Y731204*
X254217*
Y723204*
X258217Y727204D02*
Y731204D01*
X253508Y713473D02*
X261508D01*
X257508Y709473D02*
Y717473D01*
X279439Y718442D02*
X287439D01*
X283439Y714442D02*
Y722442D01*
X281070Y715265D02*
X289070D01*
X285070Y711265D02*
Y719265D01*
X274899Y719345D02*
X282899D01*
X278899Y715345D02*
Y723345D01*
X311942Y714314D02*
X319942D01*
X315942Y710314D02*
Y718314D01*
X319414Y712744D02*
X327414D01*
Y720744*
X319414*
Y712744*
X323414Y716744D02*
Y720744D01*
X357523Y713148D02*
X365523D01*
Y721148*
X357523*
Y713148*
X361523Y717148D02*
Y721148D01*
X350843Y711416D02*
X358843D01*
Y719416*
X350843*
Y711416*
X354843Y715416D02*
Y719416D01*
X423443Y718054D02*
X431443D01*
X427443Y714054D02*
Y722054D01*
X219802Y739062D02*
X227802D01*
Y747062*
X219802*
Y739062*
X223802Y743062D02*
Y747062D01*
X222501Y729502D02*
X230501D01*
Y737502*
X222501*
Y729502*
X226501Y733502D02*
Y737502D01*
X261763Y729502D02*
X269763D01*
Y737502*
X261763*
Y729502*
X265763Y733502D02*
Y737502D01*
X263214Y739399D02*
X271214D01*
Y747399*
X263214*
Y739399*
X267214Y743399D02*
Y747399D01*
X277023Y742704D02*
X285023D01*
X281023Y738704D02*
Y746704D01*
X100000Y750000D02*
Y100000D01*
X455000*
Y750000*
X100000*
X102500Y774574D02*
X258705D01*
X102500D02*
X112500Y777074D01*
Y772074*
X102500Y774574*
X452500D02*
X296295D01*
X452500D02*
X442500Y772074D01*
Y777074*
X452500Y774574*
X102500Y752500D02*
Y779574D01*
X452500Y752500D02*
Y779574D01*
X262159Y777386D02*
X264659D01*
X263295Y774886*
X263977*
X264432Y774574*
X264659Y774261*
X264886Y773324*
Y772699*
X264659Y771761*
X264205Y771136*
X263523Y770824*
X262841*
X262159Y771136*
X261932Y771449*
X261705Y772074*
X269886Y777386D02*
X267614D01*
X267386Y774574*
X267614Y774886*
X268295Y775199*
X268977*
X269659Y774886*
X270114Y774261*
X270341Y773324*
X270114Y772699*
X269886Y771761*
X269432Y771136*
X268750Y770824*
X268068*
X267386Y771136*
X267159Y771449*
X266932Y772074*
X273750Y777386D02*
X273068Y777074D01*
X272614Y776136*
X272386Y774574*
Y773636*
X272614Y772074*
X273068Y771136*
X273750Y770824*
X274205*
X274886Y771136*
X275341Y772074*
X275568Y773636*
Y774574*
X275341Y776136*
X274886Y777074*
X274205Y777386*
X273750*
X278977D02*
X278295Y777074D01*
X277841Y776136*
X277614Y774574*
Y773636*
X277841Y772074*
X278295Y771136*
X278977Y770824*
X279432*
X280114Y771136*
X280568Y772074*
X280795Y773636*
Y774574*
X280568Y776136*
X280114Y777074*
X279432Y777386*
X278977*
X282841Y775199D02*
Y770824D01*
Y773949D02*
X283523Y774886D01*
X283977Y775199*
X284659*
X285114Y774886*
X285341Y773949*
Y770824*
Y773949D02*
X286023Y774886D01*
X286477Y775199*
X287159*
X287614Y774886*
X287841Y773949*
Y770824*
X289886Y777386D02*
X290114Y777074D01*
X290341Y777386*
X290114Y777699*
X289886Y777386*
X290114Y775199D02*
Y770824D01*
X292386Y777386D02*
Y770824D01*
X77026Y102500D02*
Y418250D01*
Y102500D02*
X74526Y112500D01*
X79526*
X77026Y102500*
Y747500D02*
Y431750D01*
Y747500D02*
X79526Y737500D01*
X74526*
X77026Y747500*
X97500Y102500D02*
X72026D01*
X97500Y747500D02*
X72026D01*
X63957Y426875D02*
X63730Y427500D01*
X63048Y427813*
X63048D02*
X62594D01*
X62594D02*
X61912Y427500D01*
X61457Y426563*
X61457D02*
X61230Y425000D01*
Y423438*
X61230D02*
X61457Y422188D01*
X61457D02*
X61912Y421563D01*
X61912D02*
X62594Y421250D01*
X62821*
X63503Y421563*
X63503D02*
X63957Y422188D01*
X63957D02*
X64185Y423125D01*
Y423438*
X64185D02*
X63957Y424375D01*
X63503Y425000*
X62821Y425313*
X62821D02*
X62594D01*
X62594D02*
X61912Y425000D01*
X61457Y424375*
X61230Y423438*
X68503Y427813D02*
X66230Y423438D01*
X66230D02*
X69639D01*
X68503Y427813D02*
Y421250D01*
X74639Y427813D02*
X72366D01*
X72366D02*
X72139Y425000D01*
X72366Y425313*
X72366D02*
X73048Y425625D01*
X73730*
X74412Y425313*
X74412D02*
X74866Y424688D01*
X74866D02*
X75094Y423750D01*
X74866Y423125*
X74639Y422188*
X74639D02*
X74185Y421563D01*
X74185D02*
X73503Y421250D01*
X72821*
X72139Y421563*
X72139D02*
X71912Y421875D01*
X71685Y422500*
X78503Y427813D02*
X77821Y427500D01*
X77366Y426563*
X77366D02*
X77139Y425000D01*
Y424063*
X77139D02*
X77366Y422500D01*
X77821Y421563*
X77821D02*
X78503Y421250D01*
X78957*
X79639Y421563*
X79639D02*
X80094Y422500D01*
X80321Y424063*
X80321D02*
Y425000D01*
X80094Y426563*
X80094D02*
X79639Y427500D01*
X78957Y427813*
X78957D02*
X78503D01*
X82366Y425625D02*
Y421250D01*
Y424375D02*
X83048Y425313D01*
X83048D02*
X83503Y425625D01*
X84185*
X84639Y425313*
X84639D02*
X84866Y424375D01*
Y421250*
Y424375D02*
X85548Y425313D01*
X85548D02*
X86003Y425625D01*
X86685*
X87139Y425313*
X87139D02*
X87366Y424375D01*
Y421250*
X89412Y427813D02*
X89639Y427500D01*
X89866Y427813*
X89866D02*
X89639Y428125D01*
X89412Y427813*
X89639Y425625D02*
Y421250D01*
X91912Y427813D02*
Y421250D01*
X460000Y364000D02*
X718000D01*
X460000Y340000D02*
X718000D01*
X460000Y316000D02*
X718000D01*
X460000Y292000D02*
X718000D01*
X460000Y268000D02*
X718000D01*
X460000Y244000D02*
X718000D01*
X460000Y220000D02*
X718000D01*
X460000Y196000D02*
X718000D01*
X460000Y172000D02*
X718000D01*
X460000Y148000D02*
X718000D01*
X460000Y124000D02*
X718000D01*
X460000Y100000D02*
X718000D01*
X460000Y364000D02*
Y100000D01*
X544000Y364000D02*
Y100000D01*
X580000Y364000D02*
Y100000D01*
X616000Y364000D02*
Y100000D01*
X670000Y364000D02*
Y100000D01*
X718000Y364000D02*
Y100000D01*
X495500Y352750D02*
X494955Y353500D01*
X494136Y353875*
X493045*
X492227Y353500*
X491682Y352750*
Y352000*
X491955Y351250*
X492227Y350875*
X492773Y350500*
X494409Y349750*
X494955Y349375*
X495227Y349000*
X495500Y348250*
Y347125*
X494955Y346375*
X494136Y346000*
X493045*
X492227Y346375*
X491682Y347125*
X497955Y353875D02*
Y346000D01*
X504227Y353875D02*
X500409Y346000D01*
Y353875D02*
X504227D01*
X500409Y346000D02*
X504227D01*
X506682Y353875D02*
Y346000D01*
Y353875D02*
X510227D01*
X506682Y350125D02*
X508864D01*
X506682Y346000D02*
X510227D01*
X553864Y353875D02*
X553318Y353500D01*
X552773Y352750*
X552500Y352000*
X552227Y350875*
Y349000*
X552500Y347875*
X552773Y347125*
X553318Y346375*
X553864Y346000*
X554955*
X555500Y346375*
X556045Y347125*
X556318Y347875*
X556591Y349000*
Y350875*
X556318Y352000*
X556045Y352750*
X555500Y353500*
X554955Y353875*
X553864*
X554682Y347500D02*
X556318Y345250D01*
X560955Y353875D02*
Y346000D01*
X559045Y353875D02*
X562864D01*
X565318D02*
X567500Y350125D01*
Y346000*
X569682Y353875D02*
X567500Y350125D01*
X592045Y352750D02*
X591500Y353500D01*
X590682Y353875*
X589591*
X588773Y353500*
X588227Y352750*
Y352000*
X588500Y351250*
X588773Y350875*
X589318Y350500*
X590955Y349750*
X591500Y349375*
X591773Y349000*
X592045Y348250*
Y347125*
X591500Y346375*
X590682Y346000*
X589591*
X588773Y346375*
X588227Y347125*
X594500Y353875D02*
X596682Y350125D01*
Y346000*
X598864Y353875D02*
X596682Y350125D01*
X601318Y353875D02*
Y346000D01*
Y353875D02*
X603500Y346000D01*
X605682Y353875D02*
X603500Y346000D01*
X605682Y353875D02*
Y346000D01*
X627500Y353875D02*
Y346000D01*
Y353875D02*
X629955D01*
X630773Y353500*
X631045Y353125*
X631318Y352375*
Y351250*
X631045Y350500*
X630773Y350125*
X629955Y349750*
X627500*
X633773Y353875D02*
Y346000D01*
X637045*
X641682Y353875D02*
X639500Y346000D01*
X641682Y353875D02*
X643864Y346000D01*
X640318Y348625D02*
X643045D01*
X648227Y353875D02*
Y346000D01*
X646318Y353875D02*
X650136D01*
X652591D02*
Y346000D01*
Y353875D02*
X656136D01*
X652591Y350125D02*
X654773D01*
X652591Y346000D02*
X656136D01*
X658591Y353875D02*
Y346000D01*
Y353875D02*
X660500D01*
X661318Y353500*
X661864Y352750*
X662136Y352000*
X662409Y350875*
Y349000*
X662136Y347875*
X661864Y347125*
X661318Y346375*
X660500Y346000*
X658591*
X686682Y353875D02*
Y346000D01*
X684773Y353875D02*
X688591D01*
X692682D02*
X692136Y353500D01*
X691591Y352750*
X691318Y352000*
X691045Y350875*
Y349000*
X691318Y347875*
X691591Y347125*
X692136Y346375*
X692682Y346000*
X693773*
X694318Y346375*
X694864Y347125*
X695136Y347875*
X695409Y349000*
Y350875*
X695136Y352000*
X694864Y352750*
X694318Y353500*
X693773Y353875*
X692682*
X697864D02*
Y346000D01*
X701136*
X469818Y329875D02*
X467091Y322000D01*
X466000Y329875D02*
X469818D01*
X555091D02*
X552364Y324625D01*
X556455*
X555091Y329875D02*
Y322000D01*
X562455Y329875D02*
X559727D01*
X559455Y326500*
X559727Y326875*
X560545Y327250*
X561364*
X562182Y326875*
X562727Y326125*
X563000Y325000*
X562727Y324250*
X562455Y323125*
X561909Y322375*
X561091Y322000*
X560273*
X559455Y322375*
X559182Y322750*
X558909Y323500*
X569000Y329875D02*
X566273D01*
X566000Y326500*
X566273Y326875*
X567091Y327250*
X567909*
X568727Y326875*
X569273Y326125*
X569545Y325000*
X569273Y324250*
X569000Y323125*
X568455Y322375*
X567636Y322000*
X566818*
X566000Y322375*
X565727Y322750*
X565455Y323500*
X592000Y328000D02*
X604000D01*
X598000Y322000D02*
Y334000D01*
X624636Y329875D02*
X626818Y326125D01*
Y322000*
X629000Y329875D02*
X626818Y326125D01*
X631455Y329875D02*
Y322000D01*
Y329875D02*
X635000D01*
X631455Y326125D02*
X633636D01*
X631455Y322000D02*
X635000D01*
X641273Y328750D02*
X640727Y329500D01*
X639909Y329875*
X638818*
X638000Y329500*
X637455Y328750*
Y328000*
X637727Y327250*
X638000Y326875*
X638545Y326500*
X640182Y325750*
X640727Y325375*
X641000Y325000*
X641273Y324250*
Y323125*
X640727Y322375*
X639909Y322000*
X638818*
X638000Y322375*
X637455Y323125*
X677818Y328750D02*
Y322000D01*
X675364Y325375D02*
X680273D01*
X687636Y331375D02*
X682727Y319375D01*
X690091Y325375D02*
X695000D01*
X699091Y329875D02*
X698273Y329500D01*
X697727Y328375*
X697455Y326500*
Y325375*
X697727Y323500*
X698273Y322375*
X699091Y322000*
X699636*
X700455Y322375*
X701000Y323500*
X701273Y325375*
Y326500*
X701000Y328375*
X700455Y329500*
X699636Y329875*
X699091*
X704000Y322750D02*
X703727Y322375D01*
X704000Y322000*
X704273Y322375*
X704000Y322750*
X708364Y329875D02*
X707545Y329500D01*
X707000Y328375*
X706727Y326500*
Y325375*
X707000Y323500*
X707545Y322375*
X708364Y322000*
X708909*
X709727Y322375*
X710273Y323500*
X710545Y325375*
Y326500*
X710273Y328375*
X709727Y329500*
X708909Y329875*
X708364*
X466545Y305875D02*
X469545D01*
X467909Y302875*
X468727*
X469273Y302500*
X469545Y302125*
X469818Y301000*
Y300250*
X469545Y299125*
X469000Y298375*
X468182Y298000*
X467364*
X466545Y298375*
X466273Y298750*
X466000Y299500*
X473636Y305875D02*
X472818Y305500D01*
X472545Y304750*
Y304000*
X472818Y303250*
X473364Y302875*
X474455Y302500*
X475273Y302125*
X475818Y301375*
X476091Y300625*
Y299500*
X475818Y298750*
X475545Y298375*
X474727Y298000*
X473636*
X472818Y298375*
X472545Y298750*
X472273Y299500*
Y300625*
X472545Y301375*
X473091Y302125*
X473909Y302500*
X475000Y302875*
X475545Y303250*
X475818Y304000*
Y304750*
X475545Y305500*
X474727Y305875*
X473636*
X478818Y298750D02*
X478545Y298375D01*
X478818Y298000*
X479091Y298375*
X478818Y298750*
X485091Y303250D02*
X484818Y302125D01*
X484273Y301375*
X483455Y301000*
X483182*
X482364Y301375*
X481818Y302125*
X481545Y303250*
Y303625*
X481818Y304750*
X482364Y305500*
X483182Y305875*
X483455*
X484273Y305500*
X484818Y304750*
X485091Y303250*
Y301375*
X484818Y299500*
X484273Y298375*
X483455Y298000*
X482909*
X482091Y298375*
X481818Y299125*
X488909Y305875D02*
X488091Y305500D01*
X487818Y304750*
Y304000*
X488091Y303250*
X488636Y302875*
X489727Y302500*
X490545Y302125*
X491091Y301375*
X491364Y300625*
Y299500*
X491091Y298750*
X490818Y298375*
X490000Y298000*
X488909*
X488091Y298375*
X487818Y298750*
X487545Y299500*
Y300625*
X487818Y301375*
X488364Y302125*
X489182Y302500*
X490273Y302875*
X490818Y303250*
X491091Y304000*
Y304750*
X490818Y305500*
X490000Y305875*
X488909*
X554409Y304000D02*
Y304375D01*
X554682Y305125*
X554955Y305500*
X555500Y305875*
X556591*
X557136Y305500*
X557409Y305125*
X557682Y304375*
Y303625*
X557409Y302875*
X556864Y301750*
X554136Y298000*
X557955*
X560409Y304375D02*
X560955Y304750D01*
X561773Y305875*
Y298000*
X567500Y304750D02*
X567227Y305500D01*
X566409Y305875*
X565864*
X565045Y305500*
X564500Y304375*
X564227Y302500*
Y300625*
X564500Y299125*
X565045Y298375*
X565864Y298000*
X566136*
X566955Y298375*
X567500Y299125*
X567773Y300250*
Y300625*
X567500Y301750*
X566955Y302500*
X566136Y302875*
X565864*
X565045Y302500*
X564500Y301750*
X564227Y300625*
X592000Y298000D02*
X604000Y310000D01*
X592000D02*
X604000Y298000D01*
X624636Y305875D02*
X626818Y302125D01*
Y298000*
X629000Y305875D02*
X626818Y302125D01*
X631455Y305875D02*
Y298000D01*
Y305875D02*
X635000D01*
X631455Y302125D02*
X633636D01*
X631455Y298000D02*
X635000D01*
X641273Y304750D02*
X640727Y305500D01*
X639909Y305875*
X638818*
X638000Y305500*
X637455Y304750*
Y304000*
X637727Y303250*
X638000Y302875*
X638545Y302500*
X640182Y301750*
X640727Y301375*
X641000Y301000*
X641273Y300250*
Y299125*
X640727Y298375*
X639909Y298000*
X638818*
X638000Y298375*
X637455Y299125*
X677818Y304750D02*
Y298000D01*
X675364Y301375D02*
X680273D01*
X687636Y307375D02*
X682727Y295375D01*
X690091Y301375D02*
X695000D01*
X699091Y305875D02*
X698273Y305500D01*
X697727Y304375*
X697455Y302500*
Y301375*
X697727Y299500*
X698273Y298375*
X699091Y298000*
X699636*
X700455Y298375*
X701000Y299500*
X701273Y301375*
Y302500*
X701000Y304375*
X700455Y305500*
X699636Y305875*
X699091*
X704000Y298750D02*
X703727Y298375D01*
X704000Y298000*
X704273Y298375*
X704000Y298750*
X708364Y305875D02*
X707545Y305500D01*
X707000Y304375*
X706727Y302500*
Y301375*
X707000Y299500*
X707545Y298375*
X708364Y298000*
X708909*
X709727Y298375*
X710273Y299500*
X710545Y301375*
Y302500*
X710273Y304375*
X709727Y305500*
X708909Y305875*
X708364*
X466000Y280375D02*
X466545Y280750D01*
X467364Y281875*
Y274000*
X471455Y281875D02*
X470636Y281500D01*
X470091Y280375*
X469818Y278500*
Y277375*
X470091Y275500*
X470636Y274375*
X471455Y274000*
X472000*
X472818Y274375*
X473364Y275500*
X473636Y277375*
Y278500*
X473364Y280375*
X472818Y281500*
X472000Y281875*
X471455*
X559455Y279250D02*
X559182Y278125D01*
X558636Y277375*
X557818Y277000*
X557545*
X556727Y277375*
X556182Y278125*
X555909Y279250*
Y279625*
X556182Y280750*
X556727Y281500*
X557545Y281875*
X557818*
X558636Y281500*
X559182Y280750*
X559455Y279250*
Y277375*
X559182Y275500*
X558636Y274375*
X557818Y274000*
X557273*
X556455Y274375*
X556182Y275125*
X564636Y281875D02*
X561909Y276625D01*
X566000*
X564636Y281875D02*
Y274000D01*
X592000D02*
X604000D01*
Y286000*
X592000*
Y274000*
X598000Y280000D02*
Y286000D01*
X624636Y281875D02*
X626818Y278125D01*
Y274000*
X629000Y281875D02*
X626818Y278125D01*
X631455Y281875D02*
Y274000D01*
Y281875D02*
X635000D01*
X631455Y278125D02*
X633636D01*
X631455Y274000D02*
X635000D01*
X641273Y280750D02*
X640727Y281500D01*
X639909Y281875*
X638818*
X638000Y281500*
X637455Y280750*
Y280000*
X637727Y279250*
X638000Y278875*
X638545Y278500*
X640182Y277750*
X640727Y277375*
X641000Y277000*
X641273Y276250*
Y275125*
X640727Y274375*
X639909Y274000*
X638818*
X638000Y274375*
X637455Y275125*
X677818Y280750D02*
Y274000D01*
X675364Y277375D02*
X680273D01*
X687636Y283375D02*
X682727Y271375D01*
X690091Y277375D02*
X695000D01*
X699091Y281875D02*
X698273Y281500D01*
X697727Y280375*
X697455Y278500*
Y277375*
X697727Y275500*
X698273Y274375*
X699091Y274000*
X699636*
X700455Y274375*
X701000Y275500*
X701273Y277375*
Y278500*
X701000Y280375*
X700455Y281500*
X699636Y281875*
X699091*
X704000Y274750D02*
X703727Y274375D01*
X704000Y274000*
X704273Y274375*
X704000Y274750*
X708364Y281875D02*
X707545Y281500D01*
X707000Y280375*
X706727Y278500*
Y277375*
X707000Y275500*
X707545Y274375*
X708364Y274000*
X708909*
X709727Y274375*
X710273Y275500*
X710545Y277375*
Y278500*
X710273Y280375*
X709727Y281500*
X708909Y281875*
X708364*
X469818Y257875D02*
X467091Y250000D01*
X466000Y257875D02*
X469818D01*
X473636D02*
X472818Y257500D01*
X472545Y256750*
Y256000*
X472818Y255250*
X473364Y254875*
X474455Y254500*
X475273Y254125*
X475818Y253375*
X476091Y252625*
Y251500*
X475818Y250750*
X475545Y250375*
X474727Y250000*
X473636*
X472818Y250375*
X472545Y250750*
X472273Y251500*
Y252625*
X472545Y253375*
X473091Y254125*
X473909Y254500*
X475000Y254875*
X475545Y255250*
X475818Y256000*
Y256750*
X475545Y257500*
X474727Y257875*
X473636*
X478818Y250750D02*
X478545Y250375D01*
X478818Y250000*
X479091Y250375*
X478818Y250750*
X485364Y257875D02*
X482636Y250000D01*
X481545Y257875D02*
X485364D01*
X490545D02*
X487818Y252625D01*
X491909*
X490545Y257875D02*
Y250000D01*
X559318Y256000D02*
Y256375D01*
X559591Y257125*
X559864Y257500*
X560409Y257875*
X561500*
X562045Y257500*
X562318Y257125*
X562591Y256375*
Y255625*
X562318Y254875*
X561773Y253750*
X559045Y250000*
X562864*
X598000D02*
X604000Y256000D01*
X598000Y262000*
X592000Y256000*
X598000Y250000*
Y256000D02*
Y262000D01*
X624636Y257875D02*
X626818Y254125D01*
Y250000*
X629000Y257875D02*
X626818Y254125D01*
X631455Y257875D02*
Y250000D01*
Y257875D02*
X635000D01*
X631455Y254125D02*
X633636D01*
X631455Y250000D02*
X635000D01*
X641273Y256750D02*
X640727Y257500D01*
X639909Y257875*
X638818*
X638000Y257500*
X637455Y256750*
Y256000*
X637727Y255250*
X638000Y254875*
X638545Y254500*
X640182Y253750*
X640727Y253375*
X641000Y253000*
X641273Y252250*
Y251125*
X640727Y250375*
X639909Y250000*
X638818*
X638000Y250375*
X637455Y251125*
X677818Y256750D02*
Y250000D01*
X675364Y253375D02*
X680273D01*
X687636Y259375D02*
X682727Y247375D01*
X690091Y253375D02*
X695000D01*
X699091Y257875D02*
X698273Y257500D01*
X697727Y256375*
X697455Y254500*
Y253375*
X697727Y251500*
X698273Y250375*
X699091Y250000*
X699636*
X700455Y250375*
X701000Y251500*
X701273Y253375*
Y254500*
X701000Y256375*
X700455Y257500*
X699636Y257875*
X699091*
X704000Y250750D02*
X703727Y250375D01*
X704000Y250000*
X704273Y250375*
X704000Y250750*
X708364Y257875D02*
X707545Y257500D01*
X707000Y256375*
X706727Y254500*
Y253375*
X707000Y251500*
X707545Y250375*
X708364Y250000*
X708909*
X709727Y250375*
X710273Y251500*
X710545Y253375*
Y254500*
X710273Y256375*
X709727Y257500*
X708909Y257875*
X708364*
X469545Y231250D02*
X469273Y230125D01*
X468727Y229375*
X467909Y229000*
X467636*
X466818Y229375*
X466273Y230125*
X466000Y231250*
Y231625*
X466273Y232750*
X466818Y233500*
X467636Y233875*
X467909*
X468727Y233500*
X469273Y232750*
X469545Y231250*
Y229375*
X469273Y227500*
X468727Y226375*
X467909Y226000*
X467364*
X466545Y226375*
X466273Y227125*
X472273Y232000D02*
Y232375D01*
X472545Y233125*
X472818Y233500*
X473364Y233875*
X474455*
X475000Y233500*
X475273Y233125*
X475545Y232375*
Y231625*
X475273Y230875*
X474727Y229750*
X472000Y226000*
X475818*
X478545Y226750D02*
X478273Y226375D01*
X478545Y226000*
X478818Y226375*
X478545Y226750*
X484818Y231250D02*
X484545Y230125D01*
X484000Y229375*
X483182Y229000*
X482909*
X482091Y229375*
X481545Y230125*
X481273Y231250*
Y231625*
X481545Y232750*
X482091Y233500*
X482909Y233875*
X483182*
X484000Y233500*
X484545Y232750*
X484818Y231250*
Y229375*
X484545Y227500*
X484000Y226375*
X483182Y226000*
X482636*
X481818Y226375*
X481545Y227125*
X487273Y232375D02*
X487818Y232750D01*
X488636Y233875*
Y226000*
X559318Y232000D02*
Y232375D01*
X559591Y233125*
X559864Y233500*
X560409Y233875*
X561500*
X562045Y233500*
X562318Y233125*
X562591Y232375*
Y231625*
X562318Y230875*
X561773Y229750*
X559045Y226000*
X562864*
X592000D02*
X604000D01*
X592000Y238000*
X604000*
X592000Y226000*
X627636Y233875D02*
Y226000D01*
Y233875D02*
X631455Y226000D01*
Y233875D02*
Y226000D01*
X635545Y233875D02*
X635000Y233500D01*
X634455Y232750*
X634182Y232000*
X633909Y230875*
Y229000*
X634182Y227875*
X634455Y227125*
X635000Y226375*
X635545Y226000*
X636636*
X637182Y226375*
X637727Y227125*
X638000Y227875*
X638273Y229000*
Y230875*
X638000Y232000*
X637727Y232750*
X637182Y233500*
X636636Y233875*
X635545*
X677818Y232750D02*
Y226000D01*
X675364Y229375D02*
X680273D01*
X687636Y235375D02*
X682727Y223375D01*
X690091Y229375D02*
X695000D01*
X699091Y233875D02*
X698273Y233500D01*
X697727Y232375*
X697455Y230500*
Y229375*
X697727Y227500*
X698273Y226375*
X699091Y226000*
X699636*
X700455Y226375*
X701000Y227500*
X701273Y229375*
Y230500*
X701000Y232375*
X700455Y233500*
X699636Y233875*
X699091*
X704000Y226750D02*
X703727Y226375D01*
X704000Y226000*
X704273Y226375*
X704000Y226750*
X708364Y233875D02*
X707545Y233500D01*
X707000Y232375*
X706727Y230500*
Y229375*
X707000Y227500*
X707545Y226375*
X708364Y226000*
X708909*
X709727Y226375*
X710273Y227500*
X710545Y229375*
Y230500*
X710273Y232375*
X709727Y233500*
X708909Y233875*
X708364*
X468727Y209875D02*
X466000Y204625D01*
X470091*
X468727Y209875D02*
Y202000D01*
X474182Y209875D02*
X473364Y209500D01*
X472818Y208375*
X472545Y206500*
Y205375*
X472818Y203500*
X473364Y202375*
X474182Y202000*
X474727*
X475545Y202375*
X476091Y203500*
X476364Y205375*
Y206500*
X476091Y208375*
X475545Y209500*
X474727Y209875*
X474182*
X479091Y202750D02*
X478818Y202375D01*
X479091Y202000*
X479364Y202375*
X479091Y202750*
X481818Y208375D02*
X482364Y208750D01*
X483182Y209875*
Y202000*
X488909Y208750D02*
X488636Y209500D01*
X487818Y209875*
X487273*
X486455Y209500*
X485909Y208375*
X485636Y206500*
Y204625*
X485909Y203125*
X486455Y202375*
X487273Y202000*
X487545*
X488364Y202375*
X488909Y203125*
X489182Y204250*
Y204625*
X488909Y205750*
X488364Y206500*
X487545Y206875*
X487273*
X486455Y206500*
X485909Y205750*
X485636Y204625*
X559318Y208000D02*
Y208375D01*
X559591Y209125*
X559864Y209500*
X560409Y209875*
X561500*
X562045Y209500*
X562318Y209125*
X562591Y208375*
Y207625*
X562318Y206875*
X561773Y205750*
X559045Y202000*
X562864*
X592000D02*
X604000Y214000D01*
Y202000*
X592000Y214000*
Y202000*
X624636Y209875D02*
X626818Y206125D01*
Y202000*
X629000Y209875D02*
X626818Y206125D01*
X631455Y209875D02*
Y202000D01*
Y209875D02*
X635000D01*
X631455Y206125D02*
X633636D01*
X631455Y202000D02*
X635000D01*
X641273Y208750D02*
X640727Y209500D01*
X639909Y209875*
X638818*
X638000Y209500*
X637455Y208750*
Y208000*
X637727Y207250*
X638000Y206875*
X638545Y206500*
X640182Y205750*
X640727Y205375*
X641000Y205000*
X641273Y204250*
Y203125*
X640727Y202375*
X639909Y202000*
X638818*
X638000Y202375*
X637455Y203125*
X677818Y208750D02*
Y202000D01*
X675364Y205375D02*
X680273D01*
X687636Y211375D02*
X682727Y199375D01*
X690091Y205375D02*
X695000D01*
X699091Y209875D02*
X698273Y209500D01*
X697727Y208375*
X697455Y206500*
Y205375*
X697727Y203500*
X698273Y202375*
X699091Y202000*
X699636*
X700455Y202375*
X701000Y203500*
X701273Y205375*
Y206500*
X701000Y208375*
X700455Y209500*
X699636Y209875*
X699091*
X704000Y202750D02*
X703727Y202375D01*
X704000Y202000*
X704273Y202375*
X704000Y202750*
X708364Y209875D02*
X707545Y209500D01*
X707000Y208375*
X706727Y206500*
Y205375*
X707000Y203500*
X707545Y202375*
X708364Y202000*
X708909*
X709727Y202375*
X710273Y203500*
X710545Y205375*
Y206500*
X710273Y208375*
X709727Y209500*
X708909Y209875*
X708364*
X466545Y185875D02*
X469545D01*
X467909Y182875*
X468727*
X469273Y182500*
X469545Y182125*
X469818Y181000*
Y180250*
X469545Y179125*
X469000Y178375*
X468182Y178000*
X467364*
X466545Y178375*
X466273Y178750*
X466000Y179500*
X475818Y185875D02*
X473091D01*
X472818Y182500*
X473091Y182875*
X473909Y183250*
X474727*
X475545Y182875*
X476091Y182125*
X476364Y181000*
X476091Y180250*
X475818Y179125*
X475273Y178375*
X474455Y178000*
X473636*
X472818Y178375*
X472545Y178750*
X472273Y179500*
X559591Y185875D02*
X562591D01*
X560955Y182875*
X561773*
X562318Y182500*
X562591Y182125*
X562864Y181000*
Y180250*
X562591Y179125*
X562045Y178375*
X561227Y178000*
X560409*
X559591Y178375*
X559318Y178750*
X559045Y179500*
X592000Y184000D02*
X604000D01*
X598000Y178000D02*
Y190000D01*
X602745Y193300D02*
X601000Y187000D01*
X602745Y193300D02*
X604491Y187000D01*
X601655Y189100D02*
X603836D01*
X624636Y185875D02*
X626818Y182125D01*
Y178000*
X629000Y185875D02*
X626818Y182125D01*
X631455Y185875D02*
Y178000D01*
Y185875D02*
X635000D01*
X631455Y182125D02*
X633636D01*
X631455Y178000D02*
X635000D01*
X641273Y184750D02*
X640727Y185500D01*
X639909Y185875*
X638818*
X638000Y185500*
X637455Y184750*
Y184000*
X637727Y183250*
X638000Y182875*
X638545Y182500*
X640182Y181750*
X640727Y181375*
X641000Y181000*
X641273Y180250*
Y179125*
X640727Y178375*
X639909Y178000*
X638818*
X638000Y178375*
X637455Y179125*
X677818Y184750D02*
Y178000D01*
X675364Y181375D02*
X680273D01*
X687636Y187375D02*
X682727Y175375D01*
X690091Y181375D02*
X695000D01*
X699091Y185875D02*
X698273Y185500D01*
X697727Y184375*
X697455Y182500*
Y181375*
X697727Y179500*
X698273Y178375*
X699091Y178000*
X699636*
X700455Y178375*
X701000Y179500*
X701273Y181375*
Y182500*
X701000Y184375*
X700455Y185500*
X699636Y185875*
X699091*
X704000Y178750D02*
X703727Y178375D01*
X704000Y178000*
X704273Y178375*
X704000Y178750*
X708364Y185875D02*
X707545Y185500D01*
X707000Y184375*
X706727Y182500*
Y181375*
X707000Y179500*
X707545Y178375*
X708364Y178000*
X708909*
X709727Y178375*
X710273Y179500*
X710545Y181375*
Y182500*
X710273Y184375*
X709727Y185500*
X708909Y185875*
X708364*
X468727Y161875D02*
X466000Y156625D01*
X470091*
X468727Y161875D02*
Y154000D01*
X473091Y161875D02*
X476091D01*
X474455Y158875*
X475273*
X475818Y158500*
X476091Y158125*
X476364Y157000*
Y156250*
X476091Y155125*
X475545Y154375*
X474727Y154000*
X473909*
X473091Y154375*
X472818Y154750*
X472545Y155500*
X479091Y154750D02*
X478818Y154375D01*
X479091Y154000*
X479364Y154375*
X479091Y154750*
X482364Y161875D02*
X485364D01*
X483727Y158875*
X484545*
X485091Y158500*
X485364Y158125*
X485636Y157000*
Y156250*
X485364Y155125*
X484818Y154375*
X484000Y154000*
X483182*
X482364Y154375*
X482091Y154750*
X481818Y155500*
X488091Y160375D02*
X488636Y160750D01*
X489455Y161875*
Y154000*
X562455Y161875D02*
X559727D01*
X559455Y158500*
X559727Y158875*
X560545Y159250*
X561364*
X562182Y158875*
X562727Y158125*
X563000Y157000*
X562727Y156250*
X562455Y155125*
X561909Y154375*
X561091Y154000*
X560273*
X559455Y154375*
X559182Y154750*
X558909Y155500*
X592000Y160000D02*
X604000D01*
X598000Y154000D02*
Y166000D01*
X601000Y169300D02*
Y163000D01*
Y169300D02*
X602964D01*
X603618Y169000*
X603836Y168700*
X604055Y168100*
Y167500*
X603836Y166900*
X603618Y166600*
X602964Y166300*
X601000D02*
X602964D01*
X603618Y166000*
X603836Y165700*
X604055Y165100*
Y164200*
X603836Y163600*
X603618Y163300*
X602964Y163000*
X601000*
X624636Y161875D02*
X626818Y158125D01*
Y154000*
X629000Y161875D02*
X626818Y158125D01*
X631455Y161875D02*
Y154000D01*
Y161875D02*
X635000D01*
X631455Y158125D02*
X633636D01*
X631455Y154000D02*
X635000D01*
X641273Y160750D02*
X640727Y161500D01*
X639909Y161875*
X638818*
X638000Y161500*
X637455Y160750*
Y160000*
X637727Y159250*
X638000Y158875*
X638545Y158500*
X640182Y157750*
X640727Y157375*
X641000Y157000*
X641273Y156250*
Y155125*
X640727Y154375*
X639909Y154000*
X638818*
X638000Y154375*
X637455Y155125*
X677818Y160750D02*
Y154000D01*
X675364Y157375D02*
X680273D01*
X687636Y163375D02*
X682727Y151375D01*
X690091Y157375D02*
X695000D01*
X699091Y161875D02*
X698273Y161500D01*
X697727Y160375*
X697455Y158500*
Y157375*
X697727Y155500*
X698273Y154375*
X699091Y154000*
X699636*
X700455Y154375*
X701000Y155500*
X701273Y157375*
Y158500*
X701000Y160375*
X700455Y161500*
X699636Y161875*
X699091*
X704000Y154750D02*
X703727Y154375D01*
X704000Y154000*
X704273Y154375*
X704000Y154750*
X708364Y161875D02*
X707545Y161500D01*
X707000Y160375*
X706727Y158500*
Y157375*
X707000Y155500*
X707545Y154375*
X708364Y154000*
X708909*
X709727Y154375*
X710273Y155500*
X710545Y157375*
Y158500*
X710273Y160375*
X709727Y161500*
X708909Y161875*
X708364*
X468727Y137875D02*
X466000Y132625D01*
X470091*
X468727Y137875D02*
Y130000D01*
X473091Y137875D02*
X476091D01*
X474455Y134875*
X475273*
X475818Y134500*
X476091Y134125*
X476364Y133000*
Y132250*
X476091Y131125*
X475545Y130375*
X474727Y130000*
X473909*
X473091Y130375*
X472818Y130750*
X472545Y131500*
X479091Y130750D02*
X478818Y130375D01*
X479091Y130000*
X479364Y130375*
X479091Y130750*
X482364Y137875D02*
X485364D01*
X483727Y134875*
X484545*
X485091Y134500*
X485364Y134125*
X485636Y133000*
Y132250*
X485364Y131125*
X484818Y130375*
X484000Y130000*
X483182*
X482364Y130375*
X482091Y130750*
X481818Y131500*
X488091Y136375D02*
X488636Y136750D01*
X489455Y137875*
Y130000*
X559318Y136000D02*
Y136375D01*
X559591Y137125*
X559864Y137500*
X560409Y137875*
X561500*
X562045Y137500*
X562318Y137125*
X562591Y136375*
Y135625*
X562318Y134875*
X561773Y133750*
X559045Y130000*
X562864*
X592000Y136000D02*
X604000D01*
X598000Y130000D02*
Y142000D01*
X604273Y143800D02*
X604055Y144400D01*
X603618Y145000*
X603182Y145300*
X602309*
X601873Y145000*
X601436Y144400*
X601218Y143800*
X601000Y142900*
Y141400*
X601218Y140500*
X601436Y139900*
X601873Y139300*
X602309Y139000*
X603182*
X603618Y139300*
X604055Y139900*
X604273Y140500*
X627636Y137875D02*
Y130000D01*
Y137875D02*
X631455Y130000D01*
Y137875D02*
Y130000D01*
X635545Y137875D02*
X635000Y137500D01*
X634455Y136750*
X634182Y136000*
X633909Y134875*
Y133000*
X634182Y131875*
X634455Y131125*
X635000Y130375*
X635545Y130000*
X636636*
X637182Y130375*
X637727Y131125*
X638000Y131875*
X638273Y133000*
Y134875*
X638000Y136000*
X637727Y136750*
X637182Y137500*
X636636Y137875*
X635545*
X677818Y136750D02*
Y130000D01*
X675364Y133375D02*
X680273D01*
X687636Y139375D02*
X682727Y127375D01*
X690091Y133375D02*
X695000D01*
X699091Y137875D02*
X698273Y137500D01*
X697727Y136375*
X697455Y134500*
Y133375*
X697727Y131500*
X698273Y130375*
X699091Y130000*
X699636*
X700455Y130375*
X701000Y131500*
X701273Y133375*
Y134500*
X701000Y136375*
X700455Y137500*
X699636Y137875*
X699091*
X704000Y130750D02*
X703727Y130375D01*
X704000Y130000*
X704273Y130375*
X704000Y130750*
X708364Y137875D02*
X707545Y137500D01*
X707000Y136375*
X706727Y134500*
Y133375*
X707000Y131500*
X707545Y130375*
X708364Y130000*
X708909*
X709727Y130375*
X710273Y131500*
X710545Y133375*
Y134500*
X710273Y136375*
X709727Y137500*
X708909Y137875*
X708364*
X466545Y113875D02*
X469545D01*
X467909Y110875*
X468727*
X469273Y110500*
X469545Y110125*
X469818Y109000*
Y108250*
X469545Y107125*
X469000Y106375*
X468182Y106000*
X467364*
X466545Y106375*
X466273Y106750*
X466000Y107500*
X476091Y113875D02*
X473364Y106000D01*
X472273Y113875D02*
X476091D01*
X556182Y112000D02*
Y112375D01*
X556455Y113125*
X556727Y113500*
X557273Y113875*
X558364*
X558909Y113500*
X559182Y113125*
X559455Y112375*
Y111625*
X559182Y110875*
X558636Y109750*
X555909Y106000*
X559727*
X563545Y113875D02*
X562727Y113500D01*
X562455Y112750*
Y112000*
X562727Y111250*
X563273Y110875*
X564364Y110500*
X565182Y110125*
X565727Y109375*
X566000Y108625*
Y107500*
X565727Y106750*
X565455Y106375*
X564636Y106000*
X563545*
X562727Y106375*
X562455Y106750*
X562182Y107500*
Y108625*
X562455Y109375*
X563000Y110125*
X563818Y110500*
X564909Y110875*
X565455Y111250*
X565727Y112000*
Y112750*
X565455Y113500*
X564636Y113875*
X563545*
X592000Y112000D02*
X604000D01*
X598000Y106000D02*
Y118000D01*
X601000Y121300D02*
Y115000D01*
Y121300D02*
X602527D01*
X603182Y121000*
X603618Y120400*
X603836Y119800*
X604055Y118900*
Y117400*
X603836Y116500*
X603618Y115900*
X603182Y115300*
X602527Y115000*
X601000*
X624636Y113875D02*
X626818Y110125D01*
Y106000*
X629000Y113875D02*
X626818Y110125D01*
X631455Y113875D02*
Y106000D01*
Y113875D02*
X635000D01*
X631455Y110125D02*
X633636D01*
X631455Y106000D02*
X635000D01*
X641273Y112750D02*
X640727Y113500D01*
X639909Y113875*
X638818*
X638000Y113500*
X637455Y112750*
Y112000*
X637727Y111250*
X638000Y110875*
X638545Y110500*
X640182Y109750*
X640727Y109375*
X641000Y109000*
X641273Y108250*
Y107125*
X640727Y106375*
X639909Y106000*
X638818*
X638000Y106375*
X637455Y107125*
X677818Y112750D02*
Y106000D01*
X675364Y109375D02*
X680273D01*
X687636Y115375D02*
X682727Y103375D01*
X690091Y109375D02*
X695000D01*
X699091Y113875D02*
X698273Y113500D01*
X697727Y112375*
X697455Y110500*
Y109375*
X697727Y107500*
X698273Y106375*
X699091Y106000*
X699636*
X700455Y106375*
X701000Y107500*
X701273Y109375*
Y110500*
X701000Y112375*
X700455Y113500*
X699636Y113875*
X699091*
X704000Y106750D02*
X703727Y106375D01*
X704000Y106000*
X704273Y106375*
X704000Y106750*
X708364Y113875D02*
X707545Y113500D01*
X707000Y112375*
X706727Y110500*
Y109375*
X707000Y107500*
X707545Y106375*
X708364Y106000*
X708909*
X709727Y106375*
X710273Y107500*
X710545Y109375*
Y110500*
X710273Y112375*
X709727Y113500*
X708909Y113875*
X708364*
X0Y0D02*
M02*
