%
T1C.007F0S0
X011809Y01323
X035416Y021208
X035703Y017287
X036041Y033189
X030268Y029194
X030094Y025044
X022758Y032349
X019227Y03921
X019949Y039388
X021126Y039009
X02222Y038781
X023269Y039346
X036592Y037001
X04359Y039066
X037744Y041082
X029938Y044738
X024785Y043371
X024775Y042439
X022322Y043268
X022101Y04345
X021413Y04272
X019697Y042497
X020654Y046725
X021712Y044962
X022379Y045448
X0225Y04925
X022726Y046546
X022956Y048355
X023218Y048355
X023523Y048355
X023985Y048377
X024334Y048412
X024665Y048386
X02511Y049868
X025215Y048403
X025511Y04842
X0256Y049867
X025843Y048429
X02685Y04985
X029882Y046448
X030102Y046499
X030369Y046424
X030589Y046435
X035737Y046707
X036092Y046707
X036345Y046741
X036592Y046746
X037911Y04693
X041Y04965
X0422Y04945
X04345Y04925
X04275Y0508
X04185Y0508
X04125Y05155
X037851Y05246
X03755Y05045
X03451Y051277
X033936Y050655
X033697Y050857
X033499Y052302
X033337Y051448
X033301Y051768
X033204Y05062
X033087Y052206
X033029Y051232
X032765Y052393
X032643Y051973
X032556Y051661
X032554Y049986
X031448Y050124
X031036Y051526
X030745Y050679
X027622Y050046
X027517Y050252
X027498Y052454
X027335Y050556
X027051Y050646
X026438Y052399
X026123Y052414
X025835Y052414
X025755Y050496
X025404Y051483
X025379Y050523
X025231Y051762
X025195Y052411
X024951Y051589
X024791Y051436
X024559Y052419
X024557Y052099
X024237Y052113
X023918Y052414
X023917Y052094
X023772Y051716
X023603Y052078
X023594Y052398
X023274Y052096
X022974Y051801
X022614Y050124
X02261Y050881
X02261Y050496
X014656Y050552
X013616Y051913
X013616Y051301
X011536Y050591
X011062Y054731
X013394Y054944
X013581Y052996
X013584Y052494
X01359Y053656
X013616Y054312
X0145Y0541
X014676Y053165
X020979Y053181
X021012Y053501
X021093Y053927
X021527Y054151
X021587Y053831
X022326Y054551
X022651Y053999
X022652Y053302
X022752Y052782
X02287Y053961
X023305Y053038
X023578Y053673
X023583Y054298
X023594Y052718
X023603Y054618
X023603Y053358
X023608Y054929
X023903Y054303
X023909Y053038
X02391Y054933
X023913Y052718
X023918Y053673
X023918Y053358
X023918Y054623
X024233Y054933
X024233Y054618
X024244Y053049
X024248Y053673
X024248Y052729
X024253Y054303
X024547Y053979
X024548Y052729
X024548Y053358
X024548Y054618
X024548Y054303
X024548Y053044
X024553Y054933
X024863Y054618
X024863Y054933
X024863Y054303
X024863Y053044
X024863Y053358
X025172Y052731
X025205Y053043
X025483Y054933
X025493Y053044
X025493Y052729
X025803Y054933
X025808Y053044
X025808Y053358
X025808Y054303
X025808Y054618
X025808Y053962
X025813Y052724
X026118Y052734
X026123Y053358
X026123Y053673
X026123Y053044
X026123Y054618
X026123Y054933
X026438Y052719
X026438Y054623
X026438Y053358
X026438Y054303
X026443Y054928
X026453Y053039
X027219Y054052
X027408Y052893
X027526Y054472
X027533Y05363
X027669Y05311
X027853Y053558
X027927Y053046
X028398Y054818
X028597Y054263
X028774Y054683
X030466Y054026
X031076Y053041
X031122Y053461
X031149Y054591
X031213Y054171
X031448Y052707
X031473Y053717
X032592Y053512
X032612Y054087
X032621Y053092
X032937Y05379
X033002Y05288
X033025Y05321
X033254Y052533
X033345Y0529
X033366Y053395
X033649Y054548
X034612Y053853
X034838Y052464
X034971Y05477
X035017Y052931
X035321Y05324
X035335Y054462
X035335Y053603
X035362Y054094
X035943Y052545
X037594Y053813
X037685Y053039
X037872Y054326
X038568Y053852
X038592Y052823
X038742Y053298
X039215Y052818
X04045Y05465
X0431Y05495
X044778Y052934
X042647Y056811
X039596Y056177
X03811Y055503
X038035Y056622
X037705Y056399
X037575Y055229
X037319Y055426
X037103Y056687
X036628Y055134
X036467Y057127
X036041Y057049
X035619Y055849
X035551Y056204
X034768Y055887
X034766Y055467
X033257Y055002
X032936Y055009
X030506Y05624
X029656Y057352
X029606Y056762
X029407Y054973
X029403Y0572
X029343Y055906
X029132Y05704
X029126Y056765
X028883Y05652
X028705Y055884
X02836Y055688
X028227Y056522
X027017Y057395
X026445Y056627
X026438Y055248
X0263Y05725
X026159Y05708
X026128Y055253
X025811Y056777
X025493Y055248
X025391Y056645
X025391Y057356
X02525Y05715
X025118Y055932
X025058Y056852
X02487Y055254
X024738Y056792
X02455Y055253
X024418Y056704
X024379Y05714
X02423Y055258
X024164Y056902
X024044Y056712
X02391Y055248
X023618Y055248
X023288Y055563
X023288Y055878
X022709Y055395
X022641Y054971
X022436Y057379
X022431Y056437
X022408Y056189
X022166Y057069
X02164Y055303
X016271Y055152
X015693Y055159
X015101Y055186
X014476Y055186
X013901Y055093
X015085Y05822
X015526Y057965
X016068Y057779
X019578Y058843
X020554Y057472
X022347Y058848
X02245Y05855
X023582Y057908
X023913Y058581
X02421Y058356
X024355Y05854
X024452Y057931
X024554Y058141
X024729Y057713
X025149Y057848
X025155Y058125
X02547Y057838
X02574Y058341
X025789Y057557
X02589Y058127
X025989Y058435
X026162Y058637
X026804Y057579
X027235Y057833
X031031Y058445
X0372Y05755
X037618Y058229
X039674Y057751
X042585Y059229
X042625Y059632
X043892Y057645
X044079Y059217
X042918Y062341
X042721Y060205
X042634Y060958
X0368Y0618
X030431Y061029
X029883Y06086
X029358Y061781
X028941Y061917
X028753Y061739
X028549Y06076
X028137Y062095
X028064Y060734
X027566Y060537
X027489Y062095
X026804Y060672
X026007Y060369
X023242Y060917
X0225Y0615
X020848Y060902
X016445Y061218
X014218Y060151
X01317Y060491
X0207Y0635
X02445Y0642
X0248Y06355
X02535Y06255
X02555Y0637
X026331Y062734
X027082Y062805
X027741Y06418
X029306Y063211
X030729Y063176
X03185Y0635
X0327Y06435
X033411Y064709
X0337Y06325
X034636Y064145
X034674Y063331
X037Y06255
X0374Y06445
X03815Y0637
X042906Y063551
X04298Y062946
X0396Y0674
X0389Y06615
X03545Y06745
X034119Y065485
X033441Y065523
X027233Y065313
X027092Y065502
X0268Y06595
X026331Y065358
X024193Y066963
X024144Y066258
X023691Y066716
X023505Y066411
X023208Y066567
X0231Y06745
X02205Y06725
X020513Y067097
X01685Y06575
X013512Y067138
X013112Y066861
X015564Y068131
X02355Y0686
X0238Y06775
X023835Y069415
X02435Y06875
X02435Y06815
X024653Y067714
X02485Y06945
X0249Y06875
X02505Y0691
X02525Y06925
X025332Y067902
X02545Y06855
X02565Y06845
X02585Y06795
X02605Y06895
X0273Y06945
X0281Y06945
X02832Y06945
X0287Y06945
X02892Y06947
X0291Y069339
X02932Y06945
X036197Y069147
X0374Y0685
X038546Y067529
X038622Y069463
X038641Y068658
X039206Y068706
X039485Y068393
X040911Y06912
X041003Y069615
X042911Y068628
X042991Y069373
X043766Y068265
X042744Y071805
X04172Y070631
X0387Y07085
X0376Y07095
X037117Y070449
X03615Y07025
X03501Y070779
X03486Y07038
X034065Y071226
X034055Y070361
X031594Y071431
X0295Y07025
X028507Y071527
X028344Y071844
X02825Y07095
X02789Y071935
X026739Y070922
X025751Y071347
X024826Y071606
X0236Y07025
X023Y07025
X022907Y071613
X0224Y07045
X0215Y071566
X0208Y07115
X02058Y072125
X019873Y071418
X019605Y072247
X018627Y071827
X018534Y071176
X017557Y070757
X018031Y072794
X021482Y072608
X025098Y072687
X028102Y07427
T2C.01F095S3
X013595Y019211
X014098Y023154
X014123Y01582
X022586Y034048
X021784Y03099
X021345Y030733
X021218Y03485
X019877Y031247
X012745Y027138
X013337Y038621
X019462Y039304
X019665Y038831
X021436Y038184
X021718Y035237
X021769Y038816
X022692Y037257
X024993Y038513
X023334Y04705
X021784Y041676
X021496Y043584
X016427Y047445
X014366Y043389
X019199Y048796
X019536Y049078
X022862Y049604
X022869Y048797
X02325Y04879
X02355Y048794
X024011Y048797
X024396Y048784
X024447Y049852
X024667Y048797
X025254Y04879
X025576Y048797
X025948Y048797
X0418Y048155
X042729Y047564
X024437Y050659
X024427Y050294
X022617Y053661
X02238Y053365
X02172Y051296
X021346Y051296
X02132Y053335
X021081Y052346
X021003Y052696
X020932Y051296
X019233Y053494
X0186Y052306
X018374Y052575
X017394Y052381
X016665Y054411
X014749Y053491
X014228Y054131
X013858Y053193
X01385Y052736
X013276Y050833
X012509Y050129
X01694Y057253
X022395Y059384
X02335Y056748
X023405Y057151
X023531Y056411
X023917Y057897
X024024Y057374
X036008Y056223
X04277Y057851
X04404Y058434
X044823Y058434
X04161Y066482
X0414Y067438
X035628Y060161
X023163Y064244
X018104Y066482
X015683Y061101
X015106Y061142
X014469Y061166
X014315Y06538
X013244Y065848
X011454Y067255
X018094Y068558
X022909Y070797
X023561Y067907
X032341Y071674
X032549Y068198
X035484Y071542
X036152Y071715
X038Y070338
X026721Y07434
X026576Y07335
X025822Y07272
X02337Y072815
X02265Y07335
X02238Y074306
T3C.035F197S55
X010787Y06315
X010787Y06415
X010787Y06515
T4C.037F197S55
X03079Y07361
X03079Y07261
X03179Y07361
X03179Y07261
X03279Y07361
X03279Y07261
X03379Y07361
X03379Y07261
X03479Y07361
X03479Y07261
X03579Y07361
X03579Y07261
X03679Y07361
X03679Y07261
X03779Y07361
X03779Y07261
X03879Y07361
X03879Y07261
X03979Y07361
X03979Y07261
X04079Y07361
X04079Y07261
X04179Y07361
X04179Y07261
X04279Y07361
X04279Y07261
X04379Y07361
X04379Y07261
T5C.03898F197S55
X012657Y012461
X012657Y014232
X015217Y014232
X015217Y012461
X018169Y012461
X018169Y014232
X020728Y014232
X020728Y012461
X023681Y012461
X023681Y014232
X02624Y014232
X02624Y012461
X029193Y012461
X029193Y014232
X031752Y014232
X031752Y012461
X034705Y012461
X034705Y014232
X037264Y014232
X037264Y012461
X040217Y012461
X040217Y014232
X042776Y014232
X042776Y012461
X042776Y016398
X042776Y018169
X040217Y016398
X040217Y018169
X037264Y018169
X037264Y016398
X034705Y018169
X034705Y016398
X031752Y016398
X031752Y018169
X029193Y016398
X029193Y018169
X02624Y016398
X02624Y018169
X023681Y016398
X023681Y018169
X020728Y016398
X020728Y018169
X018169Y016398
X018169Y018169
X015217Y018169
X015217Y016398
X012657Y018169
X012657Y016398
X012657Y020335
X012657Y022106
X015217Y022106
X015217Y020335
X018169Y020335
X018169Y022106
X020728Y022106
X020728Y020335
X023681Y020335
X023681Y022106
X02624Y022106
X02624Y020335
X029193Y020335
X029193Y022106
X031752Y022106
X031752Y020335
X034705Y020335
X034705Y022106
X037264Y022106
X037264Y020335
X040217Y020335
X040217Y022106
X042776Y022106
X042776Y020335
X042776Y024075
X042776Y025846
X040217Y024075
X040217Y025846
X037264Y024272
X037264Y026043
X034705Y024272
X034705Y026043
X031752Y024272
X031752Y026043
X029193Y026043
X029193Y024272
X02624Y026043
X02624Y024272
X023681Y026043
X023681Y024272
X020728Y026043
X020728Y024272
X018169Y026043
X018169Y024272
X015217Y026043
X015217Y024272
X012657Y024272
X012657Y026043
X012657Y028209
X012657Y02998
X012657Y032146
X015217Y02998
X015217Y028209
X015217Y032146
X018169Y028209
X018169Y02998
X018169Y032146
X020728Y02998
X020728Y028209
X020728Y032146
X023681Y02998
X023681Y028209
X023681Y032146
X02624Y02998
X02624Y032146
X02624Y028209
X029193Y02998
X029193Y028209
X029193Y032146
X031752Y02998
X031752Y032146
X031752Y028209
X034705Y02998
X034705Y032146
X034705Y028209
X037264Y032146
X037264Y02998
X037264Y028209
X040217Y028209
X040217Y032146
X040217Y02998
X042776Y028209
X042776Y02998
X042776Y032146
X042776Y033917
X042776Y036083
X040217Y033917
X040217Y036083
X037264Y033917
X037264Y036083
X034705Y033917
X034705Y036083
X031752Y033917
X031752Y036083
X029193Y033917
X029193Y036083
X02624Y033917
X02624Y036083
X023681Y036083
X023681Y033917
X020728Y033917
X020728Y036083
X018169Y036083
X018169Y033917
X015217Y036083
X015217Y033917
X012657Y033917
X012657Y036083
X012657Y037854
X012657Y04002
X012657Y041791
X015217Y041791
X015217Y037854
X015217Y04002
X018169Y04002
X018169Y041791
X018169Y037854
X020728Y041791
X020728Y04002
X020728Y037854
X023681Y04002
X023681Y037854
X023681Y041791
X02624Y041791
X02624Y04002
X02624Y037854
X029193Y037854
X029193Y04002
X029193Y041791
X031752Y037854
X031752Y041791
X031752Y04002
X034705Y037854
X034705Y04002
X034705Y041791
X037264Y037854
X037264Y041791
X037264Y04002
X040217Y041791
X040217Y037854
X040217Y04002
X042776Y04002
X042776Y041791
X042776Y037854
X042776Y043957
X042776Y045728
X040217Y043957
X040217Y045728
X037264Y043957
X037264Y045728
X034705Y043957
X034705Y045728
X031752Y045728
X031752Y043957
X029193Y045728
X029193Y043957
X02624Y043957
X02624Y045728
X023681Y045728
X023681Y043957
X020728Y043957
X020728Y045728
X018169Y043957
X018169Y045728
X015217Y045728
X015217Y043957
X012657Y043957
X012657Y045728
T6C.04016F139S55
X039606Y061054
X039606Y066054
T7C.04331F139S55
X014094Y070433
X015354Y070433
X016142Y071654
X016496Y073622
X012835Y073622
T8C.04331F139S55
X014724Y071654
X014724Y073622
T9C.07874F081S55
X01707Y05032
X038329Y05032
T10C.09291F066S55
X029047Y058755
X029047Y068353
M30
